<?xml version="1.0" encoding="utf-8"?>
<!-- Generator: Adobe Illustrator 15.1.0, SVG Export Plug-In . SVG Version: 6.00 Build 0)  -->
<!DOCTYPE svg PUBLIC "-//W3C//DTD SVG 1.1//EN" "http://www.w3.org/Graphics/SVG/1.1/DTD/svg11.dtd">
<svg version="1.1" id="Layer_1" xmlns="http://www.w3.org/2000/svg" xmlns:xlink="http://www.w3.org/1999/xlink" x="0px" y="0px"
	 width="612px" height="792px" viewBox="0 0 612 792" enable-background="new 0 0 612 792" xml:space="preserve">
<path fill-rule="evenodd" clip-rule="evenodd" stroke="#000000" stroke-width="2.9999" stroke-linecap="round" stroke-linejoin="round" stroke-miterlimit="22.9256" d="
	M156.013,478.372c0.819-2.771,2.5-5.413,5.102-7.334s6.124-3.122,8.325-4.522c2.201-1.401,3.082-3.002,4.322-3.922
	c1.241-0.921,2.841-1.161,3.242-2.241c0.4-1.081-0.4-3.002,0.16-4.563c0.561-1.561,2.481-2.761,3.362-3.882
	c0.88-1.12,0.72-2.16,0.36-3.361c-0.36-1.201-0.92-2.562-0.801-3.563c0.121-1.001,0.92-1.641,0.881-2.921
	c-0.04-1.281-0.92-3.202-0.84-4.643c0.08-1.441,1.12-2.401,2.201-2.842c1.081-0.44,2.202-0.36,2.282-0.961s-0.881-1.881-1-3.041
	c-0.12-1.161,0.6-2.201,1.701-3.362c1.101-1.161,2.582-2.441,4.543-3.803c1.961-1.36,4.402-2.801,5.623-3.521
	s1.221-0.721,1.101-1.241c-0.12-0.521-0.359-1.562-0.419-2.763c-0.06-1.2,0.06-2.561,0.6-3.321c0.541-0.761,1.501-0.921,2.622-1.562
	c1.121-0.64,2.401-1.761,2.981-2.721c0.581-0.961,0.46-1.762-0.46-1.981c-0.921-0.221-2.642,0.14-3.582-0.541
	c-0.94-0.68-1.101-2.4-1.341-3.762c-0.24-1.36-0.56-2.361-0.44-3.062c0.12-0.7,0.681-1.101,0.94-1.921
	c0.26-0.821,0.22-2.061,0.941-2.401c0.72-0.34,2.201,0.22,3.122,0.18c0.921-0.04,1.28-0.68,1.141-1.36
	c-0.14-0.68-0.78-1.401-0.6-2.101c0.18-0.701,1.181-1.381,1.881-1.961c0.7-0.581,1.101-1.062,1.141-1.802
	c0.041-0.741-0.28-1.742,0.121-2.522c0.4-0.781,1.521-1.341,1.981-2.141c0.46-0.801,0.26-1.841,0.76-2.662
	c0.5-0.82,1.701-1.42,2.361-2.121c0.661-0.701,0.781-1.501,1.601-1.921c0.82-0.42,2.341-0.461,3.122-1.361
	c0.78-0.901,0.82-2.662,0.24-3.562c-0.58-0.9-1.781-0.94-2.941-0.98s-2.281-0.08-2.842-1c-0.56-0.921-0.56-2.722,0.061-4.022
	c0.62-1.301,1.861-2.102,2.861-2.682c1-0.58,1.761-0.94,1.761-1.541c0-0.6-0.76-1.44-1.38-2.201
	c-0.621-0.761-1.101-1.441-1.021-2.202c0.08-0.76,0.721-1.601,0.761-2.602c0.04-1-0.521-2.161-1.321-3.321
	c-0.801-1.161-1.841-2.322-2.521-3.442c-0.68-1.121-1-2.201-0.88-3.802c0.12-1.601,0.68-3.722,1.381-5.783
	c0.7-2.061,1.541-4.063,1.561-5.583c0.02-1.521-0.78-2.562-0.94-3.882s0.32-2.921,0.08-4.123c-0.24-1.201-1.201-2.001-1.381-3.021
	c-0.18-1.021,0.42-2.261,1.621-3.181c1.201-0.921,3.002-1.521,4.103-2.282c1.101-0.76,1.501-1.681,1.701-2.501
	c0.2-0.821,0.2-1.542,0.841-2.382c0.64-0.84,1.921-1.801,4.022-2.821c2.101-1.021,5.022-2.101,7.424-2.702s4.283-0.72,6.003-0.74
	s3.282,0.06,4.552-0.46c1.271-0.521,2.251-1.641,3.352-2.312s2.321-0.891,3.342-0.741c1.021,0.15,1.841,0.67,2.572,1.281
	c0.73,0.61,1.371,1.311,2.281,1.721c0.911,0.41,2.092,0.53,3.463,0.29c1.371-0.24,2.931-0.84,4.792-1.601
	c1.861-0.76,4.022-1.681,5.383-2.441c1.361-0.76,1.921-1.361,2.161-2.941c0.24-1.581,0.16-4.143,0.981-6.063
	c0.82-1.921,2.541-3.202,4.462-4.103c1.921-0.9,4.042-1.42,5.743-1.3s2.981,0.88,3.962,0.7c0.98-0.18,1.661-1.301,2.481-1.921
	c0.82-0.621,1.781-0.741,3.122-0.84c1.341-0.101,3.062-0.18,4.943-1.041c1.881-0.861,3.922-2.502,5.523-3.782
	c1.601-1.281,2.762-2.201,3.442-3.242c0.68-1.041,0.88-2.201,1.101-3.042c0.22-0.84,0.459-1.361,1.08-1.811s1.621-0.831,1.791-1.451
	s-0.491-1.481-0.22-2.271c0.27-0.79,1.471-1.51,2.381-1.73c0.911-0.22,1.531,0.06,2.111-0.201c0.581-0.26,1.121-1.06,1.981-1.37
	c0.86-0.311,2.041-0.13,2.892-0.261c0.851-0.13,1.371-0.57,1.661-1.13c0.29-0.56,0.35-1.241,0.931-1.781
	c0.58-0.541,1.681-0.941,2.241-1.381c0.561-0.44,0.58-0.92,0.1-1.631s-1.461-1.651-1.61-2.361c-0.15-0.71,0.53-1.191,1.28-1.731
	c0.75-0.541,1.571-1.141,1.911-1.901c0.34-0.76,0.2-1.681-0.221-2.381c-0.42-0.701-1.12-1.181-2.051-2.001
	c-0.93-0.82-2.09-1.98-2.05-3.161c0.041-1.181,1.281-2.381,2.922-2.821c1.642-0.44,3.683-0.12,5.343-0.62
	c1.661-0.5,2.942-1.821,3.643-2.821c0.7-1.001,0.82-1.682-0.021-2.602c-0.84-0.92-2.642-2.081-3.441-3.461
	c-0.801-1.381-0.601-2.982,0-3.962c0.601-0.981,1.601-1.341,2.001-1.881c0.4-0.541,0.2-1.261-0.44-1.841
	c-0.64-0.581-1.721-1.021-2.062-1.621c-0.34-0.601,0.061-1.361,0.16-2.102c0.101-0.74-0.1-1.46-0.66-2
	c-0.56-0.541-1.48-0.901-2.361-1.241c-0.88-0.34-1.721-0.66-2.181-1.821s-0.541-3.162-1.081-4.123c-0.54-0.96-1.54-0.88-1.921-1.521
	c-0.38-0.641-0.14-2.001-0.36-3.302c-0.22-1.301-0.9-2.542-1.48-3.402c-0.58-0.86-1.061-1.34-1.841-2.361s-1.86-2.582-2.541-3.882
	c-0.68-1.301-0.96-2.341-1.4-3.302s-1.041-1.841-0.7-2.622c0.34-0.781,1.62-1.46,3.001-2.701s2.862-3.042,4.183-4.302
	c1.321-1.261,2.481-1.981,3.362-2.502c0.88-0.52,1.48-0.84,1.78-1.44c0.301-0.601,0.301-1.481,0.581-2.081
	c0.279-0.601,0.84-0.921,0.9-1.541c0.06-0.621-0.381-1.541-0.561-2.301c-0.181-0.761-0.101-1.361,0.26-1.881
	c0.36-0.52,1.001-0.96,1.642-1.521c0.64-0.561,1.28-1.241,1.721-2.061c0.44-0.821,0.68-1.781,0.7-3.001
	c0.021-1.221-0.18-2.702,0.16-3.782c0.341-1.081,1.221-1.761,2.501-2.742c1.281-0.981,2.962-2.261,4.223-3.522
	s2.102-2.501,3.121-3.582c1.021-1.081,2.223-2.001,2.843-2.762s0.66-1.361-0.28-2.421s-2.861-2.581-3.723-3.982
	c-0.86-1.4-0.66-2.681-0.399-4.122c0.26-1.44,0.58-3.042,0.14-4.242c-0.439-1.201-1.641-2.001-2.722-3.162
	c-1.08-1.161-2.041-2.681-2.221-4.162c-0.181-1.481,0.42-2.922,1.4-4.122c0.98-1.201,2.342-2.162,3.922-2.402
	c1.582-0.24,3.383,0.24,4.983,0.32s3.002-0.24,4.162-1.161c1.161-0.921,2.081-2.441,1.621-3.202c-0.46-0.761-2.301-0.761-3.782-0.9
	c-1.48-0.14-2.602-0.421-2.741-1.341c-0.14-0.921,0.7-2.481,0.46-3.642s-1.561-1.921-1.701-3.462c-0.14-1.541,0.9-3.862,1.961-5.363
	c1.061-1.501,2.142-2.182,3.342-2.622c1.201-0.44,2.521-0.641,3.662-1.881s2.101-3.522,3.342-5.243
	c1.241-1.721,2.762-2.881,3.702-3.882c0.94-1,1.301-1.841,0.98-2.761s-1.32-1.921-1.4-3.182c-0.08-1.261,0.76-2.781,1.58-4.602
	c0.821-1.821,1.621-3.943,2.382-5.604s1.48-2.861,2.181-3.972c0.701-1.11,1.381-2.131,0.49-3.432s-3.352-2.882-5.253-4.082
	c-1.9-1.201-3.241-2.021-3.342-2.772c-0.1-0.75,1.041-1.431,2.701-1.851c1.661-0.42,3.843-0.581,5.693-0.38
	c1.852,0.2,3.372,0.76,4.433,1.03s1.661,0.25,2.121-0.35s0.78-1.781,1.36-2.471c0.581-0.69,1.422-0.891,2.012-1.041
	s0.931-0.25,0.86-1.001c-0.07-0.75-0.551-2.151-0.15-3.171c0.4-1.021,1.681-1.661,2.651-2.051s1.631-0.53,2.662-1
	c1.03-0.471,2.431-1.271,3.981-2.301c1.552-1.031,3.253-2.292,4.514-3.202c1.26-0.91,2.081-1.471,3.092-1.42
	c1.01,0.05,2.211,0.71,3.111,1.02c0.9,0.311,1.501,0.271,1.871,0.821s0.511,1.691,0.84,2.862c0.331,1.17,0.851,2.371,1.802,3.201
	c0.95,0.831,2.331,1.291,3.501,2.231c1.171,0.94,2.132,2.361,2.982,3.062c0.851,0.7,1.591,0.68,2.981,0.7s3.432,0.081,4.603,0.401
	c1.17,0.32,1.471,0.9,2.081,1.15s1.53,0.17,2.621-0.19s2.352-1,3.492-0.94c1.141,0.06,2.162,0.82,3.021,1.201
	c0.861,0.38,1.562,0.38,2.472-0.47c0.911-0.851,2.031-2.552,2.972-4.023c0.94-1.471,1.701-2.711,2.201-3.491
	c0.501-0.781,0.74-1.101,0.581-1.852c-0.16-0.75-0.721-1.931-0.271-3.091c0.45-1.161,1.911-2.302,3.222-3.121
	c1.311-0.819,2.472-1.317,3.052-1.407s0.58,0.228,0.79,3.148c0.21,2.92,0.631,8.443,2.492,39.791
	c1.86,31.347,5.162,88.518,7.573,135.194c2.411,46.675,3.932,82.855,5.973,131.042s4.602,108.379,6.402,138.917
	c1.801,30.536,2.842,31.416,3.883,32.497c1.04,1.081,2.081,2.361,2.481,3.603c0.4,1.24,0.16,2.441-0.16,3.361
	c-0.32,0.921-0.721,1.562-0.721,2.802s0.4,3.081,0.2,4.883c-0.2,1.801-1.001,3.562-1.561,5.003c-0.561,1.44-0.881,2.561-0.721,3.642
	s0.8,2.121,1.12,3.402c0.32,1.28,0.32,2.801,0.04,4.282c-0.279,1.48-0.84,2.921-1.681,4.522c-0.841,1.601-1.961,3.361-2.602,5.002
	c-0.641,1.642-0.801,3.162-1.121,4.603s-0.801,2.802-0.36,4.442s1.801,3.562,2.481,5.322c0.681,1.762,0.681,3.362,1.441,4.644
	c0.76,1.28,2.28,2.24,3.962,2.681c1.681,0.44,3.521,0.36,5.163,1.201c1.641,0.84,3.081,2.602,4.162,4.082
	c1.08,1.481,1.801,2.682,1.881,3.922c0.08,1.241-0.48,2.521,0.16,3.482c0.641,0.96,2.481,1.601,3.922,2.761
	c1.441,1.161,2.481,2.842,3.682,4.323c1.201,1.48,2.562,2.762,3.843,3.401c1.28,0.641,2.48,0.641,3.321,1.321
	s1.321,2.041,2.321,2.921c1.001,0.881,2.521,1.281,3.362,2.161c0.841,0.881,1.001,2.241,0.76,3.282
	c-0.239,1.041-0.88,1.761-1.04,3.042c-0.16,1.28,0.16,3.121-0.36,4.362c-0.521,1.24-1.881,1.881-2.321,2.762
	c-0.44,0.88,0.04,2.001-0.04,3.081c-0.08,1.081-0.721,2.121-1.04,3.603c-0.32,1.48-0.32,3.401-0.2,4.762
	c0.12,1.361,0.36,2.161-0.021,2.781c-0.38,0.621-1.381,1.061-2.321,0.721s-1.821-1.461-2.642-1.74
	c-0.82-0.28-1.581,0.279-3.042,0.579c-1.46,0.301-3.621,0.341-4.482,0.781c-0.86,0.44-0.42,1.28,0.221,2.041s1.48,1.44,1.9,2.421
	c0.421,0.981,0.421,2.262,0.061,3.022c-0.36,0.76-1.081,1-1.421,1.681c-0.34,0.68-0.3,1.801-0.94,2.741s-1.961,1.701-3.361,2.642
	c-1.401,0.94-2.882,2.062-3.622,3.602c-0.74,1.541-0.74,3.503-0.341,4.343c0.4,0.841,1.201,0.561,2.302-0.28
	s2.501-2.241,4.682-2.461c2.182-0.221,5.144,0.74,7.185,1.301s3.162,0.72,3.982,0.28c0.82-0.44,1.341-1.481,0.94-2.622
	s-1.721-2.381-2.962-3.102c-1.24-0.721-2.4-0.921-2.661-1.601c-0.26-0.681,0.38-1.841,0.94-2.962c0.561-1.12,1.04-2.201,1.66-3.201
	c0.621-1.001,1.382-1.922,2.822-2.361c1.44-0.44,3.563-0.4,5.723,0.399c2.162,0.801,4.363,2.361,6.664,3.883
	c2.302,1.521,4.703,3.001,6.164,4.202c1.461,1.2,1.98,2.121,1.58,3.142c-0.399,1.021-1.721,2.142-2.321,3.082
	c-0.6,0.94-0.479,1.7,0.721,2.021c1.201,0.32,3.482,0.2,5.303,0.4c1.821,0.2,3.183,0.721,3.322,1.901s-0.94,3.021-2.002,4.402
	c-1.061,1.38-2.101,2.301-3.001,3.441s-1.661,2.501-2.462,4.223c-0.8,1.721-1.641,3.802-2.642,5.782
	c-1,1.982-2.161,3.862-3.242,5.443c-1.08,1.581-2.08,2.861-2.781,4.063c-0.7,1.201-1.101,2.321-1.301,3.481
	c-0.2,1.161-0.2,2.361-0.5,3.262c-0.3,0.901-0.9,1.501-1.581,2.322c-0.681,0.82-1.44,1.86-2.241,1.801
	c-0.8-0.061-1.641-1.221-2.602-2.001c-0.96-0.78-2.041-1.181-2.641-0.521c-0.601,0.66-0.721,2.381-0.521,3.702
	c0.2,1.32,0.72,2.241,1.601,2.642s2.121,0.28,2.842,0.74s0.92,1.501,0.8,2.261c-0.119,0.761-0.56,1.241-1.181,1.741
	c-0.62,0.501-1.42,1.021-2.601,1.581s-2.741,1.161-4.042,1.021c-1.302-0.141-2.342-1.021-3.743-2.061
	c-1.4-1.041-3.161-2.242-4.942-3.022s-3.582-1.141-5.343-1.28c-1.761-0.141-3.481-0.061-5.543,0.76
	c-2.062,0.821-4.463,2.382-6.624,3.442s-4.082,1.621-5.963,1.901c-1.881,0.279-3.723,0.279-5.684,0.66
	c-1.961,0.38-4.042,1.141-5.644,2.781c-1.601,1.642-2.721,4.162-3.462,6.424c-0.74,2.262-1.101,4.263-1.541,5.303
	c-0.439,1.041-0.96,1.121-2.701,0.721s-4.703-1.28-7.404-2.041s-5.143-1.401-7.764-1.181c-2.622,0.22-5.424,1.301-7.404,2.642
	c-1.981,1.341-3.142,2.941-3.462,5.723s0.2,6.744,0.42,9.125c0.22,2.382,0.141,3.182-0.32,3.502c-0.46,0.32-1.301,0.16-2.941-0.2
	s-4.082-0.92-6.304-0.92c-2.221,0-4.223,0.56-5.923,1.601c-1.701,1.041-3.102,2.562-4.723,4.613
	c-1.621,2.054-3.462,4.638-4.522,5.93s-1.341,1.292-2.222,1.292s-2.361,0-11.866-0.191s-27.035-0.575-70.379-1.907
	c-43.343-1.332-112.5-3.613-147.229-4.814c-34.729-1.2-35.029-1.32-35.279-1.49c-0.25-0.17-0.45-0.391-1.061-1.221
	c-0.61-0.831-1.631-2.271-2.241-3.813c-0.61-1.541-0.811-3.182-1.261-4.593c-0.451-1.41-1.151-2.591-2.011-3.041
	c-0.861-0.45-1.881-0.17-2.622,0.29s-1.201,1.101-2.071,1.12c-0.871,0.021-2.151-0.58-2.611-1.42
	c-0.46-0.841-0.101-1.922-0.101-2.902s-0.36-1.86-1.081-2.781c-0.72-0.921-1.801-1.881-2.881-3.252
	c-1.081-1.371-2.161-3.151-2.702-4.963c-0.54-1.811-0.54-3.651-0.905-5.272c-0.364-1.621-1.093-3.021-1.458-4.603
	c-0.364-1.581-0.364-3.342,0.04-4.723s1.213-2.382,2.519-4.042c1.305-1.661,3.105-3.982,3.426-6.704s-0.841-5.843-0.821-8.145
	s1.221-3.782,3.783-5.063c2.561-1.281,6.483-2.361,8.705-3.182s2.742-1.381,2.842-2.302c0.1-0.92-0.22-2.2,0.12-3.121
	c0.34-0.921,1.341-1.48,2.301-2.041s1.881-1.12,1.921-1.981c0.04-0.86-0.8-2.021-1.641-2.941c-0.841-0.921-1.681-1.601-1.801-2.602
	c-0.121-1,0.479-2.321,0.04-3.542c-0.44-1.221-1.921-2.341-1.961-3.441s1.36-2.182,2.881-3.482s3.162-2.821,3.822-4.182
	c0.66-1.361,0.34-2.562-0.1-3.603c-0.44-1.04-1-1.921-0.7-2.762c0.3-0.84,1.46-1.641,1.821-2.681c0.36-1.041-0.08-2.321-0.96-3.763
	c-0.88-1.44-2.201-3.041-2.621-5.282c-0.42-2.241,0.06-5.123,0.72-6.784s1.501-2.102,1.281-2.941c-0.22-0.841-1.5-2.081-1.34-3.122
	s1.761-1.881,2.001-3.002c0.24-1.12-0.88-2.521-0.82-3.682c0.06-1.161,1.3-2.081,1.681-3.482c0.38-1.4-0.1-3.281-0.14-4.682
	c-0.041-1.401,0.36-2.321,1.261-3.063c0.9-0.74,2.301-1.3,3.501-2.761c1.201-1.461,2.201-3.822,3.022-5.864
	c0.82-2.041,1.46-3.762,1.701-4.982s0.08-1.94-0.56-2.901c-0.641-0.961-1.761-2.161-1.721-3.542c0.04-1.381,1.24-2.941,2.121-3.942
	c0.88-1,1.44-1.44,1.16-2.021c-0.28-0.58-1.4-1.3-2.281-1.681c-0.88-0.38-1.521-0.42-2.181-1.101c-0.66-0.68-1.34-2-1.2-3.401
	c0.14-1.4,1.101-2.881,1.981-4.423c0.88-1.54,1.681-3.142,2.401-5.923s1.361-6.743,1.781-9.825c0.42-3.082,0.62-5.283,0.92-6.904
	c0.3-1.62,0.7-2.661,0.8-3.562s-0.1-1.661-0.46-2.401s-0.88-1.461-1.521-2.361s-1.4-1.98-1.34-3.162
	c0.06-1.181,0.94-2.461,1.701-3.541c0.76-1.081,1.401-1.962,1.721-3.343c0.32-1.381,0.32-3.262,0.32-4.902s0-3.042,1-4.402
	s3.002-2.682,5.043-3.762c2.041-1.081,4.122-1.921,5.243-2.802c1.121-0.88,1.281-1.801,0.941-2.622
	c-0.34-0.82-1.181-1.54-1.261-2.541s0.6-2.281,1.301-3.521c0.7-1.241,1.42-2.441,1.901-3.362s0.721-1.561,0.961-2.301
	c0.24-0.741,0.48-1.581,1.181-2.682s1.861-2.461,2.42-4.592S155.193,481.143,156.013,478.372z"/>
</svg>
