<?xml version="1.0" encoding="utf-8"?>
<!-- Generator: Adobe Illustrator 15.1.0, SVG Export Plug-In . SVG Version: 6.00 Build 0)  -->
<!DOCTYPE svg PUBLIC "-//W3C//DTD SVG 1.1//EN" "http://www.w3.org/Graphics/SVG/1.1/DTD/svg11.dtd">
<svg version="1.1" id="Layer_1" xmlns="http://www.w3.org/2000/svg" xmlns:xlink="http://www.w3.org/1999/xlink" x="0px" y="0px"
	 width="612px" height="792px" viewBox="0 0 612 792" enable-background="new 0 0 612 792" xml:space="preserve">
<path fill-rule="evenodd" clip-rule="evenodd" stroke="#000000" stroke-width="2.9999" stroke-linecap="round" stroke-linejoin="round" stroke-miterlimit="22.9256" d="
	M576.418,669.659c0.03-21.555,0.129-62.186,0.055-123.181c-0.073-60.995-0.319-142.355-0.369-223.739s0.097-162.792,0.17-203.569
	c0.074-40.778,0.074-40.925,0.074-41.109s0.001-0.405-2.097-0.491c-2.098-0.086-6.293-0.037-84.304-0.061
	c-78.011-0.024-229.836-0.122-305.749-0.17c-75.913-0.049-75.913-0.049-75.916,0.037c-0.003,0.086-0.008,0.257,0.003,1.085
	c0.011,0.828,0.038,2.312,0.084,17.241c0.046,14.93,0.111,43.307-0.052,57.691c-0.164,14.384-0.556,14.777-1.267,15.587
	c-0.712,0.81-1.742,2.036-2.601,3.41c-0.859,1.374-1.546,2.895-1.914,4.27c-0.368,1.374-0.417,2.6-0.859,4.22
	s-1.276,3.631-2.503,4.563c-1.227,0.933-2.846,0.785-4.244,1.203c-1.399,0.417-2.577,1.398-3.705,1.398
	c-1.129,0-2.208-0.981-2.821-1.962c-0.614-0.982-0.761-1.963-1.694-2.429c-0.932-0.467-2.649-0.417-3.262-1.006
	c-0.614-0.589-0.124-1.815-0.442-3.018c-0.319-1.202-1.448-2.38-2.551-3.508c-1.104-1.129-2.184-2.208-3.239-2.749
	c-1.055-0.54-2.085-0.54-3.067,0.172c-0.981,0.711-1.914,2.134-2.748,2.232c-0.834,0.098-1.57-1.128-2.527-1.325
	c-0.958-0.196-2.135,0.638-2.773,0.467c-0.638-0.172-0.736-1.35-1.742-1.987c-1.006-0.638-2.92-0.736-4.22-0.221
	s-1.988,1.644-3.018,1.889c-1.031,0.245-2.404-0.393-3.754,0.049c-1.35,0.441-2.674,1.962-4.245,2.601
	c-1.57,0.638-3.386,0.393-4.662,0.81s-2.012,1.497-1.938,2.92c0.073,1.423,0.956,3.189,1.349,4.588
	c0.393,1.398,0.295,2.429,0.049,3.631c-0.245,1.202-0.638,2.576-0.515,4.196c0.123,1.619,0.761,3.484,1.276,4.269
	c0.515,0.785,0.908,0.491,1.251,1.03c0.344,0.54,0.638,1.914,1.619,3.042c0.982,1.129,2.65,2.012,3.141,2.797
	s-0.196,1.472-1.128,2.11c-0.933,0.638-2.11,1.227-2.601,2.454c-0.491,1.227-0.294,3.091,0.049,4.956s0.834,3.729,0.54,5.423
	c-0.294,1.692-1.374,3.213-1.128,4.146c0.246,0.932,1.815,1.276,2.134,2.38s-0.613,2.968-0.196,4.417
	c0.417,1.447,2.184,2.478,2.429,3.582c0.245,1.104-1.03,2.281-1.423,3.558c-0.393,1.276,0.098,2.649,0.27,3.729
	c0.171,1.08,0.024,1.865-0.393,2.724c-0.417,0.858-1.104,1.791-0.834,3.435c0.27,1.644,1.496,4,2.895,6.674
	c1.398,2.674,2.969,5.667,3.803,7.949c0.834,2.282,0.933,3.852,1.104,5.594c0.171,1.741,0.417,3.655,0.834,5.79
	c0.417,2.135,1.006,4.49,1.447,6.404c0.442,1.914,0.736,3.385,0.614,4.416c-0.123,1.03-0.663,1.619-1.742,1.766
	c-1.08,0.147-2.699-0.147-4.024,0.491c-1.325,0.638-2.355,2.208-2.282,3.435c0.074,1.227,1.251,2.11,2.221,3.079
	s1.729,2.024,1.681,2.736c-0.049,0.711-0.908,1.08-1.411,1.631c-0.503,0.552-0.65,1.289-0.749,2.074s-0.147,1.619-0.037,4.526
	c0.11,2.908,0.38,7.888,0.811,10.391c0.429,2.502,1.018,2.527,1.828,2.981c0.81,0.455,1.84,1.337,2.552,2.736
	c0.712,1.398,1.104,3.312,1.742,4.907c0.638,1.595,1.521,2.87,2.92,4.195s3.312,2.699,4.588,3.951
	c1.276,1.251,1.914,2.379,2.944,4.612c1.031,2.232,2.454,5.57,2.625,7.262c0.172,1.693-0.908,1.742-0.883,2.307
	s1.153,1.644,2.233,3.067c1.08,1.423,2.109,3.189,2.453,5.52s0,5.226,0.467,6.576c0.466,1.349,1.742,1.153,2.944,1.227
	c1.202,0.074,2.33,0.417,3.189,1.251c0.859,0.834,1.448,2.159,2.258,2.846c0.81,0.687,1.84,0.736,2.871,1.619
	s2.061,2.601,3.288,3.484c1.227,0.883,2.649,0.933,4.072,1.767c1.423,0.834,2.847,2.454,3.681,3.852
	c0.834,1.398,1.08,2.576,1.128,3.484c0.049,0.908-0.098,1.545-0.564,1.914s-1.251,0.466-1.742,0.981
	c-0.491,0.515-0.687,1.447-1.668,2.527c-0.981,1.08-2.748,2.307-3.705,3.337c-0.957,1.031-1.104,1.865-1.521,2.528
	c-0.417,0.662-1.104,1.153-2.11,1.3c-1.006,0.147-2.331-0.049-3.313,0.491c-0.981,0.54-1.619,1.815-2.282,2.675
	c-0.663,0.858-1.35,1.3-2.135,1.374c-0.785,0.073-1.668-0.221-2.429,0.061c-0.761,0.282-1.399,1.142-2.195,1.559
	c-0.798,0.417-1.755,0.393-2.541,0.761c-0.785,0.368-1.398,1.129-1.876,2.098c-0.479,0.97-0.822,2.147-0.846,3.533
	c-0.025,1.386,0.269,2.981-0.124,3.864s-1.472,1.055-2.085,1.692c-0.614,0.639-0.761,1.743-1.067,2.589
	c-0.307,0.847-0.773,1.436-1.558,1.926c-0.785,0.491-1.89,0.883-2.588,1.509c-0.7,0.626-0.994,1.484-0.785,2.208
	c0.208,0.725,0.92,1.313,1.325,1.767c0.405,0.454,0.503,0.773,0.086,1.202c-0.417,0.43-1.35,0.97-1.473,1.583
	c-0.123,0.613,0.564,1.301,1.141,1.852c0.577,0.553,1.043,0.97,0.749,1.351c-0.294,0.38-1.35,0.724-1.877,1.631
	c-0.527,0.908-0.527,2.38,0.012,4.086c0.54,1.705,1.62,3.644,1.816,5.226c0.197,1.583-0.49,2.81-0.441,4.085
	c0.049,1.276,0.833,2.602,0.257,3.804c-0.577,1.202-2.515,2.281-3.263,3.913c-0.749,1.631-0.307,3.814,0.037,5.691
	s0.589,3.447,1.006,4.612c0.417,1.166,1.005,1.927,0.674,2.92c-0.331,0.994-1.583,2.221-3.19,3.619s-3.569,2.969-4.673,4.883
	c-1.104,1.914-1.35,4.171-2.466,5.152s-3.104,0.687-4.293,0.576c-1.19-0.109-1.583-0.036-2.331,0.308
	c-0.748,0.343-1.853,0.957-1.767,2.012s1.362,2.552,1.337,4.354c-0.025,1.804-1.35,3.914-1.767,5.778
	c-0.417,1.864,0.074,3.483,1.349,4.44c1.276,0.957,3.337,1.252,3.68,2.257c0.344,1.007-1.03,2.725-1.374,4.271
	c-0.344,1.545,0.343,2.919,0.417,4.392c0.073,1.472-0.466,3.042-1.202,4.465c-0.736,1.424-1.668,2.699-1.644,3.705
	s1.006,1.742,1.89,3.386c0.883,1.645,1.668,4.195,2.453,4.932s1.57-0.343,2.576-0.27s2.232,1.3,3.533,1.288
	c1.3-0.013,2.674-1.264,4.036-1.656s2.711,0.073,3.804,1.056c1.091,0.981,1.926,2.478,2.232,3.68
	c0.306,1.202,0.086,2.11,0.503,2.761c0.417,0.649,1.472,1.042,1.767,1.754c0.294,0.712-0.172,1.742-0.38,2.821
	c-0.208,1.08-0.16,2.208,0.111,3.496c0.27,1.288,0.761,2.735,0.724,4.098c-0.037,1.361-0.602,2.638-1.681,3.68
	c-1.079,1.043-2.675,1.853-3.374,2.896c-0.699,1.043-0.503,2.318-0.589,3.288c-0.086,0.969-0.454,1.632-1.472,2.307
	c-1.019,0.675-2.687,1.361-4.588,1.692s-4.037,0.307-5.779-0.012c-1.742-0.319-3.091-0.933-4.036-0.688
	c-0.945,0.245-1.484,1.35-2.245,3.215c-0.761,1.864-1.743,4.49-3.207,6.146c-1.464,1.657-3.41,2.344-4.383,3.288
	s-0.973,2.147-0.724,3.361c0.249,1.215,0.748,2.441,1.132,3.423c0.384,0.981,0.654,1.718,0.405,2.907
	c-0.25,1.19-1.018,2.834-1.263,4.049c-0.245,1.215,0.032,2,1.042,2.552c1.01,0.552,2.752,0.871,18.86,6.747
	s46.581,17.31,104.19,39.002c57.609,21.691,142.354,53.643,184.526,69.542c42.174,15.9,41.774,15.75,42.313,15.75
	c0.54,0,2.02,0.15,17.432,0.226s44.757,0.075,75.572,0.075c30.817,0,63.105,0,79.25,0c16.144,0,16.144,0,16.156-0.125
	c0.012-0.126,0.036-0.377,0.073-3.631s0.086-9.51,0.092-13.878C576.426,693.693,576.388,691.214,576.418,669.659z"/>
</svg>
