<?xml version="1.0" encoding="utf-8"?>
<!-- Generator: Adobe Illustrator 15.1.0, SVG Export Plug-In . SVG Version: 6.00 Build 0)  -->
<!DOCTYPE svg PUBLIC "-//W3C//DTD SVG 1.1//EN" "http://www.w3.org/Graphics/SVG/1.1/DTD/svg11.dtd">
<svg version="1.1" id="Layer_1" xmlns="http://www.w3.org/2000/svg" xmlns:xlink="http://www.w3.org/1999/xlink" x="0px" y="0px"
	 width="612px" height="792px" viewBox="0 0 612 792" enable-background="new 0 0 612 792" xml:space="preserve">
<path fill-rule="evenodd" clip-rule="evenodd" stroke="#000000" stroke-width="2.9999" stroke-linecap="round" stroke-linejoin="round" stroke-miterlimit="22.9256" d="
	M544.356,610.877c-6.752,76.754-8.53,98.196-9.419,108.917c-0.89,10.721-0.89,10.721-1.047,10.708
	c-0.156-0.013-0.47-0.039-2.196-0.17c-1.725-0.131-4.863-0.366-39.511-4.275s-100.804-11.492-161.601-18.945
	c-60.796-7.452-116.232-14.773-163.955-21.445S78.898,672.973,58.75,669.94s-20.436-3.075-20.737-3.121
	c-0.3-0.045-0.614-0.092-0.967-0.146c-0.354-0.053-0.746-0.112-0.432-3.097s1.333-8.894,2.628-16.922
	c1.294-8.027,2.863-18.174,14.291-93.822c11.427-75.648,32.713-216.801,46.705-309.12s20.69-135.805,24.065-157.718
	c3.375-21.914,3.428-22.253,3.479-22.58s0.098-0.641,0.123-0.797c0.024-0.157,0.024-0.157,1.148-0.026
	c1.125,0.13,3.373,0.392,12.355,1.674c8.982,1.281,24.698,3.582,52.952,7.491c28.254,3.91,69.047,9.427,105.237,13.864
	c36.19,4.437,67.778,7.793,83.86,9.502c16.082,1.708,16.657,1.769,17.18,1.825c0.523,0.056,0.994,0.105,1.647,0.175
	c0.653,0.069,1.49,0.158,1.804,0.621c0.314,0.463,0.105,1.3-0.602,6.556c-0.705,5.255-1.908,14.931-4.473,35.033
	c-2.564,20.102-6.491,50.631-8.474,66.039c-1.981,15.408-2.019,15.696-2.055,15.977c-0.036,0.281-0.071,0.556-0.104,0.804
	c-0.031,0.249-0.061,0.471,4.495,1.118c4.555,0.647,13.693,1.719,27.886,3.458c14.191,1.739,33.438,4.144,59.939,7.437
	c26.502,3.292,60.261,7.47,77.264,9.574c17.004,2.104,17.252,2.136,17.493,2.166c0.242,0.03,0.478,0.059,0.693,0.085
	c0.216,0.027,0.412,0.052,0.327,1.672s-0.451,4.836-0.817,8.824c-0.366,3.988-0.732,8.748-6.779,77.159
	C562.837,402.059,551.109,534.123,544.356,610.877z"/>
</svg>
