<?xml version="1.0" encoding="utf-8"?>
<!-- Generator: Adobe Illustrator 15.1.0, SVG Export Plug-In . SVG Version: 6.00 Build 0)  -->
<!DOCTYPE svg PUBLIC "-//W3C//DTD SVG 1.1//EN" "http://www.w3.org/Graphics/SVG/1.1/DTD/svg11.dtd">
<svg version="1.1" id="Layer_1" xmlns="http://www.w3.org/2000/svg" xmlns:xlink="http://www.w3.org/1999/xlink" x="0px" y="0px"
	 width="792px" height="612px" viewBox="0 0 792 612" enable-background="new 0 0 792 612" xml:space="preserve">
<path fill-rule="evenodd" clip-rule="evenodd" stroke="#000000" stroke-width="2.9999" stroke-linecap="round" stroke-linejoin="round" stroke-miterlimit="22.9256" d="
	M46.266,452.402c3.58-1.447,7.845-3.123,12.873-4.913c5.027-1.791,10.817-3.694,15.349-5.143c4.533-1.447,7.808-2.438,9.522-3.847
	c1.714-1.409,1.866-3.237,2.171-4.837c0.305-1.6,0.762-2.971,1.371-3.656s1.371-0.686,4.495-1.638
	c3.123-0.952,8.608-2.856,11.426-4.152c2.818-1.295,2.971-1.98,3.123-3.847c0.153-1.866,0.305-4.913,0.762-6.627
	s1.219-2.095,3.314-2.856s5.523-1.904,7.237-2.477c1.714-0.571,1.714-0.571,1.447-2.019s-0.8-4.342-0.686-5.865
	c0.114-1.523,0.875-1.676,4.266-3.809s9.408-6.247,12.836-8.266c3.428-2.019,4.266-1.942,5.027-1.904
	c0.762,0.038,1.447,0.038,2.933-0.457c1.485-0.495,3.771-1.485,5.637-2.399s3.313-1.752,4.666-2.838
	c1.352-1.085,2.609-2.418,5.599-5.466c2.99-3.047,7.713-7.809,11.503-11.483c3.79-3.676,6.646-6.266,8.113-7.656
	c1.467-1.391,1.543-1.58,1.714-1.6c0.171-0.019,0.438,0.134,1.142,0.857c0.705,0.724,1.848,2.019,2.476,2.723
	c0.628,0.705,0.743,0.819,0.743,0.876c0,0.058-0.114,0.058-0.99,0.743s-2.514,2.057-3.333,2.856s-0.819,1.028-0.609,1.694
	c0.209,0.667,0.628,1.771,1.523,4.095c0.896,2.324,2.267,5.866,3.542,8.284c1.276,2.419,2.457,3.714,3.294,4.456
	c0.838,0.743,1.333,0.934,2.457,0.914c1.123-0.019,2.875-0.247,3.751-0.361s0.876-0.114,2.514,1.333
	c1.638,1.448,4.914,4.343,6.627,5.79s1.866,1.447,3.581,1.39c1.713-0.057,4.99-0.171,6.704-0.267
	c1.713-0.095,1.866-0.171,3.313-0.933s4.189-2.209,5.885-3.275c1.695-1.067,2.342-1.752,3.694-3.2
	c1.352-1.447,3.409-3.656,4.438-4.761c1.028-1.104,1.028-1.104,1.085-1.01c0.057,0.096,0.172,0.286,1.81,1.981
	c1.638,1.694,4.799,4.894,6.38,6.493c1.581,1.601,1.581,1.601,3.428,0.952c1.847-0.647,5.542-1.942,8.493-2.99
	c2.952-1.047,5.162-1.847,6.761-2.095c1.6-0.247,2.59,0.058,3.638,0.21c1.047,0.152,2.151,0.152,2.875,0.133
	c0.724-0.019,1.066-0.057,2.57-1.047c1.505-0.99,4.171-2.933,5.504-3.904c1.333-0.972,1.333-0.972,0.552-1.676
	c-0.781-0.705-2.343-2.114-3.124-2.818c-0.781-0.705-0.781-0.705,0-1.581s2.342-2.628,3.143-3.447c0.8-0.818,0.838-0.704,1.79,0.343
	c0.952,1.048,2.818,3.028,3.847,3.98s1.219,0.876,5.009-0.933c3.79-1.81,11.179-5.352,14.893-7.123
	c3.713-1.771,3.751-1.771,3.771-1.771c0.019,0,0.019,0,0.59,1.01c0.572,1.01,1.714,3.028,2.343,4.037
	c0.628,1.01,0.742,1.01,0.818,0.972s0.114-0.114,2.342-1.695c2.228-1.58,6.647-4.665,8.856-6.208s2.209-1.543,1.714-2.552
	c-0.496-1.01-1.485-3.028-2-4.095s-0.553-1.181,1.333-1.924c1.885-0.742,5.695-2.113,7.361-2.904c1.667-0.79,1.19-0.999-0.2-1.532
	c-1.39-0.534-3.694-1.391-4.799-1.991c-1.104-0.6-1.009-0.942-0.952-1.999c0.057-1.058,0.076-2.828,0.152-3.79
	s0.209-1.114,0.905-2.181c0.695-1.066,1.952-3.047,2.971-4.827c1.019-1.781,1.799-3.362,3.333-5.352
	c1.533-1.99,3.818-4.39,7.379-8.751c3.562-4.361,8.398-10.684,11.255-15.616c2.856-4.933,3.732-8.475,4.361-10.874
	c0.628-2.4,1.009-3.656,1.771-4.646c0.762-0.99,1.904-1.714,3.599-3.084c1.695-1.372,3.942-3.39,5.084-4.59
	c1.143-1.2,1.181-1.581,1.238-2.799c0.057-1.219,0.133-3.275,0.419-4.399s0.78-1.314,1.6-1.828c0.819-0.515,1.962-1.352,2.647-1.885
	c0.686-0.533,0.914-0.762,1.372-2c0.457-1.238,1.142-3.485,1.561-4.59s0.572-1.066,0.496-2.685
	c-0.077-1.619-0.381-4.895-0.533-6.551c-0.153-1.657-0.153-1.695,0.762-2.876c0.914-1.181,2.742-3.504,3.656-4.666
	c0.914-1.162,0.914-1.162,2.38-0.134c1.466,1.029,4.399,3.085,5.961,4.171s1.752,1.2,2.4,2.876c0.647,1.675,1.751,4.913,2.304,6.532
	c0.552,1.619,0.552,1.619,2.933,2.133s7.142,1.542,9.579,2.057c2.438,0.514,2.552,0.514,3.885-0.609s3.885-3.371,5.275-4.932
	c1.391-1.562,1.62-2.437,3.905-7.483c2.285-5.047,6.627-14.264,8.76-19.292c2.134-5.028,2.058-5.866,2.019-6.513
	c-0.037-0.647-0.037-1.104,1.029-2.171c1.066-1.066,3.199-2.742,4.342-3.542s1.295-0.724,3.123,0.876s5.333,4.723,7.084,6.285
	c1.753,1.562,1.753,1.562,2.896-1.257c1.143-2.819,3.428-8.456,4.57-11.274c1.143-2.819,1.143-2.819,4.037-4.723
	c2.896-1.904,8.685-5.713,11.579-7.731c2.895-2.019,2.895-2.248,2.742-2.971c-0.152-0.724-0.457-1.942-0.609-2.552
	c-0.152-0.61-0.152-0.61,1.942-1.98c2.096-1.372,6.285-4.114,8.38-5.58c2.096-1.466,2.096-1.657,2.114-2.361
	c0.02-0.705,0.058-1.923,0.096-2.59s0.076-0.781-0.495-1.028c-0.571-0.248-1.752-0.628-2.285-0.896
	c-0.533-0.266-0.419-0.419,0.229-2.17c0.647-1.752,1.828-5.104,3.313-9.732c1.485-4.628,3.276-10.532,4.229-13.445
	c0.952-2.914,1.066-2.837,6.113,1.104c5.046,3.942,15.025,11.75,22.033,17.444s11.045,9.274,13.063,11.026s2.019,1.676,3.941-1.752
	c1.924-3.428,5.771-10.208,7.713-13.541c1.942-3.333,1.981-3.219,2.286-2.933s0.875,0.743,1.295,1.124
	c0.419,0.381,0.686,0.686,1.942,0.762s3.504-0.076,4.741-0.114c1.238-0.039,1.467,0.038,3.391,1.562
	c1.923,1.523,5.542,4.494,7.37,5.98c1.828,1.485,1.866,1.485,0.895,2.38c-0.972,0.895-2.951,2.685-3.942,3.58
	c-0.99,0.895-0.99,0.895-1.047,1.771c-0.058,0.876-0.172,2.628-0.21,3.542s0,0.991,1.429,2.152c1.428,1.162,4.247,3.409,5.827,4.628
	c1.581,1.219,1.924,1.409,3.485,1.447s4.342-0.076,6.513,0.495c2.172,0.571,3.733,1.828,4.514,2.59
	c0.781,0.762,0.781,1.029,0.8,1.429c0.02,0.4,0.058,0.933,0.457,1.561c0.4,0.628,1.162,1.352,1.848,1.943
	c0.686,0.59,1.295,1.047,2.209,1.237s2.133,0.114,2.895,0.267c0.762,0.152,1.066,0.533,2.514,1.98
	c1.446,1.447,4.037,3.961,5.332,5.428s1.295,1.885,1.523,3.352s0.686,3.98,0.686,5.275c0,1.295-0.457,1.371-1.048,1.504
	c-0.59,0.133-1.313,0.324-1.447,0.952s0.324,1.695,0.952,2.761c0.629,1.066,1.428,2.133,1.714,2.914
	c0.286,0.781,0.058,1.275-0.933,2.266c-0.99,0.991-2.742,2.476-3.866,3.352c-1.123,0.876-1.619,1.143-2,1.828
	s-0.647,1.79-1.275,2.533c-0.629,0.743-1.619,1.123-2.742,1.466c-1.124,0.343-2.381,0.647-3.2,1.104
	c-0.818,0.457-1.199,1.066-2.057,1.942c-0.856,0.876-2.189,2.019-3.37,5.047c-1.181,3.028-2.21,7.941-2.762,10.893
	c-0.553,2.952-0.629,3.942-0.667,4.609c-0.038,0.666-0.038,1.009,0.991,2.457c1.028,1.447,3.085,3.999,4.113,5.275
	s1.028,1.276,3.885-0.114s8.569-4.171,11.464-5.352c2.896-1.181,2.972-0.762,3.314,0.038c0.342,0.8,0.951,1.98,1.256,2.723
	c0.305,0.743,0.305,1.047-0.076,1.371s-1.143,0.667-1.58,0.99s-0.553,0.628-0.21,1.39s1.143,1.98,2.305,3.447
	c1.161,1.466,2.685,3.18,3.656,4.075s1.391,0.971,1.391,1.333s-0.419,1.009-0.667,1.619c-0.247,0.609-0.323,1.181,0.609,1.904
	c0.934,0.724,2.876,1.6,4.666,2.495c1.79,0.895,3.428,1.809,4.494,2.189s1.562,0.229,2.647,0.152s2.762-0.076,3.542,0.096
	c0.781,0.171,0.667,0.514,1.124,1.123s1.485,1.485,2.133,1.714s0.914-0.19,1.238-0.742c0.323-0.553,0.704-1.238,1.447-1.524
	c0.742-0.286,1.847-0.171,2.399,0.172c0.552,0.342,0.552,0.914,0.952,1.752c0.399,0.838,1.199,1.942,1.638,2.266
	s0.515-0.133,0.705-0.628c0.19-0.496,0.494-1.028,0.875-1.162c0.382-0.133,0.838,0.133,1.143,0.609
	c0.306,0.476,0.458,1.162,1.353,2.361c0.896,1.2,2.533,2.914,3.219,4.208c0.686,1.295,0.419,2.171,0.724,2.838
	s1.181,1.124,2.057,1.542s1.752,0.8,2.171,1.581c0.419,0.78,0.381,1.961,0.477,2.761c0.095,0.8,0.323,1.219,0.78,1.2
	s1.143-0.477,1.752-1.048s1.143-1.257,1.676-1.58c0.533-0.324,1.066-0.286,1.81,0.247c0.743,0.534,1.695,1.562,3.656,2.896
	c1.962,1.333,4.933,2.971,7.275,3.999s4.057,1.447,4.951,2.075c0.896,0.629,0.972,1.467,0.838,2.647
	c-0.133,1.181-0.476,2.704-0.856,3.923s-0.801,2.133-1.524,2.171s-1.751-0.8-2.761-1.352c-1.01-0.553-2-0.819-2.571-0.572
	c-0.571,0.248-0.724,1.01-0.762,1.925c-0.038,0.914,0.038,1.979,0.096,2.761c0.057,0.781,0.095,1.276,0.399,1.81
	s0.876,1.104,1.181,1.942s0.343,1.942-0.209,2.895c-0.553,0.952-1.694,1.752-2.399,2.495c-0.705,0.742-0.972,1.429-0.857,2.419
	s0.609,2.285,0.819,3.237s0.133,1.562-0.533,1.79c-0.667,0.229-1.924,0.076-3.143,0.057c-1.219-0.019-2.399,0.096-3.161-0.323
	s-1.104-1.371-1.543-2.038c-0.438-0.666-0.971-1.048-1.904-0.971c-0.934,0.076-2.266,0.609-3.18,0.78
	c-0.915,0.172-1.41-0.019-1.601-0.838s-0.075-2.266-0.305-3.542c-0.229-1.276-0.8-2.381-2.189-3.657
	c-1.391-1.275-3.6-2.723-5.98-4.342c-2.381-1.618-4.933-3.408-6.284-5.027c-1.353-1.619-1.505-3.065-2.362-4.361
	c-0.856-1.295-2.418-2.438-4.531-4.855c-2.114-2.419-4.78-6.113-6.495-8.494c-1.713-2.381-2.475-3.447-3.352-3.904
	c-0.876-0.457-1.865-0.305-2.742-0.19c-0.876,0.114-1.638,0.19-2.438,0.381s-1.638,0.495-1.219,1.714s2.095,3.352,3.542,5.256
	c1.448,1.905,2.666,3.581,3.809,5.219c1.144,1.638,2.21,3.237,3.314,4.075s2.247,0.914,3.123,1.866s1.485,2.78,2.133,4.151
	s1.333,2.285,2.247,3.505c0.914,1.219,2.057,2.742,3.466,3.999c1.41,1.257,3.086,2.247,4.761,2.895
	c1.677,0.647,3.353,0.952,4.229,1.828s0.952,2.323,1.371,4.075s1.181,3.81,2.323,5.18c1.143,1.372,2.666,2.058,4.494,2.134
	s3.962-0.457,5.53-0.222c1.569,0.235,2.574,1.239,4.593,1.811c2.02,0.571,5.052,0.71,6.644,0.665s1.744-0.272,1.706,0.793
	c-0.038,1.066-0.267,3.429-0.895,4.552c-0.629,1.124-1.657,1.01-3.523,0.628c-1.866-0.381-4.57-1.028-6.398-1.352
	c-1.828-0.324-2.781-0.324-3.353,0.172c-0.571,0.495-0.762,1.485-0.095,2.209c0.666,0.724,2.189,1.181,3.752,1.333
	c1.562,0.152,3.161,0,4.342,0.419s1.942,1.409,2.666,2.342c0.724,0.934,1.409,1.81,2.209,2.323c0.8,0.515,1.714,0.667,2.399,0.838
	c0.687,0.172,1.143,0.362,1.295,1.238s0.001,2.438,0.229,4.837c0.229,2.4,0.837,5.638,0.647,7.181
	c-0.19,1.542-1.181,1.39-2.152,0.323s-1.924-3.047-2.591-4.456c-0.666-1.409-1.047-2.247-1.599-2.343
	c-0.553-0.095-1.276,0.553-2.058,0.419c-0.78-0.133-1.618-1.048-2.399-2.057c-0.78-1.009-1.504-2.113-2.285-2.343
	c-0.78-0.229-1.618,0.419-1.79,1.086c-0.171,0.666,0.323,1.352,0.019,1.866c-0.305,0.514-1.408,0.857-1.39,1.353
	c0.02,0.495,1.161,1.143,1.523,1.866s-0.057,1.523-0.457,2.228c-0.399,0.705-0.78,1.314-0.171,1.904
	c0.609,0.591,2.209,1.162,3.637,1.448c1.429,0.285,2.686,0.285,3.181,1.009s0.229,2.171-0.438,2.952
	c-0.666,0.78-1.732,0.895-3.085,1.066c-1.352,0.171-2.989,0.4-4.551,0.285c-1.562-0.114-3.048-0.571-5.39-2.628
	c-2.343-2.057-5.542-5.713-9.408-10.397c-3.866-4.686-8.398-10.398-10.874-13.179s-2.895-2.629-3.352-2.285
	c-0.457,0.343-0.952,0.876-1.371,1.466c-0.419,0.591-0.762,1.238-0.381,1.904c0.381,0.667,1.485,1.353,2.304,2.076
	c0.819,0.724,1.353,1.485,1.543,2.495c0.19,1.009,0.038,2.266,0.267,3.085c0.229,0.818,0.838,1.199,1.39,1.714
	c0.553,0.514,1.048,1.162,1.429,1.79c0.381,0.629,0.647,1.238,0.78,1.733c0.134,0.495,0.134,0.876,0.972,1.562
	s2.514,1.676,5.123,4.113s6.151,6.322,8.569,8.703c2.419,2.38,3.714,3.256,4.875,3.504c1.162,0.247,2.19-0.134,3.085-0.324
	c0.896-0.19,1.657-0.19,2.019,0.419c0.362,0.609,0.324,1.828,0.648,2.818c0.323,0.991,1.009,1.752,2.266,2.038
	c1.258,0.285,3.086,0.095,4.342,0.038c1.258-0.058,1.943,0.019,2.286,0.438s0.343,1.181-0.096,1.733
	c-0.438,0.553-1.313,0.895-1.618,1.58c-0.305,0.687-0.039,1.715,0.8,2.172c0.838,0.457,2.247,0.343,3.161,0.647
	s1.333,1.028,1.847,1.732c0.515,0.705,1.124,1.391,1.238,1.904c0.114,0.515-0.267,0.857-1.371,1.523
	c-1.104,0.667-2.933,1.657-4.742,2.629c-1.81,0.971-3.6,1.923-4.933,2.646s-2.209,1.22-3.027,0.781
	c-0.819-0.438-1.581-1.81-2.343-2.914s-1.523-1.942-2.895-3.047s-3.352-2.476-4.971-3.618s-2.875-2.057-3.694-2.704
	s-1.2-1.028-1.485-1.563c-0.286-0.532-0.477-1.218-0.344-2.284c0.134-1.067,0.591-2.514,0.533-3.714
	c-0.057-1.2-0.628-2.152-1.237-2.856c-0.609-0.705-1.257-1.162-2.552-1.372c-1.295-0.209-3.237-0.171-4.951-0.267
	c-1.714-0.095-3.199-0.323-5.066-0.933c-1.866-0.609-4.113-1.6-5.484-2.457c-1.371-0.856-1.866-1.58-1.562-2.608
	s1.409-2.361,1.542-3.333c0.134-0.972-0.704-1.581-1.638-1.828c-0.933-0.248-1.961-0.134-2.552,0.076
	c-0.59,0.209-0.742,0.514-0.8,1.371c-0.057,0.857-0.019,2.267-0.305,3.104c-0.285,0.838-0.895,1.104-2.019,1.237
	c-1.123,0.134-2.761,0.134-3.751,0.286c-0.991,0.152-1.334,0.457-1.486,1.047c-0.152,0.591-0.114,1.467,0.648,2.19
	c0.762,0.724,2.246,1.295,3.408,2.113c1.162,0.819,2,1.886,3.295,2.438c1.295,0.553,3.047,0.591,4.513,0.306
	c1.467-0.286,2.647-0.896,3.39-0.629c0.743,0.267,1.048,1.409,1.41,2.285c0.361,0.876,0.78,1.485,1.847,1.866
	c1.067,0.381,2.781,0.534,4.076,0.172s2.171-1.237,2.704-1.123s0.724,1.218,1.123,2.438c0.4,1.219,1.01,2.552,1.181,3.618
	c0.172,1.066-0.095,1.866-0.59,2.608c-0.495,0.743-1.219,1.429-0.914,2.285c0.305,0.857,1.638,1.886,2.552,2.438
	c0.914,0.553,1.409,0.629,2.037,0.667c0.629,0.038,1.391,0.038,1.829,0.361c0.438,0.324,0.552,0.972,0.724,1.657
	c0.171,0.686,0.399,1.409,1.409,1.848c1.009,0.438,2.8,0.59,4.342,1.276c1.543,0.686,2.838,1.904,3.371,2.894
	c0.533,0.991,0.305,1.753,0.19,3.181c-0.114,1.429-0.114,3.523,0.076,4.247s0.571,0.075,2.076-0.647
	c1.504-0.725,4.133-1.523,6.417-1.733c2.286-0.209,4.229,0.171,5.562,0.229c1.333,0.057,2.057-0.21,2.113-0.666
	c0.058-0.458-0.552-1.105-0.914-1.943c-0.361-0.838-0.476-1.866-0.514-2.704s0-1.485,0.686-1.695
	c0.686-0.209,2.019,0.02,4.323,0.857c2.304,0.838,5.58,2.285,8.018,3.542s4.037,2.323,5.236,2.343c1.2,0.019,2-1.01,3.124-1.676
	c1.123-0.667,2.57-0.972,3.599-0.781c1.028,0.191,1.639,0.876,2.076,2.02c0.438,1.143,0.704,2.742,2.204,7.195
	c1.5,4.452,4.232,11.759,6.099,16.195c1.866,4.438,2.867,6.006,3.596,7.514c0.729,1.507,1.186,2.955,1.157,3.897
	c-0.029,0.942-0.543,1.381-0.801,1.6c-0.257,0.219-0.257,0.219-0.924,0.181c-0.666-0.038-1.999-0.114-2.628-0.267
	c-0.628-0.152-0.552-0.381-0.885-1.323c-0.334-0.942-1.077-2.6-1.696-3.999c-0.618-1.399-1.113-2.542-1.78-3.189
	c-0.666-0.648-1.505-0.801-2.247-0.687c-0.743,0.114-1.391,0.496-1.429,1.22s0.533,1.79,1.257,3.18
	c0.725,1.391,1.6,3.104,1.886,4.113c0.286,1.01-0.019,1.314-0.724,1.447c-0.705,0.134-1.81,0.096-2.667,0.096
	c-0.856,0-1.466,0.038-2.113-0.362c-0.647-0.399-1.333-1.237-2.076-2.037c-0.742-0.8-1.542-1.562-1.828-1.467
	c-0.285,0.096-0.057,1.048,0.02,1.886s0,1.562-0.114,1.923c-0.114,0.362-0.267,0.362-0.571,0.362s-0.762,0-1.238,0.02
	c-0.476,0.019-0.971,0.057-8.188-0.02s-21.158-0.267-41.726-0.19s-47.762,0.419-68.634,0.628
	c-20.872,0.21-35.422,0.286-47.953,0.324s-23.043,0.038-37.859,0.076s-33.936,0.113-46.162,0.228s-17.559,0.267-30.813,0.114
	c-13.255-0.152-34.432-0.609-54.999-1.066s-40.526-0.914-52.104-1.143s-14.778-0.229-20.034-0.152s-12.569,0.229-22.776-0.152
	s-23.31-1.295-30.052-2.095s-7.123-1.485-7.503-2.209s-0.761-1.485-5.865-1.485s-14.931,0.762-25.709,1.409
	s-22.51,1.181-31.575,1.447s-15.464,0.267-33.517,0.647c-18.054,0.381-47.762,1.143-62.007,1.333
	c-14.245,0.19-13.026-0.19-10.97-0.989C39.793,455.068,42.687,453.85,46.266,452.402L46.266,452.402z M733.645,315.894
	c-0.343,1.676,0.19,3.961,0.8,6.132c0.61,2.171,1.295,4.228,1.714,4.266s0.571-1.942,2.563-5.713
	c1.99-3.771,5.819-9.331,9.666-12.912c3.848-3.58,7.712-5.18,8.083-5.979s-2.753-0.8-5.838-0.571s-6.132,0.686-7.731,1.371
	s-1.752,1.6-2.591,3.238c-0.838,1.637-2.361,4-3.732,5.713S733.987,314.218,733.645,315.894L733.645,315.894z M686.911,399.535
	c0.533-1.066,0.229-3.352,0.609-5.409c0.381-2.057,1.447-3.885,2.399-5.751s1.79-3.771,2.285-5.904
	c0.495-2.133,0.647-4.494,1.676-5.865s2.933-1.752,3.923-2.361s1.066-1.447,0.876-3.352s-0.647-4.875,0.647-6.666
	c1.295-1.79,4.343-2.398,5.79-3.617c1.447-1.22,1.295-3.048,2.399-4.876s3.466-3.656,5.142-4.837s2.666-1.714,3.123-3.047
	c0.457-1.334,0.381-3.467,0.724-5.562s1.104-4.151,2.666-7.313c1.563-3.161,3.924-7.427,5.638-10.475
	c1.714-3.047,2.78-4.875,3.58-7.16s1.333-5.027,2.438-7.198c1.104-2.172,2.78-3.771,4.228-5.294
	c1.447-1.524,2.666-2.971,2.019-3.466s-3.161-0.038-7.693,0.647c-4.532,0.686-11.084,1.6-14.359,2.476
	c-3.275,0.876-3.275,1.714-3.123,2.78s0.457,2.361-0.495,3.199s-3.161,1.219-5.104,1.523c-1.943,0.306-3.619,0.533-4,1.105
	c-0.381,0.571,0.533,1.485,1.333,2.476c0.801,0.99,1.486,2.057,1.904,3.732c0.42,1.676,0.572,3.961,0.496,5.979
	c-0.076,2.02-0.381,3.771-0.877,4.419c-0.495,0.647-1.18,0.189-2.742-0.076c-1.561-0.268-3.999-0.344-5.027,0.114
	c-1.028,0.457-0.647,1.447-0.762,3.123s-0.724,4.037-2.133,5.637s-3.618,2.438-4.418,3.047s-0.19,0.99,0.495,1.79
	c0.686,0.801,1.447,2.019,1.028,2.628c-0.419,0.61-2.019,0.61-2.742,0.953s-0.572,1.028-0.877,3.466s-1.065,6.627-1.79,8.988
	c-0.724,2.362-1.409,2.895-2.285,3.352s-1.942,0.839-2.133,1.715s0.495,2.247,1.219,3.428s1.485,2.171,1.219,3.085
	s-1.562,1.752-2.476,2.514s-1.447,1.447-1.98,3.39s-1.066,5.143-0.876,8.342s1.104,6.398,2.019,8.912
	c0.914,2.515,1.828,4.343,2.971,5.333S686.377,400.602,686.911,399.535z"/>
</svg>
