<?xml version="1.0" encoding="utf-8"?>
<!-- Generator: Adobe Illustrator 15.1.0, SVG Export Plug-In . SVG Version: 6.00 Build 0)  -->
<!DOCTYPE svg PUBLIC "-//W3C//DTD SVG 1.1//EN" "http://www.w3.org/Graphics/SVG/1.1/DTD/svg11.dtd">
<svg version="1.1" id="Layer_1" xmlns="http://www.w3.org/2000/svg" xmlns:xlink="http://www.w3.org/1999/xlink" x="0px" y="0px"
	 width="612px" height="792px" viewBox="0 0 612 792" enable-background="new 0 0 612 792" xml:space="preserve">
<path fill-rule="evenodd" clip-rule="evenodd" stroke="#000000" stroke-width="2.9999" stroke-linecap="round" stroke-linejoin="round" stroke-miterlimit="22.9256" d="
	M315.187,587.935c1.671-1.961,3.431-4.361,4.312-6.522c0.88-2.16,0.88-4.081,1.4-5.562s1.561-2.521,1.681-3.562
	c0.12-1.04-0.681-2.08-1.4-3.121c-0.721-1.04-1.36-2.08-1.16-3.321c0.2-1.24,1.239-2.681,2.32-4.041
	c1.08-1.36,2.2-2.641,2.121-3.601c-0.081-0.961-1.361-1.602-2.762-1.841c-1.4-0.24-2.921-0.08-3.4-1.081
	c-0.48-1,0.079-3.161,0.76-4.521s1.48-1.92,1.681-3.161c0.2-1.24-0.2-3.161,0.52-6.842c0.721-3.682,2.562-9.123,3.521-12.604
	c0.961-3.481,1.041-5.002,1.601-6.563c0.561-1.561,1.601-3.161,1.641-4.642s-0.92-2.841-2.12-3.801
	c-1.201-0.961-2.641-1.521-3.081-2.722c-0.44-1.2,0.12-3.041,1.04-4.441s2.201-2.36,2.921-3.561c0.721-1.201,0.88-2.642,0.961-4.402
	c0.079-1.761,0.079-3.841,0.279-5.401s0.601-2.602,2.081-3.682s4.042-2.2,6.242-3.521c2.2-1.32,4.04-2.841,4.48-4.281
	c0.439-1.44-0.521-2.801-0.721-4.002c-0.2-1.2,0.36-2.24,1.04-3.201c0.681-0.96,1.48-1.84,1.961-3.201
	c0.48-1.36,0.641-3.2,1.2-4.521c0.561-1.32,1.521-2.12,2.321-3.36c0.801-1.241,1.44-2.922,1.521-4.362s-0.4-2.641-0.4-4.121
	s0.48-3.241,1.561-5.321c1.08-2.081,2.761-4.482,5.441-6.563c2.682-2.081,6.363-3.842,8.804-5.402s3.642-2.921,4.722-4.161
	c1.08-1.241,2.041-2.361,3.241-2.921c1.2-0.561,2.641-0.561,3.201-1.561c0.56-1.001,0.24-3.001,1.12-4.762
	c0.881-1.761,2.961-3.281,3.802-4.642c0.84-1.36,0.439-2.562-0.12-3.842c-0.561-1.28-1.28-2.641-1.001-4.081
	c0.28-1.441,1.561-2.961,1.601-4.602s-1.16-3.401-0.86-4.782c0.301-1.38,2.101-2.38,3.081-3.301c0.98-0.92,1.141-1.761,0.721-2.661
	c-0.42-0.9-1.421-1.861-1.201-2.741c0.221-0.88,1.661-1.681,2.941-2.92c1.281-1.241,2.401-2.922,4.422-4.302
	c2.021-1.38,4.941-2.461,6.262-4.062c1.32-1.601,1.04-3.723,1.26-5.283c0.221-1.561,0.94-2.561,1.921-3.681
	c0.98-1.121,2.221-2.361,2.921-3.421c0.701-1.061,0.86-1.941,0.521-2.541s-1.181-0.92-2.121-1.121s-1.98-0.28-2.44-1.22
	c-0.46-0.941-0.34-2.741-0.7-3.862c-0.36-1.12-1.2-1.561-0.98-2.761c0.22-1.201,1.501-3.161,2.761-3.981
	c1.261-0.82,2.501-0.5,3.361-1.181s1.341-2.361,1.881-4.321c0.54-1.961,1.141-4.202,2.48-6.063c1.341-1.861,3.422-3.341,4.542-4.542
	c1.12-1.2,1.28-2.121,2.4-3.381c1.121-1.261,3.201-2.861,4.082-4.622c0.88-1.76,0.56-3.681-0.24-4.421
	c-0.801-0.741-2.081-0.301-3.081-0.301s-1.721-0.44-2.061-1.32c-0.341-0.88-0.301-2.2,0.42-3.401c0.72-1.201,2.12-2.281,3.021-3.301
	c0.9-1.021,1.301-1.981,1.301-3.062c0-1.081-0.4-2.281-0.9-3.741c-0.5-1.461-1.101-3.181-2.421-5.582s-3.361-5.481-3.861-7.882
	s0.54-4.121,1.421-6.022c0.88-1.901,1.601-3.981,2.101-5.962s0.78-3.861,0.2-5.542s-2.021-3.161-2.802-4.602
	c-0.779-1.44-0.9-2.841-0.46-4.421c0.44-1.581,1.44-3.341,2.461-4.461c1.021-1.121,2.061-1.601,2.921-2.181s1.54-1.26,2.021-2.22
	c0.479-0.96,0.76-2.201,2.181-3.341c1.42-1.14,3.981-2.181,7.082-3.261c3.102-1.081,6.742-2.201,9.423-2.441
	c2.682-0.24,4.402,0.4,5.662,0.301c1.261-0.101,2.062-0.94,2.882-1.721c0.82-0.78,1.66-1.5,2.9-1.8c1.241-0.3,2.881-0.18,4.662,0.3
	c1.78,0.48,3.701,1.321,5.382,1.741s3.121,0.42,4.562-0.08s2.881-1.5,4.981-2.24c2.101-0.741,4.862-1.221,6.402-2.021
	c1.541-0.8,1.86-1.92,1.881-3.601c0.02-1.681-0.261-3.921,0.64-5.842c0.901-1.921,2.981-3.521,5.183-4.622
	c2.2-1.101,4.521-1.701,6.122-1.761s2.48,0.42,3.541,0.6s2.301,0.061,3.32-0.58c1.021-0.64,1.821-1.8,3.241-2.32
	c1.421-0.521,3.462-0.4,5.122-0.92c1.66-0.521,2.941-1.681,4.562-3.042c1.62-1.36,3.581-2.921,5.082-3.921
	c1.5-1,2.541-1.44,3.121-2.44s0.7-2.561,1.36-3.481s1.86-1.201,2.341-1.67c0.48-0.47,0.24-1.131,0.101-2.111
	c-0.141-0.98-0.181-2.281,0.59-3.141c0.771-0.861,2.351-1.28,3.341-1.091c0.991,0.19,1.391,0.991,2.001,0.861
	s1.431-1.19,2.501-1.741s2.391-0.59,3.211-1.21c0.82-0.621,1.141-1.821,1.44-2.651s0.58-1.291,1.341-1.771
	c0.76-0.48,2.001-0.98,2.141-1.731c0.141-0.75-0.82-1.75-1.65-2.551s-1.53-1.401-1.2-2.031s1.69-1.291,2.53-2.181
	c0.841-0.891,1.16-2.011,1.011-3.021c-0.15-1.01-0.771-1.911-1.561-2.741c-0.79-0.831-1.75-1.591-2.261-2.381
	c-0.51-0.791-0.569-1.61,0.11-2.181c0.681-0.57,2.102-0.89,3.662-0.94s3.261,0.17,4.441-0.26c1.18-0.43,1.841-1.511,1.91-2.411
	c0.07-0.9-0.45-1.621-0.54-2.241s0.25-1.14,0.74-1.12s1.131,0.58,1.751,0.7c0.62,0.121,1.221-0.2,1.591-0.71s0.51-1.21,0.31-1.861
	c-0.2-0.65-0.74-1.25-1.381-1.82c-0.64-0.57-1.38-1.11-1.86-1.641c-0.479-0.53-0.7-1.05-0.45-2.37
	c0.25-1.321,0.971-3.441,0.851-5.022s-1.08-2.621-1.62-3.381c-0.541-0.761-0.66-1.241-0.581-1.881
	c0.081-0.641,0.36-1.44,0.421-2.061c0.06-0.62-0.101-1.061-0.98-1.301c-0.881-0.24-2.481-0.28-3.422-0.62
	c-0.939-0.34-1.22-0.98-1.62-1.521c-0.4-0.541-0.92-0.98-1.141-1.861c-0.22-0.88-0.14-2.201-0.681-3.121
	c-0.539-0.92-1.7-1.44-2.2-2.741c-0.5-1.301-0.34-3.381-0.641-5.102c-0.3-1.72-1.06-3.081-2.48-4.781
	c-1.421-1.701-3.501-3.742-4.361-5.222s-0.5-2.401-0.721-3.241c-0.22-0.84-1.02-1.601-1.16-2.301c-0.14-0.7,0.38-1.34,1.36-2.261
	c0.98-0.92,2.421-2.121,3.741-3.602s2.521-3.241,4.161-4.521s3.721-2.081,4.762-3.001c1.04-0.92,1.04-1.961,1.221-2.941
	c0.18-0.98,0.54-1.901,0.34-2.641s-0.961-1.3-0.98-2.041c-0.02-0.741,0.7-1.661,1.841-2.621s2.7-1.96,3.301-3.141
	s0.24-2.541,0.061-3.601c-0.181-1.061-0.181-1.821,0.079-2.681c0.261-0.86,0.781-1.82,1.421-2.541c0.641-0.72,1.4-1.2,2.481-1.96
	c1.08-0.76,2.48-1.801,4.221-3.561c1.741-1.761,3.822-4.242,5.162-5.842c1.341-1.601,1.94-2.321,2.001-2.941
	c0.06-0.62-0.42-1.141-1.36-2.161c-0.94-1.021-2.341-2.541-3.302-3.821c-0.96-1.281-1.48-2.321-1.48-4.101
	c0-1.781,0.521-4.302,0.32-5.982c-0.2-1.681-1.121-2.521-2.201-3.542c-1.08-1.02-2.32-2.221-2.601-3.601
	c-0.28-1.381,0.4-2.941,1.74-4.382c1.341-1.44,3.342-2.761,5.362-2.9c2.021-0.141,4.062,0.9,5.602,0.9
	c1.541,0,2.581-1.041,3.432-2.338c0.851-1.298,1.511-2.853,1.271-3.631c-0.24-0.777-1.381-0.777-10.074-0.66
	c-8.692,0.117-24.938,0.352-46.546,0.77c-21.607,0.417-48.577,1.018-64.542,1.558c-15.966,0.54-20.928,1.02-24.688,1.5
	c-3.762,0.48-6.322,0.96-20.728,1.361c-14.405,0.4-40.653,0.72-60.501,0.72c-19.847,0-33.291-0.32-41.854-0.561
	c-8.563-0.24-12.245-0.4-16.252-1.042c-4.007-0.641-8.34-1.764-18.509-2.325c-10.169-0.561-26.175-0.561-39.834-0.5
	s-24.972,0.184-36.35,0.165c-11.378-0.019-22.822-0.179-34.026-0.259c-11.204-0.08-22.167-0.08-34.612,0.08
	s-26.369,0.48-33.332,0.64c-6.962,0.16-6.962,0.16-7.202,0.96c-0.24,0.8-0.721,2.4-1.361,3.981c-0.64,1.581-1.44,3.141-1.44,4.501
	c0,1.361,0.8,2.521,1.661,3.521c0.86,1,1.78,1.841,2.281,2.761c0.5,0.92,0.58,1.92,0.54,4.321s-0.2,6.202-1.02,8.583
	c-0.821,2.381-2.301,3.341-3.562,4.502c-1.261,1.16-2.301,2.521-2.861,4.542c-0.561,2.021-0.64,4.702-1.081,6.883
	c-0.44,2.181-1.24,3.861-1.98,5.182c-0.741,1.32-1.42,2.28-1.42,3.681c0,1.4,0.68,3.241,2.321,4.801
	c1.641,1.561,4.241,2.841,6.182,4.442c1.941,1.601,3.221,3.521,3.741,5.102c0.521,1.581,0.28,2.821-0.02,3.801s-0.66,1.7-1.26,2.621
	c-0.6,0.92-1.44,2.04-2.221,3.641c-0.781,1.601-1.501,3.682-2.161,5.042c-0.661,1.36-1.261,2.001-1.581,2.741
	c-0.32,0.74-0.36,1.581-0.521,3.721s-0.44,5.582-0.4,7.403c0.04,1.82,0.4,2.021,0.72,2.361c0.32,0.34,0.6,0.82,0.4,1.9
	c-0.2,1.08-0.881,2.761-1.581,4.202c-0.7,1.44-1.421,2.641-1.78,3.781c-0.36,1.14-0.36,2.221-0.7,3.581
	c-0.34,1.36-1.021,3.001-1.561,4.361c-0.54,1.361-0.94,2.441-1.18,3.641c-0.24,1.201-0.32,2.521,0,3.501
	c0.32,0.98,1.04,1.621,1.46,2.981c0.42,1.36,0.54,3.441,0.72,5.202s0.42,3.201,1.44,4.862c1.021,1.66,2.821,3.541,5.102,6.082
	c2.28,2.541,5.042,5.741,6.642,8.142s2.041,4.001,2.921,5.362c0.88,1.361,2.201,2.481,3.181,4.202
	c0.98,1.72,1.621,4.041,1.941,6.302c0.32,2.261,0.32,4.461,0.46,6.083c0.14,1.62,0.42,2.661,0.6,4.061
	c0.18,1.401,0.26,3.161,0,4.722c-0.26,1.561-0.86,2.921-1.9,4.501c-1.041,1.581-2.521,3.381-3.582,5.221
	c-1.06,1.841-1.7,3.722-2.601,5.442c-0.9,1.721-2.061,3.281-2.581,4.982c-0.52,1.7-0.4,3.541,0.061,4.961
	c0.459,1.421,1.26,2.421,1.8,4.242s0.82,4.462,1.02,6.663c0.2,2.2,0.32,3.961,0.84,5.481c0.521,1.521,1.441,2.801,1.861,4.262
	c0.42,1.46,0.34,3.101,0.22,4.702c-0.12,1.6-0.28,3.161-0.76,4.801c-0.48,1.641-1.28,3.361-2.701,4.602
	c-1.421,1.24-3.461,2-4.862,3.441c-1.401,1.44-2.161,3.561-3.361,5.222c-1.201,1.66-2.841,2.86-4.622,4.121
	s-3.701,2.581-4.521,4.482c-0.821,1.9-0.541,4.381-0.72,6.702c-0.18,2.321-0.821,4.481-1.741,6.082s-2.121,2.641-2.66,3.841
	c-0.541,1.2-0.42,2.561-0.701,4.602c-0.28,2.041-0.96,4.761-2.041,7.663c-1.081,2.901-2.561,5.982-3.701,8.203
	c-1.141,2.221-1.941,3.581-2.221,5.002c-0.281,1.42-0.041,2.901,0.74,3.761c0.78,0.86,2.101,1.1,3.381,1.841
	c1.28,0.74,2.521,1.98,3.421,2.96c0.9,0.981,1.46,1.701,1.861,2.761s0.64,2.461,0.3,4.241c-0.34,1.781-1.26,3.942-1.26,5.982
	s0.92,3.961,1.061,6.682c0.14,2.721-0.5,6.243-0.24,9.184s1.42,5.302,2.841,7.382s3.101,3.881,4.142,5.582s1.44,3.301,1.261,4.842
	c-0.18,1.541-0.941,3.021-1.081,4.381c-0.14,1.36,0.34,2.601,0.8,3.521c0.46,0.92,0.9,1.521,0.74,2.44
	c-0.16,0.921-0.92,2.161-1.861,3.301c-0.94,1.141-2.061,2.182-2.261,3.142c-0.2,0.96,0.521,1.841,2.141,3.741
	c1.62,1.9,4.141,4.821,5.622,6.782c1.48,1.961,1.92,2.961,2.101,4.222c0.18,1.26,0.1,2.78-0.98,4.581
	c-1.081,1.8-3.161,3.881-4.042,6.041c-0.88,2.161-0.56,4.402-1.28,6.163c-0.721,1.761-2.481,3.041-3.521,4.642
	c-1.04,1.601-1.36,3.521-1.96,4.762c-0.601,1.24-1.481,1.801-2.281,3.601c-0.8,1.801-1.521,4.842-2.601,7.283
	c-1.08,2.44-2.521,4.281-2.881,5.722c-0.36,1.44,0.36,2.481,0.92,3.602c0.56,1.12,0.96,2.32,0.76,3.081
	c-0.2,0.76-1,1.08-1.121,1.801c-0.12,0.72,0.44,1.84,0.32,3.081c-0.12,1.24-0.92,2.601-1,3.761s0.56,2.121,2.281,3.321
	c1.72,1.2,4.521,2.641,6.042,2.881c1.52,0.24,1.76-0.72,2.121-1.24c0.36-0.521,0.84-0.601,1.12-1.4
	c0.28-0.801,0.36-2.321,0.601-3.602c0.24-1.28,0.64-2.32,1.2-3.041c0.56-0.72,1.28-1.12,1.561-2.161
	c0.28-1.04,0.12-2.721,0.68-3.681c0.561-0.961,1.84-1.2,4.642-1.521c2.801-0.32,7.123-0.721,9.743-0.681
	c2.621,0.04,3.542,0.521,3.882,1.381s0.1,2.101,0.3,3c0.2,0.901,0.84,1.462,1.181,2.962c0.34,1.5,0.38,3.941,0.48,5.362
	c0.1,1.42,0.26,1.82,1.3,2.32s2.961,1.101,4.801,2.341c1.841,1.24,3.602,3.121,4.502,4.621c0.9,1.501,0.94,2.621,1.121,3.521
	c0.18,0.9,0.5,1.581,0.38,2.581c-0.12,1-0.681,2.32-0.98,3.541c-0.3,1.221-0.34,2.341-0.42,6.362s-0.2,10.943-1.28,40.194
	c-1.08,29.249-3.12,80.827-4.101,112.538c-0.979,31.711-0.899,43.555-1.099,49.717c-0.2,6.162-0.68,6.643-1.28,6.883
	c-0.601,0.24-1.32,0.24-1.561,1.68c-0.24,1.441,0,4.322-0.16,5.803c-0.16,1.48-0.72,1.561-1.22,1.761c-0.5,0.2-0.94,0.52-0.3,3.881
	c0.64,3.361,2.36,9.764,3.341,12.965c0.98,3.2,1.221,3.2,19.073,3.609s53.316,1.227,88.668,2.275
	c35.353,1.048,70.592,2.327,88.623,2.981c18.029,0.654,18.849,0.685,19.33,0.176c0.479-0.508,0.621-1.554,0.412-2.116
	c-0.21-0.563-0.77-0.644-1.71-2.204s-2.261-4.602-3.221-6.803c-0.96-2.2-1.561-3.561-2.621-4.121
	c-1.061-0.561-2.581-0.32-3.662,0.34c-1.081,0.661-1.72,1.741-2.5,1.981s-1.701-0.36-1.941-1.381s0.2-2.461,0.22-3.602
	c0.02-1.14-0.38-1.98-1.761-3.201c-1.38-1.22-3.741-2.82-5.222-4.882c-1.48-2.061-2.081-4.581-2.061-6.922s0.66-4.502,0.42-6.122
	s-1.36-2.701-1.781-4.102s-0.14-3.121,0.86-4.901c1-1.78,2.719-3.62,4.02-5.621c1.3-2,2.18-4.161,2.38-6.322
	c0.2-2.16-0.28-4.321-0.64-6.242c-0.36-1.921-0.6-3.602,0.24-4.962c0.84-1.359,2.761-2.4,5.962-3.48
	c3.201-1.081,7.683-2.201,9.604-3.922c1.92-1.721,1.281-4.041,2.161-5.562c0.88-1.521,3.281-2.241,4.281-3.161
	c1.001-0.921,0.601-2.041-0.439-3.081s-2.721-2.001-3.481-3.562s-0.601-3.721-1-5.442c-0.4-1.72-1.36-3-1.041-4.36
	c0.32-1.361,1.92-2.802,3.681-4.202s3.682-2.761,4.161-4.682c0.48-1.921-0.479-4.401-0.479-6.162s0.96-2.801,0.88-4.161
	s-1.2-3.041-2.24-4.882c-1.041-1.841-2.001-3.842-2.281-6.082c-0.28-2.241,0.12-4.722,0.721-6.282c0.6-1.561,1.4-2.201,1.52-3.121
	c0.121-0.921-0.439-2.121-0.199-3.281s1.28-2.28,1.521-3.602c0.24-1.32-0.319-2.841,0.041-4.221c0.36-1.381,1.641-2.621,1.521-4.062
	s-1.641-3.081-1.61-4.661C311.937,591.415,313.517,589.895,315.187,587.935z"/>
</svg>
