<?xml version="1.0" encoding="utf-8"?>
<!-- Generator: Adobe Illustrator 15.1.0, SVG Export Plug-In . SVG Version: 6.00 Build 0)  -->
<!DOCTYPE svg PUBLIC "-//W3C//DTD SVG 1.1//EN" "http://www.w3.org/Graphics/SVG/1.1/DTD/svg11.dtd">
<svg version="1.1" id="Layer_1" xmlns="http://www.w3.org/2000/svg" xmlns:xlink="http://www.w3.org/1999/xlink" x="0px" y="0px"
	 width="792px" height="612px" viewBox="0 0 792 612" enable-background="new 0 0 792 612" xml:space="preserve">
<path fill-rule="evenodd" clip-rule="evenodd" stroke="#000000" stroke-width="2.9999" stroke-linecap="round" stroke-linejoin="round" stroke-miterlimit="22.9256" d="
	M54.16,80.182c-0.48,1.2-0.24,2.88-0.75,4.35c-0.51,1.47-1.77,2.73-3.36,3.84c-1.59,1.11-3.51,2.07-5.43,3.36s-3.84,2.91-4.89,4.65
	c-1.05,1.74-1.23,3.6-1.71,4.979c-0.48,1.38-1.26,2.28-1.464,3.6s0.169,3.06,0.769,4.77c0.6,1.71,1.427,3.39,2.621,4.98
	c1.193,1.59,2.753,3.09,3.684,2.97c0.93-0.12,1.23-1.86,1.62-4.081c0.39-2.22,0.87-4.919,1.95-6.299c1.08-1.38,2.76-1.44,3.42-2.25
	c0.66-0.81,0.299-2.37,1.26-3.12c0.96-0.75,3.24-0.69,5.1-1.23c1.86-0.54,3.3-1.68,4.11-2.67c0.81-0.99,0.99-1.83,0.72-2.819
	c-0.271-0.99-0.99-2.13-1.081-3.63c-0.09-1.5,0.45-3.36,1.411-4.77c0.959-1.41,2.339-2.37,3.12-3.54s0.96-2.55,0.57-3.54
	c-0.39-0.99-1.35-1.59-2.19-1.89c-0.84-0.3-1.56-0.3-2.64-0.3c-1.08,0-2.52,0-3.84,0.36C55.84,78.261,54.64,78.981,54.16,80.182
	L54.16,80.182z M620.241,390.683c-1.17-1.725-3.21-4.545-4.77-7.125c-1.561-2.58-2.641-4.92-3.15-7.23
	c-0.51-2.31-0.45-4.59-0.9-6.51c-0.449-1.92-1.409-3.479-1.439-4.86c-0.03-1.38,0.87-2.579,1.29-3.989s0.359-3.03,1.229-4.471
	c0.87-1.439,2.67-2.699,4.38-3.149s3.33-0.09,4.771,0.75c1.439,0.84,2.7,2.16,4.59,3.029c1.89,0.871,4.41,1.291,5.67,2.251
	s1.26,2.46,1.53,3.63c0.27,1.17,0.81,2.01,2.46,3.029c1.649,1.021,4.41,2.221,6.24,3.301s2.729,2.04,3.96,2.7s2.79,1.02,3.779,1.979
	c0.99,0.96,1.411,2.521,2.341,2.939c0.93,0.421,2.37-0.3,4.319-0.33c1.95-0.029,4.41,0.631,8.011,2.101
	c3.6,1.47,8.34,3.75,12.09,5.88c3.75,2.131,6.51,4.11,9.18,5.88c2.67,1.771,5.25,3.33,7.86,5.101c2.609,1.77,5.25,3.75,7.949,5.67
	c2.7,1.92,5.461,3.78,7.32,5.43c1.86,1.65,2.82,3.09,4.08,4.77c1.26,1.681,2.82,3.601,3.96,5.04c1.14,1.44,1.859,2.4,2.22,3.54
	c0.359,1.14,0.359,2.46,0.12,5.37c-0.24,2.91-0.721,7.41-0.84,10.439c-0.12,3.03,0.119,4.591,0.93,4.681
	c0.81,0.09,2.19-1.29,3.931-1.92c1.739-0.63,3.839-0.511,5.669-0.09c1.83,0.42,3.391,1.14,4.261,2.489
	c0.869,1.351,1.05,3.33,0.96,5.88c-0.091,2.551-0.45,5.671,0.27,7.53c0.72,1.86,2.521,2.46,3.45,3.3
	c0.93,0.841,0.99,1.92,1.561,2.851c0.569,0.93,1.649,1.71,3.209,3c1.561,1.29,3.601,3.09,5.761,4.229
	c2.16,1.141,4.44,1.62,5.895,2.341c1.454,0.72,2.083,1.68,2.113,2.31s-0.539,0.93-0.943,1.77c-0.404,0.841-0.645,2.221-0.795,3.601
	c-0.149,1.38-0.21,2.76-2.97,5.43s-8.22,6.63-10.92,9.33s-2.641,4.141-4.11,5.641s-4.47,3.06-6.479,4.169
	c-2.011,1.11-3.03,1.771-4.126,2.07c-1.095,0.3-2.265,0.239-3.255,0.704c-0.989,0.466-1.8,1.456-3.239,2.671
	c-1.44,1.215-3.511,2.654-5.25,3.284c-1.74,0.631-3.15,0.45-4.035,0.855s-1.245,1.396-2.34,1.891
	c-1.096,0.494-2.926,0.494-4.546,0.225c-1.619-0.27-3.029-0.81-4.664-1.141c-1.636-0.329-3.496-0.449-5.026-0.06
	c-1.529,0.391-2.729,1.29-3.839,2.28c-1.11,0.99-2.131,2.069-3.271,3.39s-2.4,2.88-3.45,3.989c-1.05,1.11-1.89,1.771-2.91,2.101
	c-1.02,0.33-2.22,0.33-3.209,0.54c-0.99,0.21-1.771,0.63-2.761,2.069c-0.99,1.44-2.19,3.9-3.24,5.131
	c-1.05,1.229-1.95,1.229-3,1.319s-2.25,0.271-2.97,0.99c-0.721,0.72-0.96,1.98-1.561,2.46c-0.6,0.48-1.56,0.18-2.039,0.63
	c-0.48,0.45-0.48,1.65-1.2,2.49c-0.721,0.84-2.16,1.32-2.91,2.85c-0.75,1.53-0.811,4.11-1.351,5.79
	c-0.539,1.681-1.56,2.461-2.159,3.54c-0.601,1.08-0.78,2.461-1.171,3.99c-0.39,1.53-0.989,3.21-1.8,3.931
	c-0.81,0.72-1.83,0.479-2.88,1.26s-2.13,2.58-3.09,4.138s-1.8,2.873-2.61,3.53c-0.81,0.657-1.59,0.657-1.979-0.15
	c-0.391-0.808-0.391-2.423-0.87-3.53c-0.48-1.107-1.44-1.707-2.67-2.607c-1.229-0.899-2.73-2.101-4.261-2.91
	c-1.529-0.81-3.09-1.23-4.56-2.37s-2.851-3-4.23-4.14c-1.38-1.141-2.76-1.561-4.02-1.83s-2.4-0.39-3.45-0.72
	c-1.05-0.331-2.01-0.87-2.34-1.711c-0.33-0.84-0.029-1.979-0.45-3.09c-0.42-1.109-1.56-2.189-2.34-3.239
	c-0.78-1.051-1.2-2.07-1.5-3.271s-0.479-2.58-0.479-4.56c0-1.98,0.18-4.561,0.659-7.41c0.48-2.851,1.261-5.971,1.74-8.851
	c0.48-2.88,0.66-5.52,0.87-8.46s0.45-6.18,0.3-8.43c-0.149-2.25-0.689-3.511-1.44-5.641c-0.749-2.13-1.709-5.13-2.415-7.604
	c-0.704-2.476-1.155-4.425-1.245-6.075c-0.091-1.65,0.18-3-0.361-3.705c-0.539-0.705-1.89-0.765-2.685-1.561
	c-0.795-0.795-1.034-2.324-1.05-3.689c-0.015-1.365,0.195-2.564-0.06-3.78c-0.255-1.215-0.976-2.444-1.306-3.6
	c-0.329-1.155-0.27-2.235-0.42-3.21c-0.149-0.976-0.51-1.846-0.66-2.745c-0.149-0.9-0.09-1.83-0.435-2.64
	c-0.345-0.811-1.095-1.5-1.47-2.251c-0.375-0.749-0.375-1.56-0.916-2.04c-0.539-0.479-1.619-0.63-2.444-1.124
	c-0.825-0.496-1.395-1.335-1.665-1.891c-0.27-0.555-0.24-0.825-0.21-1.38s0.061-1.395-0.524-2.49
	c-0.586-1.095-1.786-2.445-2.355-3.9c-0.57-1.455-0.511-3.015-0.3-4.186c0.21-1.169,0.569-1.949,0.75-2.939
	c0.18-0.99,0.18-2.189,0.63-3.27c0.449-1.081,1.35-2.04,2.76-3.9s3.33-4.62,4.71-6.27c1.38-1.65,2.22-2.19,3.51-2.431
	s3.03-0.18,3.87-0.75s0.78-1.77,1.41-3.06s1.95-2.671,2.76-4.201c0.811-1.529,1.11-3.209,1.89-4.799
	c0.78-1.591,2.041-3.09,2.971-4.11c0.93-1.02,1.529-1.56,2.28-1.68c0.749-0.12,1.649,0.18,2.31-0.15s1.08-1.29,1.26-2.609
	c0.18-1.32,0.12-3.001-0.06-4.155S621.41,392.407,620.241,390.683L620.241,390.683z M526.103,238.313
	c1.411,1.755,3.121,2.955,3.827,4.545c0.705,1.59,0.404,3.57,1.275,5.67c0.869,2.1,2.909,4.32,4.409,5.34s2.46,0.84,4.26,0.27
	c1.801-0.57,4.44-1.53,6.99-2.94c2.551-1.41,5.011-3.27,6.811-3.87s2.939,0.06,4.77,0.27s4.351-0.03,6.15,0.18
	c1.8,0.21,2.88,0.87,3.6,2.04c0.721,1.17,1.08,2.85,2.16,4.26c1.08,1.41,2.88,2.55,3.99,3.57c1.11,1.02,1.53,1.92,3.03,2.13
	s4.08-0.27,5.25,0.66c1.17,0.93,0.93,3.27,1.89,4.14s3.12,0.27,4.59,0.9c1.471,0.63,2.251,2.49,3.54,3.33
	c1.291,0.84,3.09,0.66,4.771,1.32c1.68,0.66,3.24,2.16,3.99,4.17c0.749,2.01,0.689,4.53,0.119,6.78
	c-0.569,2.25-1.649,4.23-2.58,5.58c-0.93,1.35-1.71,2.07-2.46,2.43c-0.75,0.36-1.47,0.36-2.279,1.021
	c-0.81,0.66-1.71,1.979-2.61,2.88c-0.899,0.9-1.8,1.38-2.67,1.62c-0.87,0.24-1.71,0.24-2.641,0.629
	c-0.93,0.39-1.949,1.17-2.819,1.92s-1.59,1.47-2.82,1.89c-1.229,0.42-2.97,0.54-4.439,0.15c-1.471-0.39-2.67-1.29-4.11-1.11
	c-1.44,0.18-3.12,1.44-5.28,2.701c-2.159,1.259-4.8,2.52-7.14,3.089c-2.34,0.57-4.38,0.45-6,0.87c-1.62,0.42-2.82,1.38-4.23,1.65
	c-1.409,0.271-3.029-0.15-4.29-0.75c-1.26-0.6-2.159-1.38-3.27-1.98c-1.11-0.6-2.43-1.02-3.03-2.1c-0.601-1.08-0.479-2.82-0.36-4.74
	c0.12-1.92,0.24-4.02,0.061-6.75s-0.66-6.09-1.02-9.15c-0.36-3.06-0.601-5.82-1.53-7.44c-0.93-1.62-2.551-2.1-3.9-1.53
	c-1.35,0.57-2.43,2.19-3.45,2.28c-1.02,0.09-1.979-1.35-3.09-1.92c-1.109-0.57-2.37-0.27-3.54-0.87c-1.17-0.6-2.25-2.101-3.3-2.52
	c-1.05-0.42-2.07,0.24-2.88-0.24c-0.811-0.48-1.41-2.1-3-3.99c-1.591-1.89-4.171-4.05-5.28-6c-1.11-1.95-0.75-3.69-0.931-5.4
	c-0.18-1.71-0.899-3.39-0.6-5.58s1.62-4.89,2.768-6.592s2.122-2.405,2.512-3.695c0.391-1.29,0.195-3.167,1.463-3.745
	s3.997,0.142,5.856,0.067c1.86-0.075,2.85-0.945,3.899-0.225C523.583,234.249,524.693,236.558,526.103,238.313L526.103,238.313z
	 M506.785,313.389c0.51-1.681,2.069-3.54,3.33-4.32c1.26-0.78,2.22-0.479,3.66-1.38c1.439-0.9,3.359-3,5.369-4.38
	c2.011-1.38,4.11-2.04,5.82-1.44s3.03,2.46,3.271,3.689c0.239,1.23-0.601,1.831-1.021,2.821c-0.42,0.989-0.42,2.37,0.27,3.09
	c0.69,0.72,2.07,0.78,2.311,1.68c0.24,0.9-0.66,2.641-2.01,3.66c-1.35,1.021-3.15,1.32-4.8,0.96c-1.65-0.359-3.15-1.38-5.07-1.5
	s-4.26,0.66-6.09,1.11s-3.15,0.569-4.08-0.12C506.815,316.568,506.275,315.068,506.785,313.389L506.785,313.389z M466.765,275.199
	c-0.21-1.53,0.03-3.45,0.15-5.13c0.12-1.68,0.12-3.12-0.42-4.71c-0.54-1.59-1.62-3.33-2.97-4.35c-1.351-1.02-2.971-1.32-4.08-2.34
	c-1.11-1.021-1.71-2.76-1.351-4.32c0.36-1.56,1.68-2.94,3.27-3.96c1.591-1.02,3.451-1.68,4.951-1.47
	c1.499,0.21,2.64,1.29,4.619,1.68c1.98,0.39,4.801,0.09,6.84,0.63c2.04,0.54,3.301,1.92,4.771,3.42c1.47,1.5,3.15,3.12,4.71,4.74
	c1.561,1.62,3,3.24,3.78,4.29s0.9,1.53,1.02,2.34c0.12,0.81,0.24,1.95,0.18,2.82c-0.06,0.87-0.299,1.47-0.81,2.55
	c-0.51,1.08-1.29,2.64-2.1,3.72c-0.811,1.081-1.65,1.68-2.58,1.92c-0.931,0.24-1.95,0.12-3.09,0.811c-1.141,0.69-2.4,2.19-3.9,2.82
	s-3.24,0.39-4.83,0.51c-1.59,0.12-3.029,0.6-4.11,0.3c-1.08-0.3-1.8-1.38-2.489-2.49
	C467.635,277.869,466.975,276.729,466.765,275.199L466.765,275.199z M425.426,223.659c-0.99-0.75-1.29-2.13-0.96-3.9
	s1.29-3.93,2.579-5.25c1.29-1.32,2.911-1.8,3.931-2.82s1.44-2.58,1.14-4.38c-0.3-1.8-1.319-3.84-0.9-4.59
	c0.421-0.75,2.28-0.21,3.991-0.03c1.709,0.18,3.27,0,4.229,0.54s1.32,1.8,3.15,2.43c1.83,0.63,5.13,0.63,8.58,1.11
	c3.449,0.48,7.05,1.44,9.66,1.89c2.609,0.45,4.229,0.39,5.31-0.66c1.079-1.05,1.62-3.09,2.279-4.08c0.66-0.99,1.44-0.931,2.16-0.09
	c0.721,0.84,1.381,2.46,2.101,3.9c0.72,1.439,1.5,2.7,3.569,3.39c2.07,0.69,5.431,0.81,8.521,0.42c3.09-0.39,5.91-1.291,7.59-1.38
	s2.221,0.63,3.271,0.69c1.05,0.06,2.609-0.54,3.84-0.45c1.229,0.09,2.13,0.87,3.45,1.169c1.319,0.3,3.06,0.12,3.75,0.57
	c0.689,0.45,0.329,1.53-0.78,3.36c-1.11,1.83-2.97,4.41-5.13,6.57c-2.16,2.16-4.62,3.9-6.57,5.1c-1.95,1.2-3.39,1.86-4.8,2.67
	c-1.41,0.81-2.79,1.77-4.14,2.129c-1.351,0.36-2.67,0.121-4.591-0.48c-1.92-0.6-4.44-1.56-6.569-2.37c-2.13-0.81-3.87-1.47-5.7-1.8
	c-1.83-0.331-3.75-0.331-5.04-1.08c-1.29-0.75-1.95-2.25-3.36-3.06s-3.569-0.93-5.07-0.99c-1.5-0.06-2.34-0.06-3.39,0.24
	c-1.05,0.3-2.311,0.9-4.47,1.05c-2.16,0.15-5.22-0.15-7.32,0.03c-2.1,0.18-3.24,0.84-4.74,1.11c-1.5,0.27-3.359,0.15-5.13,0.03
	C428.096,224.529,426.416,224.409,425.426,223.659L425.426,223.659z M332.622,189.862c-2.22,0.24-4.8,1.02-6.93,1.53
	c-2.13,0.51-3.81,0.75-4.86,0.33c-1.05-0.42-1.47-1.5-2.25-3.66c-0.78-2.16-1.92-5.4-3-7.53c-1.08-2.13-2.1-3.15-2.97-3.81
	s-1.59-0.96-1.86-1.77s-0.09-2.13-0.66-3.63s-1.89-3.18-3.48-4.47s-3.45-2.19-4.23-3.24c-0.78-1.05-0.48-2.25-0.42-3.99
	c0.06-1.74-0.12-4.02-1.178-5.73s-2.992-2.85-3.847-3.975c-0.855-1.125-0.63-2.234,0.248-3.029c0.877-0.795,2.407-1.275,5.662-1.47
	c3.255-0.195,8.235-0.105,11.025,0.06c2.79,0.165,3.39,0.405,3.93-0.045s1.02-1.59,2.13-2.94c1.11-1.35,2.85-2.91,3.87-3.84
	c1.02-0.93,1.32-1.23,1.59-1.919c0.27-0.69,0.51-1.77,1.38-3.06s2.37-2.791,3.87-4.17s3-2.64,4.32-3.27s2.46-0.63,3.78,0.03
	c1.32,0.66,2.82,1.979,3.87,3.33s1.65,2.73,2.1,3.78c0.45,1.05,0.75,1.77,0.81,2.79s-0.12,2.34,0.33,3.57
	c0.45,1.23,1.53,2.37,2.399,3.6c0.87,1.23,1.53,2.55,1.92,3.6s0.51,1.83,1.11,2.16c0.6,0.33,1.68,0.21,2.76,0.84
	s2.16,2.01,2.55,3.42c0.39,1.41,0.09,2.85-0.45,3.84c-0.54,0.99-1.32,1.53-1.44,2.791c-0.12,1.26,0.42,3.24,1.411,4.41
	c0.99,1.17,2.43,1.53,3.15,2.4c0.72,0.87,0.72,2.25,1.32,2.85s1.8,0.42,2.58,0.78c0.78,0.36,1.14,1.26,1.681,1.23
	c0.54-0.03,1.259-0.99,1.109-1.89s-1.17-1.74-1.08-2.76c0.09-1.021,1.291-2.22,2.521-2.581c1.23-0.36,2.49,0.121,3,1.081
	c0.51,0.96,0.27,2.4-0.03,3.75c-0.3,1.35-0.66,2.61-0.18,3.45c0.48,0.84,1.8,1.26,2.52,1.98c0.72,0.72,0.84,1.74,0.93,3.15
	s0.15,3.21,0.9,4.74c0.75,1.53,2.19,2.79,3.72,3.84c1.53,1.05,3.15,1.89,3.75,2.7c0.6,0.81,0.18,1.59-0.96,2.82s-3,2.91-4.59,4.26
	c-1.59,1.35-2.91,2.371-3.6,1.98c-0.69-0.39-0.75-2.19-1.47-2.97c-0.72-0.78-2.1-0.541-3.69,0.03c-1.59,0.57-3.39,1.47-4.56,2.28
	c-1.17,0.81-1.71,1.53-2.64,1.62c-0.93,0.09-2.25-0.45-2.85-1.44s-0.48-2.43-1.38-3.24c-0.9-0.81-2.82-0.99-3.81-1.62
	c-0.99-0.63-1.05-1.71-0.75-2.73c0.3-1.02,0.96-1.98,0.42-2.61s-2.28-0.93-3.48-0.51c-1.2,0.419-1.86,1.56-2.521,2.31
	c-0.66,0.75-1.32,1.109-2.25,0.84c-0.93-0.27-2.13-1.17-2.37-2.431c-0.24-1.259,0.48-2.879,1.35-4.409
	c0.87-1.531,1.89-2.97,1.5-4.53c-0.39-1.56-2.19-3.24-3.628-4.19c-1.438-0.95-2.515-1.169-3.263-0.648
	c-0.748,0.52-1.168,1.78-1.979,2.08c-0.81,0.3-2.01-0.36-3.062-0.04c-1.052,0.32-1.955,1.619-2.362,3.064s-0.317,3.035,0.688,3.695
	c1.005,0.66,2.925,0.39,4.38,0.975c1.455,0.585,2.445,2.024,2.94,3.255c0.495,1.23,0.495,2.25-0.435,2.61
	C336.701,189.922,334.841,189.622,332.622,189.862L332.622,189.862z M106.57,55.282c-1.05,0.66-1.71,1.74-2.07,3.12
	c-0.36,1.38-0.42,3.06-0.9,4.29s-1.38,2.01-2.58,3.3c-1.2,1.29-2.7,3.09-3.51,4.59s-0.93,2.7-0.45,4.74
	c0.48,2.04,1.56,4.92,2.67,6.69c1.11,1.77,2.25,2.43,3.39,2.73c1.14,0.3,2.28,0.24,3,0.72c0.72,0.479,1.02,1.5,1.8,2.1
	c0.78,0.6,2.04,0.78,3.45,0.93c1.41,0.15,2.97,0.271,4.14,1.081c1.17,0.81,1.95,2.31,2.73,3.99c0.78,1.68,1.561,3.54,2.34,3.99
	c0.78,0.45,1.56-0.51,2.94-0.45c1.38,0.06,3.36,1.139,5.28,1.47c1.919,0.33,3.779-0.09,5.58,0.06c1.8,0.15,3.54,0.87,5.13,1.62
	c1.59,0.75,3.03,1.53,4.23,1.26c1.2-0.271,2.16-1.59,4.17-3.42c2.01-1.83,5.069-4.17,6.18-5.82c1.11-1.65,0.27-2.61-0.03-3.36
	s-0.06-1.29,0.42-1.71c0.48-0.42,1.2-0.72,2.01-0.57c0.81,0.149,1.71,0.75,2.041,0.3c0.33-0.45,0.089-1.95-0.09-3.27
	c-0.18-1.32-0.3-2.46-0.33-4.02s0.03-3.54,0.06-4.83c0.03-1.29,0.03-1.89,0.51-2.16c0.48-0.271,1.439-0.21,1.8-0.72
	c0.36-0.51,0.12-1.59,0.51-2.31c0.39-0.72,1.41-1.08,1.74-1.86c0.33-0.78-0.03-1.98,0.27-2.73c0.3-0.75,1.26-1.05,1.59-2.13
	c0.33-1.08,0.029-2.94-0.6-4.229c-0.63-1.291-1.59-2.01-2.041-2.88s-0.39-1.89-1.23-3.36c-0.84-1.47-2.58-3.39-4.14-4.62
	c-1.56-1.23-2.94-1.77-4.08-2.49c-1.14-0.72-2.04-1.621-3-1.8c-0.96-0.18-1.98,0.36-3.18,0.78c-1.2,0.419-2.58,0.72-3.84,0.45
	c-1.26-0.271-2.4-1.11-3.48-1.41c-1.08-0.3-2.1-0.06-2.61,0.87c-0.51,0.93-0.51,2.549-0.84,3.24c-0.33,0.69-0.99,0.45-1.92-0.45
	c-0.93-0.9-2.13-2.46-3.09-3.18c-0.96-0.72-1.68-0.6-2.31-0.39c-0.63,0.209-1.17,0.51-1.95,0.9c-0.78,0.39-1.8,0.87-2.52,1.47
	c-0.72,0.6-1.14,1.32-2.04,2.13c-0.9,0.81-2.28,1.71-3.66,2.31c-1.38,0.6-2.76,0.9-3.6,1.35c-0.84,0.45-1.14,1.05-1.71,1.5
	c-0.57,0.45-1.41,0.75-2.55,1.021C109.06,54.381,107.621,54.622,106.57,55.282z"/>
</svg>
