<?xml version="1.0" encoding="utf-8"?>
<!-- Generator: Adobe Illustrator 15.1.0, SVG Export Plug-In . SVG Version: 6.00 Build 0)  -->
<!DOCTYPE svg PUBLIC "-//W3C//DTD SVG 1.1//EN" "http://www.w3.org/Graphics/SVG/1.1/DTD/svg11.dtd">
<svg version="1.1" id="Layer_1" xmlns="http://www.w3.org/2000/svg" xmlns:xlink="http://www.w3.org/1999/xlink" x="0px" y="0px"
	 width="792px" height="612px" viewBox="0 0 792 612" enable-background="new 0 0 792 612" xml:space="preserve">
<path fill-rule="evenodd" clip-rule="evenodd" stroke="#000000" stroke-width="2.9999" stroke-linecap="round" stroke-linejoin="round" stroke-miterlimit="22.9256" d="
	M468.038,360.574c1.816-0.179,4.694,1.129,7.376,3.025c2.682,1.897,5.167,4.383,6.606,7.457c1.438,3.074,1.831,6.736,2.813,8.568
	c0.981,1.831,2.551,1.831,5.887,2.354s8.438,1.569,12.492,2.747c4.056,1.178,7.064,2.485,8.634,2.42
	c1.57-0.065,1.701-1.504,2.878-3.532c1.178-2.027,3.401-4.644,5.821-7.652s5.036-6.41,6.672-10.334
	c1.635-3.925,2.289-8.372,3.662-11.643c1.374-3.271,3.467-5.363,5.233-7.653c1.766-2.289,3.204-4.774,4.251-7.456
	s1.701-5.56,2.225-7.914c0.522-2.354,0.915-4.187,2.942-5.821c2.027-1.636,5.69-3.074,9.288-2.682s7.13,2.616,9.55,4.513
	c2.42,1.897,3.728,3.467,5.102,3.074c1.373-0.393,2.813-2.747,3.466-5.363c0.654-2.616,0.523-5.494,2.29-8.568
	c1.766-3.074,5.429-6.345,8.307-7.849c2.878-1.504,4.971-1.243,6.671-2.159c1.701-0.916,3.009-3.009,5.625-5.168
	s6.541-4.382,8.372-6.018s1.569-2.682,1.243-3.859c-0.327-1.178-0.72-2.485,2.747-6.279c3.466-3.794,10.792-10.073,13.604-14.128
	c2.813-4.056,1.112-5.887,0.72-7.718s0.522-3.663,1.373-6.999s1.635-8.176,3.532-12.427c1.896-4.251,4.905-7.915,5.821-10.204
	c0.915-2.289-0.262-3.205,0.131-4.905c0.393-1.7,2.354-4.186,4.056-4.84c1.7-0.654,3.139,0.523,14.454,9.158
	c11.315,8.634,32.508,24.724,43.3,32.965s11.185,8.634,12.101,6.214c0.915-2.42,2.354-7.653,4.446-12.296
	c2.093-4.644,4.839-8.7,5.101-11.512s-1.961-4.382-2.877-6.475c-0.914-2.093-0.522-4.71-0.652-6.672
	c-0.132-1.962-0.785-3.271-1.701-4.513c-0.915-1.243-2.093-2.42-2.093-3.728c0-1.309,1.178-2.748,1.766-4.056
	c0.589-1.308,0.589-2.485-0.654-2.943c-1.242-0.458-3.728-0.197-5.756-0.916c-2.027-0.719-3.597-2.42-4.774-3.924
	c-1.177-1.505-1.962-2.813-1.046-4.186c0.915-1.374,3.531-2.813,4.382-4.121s-0.065-2.486-4.056-3.859
	c-3.989-1.374-11.054-2.943-20.015-4.513c-8.96-1.57-19.817-3.139-25.378-3.401c-5.56-0.262-5.82,0.785-6.148,1.832
	c-0.326,1.046-0.719,2.093-4.578,2.42c-3.859,0.327-11.185-0.066-14.979,0.261c-3.793,0.327-4.055,1.374-4.971,3.924
	s-2.485,6.606-4.186,8.241c-1.701,1.635-3.532,0.851-9.746-0.654s-16.81-3.728-21.649-5.494s-3.925-3.074-3.467-4.579
	s0.458-3.205-0.654-3.466c-1.111-0.262-3.335,0.915-4.578,2.289c-1.243,1.374-1.505,2.943-2.158,4.448
	c-0.654,1.504-1.7,2.943-2.813,3.663c-1.112,0.719-2.289,0.719-3.467,1.701c-1.178,0.981-2.354,2.943-4.513,6.279
	c-2.159,3.336-5.299,8.045-8.242,9.68c-2.942,1.635-5.69,0.197-8.764-0.981c-3.074-1.177-6.476-2.093-9.157-1.177
	c-2.682,0.915-4.644,3.663-6.672,5.952c-2.027,2.29-4.12,4.121-6.671,5.756s-5.56,3.074-7.653,4.774
	c-2.093,1.701-3.27,3.663-5.429,5.429c-2.158,1.766-5.298,3.335-8.372,4.971c-3.073,1.635-6.083,3.335-8.634,5.363
	c-2.551,2.028-4.644,4.382-6.671,6.41c-2.028,2.027-3.99,3.728-4.645,4.448c-0.653,0.719,0,0.458,0.196-13.604
	c0.196-14.063-0.065-41.926-0.196-55.989s-0.131-14.324-0.262-14.39s-0.392,0.065-22.826,0c-22.436-0.065-67.043-0.327-89.347-0.458
	c-22.304-0.131-22.304-0.131-22.173-1.504c0.13-1.374,0.392-4.12,0.457-11.053c0.066-6.933-0.065-18.053-0.523-24.462
	c-0.458-6.41-1.243-8.11-1.374-10.857s0.393-6.541,0.981-10.4s1.243-7.783,1.438-11.38c0.196-3.598-0.065-6.868-0.523-9.812
	c-0.458-2.943-1.112-5.56-1.635-10.007c-0.523-4.448-0.916-10.727-1.177-17.463c-0.262-6.737-0.393-13.932,0.196-20.407
	c0.588-6.476,1.897-12.231,1.766-15.108c-0.131-2.878-1.701-2.878-4.317-2.878c-2.617,0-6.279,0-8.83,1.439
	c-2.551,1.438-3.99,4.316-4.055,6.998c-0.065,2.681,1.243,5.167,2.748,7.521c1.504,2.354,3.204,4.578,3.858,6.736
	c0.654,2.159,0.262,4.252-0.588,6.476c-0.851,2.224-2.159,4.578-2.354,6.344c-0.196,1.766,0.719,2.943,1.504,4.12
	c0.785,1.178,1.439,2.355,1.701,4.448c0.262,2.093,0.131,5.102-1.504,9.222c-1.635,4.121-4.775,9.353-8.11,15.436
	c-3.336,6.083-6.868,13.016-8.634,17.595c-1.766,4.578-1.766,6.802-1.439,9.026c0.327,2.223,0.981,4.447,0.785,7.063
	c-0.197,2.616-1.243,5.625-2.29,7.326c-1.047,1.7-2.093,2.093-3.205,2.29c-1.112,0.196-2.29,0.196-2.682,0.916
	c-0.393,0.719-0.001,2.158,0.653,3.532c0.654,1.374,1.57,2.682,1.177,3.827s-2.093,2.125-2.78,3.728s-0.359,3.826-0.327,5.429
	c0.033,1.603-0.229,2.583-1.046,4.056c-0.817,1.471-2.191,3.434-2.453,5.036c-0.262,1.603,0.589,2.846,1.145,4.056
	c0.556,1.21,0.817,2.387,0.392,3.99c-0.425,1.603-1.537,3.63-2.91,6.149c-1.374,2.518-3.009,5.526-4.382,7.456
	c-1.374,1.929-2.486,2.78-4.219,3.401c-1.733,0.621-4.088,1.014-6.476,2.256c-2.387,1.243-4.808,3.336-7.391,5.887
	c-2.583,2.551-5.331,5.559-7.096,7.685c-1.766,2.125-2.551,3.369-4.055,4.448s-3.728,1.995-5.592,2.91
	c-1.864,0.916-3.369,1.832-4.546,3.369c-1.177,1.537-2.028,3.695-3.205,5.363s-2.682,2.845-5.036,3.793
	c-2.355,0.948-5.56,1.668-8.013,2.126c-2.453,0.458-4.153,0.654-5.919,0.098c-1.766-0.556-3.598-1.864-5.625-3.042
	c-2.028-1.177-4.252-2.223-6.443-2.714c-2.191-0.491-4.35-0.425-6.442,0.916c-2.093,1.341-4.121,3.957-5.167,5.723
	s-1.112,2.682-1.504,4.219s-1.112,3.696-2.224,5.625c-1.111,1.929-2.616,3.629-4.676,3.728c-2.06,0.099-4.677-1.406-6.639-1.733
	c-1.962-0.328-3.271,0.523-4.382,2.061c-1.112,1.537-2.027,3.76-3.14,5.494c-1.112,1.733-2.419,2.976-3.302,4.055
	s-1.341,1.995-1.537,3.303s-0.131,3.009-0.164,5.266c-0.032,2.256-0.164,5.069-0.49,6.737c-0.327,1.667-0.851,2.191-1.93,2.943
	c-1.079,0.752-2.715,1.733-3.794,2.878s-1.602,2.453-1.667,3.466s0.327,1.733,1.341,2.617c1.013,0.883,2.649,1.929,3.532,2.813
	c0.883,0.883,1.013,1.603,0.85,2.224c-0.164,0.621-0.622,1.144-1.046,1.864c-0.425,0.719-0.818,1.634-0.752,2.452
	c0.065,0.817,0.588,1.537,0.98,2.518c0.393,0.981,0.654,2.224,0.458,2.878c-0.197,0.654-0.85,0.719-1.7,0.392
	c-0.851-0.327-1.897-1.046-3.107-1.21s-2.583,0.229-3.466,0.785c-0.883,0.556-1.275,1.275-1.504,2.551
	c-0.229,1.275-0.294,3.106-0.752,4.512c-0.458,1.406-1.308,2.388-2.813,2.78c-1.504,0.393-3.663,0.196-5.265-0.131
	c-1.603-0.326-2.649-0.785-2.976-1.863c-0.327-1.08,0.065-2.78,0.687-4.383c0.621-1.602,1.472-3.107,1.733-4.35
	c0.261-1.243-0.066-2.224-1.112-3.368c-1.046-1.145-2.813-2.453-4.742-3.597c-1.93-1.145-4.022-2.126-5.527-3.042
	c-1.505-0.916-2.42-1.767-3.271-1.963c-0.851-0.196-1.635,0.262-3.107,1.374c-1.472,1.112-3.63,2.877-5.265,4.578
	c-1.635,1.701-2.748,3.336-3.598,5.887s-1.439,6.018-1.766,8.83c-0.328,2.813-0.393,4.971-1.08,6.476
	c-0.687,1.504-1.995,2.354-3.237,3.271c-1.243,0.915-2.42,1.896-3.467,2.616c-1.047,0.719-1.962,1.177-2.388,2.19
	c-0.425,1.015-0.359,2.584-0.13,4.219c0.229,1.636,0.621,3.336,0.948,6.083c0.327,2.748,0.588,6.541,0.556,9.321
	c-0.033,2.779-0.36,4.546-0.196,5.756c0.163,1.21,0.817,1.864,1.014,3.008c0.196,1.146-0.065,2.78-0.491,3.893
	c-0.425,1.112-1.014,1.7-2.289,1.93c-1.275,0.229-3.238,0.098-4.774,0.131c-1.538,0.032-2.649,0.229-3.663,2.027
	c-1.014,1.799-1.93,5.2-2.878,8.176s-1.93,5.527-3.074,7.358s-2.453,2.943-4.513,3.892c-2.061,0.948-4.873,1.733-7.817,2.224
	c-2.943,0.491-6.017,0.688-9.026,0.752c-3.009,0.065-5.952,0.001-7.718,0.033c-1.766,0.032-2.355,0.163-2.682,0.851
	c-0.328,0.687-0.393,1.93-0.393,3.957s0.065,4.84,0.229,7.391s0.425,4.841,0.458,8.404c0.032,3.565-0.164,8.405-0.262,11.676
	s-0.098,4.971-0.981,6.115c-0.883,1.145-2.649,1.734-3.793,2.911s-1.665,2.943-1.534,4.677c0.13,1.733,0.914,3.434,3.463,6.409
	c2.55,2.977,6.867,7.228,10.072,10.923c3.205,3.696,5.298,6.836,6.328,8.847c1.03,2.012,0.997,2.895,0.687,4.088
	c-0.311,1.194-0.899,2.698-0.654,4.611s1.325,4.235,2.534,5.936c1.21,1.7,2.551,2.78,3.827,4.366
	c1.275,1.586,2.485,3.679,3.892,5.511c1.406,1.831,3.008,3.4,4.758,4.889c1.749,1.488,3.646,2.894,4.708,4.872
	c1.062,1.979,1.291,4.53,1.88,7.048c0.588,2.519,1.537,5.004,3.287,7.195c1.75,2.19,4.3,4.088,6.197,4.791
	c1.896,0.703,3.14,0.212,4.317-0.033s2.289-0.245,3.467,1.047c1.177,1.291,2.419,3.875,3.106,5.837
	c0.687,1.963,0.817,3.303,1.325,4.529c0.506,1.226,1.39,2.338,3.008,3.123s3.973,1.243,6.819,1.373
	c2.845,0.131,6.181-0.064,8.127-0.13c1.945-0.066,2.502,0,3.271,0.556c0.768,0.556,1.75,1.603,2.698,2.518
	c0.948,0.916,1.864,1.701,2.093,2.175c0.229,0.475-0.229,0.638-1.079,1.456c-0.85,0.817-2.093,2.289-2.845,3.564
	c-0.752,1.275-1.014,2.354-0.703,3.384c0.311,1.031,1.193,2.013,1.684,2.748c0.491,0.736,0.588,1.226,0.981,2.175
	c0.393,0.948,1.079,2.354,1.782,3.63s1.422,2.42,2.044,4.382c0.621,1.963,1.145,4.742,1.913,6.345s1.782,2.027,3.581,2.796
	c1.798,0.769,4.382,1.881,7.097,3.646s5.56,4.187,7.522,5.887c1.962,1.7,3.042,2.682,4.922,3.319c1.88,0.639,4.562,0.933,8.192,1.08
	c3.63,0.147,8.208,0.147,11.43,0.147c3.221,0,5.085,0,6.197-0.621c1.112-0.622,1.471-1.865,2.387-2.536
	c0.916-0.67,2.387-0.768,3.99-0.85s3.336-0.147,4.84-1.129c1.504-0.98,2.78-2.878,4.431-5.069c1.651-2.19,3.68-4.677,4.775-5.675
	c1.096-0.997,1.259-0.506,3.238,1.718c1.978,2.224,5.772,6.181,7.963,8.225c2.191,2.044,2.78,2.175,4.415,1.831
	c1.635-0.343,4.317-1.161,10.04-2.73s14.488-3.892,21.405-5.608c6.917-1.717,11.985-2.829,15.616-3.614
	c3.63-0.784,5.821-1.242,6.574-1.749c0.752-0.507,0.065-1.063-1.275-1.831c-1.341-0.769-3.336-1.75-3.892-2.552
	c-0.556-0.801,0.327-1.422,2.698-2.697s6.23-3.205,8.307-3.664c2.077-0.457,2.371,0.557,2.846,1.8
	c0.474,1.242,1.127,2.714,1.684,3.27c0.556,0.557,1.014,0.197,4.513-1.863c3.5-2.061,10.04-5.821,14.7-8.258
	c4.66-2.437,7.44-3.549,10.204-4.072c2.764-0.522,5.51-0.457,6.966-0.032c1.455,0.425,1.619,1.21,1.75,2.158
	s0.229,2.061,0.458,2.682c0.229,0.622,0.588,0.753,2.11,0.785c1.521,0.033,4.202-0.032,5.805-0.441
	c1.602-0.408,2.125-1.161,4.955-3.548c2.829-2.388,7.963-6.41,10.367-8.65c2.404-2.24,2.077-2.698,1.063-2.845
	c-1.014-0.147-2.714,0.016-3.957,0.016s-2.027-0.163-2.322-1.472c-0.294-1.308-0.098-3.761,0.834-5.2
	c0.932-1.438,2.6-1.863,4.774-2.779c2.175-0.916,4.856-2.322,6.605-3.107c1.75-0.784,2.567-0.948,2.224-1.603
	c-0.343-0.653-1.848-1.798-3.124-2.583c-1.275-0.785-2.322-1.21-3.008-2.273c-0.687-1.063-1.014-2.763-1.275-4.333
	c-0.262-1.569-0.458-3.009,0.114-4.104s1.914-1.848,2.796-2.796c0.883-0.948,1.308-2.093,1.978-4.415
	c0.67-2.322,1.586-5.821,2.894-9.141s3.009-6.459,7.129-11.626s10.661-12.362,15.501-18.184c4.84-5.821,7.979-10.269,10.53-14.553
	s4.513-8.404,7.03-12.492c2.519-4.088,5.593-8.144,8.568-10.662c2.977-2.518,5.854-3.499,6.934-4.382s0.359-1.668-0.262-2.683
	c-0.622-1.013-1.145-2.256-0.621-3.695c0.523-1.438,2.093-3.074,3.728-4.415c1.636-1.34,3.336-2.387,4.514-3.499
	c1.177-1.111,1.831-2.289,2.942-6.345c1.112-4.055,2.683-10.988,4.284-16.221c1.603-5.232,3.238-8.765,4.434-11.364
	C465.467,362.421,466.222,360.754,468.038,360.574z"/>
</svg>
