<?xml version="1.0" encoding="utf-8"?>
<!-- Generator: Adobe Illustrator 15.1.0, SVG Export Plug-In . SVG Version: 6.00 Build 0)  -->
<!DOCTYPE svg PUBLIC "-//W3C//DTD SVG 1.1//EN" "http://www.w3.org/Graphics/SVG/1.1/DTD/svg11.dtd">
<svg version="1.1" id="Layer_1" xmlns="http://www.w3.org/2000/svg" xmlns:xlink="http://www.w3.org/1999/xlink" x="0px" y="0px"
	 width="792px" height="612px" viewBox="0 0 792 612" enable-background="new 0 0 792 612" xml:space="preserve">
<path fill-rule="evenodd" clip-rule="evenodd" stroke="#000000" stroke-width="2.9999" stroke-linecap="round" stroke-linejoin="round" stroke-miterlimit="22.9256" d="
	M196.596,271.153c-2.138-1.174-4.644-2.882-6.523-3.793c-1.879-0.912-3.132-1.025-5.068-2.449c-1.936-1.424-4.556-4.157-6.208-6.264
	c-1.651-2.107-2.334-3.588-3.815-4.328c-1.48-0.74-3.759-0.74-5.239-1.367c-1.481-0.626-2.164-1.879-3.303-4.499
	c-1.14-2.62-2.734-6.606-4.613-9.567c-1.879-2.961-4.043-4.898-5.125-6.664c-1.083-1.765-1.083-3.359-2.05-5.125
	c-0.968-1.766-2.905-3.702-4.669-5.183c-1.766-1.481-3.36-2.505-4.613-3.929c-1.253-1.424-2.164-3.246-2.677-6.037
	c-0.512-2.791-0.626-6.549-1.082-9.624c-0.455-3.075-1.252-5.467-2.619-7.859s-3.303-4.784-4.499-6.777
	c-1.196-1.993-1.651-3.587-2.505-4.727c-0.854-1.139-2.107-1.822-3.303-4.213c-1.196-2.392-2.334-6.492-3.531-9.739
	c-1.196-3.246-2.449-5.637-4.669-6.605c-2.221-0.968-5.41-0.513-7.859-0.285c-2.449,0.228-4.157,0.228-5.524,0.341
	c-1.367,0.114-2.392,0.342-4.157-0.228c-1.766-0.569-4.271-1.936-5.979-3.188c-1.709-1.253-2.62-2.392-3.246-3.702
	c-0.626-1.31-0.968-2.79-2.505-4.043s-4.271-2.278-6.037-3.929c-1.766-1.652-2.563-3.93-4.1-5.296
	c-1.538-1.367-3.816-1.822-5.866-2.905c-2.05-1.082-3.873-2.79-6.264-4.385c-2.392-1.594-5.354-3.075-7.846-5.068
	s-4.516-4.499-5.527-6.492c-1.012-1.993-1.012-3.474-0.057-4.783c0.955-1.31,2.864-2.449,3.647-4.1
	c0.784-1.651,0.442-3.815,0.728-5.339c0.285-1.523,1.195-2.406,2.263-3.317c1.068-0.911,2.292-1.851,3.275-2.107
	c0.982-0.256,1.722,0.171,2.092-0.526c0.37-0.698,0.37-2.52,0.684-3.488c0.313-0.968,0.94-1.083,1.353-1.595
	c0.413-0.513,0.612-1.424,1.068-2.236c0.456-0.811,1.167-1.523,2.349-2.263c1.181-0.741,2.833-1.509,4.613-2.862
	c1.779-1.353,3.687-3.289,5.609-4.356s3.858-1.267,4.827-1.865c0.968-0.598,0.968-1.595,0.783-2.62s-0.555-2.079-0.228-3.246
	s1.353-2.449,2.021-3.517c0.669-1.067,0.982-1.922,1.481-2.449c0.498-0.527,1.182-0.726,7.588-2.748
	c6.406-2.021,18.536-5.866,25.697-8.058c7.161-2.192,9.354-2.734,10.493-2.676c1.139,0.057,1.224,0.711,1.495,1.381
	c0.27,0.669,0.726,1.353,1.979,0.897c1.253-0.456,3.303-2.05,5.04-3.019c1.737-0.968,3.161-1.31,4-2.192
	c0.84-0.882,1.096-2.306,1.979-2.918c0.883-0.612,2.392-0.413,3.645-0.797s2.25-1.353,3.246-1.58
	c0.996-0.228,1.993,0.285,3.132-0.029c1.139-0.313,2.42-1.452,3.659-1.95c1.239-0.499,2.435-0.356,3.346-0.939
	c0.911-0.584,1.538-1.894,2.292-2.192c0.754-0.3,1.637,0.413,2.549,0.298c0.911-0.114,1.85-1.053,2.633-1.324
	s1.409,0.128,2.235-0.128c0.826-0.256,1.851-1.167,2.89-1.552s2.093-0.242,2.904,0.114c0.812,0.356,1.381,0.926,2.036,0.727
	c0.655-0.199,1.396-1.167,2.349-2.534s2.121-3.132,3.189-4.058c1.068-0.925,2.036-1.011,2.52-0.327
	c0.484,0.683,0.484,2.135,0.669,3.161c0.185,1.025,0.555,1.623,1.253,1.537c0.698-0.085,1.723-0.854,2.762-1.011
	c1.039-0.156,2.092,0.299,3.288,0.356c1.196,0.057,2.535-0.285,3.432-0.655c0.896-0.37,1.353-0.769,1.765-0.968
	c0.413-0.2,0.783-0.2,4.827-0.015s11.76,0.555,40.902,1.965c29.143,1.409,79.713,3.858,105.183,5.168
	c25.47,1.31,25.839,1.48,25.839,1.879c0,0.398-0.37,1.025-0.271,1.595c0.1,0.569,0.669,1.082,1.125,1.594
	c0.456,0.513,0.798,1.026,0.684,1.909c-0.114,0.882-0.684,2.135-1.224,3.302c-0.541,1.167-1.054,2.25-1.239,3.346
	c-0.185,1.096-0.042,2.207,0.271,3.046c0.313,0.84,0.797,1.41,1.31,1.822c0.512,0.413,1.053,0.669,1.993,0.143
	c0.94-0.527,2.278-1.836,4.599-3.659c2.321-1.822,5.624-4.157,7.432-5.282c1.808-1.125,2.121-1.04,2.989-0.042
	c0.868,0.996,2.292,2.904,4.756,6.335c2.463,3.431,5.965,8.386,8.613,12.087c2.647,3.702,4.441,6.15,5.381,7.631
	s1.025,1.993,0.769,5.424c-0.256,3.431-0.854,9.781-1.153,12.956c-0.299,3.175-0.299,3.175,1.239,3.232
	c1.537,0.057,4.612,0.17,12.443,0.242c7.83,0.071,20.415,0.099,45.369,0.481c24.954,0.381,62.275,1.116,81.082,1.486
	c18.808,0.37,19.1,0.376,19.245,0.378c0.146,0.003,0.146,0.003,0.316,0.231c0.171,0.228,0.513,0.683,2.933,3.218
	c2.421,2.534,6.92,7.146,12.725,12.92c5.805,5.773,12.916,12.707,36.147,35.977c23.23,23.27,62.581,62.877,82.385,82.894
	c19.803,20.018,20.06,20.444,19.931,20.843c-0.128,0.398-0.641,0.769-1.622,1.182c-0.982,0.413-2.435,0.868-3.161,1.68
	c-0.727,0.812-0.727,1.979,0.062,2.352c0.788,0.373,2.363-0.05,3.787-0.292c1.424-0.242,2.696-0.304,3.844,0.106
	c1.149,0.411,2.174,1.293,2.459,2.005c0.284,0.711-0.171,1.253-1.823,1.793c-1.651,0.541-4.499,1.082-7.417,1.836
	c-2.919,0.754-5.908,1.723-9.709,3.375c-3.802,1.651-8.415,3.986-14.451,8.542s-13.496,11.333-19.732,18.024
	c-6.235,6.691-11.247,13.297-14.863,18.053c-3.616,4.755-5.837,7.659-8.457,11.816c-2.619,4.157-5.637,9.567-7.146,13.525
	c-1.509,3.958-1.509,6.464-1.851,7.773s-1.025,1.424-1.709,0.797c-0.684-0.626-1.366-1.993-2.135-2.335
	c-0.77-0.342-1.623,0.342-1.737,1.281c-0.113,0.939,0.513,2.136,1.082,3.246s1.082,2.136,1.396,3.502
	c0.313,1.367,0.427,3.075,0.142,4.983c-0.284,1.908-0.968,4.015-1.139,5.666s0.171,2.848-0.256,3.019
	c-0.428,0.171-1.623-0.684-2.278-2.078c-0.654-1.396-0.769-3.332-0.797-4.813s0.028-2.506-0.398-3.303
	c-0.428-0.798-1.339-1.367-3.047-1.595c-1.709-0.229-4.215-0.114-5.239-0.569c-1.025-0.456-0.569-1.48,0.085-2.933
	c0.655-1.453,1.51-3.332,1.822-4.927c0.313-1.595,0.086-2.904-0.825-3.616s-2.506-0.825-3.93,0.627s-2.677,4.471-3.047,7.261
	s0.143,5.354,1.367,7.175c1.225,1.823,3.16,2.905,5.068,3.901c1.907,0.997,3.787,1.908,4.812,3.132
	c1.025,1.225,1.196,2.763,1.766,4.386s1.538,3.331,2.335,4.413c0.798,1.082,1.424,1.538,0.798,2.478
	c-0.627,0.939-2.506,2.363-3.674,3.53c-1.167,1.168-1.623,2.079-2.05,2.62c-0.428,0.541-0.825,0.712-1.168-0.199
	c-0.341-0.911-0.626-2.905-1.821-4.527c-1.196-1.623-3.304-2.876-5.126-3.218s-3.36,0.228-3.445,1.11s1.281,2.078,2.478,3.019
	c1.195,0.939,2.221,1.623,2.733,2.505c0.513,0.883,0.513,1.966-0.513,2.079c-1.025,0.114-3.075-0.74-4.67-1.338
	c-1.595-0.599-2.733-0.939-3.189-0.541c-0.455,0.398-0.228,1.537,0.826,2.448s2.934,1.595,3.673,2.592
	c0.741,0.996,0.342,2.306-0.911,3.018s-3.36,0.825-5.04,1.594c-1.681,0.769-2.934,2.192-3.788,3.417
	c-0.854,1.225-1.31,2.249-0.968,3.445s1.48,2.563,1.452,3.872c-0.028,1.311-1.225,2.563-2.933,3.075s-3.93,0.285-6.321,0.798
	s-4.954,1.766-6.406,1.993s-1.794-0.569-1.681-1.651c0.114-1.082,0.684-2.449,0.028-3.36c-0.654-0.911-2.533-1.366-4.669-1.253
	c-2.136,0.114-4.527,0.798-6.492,2.363c-1.965,1.566-3.503,4.016-4.869,6.436c-1.367,2.42-2.563,4.812-2.648,6.406
	c-0.085,1.595,0.94,2.392,2.733,2.221c1.795-0.171,4.357-1.31,5.496-1.081c1.139,0.228,0.854,1.821,0.114,3.046
	c-0.741,1.225-1.937,2.079-3.36,2.791s-3.075,1.281-4.756,1.965c-1.68,0.684-3.388,1.48-5.296,2.676
	c-1.907,1.196-4.015,2.791-5.667,4.613c-1.651,1.822-2.848,3.872-3.502,5.324c-0.655,1.452-0.769,2.307-2.25,2.876
	c-1.48,0.569-4.328,0.854-7.175,1.908c-2.848,1.054-5.695,2.875-7.632,3.588c-1.936,0.712-2.961,0.313-3.872-0.541
	c-0.911-0.854-1.708-2.164-2.591-3.275c-0.883-1.11-1.851-2.021-1.566-3.93c0.285-1.907,1.822-4.812,2.449-7.062
	c0.626-2.249,0.341-3.843-0.527-3.857s-2.32,1.552-3.729,3.338c-1.41,1.787-2.776,3.795-4.527,4.094s-3.887-1.11-4.954-0.221
	c-1.068,0.89-1.068,4.079-0.214,6.385c0.854,2.307,2.563,3.73,4.499,5.211c1.936,1.481,4.1,3.019,6.093,3.958
	s3.815,1.281,4.442,2.136c0.626,0.854,0.057,2.221-0.684,3.872c-0.74,1.652-1.651,3.588-3.73,5.268
	c-2.078,1.681-5.324,3.104-7.816,4.15c-2.491,1.047-4.228,1.716-5.253,1.48c-1.025-0.234-1.338-1.373-1.21-2.655
	c0.128-1.281,0.697-2.705-0.271-3.73c-0.969-1.024-3.475-1.651-4.457-0.925c-0.981,0.727-0.441,2.805-1.124,4.071
	c-0.684,1.268-2.592,1.724-2.691,2.463c-0.1,0.741,1.609,1.766,3.402,2.72c1.795,0.954,3.674,1.837,3.959,2.577
	c0.284,0.74-1.025,1.338-2.378,1.537s-2.748,0-4.841,0.612s-4.883,2.036-7.232,3.389c-2.349,1.353-4.257,2.634-5.68,3.303
	c-1.424,0.669-2.364,0.727-3.361-0.071c-0.996-0.797-2.049-2.448-3.701-4.257c-1.651-1.808-3.901-3.772-3.986-5.937
	c-0.086-2.164,1.993-4.527,3.814-6.706c1.823-2.178,3.39-4.171,3.717-5.809c0.327-1.637-0.584-2.918-2.321-3.032
	c-1.736-0.114-4.299,0.939-5.709,2.662c-1.409,1.723-1.665,4.114-3.701,5.979s-5.852,3.203-7.802,4.527
	c-1.951,1.324-2.036,2.634-1.367,3.416c0.669,0.783,2.093,1.039,3.716,1.367c1.623,0.327,3.445,0.727,5.183,2.079
	s3.389,3.659,4.058,5.353c0.669,1.694,0.355,2.777-0.926,4.044s-3.53,2.72-5.253,4.3s-2.919,3.288-4.144,4.611
	c-1.225,1.324-2.478,2.264-3.417,2.421c-0.939,0.156-1.566-0.471-1.794-1.638s-0.057-2.875-0.783-4.328
	c-0.726-1.452-2.349-2.647-3.245-2.876c-0.897-0.228-1.068,0.513-1.012,1.552c0.058,1.04,0.342,2.378-0.284,3.389
	s-2.164,1.694-3.332,2.079c-1.167,0.384-1.964,0.47-2.249-0.229c-0.285-0.697-0.057-2.178-1.011-2.762
	c-0.953-0.584-3.09-0.271-4.783-0.028c-1.694,0.242-2.947,0.413-4.072-0.299s-2.121-2.307-2.947-3.531
	c-0.825-1.224-1.48-2.078-1.779-1.723c-0.299,0.356-0.242,1.923-0.684,2.862s-1.381,1.252-2.093,1.366s-1.196,0.028-2.349,0.086
	c-1.154,0.057-2.976,0.256-5.076,0.028c-2.1-0.229-4.478-0.883-5.638-0.79c-1.16,0.092-1.104,0.933-0.441,1.694
	s1.93,1.444,3.56,2.178s3.623,1.517,5.503,1.688c1.879,0.17,3.645-0.271,5.16-0.449c1.517-0.178,2.783-0.092,4.015,0.42
	c1.231,0.513,2.428,1.453,2.848,2.222s0.063,1.366-0.662,1.736c-0.727,0.37-1.822,0.513-2.826,0.584s-1.915,0.071-1.972,0.583
	c-0.057,0.513,0.74,1.538,1.907,1.993c1.168,0.456,2.705,0.342,3.888,0.655c1.182,0.313,2.007,1.054,2.377,1.937
	s0.285,1.907-0.896,2.563s-3.46,0.939-5.268,1.851c-1.809,0.912-3.146,2.449-4.144,3.631s-1.651,2.008-1.167,2.762
	c0.483,0.755,2.106,1.438,3.602,1.225s2.861-1.324,4.556-2.321c1.694-0.996,3.716-1.878,5.026-1.992
	c1.31-0.114,1.907,0.54,2.106,1.936s0,3.531-0.242,5.154s-0.526,2.733-2.52,3.844s-5.694,2.221-8.599,3.616
	c-2.905,1.396-5.013,3.075-6.493,3.573c-1.48,0.499-2.335-0.185-3.203,0.057c-0.868,0.242-1.751,1.41-2.69,2.15
	s-1.937,1.054-2.733,0.697c-0.798-0.355-1.396-1.381-1.467-3.602s0.384-5.638,0.513-8.656c0.128-3.019-0.071-5.638-0.868-7.332
	c-0.798-1.694-2.193-2.463-3.346-2.136c-1.154,0.327-2.064,1.751-1.837,3.545s1.595,3.958,1.937,5.852
	c0.341,1.894-0.342,3.517-1.268,4.143c-0.925,0.627-2.093,0.257-3.16-0.911c-1.067-1.167-2.036-3.132-3.203-4.698
	c-1.168-1.565-2.534-2.733-3.901-4.541c-1.366-1.809-2.733-4.257-3.816-7.048c-1.081-2.79-1.878-5.923-2.477-8.57
	c-0.598-2.648-0.996-4.813-1.937-6.977c-0.939-2.164-2.42-4.328-4.413-5.809s-4.499-2.277-5.524-1.937
	c-1.024,0.343-0.569,1.823,0.712,4.414c1.282,2.591,3.389,6.293,4.557,10.308c1.167,4.015,1.395,8.343,1.765,11.816
	c0.371,3.474,0.883,6.094,0.57,8.115c-0.313,2.021-1.452,3.445-3.445,3.388c-1.993-0.057-4.841-1.594-6.322-1.48
	c-1.479,0.114-1.594,1.88-1.28,3.475c0.313,1.594,1.054,3.018,2.533,3.786c1.481,0.77,3.702,0.883,5.724,0.712
	s3.845-0.626,4.983-1.565s1.594-2.363,2.704-1.908c1.111,0.456,2.876,2.791,4.271,4.584c1.396,1.794,2.42,3.047,3.56,3.36
	c1.139,0.313,2.392-0.313,3.701,0.057c1.311,0.37,2.677,1.737,3.616,3.019s1.452,2.478,0.598,4.67
	c-0.854,2.192-3.074,5.382-6.691,8.457c-3.616,3.075-8.627,6.036-11.076,6.634c-2.449,0.599-2.335-1.167-1.595-3.046
	c0.74-1.88,2.107-3.873,2.818-5.752c0.712-1.88,0.77-3.645-0.541-4.927c-1.31-1.28-3.985-2.078-6.378-2.477
	c-2.392-0.398-4.499-0.398-6.293,0.455c-1.793,0.854-3.274,2.563-2.505,3.246c0.769,0.684,3.786,0.343,6.036,0.513
	c2.25,0.171,3.73,0.854,4.101,1.993c0.37,1.14-0.37,2.733-0.911,4.186s-0.883,2.763-1.481,4.584
	c-0.598,1.823-1.452,4.158-2.648,6.265c-1.195,2.107-2.732,3.986-3.957,5.258c-1.225,1.271-2.136,1.933-3.047,2.264
	s-1.822,0.331-2.733-0.428c-0.911-0.758-1.822-2.274-3.132-3.203c-1.31-0.929-3.019-1.271-4.129-2.182s-1.623-2.392-2.677-2.99
	c-1.054-0.598-2.647-0.313-4.015,0.37c-1.367,0.684-2.506,1.766-3.616,1.737c-1.111-0.028-2.193-1.167-3.218-2.051
	c-1.025-0.882-1.994-1.509-2.876-1.793c-0.883-0.285-1.68-0.228-2.079-0.826c-0.399-0.598-0.399-1.851-0.57-3.218
	c-0.171-1.366-0.512-2.847-0.711-4.015c-0.2-1.167-0.256-2.021,0.171-2.449c0.427-0.427,1.338-0.427,1.708-0.825
	s0.199-1.195-0.342-2.192c-0.541-0.996-1.452-2.192-2.448-3.73c-0.997-1.537-2.079-3.416-2.392-4.841
	c-0.313-1.423,0.143-2.392,0.968-3.502s2.021-2.363,2.619-3.303c0.598-0.939,0.598-1.566,0.256-3.474
	c-0.341-1.908-1.024-5.097-1.907-6.664c-0.883-1.565-1.965-1.508-3.104-2.448c-1.139-0.939-2.334-2.876-3.701-5.296
	s-2.905-5.324-3.047-7.432c-0.143-2.107,1.11-3.417,1.423-4.67c0.313-1.253-0.313-2.449-1.737-4.186
	c-1.424-1.737-3.645-4.015-5.524-6.122s-3.417-4.043-4.328-5.296c-0.912-1.253-1.196-1.822-3.076-2.193
	c-1.879-0.369-5.353-0.54-7.574-1.423c-2.221-0.883-3.188-2.478-4.555-4.157c-1.367-1.681-3.132-3.445-4.129-4.813
	c-0.997-1.366-1.225-2.335-0.769-2.904s1.595-0.74,2.221-1.196c0.626-0.455,0.74-1.195,0.456-2.505s-0.968-3.189-1.48-4.386
	c-0.513-1.195-0.854-1.708-0.883-3.444c-0.029-1.737,0.255-4.698-0.2-7.119c-0.456-2.42-1.652-4.299-1.964-6.919
	c-0.313-2.619,0.256-5.979-0.313-7.944c-0.57-1.965-2.278-2.534-2.705-3.359c-0.427-0.826,0.427-1.908-0.256-2.934
	c-0.683-1.024-2.904-1.992-3.815-3.331c-0.911-1.338-0.512-3.046-1.367-5.011c-0.854-1.966-2.961-4.187-3.417-5.695
	s0.741-2.307,1.452-3.332c0.712-1.024,0.94-2.277,0.797-3.844c-0.142-1.565-0.655-3.445-1.822-5.012
	c-1.167-1.565-2.99-2.818-4.755-3.758c-1.766-0.939-3.474-1.566-5.211-2.962c-1.737-1.395-3.502-3.56-6.605-5.097
	c-3.104-1.538-7.546-2.449-11.304-4.271c-3.759-1.822-6.834-4.556-7.973-7.289c-1.139-2.733-0.342-5.467-1.766-7.232
	c-1.424-1.766-5.068-2.563-7.232-4.043s-2.847-3.645-2.62-5.468c0.228-1.821,1.367-3.303,1.253-4.84
	c-0.114-1.538-1.48-3.132-4.214-4.442c-2.733-1.31-6.833-2.335-8.485-4.1c-1.652-1.766-0.854-4.271-0.399-6.663
	s0.57-4.67,1.025-6.777c0.456-2.106,1.252-4.043,0.911-5.523c-0.341-1.48-1.822-2.506-3.872-3.474
	c-2.05-0.969-4.67-1.879-6.264-3.588s-2.164-4.214-4.043-6.606c-1.879-2.392-5.068-4.669-7.46-6.72
	c-2.392-2.05-3.986-3.872-5.751-4.043s-3.702,1.31-6.093,0.569c-2.392-0.74-5.24-3.702-6.72-6.207
	c-1.481-2.506-1.594-4.556-1.879-6.606c-0.285-2.05-0.74-4.101-1.936-5.638s-3.132-2.563-3.929-4.157
	c-0.797-1.594-0.456-3.758-1.48-5.751c-1.025-1.994-3.417-3.815-4.955-5.695c-1.537-1.879-2.221-3.815-3.447-5.104
	C200.503,272.967,198.733,272.328,196.596,271.153z"/>
</svg>
