<?xml version="1.0" encoding="utf-8"?>
<!-- Generator: Adobe Illustrator 15.1.0, SVG Export Plug-In . SVG Version: 6.00 Build 0)  -->
<!DOCTYPE svg PUBLIC "-//W3C//DTD SVG 1.1//EN" "http://www.w3.org/Graphics/SVG/1.1/DTD/svg11.dtd">
<svg version="1.1" id="Layer_1" xmlns="http://www.w3.org/2000/svg" xmlns:xlink="http://www.w3.org/1999/xlink" x="0px" y="0px"
	 width="792px" height="612px" viewBox="0 0 792 612" enable-background="new 0 0 792 612" xml:space="preserve">
<path fill-rule="evenodd" clip-rule="evenodd" stroke="#000000" stroke-width="2.9999" stroke-linecap="round" stroke-linejoin="round" stroke-miterlimit="22.9256" d="
	M504.556,167.38c1.559,0.77,3.558,2.049,5.996,3.289c2.439,1.24,5.318,2.439,7.558,2.959c2.239,0.52,3.839,0.36,5.158,0.84
	c1.319,0.479,2.358,1.599,3.878,2.918c1.52,1.319,3.519,2.839,5.958,3.119c2.439,0.28,5.318-0.68,7.317-1.879
	c1.999-1.199,3.118-2.639,3.718-3.998c0.601-1.359,0.681-2.639,1.56-3.359c0.88-0.72,2.56-0.879,3.639-0.16
	c1.08,0.72,1.56,2.319,2.479,2.919c0.92,0.6,2.279,0.2,3.119-0.76c0.839-0.96,1.158-2.479,1.799-2.759
	c0.64-0.28,1.6,0.68,2.438,1.479c0.84,0.8,1.56,1.439,2.6,1.16c1.039-0.28,2.398-1.479,3.479-1.639
	c1.079-0.16,1.879,0.719,2.999,1.12c1.119,0.399,2.559,0.319,4.118-0.161c1.56-0.479,3.238-1.359,5.078-1.319
	c1.839,0.04,3.839,1,5.478,1c1.64,0,2.919-0.959,5.678-1.04c2.76-0.08,6.998,0.719,9.197,1.879c2.198,1.16,2.358,2.679,3.118,3.519
	c0.76,0.839,2.119,1,3.199,1.719c1.079,0.72,1.879,1.999,4.357,2.559c2.479,0.56,6.638,0.4,8.837,1.08s2.439,2.199,3.199,2.719
	s2.039,0.04,3.958,0.2c1.919,0.16,4.479,0.96,5.998,1.959s1.999,2.199,2.578,3.159c0.58,0.959,1.26,1.679,2.959,1.919
	s4.419,0,5.718,0.4c1.3,0.4,1.18,1.439,0.78,2.319s-1.08,1.6-0.58,2.539c0.5,0.94,2.179,2.099,3.499,3.259
	c1.319,1.16,2.278,2.319,2.839,3.579c0.56,1.26,0.72,2.619,1.779,2.759c1.06,0.14,3.019-0.94,4.678-0.78
	c1.659,0.16,3.02,1.559,4.219,2.199c1.199,0.64,2.239,0.52,3.618,0.5c1.38-0.02,3.1,0.06,4.059,0.58
	c0.96,0.52,1.159,1.479,1.039,2.439c-0.12,0.96-0.56,1.919-0.959,2.799c-0.4,0.88-0.76,1.68-0.82,2.439
	c-0.06,0.759,0.18,1.479,0.061,2.299c-0.12,0.82-0.6,1.74-0.36,2.699c0.24,0.959,1.199,1.959,2.179,2.999
	c0.98,1.04,1.979,2.119,2.72,3.099c0.739,0.979,1.22,1.859,1.38,3.039c0.159,1.18,0,2.659-0.381,3.799
	c-0.38,1.14-0.979,1.938-0.899,3.039c0.08,1.1,0.84,2.499,1.859,3.619c1.02,1.12,2.299,1.959,3.06,2.729
	c0.759,0.77,0.999,1.469,1.089,2.649c0.091,1.179,0.03,2.839,0.3,3.858c0.271,1.02,0.87,1.4,1.529,1.85
	c0.66,0.449,1.38,0.969,1.66,1.779c0.28,0.81,0.12,1.909,0.369,2.289c0.25,0.379,0.91,0.04,1.73-0.04
	c0.819-0.08,1.799,0.1,2.259,0.58s0.399,1.26,0.989,1.63c0.59,0.37,1.83,0.33,2.329,1.059c0.5,0.729,0.26,2.229-0.01,3.219
	s-0.569,1.469-0.87,2.049c-0.3,0.58-0.6,1.259-0.55,1.959c0.05,0.699,0.45,1.419,1.25,2.069s1.999,1.229,2.509,1.929
	s0.329,1.52,0.659,2.219s1.17,1.279,1.76,1.79c0.59,0.51,0.93,0.949,1.129,1.559c0.2,0.61,0.261,1.39-0.22,2.269
	c-0.479,0.88-1.499,1.859-1.979,2.669c-0.48,0.81-0.42,1.449-0.04,2.139c0.38,0.689,1.08,1.429,0.98,2.219
	c-0.101,0.79-1,1.629-1.479,2.449c-0.48,0.819-0.54,1.62-0.271,2.379c0.271,0.76,0.87,1.479,0.79,2.349s-0.84,1.89-0.77,2.589
	c0.069,0.7,0.97,1.08,1.579,1.739s0.93,1.599,0.77,2.469c-0.16,0.87-0.8,1.669-0.7,2.429c0.101,0.76,0.94,1.48,1.689,1.14
	c0.75-0.34,1.41-1.739,2.47-2.259c1.06-0.52,2.519-0.16,3.488,0.49c0.97,0.65,1.449,1.59,1.399,2.469s-0.63,1.699-0.77,2.549
	c-0.141,0.85,0.16,1.729,1.34,2.129c1.18,0.4,3.238,0.32,4.408,0.591c1.17,0.27,1.449,0.89,1.17,1.949
	c-0.28,1.059-1.12,2.559-1.729,3.768c-0.61,1.21-0.99,2.129-1.31,3.209c-0.32,1.079-0.58,2.319,0.19,3.108
	c0.77,0.79,2.568,1.13,3.897,1.71c1.33,0.579,2.19,1.399,2.11,2.459s-1.101,2.359-1.979,3.179c-0.88,0.819-1.62,1.159-2.039,1.969
	c-0.42,0.81-0.52,2.09,0.149,3.009c0.671,0.92,2.109,1.479,3.119,2.009c1.01,0.53,1.59,1.03,1.569,1.79
	c-0.02,0.76-0.64,1.779-0.909,2.999c-0.271,1.219-0.19,2.639-0.18,3.748c0.01,1.109-0.051,1.909-0.39,2.709
	c-0.341,0.8-0.96,1.6-0.83,2.31c0.13,0.709,1.01,1.329,1.409,2.029c0.399,0.699,0.319,1.479,0.25,2.259
	c-0.07,0.779-0.13,1.56,0.33,2.169c0.459,0.609,1.439,1.05,1.77,1.93c0.329,0.88,0.01,2.199-0.08,3.258
	c-0.091,1.061,0.05,1.86,0.3,2.47s0.609,1.029,0.81,1.709s0.24,1.619-0.06,2.279c-0.3,0.659-0.939,1.04-1.229,1.799
	c-0.29,0.76-0.23,1.899-0.131,2.879c0.101,0.98,0.24,1.8,0.421,2.689c0.18,0.89,0.399,1.849-0.23,2.688s-2.108,1.56-2.969,2.459
	c-0.859,0.9-1.1,1.979-0.5,3.199s2.039,2.579,3.599,3.769s3.239,2.21,4.469,3.028c1.229,0.82,2.009,1.439,2.329,2.438
	c0.319,1,0.18,2.38-0.23,3.319s-1.09,1.439-1.239,2.318c-0.15,0.88,0.229,2.14,1.06,2.8c0.829,0.659,2.109,0.72,2.699-0.091
	c0.589-0.809,0.489-2.488,1.629-3.238s3.519-0.569,4.858-0.03c1.34,0.54,1.64,1.439,1.39,2.609s-1.05,2.608-2.04,3.868
	c-0.989,1.26-2.169,2.34-2.269,3.319c-0.101,0.979,0.88,1.859,1.459,2.929c0.58,1.069,0.761,2.329,1.14,3.458
	c0.381,1.13,0.96,2.13,1.38,3.079c0.42,0.95,0.68,1.85,0.49,2.609c-0.19,0.76-0.83,1.38-0.811,2.109
	c0.021,0.729,0.7,1.568,1.71,2.129c1.01,0.56,2.35,0.84,3.269,1.01c0.92,0.17,1.42,0.229,1.84,0.989s0.76,2.22,1.909,3.039
	s3.108,0.999,4.128,1.59c1.02,0.589,1.1,1.589,0.96,2.448c-0.141,0.86-0.5,1.58-0.38,2.419c0.12,0.84,0.72,1.8,1.399,2.47
	c0.68,0.669,1.439,1.049,2.299,1.589c0.859,0.539,1.819,1.239,2.299,2.039c0.48,0.799,0.48,1.699,0.07,2.578
	c-0.41,0.88-1.229,1.74-1.399,2.67s0.31,1.929,1.35,2.319c1.04,0.39,2.639,0.17,3.769,0.229c1.129,0.061,1.789,0.4,2.459,1.229
	c0.67,0.83,1.35,2.149,1.579,2.859c0.23,0.709,0.011,0.81-0.479,0.859c-0.489,0.05-1.249,0.05-8.276-0.011
	c-7.027-0.06-20.323-0.18-111.978,0.004c-91.654,0.185-261.668,0.672-347.115,0.915c-85.447,0.244-86.327,0.244-86.767,0.244
	s-0.44,0-0.44-0.744c0-0.743,0-2.23-0.02-18.527c-0.02-16.298-0.059-47.406-0.069-63.3s0.01-16.573-0.04-16.929
	c-0.05-0.354-0.17-0.385-0.81-0.395s-1.799,0-28.434,0c-26.635,0-78.744-0.01-105.526-0.016
	c-26.782-0.005-28.237-0.005-28.974-0.018c-0.738-0.013-0.758-0.037-0.76-0.274c-0.003-0.237,0.012-0.688,0.045-3.419
	s0.083-7.744,0.038-40.11c-0.045-32.365-0.185-92.082-0.255-122.205c-0.07-30.124-0.07-30.653,0.025-30.928s0.286-0.295,2.125-0.295
	s5.328,0.02,76.396,0.085c71.067,0.065,209.714,0.175,284.055,0.19c74.342,0.015,84.378-0.065,89.396,0.005
	c5.019,0.07,5.019,0.29,5.288,0.989s0.81,1.879,2.009,3.109c1.2,1.229,3.06,2.509,4.548,3.279
	C501.88,166.349,502.997,166.61,504.556,167.38z"/>
</svg>
