<?xml version="1.0" encoding="utf-8"?>
<!-- Generator: Adobe Illustrator 15.1.0, SVG Export Plug-In . SVG Version: 6.00 Build 0)  -->
<!DOCTYPE svg PUBLIC "-//W3C//DTD SVG 1.1//EN" "http://www.w3.org/Graphics/SVG/1.1/DTD/svg11.dtd">
<svg version="1.1" id="Layer_1" xmlns="http://www.w3.org/2000/svg" xmlns:xlink="http://www.w3.org/1999/xlink" x="0px" y="0px"
	 width="612px" height="792px" viewBox="0 0 612 792" enable-background="new 0 0 612 792" xml:space="preserve">
<path fill-rule="evenodd" clip-rule="evenodd" stroke="#000000" stroke-width="3" stroke-linecap="round" stroke-linejoin="round" stroke-miterlimit="22.9256" d="
	M310.458,626.071c-1.234,6.557-3.308,14.539-5.104,19.791c-1.796,5.253-3.316,7.773-5.285,10.259
	c-1.969,2.486-4.387,4.938-6.321,8.158c-1.935,3.222-3.386,7.213-5.009,11.449c-1.624,4.237-3.42,8.719-5.493,12.186
	c-2.073,3.466-4.422,5.917-6.978,7.913c-2.557,1.996-5.32,3.536-6.218,4.342c-0.898,0.805,0.069,0.875,22.316,0.805
	c22.247-0.07,65.773-0.28,89.16-0.35c23.388-0.07,26.634,0,28.258,0.034c1.624,0.035,1.624,0.035,1.589,1.366
	c-0.034,1.33-0.104,3.991-0.138,5.322c-0.035,1.33-0.035,1.33,15.891,0.56c15.925-0.771,47.774-2.311,63.7-3.116
	c15.925-0.806,15.925-0.875,15.925-1.4s0-1.506,0.415-2.977c0.414-1.471,1.243-3.431,2.693-5.847
	c1.451-2.416,3.524-5.287,5.147-7.493s2.799-3.746,4.042-4.797s2.557-1.61,3.661-3.151c1.106-1.54,2.004-4.062,2.73-6.827
	c0.725-2.767,1.277-5.777,1.726-9.034c0.45-3.256,0.795-6.757,1.313-9.523c0.519-2.766,1.209-4.796,2.694-6.687
	c1.485-1.892,3.766-3.643,6.46-4.763s5.804-1.61,7.186-2.836s1.036-3.186,0.863-5.777c-0.173-2.591-0.173-5.812,0.829-7.878
	c1.002-2.065,3.006-2.976,3.869-4.446s0.587-3.502,0.034-4.938s-1.381-2.275,0.104-3.746c1.486-1.471,5.286-3.571,7.945-3.256
	c2.66,0.314,4.18,3.046,4.457,5.252c0.276,2.206-0.691,3.886-0.242,5.251c0.449,1.366,2.314,2.417,4.146,1.156
	s3.627-4.832,4.629-7.528s1.209-4.517,1.348-8.123c0.138-3.606,0.207-8.998,0.173-12.604c-0.035-3.606-0.173-5.428,0.587-7.248
	s2.418-3.641,2.832-5.322c0.415-1.68-0.414-3.221-1.657-5.777c-1.244-2.556-2.901-6.127-4.11-9.979
	c-1.209-3.851-1.97-7.982-2.418-12.814c-0.449-4.832-0.588-10.364-1.313-14.986c-0.725-4.621-2.038-8.333-3.04-11.063
	c-1.001-2.731-1.692-4.482-2.072-7.563s-0.449-7.492-1.002-11.274c-0.553-3.781-1.589-6.933-2.953-10.363
	c-1.364-3.432-3.057-7.143-4.922-10.189c-1.866-3.046-3.903-5.427-5.994-6.95c-2.09-1.522-4.231-2.188-6.011-2.73
	c-1.778-0.543-3.195-0.963-4.905-0.735s-3.714,1.103-5.061,2.17c-1.347,1.068-2.038,2.329-3.99,3.222
	c-1.951,0.894-5.164,1.418-7.617,2.118c-2.452,0.7-4.146,1.576-5.371,2.469c-1.227,0.893-1.986,1.803-3.161,2.275
	c-1.174,0.473-2.764,0.507-3.102,1.554c-0.338,1.046,0.575,3.104,0.817,4.505c0.241,1.4-0.188,2.145-1.422,3.725
	c-1.234,1.58-3.272,3.995-4.965,6.516c-1.692,2.521-3.04,5.147-4.215,6.636c-1.174,1.487-2.176,1.838-3.325,2.827
	c-1.148,0.988-2.443,2.616-3.678,4.288c-1.235,1.672-2.41,3.388-3.118,4.263c-0.708,0.876-0.95,0.911-1.779,0.28
	c-0.829-0.63-2.245-1.926-3.679-2.538c-1.434-0.613-2.885-0.543-4.732-1.139c-1.849-0.595-4.094-1.855-5.752-3.605
	c-1.658-1.751-2.729-3.992-3.092-5.532c-0.362-1.541-0.018-2.381,0.518-2.959c0.536-0.577,1.262-0.893,1.556-1.855
	c0.293-0.963,0.155-2.573,0.189-4.709s0.242-4.797,0.933-7.318c0.69-2.521,1.865-4.901,3.247-6.478
	c1.382-1.575,2.972-2.346,4.871-2.748c1.9-0.402,4.111-0.438,5.338-0.245c1.226,0.192,1.468,0.612,1.605,0.297
	c0.139-0.315,0.173-1.365,0.76-2.468c0.587-1.104,1.728-2.259,2.833-2.872c1.105-0.612,2.176-0.683,2.677-1.033
	c0.501-0.35,0.432-0.98,0.311-3.606c-0.12-2.625-0.293-7.247,0.777-10.573c1.071-3.326,3.386-5.357,5.044-6.146
	c1.658-0.787,2.66-0.332,3.489-0.822s1.485-1.926,2.435-3.081c0.951-1.156,2.194-2.031,3.04-2.398
	c0.847-0.368,1.296-0.228,1.521-1.769s0.225-4.762,0.397-9.839s0.518-12.01,0.967-16.876c0.45-4.867,1.002-7.668,0.968-9.944
	c-0.034-2.275-0.656-4.026-1.105-6.232s-0.726-4.866-1.658-6.688s-2.521-2.801-4.387-4.271s-4.008-3.431-4.732-5.812
	c-0.726-2.381-0.035-5.182,0.828-6.828c0.863-1.646,1.9-2.136,3.386-1.436s3.42,2.591,5.182,2.906s3.351-0.945,3.178-2.486
	c-0.173-1.541-2.107-3.362-3.247-5.392c-1.141-2.031-1.485-4.272-2.66-6.268c-1.175-1.996-3.178-3.747-3.8-5.217
	c-0.622-1.47,0.139-2.661,0.139-3.781c0-1.12-0.761-2.171-2.419-3.642c-1.657-1.47-4.214-3.361-6.184-4.166
	c-1.969-0.806-3.351-0.525-5.699-1.541c-2.35-1.015-5.666-3.326-8.084-4.201c-2.418-0.875-3.938-0.315-5.977-1.401
	c-2.038-1.085-4.594-3.816-6.252-5.217s-2.419-1.471-4.836-1.541c-2.419-0.07-6.495-0.14-8.602-0.91
	c-2.107-0.771-2.246-2.241-2.972-4.272c-0.725-2.03-2.037-4.622-3.938-6.722c-1.899-2.101-4.387-3.712-7.22-3.992
	c-2.832-0.28-6.011,0.771-8.566,0.49c-2.557-0.28-4.491-1.891-7.773-4.096c-3.281-2.206-7.91-5.007-10.95-6.127
	c-3.04-1.121-4.491-0.561-5.285,0.28c-0.795,0.84-0.933,1.96-2.902,2.346c-1.969,0.385-5.769,0.035-7.461,0.28
	c-1.693,0.245-1.278,1.085-1.175,2.311c0.104,1.225-0.104,2.836-1.658,4.482s-4.456,3.326-6.563,5.427
	c-2.107,2.101-3.42,4.622-3.73,7.388c-0.312,2.766,0.38,5.777,2.625,7.738c2.245,1.96,6.046,2.871,8.602,3.291
	c2.557,0.42,3.869,0.35,4.11,1.19c0.242,0.84-0.586,2.591-2.072,3.537c-1.485,0.945-3.627,1.085-5.665,0.98
	c-2.038-0.105-3.973-0.456-6.046-0.42c-2.072,0.035-4.283,0.455-6.079,1.26c-1.797,0.805-3.178,1.996-4.94,3.046
	c-1.762,1.05-3.903,1.96-5.285,3.782c-1.382,1.82-2.004,4.551-2.073,7.178c-0.068,2.625,0.415,5.146,0.519,7.877
	s-0.173,5.672-0.483,9.208c-0.311,3.537-0.656,7.668-2.073,12.483c-1.416,4.813-3.903,10.312-4.939,11.222s-0.622-2.767,0.172-6.67
	c0.795-3.904,1.97-8.036,2.091-11.327c0.121-3.292-0.812-5.742-2.177-5.532c-1.364,0.21-3.16,3.081-4.301,6.618
	c-1.14,3.537-1.623,7.738-2.332,9.839c-0.708,2.101-1.641,2.1-1.762,0.14c-0.12-1.961,0.57-5.883,0.674-8.404
	c0.104-2.521-0.38-3.641,0.069-5.392s1.831-4.131,1.865-6.162c0.035-2.031-1.278-3.711-0.346-5.987
	c0.933-2.276,4.111-5.147,4.906-7.283c0.794-2.136-0.795-3.536-2.972-3.081c-2.176,0.455-4.939,2.766-7.323,5.252
	c-2.384,2.486-4.387,5.147-5.526,7.773c-1.141,2.626-1.417,5.217-2.039,7.633s-1.589,4.657-2.659,5.392
	c-1.071,0.735-2.246-0.035-3.213-0.735s-1.728-1.331-2.729-0.98s-2.245,1.681-3.108,3.082c-0.864,1.4-1.348,2.871-2.384,3.046
	c-1.036,0.175-2.625-0.945-4.111-0.525c-1.485,0.42-2.867,2.381-3.316,5.042c-0.448,2.661,0.035,6.022-0.069,8.368
	c-0.104,2.346-0.794,3.677-2.072,4.342s-3.144,0.665-4.905,1.296c-1.762,0.63-3.42,1.89-4.145,3.08
	c-0.727,1.191-0.519,2.312,0,3.712c0.518,1.4,1.347,3.081,1.554,7.073c0.208,3.991-0.207,10.294-1.002,15.563
	c-0.794,5.27-1.969,9.507-4.387,14.707c-2.418,5.199-6.08,11.361-9.016,14.827c-2.936,3.467-5.147,4.237-5.941,4.973
	c-0.795,0.735-0.172,1.435,0.863,3.291c1.036,1.855,2.487,4.867,3.627,8.053c1.14,3.187,1.969,6.548,1.624,10.189
	c-0.345,3.641-1.865,7.563-3.281,10.538c-1.417,2.977-2.729,5.007-3.558,6.793s-1.175,3.326-0.587,5.603
	c0.587,2.275,2.107,5.286,3.247,8.753s1.9,7.388,2.764,10.89c0.864,3.501,1.831,6.582,3.627,10.538
	c1.796,3.957,4.422,8.789,6.753,13.376c2.332,4.586,4.37,8.928,5.423,16.07c1.054,7.144,1.122,17.087,0.958,24.624
	C312.091,614.385,311.694,619.515,310.458,626.071L310.458,626.071z M122.884,103.425c-4.214,2.065-7.946,4.727-9.5,7.983
	c-1.554,3.256-0.933,7.107,2.349,7.948c3.282,0.841,9.225-1.331,12.956-3.852c3.731-2.521,5.251-5.393,11.814-8.823
	c6.563-3.431,18.17-7.423,24.975-11.659c6.805-4.237,8.809-8.718,7.911-10.014s-4.698,0.595-8.463,1.785s-7.497,1.681-10.985,2.976
	s-6.736,3.396-9.604,4.972c-2.867,1.576-5.354,2.627-8.947,3.887C131.796,99.888,127.098,101.359,122.884,103.425L122.884,103.425z
	 M359.902,283.895c2.436-0.928,5.752-1.279,9.655-0.858c3.903,0.42,8.394,1.611,12.851,3.257c4.456,1.646,8.878,3.746,12.437,6.442
	c3.558,2.696,6.252,5.987,8.566,8.438c2.315,2.451,4.249,4.062,5.942,4.797c1.692,0.735,3.144,0.595,3.488-0.666
	c0.346-1.26-0.414-3.641-0.518-5.462c-0.104-1.821,0.449-3.081,0.967-4.552c0.519-1.471,1.002-3.151,1.762-4.937
	c0.76-1.786,1.797-3.677,3.454-3.642c1.659,0.035,3.938,1.996,5.527,3.676s2.487,3.081,4.111,3.186
	c1.624,0.105,3.973-1.085,4.56-0.875c0.588,0.21-0.587,1.821-0.207,2.871s2.314,1.541,3.523,0.84s1.692-2.591,3.109-3.431
	c1.416-0.841,3.766-0.63,7.116-0.456s7.703,0.315,10.121,0.945c2.419,0.63,2.902,1.75,4.353,1.961c1.451,0.21,3.87-0.49,5.424-0.875
	c1.555-0.385,2.245-0.455,3.489,0.315c1.243,0.77,3.04,2.381,4.732,3.116c1.692,0.735,3.282,0.596,4.837,0.175
	s3.074-1.121,4.56-1.015c1.485,0.105,2.937,1.016,4.768,1.4c1.83,0.385,4.041,0.245,5.596-0.771
	c1.555-1.015,2.453-2.906,2.487-4.586c0.035-1.681-0.794-3.151-1.623-3.852c-0.83-0.701-1.659-0.63-3.56-2.241
	c-1.899-1.611-4.87-4.902-7.288-6.478s-4.283-1.436-4.802-0.63c-0.518,0.805,0.311,2.276,0.346,3.816
	c0.034,1.541-0.726,3.151-2.004,4.202s-3.074,1.541-4.49,1.471s-2.453-0.7-3.421-0.735c-0.967-0.035-1.865,0.525-2.798,0.49
	c-0.933-0.035-1.899-0.665-3.316-1.155c-1.416-0.49-3.281-0.84-4.422-1.786c-1.14-0.945-1.554-2.486-0.967-3.781
	c0.587-1.296,2.177-2.346,2.418-3.362c0.242-1.015-0.863-1.996-2.349-3.011c-1.485-1.016-3.351-2.066-5.32-2.486
	c-1.969-0.42-4.041-0.21-6.218-0.315s-4.456-0.525-4.837-1.47c-0.379-0.945,1.141-2.417,3.662-2.731
	c2.522-0.315,6.045,0.525,7.704-0.28c1.658-0.805,1.45-3.256,0.897-5.497s-1.451-4.272-2.66-6.583
	c-1.209-2.311-2.729-4.902-2.659-7.072c0.069-2.171,1.728-3.921,2.66-5.602s1.14-3.291,0.345-4.062
	c-0.794-0.77-2.59-0.7-4.283-0.175c-1.692,0.525-3.281,1.506-5.078,1.891c-1.796,0.386-3.8,0.175-5.526,0.28
	c-1.728,0.105-3.179,0.525-4.215,1.12s-1.658,1.366-2.384,2.521c-0.726,1.155-1.555,2.696-3.454,3.606
	c-1.9,0.91-4.871,1.19-6.114,0.49c-1.244-0.701-0.761-2.381-1.244-3.431c-0.483-1.051-1.935-1.471-3.8-1.226
	s-4.146,1.156-5.665,1.821c-1.521,0.665-2.28,1.085-3.282,0.771c-1.002-0.315-2.245-1.366-3.488-2.031
	c-1.244-0.666-2.488-0.945-4.526-1.085s-4.87-0.14-6.01-0.91c-1.141-0.771-0.588-2.311-0.657-4.447s-0.76-4.867-0.794-7.704
	c-0.035-2.836,0.587-5.777,1.83-8.018c1.244-2.241,3.109-3.782,4.008-4.867c0.898-1.086,0.829-1.716-0.173-1.751
	s-2.937,0.525-6.391,0.84c-3.454,0.315-8.429,0.385-12.264,1.295c-3.834,0.91-6.528,2.661-9.12,4.062
	c-2.591,1.4-5.077,2.451-8.636,2.976c-3.558,0.525-8.187,0.525-12.125,0.141c-3.938-0.385-7.186-1.156-9.949-1.051
	s-5.043,1.085-7.393,1.786c-2.349,0.7-4.767,1.12-6.908,0.806c-2.142-0.315-4.008-1.366-5.355-1.541
	c-1.347-0.175-2.176,0.525-3.558,1.646s-3.316,2.661-5.32,4.342c-2.003,1.681-4.076,3.501-6.218,4.517
	c-2.142,1.016-4.353,1.226-5.873,1.681c-1.52,0.455-2.349,1.155-3.626,2.45c-1.279,1.295-3.006,3.187-4.146,3.327
	c-1.14,0.14-1.693-1.471-2.28-3.677c-0.587-2.206-1.209-5.007-2.556-6.058c-1.348-1.05-3.42-0.35-4.284,1.015
	c-0.864,1.366-0.518,3.397-0.138,5.217c0.38,1.821,0.794,3.431,0.104,3.956c-0.691,0.525-2.487-0.034-3.834,0.105
	c-1.348,0.14-2.246,0.98-3.178,1.891c-0.933,0.91-1.899,1.89-3.247,1.89c-1.348,0-3.075-0.98-4.111-2.206
	c-1.037-1.226-1.382-2.696-1.555-4.237c-0.172-1.541-0.172-3.151-1.278-3.536c-1.105-0.385-3.316,0.455-6.184,1.541
	c-2.867,1.085-6.391,2.416-9.5,3.082c-3.109,0.665-5.804,0.665-7.531-0.105c-1.727-0.771-2.487-2.311-2.832-4.027
	c-0.346-1.715-0.277-3.606-0.657-4.796c-0.38-1.19-1.208-1.681-2.314-1.891s-2.487-0.14-2.937-0.91
	c-0.449-0.771,0.034-2.381-0.276-3.292c-0.311-0.91-1.417-1.12-2.314-1.82c-0.899-0.7-1.589-1.891-2.384-3.187
	c-0.794-1.295-1.693-2.696-2.176-4.307c-0.484-1.611-0.553-3.431-1.209-4.727c-0.657-1.295-1.9-2.066-3.144-2.906
	s-2.487-1.751-3.627-2.311s-2.176-0.77-3.557-1.68c-1.382-0.911-3.109-2.521-4.836-3.641c-1.727-1.121-3.455-1.751-5.769-1.96
	c-2.314-0.21-5.216,0-7.841,0.035c-2.625,0.035-4.975-0.105-6.598,0.175c-1.624,0.28-2.522,0.98-2.004,0.21
	c0.519-0.771,2.453-3.011,2.937-4.342c0.483-1.331-0.484-1.75-1.935-1.436c-1.451,0.315-3.386,1.366-5.873,3.152
	c-2.487,1.786-5.527,4.306-7.462,5.707c-1.935,1.4-2.764,1.681-3.593,3.046c-0.829,1.365-1.658,3.816-2.452,5.287
	c-0.795,1.47-1.555,1.96-1.832,0.595c-0.276-1.366-0.068-4.587,0.104-7.353s0.311-5.078,1.865-7.423
	c1.555-2.346,4.526-4.728,5.7-6.688c1.175-1.961,0.553-3.502,1.175-4.832c0.622-1.331,2.487-2.451,3.385-3.536
	c0.898-1.085,0.829-2.136,1.831-2.696c1.001-0.56,3.074-0.63,3.834-1.786c0.76-1.155,0.208-3.396,0.794-4.727
	c0.587-1.331,2.315-1.751,4.077-2.976c1.762-1.226,3.558-3.256,5.838-4.902s5.043-2.906,6.322-3.957s1.071-1.891,0.898-2.871
	c-0.172-0.98-0.311-2.101,1.831-2.836c2.142-0.735,6.563-1.085,9.327-1.436c2.763-0.35,3.869-0.7,3.834-2.101
	c-0.035-1.4-1.209-3.852-2.591-5.077c-1.382-1.226-2.971-1.226-5.527-1.19c-2.557,0.035-6.08,0.105-9.742,0.455
	c-3.662,0.35-7.461,0.98-10.087,1.646c-2.625,0.665-4.077,1.365-5.631,2.136c-1.555,0.771-3.212,1.61-4.906,2.066
	c-1.692,0.455-3.419,0.525-4.836,1.05s-2.521,1.505-3.972,3.256c-1.451,1.75-3.247,4.271-4.906,6.337
	c-1.658,2.065-3.178,3.676-5.216,4.622c-2.038,0.945-4.594,1.225-6.771,2.345c-2.176,1.121-3.973,3.081-5.32,4.692
	s-2.246,2.872-3.455,3.362s-2.729,0.21-3.799,1.121c-1.071,0.91-1.693,3.011-2.315,4.832s-1.244,3.361-3.351,4.236
	s-5.7,4.712-8.222,5.272s-3.973,1.47-5.493,2.906c-1.52,1.436-3.109,3.396-5.493,5.252c-2.383,1.856-5.562,3.606-7.98,4.622
	c-2.418,1.016-4.076,1.296-7.219,1.4c-3.144,0.105-7.773,0.035-11.676,0.14c-3.903,0.104-7.082,0.384-10.259,2.17
	c-3.178,1.786-6.356,5.077-9.915,7.353c-3.558,2.276-7.497,6.559-11.054,7.469c-3.558,0.911-6.736,1.471-10.053,2.416
	c-3.316,0.946-6.771,5.299-8.67,6.664c-1.9,1.365-2.246,2.766-1.175,3.921c1.071,1.156,3.558,2.066,5.596,2.661
	s3.627,0.876,5.182,1.856c1.555,0.98,3.074,2.661,4.214,5.287s1.9,6.198,2.384,8.438c0.483,2.241,0.691,3.151,0.76,3.922
	c0.068,0.77,0,1.401,1.934,2.066s5.873,0.761,14.336,3.212c8.463,2.451,21.452,4.235,31.47,7.631
	c10.018,3.396,17.065,5.987,21.694,8.473c4.629,2.486,6.84,4.867,8.602,6.723s3.074,3.187,5.354,3.676
	c2.279,0.49,5.527,0.141,7.738,1.051c2.211,0.91,3.386,3.082,5.009,3.711c1.624,0.629,3.696-0.281,5.423-1.226
	c1.728-0.945,3.11-1.924,4.042-1.68c0.932,0.244,1.417,1.715,3.109,2.135s4.594-0.21,6.425,0.385s2.59,2.416,4.11,3.046
	c1.521,0.629,3.801,0.07,6.046,0.525c0.155,0.031,10.208-7.225,7.496,0.109c-0.415,1.121-1.865,2.241-2.349,3.992
	c-0.484,1.75,0,4.131,1.209,5.322c1.208,1.19,3.143,1.19,4.525,0.561c1.382-0.631,2.21-1.891,2.971-2.066s1.451,0.735,1.658,1.821
	c0.207,1.085-0.069,2.345,0.794,2.905c0.864,0.561,2.867,0.421,4.871,0.981c2.003,0.56,4.007,1.821,5.147,2.976
	c1.14,1.155,1.417,2.206,0.83,2.906c-0.587,0.7-2.039,1.05-2.35,1.68c-0.311,0.63,0.519,1.541,1.313,2.977s1.555,3.396,1.071,4.307
	c-0.484,0.91-2.211,0.77-2.902,1.401c-0.691,0.63-0.346,2.03,0.069,3.466c0.414,1.435,0.898,2.906,0.933,4.167
	c0.035,1.26-0.38,2.311-1.348,2.836c-0.967,0.525-2.487,0.525-2.97,1.19c-0.484,0.665,0.069,1.995,0.311,3.361
	c0.242,1.365,0.173,2.766-0.104,3.852c-0.276,1.085-0.76,1.856-0.587,2.625c0.173,0.771,1.001,1.541,2.833,1.471
	c1.831-0.07,4.664-0.98,6.875-1.716c2.21-0.735,3.8-1.295,4.733-0.806c0.933,0.49,1.209,2.031,0.847,3.432
	c-0.362,1.4-1.364,2.662-2.4,3.887c-1.036,1.226-2.107,2.416-2.833,3.659c-0.725,1.243-1.105,2.538-1.123,3.624
	c-0.017,1.085,0.328,1.96,1.606,3.991s3.489,5.217,5.165,7.038c1.675,1.82,2.815,2.276,3.506,1.908s0.933-1.559,0.915-2.714
	c-0.017-1.155-0.293-2.276,0.155-3.694c0.449-1.417,1.624-3.133,3.317-5.356s3.903-4.955,5.82-7.598
	c1.917-2.644,3.541-5.2,5.355-7.773c1.813-2.574,3.817-5.165,4.767-7.265c0.95-2.101,0.846-3.711,1.192-5.165
	c0.345-1.453,1.14-2.749,1.899-4.377c0.76-1.627,1.486-3.588,2.885-5.689c1.399-2.101,3.471-4.342,5.424-6.005
	c1.951-1.664,3.782-2.749,4.854-3.869c1.071-1.121,1.381-2.276,1.33-4.044c-0.052-1.768-0.467-4.149-0.156-6.11
	c0.311-1.96,1.347-3.501,2.401-5.129c1.053-1.628,2.125-3.344,3.144-3.904c1.019-0.561,1.986,0.035,2.003,1.067
	s-0.916,2.504-1.727,3.764c-0.812,1.261-1.503,2.311-1.382,4.114c0.121,1.803,1.054,4.359,1.244,6.74
	c0.19,2.38-0.363,4.586-0.156,5.532c0.208,0.945,1.175,0.63,1.986,0.157c0.812-0.472,1.468-1.103,2.591-1.627
	c1.123-0.526,2.712-0.946,3.973-1.804c1.261-0.858,2.193-2.153,2.833-3.869c0.639-1.716,0.984-3.852,1.105-5.62
	c0.121-1.769,0.017-3.169,0.829-3.712c0.812-0.542,2.539-0.228,3.575,0.403c1.037,0.63,1.382,1.576,2.125,1.909
	c0.743,0.333,1.883,0.052,3.265-1.19c1.381-1.243,3.005-3.449,4.421-3.729c1.417-0.28,2.625,1.366,2.453,3.134
	c-0.172,1.768-1.727,3.659-2.608,4.99c-0.881,1.33-1.088,2.101-1.831,2.608s-2.021,0.752-2.97,1.523
	c-0.95,0.77-1.572,2.065-2.453,2.994c-0.88,0.927-2.021,1.488-2.798,2.346c-0.777,0.857-1.191,2.013-0.483,3.466
	c0.708,1.453,2.539,3.204,3.938,4.29c1.399,1.085,2.366,1.505,2.815,0.91c0.449-0.595,0.38-2.206,0.794-3.222
	c0.415-1.015,1.313-1.435,1.866-2.328c0.552-0.893,0.76-2.258,1.244-2.924c0.483-0.665,1.243-0.63,2.055-1.225
	s1.676-1.821,3.109-2.644c1.434-0.823,3.438-1.243,4.336-2.066c0.898-0.823,0.69-2.048,1.52-2.748
	c0.829-0.701,2.694-0.875,3.593-1.698s0.829-2.293,1.071-3.852c0.242-1.558,0.794-3.204,1.78-4.551
	c0.983-1.349,2.4-2.399,4.214-3.309c1.813-0.911,4.024-1.681,6.374-2.101c2.349-0.42,4.836-0.49,6.995,0.228
	c2.159,0.717,3.989,2.223,5.302,3.239c1.313,1.015,2.107,1.541,2.522,1.155c0.414-0.385,0.449-1.68,0.69-2.625
	c0.242-0.946,0.691-1.541,1.745-2.031c1.054-0.491,2.712-0.875,4.438-0.823c1.728,0.052,3.523,0.543,4.871,0.998
	s2.246,0.875,3.092,0.823c0.847-0.053,1.641-0.578,2.263-1.383c0.622-0.805,1.071-1.891,1.728-3.256
	c0.656-1.366,1.52-3.011,2.729-4.587C355.914,286.328,357.468,284.822,359.902,283.895L359.902,283.895z M358.779,311.957
	c-1.001,0.35-1.83,1.821-3.144,4.026c-1.313,2.206-3.108,5.147-4.283,7.703c-1.175,2.556-1.728,4.727-1.036,6.303
	c0.69,1.575,2.625,2.556,5.112,2.661c2.487,0.104,5.527-0.666,6.84-2.872s0.898-5.847,0.587-8.858
	c-0.311-3.011-0.518-5.392-1.209-6.967C360.956,312.377,359.781,311.606,358.779,311.957L358.779,311.957z M417.264,298.739
	c-0.621,1.453-0.621,3.204,0.328,5.111c0.95,1.908,2.85,3.974,4.215,5.603c1.364,1.628,2.193,2.818,3.195,4.167
	s2.176,2.854,4.336,3.886c2.158,1.033,5.303,1.593,7.686,0.806c2.384-0.788,4.008-2.923,4.491-4.639s-0.173-3.011-1.883-3.606
	s-4.474-0.49-7.203-0.525c-2.729-0.035-5.424-0.21-7.409-0.928c-1.986-0.718-3.265-1.978-2.92-3.957
	c0.346-1.979,2.314-4.674,2.298-6.407c-0.018-1.733-2.021-2.503-3.645-2.311C419.129,296.131,417.886,297.286,417.264,298.739
	L417.264,298.739z M323.354,372.932c-0.466,1.838-0.121,4.429,0.915,6.407c1.037,1.979,2.764,3.344,4.336,3.589
	c1.571,0.245,2.988-0.63,3.8-2.749c0.813-2.119,1.019-5.48,0.328-7.615c-0.69-2.136-2.28-3.046-3.489-3.449
	c-1.209-0.402-2.038-0.297-3.092,0.297C325.099,370.008,323.82,371.093,323.354,372.932L323.354,372.932z M319.952,381.58
	c-1.278,0.088-2.765,0.753-3.489,2.364c-0.726,1.61-0.69,4.166,0.19,5.339c0.88,1.173,2.607,0.963,3.834,0.263
	c1.227-0.7,1.952-1.891,2.349-3.151c0.397-1.261,0.467-2.591-0.034-3.501C322.301,381.982,321.23,381.492,319.952,381.58z"/>
</svg>
