<?xml version="1.0" encoding="utf-8"?>
<!-- Generator: Adobe Illustrator 15.1.0, SVG Export Plug-In . SVG Version: 6.00 Build 0)  -->
<!DOCTYPE svg PUBLIC "-//W3C//DTD SVG 1.1//EN" "http://www.w3.org/Graphics/SVG/1.1/DTD/svg11.dtd">
<svg version="1.1" id="Layer_1" xmlns="http://www.w3.org/2000/svg" xmlns:xlink="http://www.w3.org/1999/xlink" x="0px" y="0px"
	 width="612px" height="792px" viewBox="0 0 612 792" enable-background="new 0 0 612 792" xml:space="preserve">
<path fill-rule="evenodd" clip-rule="evenodd" stroke="#000000" stroke-width="2.9999" stroke-linecap="round" stroke-linejoin="round" stroke-miterlimit="22.9256" d="
	M353.934,686.383c2.615,2.938,7.172,9.054,10.529,14.75s5.517,10.973,6.655,16.608c1.14,5.636,1.259,11.632,0.659,15.469
	c-0.6,3.838-1.918,5.517-1.798,6.476c0.119,0.96,1.678,1.199,3.417,1.679c1.739,0.48,3.657,1.2,4.797,2.398
	c1.139,1.199,1.499,2.878,0.899,4.077s-2.159,1.919-2.938,3.118s-0.779,2.878-0.12,3.717c0.66,0.839,1.979,0.839,26.082,0.42
	c24.104-0.42,70.99-1.259,94.434-1.679s23.443-0.42,23.474-0.794c0.03-0.375,0.09-1.124,0.105-1.799
	c0.015-0.675-0.016-1.274,0.584-0.93c0.6,0.346,1.829,1.634,2.578,2.504c0.75,0.869,1.02,1.318,1.454,1.288
	c0.435-0.029,1.034-0.539,1.664-0.164c0.63,0.374,1.289,1.634,1.738,2.338c0.45,0.705,0.69,0.854,0.915,0.314
	c0.225-0.539,0.435-1.769,0.614-3.072c0.18-1.305,0.33-2.683,0.6-3.553c0.271-0.869,0.659-1.229,1.559-2.113
	s2.309-2.293,3.133-3.493c0.825-1.198,1.064-2.188,0.734-2.997c-0.329-0.81-1.229-1.439-1.349-2.129s0.54-1.438,0.645-2.158
	c0.105-0.72-0.345-1.409-0.765-2.249c-0.419-0.839-0.81-1.828-1.334-2.548s-1.184-1.169-2.113-1.289s-2.128,0.09-2.923,0.314
	c-0.794,0.226-1.185,0.465-1.529,0.105c-0.345-0.36-0.645-1.319-1.169-1.438c-0.524-0.12-1.274,0.599-1.604,0.629
	c-0.329,0.03-0.239-0.63-0.164-1.259c0.074-0.63,0.135-1.229-0.271-1.664c-0.404-0.435-1.273-0.705-1.124-1.844
	c0.15-1.14,1.319-3.148,1.934-4.572s0.675-2.264,0.494-3.013c-0.18-0.75-0.6-1.409-0.51-2.219c0.091-0.81,0.689-1.769,0.061-2.428
	c-0.63-0.66-2.488-1.02-2.759-1.56c-0.27-0.539,1.05-1.259,1.589-2.248c0.54-0.989,0.301-2.249,0.181-3.268
	c-0.12-1.02-0.12-1.799,0.719-1.919c0.84-0.12,2.519,0.42,3.388,0.03c0.87-0.39,0.93-1.709,1.319-2.758
	c0.39-1.05,1.109-1.829,2.698-3.568c1.589-1.738,4.047-4.437,4.887-6.625s0.06-3.867,0.119-4.946c0.061-1.079,0.96-1.559,1.29-2.339
	c0.329-0.779,0.09-1.858-0.03-3.537s-0.12-3.957,0.06-5.666c0.181-1.709,0.54-2.848,0.3-4.017c-0.239-1.17-1.079-2.368-0.689-3.567
	s2.009-2.398,2.969-3.478c0.959-1.08,1.259-2.039,1.438-3.208c0.18-1.17,0.24-2.549,1.619-3.748s4.077-2.218,6.086-3.027
	c2.008-0.81,3.327-1.409,4.227-1.35c0.899,0.061,1.379,0.779,2.039,0.3c0.659-0.479,1.498-2.158,2.099-3.717
	c0.599-1.56,0.959-2.998,1.259-3.538c0.3-0.539,0.54-0.18,1.379,0.03s2.278,0.27,2.632-0.33c0.354-0.599-0.377-1.858-1.127-3.178
	c-0.749-1.318-1.517-2.698-2.65-3.388c-1.133-0.689-2.632-0.689-3.472-1.259c-0.839-0.569-1.019-1.709-1.648-2.159
	c-0.63-0.449-1.709-0.209-2.639-0.719c-0.929-0.51-1.709-1.769-2.428-2.488c-0.72-0.72-1.379-0.899-1.679-1.799
	s-0.24-2.518-0.15-3.598c0.09-1.079,0.21-1.618-0.27-2.428s-1.559-1.889-2.129-4.228c-0.569-2.338-0.629-5.936-1.318-7.854
	c-0.689-1.918-2.008-2.158-3.327-2.397c-1.319-0.24-2.639-0.48-3.059-2.159c-0.419-1.678,0.061-4.796-0.239-6.355
	c-0.3-1.559-1.379-1.559-1.919-3.417c-0.539-1.859-0.539-5.576-0.899-7.556c-0.359-1.979-1.079-2.218-7.255-9.173
	s-17.808-20.625-61.636-71.829c-43.829-51.204-119.855-139.942-158.124-184.476c-38.268-44.533-38.778-44.863-38.958-45.178
	c-0.18-0.315-0.03-0.615,0.195-2.023c0.225-1.409,0.524-3.928,4.946-39.107c4.422-35.181,12.966-103.022,17.329-136.733
	c4.362-33.711,4.542-33.292,4.137-33.172c-0.404,0.12-1.394-0.06-7.824-1.019c-6.431-0.959-18.303-2.698-54.037-8.032
	c-35.735-5.333-95.333-14.262-124.989-18.705c-29.657-4.443-29.372-4.4-29.207-4.073c0.165,0.327,0.21,0.939,0.097,2.234
	c-0.112,1.295-0.382,3.274-0.967,4.938c-0.585,1.664-1.484,3.013-2.233,3.897c-0.75,0.884-1.349,1.304-1.199,2.173
	c0.15,0.87,1.049,2.188,1.949,3.643c0.899,1.454,1.798,3.043,2.488,5.666c0.689,2.624,1.169,6.281,0.839,10.538
	s-1.469,9.113-2.548,12.651c-1.08,3.537-2.098,5.755-2.488,7.434c-0.39,1.679-0.15,2.818-0.779,3.688
	c-0.63,0.87-2.128,1.469-2.848,2.429c-0.72,0.959-0.66,2.278-0.39,4.137c0.27,1.859,0.75,4.257,0.6,6.355
	c-0.15,2.099-0.93,3.897-1.379,5.307c-0.45,1.409-0.57,2.428-0.27,3.417s1.02,1.949,1.02,2.908c0,0.959-0.72,1.919-1.559,2.159
	c-0.84,0.24-1.798-0.24-2.578,0.03c-0.779,0.27-1.379,1.29-2.728,2.608s-3.448,2.938-5.006,4.497
	c-1.559,1.559-2.579,3.058-3.888,5.306c-1.31,2.249-2.91,5.247-3.709,7.135s-0.8,2.668-0.6,4.018
	c0.201,1.349,0.602,3.267,0.602,5.096c0,1.828-0.401,3.567-0.602,4.737c-0.2,1.169-0.2,1.769,0.18,2.938
	c0.38,1.169,1.141,2.908,2.301,4.316c1.159,1.409,2.718,2.488,3.408,3.658c0.69,1.169,0.51,2.428,1.319,3.238
	c0.81,0.809,2.608,1.169,3.688,1.829c1.079,0.659,1.439,1.619,1.139,2.578s-1.259,1.918-1.259,2.758s0.959,1.559,2.128,2.638
	c1.169,1.08,2.548,2.518,2.998,3.627s-0.03,1.889,0.33,2.428c0.359,0.54,1.559,0.84,1.949,1.649c0.39,0.809-0.03,2.128,0.449,3.087
	c0.48,0.959,1.859,1.559,2.728,3.718c0.87,2.158,1.229,5.876,1.349,8.784c0.12,2.908,0,5.006-0.689,7.435
	c-0.689,2.428-1.948,5.186-3.058,7.524c-1.109,2.338-2.068,4.257-2.248,6.176c-0.18,1.918,0.419,3.837,1.139,8.004
	c0.72,4.167,1.559,10.583,1.799,14.24c0.24,3.658-0.12,4.557-0.929,5.247c-0.81,0.689-2.069,1.169-2.668,1.798
	c-0.6,0.63-0.54,1.409-0.359,2.458c0.18,1.049,0.479,2.368,1.139,3.268c0.659,0.899,1.679,1.379,2.128,1.859
	c0.45,0.479,0.33,0.959,0.87,1.889c0.54,0.929,1.738,2.308,2.578,2.968s1.319,0.6,1.979,1.679c0.659,1.079,1.499,3.298,2.338,4.587
	c0.839,1.289,1.679,1.648,2.398,2.518c0.72,0.87,1.319,2.249,1.829,3.747c0.509,1.499,0.929,3.118,1.438,4.467
	c0.51,1.349,1.109,2.428,2.069,3.777s2.278,2.968,3.777,4.497c1.499,1.529,3.178,2.968,4.497,3.987
	c1.319,1.019,2.278,1.619,2.938,1.918s1.019,0.3,1.334,0.765c0.315,0.464,0.584,1.394,0.645,2.458
	c0.06,1.064-0.09,2.263-0.225,3.358c-0.135,1.094-0.255,2.083-0.12,3.103s0.524,2.068,1.229,3.283
	c0.704,1.214,1.724,2.593,2.383,3.418c0.659,0.824,0.959,1.094,1.124,1.724c0.165,0.629,0.195,1.619,0.09,2.473
	s-0.345,1.574-0.959,2.173s-1.604,1.079-2.578,1.664c-0.975,0.584-1.934,1.274-2.443,2.114c-0.51,0.84-0.57,1.829-0.33,2.503
	c0.24,0.675,0.779,1.034,1.679,1.064c0.899,0.03,2.158-0.27,3.732-0.24c1.574,0.03,3.462,0.389,4.542,1.019
	c1.079,0.629,1.349,1.529,1.319,2.428c-0.03,0.899-0.36,1.799-0.54,2.653c-0.18,0.854-0.21,1.664,0.734,2.518
	s2.863,1.754,4.107,2.398c1.244,0.645,1.813,1.035,2.713,1.949c0.899,0.914,2.128,2.353,3.163,3.133
	c1.034,0.779,1.874,0.899,2.623,0.479c0.75-0.42,1.41-1.379,1.739-2.353c0.33-0.975,0.33-1.964,0.719-2.923s1.169-1.889,1.154-2.968
	c-0.015-1.08-0.825-2.309-0.884-3.478c-0.06-1.169,0.629-2.278,1.244-3.283c0.615-1.004,1.155-1.904,1.559-2.533
	c0.405-0.63,0.675-0.989,1.559-1.364c0.884-0.375,2.383-0.765,3.522-0.944s1.918-0.149,2.342,0.117
	c0.423,0.266,0.491,0.768,0.738,1.476c0.248,0.708,0.675,1.623,1.233,2.144c0.558,0.521,1.248,0.648,2.173,0.244
	c0.925-0.405,2.087-1.342,2.829-1.664c0.742-0.322,1.064-0.03,1.637,0.551c0.574,0.581,1.397,1.45,1.195,2.447
	c-0.203,0.997-1.432,2.121-2.718,2.612c-1.286,0.491-2.63,0.348-3.327,0.633s-0.747,0.997-1.087,1.443
	c-0.34,0.446-0.969,0.625-1.689,0.476c-0.719-0.15-1.528-0.63-2.113-0.63c-0.584,0-0.944,0.479-1.454,1.049
	c-0.51,0.569-1.169,1.229-1.889,1.679c-0.719,0.45-1.499,0.689-1.784,0.99c-0.285,0.299-0.075,0.659,0.75,1.244
	c0.824,0.584,2.263,1.394,3.342,1.814c1.08,0.42,1.799,0.449,2.204,0.839c0.405,0.39,0.495,1.139,0.18,1.941
	c-0.314,0.802-1.034,1.656-1.648,2.218c-0.615,0.563-1.125,0.832-1.169,1.057c-0.045,0.225,0.375,0.405,0.6,0.75
	s0.255,0.854,0.614,1.469c0.36,0.614,1.049,1.333,1.634,1.604c0.584,0.27,1.064,0.09,1.244,0.375c0.18,0.285,0.06,1.034,0.21,1.813
	c0.149,0.779,0.569,1.589,0.989,2.023c0.419,0.435,0.839,0.495,1.049,0.779c0.21,0.285,0.21,0.795,0.45,1.379
	s0.719,1.244,1.349,1.619c0.629,0.375,1.409,0.464,1.934,0.75c0.525,0.284,0.794,0.764,1.02,1.184
	c0.225,0.419,0.405,0.779,0.727,1.379c0.322,0.6,0.787,1.439,0.907,2.481c0.12,1.042-0.105,2.286-0.165,3.111
	c-0.06,0.824,0.045,1.229,0.419,1.881c0.375,0.652,1.02,1.551,1.889,2.226c0.869,0.674,1.963,1.124,2.541,1.484
	s0.637,0.629,0.817,1.274c0.18,0.645,0.48,1.664,0.442,2.856c-0.037,1.191-0.412,2.556-0.689,3.283
	c-0.277,0.727-0.457,0.817-1.551,0.577c-1.094-0.24-3.103-0.809-4.467-1.424c-1.364-0.614-2.084-1.274-2.684-2.383
	c-0.599-1.109-1.079-2.668-1.679-3.582c-0.6-0.915-1.319-1.185-2.458-1.649c-1.14-0.465-2.698-1.124-3.583-1.919
	c-0.885-0.794-1.094-1.724-1.739-2.863c-0.645-1.139-1.724-2.488-2.668-3.417c-0.944-0.93-1.754-1.439-2.039-2.009
	c-0.285-0.569-0.045-1.199,0.12-2.113c0.165-0.915,0.254-2.114,0.3-3.193c0.044-1.079,0.044-2.039,0.434-2.713
	c0.39-0.675,1.169-1.065,1.484-1.852s0.165-1.971-0.179-2.9c-0.345-0.929-0.885-1.604-1.821-1.986
	c-0.937-0.382-2.271-0.472-3.447-0.262c-1.177,0.209-2.196,0.719-2.916,1.656c-0.719,0.937-1.139,2.301-1.296,3.928
	c-0.158,1.626-0.053,3.515-0.023,4.519c0.03,1.004-0.015,1.124-0.09,1.537c-0.075,0.412-0.18,1.116-0.66,2.016
	s-1.334,1.994-1.701,3.096c-0.367,1.102-0.248,2.211,0.127,2.946c0.375,0.734,1.004,1.094,1.574,1.454
	c0.569,0.359,1.079,0.72,1.529,1.484c0.45,0.765,0.839,1.934,0.93,3.613c0.089,1.679-0.12,3.867-0.525,6.206
	c-0.405,2.338-1.004,4.827-1.319,6.686c-0.315,1.858-0.345,3.087,0.509,4.872c0.855,1.784,2.594,4.122,3.717,5.996
	c1.125,1.874,1.634,3.283,2.324,4.811c0.689,1.529,1.559,3.179,2.758,4.497c1.199,1.319,2.728,2.309,4.152,2.908
	s2.743,0.81,4.137,0.749c1.394-0.06,2.863-0.39,4.062-0.329c1.199,0.06,2.128,0.51,2.923,0.779s1.454,0.359,1.934,0.704
	c0.479,0.345,0.779,0.944,1.259,1.499s1.139,1.064,1.709,1.454c0.569,0.39,1.049,0.659,1.214,1.26
	c0.165,0.599,0.014,1.528-0.15,2.488c-0.165,0.959-0.344,1.948-0.284,2.803s0.36,1.574,0.18,2.309
	c-0.18,0.734-0.84,1.483-1.049,2.384c-0.21,0.898,0.03,1.948,0.03,2.817c0,0.87-0.24,1.559-0.81,2.474
	c-0.569,0.914-1.469,2.054-2.323,2.803c-0.854,0.75-1.664,1.109-2.893,1.214c-1.229,0.105-2.878-0.045-4.047-0.135
	c-1.169-0.09-1.858-0.12-2.218,0.045c-0.359,0.165-0.39,0.525-0.135,0.944c0.255,0.42,0.794,0.899,1.424,1.409
	c0.629,0.51,1.349,1.049,1.679,1.589c0.33,0.54,0.27,1.079-0.03,1.604c-0.3,0.524-0.839,1.034-1.125,1.453
	c-0.284,0.42-0.314,0.75-0.254,2.849c0.06,2.098,0.21,5.966,0.254,8.709c0.045,2.742-0.015,4.361,0.435,5.171
	c0.449,0.81,1.409,0.81,1.949,1.438c0.539,0.63,0.659,1.889,1.589,2.639c0.929,0.749,2.668,0.989,4.586,2.878
	s4.017,5.426,5.006,8.304c0.989,2.879,0.87,5.097,1.08,6.116c0.209,1.02,0.75,0.839,1.708,1.289
	c0.959,0.449,2.338,1.528,2.938,3.417c0.6,1.89,0.42,4.587,0.75,6.146c0.33,1.559,1.169,1.979,1.724,2.383
	c0.554,0.405,0.824,0.795,1.049,1.634c0.225,0.84,0.404,2.129,1.019,2.788c0.614,0.66,1.664,0.689,2.173,1.229
	s0.479,1.589,0.645,2.938c0.165,1.35,0.524,2.998,1.139,4.152c0.615,1.154,1.484,1.814,2.863,2.623
	c1.379,0.81,3.268,1.769,4.377,2.368s1.439,0.84,1.664,1.738c0.225,0.9,0.345,2.459,0.271,3.522
	c-0.075,1.064-0.345,1.635-0.39,2.129c-0.045,0.495,0.135,0.914,0.78,1.829c0.644,0.914,1.753,2.323,3.013,3.313
	s2.668,1.559,4.032,1.799c1.364,0.239,2.683,0.149,3.463,0.239c0.779,0.09,1.019,0.36,1.244,1.364
	c0.225,1.004,0.434,2.743,0.554,4.302c0.12,1.56,0.15,2.938-0.524,4.107c-0.675,1.169-2.054,2.128-2.729,2.982
	c-0.674,0.854-0.644,1.604-0.479,2.713c0.165,1.109,0.465,2.578,0.765,3.507c0.3,0.93,0.6,1.32,1.169,1.455
	c0.569,0.135,1.409,0.015,2.098,0.449s1.229,1.424,1.859,1.514s1.349-0.719,2.083-1.184c0.735-0.465,1.484-0.585,1.904-0.3
	c0.42,0.284,0.509,0.974,0.809,1.559s0.809,1.064,1.289,1.529s0.929,0.914,1.154,1.708c0.225,0.795,0.225,1.934,0.015,3.553
	c-0.21,1.619-0.63,3.718-1.424,5.456c-0.794,1.739-1.963,3.118-2.398,4.197s-0.135,1.858,0.449,2.578
	c0.584,0.719,1.454,1.379,1.829,2.232c0.375,0.854,0.255,1.904,0.03,2.788c-0.225,0.885-0.555,1.604-0.959,2.114
	c-0.405,0.51-0.885,0.81-0.944,1.648c-0.06,0.84,0.299,2.219,0.659,3.253s0.72,1.724,0.405,2.458s-1.304,1.515-2.068,2.833
	c-0.765,1.319-1.304,3.178-1.484,4.392c-0.18,1.215,0,1.784,0.689,2.069c0.689,0.284,1.889,0.284,2.668,0.284
	c0.779,0,1.139,0,1.454,0.3c0.314,0.3,0.584,0.899,0.959,1.305c0.375,0.404,0.854,0.614,1.334,0.749
	c0.479,0.135,0.959,0.194,1.199,0.495c0.24,0.3,0.24,0.839,0.195,1.738c-0.045,0.899-0.135,2.159-0.075,3.073
	c0.06,0.914,0.269,1.483,0.659,1.693c0.39,0.21,0.959,0.06,2.698-0.21c1.739-0.27,4.646-0.659,6.655-0.869
	c2.008-0.21,3.118-0.24,4.212-0.045s2.173,0.614,3.478,0.84c1.304,0.225,2.833,0.254,4.137,0.539
	c1.304,0.285,2.383,0.824,3.342,0.869c0.959,0.045,1.799-0.404,2.384-0.329c0.584,0.074,0.914,0.674,1.589,1.483
	c0.674,0.81,1.694,1.829,3.327,2.519c1.634,0.689,3.882,1.049,5.381,0.885c1.499-0.165,2.249-0.854,2.773-0.825
	c0.525,0.03,0.825,0.779,1.364,1.469s1.319,1.319,2.548,1.574c1.229,0.255,2.908,0.136,4.062,0.061s1.784-0.105,2.893,0.314
	c1.109,0.42,2.698,1.289,4.047,2.113s2.458,1.604,3.837,2.818s3.028,2.863,3.912,4.152c0.885,1.288,1.004,2.218,1.349,2.577
	c0.345,0.36,0.915,0.15,1.904,0.525s2.398,1.333,2.878,2.188s0.03,1.604-0.27,2.399c-0.3,0.794-0.45,1.633,0.149,3.042
	c0.6,1.409,1.949,3.388,2.923,4.767s1.573,2.159,2.413,2.398c0.839,0.24,1.919-0.06,2.653-0.165c0.734-0.104,1.124-0.015,2.414,0.75
	c1.289,0.765,3.478,2.203,5.006,3.027c1.529,0.825,2.398,1.035,3.342,1.064c0.944,0.03,1.964-0.119,2.519,0.016
	s0.645,0.555,0.839,0.989s0.495,0.884,0.899,1.019c0.405,0.136,0.915-0.045,2.549-0.12c1.634-0.074,4.392-0.044,6.745,0.301
	s4.302,1.004,5.651,1.573c1.349,0.57,2.099,1.05,2.863,1.994c0.765,0.944,1.545,2.353,1.979,4.376s0.524,4.662,0.285,6.536
	c-0.24,1.873-0.81,2.982-1.034,3.957c-0.226,0.974-0.105,1.813-0.045,2.473c0.06,0.66,0.06,1.14,0.479,1.199
	c0.42,0.061,1.259-0.3,2.099-0.09c0.839,0.21,1.679,0.989,2.264,1.964c0.584,0.975,0.914,2.144,1.528,2.653s1.515,0.359,2.069-0.181
	c0.554-0.539,0.764-1.469,1.108-2.308c0.345-0.84,0.824-1.589,1.934-2.009s2.849-0.51,4.302-0.18
	c1.455,0.329,2.624,1.079,3.493,1.979s1.438,1.948,1.783,3.027s0.465,2.189,0.93,3.073c0.465,0.885,1.273,1.544,2.443,2.323
	c1.169,0.779,2.698,1.679,4.302,2.878c1.604,1.199,3.283,2.698,4.482,4.002c1.199,1.305,1.919,2.413,2.488,3.313
	s0.989,1.589,1.679,1.874c0.689,0.284,1.648,0.165,2.465-0.016C350.646,683.686,351.319,683.445,353.934,686.383z"/>
</svg>
