<?xml version="1.0" encoding="utf-8"?>
<!-- Generator: Adobe Illustrator 15.1.0, SVG Export Plug-In . SVG Version: 6.00 Build 0)  -->
<!DOCTYPE svg PUBLIC "-//W3C//DTD SVG 1.1//EN" "http://www.w3.org/Graphics/SVG/1.1/DTD/svg11.dtd">
<svg version="1.1" id="Layer_1" xmlns="http://www.w3.org/2000/svg" xmlns:xlink="http://www.w3.org/1999/xlink" x="0px" y="0px"
	 width="792px" height="612px" viewBox="0 0 792 612" enable-background="new 0 0 792 612" xml:space="preserve">
<path fill-rule="evenodd" clip-rule="evenodd" stroke="#000000" stroke-width="2.9999" stroke-linecap="round" stroke-linejoin="round" stroke-miterlimit="22.9256" d="
	M36.564,153.347c-0.03-11.046-0.03-12.291-0.03-13.061s0-1.063,3.755-1.21s11.266-0.147,119.191-0.147c107.924,0,316.263,0,432.26,0
	c115.998,0,139.655,0,151.686,0c12.029,0,12.432,0,12.611,0.247c0.182,0.248,0.141,0.743,0.181,40.574
	c0.041,39.83,0.161,118.996,0.221,166.211c0.061,47.214,0.061,62.478,0.061,70.631s0,9.197,0,9.881c0,0.683,0,1.004-31.892,1.044
	c-31.891,0.041-95.673-0.2-161.825-0.22c-66.152-0.021-134.674,0.181-172.53,0.262c-37.856,0.08-45.045,0.04-48.801,0.06
	c-3.755,0.021-4.077,0.101-4.237,0.302c-0.161,0.2-0.161,0.521-0.141,6.606c0.02,6.086,0.061,17.935,0.121,24.039
	c0.06,6.105,0.141,6.467,0.181,6.708s0.04,0.361-0.402,0.361s-1.325-0.12-2.289-0.441s-2.009-0.844-2.731-1.667
	c-0.723-0.823-1.125-1.948-1.787-2.792c-0.663-0.843-1.587-1.405-2.45-1.807c-0.864-0.402-1.667-0.643-1.948-1.446
	s-0.04-2.169-0.703-3.013c-0.663-0.843-2.229-1.165-2.912-1.948c-0.683-0.783-0.482-2.028-1.024-3.233
	c-0.542-1.204-1.828-2.369-3.012-2.751c-1.186-0.381-2.27,0.021-3.475,0.603c-1.205,0.583-2.53,1.346-3.092,2.169
	c-0.563,0.823-0.362,1.707-0.844,2.49s-1.647,1.466-2.068,2.43c-0.422,0.965-0.101,2.209,0.663,3.313
	c0.763,1.105,1.968,2.069,2.128,2.731c0.161,0.663-0.723,1.024-2.69,0.784c-1.968-0.241-5.021-1.085-7.612-1.205
	c-2.591-0.121-4.719,0.481-6.386,1.084s-2.872,1.205-4.077,0.683c-1.205-0.521-2.41-2.169-4.117-2.289s-3.916,1.285-6.547,1.827
	c-2.631,0.543-5.684,0.222-7.712-0.06c-2.029-0.281-3.032-0.522-4.378-0.964c-1.346-0.442-3.033-1.085-4.559-1.045
	s-2.892,0.764-3.554,1.888c-0.663,1.125-0.623,2.651-0.803,3.876c-0.181,1.226-0.583,2.149-1.547,2.471
	c-0.964,0.321-2.49,0.04-5.041-0.382c-2.55-0.422-6.125-0.984-9.057-1.546c-2.932-0.563-5.222-1.125-7.27-0.623
	s-3.855,2.068-4.438,3.635s0.06,3.133-0.422,4.237c-0.482,1.105-2.088,1.748-3.293,1.266s-2.008-2.089-3.173-3.053
	s-2.691-1.285-3.916-2.129c-1.226-0.843-2.149-2.209-2.59-3.374c-0.442-1.165-0.402-2.129-0.703-2.992
	c-0.301-0.863-0.944-1.627-1.647-2.53c-0.703-0.904-1.466-1.948-1.566-2.812c-0.101-0.864,0.462-1.547,0.683-2.551
	c0.221-1.004,0.1-2.329-0.462-3.916s-1.566-3.435-2.812-5.182s-2.731-3.394-4.317-3.916c-1.587-0.521-3.274,0.081-4.64,0.522
	c-1.365,0.441-2.41,0.723-3.093,0.381c-0.683-0.341-1.004-1.305-2.128-2.169c-1.125-0.863-3.053-1.626-4.7-2.932
	c-1.646-1.306-3.012-3.152-3.394-4.398c-0.382-1.245,0.221-1.888,1.024-2.289s1.808-0.563,2.31-1.325
	c0.502-0.764,0.502-2.129,0.241-3.395c-0.261-1.265-0.784-2.43-1.647-3.233c-0.864-0.803-2.068-1.244-3.394-1.767
	s-2.771-1.125-3.495-1.969c-0.723-0.844-0.723-1.928-1.265-3.152c-0.543-1.226-1.627-2.591-2.45-3.515
	c-0.824-0.924-1.386-1.406-2.049-2.109c-0.663-0.702-1.426-1.626-1.988-2.53c-0.563-0.903-0.924-1.787-1.044-2.852
	s0-2.31-0.121-3.253c-0.121-0.944-0.482-1.586-1.165-2.31c-0.683-0.723-1.687-1.526-1.847-2.45s0.521-1.968,0.703-2.932
	c0.181-0.964-0.141-1.848-0.863-2.391c-0.723-0.542-1.848-0.743-2.27-1.305c-0.422-0.563-0.141-1.486,0.301-2.49
	c0.441-1.005,1.044-2.089,0.783-2.752c-0.261-0.662-1.386-0.903-2.571-1.024c-1.185-0.12-2.43-0.12-3.052-0.361
	c-0.623-0.24-0.623-0.723-0.683-1.566c-0.06-0.843-0.181-2.048-0.623-3.053c-0.442-1.004-1.205-1.808-2.31-2.209
	c-1.104-0.401-2.55-0.401-3.012,0.261c-0.462,0.663,0.06,1.989-0.041,3.013c-0.101,1.024-0.823,1.747-2.249,3.053
	c-1.426,1.306-3.555,3.193-5.182,4.237c-1.627,1.045-2.751,1.245-3.735,1.146c-0.984-0.101-1.828-0.502-2.189-0.222
	c-0.361,0.281-0.241,1.245-0.422,2.089c-0.181,0.844-0.662,1.566-1.405,2.33c-0.743,0.763-1.748,1.566-2.591,1.867
	c-0.843,0.301-1.526,0.101-2.691-0.764c-1.165-0.863-2.812-2.389-4.137-3.494c-1.326-1.104-2.33-1.787-3.615-1.888
	c-1.285-0.101-2.852,0.382-3.815,0.241c-0.964-0.141-1.326-0.903-1.145-1.728c0.181-0.823,0.904-1.706,0.924-2.309
	c0.02-0.603-0.663-0.925-0.985-1.627c-0.321-0.703-0.281-1.787,0.121-2.33c0.401-0.542,1.165-0.542,1.948-0.743
	c0.783-0.2,1.586-0.602,1.776-1.285c0.191-0.683-0.23-1.646-1.024-2.71s-1.958-2.229-2.611-3.013s-0.793-1.185-0.422-1.938
	s1.255-1.858,2.019-2.812c0.763-0.954,1.406-1.758,2.731-2.069c1.326-0.311,3.333-0.13,4.398-0.542
	c1.064-0.411,1.185-1.416,0.763-2.249s-1.386-1.496-1.797-2.099s-0.271-1.145,0.02-1.737s0.732-1.235,0.492-1.878
	c-0.241-0.643-1.165-1.285-2.028-1.787s-1.667-0.863-1.948-1.547c-0.281-0.683-0.04-1.687,0.302-2.69
	c0.341-1.005,0.783-2.009,0.361-2.591c-0.422-0.583-1.707-0.743-2.39-1.567c-0.683-0.823-0.763-2.309-0.181-3.072
	c0.582-0.763,1.827-0.803,2.63-1.365s1.165-1.646,1.104-2.872c-0.06-1.225-0.542-2.59-0.401-3.414
	c0.141-0.823,0.904-1.104,1.506-1.827c0.603-0.724,1.044-1.888,0.863-3.153c-0.181-1.265-0.984-2.631-0.723-3.595
	s1.586-1.526,2.138-2.229c0.552-0.702,0.332-1.546,0.05-2.591c-0.281-1.044-0.623-2.289-0.181-2.981
	c0.441-0.692,1.667-0.833,2.33-1.306c0.663-0.472,0.763-1.274,0.763-2.3c0-1.023-0.101-2.269,0.311-3.203
	c0.412-0.934,1.335-1.556,1.747-2.269c0.412-0.713,0.312-1.517-0.23-2.239c-0.542-0.724-1.526-1.366-2.671-1.486
	c-1.145-0.121-2.45,0.281-3.494,0.753c-1.044,0.472-1.828,1.014-3.435,1.375c-1.606,0.361-4.037,0.542-5.704,0.422
	c-1.667-0.121-2.571-0.542-2.952-1.366c-0.382-0.823-0.241-2.048-0.442-3.022c-0.201-0.974-0.743-1.697-1.627-1.647
	c-0.883,0.05-2.109,0.874-3.344,1.305c-1.235,0.432-2.48,0.472-3.283,0.171c-0.804-0.302-1.165-0.944-1.075-1.878
	s0.633-2.159,0.532-2.852c-0.101-0.693-0.844-0.854-2.26-1.316c-1.416-0.462-3.504-1.226-4.951-2.27
	c-1.446-1.044-2.249-2.37-2.41-3.535c-0.161-1.165,0.321-2.169,0.341-3.032c0.02-0.864-0.422-1.587-1.084-2.37
	c-0.663-0.783-1.546-1.626-2.691-2.028c-1.145-0.402-2.55-0.361-3.394-1.084c-0.843-0.723-1.125-2.209-1.807-3.515
	c-0.683-1.306-1.767-2.43-3.535-4.137s-4.217-3.997-5.864-5.442c-1.647-1.446-2.49-2.049-2.972-2.751
	c-0.482-0.703-0.603-1.506-1.305-2.33s-1.988-1.667-3.916-2.128c-1.928-0.462-4.499-0.542-6.266-1.165
	c-1.768-0.623-2.731-1.788-3.715-2.993s-1.988-2.45-3.695-3.374s-4.117-1.526-6.125-2.028s-3.615-0.904-3.715-1.687
	c-0.101-0.783,1.305-1.948,2.651-2.631c1.345-0.683,2.631-0.884,2.992-1.285c0.361-0.402-0.201-1.004-1.044-1.647
	c-0.844-0.643-1.969-1.325-2.732-1.968s-1.165-1.246-0.723-1.888s1.727-1.325,2.49-2.209s1.004-1.968,0.361-2.892
	c-0.643-0.924-2.169-1.687-2.53-2.45c-0.362-0.763,0.442-1.526,0.542-2.29c0.101-0.763-0.502-1.526-1.185-1.968
	c-0.683-0.442-1.446-0.562-1.828-1.205c-0.381-0.643-0.381-1.808-1.165-2.43c-0.784-0.623-2.35-0.703-3.013-1.566
	c-0.663-0.864-0.422-2.51-1.466-4.157c-1.044-1.647-3.375-3.293-5.282-4.86c-1.908-1.567-3.394-3.053-4.137-3.856
	c-0.743-0.804-0.743-0.924-0.703-2.149c0.041-1.225,0.121-3.555,0.131-15.143C36.654,185.239,36.594,164.392,36.564,153.347z"/>
</svg>
