<?xml version="1.0" encoding="utf-8"?>
<!-- Generator: Adobe Illustrator 15.1.0, SVG Export Plug-In . SVG Version: 6.00 Build 0)  -->
<!DOCTYPE svg PUBLIC "-//W3C//DTD SVG 1.1//EN" "http://www.w3.org/Graphics/SVG/1.1/DTD/svg11.dtd">
<svg version="1.1" id="Layer_1" xmlns="http://www.w3.org/2000/svg" xmlns:xlink="http://www.w3.org/1999/xlink" x="0px" y="0px"
	 width="792px" height="612px" viewBox="0 0 792 612" enable-background="new 0 0 792 612" xml:space="preserve">
<path fill-rule="evenodd" clip-rule="evenodd" stroke="#000000" stroke-width="2.9999" stroke-linecap="round" stroke-linejoin="round" stroke-miterlimit="22.9256" d="
	M657.694,52.471c0.796,1.318,1.493,3.954,1.493,6.086c0,2.132-0.697,3.76-0.465,5.272c0.232,1.512,1.396,2.907,1.318,4.419
	c-0.078,1.512-1.396,3.14-3.023,4.419c-1.629,1.279-3.566,2.209-4.497,3.488s-0.854,2.908-1.822,4.109s-2.985,1.977-5.078,3.062
	c-2.094,1.086-4.264,2.481-5.35,4.42c-1.085,1.938-1.085,4.419-1.822,5.854c-0.736,1.434-2.209,1.822-4.342,3.256
	c-2.132,1.434-4.923,3.916-7.172,6.59c-2.248,2.675-3.953,5.543-5.039,7.598c-1.085,2.055-1.55,3.295-1.589,3.876
	c-0.039,0.582,0.349,0.504,5.97,0.311c5.621-0.194,16.475-0.504,30.082-0.621c13.606-0.116,29.966-0.039,38.145,0.31
	c8.18,0.349,8.18,0.969,8.489,1.9c0.311,0.931,0.931,2.171,3.102,3.877c2.171,1.705,5.893,3.876,7.481,6.164
	c1.59,2.287,1.047,4.69-0.697,5.427c-1.744,0.736-4.69-0.194-7.365-0.62c-2.675-0.427-5.079-0.349-6.591,0.387
	c-1.511,0.737-2.132,2.132-0.62,3.489s5.156,2.675,7.133,3.993c1.978,1.318,2.287,2.636,1.628,3.837
	c-0.658,1.202-2.287,2.287-4.612,2.675c-2.326,0.388-5.35,0.078-6.9,0.736c-1.55,0.659-1.628,2.288-2.016,3.605
	c-0.388,1.318-1.086,2.326-2.21,2.811c-1.124,0.484-2.675,0.446-3.974,1.105s-2.346,2.016-3.761,1.841
	c-1.414-0.174-3.198-1.88-5.291-1.492c-2.094,0.387-4.497,2.869-4.981,5.504s0.95,5.427,3.082,5.951
	c2.132,0.523,4.962-1.221,7.617-1.493s5.137,0.93,6.318,2.694c1.183,1.764,1.066,4.09-0.949,5.679
	c-2.016,1.59-5.931,2.442-8.839,2.927c-2.907,0.484-4.807,0.601-5.873,1.473c-1.065,0.872-1.298,2.5,0.02,3.76
	c1.318,1.26,4.187,2.152,5.776,3.508c1.589,1.357,1.899,3.179,1.531,4.652s-1.415,2.597-2.985,3.082
	c-1.569,0.484-3.663,0.329-5.389-0.679c-1.725-1.008-3.081-2.869-4.496-3.973c-1.415-1.105-2.888-1.454-4.303-1.125
	c-1.415,0.33-2.771,1.337-3.005,2.792c-0.232,1.454,0.659,3.353,1.842,4.923c1.182,1.57,2.655,2.81,2.945,4.613
	c0.291,1.803-0.601,4.167-1.628,5.66c-1.027,1.492-2.19,2.113-3.663,1.86c-1.474-0.252-3.256-1.376-3.741-2.965
	c-0.484-1.589,0.329-3.644,0.116-5.04s-1.453-2.132-2.655-2.268c-1.201-0.136-2.364,0.329-3.082,1.144
	c-0.717,0.814-0.988,1.977-1.842,3.082c-0.853,1.105-2.286,2.152-3.74,3.547c-1.454,1.396-2.927,3.14-3.102,5.059
	c-0.174,1.919,0.95,4.012,2.404,4.206c1.453,0.194,3.236-1.512,5.136-2.054c1.899-0.543,3.915,0.078,4.749,1.182
	c0.833,1.105,0.484,2.695-0.039,3.857c-0.523,1.163-1.222,1.9-1.416,3.257c-0.193,1.356,0.117,3.333-0.542,4.497
	s-2.287,1.512-3.683,1.764s-2.559,0.407-2.83,1.783s0.349,3.974,1.783,4.71s3.683-0.387,5.543-0.329
	c1.861,0.058,3.334,1.298,3.741,2.926c0.407,1.628-0.252,3.644-1.134,4.924c-0.882,1.279-1.986,1.822-2.238,2.481
	s0.349,1.435,1.453,2.752c1.104,1.318,2.714,3.179,2.985,4.69c0.271,1.512-0.795,2.675-2.074,3.412s-2.771,1.046-4.147,0.679
	c-1.377-0.369-2.637-1.415-3.916-1.725c-1.279-0.311-2.578,0.116-3.401,0.775c-0.824,0.659-1.173,1.55-1.231,2.626
	c-0.058,1.076,0.175,2.335,0.02,3.304c-0.155,0.969-0.697,1.647-1.027,2.549c-0.329,0.901-0.445,2.026-0.533,3.053
	c-0.088,1.027-0.146,1.958-1.279,2.403c-1.134,0.446-3.344,0.407-5.146-0.077c-1.802-0.485-3.197-1.415-4.419-1.841
	c-1.221-0.426-2.268-0.349-3.043,0.494s-1.279,2.452-1.144,4.371c0.136,1.919,0.911,4.148,2.423,5.398
	c1.512,1.25,3.761,1.522,5.039,2.491c1.279,0.97,1.59,2.636,1.299,4.38c-0.291,1.745-1.183,3.567-2.384,4.943
	c-1.202,1.376-2.714,2.306-3.411,3.585c-0.698,1.279-0.582,2.907-1.125,4.012c-0.542,1.105-1.744,1.686-3.043,1.376
	c-1.298-0.311-2.693-1.512-4.205-1.531c-1.513-0.02-3.141,1.143-4.904,1.725s-3.663,0.582-4.846-0.445
	c-1.183-1.028-1.647-3.082-2.694-4.633s-2.675-2.597-3.896-2.345c-1.222,0.252-2.035,1.802-1.531,3.295s2.325,2.927,2.81,4.71
	c0.485,1.783-0.368,3.915-0.038,6.358c0.33,2.442,1.841,5.194,1.647,7.132c-0.194,1.938-2.094,3.063-3.974,3.334
	s-3.741-0.31-4.885-1.53c-1.144-1.222-1.57-3.082-3.005-3.489c-1.434-0.407-3.876,0.64-4.768,2.481
	c-0.892,1.841-0.232,4.478,1.764,5.931c1.996,1.454,5.33,1.725,7.733,2.326c2.404,0.601,3.877,1.531,4.071,3.101
	c0.193,1.57-0.893,3.78-2.288,4.962c-1.396,1.183-3.101,1.338-4.612,0.854c-1.513-0.484-2.83-1.608-4.342-1.842
	c-1.513-0.232-3.218,0.427-3.16,2.307c0.059,1.88,1.881,4.981,3.257,7.463c1.376,2.48,2.306,4.342,1.918,6.144
	c-0.388,1.803-2.094,3.547-2.907,5.272c-0.814,1.725-0.737,3.431-0.098,5.252c0.64,1.822,1.842,3.761,1.648,5.66
	c-0.194,1.899-1.784,3.761-3.838,5.156c-2.055,1.396-4.574,2.326-5.195,4.535c-0.62,2.21,0.659,5.698,0.601,7.947
	c-0.058,2.248-1.453,3.256-3.313,3.295c-1.861,0.039-4.187-0.892-4.729-2.869c-0.543-1.977,0.697-5,0.115-6.318
	c-0.581-1.317-2.984-0.931-4.923-0.697c-1.938,0.232-3.411,0.31-3.682,1.589c-0.271,1.279,0.658,3.761,1.085,5.66
	c0.426,1.899,0.349,3.217-0.892,3.954c-1.24,0.736-3.645,0.892-5.466,1.201c-1.822,0.311-3.063,0.775-3.527,2.094
	c-0.466,1.317-0.155,3.488-0.621,5.155c-0.465,1.667-1.705,2.83-3.449,2.287c-1.745-0.542-3.993-2.791-5.737-3.488
	c-1.745-0.698-2.985,0.154-3.063,1.86c-0.077,1.706,1.008,4.265,3.954,5.389s7.754,0.814,10.622,2.48
	c2.869,1.667,3.799,5.312,2.442,6.823c-1.357,1.512-5.001,0.892-8.141-0.078c-3.141-0.969-5.776-2.287-8.063-1.666
	c-2.287,0.62-4.226,3.179-3.877,5.078c0.35,1.899,2.985,3.14,5.117,3.449c2.133,0.311,3.761-0.31,4.807,0.311
	c1.047,0.62,1.513,2.48,1.202,4.594c-0.311,2.112-1.396,4.477-2.733,5.602c-1.337,1.124-2.927,1.008-5.214,0.639
	c-2.287-0.368-5.271-0.988-5.97-0.31s0.892,2.655,1.841,4.458c0.95,1.803,1.26,3.431,0.407,4.361
	c-0.853,0.93-2.868,1.163-4.458,0.853c-1.589-0.31-2.752-1.163-3.799-2.094c-1.047-0.93-1.977-1.938-3.625-2.073
	c-1.646-0.136-4.012,0.601-4.845,1.802c-0.834,1.202-0.136,2.869,1.589,4.148c1.726,1.279,4.478,2.171,5.873,3.275
	s1.434,2.423,0.349,3.799s-3.295,2.811-4.109,4.748c-0.813,1.938-0.232,4.381,1.938,5.505s5.932,0.931,7.889,2.209
	c1.958,1.279,2.113,4.032,1.008,5.835c-1.104,1.803-3.469,2.655-5.505,2.326c-2.035-0.33-3.74-1.842-5.136-2.171
	c-1.396-0.33-2.481,0.522-4.187,0.465c-1.706-0.059-4.032-1.027-5.292-0.155s-1.453,3.586-1.008,5.35
	c0.445,1.765,1.531,2.578,3.683,2.694s5.369-0.465,7.521,0.311s3.237,2.907,3.314,4.981s-0.853,4.09-2.616,5.001
	c-1.765,0.91-4.361,0.717-6.668-0.098s-4.322-2.248-6.338-3.508c-2.017-1.261-4.032-2.346-5.757-2.307
	c-1.726,0.039-3.159,1.201-3.257,2.384c-0.097,1.183,1.144,2.384,2.772,3.354c1.628,0.969,3.644,1.706,5.097,2.907
	c1.454,1.201,2.345,2.868,2.598,4.361c0.251,1.492-0.137,2.811-1.066,3.353c-0.931,0.543-2.403,0.311-4.07,0.814
	s-3.528,1.744-4.729,2.771c-1.202,1.028-1.744,1.842-1.318,2.733c0.427,0.892,1.822,1.86,2.384,2.966
	c0.562,1.104,0.291,2.345-1.027,3.856s-3.683,3.295-4.652,5.214c-0.969,1.919-0.542,3.974,1.105,4.478s4.516-0.543,6.26-2.714
	c1.745-2.17,2.365-5.466,3.896-6.842s3.974-0.833,5.582,0.484c1.609,1.318,2.384,3.411,2.016,5.098s-1.88,2.966-3.45,4.517
	s-3.198,3.372-3.392,4.651c-0.194,1.279,1.046,2.016,2.559,1.919c1.512-0.097,3.295-1.026,5.563-2.539
	c2.269-1.512,5.021-3.604,6.727-3.411c1.705,0.193,2.364,2.675,1.744,4.361c-0.621,1.686-2.521,2.578-4.284,3.644
	c-1.764,1.066-3.392,2.307-4.748,3.722c-1.357,1.415-2.442,3.004-3.218,5.233c-0.775,2.229-1.24,5.097-0.64,6.086
	c0.602,0.988,2.268,0.097,3.876-1.202c1.609-1.299,3.16-3.004,4.827-3.082c1.667-0.077,3.45,1.474,4.438,3.102
	s1.183,3.334,0.388,4.497s-2.578,1.783-4.303,2.558c-1.726,0.775-3.393,1.706-4.129,3.528s-0.543,4.535-0.368,6.765
	c0.175,2.229,0.33,3.974-0.466,5c-0.794,1.028-2.539,1.338-4.07,1.357s-2.849-0.252-4.051-0.854
	c-1.201-0.601-2.287-1.53-3.334-1.201s-2.055,1.919-2.345,3.179c-0.291,1.26,0.136,2.19,2.016,3.489
	c1.88,1.298,5.214,2.965,7.056,4.574c1.842,1.608,2.189,3.159,1.512,4.419c-0.679,1.26-2.384,2.229-3.663,3.12
	c-1.279,0.893-2.132,1.706-3.45,1.978s-3.102,0-18.064-0.175c-14.964-0.175-43.107-0.252-70.282-0.446
	c-27.174-0.193-53.379-0.504-99.51-0.775c-46.131-0.271-112.187-0.503-145.215-0.775c-33.028-0.271-33.028-0.581-33.028-0.813
	s0-0.388-0.155-13.878s-0.465-40.315-0.618-53.496s-0.147-12.716-0.38-12.406c-0.232,0.311-0.703,0.466-1.597,0.524
	c-0.894,0.059-2.212,0.02-3.045-0.892c-0.833-0.911-1.183-2.693-1.938-2.791c-0.756-0.097-1.919,1.492-3.198,1.783
	s-2.675-0.717-3.935-1.783s-2.384-2.189-3.411-1.744s-1.958,2.462-3.334,3.624c-1.376,1.163-3.198,1.474-3.915,0.504
	c-0.717-0.969-0.33-3.217-0.834-4.012s-1.899-0.136-3.236,1.124c-1.338,1.26-2.617,3.12-3.877,3.354
	c-1.26,0.232-2.5-1.163-3.585-1.163c-1.086,0-2.016,1.396-3.508,2.093c-1.493,0.698-3.547,0.698-4.245-0.097
	s-0.039-2.384-0.097-3.354c-0.059-0.969-0.833-1.317-1.919-1.86s-2.481-1.279-3.78-1.725c-1.299-0.446-2.5-0.602-2.733-1.687
	c-0.233-1.086,0.504-3.102,0.213-4.051c-0.291-0.95-1.609-0.834-2.461-0.776c-0.853,0.059-1.241,0.059-1.396-0.135
	c-0.155-0.194-0.077-0.582-0.039-2.385c0.039-1.802,0.039-5.02,1.241-47.235c1.202-42.215,3.605-123.429,4.807-167.834
	c1.201-44.405,1.201-52.003,1.201-56.035c0-4.032,0-4.497-1.473-13.491c-1.473-8.993-4.419-26.515-8.451-54.116
	C87.47,111.859,82.352,74.18,80.104,55.34C77.855,36.5,78.476,36.5,78.863,36.5s0.542,0,45.976,0.077
	c45.433,0.078,136.144,0.232,224.451,0.233c88.307,0,174.211-0.155,223.675-0.232c49.465-0.078,62.49-0.078,69.002-0.078
	c6.513,0,6.513,0,6.455,0.62c-0.059,0.621-0.175,1.861,0.29,2.907c0.466,1.047,1.513,1.9,1.609,3.334
	c0.097,1.434-0.756,3.45-0.116,4.845s2.771,2.171,4.285,2.559C656.003,51.153,656.897,51.153,657.694,52.471z"/>
</svg>
