<?xml version="1.0" encoding="utf-8"?>
<!-- Generator: Adobe Illustrator 15.1.0, SVG Export Plug-In . SVG Version: 6.00 Build 0)  -->
<!DOCTYPE svg PUBLIC "-//W3C//DTD SVG 1.1//EN" "http://www.w3.org/Graphics/SVG/1.1/DTD/svg11.dtd">
<svg version="1.1" id="Layer_1" xmlns="http://www.w3.org/2000/svg" xmlns:xlink="http://www.w3.org/1999/xlink" x="0px" y="0px"
	 width="792px" height="612px" viewBox="0 0 792 612" enable-background="new 0 0 792 612" xml:space="preserve">
<path fill-rule="evenodd" clip-rule="evenodd" stroke="#000000" stroke-width="2.9999" stroke-linecap="round" stroke-linejoin="round" stroke-miterlimit="22.9256" d="
	M350.072,399.799c1.244,1.194,2.447,2.558,3.048,4.604s0.602,4.773,1.164,7.02c0.562,2.246,1.685,4.012,3.61,5.135
	s4.653,1.604,7.421,1.564s5.576-0.602,7.742-0.12c2.167,0.481,3.69,2.005,4.934,3.168c1.244,1.164,2.206,1.966,3.65,2.247
	c1.444,0.281,3.369,0.04,5.416,0.602c2.045,0.562,4.211,1.926,6.137,2.126c1.925,0.201,3.61-0.762,4.974-1.604
	c1.364-0.842,2.407-1.564,3.771-1.645c1.364-0.08,3.049,0.481,5.335,2.086c2.287,1.604,5.175,4.252,7.301,5.736
	s3.49,1.805,4.854,1.203c1.363-0.602,2.728-2.126,3.57-3.65c0.842-1.524,1.162-3.048,2.366-3.65c1.203-0.602,3.289-0.28,4.934,0
	c1.646,0.281,2.849,0.521,3.892,0.763c1.043,0.24,1.925,0.48,2.969,0.762c1.042,0.281,2.246,0.602,3.771,0
	c1.523-0.602,3.369-2.126,4.733-2.607c1.363-0.481,2.246,0.08,2.085,1.284c-0.16,1.203-1.363,3.048-1.563,4.372
	c-0.201,1.324,0.602,2.126,0.922,3.49c0.321,1.363,0.161,3.289,0.642,4.693c0.481,1.403,1.605,2.286,3.69,2.246
	c2.087-0.041,5.135-1.003,6.539-0.682c1.404,0.32,1.163,1.925,1.123,3.369s0.12,2.728-0.36,3.851
	c-0.482,1.123-1.605,2.086-1.444,2.889c0.16,0.802,1.604,1.444,3.249,2.086s3.489,1.283,4.813,1.725s2.126,0.682,3.449,0.04
	c1.324-0.642,3.169-2.166,4.313-3.45c1.143-1.283,1.584-2.327,2.246-3.17c0.661-0.842,1.544-1.484,2.306-1.845
	c0.763-0.361,1.404-0.441,2.026-1.023c0.622-0.581,1.224-1.664,2.286-2.406c1.063-0.742,2.588-1.144,3.711-0.843
	s1.845,1.304,2.607,1.805c0.762,0.502,1.564,0.502,2.025,1.425s0.582,2.768,1.444,3.771s2.467,1.163,4.392,0.942
	c1.926-0.221,4.173-0.822,5.115-0.061c0.942,0.763,0.582,2.889,0.502,4.613c-0.081,1.726,0.119,3.049,1.483,3.671
	s3.892,0.542,5.234-0.181c1.345-0.722,1.505-2.086,2.006-2.588c0.502-0.501,1.344-0.14,1.906-0.642
	c0.562-0.501,0.842-1.865,1.403-2.086s1.404,0.702,2.146,1.184s1.384,0.521,1.965,0.021c0.582-0.502,1.104-1.545,1.625-2.347
	c0.521-0.803,1.043-1.364,1.985-1.304c0.943,0.06,2.307,0.742,3.109,1.645s1.043,2.025,0.581,2.988
	c-0.461,0.963-1.624,1.766-2.065,2.908c-0.441,1.144-0.16,2.628,0.161,3.61c0.32,0.982,0.682,1.464,0.861,2.146
	c0.181,0.682,0.181,1.563,0.683,2.386c0.501,0.823,1.504,1.585,2.627,2.066s2.366,0.682,3.409,0.2s1.885-1.645,2.105-3.068
	c0.221-1.425-0.18-3.109,0.08-4.172c0.262-1.063,1.184-1.505,1.946-2.026c0.762-0.521,1.363-1.122,2.226-1.925
	c0.863-0.803,1.986-1.805,2.809-2.768s1.344-1.886,1.504-2.828c0.16-0.943-0.04-1.905-0.401-2.828
	c-0.36-0.923-0.882-1.806-0.902-2.447c-0.02-0.642,0.461-1.043,1.123-0.982s1.505,0.581,2.286,0.562
	c0.783-0.021,1.505-0.582,2.187-0.702c0.683-0.12,1.324,0.2,1.846,1.384s0.922,3.229,1.363,4.914s0.923,3.008,1.846,3.35
	c0.923,0.341,2.286-0.301,3.39-0.602s1.945-0.261,2.647,0.4c0.702,0.663,1.264,1.946,1.885,2.769
	c0.622,0.822,1.304,1.184,2.407,1.043s2.628-0.782,3.59-2.046c0.963-1.264,1.364-3.149,1.665-4.453s0.502-2.025,0.903-2.065
	c0.4-0.04,1.002,0.602,1.864,0.862c0.863,0.261,1.986,0.141,2.889,0.101s1.584,0,1.424,0.621c-0.16,0.622-1.163,1.825-1.323,2.929
	c-0.161,1.103,0.521,2.105,1.403,2.728s1.966,0.863,3.149,1.104s2.467,0.481,3.129,1.184s0.701,1.864,1.184,2.526
	c0.481,0.662,1.403,0.823,2.486,0.742c1.083-0.08,2.327-0.4,3.35,0.161c1.023,0.562,1.825,2.006,2.908,3.089
	s2.447,1.805,3.249,3.028c0.803,1.224,1.043,2.948,2.066,3.068c1.022,0.12,2.828-1.363,3.67-2.968
	c0.843-1.604,0.723-3.33,1.806-3.871c1.083-0.542,3.369,0.1,5.034,0.2s2.707-0.341,3.449-1.344s1.184-2.567,2.166-3.831
	c0.983-1.264,2.508-2.226,3.631-2.868c1.123-0.642,1.845-0.962,3.089-1.203c1.243-0.24,3.008-0.401,4.553-0.642
	c1.544-0.241,2.868-0.562,3.931-1.003c1.063-0.441,1.865-1.003,2.588-1.283c0.722-0.281,1.364-0.281,2.487,0.4
	c1.123,0.683,2.728,2.046,4.071,2.688c1.344,0.643,2.427,0.562,3.229,0.141c0.802-0.421,1.323-1.184,2.025-1.224
	s1.584,0.642,2.467,0.24s1.765-1.885,2.627-2.547c0.863-0.662,1.705-0.502,2.527-0.521c0.822-0.021,1.625-0.221,2.227-0.602
	c0.602-0.382,1.003-0.942,1.705-1.184c0.701-0.24,1.704-0.16,2.627-0.582c0.923-0.421,1.765-1.344,2.647-1.925
	c0.883-0.582,1.806-0.822,2.447-0.461c0.642,0.36,1.003,1.323,1.183,2.427c0.181,1.103,0.181,2.346,0.883,2.566
	s2.106-0.581,2.929-0.521c0.822,0.061,1.063,0.983,1.725,1.144s1.745-0.441,3.029-0.32c1.283,0.12,2.768,0.963,4.171,1.243
	c1.404,0.28,2.728,0,3.751-0.582c1.023-0.581,1.745-1.464,2.607-1.424s1.865,1.003,2.828,1.144s1.885-0.542,2.587-1.324
	s1.184-1.664,1.344-2.768c0.161-1.104,0-2.427,0.562-3.169s1.846-0.902,3.009-0.782s2.206,0.521,3.289,0.762
	c1.083,0.241,2.206,0.321,2.948,1.043c0.742,0.723,1.104,2.086,1.905,2.988c0.803,0.903,2.046,1.344,2.969,1.726
	c0.923,0.381,1.524,0.702,2.126,1.424s1.204,1.845,2.347,2.326c1.144,0.481,2.828,0.321,3.851,0.983
	c1.023,0.661,1.384,2.146,2.166,3.028c0.783,0.883,1.986,1.163,3.009,2.166c1.023,1.003,1.865,2.728,3.229,3.73
	s3.249,1.284,5.014,1.444c1.766,0.16,3.41,0.201,4.533,0.702c1.124,0.501,1.725,1.464,2.206,2.105
	c0.481,0.643,0.843,0.963,1.344,1.534c0.502,0.572,1.144,1.395,2.427,1.604c1.283,0.211,3.209-0.19,4.613,0.021
	c1.404,0.21,2.286,1.033,3.059,1.896s1.434,1.765,2.427,2.366s2.316,0.902,3.52,1.053c1.204,0.151,2.287,0.151,2.849,0.141
	c0.562-0.01,0.602-0.03,0.651-0.271c0.051-0.241,0.11-0.702,0.121-2.688c0.01-1.986-0.03-5.496,0.039-13.067
	c0.07-7.571,0.251-19.204,0.461-32.081c0.211-12.876,0.451-26.997,0.813-39.593c0.36-12.595,0.843-23.666,1.283-35.179
	c0.441-11.513,0.843-23.467,1.272-33.134c0.43-9.668,0.887-17.048,0.687-22.865s-1.06-10.068-2.051-16.166
	c-0.991-6.097-2.114-14.04-4.16-28.601c-2.046-14.561-5.015-35.741-6.739-47.774c-1.725-12.034-2.206-14.922-2.447-18.693
	c-0.24-3.771-0.24-8.424-0.28-16.887c-0.04-8.464-0.121-20.738-0.161-26.875s-0.04-6.137-0.03-6.237
	c0.011-0.101,0.03-0.301-2.356-0.381c-2.387-0.08-7.181-0.04-124.316-0.03c-117.137,0.01-346.616-0.009-461.446-0.019
	c-114.83-0.01-115.01-0.01-115.161-0.01s-0.271,0-0.406,0s-0.286,0-0.351,0.491c-0.065,0.491-0.045,1.474-0.03,6.183
	s0.025,13.143,0.04,20.804s0.034,14.551,0.043,18.041s0.01,3.58,0.01,3.686c0,0.105,0.001,0.225,0.001,0.346
	c0,0.12,0.001,0.24,0.262,0.296c0.261,0.055,0.782,0.045,3.555,0.05c2.773,0.005,7.797,0.025,48.979,0.239
	c41.182,0.213,118.521,0.621,157.396,0.825s39.286,0.207,39.566,0.209c0.281,0.001,0.432,0.002,0.582,0.002
	c0.15,0.001,0.301,0.002,0.371,0.263c0.07,0.261,0.061,0.782,0.056,1.96c-0.005,1.178-0.005,3.014,0.055,34.753
	c0.06,31.74,0.181,93.384,0.261,124.688c0.081,31.304,0.121,32.267,0.136,32.838c0.015,0.572,0.005,0.753,0.05,0.868
	c0.045,0.115,0.145,0.165,0.376,0.141c0.23-0.025,0.592-0.126,1.218-0.567c0.627-0.441,1.52-1.223,2.462-1.564
	c0.942-0.341,1.935-0.24,2.943,0.341c1.007,0.582,2.031,1.646,3.6,3.741s3.686,5.225,6.167,7.992
	c2.482,2.769,5.33,5.175,8.078,6.619c2.748,1.444,5.395,1.926,7.14,1.985c1.745,0.061,2.587-0.301,3.229-1.103
	c0.642-0.803,1.083-2.046,2.587-2.407c1.504-0.36,4.072,0.161,6.097,0.923c2.026,0.762,3.51,1.765,4.773,2.006
	c1.264,0.24,2.307-0.281,2.849-1.345c0.542-1.063,0.582-2.667,0.942-3.67c0.361-1.003,1.043-1.403,2.166-1.103
	c1.124,0.301,2.688,1.304,4.112,2.316C347.544,397.583,348.829,398.606,350.072,399.799z"/>
</svg>
