<?xml version="1.0" encoding="utf-8"?>
<!-- Generator: Adobe Illustrator 15.1.0, SVG Export Plug-In . SVG Version: 6.00 Build 0)  -->
<!DOCTYPE svg PUBLIC "-//W3C//DTD SVG 1.1//EN" "http://www.w3.org/Graphics/SVG/1.1/DTD/svg11.dtd">
<svg version="1.1" id="Layer_1" xmlns="http://www.w3.org/2000/svg" xmlns:xlink="http://www.w3.org/1999/xlink" x="0px" y="0px"
	 width="612px" height="792px" viewBox="0 0 612 792" enable-background="new 0 0 612 792" xml:space="preserve">
<path fill-rule="evenodd" clip-rule="evenodd" stroke="#000000" stroke-width="2.9999" stroke-linecap="round" stroke-linejoin="round" stroke-miterlimit="22.9256" d="
	M86.828,633.819c0.141,29.549,0.197,50.774,0.225,61.487c0.028,10.712,0.028,10.909,0.057,11.009
	c0.028,0.099,0.084,0.099,21.214,0.099c21.129,0,63.332,0,127.825,0s151.278,0,194.669,0s43.392,0,43.519-0.323
	s0.381-0.971,0.127-1.743c-0.253-0.772-1.013-1.671-1.267-2.822c-0.253-1.15,0-2.552,0.085-3.63c0.084-1.079,0-1.834-0.521-2.589
	c-0.521-0.755-1.478-1.51-1.9-3.217c-0.422-1.708-0.31-4.368,0.099-6.938c0.409-2.57,1.112-5.051,0.958-7.478
	c-0.154-2.426-1.168-4.799-3.308-8.968c-2.14-4.17-5.405-10.138-8.221-13.445c-2.815-3.307-5.18-3.953-7.066-4.457
	c-1.886-0.503-3.293-0.862-5.518-2.731c-2.224-1.869-5.265-5.249-7.629-7.369c-2.365-2.121-4.055-2.983-5.912-4.565
	c-1.858-1.582-3.885-3.882-4.701-6.039s-0.423-4.17-0.93-5.572c-0.507-1.401-1.914-2.192-2.478-3.235
	c-0.563-1.042-0.281-2.336-0.788-3.415c-0.506-1.078-1.802-1.94-4.223-3.558c-2.421-1.618-5.969-3.99-8.783-5.356
	c-2.815-1.366-4.898-1.726-6.897-2.876s-3.913-3.092-4.955-5.177c-1.041-2.085-1.21-4.313-4.194-5.607
	c-2.983-1.294-8.783-1.653-14.528-2.696c-5.745-1.042-11.437-2.768-14.846-3.702c-3.407-0.935-4.533-1.078-5.153-1.726
	c-0.619-0.647-0.731-1.797-1.773-3.235c-1.042-1.438-3.012-3.163-5.18-4.709c-2.168-1.545-4.533-2.912-5.519-4.241
	c-0.984-1.33-0.591-2.624,0.057-4.278c0.647-1.653,1.548-3.666,1.858-5.823c0.31-2.157,0.028-4.457,0.365-6.219
	c0.338-1.762,1.296-2.983,1.211-4.386c-0.085-1.401-1.211-2.983-1.576-4.816c-0.366-1.834,0.028-3.919-0.311-5.356
	c-0.337-1.438-1.407-2.229-1.492-3.308c-0.084-1.078,0.816-2.444,1.577-3.415c0.76-0.971,1.379-1.545,1.604-3.019
	s0.057-3.847-0.281-5.285c-0.338-1.438-0.845-1.94-0.901-3.379c-0.056-1.438,0.338-3.811,0.563-5.428s0.281-2.48,0.9-3.487
	c0.62-1.006,1.803-2.156,2.478-3.666c0.676-1.51,0.845-3.379,1.549-4.889s1.942-2.66,2.505-4.17c0.563-1.51,0.451-3.378-0.394-4.853
	c-0.845-1.474-2.422-2.553-3.322-4.134c-0.9-1.582-1.126-3.666-1.802-4.925c-0.676-1.258-1.802-1.689-3.575-1.905
	s-4.194-0.216-5.49-0.935c-1.295-0.719-1.464-2.157-1.52-4.637c-0.057-2.48,0-6.004,1.126-8.232s3.322-3.163,4.673-4.709
	c1.352-1.546,1.858-3.702,2.675-6.398s1.942-5.932,3.913-8.411c1.971-2.48,4.786-4.206,6.729-5.069
	c1.942-0.862,3.012-0.862,3.631-1.761c0.62-0.898,0.789-2.696,1.577-3.271s2.196,0.072,3.238,0.323
	c1.041,0.252,1.717,0.108,2.421-0.754c0.703-0.863,1.436-2.444,2.562-2.84c1.126-0.396,2.646,0.396,3.743,0.179
	c1.099-0.215,1.774-1.438,1.887-2.695c0.112-1.259-0.337-2.552,0.142-3.199s1.886-0.647,2.646-1.582
	c0.761-0.935,0.873-2.805,0.929-13.085c0.057-10.281,0.057-28.974,0.057-38.221s0-9.049,0.485-8.86
	c0.486,0.188,1.457,0.368,2.259,0.09c0.803-0.279,1.437-1.016,2.119-1.726c0.683-0.71,1.415-1.393,1.76-1.878
	s0.303-0.773-0.05-1.061c-0.352-0.288-1.014-0.575-1.33-1.195c-0.316-0.62-0.288-1.573-0.451-2.301
	c-0.162-0.728-0.515-1.231-0.171-1.734c0.345-0.504,1.387-1.007,1.682-1.797c0.296-0.792-0.154-1.87-0.042-2.804
	s0.788-1.726,2.872-3.289c2.083-1.564,5.574-3.9,9.642-6.668c4.068-2.768,8.713-5.967,14.948-11.556
	c6.236-5.59,14.063-13.57,20.791-21.119s12.358-14.667,17.285-20.238s9.149-9.598,13.372-13.336s8.445-7.189,13.09-10.424
	c4.646-3.235,9.713-6.254,16.328-9.273c6.616-3.02,14.78-6.04,22.775-9.29c7.995-3.25,15.822-6.729,22.41-10.231
	c6.588-3.502,11.938-7.024,15.428-9.361c3.491-2.336,5.124-3.487,7.554-4.134c2.43-0.647,5.655-0.791,7.269-1.582
	c1.613-0.791,1.613-2.229,0-2.875c-1.613-0.647-4.839-0.504-7.635-0.863c-2.795-0.359-5.16-1.222-7.328-1.473
	c-2.167-0.252-4.138,0.108-5.715,1.079c-1.576,0.97-2.759,2.552-4.11,2.587c-1.351,0.036-2.871-1.474-4.025-2.121
	c-1.154-0.647-1.942-0.431-2.815-0.539c-0.872-0.108-1.83-0.54-2.421-1.941c-0.592-1.402-0.816-3.775-3.182-4.586
	c-2.365-0.813-6.87-0.064-10.305,0.454c-3.435,0.518-5.8,0.805-8.052,1.128c-2.252,0.324-4.392,0.683-6.363,1.007
	c-1.971,0.324-3.771,0.611-6.222,0.683c-2.449,0.071-5.545-0.072-7.009-1.079c-1.465-1.006-1.296-2.875-1.746-3.702
	s-1.521-0.611-3.463,0.324c-1.942,0.935-4.758,2.588-6.813,3.415c-2.056,0.827-3.35,0.827-4.308,0.144
	c-0.957-0.684-1.576-2.049-1.999-3.092c-0.422-1.042-0.647-1.761-0.703-2.516c-0.057-0.755,0.056-1.546-0.535-2.121
	c-0.592-0.575-1.886-0.935-2.449-2.157s-0.395-3.308-0.676-4.457c-0.281-1.151-1.014-1.367-2.646-0.936
	c-1.633,0.432-4.166,1.51-7.348,3.164c-3.181,1.653-7.01,3.882-10.05,6.254c-3.041,2.373-5.293,4.889-7.095,6.435
	c-1.802,1.545-3.153,2.12-4.828,2.462c-1.675,0.341-3.675,0.449-5.321,1.042c-1.646,0.593-2.942,1.671-3.843,1.312
	c-0.901-0.359-1.408-2.157-2.9-2.229c-1.491-0.072-3.969,1.582-5.377,1.798c-1.407,0.216-1.745-1.007-1.576-2.409
	c0.169-1.402,0.845-2.983,0.479-3.487c-0.365-0.503-1.773,0.072-3.547,0.108c-1.773,0.036-3.913-0.467-4.955-1.438
	c-1.042-0.97-0.985-2.408-1.069-3.917c-0.085-1.51-0.311-3.091-1.07-3.918c-0.76-0.827-2.055-0.899-3.8-0.971
	c-1.746-0.072-3.942-0.144-5.378-1.006s-2.111-2.517-3.293-3.056c-1.183-0.54-2.872,0.036-4.167-0.252
	c-1.295-0.288-2.196-1.438-2.506-3.126c-0.31-1.69-0.028-3.919-0.338-5.429s-1.21-2.301-1.999-2.804
	c-0.788-0.503-1.464-0.719-3.406-0.971c-1.942-0.251-5.151-0.539-7.995-0.287c-2.843,0.251-5.32,1.042-6.56,2.516
	c-1.238,1.474-1.238,3.631-0.703,5.284c0.534,1.654,1.604,2.804,2.139,3.81s0.535,1.869-0.196,2.588
	c-0.732,0.719-2.196,1.294-3.266,1.654c-1.07,0.359-1.746,0.503-2.563-0.145c-0.816-0.647-1.773-2.084-3.322-4.924
	c-1.548-2.84-3.688-7.082-4.194-9.813c-0.507-2.732,0.619-3.955,0.704-5.608c0.085-1.653-0.873-3.738-2.394-4.493
	c-1.52-0.755-3.604-0.18-5.827,0.288c-2.224,0.467-4.589,0.827-6.25,0.288c-1.661-0.54-2.618-1.977-2.394-2.912
	c0.226-0.935,1.634-1.366,2.815-1.438c1.183-0.072,2.141,0.216,2.731-0.683c0.591-0.898,0.816-2.983,0.732-4.35
	c-0.085-1.366-0.479-2.013-1.465-2.049c-0.984-0.036-2.562,0.539-4.054,0.827s-2.899,0.288-4.181,0
	c-1.28-0.287-2.436-0.862-4.673-1.976c-2.238-1.114-5.56-2.768-7.249-4.097c-1.689-1.33-1.746-2.337-2.14-2.696
	c-0.395-0.359-1.126-0.072-3.688,0.144c-2.562,0.216-6.953,0.359-9.628,0c-2.674-0.359-3.631-1.222-4.561-1.653
	c-0.929-0.432-1.83-0.432-3.181-0.072c-1.352,0.359-3.153,1.078-4.392,1.869c-1.239,0.791-1.915,1.653-2.815,1.977
	c-0.901,0.323-2.027,0.107-3.293,0.323c-1.267,0.216-2.675,0.863-3.238,1.582c-0.563,0.718-0.281,1.51-0.197,2.408
	s-0.028,1.905-1.042,2.696s-2.928,1.365-5.658,2.013c-2.731,0.647-6.278,1.366-9.15,1.582c-2.872,0.216-5.067-0.072-6.221-0.611
	c-1.154-0.539-1.267-1.33-1.07-2.373s0.704-2.336,0.619-3.667s-0.76-2.696-1.182-3.739c-0.422-1.042-0.591-1.761-1.014-2.049
	s-1.098-0.144-5.997-0.431c-4.898-0.288-14.02-1.006-18.58-1.977c-4.561-0.971-4.561-2.193-4.702-3.163
	c-0.141-0.971-0.422-1.69-1.238-2.157s-2.168-0.683-3.632-0.719c-1.464-0.036-3.04,0.108-4.363,0.252
	c-1.323,0.144-2.394,0.288-2.928,0.683c-0.535,0.395-0.535,1.042-1.267,1.366c-0.732,0.323-2.196,0.323-4.223-0.18
	c-2.027-0.503-4.618-1.51-6.982-3.163c-2.365-1.654-4.504-3.954-5.208-6.111c-0.704-2.157,0.028-4.17,0.451-6.183
	c0.422-2.014,0.535-4.026,0.084-6.111c-0.45-2.085-1.464-4.242-2.843-9.203c-1.379-4.961-3.125-12.725-4.392-18.261
	c-1.267-5.536-2.055-8.843-2.336-11.466c-0.282-2.625-0.057-4.565-0.395-5.572c-0.338-1.006-1.238-1.078-2.73-2.01
	c-1.492-0.932-3.575-2.723-5.433-3.619c-1.858-0.896-3.491-0.896-4.702-0.288c-1.21,0.608-1.999,1.825-3.435,1.825
	c-1.436,0-3.519-1.216-4.758-1.825c-1.239-0.608-1.633-0.608-1.745,6.039c-0.113,6.647,0.056,19.941,0.141,26.589
	s0.084,6.647-0.084,6.72c-0.169,0.071-0.507,0.215-5.208,0.215c-4.702,0-13.767-0.144-37.554-0.251
	c-23.788-0.108-62.299-0.18-81.554-0.143C36.5,126.216,36.5,126.359,36.5,127.114s0,2.121,0.591,4.278
	c0.59,2.156,1.771,5.104,2.446,7.549c0.675,2.444,0.844,4.385,1.098,6.11c0.253,1.726,0.591,3.235,1.126,4.853
	c0.535,1.618,1.267,3.343,2.083,5.5c0.816,2.157,1.718,4.745,1.38,7.261s-1.914,4.961-2.815,6.974
	c-0.901,2.013-1.125,3.594-0.788,5.967c0.338,2.373,1.239,5.536,1.239,8.268s-0.9,5.032-0.957,7.333
	c-0.057,2.301,0.731,4.601,1.182,6.615c0.451,2.013,0.563,3.738,0.113,6.039c-0.45,2.3-1.464,5.176-1.464,7.548
	c0,2.373,1.014,4.242,2.309,7.98c1.295,3.738,2.872,9.346,5.18,16.32c2.309,6.974,5.349,15.313,7.657,21.64
	c2.309,6.326,3.885,10.64,4.73,14.81c0.844,4.169,0.957,8.196,1.069,14.882c0.113,6.686,0.225,16.032,0.451,23.293
	c0.225,7.261,0.563,12.438,0.675,15.961s0,5.392,0.395,7.621c0.394,2.229,1.294,4.816,2.308,7.118c1.014,2.3,2.14,4.313,2.083,7.404
	c-0.056,3.092-1.295,7.262-1.577,10.209c-0.282,2.948,0.394,4.673,0.281,6.974c-0.112,2.3-1.013,5.176-0.9,7.477
	c0.112,2.301,1.238,4.025,2.139,6.255c0.901,2.229,1.576,4.96,2.083,8.052c0.506,3.092,0.845,6.542,1.632,9.418
	c0.789,2.875,2.027,5.176,3.548,6.83c1.52,1.653,3.322,2.659,4.053,4.241c0.732,1.582,0.394,3.738,0.338,6.687
	c-0.056,2.947,0.169,6.686,0.789,9.633c0.619,2.948,1.632,5.105,2.139,7.118s0.507,3.882,0.112,5.823
	c-0.394,1.941-1.182,3.954-1.182,6.039s0.788,4.241,0.294,7.404c-0.494,3.164-2.27,7.334-4.001,10.426
	c-1.733,3.092-3.422,5.104-4.942,7.261c-1.52,2.157-2.872,4.458-5.18,6.398c-2.308,1.941-5.574,3.522-7.319,5.393
	c-1.745,1.869-1.97,4.025-0.957,6.542c1.014,2.517,3.266,5.392,5.124,7.908c1.858,2.517,3.322,4.673,4.448,6.542
	c1.126,1.87,1.915,3.451,3.322,3.954c1.408,0.504,3.434-0.071,5.799,0.647c2.365,0.719,5.067,2.731,6.418,4.96
	c1.351,2.229,1.351,4.674,1.323,7.692c-0.028,3.021-0.084,6.614,0,27.347C86.461,566.401,86.688,604.271,86.828,633.819z"/>
</svg>
