<?xml version="1.0" encoding="utf-8"?>
<!-- Generator: Adobe Illustrator 15.1.0, SVG Export Plug-In . SVG Version: 6.00 Build 0)  -->
<!DOCTYPE svg PUBLIC "-//W3C//DTD SVG 1.1//EN" "http://www.w3.org/Graphics/SVG/1.1/DTD/svg11.dtd">
<svg version="1.1" id="Layer_1" xmlns="http://www.w3.org/2000/svg" xmlns:xlink="http://www.w3.org/1999/xlink" x="0px" y="0px"
	 width="792px" height="612px" viewBox="0 0 792 612" enable-background="new 0 0 792 612" xml:space="preserve">
<path fill-rule="evenodd" clip-rule="evenodd" stroke="#000000" stroke-width="2.9999" stroke-linecap="round" stroke-linejoin="round" stroke-miterlimit="22.9256" d="
	M114.833,397.329c42.858,0.798,115.669,2.012,168.439,2.562s85.5,0.436,106.597,0.315c21.096-0.12,30.561-0.247,35.23,0.132
	c4.67,0.379,4.543,1.262,4.417,2.146c-0.126,0.883-0.252,1.767,0.757,2.492c1.01,0.726,3.155,1.293,4.701,2.776
	c1.546,1.482,2.492,3.88,2.997,5.332c0.505,1.45,0.567,1.955,2.145,1.893c1.578-0.063,4.669-0.694,7.351-0.505
	c2.683,0.189,4.953,1.198,5.932,3.502c0.979,2.303,0.662,5.899,1.104,7.949c0.441,2.052,1.64,2.556,2.902,3.345
	c1.262,0.788,2.587,1.861,3.281,4.479s0.758,6.783,0.663,10.032c-0.095,3.25-0.348,5.584,1.167,8.076
	c1.515,2.493,4.796,5.143,7.035,6.72c2.24,1.578,3.439,2.082,4.606,1.956s2.303-0.883,3.754-0.662s3.218,1.42,4.102,3.218
	c0.883,1.799,0.883,4.196,1.577,5.237s2.082,0.726,3.438,0.41s2.682-0.631,3.471,0s1.041,2.208,2.871,4.385
	s5.236,4.953,10.158,7.981c4.922,3.029,11.357,6.311,21.831,12.021s24.985,13.849,32.399,18.549
	c7.413,4.701,7.729,5.962,7.318,8.612s-1.545,6.688-2.87,10.001s-2.84,5.899-3.912,7.981s-1.704,3.66-2.146,6.247
	s-0.694,6.183-1.356,7.697s-1.735,0.946-3.691,1.199c-1.955,0.252-4.795,1.325-6.31,2.303c-1.514,0.979-1.703,1.861-2.682,3.975
	c-0.978,2.114-2.744,5.458-3.911,8.298s-1.735,5.174-1.83,6.657c-0.095,1.482,0.283,2.113,1.608,1.766
	c1.325-0.347,3.597-1.672,6.247-3.092c2.649-1.419,5.679-2.934,7.54-4.669c1.861-1.734,2.556-3.691,3.186-5.079
	c0.632-1.388,1.199-2.209,1.704-2.146s0.946,1.01,1.83,1.609c0.883,0.6,2.208,0.852,3.659,0.946s3.029,0.031,3.66,0.883
	c0.631,0.853,0.315,2.619,0.883,3.597c0.568,0.979,2.02,1.168,4.48,0.158c2.46-1.01,5.931-3.218,8.959-3.786
	c3.028-0.567,5.615,0.505,9.464,0.189c3.85-0.315,8.96-2.019,14.607-3.66c5.647-1.64,11.83-3.217,16.814-4.006
	c4.985-0.788,8.771-0.788,11.105-0.726c2.335,0.063,3.218,0.189,6.024-0.095c2.808-0.284,7.538-0.979,15.456-4.228
	c7.918-3.25,19.022-9.055,31.705-14.859s26.942-11.609,37.542-16.595c10.601-4.984,17.541-9.148,21.2-12.619
	c3.66-3.47,4.038-6.246,2.461-7.066s-5.11,0.315-8.707,1.956s-7.256,3.786-10.348,5.805c-3.092,2.02-5.615,3.912-5.805,3.407
	s1.956-3.407,2.713-5.868s0.126-4.479-1.325-5.553c-1.451-1.072-3.723-1.198-5.048-0.631c-1.324,0.568-1.703,1.83-1.703,3.345
	c0,1.514,0.379,3.281-1.389,4.164c-1.767,0.883-5.679,0.883-8.202,0.252c-2.524-0.631-3.659-1.893-3.092-3.092
	c0.567-1.198,2.84-2.334,4.164-3.975c1.325-1.641,1.704-3.786,0.568-4.922c-1.136-1.135-3.786-1.262-7.257,0.442
	c-3.47,1.703-7.76,5.237-11.861,9.022c-4.102,3.786-8.014,7.824-11.357,10.222s-6.12,3.154-11.294,3.975s-12.746,1.704-18.992,2.271
	c-6.246,0.568-11.168,0.82-14.386,0.82s-4.732-0.252-5.805,0.568c-1.073,0.82-1.704,2.713-2.903,3.975
	c-1.198,1.262-2.965,1.893-6.057,1.388c-3.092-0.504-7.509-2.145-11.011-2.965s-6.089-0.82-8.328-0.063
	c-2.24,0.757-4.133,2.271-7.162,3.785c-3.028,1.515-7.192,3.028-9.748,4.417c-2.555,1.388-3.502,2.649-4.259,3.564
	s-1.325,1.483-1.735,1.42s-0.662-0.757-0.031-2.556c0.631-1.798,2.146-4.7,3.912-7.13c1.767-2.429,3.785-4.385,5.016-5.646
	s1.673-1.83,1.673-2.714c0-0.883-0.442-2.082-1.357-3.438c-0.914-1.356-2.303-2.871-3.47-4.102c-1.167-1.229-2.114-2.177-2.02-2.808
	s1.23-0.946,4.93-2.982s9.961-5.794,13.273-7.781c3.313-1.988,3.676-2.205,3.51-2.661s-0.86-1.15-2.248-3.074
	c-1.388-1.925-3.471-5.08-4.479-6.94c-1.01-1.861-0.947-2.43-0.663-9.591s0.789-20.917,1.128-34.136s0.513-25.9,0.284-32.558
	c-0.229-6.656-0.86-7.287-1.743-8.612c-0.884-1.324-2.02-3.344-1.893-7.192c0.126-3.85,1.514-9.527,4.542-20.443
	c3.029-10.916,7.698-27.068,10.348-37.101c2.65-10.032,3.281-13.944,3.597-24.293c0.315-10.348,0.315-27.131,0.189-42.653
	s-0.379-29.781-0.505-38.236c-0.126-8.455-0.126-11.105-0.694-13.188c-0.567-2.082-1.703-3.596-2.966-5.489
	c-1.262-1.893-2.649-4.164-4.101-5.237s-2.966-0.947-4.48,0.063c-1.514,1.01-3.028,2.902-3.849,3.975
	c-0.819,1.073-0.946,1.325-1.01,0.631c-0.063-0.694-0.063-2.334,0.568-4.227c0.631-1.893,1.893-4.039,3.028-6.499
	c1.136-2.461,2.146-5.237,0.505-8.266s-5.932-6.309-7.13-8.012c-1.199-1.704,0.693-1.83,2.523-1.83s3.597,0.126,4.102-1.452
	c0.505-1.577-0.253-4.858-1.389-6.309s-2.649-1.073-3.092-2.776c-0.441-1.704,0.189-5.489-0.315-7.193s-2.145-1.325-3.028-3.281
	c-0.883-1.956-1.01-6.247-0.063-10.411c0.947-4.165,2.966-8.203,5.111-10.79s4.417-3.723,5.048-6.246
	c0.631-2.524-0.379-6.437,0.188-9.023c0.568-2.587,2.714-3.849,3.345-6.814c0.631-2.966-0.252-7.635-2.461-12.43
	c-2.208-4.795-5.742-9.717-7.193-13.691c-1.451-3.976-0.82-7.004,0.505-10.159c1.325-3.155,3.345-6.436,3.533-8.896
	c0.19-2.461-1.45-4.102-2.46-6.31c-1.01-2.208-1.389-4.985-0.632-9.022c0.758-4.039,2.65-9.338,3.092-13.359
	c0.442-4.021-0.567-6.764-1.64-8.135c-1.073-1.372-2.209-1.372-7.383-1.372s-14.386,0-22.904,0.551
	c-8.518,0.551-16.342,1.653-21.578,3.025c-5.237,1.371-7.888,3.011-11.105,3.642c-3.218,0.631-7.004,0.253-17.856,0.442
	c-10.853,0.189-28.771,0.947-40.065,2.146c-11.294,1.199-15.964,2.839-19.749,4.985c-3.786,2.145-6.688,4.795-10.601,6.94
	s-8.833,3.785-14.007,7.067c-5.174,3.281-10.601,8.202-18.108,16.215c-7.509,8.013-17.1,19.118-23.094,25.933
	c-5.994,6.814-8.392,9.338-9.907,12.177c-1.514,2.839-2.145,5.994-5.047,8.329c-2.903,2.334-8.077,3.849-11.61,4.606
	c-3.534,0.757-5.426,0.757-6.814,2.713c-1.388,1.956-2.271,5.869-3.849,8.329c-1.578,2.461-3.849,3.47-6.184,3.407
	c-2.334-0.063-4.732-1.199-6.373,0.063c-1.641,1.262-2.524,4.921-3.218,7.635s-1.199,4.48-0.189,5.931
	c1.009,1.451,3.533,2.587,5.11,4.227c1.578,1.641,2.209,3.786,2.587,5.679c0.379,1.893,0.505,3.533,1.83,4.542
	c1.325,1.01,3.849,1.388,6.247,1.893s4.669,1.136,5.426,2.208c0.757,1.072,0,2.587-1.704,3.47s-4.354,1.136-6.941,1.578
	c-2.587,0.441-5.11,1.072-5.173,2.523s2.334,3.723,3.975,7.193c1.641,3.47,2.524,8.14,2.713,12.62
	c0.189,4.479-0.315,8.77-0.757,12.24c-0.442,3.471-0.821,6.121-2.271,6.689c-1.452,0.568-3.976-0.946-6.374-1.577
	c-2.397-0.631-4.669-0.379-5.931,0.568c-1.262,0.946-1.515,2.586-3.659,3.912c-2.146,1.325-6.184,2.334-8.897,4.164
	c-2.713,1.83-4.101,4.48-5.868,7.256c-1.767,2.776-3.912,5.678-6.877,7.698c-2.965,2.019-6.751,3.154-12.871,4.038
	c-6.121,0.884-14.576,1.515-22.21,1.515s-14.449-0.631-19.181-0.126c-4.732,0.505-7.383,2.146-10.348,3.597s-6.247,2.713-8.518,2.46
	s-3.533-2.019-5.931-4.542c-2.398-2.524-5.931-5.805-11.61-7.887s-13.503-2.965-23.787-3.786c-10.285-0.82-23.03-1.577-37.542-0.378
	c-14.512,1.199-30.791,4.354-40.382,6.31c-9.59,1.956-12.493,2.713-13.628,3.723c-1.136,1.009-0.505,2.271-0.252,5.805
	c0.252,3.533,0.126,9.338-0.568,12.872c-0.694,3.533-1.956,4.795-1.325,5.489c0.631,0.694,3.155,0.82,4.543,1.451
	c1.388,0.631,1.641,1.767,0.946,3.155c-0.694,1.388-2.334,3.028-1.893,3.849c0.441,0.82,2.965,0.82,4.795,1.577
	c1.83,0.757,2.965,2.271,3.344,3.723c0.378,1.452,0,2.839,0.378,4.417c0.379,1.577,1.515,3.344,2.208,5.994
	c0.694,2.65,0.946,6.183-0.504,9.337c-1.451,3.155-4.606,5.932-7.509,8.203s-5.552,4.038-7.698,7.066
	c-2.145,3.029-3.786,7.319-5.678,9.844c-1.893,2.524-4.039,3.281-8.203,5.048c-4.165,1.767-10.348,4.543-17.347,8.96
	c-7,4.416-14.815,10.474-18.722,14.007c-3.908,3.533-3.908,4.543-3.908,9.591s0,14.134,0,18.613s0,4.354,0.092,4.306
	c0.092-0.047,0.276-0.016,6.821,0.192C59.07,396.148,71.976,396.531,114.833,397.329z"/>
</svg>
