<?xml version="1.0" encoding="utf-8"?>
<!-- Generator: Adobe Illustrator 15.1.0, SVG Export Plug-In . SVG Version: 6.00 Build 0)  -->
<!DOCTYPE svg PUBLIC "-//W3C//DTD SVG 1.1//EN" "http://www.w3.org/Graphics/SVG/1.1/DTD/svg11.dtd">
<svg version="1.1" id="Layer_1" xmlns="http://www.w3.org/2000/svg" xmlns:xlink="http://www.w3.org/1999/xlink" x="0px" y="0px"
	 width="792px" height="612px" viewBox="0 0 792 612" enable-background="new 0 0 792 612" xml:space="preserve">
<path fill-rule="evenodd" clip-rule="evenodd" stroke="#000000" stroke-width="2.9999" stroke-linecap="round" stroke-linejoin="round" stroke-miterlimit="22.9256" d="
	M169.11,194.994c-0.925-1.099-2.705-2.286-3.892-3.621c-1.187-1.335-1.78-2.818-2.003-4.153c-0.223-1.335-0.074-2.522,0.519-3.82
	c0.594-1.298,1.632-2.707,1.892-3.783s-0.259-1.817-1.632-2.114c-1.372-0.296-3.597-0.148-5.155-1.001s-2.448-2.707-3.709-4.005
	c-1.261-1.298-2.893-2.04-3.82-3.078c-0.927-1.039-1.149-2.374-2.077-3.523c-0.927-1.15-2.559-2.114-3.449-3.301
	c-0.89-1.187-1.039-2.596-0.779-3.672s0.927-1.817,2.002-2.151c1.076-0.333,2.559-0.259,3.449-0.593
	c0.89-0.333,1.187-1.076,1.076-1.966s-0.63-1.928-0.223-3.412c0.408-1.483,1.743-3.412,3.338-4.376s3.449-0.964,4.042-1.928
	c0.593-0.964-0.074-2.893,0.223-4.228c0.296-1.335,1.557-2.077,2.521-1.966s1.632,1.076,2.67,1.558
	c1.039,0.482,2.448,0.482,3.523-0.111c1.075-0.594,1.817-1.78,2.04-2.708c0.222-0.927-0.074-1.595-1.001-2.003
	c-0.927-0.408-2.485-0.556-3.616-1.149s-1.835-1.632-1.613-2.874s1.372-2.688,1.112-3.708c-0.259-1.02-1.928-1.613-2.354-2.559
	c-0.427-0.946,0.39-2.244,0.297-3.208s-1.094-1.595-2.281-1.91s-2.559-0.315-3.56,0.315c-1.002,0.63-1.632,1.891-2.615,2.967
	c-0.983,1.075-2.318,1.966-4.024,2.04c-1.706,0.074-3.783-0.667-5.025-1.873c-1.243-1.206-1.651-2.875-2.336-3.579
	c-0.687-0.705-1.65-0.445-2.67-0.538s-2.095-0.538-2.522-1.372c-0.426-0.835-0.204-2.059-0.742-2.819
	c-0.538-0.761-1.835-1.057-2.726-1.595c-0.89-0.538-1.372-1.316-2.373-1.965c-1.001-0.649-2.522-1.168-3.208-2.373
	c-0.686-1.206-0.537-3.097-1.946-3.875c-1.41-0.779-4.377-0.445-5.953-1.113c-1.576-0.667-1.762-2.336-1.465-3.616
	c0.297-1.279,1.076-2.169,1.446-3.06c0.371-0.89,0.334-1.78,0.315-2.54s-0.019-1.391-0.519-2.336
	c-0.501-0.946-1.502-2.207-2.096-3.171c-0.593-0.964-0.779-1.632-1.502-2.263c-0.723-0.63-1.984-1.224-2.484-2.095
	c-0.501-0.872-0.241-2.021,0.019-3.134c0.259-1.113,0.519-2.188,0.204-2.893c-0.316-0.705-1.206-1.038-2.615-1.521
	c-1.41-0.482-3.338-1.112-4.302-2.188s-0.964-2.596-2.021-3.523s-3.171-1.261-4.821-1.224s-2.837,0.445-3.523-0.204
	c-0.686-0.649-0.872-2.355-0.074-3.245c0.797-0.89,2.577-0.965,3.041-1.817c0.464-0.853-0.389-2.485-1.335-3.542
	c-0.946-1.057-1.985-1.539-1.836-2.374s1.483-2.021,2.114-3.171c0.63-1.15,0.556-2.262-0.39-2.8
	c-0.946-0.538-2.763-0.501-3.653-1.354c-0.89-0.853-0.853-2.596-0.037-3.653c0.816-1.057,2.411-1.428,3.227-2.429
	c0.816-1.001,0.853-2.633,0.371-3.653c-0.482-1.02-1.484-1.428-2.355-0.834c-0.872,0.593-1.613,2.188-2.93,3.022
	s-3.208,0.909-4.395,0.038c-1.187-0.872-1.669-2.689-1.687-4.08c-0.019-1.391,0.426-2.355,1.001-2.929
	c0.574-0.575,1.279-0.761,5.915-0.761c4.636,0,13.203,0.186,25.571,0.649c12.368,0.464,28.538,1.206,44.17,1.984
	c15.632,0.779,30.727,1.595,46.433,2.04c15.706,0.445,32.024,0.52,47.267,0.594c15.243,0.074,29.41,0.148,46.284-0.111
	c16.875-0.26,36.456-0.853,61.453-1.594c24.996-0.742,55.407-1.632,70.835-2.096c15.428-0.463,15.873-0.5,16.615-0.092
	s1.779,1.261,2.299,2.133c0.52,0.871,0.52,1.761,0.408,2.503c-0.111,0.742-0.333,1.335,0.742,1.632s3.449,0.297,4.487,0.909
	s0.741,1.835,0.574,2.745c-0.167,0.908-0.203,1.501,0.445,2.04c0.649,0.538,1.984,1.02,2.651,1.78
	c0.668,0.76,0.668,1.798,1.392,2.244c0.723,0.445,2.169,0.296,2.93,0.946c0.76,0.649,0.834,2.095,0.815,3.504
	c-0.019,1.41-0.13,2.781,1.039,3.82c1.168,1.039,3.615,1.743,5.563,1.891c1.947,0.149,3.394-0.259,3.356,0.557
	c-0.037,0.815-1.558,2.855-2.855,4.932c-1.298,2.077-2.374,4.19-2.985,6.268c-0.612,2.077-0.761,4.117-1.243,6.286
	c-0.481,2.17-1.298,4.469-1.372,7.083s0.594,5.545,1.187,7.751c0.594,2.207,1.113,3.69,1.336,5.081
	c0.222,1.391,0.148,2.689,0.815,4.358c0.668,1.669,2.077,3.708,3.319,5.563s2.317,3.523,2.392,5.137
	c0.074,1.613-0.853,3.17-1.279,4.599c-0.427,1.428-0.352,2.726,0.186,3.968c0.538,1.243,1.539,2.429,2.559,3.208
	c1.021,0.779,2.059,1.15,2.689,1.707c0.63,0.556,0.853,1.298,1.001,2.708c0.148,1.409,0.223,3.486,0.297,4.932
	s0.148,2.262,1.595,3.801s4.265,3.801,6.527,5.767c2.262,1.965,3.968,3.634,5.748,4.636s3.635,1.335,4.339,2.244
	c0.705,0.909,0.26,2.392,0.334,3.672c0.074,1.279,0.668,2.354,1.817,2.837s2.855,0.371,4.006,0.853
	c1.149,0.482,1.743,1.558,2.503,3.235c0.761,1.678,1.688,3.959,3.311,5.906c1.622,1.947,3.94,3.561,6.972,5.517
	c3.032,1.956,6.778,4.255,10.152,6.824c3.375,2.568,6.379,5.405,8.437,7.64c2.059,2.234,3.171,3.866,3.931,5.924
	c0.761,2.058,1.169,4.543,1.892,7.232c0.724,2.689,1.762,5.582,2.003,7.528c0.241,1.947-0.314,2.949-0.815,4.247
	s-0.946,2.893-0.482,4.451c0.464,1.557,1.836,3.078,2.577,4.58c0.742,1.502,0.854,2.986,1.113,4.655
	c0.26,1.668,0.668,3.523,2.114,5.081s3.932,2.818,5.971,3.097c2.04,0.278,3.635-0.426,4.914-1.521s2.244-2.578,2.67-4.042
	c0.427-1.465,0.315-2.911,1.113-3.931c0.797-1.02,2.503-1.613,4.506-1.391c2.003,0.222,4.302,1.261,6.286,2.336
	c1.984,1.076,3.652,2.188,5.582,2.708c1.928,0.52,4.116,0.445,5.896,0.983s3.152,1.688,4.857,2.745
	c1.707,1.057,3.746,2.021,4.896,2.93c1.15,0.909,1.41,1.762,1.725,2.763c0.315,1.001,0.687,2.151,0.334,3.486
	c-0.352,1.334-1.427,2.855-2.503,3.856c-1.075,1.001-2.151,1.483-2.744,2.188c-0.594,0.705-0.705,1.632-1.169,2.744
	c-0.463,1.113-1.279,2.411-1.131,3.876c0.148,1.465,1.261,3.096,1.966,4.654c0.705,1.558,1.001,3.041,0.741,4.858
	c-0.26,1.817-1.075,3.968-2.596,6.008c-1.521,2.04-3.746,3.968-4.896,6.713c-1.149,2.744-1.224,6.304-1.706,8.715
	c-0.481,2.41-1.372,3.671-2.596,4.969c-1.224,1.298-2.781,2.633-3.672,4.191c-0.89,1.558-1.112,3.338-1.187,5.897
	s0,5.897,0.481,8.493c0.482,2.596,1.372,4.45,2.596,5.563c1.225,1.113,2.782,1.484,3.857,2.374s1.669,2.299,2.67,3.709
	c1.001,1.409,2.41,2.818,3.783,4.153c1.372,1.335,2.707,2.596,3.968,3.078s2.448,0.186,3.338,0.668
	c0.891,0.482,1.483,1.742,2.411,2.855c0.927,1.112,2.188,2.077,3.338,2.41c1.149,0.334,2.188,0.037,2.966,0.445
	c0.779,0.408,1.299,1.521,2.151,2.522c0.854,1.001,2.04,1.891,3.078,2.484c1.039,0.594,1.929,0.89,3.042,0.667
	c1.112-0.223,2.447-0.964,3.448-0.815c1.002,0.148,1.669,1.187,1.632,2.263c-0.037,1.075-0.778,2.188-1.521,3.041
	c-0.741,0.853-1.483,1.446-1.854,2.225c-0.37,0.779-0.37,1.743,0.371,2.634c0.742,0.89,2.226,1.706,3.598,1.78
	c1.372,0.073,2.633-0.594,3.672-1.521c1.038-0.927,1.854-2.113,3.226-2.188s3.301,0.964,4.08,2.114
	c0.779,1.149,0.408,2.41,1.112,3.188c0.705,0.779,2.485,1.076,3.932,1.484c1.446,0.407,2.559,0.927,3.801,1.595
	c1.243,0.667,2.615,1.483,3.356,2.503c0.742,1.02,0.854,2.244,0.742,3.431s-0.445,2.336-0.074,3.245
	c0.371,0.908,1.446,1.576,2.466,1.539s1.984-0.779,2.688-0.724c0.705,0.056,1.15,0.909,1.799,1.762
	c0.649,0.854,1.502,1.706,2.615,2.059c1.112,0.353,2.484,0.204,3.615,0.39c1.132,0.186,2.021,0.704,2.281,1.928
	c0.26,1.225-0.111,3.153,0.056,4.674s0.871,2.633,1.502,3.597c0.631,0.965,1.187,1.78,1.409,2.56s0.111,1.521-0.427,1.854
	c-0.537,0.333-1.502,0.259-2.28,0.222c-0.779-0.037-1.372-0.037-1.502,0.557s0.204,1.78,0.778,3.319
	c0.575,1.539,1.391,3.431,2.893,5.692c1.502,2.263,3.69,4.896,4.933,7.232c1.242,2.336,1.539,4.376,1.391,6.212
	s-0.741,3.467-1.966,4.45c-1.224,0.982-3.078,1.316-4.283,2.207c-1.205,0.89-1.762,2.336-1.891,3.615
	c-0.13,1.28,0.166,2.393,0.89,3.041c0.723,0.649,1.873,0.835,2.8,1.095c0.928,0.26,1.632,0.593,1.873,1.205
	c0.241,0.611,0.019,1.502-0.056,2.651c-0.074,1.15,0,2.56,0.39,3.969c0.389,1.409,1.094,2.818,2.262,4.172
	c1.169,1.354,2.801,2.651,4.006,3.895c1.205,1.242,1.983,2.429,2.113,3.485c0.13,1.058-0.389,1.984-0.611,2.912
	c-0.223,0.927-0.148,1.854,0.324,2.92c0.473,1.066,1.345,2.272,2.587,3.19c1.243,0.918,2.856,1.548,4.154,1.789
	s2.28,0.093,2.717-0.547c0.436-0.64,0.324-1.771-0.13-2.624c-0.455-0.853-1.252-1.428-2.003-2.096
	c-0.751-0.667-1.456-1.428-1.409-2.438c0.046-1.011,0.844-2.271,2.012-2.902c1.168-0.63,2.708-0.63,4.145,0.186
	c1.438,0.816,2.772,2.448,3.728,3.848c0.955,1.4,1.529,2.568,1.808,3.635s0.26,2.03,0.491,2.902c0.232,0.871,0.714,1.65,1.446,1.799
	s1.716-0.334,2.661-0.872s1.854-1.131,2.772-0.556c0.918,0.574,1.845,2.317,2.159,4.932c0.315,2.615,0.019,6.102-1.427,8.53
	c-1.446,2.43-4.043,3.802-5.211,5.137s-0.908,2.634,0.445,3.041c1.354,0.408,3.801-0.074,5.154,0.074
	c1.354,0.148,1.614,0.928,1.595,2.003c-0.018,1.076-0.314,2.448-1.038,3.189c-0.724,0.742-1.873,0.854-3.152,1.02
	c-1.279,0.168-2.688,0.39-3.431,1.483c-0.741,1.095-0.815,3.06-0.37,4.673c0.444,1.614,1.408,2.875,1.594,3.932
	s-0.407,1.91-0.964,3.301c-0.556,1.391-1.075,3.319-1.428,4.951c-0.352,1.632-0.537,2.967-1.465,3.765
	c-0.927,0.797-2.596,1.057-3.745,0.575c-1.15-0.482-1.78-1.707-2.801-3.246c-1.02-1.539-2.429-3.394-3.597-4.153
	c-1.169-0.761-2.096-0.427-3.004,0.426c-0.909,0.854-1.799,2.226-2.411,4.154s-0.945,4.414-1.428,6.639
	c-0.481,2.226-1.112,4.19-1.928,5.748c-0.816,1.559-1.817,2.708-2.93,2.764c-1.113,0.056-2.337-0.983-2.615-2.726
	c-0.277-1.743,0.39-4.191,0.52-6.12s-0.278-3.337-1.558-4.228s-3.431-1.261-5.063-1.224s-2.744,0.482-3.282,1.688
	c-0.537,1.205-0.5,3.171,0.019,4.691c0.52,1.521,1.521,2.596,2.448,3.709c0.927,1.112,1.779,2.262,2.039,3.226
	c0.26,0.965-0.073,1.743-0.444,2.727c-0.371,0.982-0.779,2.169-0.371,3.505c0.408,1.335,1.632,2.818,2.299,4.265
	c0.668,1.446,0.779,2.855,0.242,3.857c-0.538,1.001-1.725,1.594-3.208,1.52s-3.264-0.815-4.339-0.686
	c-1.076,0.13-1.447,1.131-1.28,2.299c0.167,1.169,0.872,2.504,2.393,3.189c1.521,0.687,3.857,0.724,5.137,1.446
	c1.279,0.724,1.502,2.133,1.148,3.134c-0.352,1.002-1.278,1.596-2.002,1.669c-0.724,0.074-1.242-0.37-1.817-0.204
	c-0.575,0.167-1.205,0.946-2.077,1.169c-0.871,0.223-1.983-0.111-3.115-0.371c-1.131-0.26-2.28-0.444-3.615-0.39
	c-1.336,0.056-2.855,0.353-3.171,0.965s0.574,1.539,2.15,2.707c1.577,1.168,3.839,2.577,5.322,3.839
	c1.483,1.261,2.188,2.373,2.337,3.522c0.148,1.15-0.26,2.337-1.428,3.301c-1.169,0.965-3.098,1.706-4.563,2.652
	c-1.464,0.945-2.466,2.095-2.893,3.634c-0.426,1.539-0.277,3.468-0.371,4.951c-0.092,1.483-0.426,2.521-1.038,3.097
	c-0.611,0.574-1.502,0.687-6.268,0.89c-4.766,0.204-13.406,0.501-23.587,0.857s-21.899,0.772-28.168,0.995
	c-6.267,0.223-7.083,0.251-7.473,0.062c-0.389-0.189-0.353-0.597,0.204-1.19s1.632-1.372,2.337-2.541
	c0.704-1.168,1.038-2.726,1.928-4.543c0.891-1.816,2.337-3.894,3.765-5.285c1.428-1.391,2.837-2.095,3.894-2.577
	c1.058-0.482,1.763-0.741,2.133-1.688c0.371-0.945,0.408-2.577,1.558-4.228c1.15-1.65,3.412-3.319,5.174-4.524
	s3.022-1.947,3.356-3.041c0.334-1.095-0.26-2.541,0.482-3.616s2.818-1.779,3.672-2.8c0.853-1.021,0.481-2.354,0.26-3.616
	c-0.223-1.261-0.297-2.447,0-3.485c0.297-1.039,0.964-1.929,0.537-3.005c-0.426-1.075-1.946-2.336-3.394-3.171
	c-1.446-0.834-2.818-1.242-3.394-2.077c-0.574-0.834-0.352-2.095-0.611-3.133c-0.26-1.039-1.001-1.854-1.428-2.634
	c-0.427-0.778-0.538-1.521-0.687-1.892c-0.148-0.37-0.334-0.37-5.267-0.278c-4.932,0.094-14.612,0.278-22.938,0.408
	c-8.326,0.13-15.299,0.204-50.4,0.668c-35.103,0.464-98.336,1.316-151.313,1.669c-52.978,0.353-95.702,0.204-125.867,0.204
	c-30.167-0.001-47.774,0.147-56.592,0.222c-8.818,0.074-8.846,0.074-8.868,0.067c-0.022-0.006-0.039-0.018-0.047-0.018
	c-0.009,0-0.01,0.013-0.02-1.641c-0.01-1.653-0.029-4.973,0.064-22.139c0.093-17.165,0.298-48.176,1.253-98.357
	c0.956-50.182,2.663-119.534,3.553-154.469c0.89-34.936,0.965-35.455,0.881-35.817c-0.083-0.361-0.325-0.565-0.946-0.51
	s-1.623,0.371-2.29,0.427c-0.667,0.055-1.001-0.149-1.307-0.742c-0.306-0.593-0.584-1.576-1.187-1.938
	c-0.603-0.361-1.53-0.102-2.336,0.232c-0.807,0.334-1.493,0.742-2.476,0.724c-0.983-0.019-2.262-0.464-3.041-1.271
	s-1.057-1.975-1.688-2.531s-1.613-0.501-2.485-0.695s-1.632-0.639-1.997-1.252c-0.365-0.613-0.334-1.394-0.354-2.29
	C170.105,197.104,170.035,196.093,169.11,194.994z"/>
</svg>
