<?xml version="1.0" encoding="utf-8"?>
<!-- Generator: Adobe Illustrator 15.1.0, SVG Export Plug-In . SVG Version: 6.00 Build 0)  -->
<!DOCTYPE svg PUBLIC "-//W3C//DTD SVG 1.1//EN" "http://www.w3.org/Graphics/SVG/1.1/DTD/svg11.dtd">
<svg version="1.1" id="Layer_1" xmlns="http://www.w3.org/2000/svg" xmlns:xlink="http://www.w3.org/1999/xlink" x="0px" y="0px"
	 width="792px" height="612px" viewBox="0 0 792 612" enable-background="new 0 0 792 612" xml:space="preserve">
<path fill-rule="evenodd" clip-rule="evenodd" stroke="#000000" stroke-width="2.9999" stroke-linecap="round" stroke-linejoin="round" stroke-miterlimit="22.9256" d="
	M125.608,187.572c0.787,1.679,1.304,4.436,1.735,6.504c0.431,2.067,0.775,3.446,1.981,4.566c1.206,1.12,3.273,1.981,3.963,3.704
	s0,4.308,0.604,6.29c0.603,1.981,2.498,3.36,2.584,4.738s-1.637,2.757-2.843,4.394c-1.207,1.637-1.896,3.532-2.24,5.686
	s-0.345,4.566,0.604,6.29c0.947,1.723,2.843,2.757,5.083,3.791c2.24,1.034,4.824,2.068,5.6,3.532
	c0.775,1.465-0.258,3.359-0.086,4.867s1.551,2.628,2.455,3.619c0.905,0.991,1.335,1.853,1.508,2.843s0.086,2.11,1.12,3.058
	c1.034,0.948,3.188,1.723,3.704,2.843c0.517,1.12-0.603,2.584-1.593,3.963s-1.853,2.671-1.938,3.92
	c-0.086,1.25,0.603,2.456,1.637,3.274c1.034,0.818,2.412,1.249,3.188,2.584s0.948,3.575,0.905,5.212
	c-0.043,1.637-0.302,2.67,0.56,3.662c0.862,0.991,2.843,1.938,4.652,2.8c1.81,0.861,3.446,1.637,4.222,2.757
	c0.775,1.12,0.689,2.584,0.345,4.092s-0.948,3.058-0.646,4.221c0.301,1.163,1.507,1.938,2.11,3.662s0.603,4.394-0.387,6.333
	c-0.991,1.938-2.973,3.144-3.662,4.479s-0.086,2.8,0.689,3.963c0.775,1.163,1.723,2.024,1.249,3.102
	c-0.474,1.077-2.369,2.369-3.273,3.877c-0.905,1.508-0.818,3.23-0.56,5.04s0.689,3.704,0.43,5.126
	c-0.258,1.422-1.206,2.369-1.981,3.359c-0.775,0.991-1.378,2.024-1.68,3.23c-0.301,1.207-0.301,2.585-0.732,3.576
	c-0.431,0.99-1.292,1.594-1.637,2.498s-0.172,2.11-0.388,3.273s-0.818,2.283-1.551,3.059s-1.594,1.207-2.584,1.896
	c-0.991,0.689-2.111,1.637-2.671,3.102s-0.56,3.446-0.517,4.781c0.043,1.336,0.129,2.024-0.947,2.111
	c-1.077,0.086-3.317-0.431-4.523,0.129c-1.207,0.561-1.378,2.197-1.938,3.489s-1.508,2.24-0.775,3.102s3.144,1.637,4.221,2.886
	s0.819,2.973,0.56,5.083c-0.258,2.111-0.517,4.609-1.507,6.074s-2.714,1.896-3.791,3.016c-1.077,1.12-1.508,2.929-1.25,4.652
	c0.258,1.723,1.207,3.359,1.68,4.867s0.474,2.886,1.25,3.92c0.775,1.034,2.326,1.723,3.144,3.059s0.905,3.316,0.345,4.91
	c-0.56,1.595-1.766,2.801-2.024,3.921c-0.259,1.119,0.43,2.153,0.991,3.402c0.56,1.249,0.991,2.714,1.163,4.179
	s0.086,2.929-0.948,4.307c-1.034,1.379-3.015,2.671-3.23,4.007c-0.216,1.335,1.335,2.714,1.464,4.265
	c0.129,1.551-1.163,3.273-2.757,4.651c-1.594,1.379-3.489,2.413-4.954,4.093c-1.465,1.68-2.499,4.006-3.059,6.375
	s-0.646,4.781-1.077,6.763c-0.431,1.982-1.206,3.532-3.145,4.395c-1.938,0.861-5.04,1.033-7.151,2.369
	c-2.111,1.335-3.23,3.834-2.886,5.341c0.345,1.508,2.154,2.024,3.317,3.102s1.68,2.714,2.542,3.92
	c0.861,1.206,2.067,1.981,2.756,3.145c0.689,1.163,0.862,2.714,1.465,4.265s1.637,3.102,3.274,2.455
	c1.637-0.646,3.876-3.489,6.935-5.126c3.058-1.637,6.935-2.067,10.381-2.541s6.461-0.991,9.304-1.551
	c2.843-0.56,5.514-1.163,8.616-1.896c3.101-0.732,6.634-1.594,9.477-1.464c2.843,0.129,4.997,1.249,7.582,1.507
	c2.584,0.259,5.6-0.345,8.271-0.947c2.671-0.604,4.997-1.206,8.313-0.947c3.317,0.258,7.625,1.378,13.785,3.316
	c6.16,1.938,14.172,4.695,21.839,8.228s14.99,7.84,21.064,10.812c6.074,2.973,10.898,4.609,14.732,5.083
	c3.833,0.474,6.677-0.215,10.037,0.259s7.237,2.11,10.941,3.403c3.705,1.292,7.237,2.239,10.855,1.809
	c3.618-0.431,7.323-2.239,10.898-3.359c3.575-1.12,7.021-1.551,11.458-1.551c4.437,0,9.865,0.431,14.215,2.196
	c4.351,1.767,7.625,4.868,11.071,6.893s7.064,2.973,9.649,2.973c2.584,0,4.135-0.948,5.298-2.111s1.938-2.541,3.575-3.92
	c1.637-1.378,4.135-2.757,5.643-4.006s2.024-2.369,1.378-2.671s-2.455,0.215-4.695-0.216c-2.24-0.431-4.91-1.809-8.141-3.79
	s-7.021-4.566-9.261-5.342c-2.24-0.775-2.929,0.259-4.566,1.335c-1.637,1.077-4.222,2.197-6.462,2.025
	c-2.24-0.173-4.135-1.637-5.901-2.11c-1.766-0.475-3.403,0.043-5.126,0.215s-3.532,0-4.911-1.293
	c-1.378-1.292-2.326-3.704-2.886-5.686s-0.732-3.532,0.776-5.385c1.507-1.852,4.695-4.006,9.39-6.461
	c4.695-2.456,10.898-5.212,14.905-6.936c4.006-1.723,5.815-2.412,6.375-1.378c0.56,1.033-0.129,3.79-1.164,5.901
	c-1.034,2.11-2.412,3.575-2.67,5.298c-0.258,1.724,0.603,3.704,2.369,4.652s4.437,0.861,6.591-0.172
	c2.154-1.034,3.791-3.016,5.686-4.007c1.895-0.99,4.049-0.99,6.634-0.732c2.584,0.259,5.6,0.775,7.323,1.379
	s2.154,1.292,2.412,2.412c0.259,1.12,0.345,2.671-0.172,4.438c-0.517,1.766-1.637,3.747-3.145,4.565
	c-1.507,0.818-3.403,0.475-3.705,0.948c-0.301,0.474,0.991,1.766,2.757,2.498c1.766,0.732,4.006,0.904,5.987,0.388
	c1.982-0.517,3.705-1.724,4.997-1.335c1.292,0.388,2.153,2.368,2.8,4.479c0.646,2.111,1.077,4.351,0.474,6.289
	s-2.24,3.575-1.895,4.437c0.344,0.862,2.67,0.948,4.867,0.561c2.197-0.388,4.265-1.249,6.332-1.249c2.068,0,4.136,0.861,6.505,1.615
	s5.041,1.399,6.721,2.046c1.68,0.646,2.369,1.292,3.963,1.873c1.594,0.582,4.093,1.099,5.858,1.853
	c1.767,0.754,2.8,1.745,3.726,3.016c0.927,1.271,1.745,2.821,1.659,4.545c-0.086,1.723-1.077,3.618-2.585,5.47
	c-1.508,1.853-3.532,3.662-5.255,4.847c-1.724,1.185-3.145,1.744-4.438,1.938c-1.292,0.194-2.455,0.022-2.713,0.69
	c-0.259,0.667,0.388,2.175,1.83,4.479c1.443,2.305,3.684,5.405,6.656,7.129c2.972,1.724,6.677,2.067,9.563,2.239
	c2.887,0.173,4.954,0.173,6.979,1.164c2.024,0.99,4.006,2.972,6.03,4.264c2.024,1.293,4.093,1.896,6.375,1.681
	c2.284-0.216,4.782-1.249,7.065-0.345c2.282,0.904,4.351,3.748,6.289,6.116c1.938,2.369,3.747,4.265,5.557,5.514
	c1.81,1.25,3.618,1.853,5.729,0.948c2.111-0.904,4.523-3.316,7.108-4.437c2.584-1.12,5.341-0.948,8.012-1.551
	c2.671-0.604,5.256-1.981,5.557-4.093c0.302-2.11-1.68-4.953-1.119-6.203c0.56-1.249,3.661-0.904,6.073-0.947
	s4.136-0.474,4.351-1.81c0.216-1.335-1.077-3.575-1.853-5.298s-1.033-2.929,0.388-3.403c1.422-0.474,4.523-0.215,6.376,0.732
	c1.853,0.948,2.455,2.585,3.273,4.437c0.818,1.853,1.853,3.92,3.618,4.566c1.767,0.646,4.265-0.129,5.815-1.68
	s2.154-3.877,2.951-5.794c0.796-1.917,1.787-3.425,3.036-3.597c1.249-0.173,2.757,0.99,3.769,2.713
	c1.013,1.724,1.529,4.006,2.219,6.096s1.551,3.984,2.369,5.687c0.819,1.701,1.594,3.209,1.938,4.651
	c0.345,1.443,0.259,2.821-0.28,4.028c-0.538,1.206-1.528,2.24-1.228,3.08c0.302,0.84,1.896,1.486,4.954,0.947
	s7.581-2.262,11.76-5.147c4.179-2.887,8.013-6.936,10.338-10.016c2.327-3.079,3.146-5.19,2.37-5.448
	c-0.775-0.259-3.145,1.335-5.277,1.701c-2.132,0.366-4.027-0.495-5.083-1.96s-1.271-3.532-0.883-5.428s1.378-3.618,2.52-3.727
	c1.142-0.107,2.435,1.4,3.813,2.111c1.379,0.711,2.843,0.624,3.468-0.28c0.624-0.904,0.409-2.628-0.668-3.77
	c-1.077-1.141-3.016-1.701-2.434-2.8c0.581-1.099,3.683-2.735,3.92-4.458c0.237-1.724-2.391-3.532-2.821-4.954
	c-0.431-1.421,1.335-2.455,3.145-3.339c1.81-0.883,3.661-1.614,5.298-1.938s3.058-0.237,4.889-0.539
	c1.831-0.301,4.07-0.99,5.901-1.399s3.252-0.538,3.963-0.302c0.711,0.237,0.711,0.84,0.28,1.788
	c-0.431,0.947-1.292,2.239-1.767,3.359c-0.474,1.12-0.56,2.067,0.237,2.951c0.797,0.883,2.477,1.701,2.391,2.864
	s-1.938,2.671-2.972,4.179c-1.034,1.508-1.25,3.015-0.432,4.242c0.819,1.229,2.671,2.176,5.729,2.887s7.323,1.185,10.683,1.744
	c3.36,0.561,5.815,1.207,9.089,2.456c3.274,1.249,7.366,3.102,10.339,4.522c2.973,1.422,4.824,2.412,7.215,4.114
	c2.391,1.701,5.319,4.113,7.753,6.956s4.372,6.117,5.664,8.335c1.293,2.219,1.938,3.382,1.379,5.299
	c-0.561,1.917-2.326,4.588-3.834,6.784c-1.508,2.197-2.757,3.92-3.316,5.385c-0.561,1.465-0.432,2.671,1.55,3.273
	c1.981,0.604,5.815,0.604,8.702-1.701c2.886-2.305,4.824-6.914,6.956-9.305c2.133-2.391,4.459-2.563,6.246-1.442
	c1.788,1.12,3.037,3.532,4.89,4.415s4.308,0.236,5.19-1.142c0.884-1.379,0.194-3.489,2.176-4.933s6.634-2.218,8.938-3.834
	c2.305-1.615,2.261-4.07,2.778-6.655c0.517-2.584,1.594-5.298,1.68-8.184s-0.818-5.945-2.219-6.225
	c-1.399-0.28-3.295,2.218-5.19,3.209s-3.791,0.474-4.781-1.077c-0.991-1.551-1.077-4.135-1.25-6.375
	c-0.172-2.24-0.431-4.135-1.249-4.824s-2.196-0.172-3.188-0.388c-0.99-0.216-1.594-1.163-2.412-2.714s-1.853-3.705-2.886-3.575
	c-1.034,0.129-2.067,2.541-3.705,3.316c-1.637,0.775-3.877-0.086-5.428-1.637s-2.412-3.79-3.704-3.877
	c-1.292-0.086-3.016,1.981-4.049,1.896c-1.034-0.086-1.379-2.326-2.197-3.704c-0.818-1.379-2.11-1.896-3.963-1.853
	s-4.265,0.646-6.505,0.56c-2.239-0.086-4.308-0.861-5.858-1.249s-2.584-0.388-2.972-2.11s-0.13-5.169-0.604-6.721
	c-0.474-1.55-1.68-1.205-2.972-1.895c-1.293-0.689-2.671-2.412-4.394-3.489c-1.724-1.077-3.791-1.508-5.644-3.059
	s-3.489-4.222-4.308-6.332c-0.818-2.111-0.818-3.661-0.086-5.04s2.196-2.585,4.522-2.757s5.515,0.689,8.701,1.809
	c3.188,1.121,6.376,2.499,8.013,1.896c1.637-0.603,1.723-3.188,0-4.824s-5.256-2.326-8.142-3.36
	c-2.886-1.033-5.126-2.412-6.849-4.092c-1.724-1.68-2.93-3.661-1.681-5.083c1.25-1.422,4.954-2.283,7.97-1.551
	s5.341,3.059,7.495,4.738s4.135,2.714,5.557,1.981c1.422-0.731,2.283-3.23,3.446-5.385c1.163-2.153,2.627-3.963,4.351-3.919
	c1.724,0.043,3.704,1.938,5.987,2.067c2.283,0.129,4.868-1.508,5.988-3.145c1.119-1.637,0.775-3.274-0.646-3.532
	c-1.422-0.259-3.92,0.861-6.03,0.56c-2.111-0.302-3.834-2.024-4.179-3.64s0.688-3.123,2.498-3.704
	c1.81-0.582,4.394-0.237,6.741-0.948c2.348-0.71,4.459-2.477,5.967-4.76c1.507-2.282,2.411-5.083,2.434-7.56
	c0.021-2.477-0.84-4.631-2.068-5.385c-1.228-0.754-2.821-0.107-4.265,1.594c-1.442,1.702-2.735,4.459-3.963,6.312
	c-1.228,1.852-2.391,2.8-3.64,3.144c-1.249,0.345-2.584,0.087-2.821-1.249c-0.237-1.335,0.624-3.747,0.517-5.169
	c-0.107-1.421-1.185-1.853-2.649-2.089c-1.465-0.237-3.316-0.28-3.618-1.164c-0.302-0.883,0.947-2.605,2.8-3.919
	s4.308-2.219,4.954-3.877c0.646-1.658-0.517-4.07-1.745-4.544c-1.228-0.474-2.52,0.99-4.846,0.861
	c-2.326-0.13-5.687-1.853-8.099-2.326s-3.877,0.302-4.351,1.529s0.043,2.907-0.194,4.222c-0.236,1.313-1.228,2.262-2.821,3.123
	s-3.791,1.637-4.867,2.563c-1.077,0.927-1.034,2.003-0.861,3.877c0.172,1.874,0.473,4.545,0.624,6.375
	c0.15,1.831,0.15,2.821-0.064,3.941c-0.216,1.12-0.646,2.37-1.701,3.296s-2.735,1.529-4.459,1.615
	c-1.723,0.086-3.488-0.345-5.233-1.357c-1.745-1.012-3.468-2.605-4.243-4.803s-0.603-4.996-1.249-6.052s-2.111-0.366-3.274,0.107
	c-1.163,0.475-2.024,0.732-2.972,0.904c-0.948,0.173-1.981,0.259-3.21-0.517c-1.228-0.775-2.648-2.412-3.381-4.372
	s-0.775-4.243,0.043-6.096c0.818-1.852,2.498-3.273,4.156-3.23c1.659,0.043,3.296,1.551,4.933,2.628
	c1.638,1.077,3.274,1.723,3.661,1.313c0.388-0.409-0.473-1.874-0.042-3.016c0.431-1.141,2.153-1.96,3.597-2.348
	c1.442-0.387,2.605-0.344,3.123-1.142c0.517-0.796,0.388-2.433,1.055-3.92c0.668-1.485,2.133-2.82,4.179-4.113
	c2.046-1.292,4.674-2.542,6.117-3.898c1.443-1.357,1.701-2.821,0.84-3.877s-2.843-1.701-4.114-2.692
	c-1.271-0.99-1.83-2.326-1.896-3.683c-0.064-1.357,0.367-2.735,0.194-3.813c-0.172-1.076-0.947-1.852-1.637-2.368
	c-0.689-0.518-1.292-0.776-1.142-1.961c0.151-1.185,1.056-3.295,1.077-4.824s-0.84-2.477-2.024-3.316
	c-1.186-0.84-2.692-1.573-3.36-2.758s-0.495-2.821-0.259-4.308c0.237-1.485,0.539-2.82-0.043-4.049
	c-0.581-1.228-2.046-2.348-3.359-3.532c-1.314-1.185-2.477-2.434-3.941-3.834c-1.465-1.399-3.23-2.951-5.148-5.449
	c-1.916-2.498-3.984-5.945-5.233-9.391c-1.249-3.446-1.68-6.893-1.831-10.295c-0.15-3.403-0.021-6.764,1.186-9.865
	c1.206-3.101,3.488-5.944,4.587-8.485c1.099-2.542,1.013-4.781,2.11-7.452c1.099-2.67,3.382-5.771,4.437-8.184
	c1.056-2.413,0.884-4.136,0.818-5.169c-0.064-1.034-0.021-1.378-0.043-1.551s-0.107-0.172-5.987-0.172s-17.554,0-53.759,0.302
	c-36.206,0.302-96.943,0.905-126.87,1.202s-29.043,0.289-28.15-0.11s1.798-1.187,2.746-2.27c0.947-1.083,1.938-2.461,1.507-4.164
	c-0.431-1.701-2.283-3.726-3.812-5.363c-1.529-1.637-2.735-2.886-2.261-4.308c0.474-1.421,2.627-3.015,4.049-4.458
	c1.422-1.443,2.111-2.735,0.991-4.308c-1.121-1.572-4.049-3.424-5.557-5.062c-1.508-1.637-1.594-3.059-0.151-3.833
	c1.443-0.776,4.415-0.905,7.345-1.163c2.929-0.258,5.814-0.646,7.3-1.874c1.486-1.228,1.572-3.295,0.495-5.277
	c-1.077-1.982-3.316-3.877-5.04-5.6s-2.929-3.273-1.981-3.748c0.947-0.474,4.049,0.129,5.901-0.646s2.455-2.929,2.326-4.695
	c-0.129-1.766-0.991-3.145-1.938-4.48s-1.981-2.627-1.637-3.963c0.345-1.335,2.068-2.714,4.351-4.351
	c2.283-1.637,5.126-3.533,5.428-5.04c0.301-1.508-1.938-2.628-3.059-4.222s-1.12-3.662-0.216-5.04
	c0.905-1.378,2.714-2.067,3.791-4.307c1.077-2.24,1.422-6.031,4.264-7.797c2.844-1.766,8.185-1.507,11.285-2.498
	c3.102-0.991,3.963-3.23,2.455-4.867c-1.508-1.637-5.384-2.671-6.504-4.825s0.517-5.428,2.8-7.064s5.212-1.637,7.581-2.714
	c2.369-1.077,4.179-3.23,5.04-5.384c0.861-2.154,0.775-4.308,2.585-5.557c1.809-1.25,5.514-1.594,7.624-2.801
	c2.111-1.206,2.628-3.273,1.292-4.695c-1.335-1.422-4.522-2.197-6.849-3.36c-2.326-1.164-3.791-2.714-2.499-3.748
	s5.342-1.551,9.175-2.154c3.834-0.603,7.452-1.292,8.013-3.23c0.56-1.938-1.938-5.126-4.695-5.256
	c-2.757-0.129-5.772,2.8-8.745,3.231c-2.972,0.431-5.901-1.637-5.557-4.264c0.345-2.628,3.964-5.816,7.452-7.064
	c3.489-1.25,6.85-0.561,9.908-0.561c3.058,0,5.814-0.689,7.021-2.153c1.207-1.465,0.862-3.705,2.154-4.954s4.222-1.508,5.771-2.757
	c1.552-1.249,1.724-3.489,0.819-4.566c-0.905-1.077-2.886-0.991-5.428-1.206s-5.644-0.732-6.936-2.154
	c-1.292-1.422-0.775-3.748,0.259-5.212s2.584-2.067,2.843-3.188s-0.775-2.757-2.585-3.188c-1.809-0.431-4.394,0.344-7.581,0.129
	s-6.979-1.421-8.442-3.36c-1.465-1.938-0.604-4.609,1.378-6.375c1.981-1.767,5.083-2.628,7.84-4.437s5.169-4.566,6.159-7.107
	c0.991-2.542,0.561-4.868-0.689-5.944c-1.249-1.077-3.316-0.905-4.651-0.043c-1.336,0.862-1.938,2.412-3.016,3.705
	s-2.628,2.326-4.222,2.24c-1.594-0.086-3.23-1.292-2.929-3.446c0.302-2.154,2.541-5.256,4.824-7.625
	c2.283-2.37,4.609-4.006,4.781-5.298c0.173-1.292-1.809-2.24-3.618-2.456s-3.446,0.301-4.997,0.086
	c-1.551-0.216-3.015-1.164-3.79-2.327c-0.776-1.163-0.862-2.542-0.13-4.394s2.283-4.178,4.738-6.72
	c2.455-2.541,5.815-5.298,6.85-8.356s-0.259-6.418-2.154-8.185s-4.394-1.938-5.471-0.689c-1.076,1.249-0.731,3.92-3.102,6.289
	c-2.369,2.369-7.452,4.437-8.744,3.489s1.206-4.911,2.972-7.625c1.767-2.714,2.801-4.179,2.844-4.782s-0.904-0.345-3.231-0.258
	c-2.325,0.086-6.03,0-54.448-0.345s-141.548-0.947-192.57-1.28s-59.933-0.395-64.381-0.418c-4.449-0.024-4.436-0.009-4.427,0.076
	c0.008,0.084,0.011,0.239-0.021,2.04s-0.096,5.246-0.343,27.819c-0.248,22.571-0.678,64.27-0.892,84.99
	c-0.214,20.72-0.211,20.462,0.004,20.57c0.215,0.107,0.643,0.581,1.568,1.398c0.924,0.818,2.346,1.981,3.25,3.618
	c0.905,1.637,1.292,3.748,2.606,5.104c1.313,1.357,3.553,1.959,5.202,2.562C123.763,185.291,124.82,185.893,125.608,187.572z"/>
</svg>
