<?xml version="1.0" encoding="utf-8"?>
<!-- Generator: Adobe Illustrator 15.1.0, SVG Export Plug-In . SVG Version: 6.00 Build 0)  -->
<!DOCTYPE svg PUBLIC "-//W3C//DTD SVG 1.1//EN" "http://www.w3.org/Graphics/SVG/1.1/DTD/svg11.dtd">
<svg version="1.1" id="Layer_1" xmlns="http://www.w3.org/2000/svg" xmlns:xlink="http://www.w3.org/1999/xlink" x="0px" y="0px"
	 width="792px" height="612px" viewBox="0 0 792 612" enable-background="new 0 0 792 612" xml:space="preserve">
<path fill-rule="evenodd" clip-rule="evenodd" stroke="#000000" stroke-width="2.9999" stroke-linecap="round" stroke-linejoin="round" stroke-miterlimit="22.9256" d="
	M754.126,457.148c-0.548-2.275-1.509-6.118-2.069-9.48s-0.72-6.244-1-8.046c-0.28-1.801-0.681-2.521-1.722-3.722
	c-1.04-1.201-2.722-2.882-4.122-4.403c-1.401-1.521-2.522-2.882-3.202-4.483c-0.681-1.601-0.921-3.441-1.401-4.563
	s-1.2-1.521-1.601-2.521c-0.4-1.001-0.48-2.602-0.601-4.283c-0.12-1.681-0.28-3.442-0.921-5.363s-1.761-4.003-2.562-5.844
	c-0.801-1.842-1.281-3.442-1.24-5.044c0.039-1.601,0.6-3.201,0.92-5.003c0.32-1.801,0.4-3.803,0.08-5.403
	c-0.32-1.602-1.041-2.802-1.401-3.883c-0.359-1.081-0.359-2.041-0.119-2.962c0.239-0.921,0.72-1.801,1.44-3.803
	c0.721-2.001,1.681-5.123,1.561-6.925c-0.12-1.801-1.32-2.281-2.281-3.402c-0.961-1.12-1.681-2.882-2.401-4.442
	c-0.721-1.562-1.441-2.922-1.521-4.083c-0.08-1.16,0.48-2.121,0.801-3.322s0.4-2.642,0.48-4.163c0.08-1.521,0.16-3.122-0.2-4.442
	c-0.36-1.321-1.161-2.361-1.201-3.522s0.681-2.441,0.561-3.603c-0.12-1.16-1.081-2.201-1.281-3.802
	c-0.2-1.602,0.36-3.763,0.561-5.524c0.2-1.761,0.04-3.122-0.2-4.282c-0.24-1.161-0.561-2.121-0.4-3.402s0.801-2.882,0.881-4.483
	c0.08-1.601-0.4-3.202-1.001-4.242c-0.601-1.041-1.32-1.521-1.44-2.683c-0.12-1.16,0.36-3.002,0.68-4.923
	c0.32-1.921,0.48-3.923,0.12-5.043c-0.359-1.121-1.24-1.361-1.4-2.242c-0.16-0.88,0.4-2.402,0.721-4.002
	c0.32-1.602,0.4-3.282,0.12-4.243c-0.28-0.96-0.921-1.201-1.521-1.721s-1.16-1.321-1.44-2.561c-0.28-1.241-0.28-2.922-0.961-4.604
	s-2.041-3.362-2.802-5.123c-0.761-1.762-0.921-3.603-1.481-4.804c-0.561-1.201-1.521-1.761-2.441-2.521
	c-0.92-0.76-1.801-1.721-2.201-3.002s-0.32-2.882-0.601-4.083c-0.28-1.201-0.921-2.001-1.241-2.401c-0.32-0.4-0.32-0.4-0.64-1.041
	c-0.32-0.641-0.961-1.921-1.301-2.962c-0.341-1.041-0.381-1.841-0.821-2.542c-0.439-0.701-1.28-1.301-1.821-2.062
	c-0.54-0.76-0.78-1.681-0.84-2.882c-0.061-1.201,0.06-2.682-0.181-4.223c-0.239-1.541-0.84-3.142-1.261-4.143
	c-0.42-1.001-0.66-1.401-1.081-2.042c-0.42-0.641-1.021-1.521-1.221-2.522c-0.2-1,0-2.122-0.279-2.941
	c-0.281-0.821-1.041-1.341-1.642-1.921s-1.041-1.221-1.321-2.162c-0.28-0.941-0.399-2.182-0.28-3.542
	c0.12-1.361,0.48-2.842,0.46-3.942c-0.02-1.101-0.42-1.821-0.3-2.942c0.12-1.121,0.76-2.642,0.68-4.163
	c-0.079-1.521-0.88-3.042-0.96-4.443c-0.08-1.401,0.561-2.682,0.28-4.163c-0.28-1.48-1.481-3.162-1.361-4.683
	c0.12-1.521,1.562-2.882,1.841-4.563c0.28-1.681-0.6-3.682-0.8-5.323c-0.2-1.642,0.28-2.922-0.04-4.563
	c-0.32-1.642-1.441-3.643-1.602-5.564c-0.16-1.921,0.641-3.763,1.642-5.524s2.201-3.442,2.962-5.124s1.081-3.362,0.681-4.683
	c-0.4-1.321-1.521-2.281-2.441-3.722c-0.921-1.441-1.642-3.362-2.322-4.963c-0.681-1.601-1.32-2.882-1.501-4.403
	c-0.18-1.521,0.101-3.282,0.02-4.863c-0.08-1.582-0.52-2.982-1.32-4.363s-1.961-2.742-2.762-4.203
	c-0.801-1.461-1.241-3.022-1.341-4.403c-0.101-1.381,0.14-2.582,0.22-3.362s0-1.141-0.3-1.341c-0.301-0.2-0.82-0.24-2.002-0.26
	c-1.181-0.02-3.021-0.02-98.824-0.143c-95.804-0.123-285.568-0.369-393.589-0.492C89.679,129.44,63.402,129.44,50.233,129.44
	s-13.229,0-13.293,0c-0.065,0-0.136,0-0.209,0c-0.074,0-0.152,0-0.191,3.08c-0.039,3.08-0.039,9.24-0.039,60.412
	c0,51.172,0,147.355,0,203.046s0,70.893,0,78.532c0,7.641,0,7.721,0,7.825c0,0.105,0,0.235,0.174,0.28s0.522,0.006,2.328-0.005
	c1.805-0.01,5.067,0.011,7.849,0.005c2.782-0.005,5.083-0.035,94.033,0.125c88.948,0.161,264.544,0.511,381.316,0.677
	c116.772,0.165,174.721,0.145,203.734,0.135c29.015-0.011,29.095-0.011,29.194-0.011c0.101,0,0.22,0,0.285-0.305
	s0.075-0.916-0.027-1.911s-0.318-2.377-0.591-3.873s-0.603-3.106-0.249-4.514c0.353-1.405,1.39-2.606,1.77-3.807
	c0.38-1.201,0.104-2.402-0.234-3.783s-0.738-2.941-1.006-4.078C754.809,460.137,754.674,459.426,754.126,457.148z"/>
</svg>
