<?xml version="1.0" encoding="utf-8"?>
<!-- Generator: Adobe Illustrator 15.1.0, SVG Export Plug-In . SVG Version: 6.00 Build 0)  -->
<!DOCTYPE svg PUBLIC "-//W3C//DTD SVG 1.1//EN" "http://www.w3.org/Graphics/SVG/1.1/DTD/svg11.dtd">
<svg version="1.1" id="Layer_1" xmlns="http://www.w3.org/2000/svg" xmlns:xlink="http://www.w3.org/1999/xlink" x="0px" y="0px"
	 width="792px" height="612px" viewBox="0 0 792 612" enable-background="new 0 0 792 612" xml:space="preserve">
<path fill-rule="evenodd" clip-rule="evenodd" stroke="#000000" stroke-width="2.9999" stroke-linecap="round" stroke-linejoin="round" stroke-miterlimit="22.9256" d="
	M142.57,294.451c-1.478-0.929-3.367-2.251-4.689-4.14c-1.322-1.889-2.078-4.345-2.833-6.296c-0.756-1.952-1.511-3.4-2.676-4.187
	c-1.165-0.787-2.739-0.913-4.156-1.196c-1.417-0.284-2.675-0.724-3.872-1.7s-2.33-2.487-2.865-3.777
	c-0.535-1.291-0.472-2.361-0.283-3.18c0.188-0.818,0.503-1.385,0.472-2.046c-0.032-0.661-0.41-1.417-0.536-1.731
	c-0.125-0.315,0-0.189,25.09-0.189c25.089,0,75.143-0.126,100.201-0.221c25.058-0.095,25.121-0.157,25.215-0.692
	c0.094-0.536,0.22-1.542,0.157-7.114c-0.063-5.572-0.314-15.709-0.377-53.383c-0.063-37.674,0.063-102.886,0.127-135.492
	C271.61,36.5,271.61,36.5,272.491,36.5s2.645,0,23.597,0c20.953,0,61.096,0,81.167,0s20.071,0,20.902,0s2.494,0,3.321,0.213
	c0.826,0.213,0.816,0.639,0.453,16.875c-0.363,16.237-1.081,48.283-1.443,64.479c-0.363,16.197-0.371,16.543-0.385,17.172
	c-0.015,0.63-0.035,1.543,0.396,1.496s1.313-1.055,2.241-1.291s1.904,0.299,2.88,1.369c0.976,1.071,1.952,2.676,3.447,4.392
	c1.495,1.716,3.51,3.542,4.927,4.344c1.416,0.803,2.235,0.583,2.755,0.236c0.519-0.347,0.739-0.819,1.086-1.338
	c0.346-0.52,0.818-1.086,1.92-0.913c1.103,0.173,2.833,1.086,3.951,1.605c1.117,0.52,1.621,0.646,2.046,0.22
	c0.425-0.425,0.771-1.401,0.944-2.219s0.173-1.479,0.488-1.558c0.314-0.079,0.944,0.425,1.338,0.85
	c0.394,0.425,0.551,0.771,1.038,0.913c0.488,0.142,1.308,0.079,1.905,0.394c0.598,0.314,0.976,1.007,1.354,1.668
	s0.755,1.29,0.976,2.109c0.221,0.818,0.283,1.826,0.488,2.896c0.205,1.07,0.551,2.203,1.133,2.864
	c0.583,0.661,1.401,0.85,2.66,0.992c1.26,0.142,2.96,0.236,4.171,0.11c1.213-0.126,1.937-0.472,2.786-0.267
	c0.851,0.204,1.826,0.96,2.881,1.495c1.055,0.536,2.188,0.85,3.037,1.04c0.851,0.188,1.417,0.251,1.983,0.425
	s1.133,0.457,1.935,0.269c0.804-0.189,1.842-0.85,2.881-0.882c1.039-0.031,2.078,0.567,2.896,1.354s1.416,1.763,2.392,2.282
	c0.977,0.519,2.33,0.583,3.306-0.142c0.977-0.724,1.574-2.235,2.424-2.991c0.851-0.755,1.952-0.755,2.943-0.456
	c0.992,0.299,1.873,0.897,3.069,0.944c1.196,0.047,2.708-0.457,3.951-0.519c1.243-0.063,2.22,0.314,2.455,1.055
	c0.236,0.74-0.268,1.841-0.44,2.738c-0.173,0.897-0.016,1.59,0.456,2.283c0.473,0.692,1.26,1.385,2.251,1.621
	c0.992,0.236,2.188,0.016,2.771,0.315c0.582,0.299,0.551,1.118,0.409,1.952s-0.393,1.684-0.094,2.376s1.148,1.228,2.297,1.385
	c1.149,0.157,2.598-0.063,3.904-0.991c1.307-0.929,2.471-2.566,3.698-3.495c1.229-0.929,2.519-1.149,3.637-0.866
	c1.117,0.284,2.062,1.07,2.691,1.826c0.63,0.756,0.944,1.48,1.542,1.605c0.599,0.126,1.48-0.346,2.251-0.157
	c0.771,0.189,1.433,1.039,1.983,1.999c0.552,0.96,0.992,2.03,1.795,2.282s1.967-0.315,3.085-0.944
	c1.117-0.63,2.188-1.322,3.18-1.936c0.991-0.614,1.904-1.149,2.502-0.834c0.599,0.314,0.882,1.479,0.85,2.754
	c-0.031,1.275-0.377,2.66-0.22,3.809c0.157,1.149,0.818,2.063,1.621,2.078s1.748-0.866,2.22-1.794s0.472-1.905,0.913-2.597
	c0.44-0.692,1.321-1.102,1.936-1.857s0.96-1.857,1.181-2.707c0.221-0.85,0.314-1.448,0.842-1.818
	c0.527-0.37,1.487-0.511,2.282-0.205c0.795,0.307,1.424,1.063,1.786,1.889c0.362,0.826,0.457,1.723,0.961,2.078
	c0.503,0.354,1.416,0.166,2.211,0.417c0.795,0.252,1.472,0.944,2.109,1.26c0.638,0.314,1.235,0.251,1.621-0.307
	c0.386-0.559,0.559-1.614,1.117-2.283c0.56-0.669,1.504-0.952,2.235-0.897c0.732,0.055,1.252,0.448,1.283,1.07
	c0.031,0.622-0.425,1.472-0.496,2.054c-0.071,0.582,0.244,0.897,0.857,1.133c0.614,0.236,1.527,0.394,2.133,0.536
	c0.606,0.142,0.905,0.268,1.149,0.708c0.244,0.441,0.433,1.196,0.96,1.472s1.394,0.071,2.038,0.063
	c0.646-0.008,1.069,0.181,1.526,0.779c0.456,0.598,0.944,1.605,1.495,2.228c0.551,0.622,1.164,0.858,1.613,0.629
	c0.448-0.228,0.732-0.921,0.921-1.653s0.283-1.503,0.653-1.755c0.369-0.252,1.015,0.016,1.573,0.252
	c0.56,0.236,1.031,0.44,1.535,0.354s1.039-0.464,1.472-1.125s0.763-1.605,1.039-2.251c0.275-0.645,0.495-0.991,0.983-1.117
	s1.244-0.032,1.952-0.016c0.708,0.016,1.369-0.047,2.077-0.229c0.709-0.181,1.464-0.48,2.338-0.803
	c0.873-0.323,1.865-0.669,2.888-0.527c1.023,0.142,2.078,0.771,2.825,1.086c0.748,0.314,1.188,0.314,1.763,0.086
	c0.575-0.228,1.283-0.685,1.724-1.141c0.441-0.457,0.614-0.913,1.142-1.031s1.408,0.102,2.219-0.008
	c0.811-0.11,1.551-0.551,2.125-0.992c0.574-0.441,0.984-0.881,1.59-0.992c0.606-0.11,1.409,0.11,2.07,0.527s1.181,1.031,2.519,1.463
	c1.338,0.433,3.494,0.685,4.95,0.874s2.211,0.314,2.88-0.165c0.669-0.48,1.252-1.566,1.881-2.338
	c0.63-0.771,1.307-1.228,2.361-1.228s2.487,0.456,3.368,1.102c0.882,0.646,1.212,1.48,1.968,2.149s1.937,1.172,2.763,1.479
	s1.299,0.417,1.833,0.708c0.535,0.292,1.134,0.764,1.551,1.307c0.417,0.543,0.652,1.157,1.18,1.716
	c0.527,0.559,1.347,1.062,2.322,1.377c0.976,0.314,2.109,0.44,2.928,0.803c0.818,0.362,1.322,0.96,2.234,1.456
	c0.913,0.496,2.235,0.889,3.321,1.188c1.087,0.299,1.937,0.503,2.574,0.889c0.637,0.385,1.063,0.952,1.778,1.33
	c0.717,0.377,1.724,0.566,2.691,0.992c0.968,0.425,1.897,1.086,2.691,1.786c0.795,0.701,1.457,1.44,2.361,1.685
	c0.905,0.244,2.054-0.008,3.533-0.331s3.29-0.716,4.715-0.874c1.424-0.158,2.463-0.079,3.195,0.047
	c0.731,0.126,1.156,0.299,1.369,0.417c0.212,0.118,0.212,0.181,0.204,1.684c-0.008,1.503-0.023,4.446,0.007,17.18
	c0.029,12.734,0.104,35.258,0.143,46.67c0.038,11.411,0.039,11.71,0.041,12.214c0.001,0.503,0.004,1.211,0.367,1.873
	s1.087,1.275,1.606,1.92c0.52,0.645,0.835,1.322,1.229,1.842c0.394,0.519,0.865,0.881,1.464,1.274
	c0.598,0.394,1.321,0.819,1.833,1.496s0.811,1.606,1.134,2.558c0.322,0.953,0.669,1.928,0.999,2.794s0.646,1.621,0.755,2.424
	c0.11,0.802,0.017,1.652-0.157,2.455c-0.173,0.803-0.425,1.558-0.535,2.298c-0.109,0.74-0.078,1.464,0.127,2.125
	c0.204,0.661,0.582,1.259,1.007,1.731c0.426,0.472,0.897,0.818,1.527,1.007c0.629,0.188,1.416,0.22,1.652,0.566
	c0.236,0.346-0.079,1.007-0.095,1.464s0.268,0.708,0.708,1.054c0.441,0.347,1.039,0.787,1.181,1.275
	c0.142,0.488-0.173,1.023-0.11,1.496c0.063,0.472,0.504,0.881,0.866,1.275s0.646,0.771,0.52,1.291s-0.661,1.181-0.599,1.968
	c0.063,0.787,0.725,1.7,1.134,2.519c0.409,0.818,0.566,1.542,0.66,2.282c0.095,0.74,0.127,1.495,0.661,2.235
	c0.535,0.74,1.574,1.464,1.811,2.203c0.236,0.74-0.33,1.496-0.268,2.188s0.756,1.322,0.866,1.936
	c0.109,0.614-0.362,1.212-0.725,1.795c-0.361,0.582-0.613,1.149-0.487,1.778c0.126,0.63,0.629,1.322,0.802,1.873
	c0.174,0.551,0.017,0.96-0.314,1.369c-0.33,0.41-0.834,0.818-0.913,1.417c-0.078,0.598,0.268,1.386,0.378,2.078
	s-0.016,1.29-0.314,1.904c-0.3,0.613-0.771,1.243-1.023,1.936s-0.283,1.448-0.425,2.188c-0.142,0.739-0.394,1.464-0.865,2.155
	c-0.473,0.693-1.165,1.354-1.653,2.016s-0.771,1.322-1.354,1.951c-0.582,0.63-1.464,1.228-1.763,1.92s-0.016,1.479,0.283,2.329
	c0.299,0.851,0.614,1.764,0.44,2.818c-0.173,1.055-0.834,2.25-1.354,3.273c-0.519,1.023-0.896,1.873-0.724,2.99
	c0.173,1.118,0.897,2.503,1.416,3.746c0.52,1.244,0.835,2.346,0.929,3.637c0.095,1.29-0.031,2.771-0.235,3.982
	c-0.205,1.211-0.488,2.156-1.307,3.415s-2.172,2.833-2.912,4.219c-0.74,1.385-0.865,2.581-1.307,3.479
	c-0.44,0.897-1.196,1.495-2.03,2.156s-1.747,1.385-1.4,2.565c0.346,1.181,1.951,2.817,3.147,4.345
	c1.196,1.526,1.983,2.943,1.921,3.557c-0.063,0.614-0.977,0.426-2.188,0.189s-2.723-0.52-4.486-0.331
	c-1.763,0.189-3.777,0.851-6.279,1.937c-2.503,1.086-5.494,2.597-9.335,4.564c-3.84,1.968-8.53,4.392-10.655,6.154
	s-1.685,2.864-1.905,3.62s-1.103,1.164-1.873,1.29c-0.771,0.126-1.433-0.031-2.487,0.787s-2.503,2.613-4.392,4.203
	s-4.218,2.975-5.809,3.935c-1.589,0.96-2.438,1.495-3.037,2.235c-0.599,0.739-0.944,1.685-1.81,2.833
	c-0.866,1.149-2.251,2.503-4.219,4.25s-4.518,3.888-6.548,5.241s-3.541,1.92-8.987,4.863s-14.828,8.264-20.636,11.758
	s-8.044,5.163-9.743,6.8c-1.7,1.637-2.864,3.242-5.289,4.974c-2.424,1.731-6.106,3.589-9.459,6.091
	c-3.353,2.503-6.375,5.651-8.484,8.232c-2.108,2.581-3.306,4.596-4.407,6.422s-2.108,3.463-3.368,5.666
	c-1.259,2.204-2.771,4.975-4.25,8.343s-2.928,7.335-4.155,11.238c-1.228,3.904-2.235,7.744-2.959,11.207
	c-0.725,3.462-1.165,6.547-1.103,10.198c0.063,3.652,0.63,7.87,1.763,12.277c1.134,4.407,2.834,9.003,3.903,12.907
	c1.07,3.903,1.512,7.114,1.952,10.104s0.882,5.761,1.228,7.901c0.347,2.141,0.599,3.652,0.347,4.69
	c-0.252,1.039-1.008,1.605-2.172,2.015c-1.165,0.409-2.739,0.661-4.188,1.07c-1.448,0.41-2.771,0.977-3.416,1.779
	c-0.645,0.803-0.613,1.842-1.022,2.345c-0.409,0.504-1.259,0.473-1.951,0.11c-0.692-0.361-1.229-1.055-1.795-1.464
	s-1.165-0.535-1.684-0.944c-0.52-0.409-0.961-1.102-1.48-1.731c-0.519-0.629-1.117-1.196-1.747-1.778
	c-0.629-0.582-1.29-1.181-1.999-1.621c-0.708-0.441-1.464-0.725-2.376-0.944c-0.913-0.221-1.983-0.378-2.85-0.661
	c-0.865-0.283-1.526-0.692-2.313-0.976s-1.7-0.441-2.598-0.41c-0.896,0.032-1.778,0.252-2.912,0.347
	c-1.133,0.095-2.518,0.063-3.636,0.095c-1.117,0.031-1.967,0.125-2.896,0.142c-0.929,0.016-1.937-0.047-3.211-0.268
	c-1.275-0.221-2.818-0.599-4.234-1.527c-1.417-0.928-2.707-2.408-3.794-3.572c-1.086-1.165-1.967-2.015-2.849-2.439
	c-0.881-0.426-1.763-0.426-2.833-0.866s-2.329-1.322-3.526-1.526c-1.196-0.205-2.329,0.268-3.305,0.094
	c-0.976-0.173-1.795-0.991-2.519-1.999c-0.725-1.007-1.354-2.203-2.44-2.99c-1.086-0.787-2.628-1.165-4.344-1.37
	c-1.716-0.204-3.604-0.235-5.131-0.44c-1.527-0.204-2.691-0.582-3.211-1.228s-0.394-1.559-0.551-2.424
	c-0.158-0.865-0.599-1.685-1.039-2.645s-0.882-2.062-1.229-3.337c-0.346-1.274-0.598-2.723-1.511-5.226s-2.486-6.06-3.903-8.295
	c-1.417-2.234-2.677-3.147-3.716-4.454s-1.857-3.007-2.015-4.675c-0.157-1.669,0.346-3.306,0.346-5.194s-0.503-4.029-1.416-5.666
	c-0.913-1.638-2.235-2.771-2.487-3.81s0.567-1.983,0.661-4.124c0.095-2.141-0.535-5.477-1.511-7.649
	c-0.976-2.172-2.298-3.18-3.777-3.809c-1.479-0.63-3.116-0.882-4.69-2.235s-3.085-3.81-4.345-5.446
	c-1.259-1.637-2.267-2.456-2.771-3.715c-0.503-1.259-0.503-2.959-1.699-5.288c-1.196-2.33-3.589-5.289-5.163-7.209
	c-1.574-1.921-2.33-2.802-3.557-3.684c-1.228-0.882-2.928-1.763-4.218-3.147c-1.291-1.386-2.172-3.274-3.022-5.446
	s-1.668-4.628-2.833-7.304c-1.165-2.675-2.676-5.571-3.652-8.373c-0.976-2.802-1.417-5.509-2.771-7.682
	c-1.354-2.172-3.62-3.809-4.564-5.854c-0.945-2.047-0.567-4.502-1.133-6.549c-0.567-2.046-2.078-3.683-2.927-5.1
	c-0.85-1.416-1.04-2.612-1.7-3.62c-0.661-1.007-1.794-1.826-3.243-2.833s-3.211-2.204-4.753-3.81s-2.865-3.619-4.313-4.848
	c-1.448-1.228-3.022-1.668-4.188-2.203c-1.165-0.536-1.92-1.165-2.518-2.361s-1.039-2.959-2.361-4.785
	c-1.323-1.826-3.526-3.715-5.541-5.037s-3.84-2.077-5.635-2.141c-1.794-0.063-3.557,0.567-5.478,0.599s-3.999-0.535-6.107-0.851
	c-2.109-0.314-4.25-0.377-5.824-0.409c-1.574-0.031-2.582-0.031-3.683-0.031c-1.102,0-2.298,0-3.872-0.692
	c-1.574-0.692-3.526-2.078-5.1-2.771c-1.574-0.692-2.771-0.692-3.557,0.283c-0.787,0.976-1.165,2.928-2.361,3.684
	s-3.211,0.314-5.131,0.504c-1.92,0.188-3.746,1.007-5.1,1.951c-1.354,0.944-2.235,2.015-3.306,4.062
	c-1.07,2.046-2.33,5.068-3.463,7.555c-1.133,2.487-2.141,4.438-2.864,6.327c-0.724,1.889-1.166,3.715-0.976,5.006
	c0.188,1.29,1.007,2.046,0.315,2.959c-0.693,0.913-2.896,1.983-4.596,3.463c-1.7,1.479-2.896,3.368-3.746,5.005
	c-0.85,1.638-1.354,3.022-2.771,3.242c-1.417,0.221-3.746-0.724-5.383-1.259c-1.637-0.535-2.582-0.661-3.495-0.566
	c-0.913,0.094-1.794,0.409-2.927-0.347s-2.519-2.581-4.25-3.777s-3.809-1.763-5.289-2.172s-2.361-0.661-3.337-1.795
	c-0.976-1.134-2.047-3.147-3.998-4.124c-1.952-0.976-4.785-0.912-7.146-1.511c-2.361-0.598-4.25-1.857-5.729-3.525
	c-1.48-1.669-2.55-3.746-3.904-5.068c-1.354-1.322-2.991-1.889-4.911-3.022c-1.92-1.133-4.124-2.833-5.666-4.407
	c-1.543-1.573-2.424-3.022-2.928-4.596c-0.503-1.574-0.63-3.274-1.605-5.478c-0.976-2.204-2.802-4.911-3.746-7.146
	c-0.945-2.234-1.007-3.998-0.976-5.949c0.031-1.952,0.158-4.093,0.031-5.698c-0.126-1.605-0.504-2.676-1.48-3.903
	s-2.55-2.613-3.526-3.967c-0.976-1.354-1.354-2.675-1.763-4.438c-0.41-1.763-0.85-3.967-1.763-5.918
	c-0.913-1.952-2.298-3.652-4.375-5.352c-2.078-1.7-4.848-3.4-7.775-5.132c-2.928-1.73-6.013-3.494-8.185-5.509
	c-2.172-2.015-3.431-4.281-5.194-6.201c-1.763-1.921-4.03-3.494-6.296-5.006c-2.267-1.511-4.533-2.959-6.233-4.69
	c-1.7-1.731-2.833-3.746-4.344-5.634c-1.511-1.889-3.4-3.652-4.878-4.801C145.117,295.915,144.049,295.379,142.57,294.451z"/>
</svg>
