<?xml version="1.0" encoding="utf-8"?>
<!-- Generator: Adobe Illustrator 15.1.0, SVG Export Plug-In . SVG Version: 6.00 Build 0)  -->
<!DOCTYPE svg PUBLIC "-//W3C//DTD SVG 1.1//EN" "http://www.w3.org/Graphics/SVG/1.1/DTD/svg11.dtd">
<svg version="1.1" id="Layer_1" xmlns="http://www.w3.org/2000/svg" xmlns:xlink="http://www.w3.org/1999/xlink" x="0px" y="0px"
	 width="792px" height="612px" viewBox="0 0 792 612" enable-background="new 0 0 792 612" xml:space="preserve">
<path fill-rule="evenodd" clip-rule="evenodd" stroke="#000000" stroke-width="2.9999" stroke-linecap="round" stroke-linejoin="round" stroke-miterlimit="22.9256" d="
	M49.515,225.406c1.137-1.849,2.966-4.326,4.646-5.535s3.214-1.15,4.423-2.153c1.209-1.002,2.094-3.066,3.391-4.04
	s3.007-0.855,4.334-0.531c1.327,0.324,2.27,0.855,3.007,0.059c0.737-0.796,1.268-2.919,2.33-4.187s2.654-1.681,3.391-2.742
	c0.737-1.062,0.619-2.772,1.828-3.627c1.209-0.855,3.745-0.855,5.308-1.917c1.563-1.062,2.152-3.185,3.332-3.922
	c1.18-0.737,2.949-0.088,4.158-0.767c1.209-0.679,1.858-2.684,3.008-3.774s2.801-1.268,4.01-2.418s1.976-3.273,2.625-5.042
	c0.649-1.769,1.18-3.185,2.801-4.187s4.334-1.592,6.044-1.681c1.71-0.088,2.418,0.325,3.863,1.416s3.626,2.86,5.485,4.364
	c1.857,1.504,3.391,2.742,4.305,2.211s1.209-2.831,2.153-4.128c0.943-1.297,2.536-1.592,3.332-2.094
	c0.796-0.501,0.796-1.208,0.796-1.975c0-0.767,0-1.592,0.855-2.418c0.855-0.825,2.565-1.651,4.128-2.919
	c1.563-1.268,2.978-2.979,4.084-4.526c1.105-1.548,1.902-2.934,2.875-3.523c0.973-0.59,2.123-0.384,3.627-0.472
	c1.503-0.088,3.361-0.472,3.922-1.209c0.56-0.737-0.177-1.828-1.298-2.625c-1.12-0.796-2.624-1.297-2.904-1.96
	c-0.28-0.664,0.664-1.489,1.932-2.447c1.268-0.958,2.86-2.05,2.787-3.45c-0.074-1.401-1.814-3.11-2.197-4.261
	c-0.384-1.15,0.59-1.739,2.108-2.477s3.583-1.622,4.851-1.327s1.74,1.769,1.356,2.786c-0.383,1.018-1.622,1.577-1.71,2.285
	c-0.089,0.708,0.973,1.563,2.182,1.725c1.209,0.162,2.566-0.369,3.73-0.147s2.138,1.194,1.873,1.99
	c-0.266,0.796-1.77,1.416-3.362,1.725s-3.273,0.31-3.686,1.239c-0.413,0.928,0.442,2.786,1.43,3.642
	c0.988,0.855,2.108,0.708,3.273,0.914c1.164,0.207,2.373,0.767,3.759,1.858c1.386,1.091,2.949,2.713,3.818,3.642
	c0.87,0.929,1.047,1.165,2.109,1.194c1.061,0.029,3.007-0.147,4.895-0.266c1.887-0.118,3.715-0.177,5.5,0.266
	c1.784,0.442,3.523,1.386,5.249,2.005c1.725,0.62,3.435,0.914,5.205,0.922c1.769,0.007,3.597-0.273,5.071,0
	c1.474,0.272,2.595,1.098,4.084,1.408c1.489,0.309,3.347,0.103,4.113-1.062c0.767-1.165,0.442-3.288,1.342-3.907
	c0.899-0.62,3.022,0.265,4.467,0.059s2.212-1.503,1.283-2.609s-3.553-2.02-5.219-3.067c-1.667-1.047-2.374-2.226-2.551-3.007
	c-0.177-0.782,0.177-1.165,1.297-1.15s3.007,0.428,4.615,1.032c1.607,0.604,2.934,1.4,4.246,1.416
	c1.312,0.015,2.609-0.752,2.757-1.681c0.147-0.929-0.855-2.02-1.873-2.816c-1.017-0.796-2.049-1.298-3.096-1.946
	c-1.047-0.649-2.108-1.445-2.064-2.212c0.044-0.766,1.194-1.503,2.727-1.238c1.534,0.265,3.45,1.533,5.101,2.241
	c1.652,0.708,3.037,0.855,4.114,0.044c1.076-0.811,1.843-2.581,3.096-3.111c1.253-0.531,2.993,0.177,5.264,0.958
	c2.27,0.781,5.071,1.636,6.501,1.489c1.43-0.147,1.489-1.298,1.887-2.256c0.398-0.958,1.135-1.725,2.182-2.565
	s2.403-1.755,2.949-2.905c0.546-1.15,0.28-2.536,0.796-3.096c0.516-0.561,1.813-0.295,3.155-0.722
	c1.342-0.428,2.728-1.548,4.939-1.902c2.211-0.354,5.249,0.059,9.126,1.961s8.596,5.293,11.5,8.183s3.995,5.278,5.175,6.575
	c1.18,1.298,2.447,1.504,3.804,1.077c1.356-0.428,2.801-1.489,3.332-1.135s0.147,2.123,0.309,3.598
	c0.162,1.474,0.87,2.653,1.888,3.214c1.017,0.56,2.344,0.501,3.17-0.472c0.825-0.973,1.149-2.86,1.798-3.966
	c0.649-1.105,1.622-1.43,2.875-1.341s2.786,0.589,3.464,0c0.678-0.59,0.501-2.271,1.695-2.787s3.76,0.133,5.293,1.209
	c1.533,1.076,2.034,2.58,1.68,3.937c-0.354,1.356-1.563,2.565-3.244,3.022c-1.681,0.457-3.833,0.162-5.16,0.442
	c-1.327,0.28-1.829,1.135-2.094,2.049c-0.266,0.914-0.295,1.887,0.472,2.55c0.767,0.664,2.33,1.018,2.875,2.241
	c0.545,1.224,0.074,3.317,0.929,3.981c0.854,0.663,3.037-0.104,4.305,0.191s1.622,1.651,2.403,2.698
	c0.782,1.046,1.991,1.784,3.642,1.873c1.651,0.088,3.745-0.472,4.999-0.295c1.253,0.177,1.666,1.091,1.239,1.976
	c-0.428,0.885-1.696,1.74-2.669,2.448s-1.651,1.268-1.74,2.138c-0.089,0.87,0.413,2.049,0.354,3.007
	c-0.059,0.958-0.679,1.696,0.029,2.256c0.708,0.56,2.742,0.943,4.364,1.563s2.831,1.474,3.361,2.521s0.383,2.286-0.132,3.082
	c-0.516,0.796-1.401,1.15-1.475,1.887c-0.074,0.737,0.664,1.857,0.988,2.742c0.324,0.884,0.236,1.533,0.015,2.02
	c-0.221,0.487-0.575,0.811-1.268,1.356c-0.693,0.545-1.725,1.313-1.253,2.33c0.472,1.017,2.447,2.285,4.703,2.727
	c2.255,0.442,4.792,0.059,6.502-0.029c1.71-0.088,2.595,0.118,4.231,1.076c1.636,0.958,4.025,2.669,6.738,3.347
	c2.712,0.678,5.75,0.324,7.578,0.294c1.828-0.029,2.447,0.265,2.875,0.782c0.428,0.516,0.664,1.253,1.18,2.359
	s1.312,2.581,2.492,3.568c1.179,0.988,2.742,1.489,4.939,2.447c2.197,0.958,5.027,2.374,6.384,3.45s1.238,1.813,0.723,2.521
	c-0.517,0.708-1.43,1.386-1.902,2.403c-0.472,1.018-0.501,2.374-1.592,3.45c-1.091,1.076-3.244,1.872-4.408,3.081
	s-1.342,2.831-1.857,4.232c-0.516,1.4-1.372,2.58-1.062,3.966c0.309,1.386,1.784,2.978,3.229,3.745s2.86,0.708,4.291,2.226
	c1.43,1.519,2.875,4.615,4.909,6.222s4.659,1.725,8.728,1.858c4.069,0.132,9.583,0.28,13.21,1.297
	c3.626,1.017,5.367,2.904,6.914,3.671c1.548,0.767,2.904,0.413,3.774,1.209c0.87,0.796,1.254,2.742,1.342,4.305
	s-0.118,2.742,0.354,4.099c0.473,1.356,1.622,2.89,3.76,3.45c2.139,0.561,5.264,0.147,7.445,0.266
	c2.183,0.118,3.421,0.767,4.601,2.182c1.179,1.415,2.3,3.597,2.86,4.688c0.56,1.091,0.56,1.091,2.506-0.973s5.839-6.192,8.08-8.345
	c2.241-2.153,2.83-2.33,4.452-1.15c1.622,1.18,4.275,3.715,7.814,6.989c3.538,3.273,7.961,7.283,10.055,9.377
	c2.094,2.093,1.857,2.27-1.209,4.924c-3.067,2.654-8.964,7.785-12.03,10.822c-3.067,3.037-3.303,3.98-3.598,5.308
	s-0.649,3.037-0.207,4.424c0.442,1.386,1.682,2.446,1.239,3.272s-2.565,1.415-3.361,2.654c-0.797,1.238-0.266,3.125,1.105,4.024
	s3.583,0.811,5.027,1.784c1.444,0.973,2.123,3.007,0.914,4.01s-4.305,0.973-6.34,0.546c-2.034-0.428-3.008-1.253-4.556-1.431
	c-1.548-0.177-3.671,0.295-5.086,1.342c-1.416,1.047-2.123,2.669-2.271,4.615c-0.146,1.945,0.266,4.216-2.02,5.175
	c-2.285,0.958-7.269,0.604-10.291,1.695s-4.084,3.626-3.627,4.762s2.433,0.87,4.467,0.546c2.035-0.324,4.129-0.708,5.706-0.679
	c1.577,0.03,2.639,0.472,2.89,1.504c0.25,1.032-0.31,2.654-2.256,4.04s-5.278,2.535-8.286,3.656c-3.007,1.12-5.69,2.212-7.681,3.671
	c-1.991,1.46-3.288,3.288-4.025,5.146s-0.914,3.744-0.561,5.749s1.239,4.128,1.209,6.487c-0.03,2.358-0.973,4.953-0.472,7.194
	c0.501,2.241,2.447,4.128,3.804,5.809s2.123,3.155,3.273,3.774c1.149,0.62,2.683,0.384,4.747-0.442
	c2.064-0.825,4.659-2.24,6.457-3.804c1.799-1.563,2.802-3.272,3.038-5.16c0.235-1.887-0.296-3.951-1.357-5.396
	c-1.061-1.445-2.653-2.271-2.83-3.215c-0.177-0.943,1.062-2.005,3.155-2.624c2.093-0.619,5.042-0.796,6.812-0.235
	c1.77,0.56,2.358,1.857,2.005,3.096c-0.354,1.238-1.651,2.418-2.3,3.862c-0.648,1.445-0.648,3.155,0.412,3.657
	c1.062,0.501,3.186-0.207,4.777-1.357c1.592-1.149,2.654-2.741,2.948-4.246c0.295-1.503-0.177-2.918,0.118-4.481
	c0.295-1.563,1.356-3.272,2.152-4.659c0.796-1.386,1.327-2.447,1.976-3.066c0.649-0.619,1.416-0.796,1.888-0.059
	s0.648,2.388,0.266,4.04c-0.384,1.65-1.327,3.302-1.357,4.718c-0.029,1.415,0.855,2.595,1.651,4.01
	c0.797,1.416,1.505,3.066,2.124,4.777c0.619,1.71,1.15,3.479,1.533,5.13c0.383,1.652,0.619,3.185,0.648,4.688
	s-0.147,2.979,0.413,3.922c0.56,0.943,1.857,1.356,2.978,0.973c1.121-0.383,2.064-1.563,2.891-1.681
	c0.825-0.117,1.533,0.826,2.151,1.976c0.62,1.15,1.15,2.507,2.064,3.362c0.915,0.854,2.212,1.209,2.979,2.02
	s1.002,2.079,0.574,3.081c-0.427,1.003-1.519,1.74-1.548,2.713c-0.029,0.974,1.003,2.183,3.17,2.816
	c2.168,0.634,5.47,0.692,7.195,0.059c1.725-0.634,1.872-1.961,1.238-2.904c-0.635-0.943-2.049-1.504-2.64-2.669
	c-0.589-1.164-0.354-2.934-1.105-4.216c-0.752-1.283-2.491-2.079-2.904-3.303s0.501-2.875,0.53-4.202
	c0.03-1.326-0.825-2.329-2.108-3.303c-1.282-0.973-2.992-1.916-3.347-2.83c-0.354-0.914,0.649-1.799,2.507-2.124
	c1.858-0.323,4.57-0.088,6.354,1.136s2.639,3.436,3.951,4.452c1.313,1.018,3.081,0.841,4.01,1.194
	c0.93,0.354,1.018,1.239,0.147,1.917c-0.869,0.679-2.697,1.15-3.494,2.241c-0.796,1.091-0.56,2.801-0.25,4.201
	c0.31,1.401,0.692,2.492,1.165,3.037c0.472,0.546,1.031,0.546,1.563,1.076c0.53,0.531,1.031,1.593,1.371,2.434
	c0.339,0.84,0.516,1.459,0.397,2.182c-0.117,0.723-0.53,1.548-0.428,2.329c0.104,0.782,0.723,1.519,1.637,2.183
	c0.915,0.663,2.124,1.253,3.185,2.256c1.062,1.003,1.977,2.418,2.816,2.226c0.84-0.191,1.606-1.99,1.989-3.834
	c0.384-1.843,0.384-3.729,0.767-6c0.384-2.271,1.15-4.924,2.271-5.779c1.121-0.855,2.595,0.089,3.037,1.593
	c0.442,1.503-0.147,3.567,0.089,4.895c0.235,1.327,1.297,1.916,3.066,1.268s4.246-2.536,5.779-2.89s2.123,0.826,1.976,2.3
	c-0.147,1.475-1.031,3.244-2.152,4.217c-1.12,0.973-2.477,1.15-3.774,1.416c-1.297,0.265-2.536,0.619-2.565,1.297
	s1.15,1.681,2.831,2.152s3.863,0.413,6.133,0.855c2.271,0.442,4.63,1.386,6.841,2.624c2.212,1.238,4.276,2.771,5.426,4.954
	c1.15,2.182,1.386,5.013,3.509,7.843c2.123,2.831,6.134,5.662,7.991,5.81c1.858,0.147,1.563-2.389,1.681-4.541
	s0.648-3.922,0.679-5.927c0.029-2.006-0.442-4.246-0.767-5.927s-0.502-2.802,0.678-2.831s3.716,1.032,5.366,2.506
	c1.651,1.475,2.419,3.362,2.301,4.896s-1.121,2.713-1.593,4.334c-0.472,1.622-0.412,3.687-0.295,4.954
	c0.118,1.268,0.295,1.74,0.648,2.477c0.354,0.737,0.885,1.74,2.124,1.977c1.237,0.235,3.185-0.296,4.629,0.972
	c1.445,1.269,2.388,4.336,3.126,6.046c0.736,1.71,1.268,2.063,2.653,2.919s3.627,2.212,5.071,2.064
	c1.445-0.147,2.095-1.799,1.593-4.069c-0.501-2.271-2.152-5.16-2.182-7.343c-0.029-2.182,1.563-3.656,1.857-5.543
	c0.295-1.888-0.708-4.188-2.919-7.343c-2.212-3.154-5.633-7.165-7.578-10.408c-1.946-3.244-2.418-5.721-1.799-7.814
	s2.329-3.804,2.83-5.544c0.502-1.739-0.206-3.509-1.621-4.452s-3.539-1.062-5.19-0.295c-1.65,0.767-2.83,2.418-4.481,3.185
	s-3.774,0.649-5.131-0.206s-1.946-2.447-3.42-4.011c-1.475-1.563-3.834-3.096-4.188-4.275c-0.354-1.179,1.297-2.005,1.269-3.214
	c-0.03-1.209-1.74-2.801-3.628-3.686c-1.887-0.885-3.951-1.062-6.34-1.946c-2.388-0.885-5.101-2.477-7.519-3.922
	c-2.418-1.444-4.541-2.743-5.927-4.719s-2.035-4.629-3.332-6.692c-1.298-2.064-3.243-3.539-3.627-5.957
	c-0.383-2.418,0.796-5.779,1.356-9.17c0.561-3.392,0.501-6.812-0.06-10.173c-0.561-3.362-1.621-6.664-2.271-9.348
	c-0.648-2.684-0.884-4.747-0.088-6.635c0.796-1.887,2.624-3.598,3.833-3.214s1.799,2.86,1.946,5.603s-0.147,5.75,0.295,8.492
	s1.622,5.219,2.123,7.047s0.324,3.008,0.53,4.807c0.207,1.799,0.797,4.217,0.974,6.369s-0.06,4.04,0.354,6.104
	c0.413,2.064,1.475,4.306,2.713,5.897c1.239,1.593,2.653,2.536,4.188,3.244c1.533,0.707,3.185,1.179,4.511,2.123
	c1.327,0.943,2.33,2.358,3.922,3.243c1.593,0.885,3.774,1.238,5.573,2.034c1.799,0.797,3.214,2.035,4.217,3.863
	s1.592,4.246,2.329,6.104c0.737,1.858,1.622,3.155,2.478,3.214c0.854,0.06,1.681-1.12,2.86-1.061
	c1.18,0.059,2.712,1.356,3.921,1.444c1.209,0.089,2.094-1.032,2.949-2.713s1.681-3.922,1.504-5.661s-1.356-2.979-3.303-4.719
	c-1.946-1.739-4.659-3.979-6.104-5.956c-1.445-1.976-1.622-3.686-2.625-4.718c-1.002-1.031-2.83-1.386-3.892-2.919
	s-1.356-4.246-2.064-6.281c-0.707-2.034-1.828-3.391-2.182-5.219c-0.354-1.828,0.059-4.128,0.265-7.018
	c0.207-2.89,0.207-6.369-0.146-8.935c-0.354-2.565-1.062-4.217-1.8-5.868c-0.736-1.651-1.503-3.303-1.326-5.632
	c0.177-2.33,1.298-5.338,1.622-7.195s-0.147-2.565-0.944-2.979c-0.796-0.412-1.916-0.53-2.624-1.533
	c-0.707-1.003-1.003-2.89-1.651-4.364c-0.648-1.474-1.651-2.535-1.71-3.332c-0.06-0.796,0.826-1.326,1.533-1.238
	c0.708,0.089,1.238,0.796,2.123,0.384c0.885-0.413,2.123-1.946,3.273-2.713c1.149-0.767,2.211-0.767,3.567-2.241
	c1.356-1.474,3.008-4.423,2.801-6.074c-0.206-1.651-2.27-2.005-3.98-1.563c-1.71,0.442-3.066,1.681-4.481,2.005
	c-1.415,0.324-2.89-0.266-3.097-1.327c-0.206-1.062,0.855-2.595,2.123-3.833c1.269-1.239,2.743-2.182,4.011-2.831
	c1.268-0.649,2.329-1.003,2.183-2.212c-0.148-1.209-1.504-3.272-3.273-4.983s-3.951-3.067-6.34-4.01s-4.983-1.475-6.93-3.361
	c-1.946-1.887-3.243-5.131-3.037-6.398c0.206-1.268,1.917-0.561,3.657,0.412c1.739,0.973,3.508,2.212,5.632,3.096
	c2.123,0.885,4.6,1.416,6.604,2.507s3.538,2.742,4.865,4.394c1.327,1.651,2.447,3.302,3.539,4.01
	c1.091,0.708,2.152,0.471,2.948-0.943c0.796-1.416,1.327-4.011,1.091-5.721c-0.235-1.71-1.238-2.536-2.713-3.479
	c-1.474-0.943-3.42-2.005-5.071-3.42c-1.651-1.415-3.008-3.184-4.158-4.688c-1.149-1.504-2.093-2.743-3.391-3.48
	c-1.298-0.737-2.948-0.973-4.423-1.091c-1.475-0.118-2.772-0.118-3.155-0.619c-0.384-0.501,0.147-1.504-0.236-2.978
	c-0.383-1.475-1.68-3.421-2.418-5.131c-0.736-1.71-0.914-3.185-0.029-3.568s2.831,0.324,4.688,1.297
	c1.858,0.973,3.627,2.211,5.102,4.217c1.475,2.005,2.653,4.777,4.423,6.782s4.128,3.244,5.573,4.334
	c1.444,1.091,1.976,2.035,4.01,2.124s5.573-0.679,8.079-1.475c2.507-0.796,3.981-1.622,3.863-2.979
	c-0.117-1.356-1.828-3.243-3.893-4.541c-2.063-1.297-4.481-2.005-6.693-2.565c-2.211-0.56-4.217-0.973-6.104-1.592
	s-3.656-1.445-4.836-2.684c-1.18-1.238-1.77-2.89-1.209-3.803c0.561-0.915,2.271-1.092,4.335-0.855
	c2.063,0.236,4.481,0.885,6.752,1.268s4.394,0.501,5.957,0.884c1.563,0.383,2.565,1.032,1.887-0.619
	c-0.678-1.651-3.037-5.602-5.308-8.404c-2.271-2.801-4.453-4.452-6.369-4.953c-1.917-0.502-3.568,0.147-4.836-0.708
	s-2.153-3.214-3.008-4.747c-0.855-1.533-1.681-2.241-3.008-2.241s-3.155,0.708-3.804,0.088c-0.648-0.619-0.118-2.565-0.235-4.246
	c-0.118-1.681-0.885-3.096-2.625-3.863c-1.739-0.767-4.452-0.885-5.189-1.858s0.502-2.801,1.74-4.275s2.477-2.595,4.54-1.975
	c2.064,0.619,4.954,2.978,7.784,4.305c2.831,1.327,5.604,1.622,6.813,2.742c1.208,1.121,0.854,3.066,1.444,4.6
	c0.59,1.533,2.123,2.654,4.128,3.332c2.006,0.678,4.482,0.914,6.458,0.177c1.976-0.737,3.45-2.447,3.272-3.42
	c-0.177-0.973-2.005-1.209-4.039-2.211c-2.035-1.002-4.275-2.772-5.956-4.541s-2.802-3.539-4.364-5.485
	c-1.563-1.946-3.568-4.069-3.509-4.895c0.059-0.826,2.182-0.354,4.069,0.236c1.887,0.59,3.538,1.297,4.629,2.241
	c1.091,0.943,1.622,2.123,2.447,3.597c0.826,1.474,1.946,3.244,3.391,3.951c1.445,0.708,3.215,0.354,4.394-0.56
	c1.181-0.914,1.77-2.389,1.15-3.302c-0.619-0.914-2.447-1.269-3.656-2.153c-1.209-0.885-1.799-2.3-1.209-3.45
	c0.59-1.15,2.358-2.035,4.335-1.917c1.976,0.118,4.157,1.239,6.133,1.857c1.975,0.619,3.743,0.737,4.097-0.561
	c0.354-1.298-0.707-4.011-1.946-6.222c-1.238-2.211-2.653-3.922-5.308-4.865c-2.653-0.944-6.546-1.121-7.106-2.33
	c-0.56-1.209,2.212-3.45,5.426-4.482c3.214-1.032,6.871-0.854,9.229,0.649c2.359,1.504,3.421,4.334,3.863,7.785
	s0.265,7.519,1.355,9.2c1.092,1.681,3.45,0.973,4.512-0.501c1.062-1.474,0.825-3.715,0.295-6.28
	c-0.53-2.565-1.356-5.455-1.415-8.286c-0.06-2.831,0.648-5.602,1.563-7.843c0.914-2.241,2.035-3.952,3.421-4.482
	c1.386-0.531,3.037,0.118,3.567,1.887c0.531,1.769-0.059,4.659-0.826,7.136c-0.766,2.477-1.709,4.541-1.798,6.369
	s0.679,3.421,1.592,4.217c0.915,0.796,1.976,0.796,2.771-0.059c0.797-0.855,1.327-2.566,2.241-4.246
	c0.914-1.681,2.212-3.332,4.128-4.629c1.917-1.298,4.453-2.241,6.075-3.598c1.621-1.356,2.329-3.125,2.801-4.6
	c0.473-1.475,0.708-2.654,0.679-3.952c-0.029-1.297-0.325-2.713-1.121-3.981s-2.093-2.388-1.71-3.833
	c0.384-1.445,2.447-3.214,4.688-4.806c2.241-1.593,4.659-3.008,6.812-3.509c2.152-0.501,4.04-0.088,5.396-0.442
	s2.182-1.475,3.479-2.771c1.298-1.298,3.067-2.772,4.63-4.011c1.563-1.238,2.92-2.241,3.097-1.327s-0.826,3.745-1.888,6.045
	s-2.182,4.069-2.919,5.927s-1.091,3.804-1.888,5.779c-0.796,1.976-2.034,3.981-2.683,5.573s-0.708,2.771,0.088,2.536
	c0.797-0.236,2.447-1.887,3.893-3.921c1.445-2.035,2.684-4.453,4.275-6.016c1.593-1.563,3.539-2.271,5.16-3.066
	c1.622-0.796,2.92-1.681,4.453-3.863s3.302-5.661,5.013-7.548c1.71-1.887,3.361-2.182,4.305-1.238
	c0.943,0.943,1.18,3.125-0.059,5.455c-1.238,2.33-3.952,4.807-5.839,6.694s-2.948,3.185-3.037,4.305s0.797,2.064,2.595,3.273
	c1.799,1.209,4.512,2.684,6.34,4.629c1.828,1.946,2.771,4.364,1.917,5.131c-0.855,0.767-3.509-0.118-5.957-1.297
	c-2.447-1.179-4.688-2.654-7.018-3.421c-2.329-0.766-4.747-0.826-6.575,0.354s-3.066,3.598-4.896,5.485
	c-1.828,1.887-4.245,3.243-5.985,4.6c-1.739,1.356-2.801,2.713-0.825,3.332c1.975,0.62,6.988,0.501,10.35,1.002
	c3.361,0.501,5.071,1.622,8.374,2.005s8.197,0.03,10.615,0.236c2.418,0.207,2.359,0.973,0.708,1.799
	c-1.651,0.825-4.895,1.71-8.994,1.858c-4.099,0.147-9.052-0.443-12.738-1.003c-3.686-0.56-6.104-1.091-8.757-1.032
	c-2.654,0.059-5.544,0.708-7.874,0.825c-2.329,0.118-4.098-0.295-5.425,0s-2.212,1.298-1.917,2.241s1.77,1.828,3.804,3.037
	c2.035,1.209,4.63,2.742,4.925,3.597c0.295,0.855-1.711,1.033-4.011,0.915s-4.895-0.531-7.047-0.885
	c-2.153-0.354-3.863-0.649-3.834,0.442c0.03,1.091,1.799,3.568,2.3,5.455c0.502,1.887-0.265,3.184-1.268,3.538
	c-1.002,0.354-2.241-0.236-3.332-1.002c-1.091-0.767-2.034-1.71-2.89-1.74s-1.622,0.855-1.209,2.005s2.005,2.565,2.979,3.774
	c0.973,1.209,1.326,2.212,0.354,2.566c-0.973,0.354-3.272,0.059-5.042,0.029s-3.008,0.207-4.188,2.064
	c-1.18,1.858-2.3,5.337-3.922,7.814c-1.621,2.477-3.744,3.951-3.715,5.13c0.029,1.18,2.211,2.064,3.804,3.981
	c1.592,1.917,2.595,4.865,2.447,8.492s-1.444,7.932-1.533,10.763c-0.089,2.831,1.032,4.187,2.683,4.777
	c1.651,0.589,3.834,0.413,4.719-0.826s0.472-3.539,0.235-5.691c-0.235-2.153-0.295-4.158-0.501-5.779
	c-0.207-1.622-0.561-2.861,0-4.07c0.56-1.209,2.034-2.388,2.329-4.069s-0.59-3.863-1.268-5.75c-0.679-1.888-1.149-3.48-0.266-4.925
	c0.885-1.445,3.126-2.742,4.217-2.625c1.091,0.118,1.032,1.651,0.854,3.539c-0.177,1.888-0.471,4.128,0.148,4.57
	c0.619,0.442,2.152-0.914,3.626-2.654c1.475-1.739,2.891-3.863,4.158-4.334c1.268-0.472,2.389,0.707,2.152,2.182
	c-0.235,1.475-1.828,3.244-2.624,4.6s-0.796,2.3,0.117,2.595c0.914,0.295,2.743-0.059,4.424-1.209s3.214-3.096,4.275-4.305
	s1.651-1.681,1.15-2.712c-0.502-1.032-2.094-2.625-1.74-4.334c0.354-1.71,2.654-3.539,5.042-5.367
	c2.389-1.828,4.866-3.656,7.873-4.717c3.008-1.062,6.546-1.357,9.2-0.915c2.653,0.442,4.423,1.622,5.248,2.86
	c0.826,1.238,0.708,2.536-0.707,2.801c-1.415,0.265-4.128-0.501-6.605-0.767c-2.477-0.265-4.718-0.029-6.663,0.708
	c-1.946,0.737-3.598,1.976-4.541,3.627c-0.943,1.651-1.18,3.715,0.088,4.688c1.268,0.973,4.04,0.855,4.659,1.356
	c0.619,0.501-0.914,1.622-2.713,2.949s-3.863,2.86-6.134,4.453c-2.27,1.592-4.747,3.243-6.723,4.511
	c-1.976,1.268-3.45,2.152-3.214,2.772c0.235,0.619,2.182,0.973,3.598,2.418c1.415,1.445,2.3,3.98,2.063,5.072
	c-0.235,1.091-1.592,0.737-3.332,0.029c-1.739-0.708-3.862-1.77-6.015-1.74c-2.153,0.029-4.335,1.15-4.896,2.949
	c-0.56,1.799,0.502,4.275,0.914,7.018c0.413,2.742,0.177,5.75-0.501,6.93c-0.678,1.179-1.799,0.53-3.98,0.619
	c-2.183,0.088-5.426,0.914-6.487,2.418c-1.062,1.503,0.059,3.686,0.736,6.222c0.679,2.536,0.915,5.425,2.006,6.369
	c1.091,0.944,3.037-0.059,3.98-1.828s0.885-4.305,2.005-5.484c1.121-1.18,3.421-1.002,4.129,0.413
	c0.707,1.415-0.178,4.069-0.384,5.543s0.265,1.769,0.825,1.976c0.561,0.206,1.209,0.324,1.77-1.209s1.032-4.718,1.504-6.311
	s0.943-1.592,2.034-1.474c1.092,0.118,2.802,0.354,3.716,1.828c0.914,1.474,1.032,4.188,0.767,6.163
	c-0.266,1.976-0.914,3.214-1.828,4.748c-0.914,1.533-2.094,3.361-4.306,4.04c-2.211,0.678-5.455,0.206-7.873,0.855
	c-2.418,0.648-4.01,2.417-4.658,4.099c-0.649,1.681-0.354,3.273-0.089,4.659c0.266,1.386,0.502,2.565,1.681,2.624
	c1.18,0.059,3.303-1.003,5.131-2.064s3.361-2.123,4.895-2.536c1.534-0.413,3.066-0.177,3.155,1.238
	c0.089,1.416-1.268,4.011-2.978,6.045c-1.711,2.035-3.774,3.51-5.78,4.276c-2.005,0.767-3.951,0.825-5.632-0.089
	s-3.096-2.801-4.157-4.688c-1.062-1.887-1.77-3.774-2.772-5.426c-1.002-1.651-2.3-3.066-3.332-4.924
	c-1.031-1.858-1.799-4.158-2.535-4.482c-0.737-0.325-1.445,1.327-2.949,2.919s-3.804,3.125-5.16,5.131s-1.769,4.482-2.535,7.018
	c-0.767,2.535-1.888,5.131-2.92,7.666c-1.031,2.536-1.976,5.013-2.447,7.726s-0.472,5.662,0.324,7.549
	c0.797,1.887,2.389,2.713,3.332,2.477c0.943-0.235,1.238-1.533,1.475-2.978c0.236-1.445,0.413-3.037,0.501-4.246
	c0.089-1.209,0.089-2.035,0.207-3.273s0.354-2.89,0.796-5.013s1.091-4.718,2.152-6.782s2.536-3.597,3.774-3.449
	c1.238,0.146,2.241,1.976,2.241,3.655c0,1.682-1.003,3.215-1.829,5.014c-0.825,1.798-1.474,3.862-0.619,5.543
	c0.855,1.682,3.215,2.979,4.542,3.008c1.326,0.03,1.621-1.209,1.828-2.506c0.206-1.298,0.324-2.654,0.914-4.158
	s1.65-3.155,3.066-3.185c1.415-0.029,3.185,1.563,3.479,3.037c0.296,1.475-0.884,2.831-1.827,4.246
	c-0.944,1.415-1.651,2.89-1.74,4.512c-0.088,1.622,0.442,3.391,1.711,3.538c1.268,0.147,3.272-1.326,4.452-2.624
	c1.18-1.297,1.533-2.418,2.064-3.598c0.53-1.179,1.238-2.418,2.741-3.243c1.504-0.825,3.805-1.238,5.78-2.684
	s3.627-3.922,5.189-4.01c1.563-0.089,3.037,2.211,2.919,3.98c-0.117,1.77-1.828,3.008-3.833,4.158
	c-2.005,1.149-4.306,2.211-6.163,3.715s-3.272,3.45-3.479,4.718c-0.206,1.268,0.797,1.857,1.563,1.828s1.297-0.679,2.653-1.651
	s3.538-2.271,4.865-2.093c1.327,0.177,1.799,1.827,1.711,3.479c-0.089,1.651-0.737,3.303-0.974,4.954
	c-0.235,1.651-0.059,3.303,1.209,4.541c1.269,1.238,3.627,2.064,5.16,2.418c1.534,0.354,2.241,0.236,3.421,0.398
	c1.179,0.162,2.829,0.604,4.362-0.354c1.533-0.958,2.948-3.317,4.128-5.41c1.18-2.094,2.123-3.922,1.946-6.016
	s-1.475-4.452-3.126-6.487c-1.651-2.034-3.656-3.745-4.334-5.809c-0.679-2.064-0.03-4.482,1.12-6.753s2.801-4.394,4.718-5.897
	s4.099-2.389,6.575-4.01c2.478-1.622,5.249-3.981,7.756-4.895c2.506-0.914,4.747-0.383,4.836,0.767
	c0.088,1.15-1.977,2.919-4.276,4.394c-2.3,1.474-4.835,2.653-7.431,4.157c-2.595,1.504-5.248,3.332-6.634,5.043
	c-1.387,1.71-1.504,3.302-0.649,5.425c0.855,2.123,2.684,4.777,4.364,7.048s3.214,4.157,4.069,5.927s1.032,3.42,0.117,5.661
	c-0.913,2.241-2.918,5.072-4.806,7.638c-1.887,2.565-3.656,4.865-5.839,6.339c-2.182,1.475-4.776,2.123-7.489,1.534
	c-2.713-0.59-5.543-2.418-7.932-3.479s-4.335-1.356-6.635-2.005c-2.3-0.649-4.954-1.652-5.809-2.891
	c-0.855-1.238,0.088-2.713,0-3.892c-0.089-1.18-1.209-2.064-2.654-1.829c-1.445,0.236-3.214,1.593-4.836,2.212
	c-1.621,0.619-3.096,0.501-5.189,0s-4.807-1.386-6.664-1.209s-2.86,1.416-2.359,2.301c0.502,0.884,2.507,1.415,3.45,2.595
	c0.943,1.179,0.826,3.007-0.324,3.951c-1.15,0.943-3.332,1.002-4.275,1.828c-0.944,0.825-0.649,2.418,0.177,3.272
	c0.826,0.855,2.182,0.974,3.185,1.71c1.002,0.737,1.651,2.094,2.507,1.356c0.854-0.736,1.916-3.567,4.01-4.895
	s5.219-1.149,7.873-1.091c2.653,0.059,4.836,0,5.603,0.383c0.767,0.384,0.118,1.209-0.974,1.977
	c-1.091,0.767-2.624,1.474-3.11,2.668c-0.487,1.194,0.073,2.875,1.961,2.816c1.887-0.06,5.101-1.858,6.855-1.813
	c1.755,0.044,2.05,1.932,1.445,3.567c-0.604,1.637-2.108,3.022-3.893,3.805c-1.784,0.781-3.848,0.958-5.411,0.428
	c-1.563-0.531-2.624-1.77-3.656-2.86c-1.031-1.092-2.034-2.035-3.538-2.064s-3.509,0.855-4.865,1.916
	c-1.356,1.062-2.064,2.301-1.946,3.893c0.118,1.593,1.062,3.539,2.358,4.954c1.298,1.415,2.949,2.3,3.214,3.214
	c0.266,0.914-0.854,1.858-2.034,2.448c-1.18,0.589-2.418,0.825-3.538,0.059s-2.123-2.536-2.654-4.6
	c-0.53-2.064-0.589-4.424-0.737-6.016c-0.146-1.593-0.383-2.418-1.326-2.389s-2.595,0.914-3.98,1.356s-2.507,0.442-3.244,1.003
	c-0.737,0.56-1.091,1.681-0.324,3.243s2.654,3.567,4.011,5.956s2.182,5.16,2.683,7.578c0.502,2.418,0.679,4.482,1.18,5.897
	c0.502,1.416,1.327,2.183,2.89,2.507c1.563,0.324,3.862,0.206,5.455,0.501s2.477,1.002,2.507,0.235
	c0.029-0.766-0.797-3.007-1.003-4.629s0.206-2.625,0.648-2.89c0.442-0.266,0.914,0.206,2.034,1.209
	c1.121,1.003,2.891,2.536,4.807,4.157c1.917,1.622,3.981,3.332,4.895,4.954c0.915,1.622,0.679,3.155,0.531,4.452
	c-0.147,1.298-0.207,2.359,0.678,2.89c0.885,0.531,2.713,0.531,4.865,1.416s4.63,2.653,5.278,4.246s-0.531,3.008-0.635,4.556
	s0.869,3.229,2.934,4.614c2.063,1.386,5.22,2.477,6.355,2.05c1.136-0.428,0.25-2.374-0.191-4.113
	c-0.442-1.74-0.442-3.273,0.324-4.601c0.767-1.326,2.3-2.447,2.477-3.42c0.177-0.974-1.002-1.799-2.447-2.506
	c-1.444-0.708-3.155-1.298-3.361-2.33s1.091-2.506,2.389-4.217c1.298-1.71,2.595-3.656,3.272-5.75s0.737-4.334,1.415-5.131
	c0.679-0.796,1.977-0.146,3.568,1.003c1.593,1.15,3.479,2.801,4.394,4.364c0.914,1.563,0.855,3.037-0.59,4.157
	c-1.444,1.12-4.275,1.888-5.573,3.066c-1.297,1.18-1.061,2.772-0.029,4.571c1.032,1.799,2.86,3.804,4.099,5.927
	s1.888,4.364,2.565,3.951c0.679-0.413,1.386-3.479,1.74-6.163c0.354-2.684,0.354-4.983,1.503-6.959
	c1.15-1.976,3.451-3.627,5.603-5.632c2.153-2.005,4.158-4.364,5.19-6.782s1.091-4.895,1.444-6.899
	c0.354-2.006,1.003-3.538,1.504-5.633c0.502-2.093,0.855-4.747,1.475-6.723s1.504-3.272,1.976-3.125
	c0.472,0.146,0.53,1.739,1.091,3.361s1.622,3.272,2.094,4.895s0.354,3.214-0.324,4.541c-0.679,1.327-1.917,2.389-2.33,3.774
	c-0.412,1.386,0.001,3.096-0.383,4.335c-0.384,1.238-1.563,2.005-2.389,3.509c-0.825,1.503-1.297,3.744-2.24,5.603
	c-0.944,1.857-2.359,3.332-3.893,5.131s-3.185,3.921-3.568,6.397c-0.383,2.478,0.502,5.309,1.238,6.93
	c0.737,1.622,1.327,2.035,2.373,1.298c1.047-0.737,2.55-2.625,4.244-3.923c1.695-1.298,3.582-2.005,5.941-2.536
	c2.358-0.53,5.189-0.885,6.781-0.619c1.593,0.266,1.946,1.15,1.18,1.976s-2.653,1.593-3.862,2.005
	c-1.209,0.413-1.74,0.473-2.183,0.767c-0.442,0.295-0.796,0.826-0.206,1.887c0.59,1.062,2.123,2.654,2.3,3.745
	c0.177,1.092-1.002,1.682-2.684,1.946c-1.681,0.266-3.862,0.207-6.487,0.708c-2.624,0.501-5.69,1.563-8.079,2.152
	c-2.388,0.59-4.099,0.708-5.572,0.973c-1.475,0.266-2.713,0.679-3.303,3.244s-0.531,7.283,0.177,9.73s2.064,2.625,3.627,1.356
	c1.563-1.268,3.332-3.98,5.308-5.396c1.976-1.415,4.157-1.532,6.752-1.976c2.596-0.441,5.603-1.209,8.404-2.211
	c2.801-1.003,5.396-2.241,7.52-2.359s3.773,0.885,3.921,2.271c0.147,1.387-1.208,3.155-3.42,4.188s-5.278,1.327-8.021,1.71
	c-2.742,0.384-5.16,0.855-7.342,2.772c-2.183,1.916-4.129,5.277-4.424,7.519s1.062,3.361,3.332,3.273
	c2.271-0.089,5.455-1.386,7.46-3.037c2.006-1.651,2.831-3.656,4.659-4.335c1.828-0.678,4.659-0.029,5.897,1.121
	c1.238,1.149,0.885,2.801-1.032,4.835c-1.916,2.035-5.396,4.453-8.433,5.691s-5.633,1.297-7.933,1.917
	c-2.3,0.619-4.305,1.799-5.219,3.597c-0.914,1.799-0.737,4.217-1.121,6.664c-0.383,2.447-1.326,4.924-2.034,7.188
	c-0.708,2.266-1.179,4.318-0.295,4.968c0.885,0.648,3.126-0.107,5.484-1.724c2.359-1.616,4.836-4.094,7.667-6.157
	c2.83-2.064,6.016-3.716,9.258-4.541c3.244-0.826,6.547-0.826,9.26-0.06c2.713,0.768,4.836,2.3,6.428,2.3
	c1.593,0,2.654-1.532,3.893-2.653c1.238-1.12,2.654-1.828,9.672-2.831c7.018-1.002,19.638-2.3,26.538-3.302
	c6.899-1.003,8.079-1.711,8.964-3.362c0.885-1.65,1.475-4.245,1.002-6.074c-0.471-1.828-2.005-2.889-1.297-4.305
	c0.708-1.415,3.656-3.185,6.133-3.716c2.478-0.53,4.482,0.178,5.485-0.589c1.002-0.767,1.002-3.008,2.063-6.134
	c1.062-3.125,3.185-7.136,4.246-10.262c1.062-3.125,1.062-5.366,2.064-7.253c1.003-1.888,3.008-3.421,4.6-5.131
	c1.593-1.711,2.771-3.598,3.185-3.008s0.06,3.656,0.06,5.779s0.354,3.303,1.415,2.89c1.062-0.412,2.83-2.418,4.246-4.776
	c1.415-2.359,2.477-5.072,3.656-7.549c1.18-2.478,2.477-4.718,3.243-6.782c0.767-2.063,1.003-3.951-0.059-4.776
	c-1.062-0.826-3.42-0.59-4.305-1.356s-0.295-2.536-0.178-3.951c0.118-1.416-0.235-2.478-1.945-3.598
	c-1.71-1.121-4.777-2.3-5.396-3.568c-0.619-1.268,1.209-2.624,3.686-2.3c2.478,0.324,5.604,2.329,7.844,3.45
	c2.241,1.12,3.598,1.356,4.246,0c0.649-1.356,0.59-4.305-0.206-6.251s-2.329-2.89-3.273-3.273
	c-0.943-0.383-1.297-0.206-16.689-0.324c-15.392-0.118-45.822-0.531-61.067-0.767c-15.244-0.236-15.303-0.295-15.333-0.855
	c-0.029-0.56-0.029-1.621-0.029-3.42s0-4.335-2.713-44.82c-2.713-40.485-8.139-118.919-10.852-158.137s-2.713-39.217-3.038-39.217
	c-0.324,0-0.973,0-1.298,0c-0.324,0-0.324,0-0.854,0c-0.531,0-1.593,0-100.76,0s-296.438,0-395.075,0s-98.636,0-98.636,0.368
	s0,1.105,0,2.535s0,3.553,0,20.301s0,48.123,0,63.81s0,15.687,0.446,15.599c0.445-0.089,1.335-0.266,3.167-0.796
	c1.831-0.531,4.603-1.416,6.212-2.469C47.933,228.477,48.378,227.254,49.515,225.406L49.515,225.406z M755.501,380.214
	c-0.561-0.456-1.242-1.046-2.526,1.666c-1.284,2.714-3.171,8.729-4.527,13.623c-1.356,4.896-2.183,8.669-3.656,13.092
	c-1.475,4.424-3.598,9.495-5.957,14.096c-2.358,4.6-4.953,8.728-6.9,12.443c-1.945,3.715-3.242,7.018-4.245,9.612
	s-1.71,4.482-3.126,6.546c-1.415,2.064-3.538,4.306-5.544,6.016c-2.005,1.71-3.892,2.89-3.361,3.479
	c0.531,0.59,3.48,0.59,6.547-0.118s6.251-2.123,8.551-4.954c2.3-2.83,3.715-7.076,5.603-11.382
	c1.887-4.305,4.246-8.669,5.877-12.984c1.632-4.314,2.536-8.581,4.646-15.274c2.11-6.693,5.426-15.814,7.304-22.012
	c1.878-6.196,2.316-9.47,2.316-11.269C756.5,380.996,756.062,380.671,755.501,380.214L755.501,380.214z M600.306,462.084
	c-1.651-1.828-4.069-3.302-5.75-1.769s-2.624,6.074-2.654,9.022c-0.028,2.949,0.855,4.306,3.126,5.573
	c2.271,1.269,5.928,2.447,7.608,1.327s1.386-4.541,0.796-7.343C602.842,466.095,601.957,463.913,600.306,462.084L600.306,462.084z
	 M598.064,439.438c-2.358,1.651-4.718,3.303-5.042,5.426s1.386,4.718,2.89,6.133c1.504,1.416,2.801,1.651,3.42,0.236
	c0.62-1.415,0.562-4.482,0.59-6.664c0.03-2.183,0.147-3.479-0.147-4.188C599.48,439.675,598.772,439.557,598.064,439.438
	L598.064,439.438z M592.888,428.209c-1.618-0.601-3.446-0.601-5.091,0.313c-1.645,0.913-3.105,2.741-3.002,4.489
	c0.104,1.749,1.775,3.42,3.603,3.785c1.827,0.366,3.812-0.574,5.325-1.723s2.559-2.506,2.375-3.785
	C595.916,430.011,594.506,428.81,592.888,428.209L592.888,428.209z M563.419,402.832c-0.708,1.282-1.209,2.845-0.634,4.496
	s2.226,3.392,3.229,5.323c1.003,1.931,1.356,4.054,2.742,6c1.387,1.946,3.805,3.716,6.223,4.526s4.835,0.663,5.867-0.428
	s0.679-3.125-0.089-3.893c-0.767-0.767-1.945-0.265-3.641-0.796c-1.696-0.53-3.907-2.093-5.264-4.143
	c-1.356-2.049-1.858-4.585-2.021-6.855s0.015-4.276-0.575-5.485c-0.589-1.208-1.945-1.621-3.081-1.327
	C565.041,400.547,564.127,401.55,563.419,402.832L563.419,402.832z M542.751,356.788c-0.737,0.561-1.504,2.507-1.976,4.659
	s-0.648,4.512,0.235,5.027c0.886,0.517,2.831-0.811,4.276-1.946c1.444-1.135,2.388-2.078,2.24-3.154
	c-0.146-1.077-1.385-2.286-2.358-3.303C544.195,357.054,543.488,356.229,542.751,356.788L542.751,356.788z M550.419,264.17
	c-0.678-0.531-1.592,1.032-2.786,3.523s-2.669,5.912-3.995,8.551c-1.327,2.639-2.507,4.497-2.624,7.121
	c-0.118,2.625,0.825,6.015,0.663,8.507s-1.431,4.084-2.124,5.293c-0.692,1.209-0.81,2.035,0.34,2.049
	c1.15,0.015,3.568-0.781,5.47-2.668c1.902-1.887,3.288-4.866,4.394-6.664c1.105-1.799,1.932-2.418,2.964-3.642
	c1.031-1.224,2.271-3.052,3.509-4.88c1.238-1.828,2.477-3.656,2.506-4.88s-1.149-1.843-2.477-2.831
	c-1.326-0.988-2.801-2.344-3.76-4.334C551.54,267.325,551.098,264.701,550.419,264.17z"/>
</svg>
