<?xml version="1.0" encoding="utf-8"?>
<!-- Generator: Adobe Illustrator 15.1.0, SVG Export Plug-In . SVG Version: 6.00 Build 0)  -->
<!DOCTYPE svg PUBLIC "-//W3C//DTD SVG 1.1//EN" "http://www.w3.org/Graphics/SVG/1.1/DTD/svg11.dtd">
<svg version="1.1" id="Layer_1" xmlns="http://www.w3.org/2000/svg" xmlns:xlink="http://www.w3.org/1999/xlink" x="0px" y="0px"
	 width="612px" height="792px" viewBox="0 0 612 792" enable-background="new 0 0 612 792" xml:space="preserve">
<path fill-rule="evenodd" clip-rule="evenodd" stroke="#000000" stroke-width="2.9999" stroke-linecap="round" stroke-linejoin="round" stroke-miterlimit="22.9256" d="
	M113.961,453.348c-1.202,2.684-6.527,6.232-9.362,9.306c-2.836,3.073-3.182,5.671-3.702,10.172
	c-0.52,4.502-1.212,10.907-2.771,16.967c-1.558,6.061-3.982,11.774-5.626,16.103c-1.645,4.328-2.511,7.271-1.905,10.82
	c0.606,3.55,2.684,7.705,4.155,12.033s2.337,8.83,3.376,11.946c1.039,3.117,2.251,4.849,2.771,7.358
	c0.52,2.511,0.346,5.801-0.52,11.081s-2.424,12.553-3.636,17.227c-1.212,4.676-2.078,6.753-2.943,8.83
	c-0.866,2.078-1.731,4.155-1.125,6.579c0.606,2.425,2.684,5.194,4.588,7.705s3.636,4.762,5.107,7.099s2.684,4.761,3.03,8.051
	s-0.173,7.445,1.298,9.956c1.472,2.51,4.935,3.376,6.146,5.626c1.212,2.251,0.173,5.887,0.347,8.483
	c0.173,2.598,1.558,4.155,2.164,7.099s0.433,7.271,0.52,10.302s0.433,4.761,8.051,6.232c7.618,1.472,22.508,2.684,54.105,4.588
	c31.597,1.904,79.902,4.502,119.551,6.926c39.648,2.424,70.64,4.675,88.862,6.189s23.677,2.294,27.227,2.985
	c3.549,0.693,5.194,1.299,6.492,2.9c1.299,1.602,2.251,4.199,2.771,7.445s0.605,7.142,0.649,9.739
	c0.043,2.597,0.043,3.896,1.298,4.718c1.256,0.822,3.767,1.168,6.883,1.342c3.116,0.173,6.839,0.173,8.526-0.563
	c1.688-0.735,1.342-2.207,1.169-3.981c-0.173-1.775-0.173-3.853,0.477-5.411c0.648-1.558,1.947-2.597,1.991-4.111
	c0.043-1.516-1.169-3.506-1.256-5.194s0.952-3.073,1.818-5.107c0.865-2.034,1.558-4.718,1.428-6.709s-1.082-3.29-1.817-4.632
	c-0.736-1.342-1.256-2.727-1.429-5.843c-0.173-3.117,0-7.965,0.952-10.691c0.952-2.728,2.684-3.333,4.112-3.68
	c1.428-0.346,2.554-0.433,2.986-1.299c0.433-0.865,0.173-2.51,1.774-3.505c1.602-0.996,5.064-1.342,7.358-0.692
	s3.42,2.293,4.849,3.159c1.428,0.865,3.159,0.952,5.323,1.429c2.164,0.476,4.762,1.341,6.319,2.684
	c1.559,1.342,2.078,3.159,3.29,4.068s3.116,0.909,6.232,1.212c3.117,0.303,7.445,0.908,10.951,0.52
	c3.506-0.39,6.189-1.774,7.271-3.073c1.083-1.299,0.563-2.511-0.648-4.285s-3.116-4.112-3.463-6.233
	c-0.347-2.12,0.865-4.024,2.294-5.93c1.428-1.904,3.073-3.809,4.111-5.54c1.039-1.731,1.473-3.289,0.693-4.458
	s-2.771-1.948-4.588-2.857c-1.818-0.909-3.463-1.947-3.03-2.986s2.943-2.077,5.15-2.986c2.208-0.909,4.112-1.688,5.28-3.506
	c1.169-1.818,1.602-4.675,1.385-6.71c-0.216-2.034-1.082-3.246-1.947-4.718c-0.866-1.471-1.731-3.202-1.342-5.15
	c0.39-1.947,2.034-4.112,3.289-4.415c1.256-0.303,2.122,1.255,3.42,2.554c1.299,1.299,3.03,2.337,4.285,1.298
	c1.255-1.038,2.034-4.155,2.511-6.709c0.476-2.554,0.648-4.544,1.99-5.583s3.853-1.125,5.151-2.598
	c1.299-1.472,1.385-4.328,0.26-5.8s-3.463-1.558-5.497-1.904c-2.035-0.347-3.766-0.952-3.203-1.602s3.42-1.342,5.064-2.208
	c1.645-0.865,2.077-1.904,0.389-3.115c-1.688-1.213-5.496-2.598-6.103-4.459c-0.605-1.861,1.991-4.198,4.545-3.982
	c2.554,0.217,5.064,2.987,6.493,2.987c1.428,0,1.774-2.771,2.51-5.108c0.736-2.337,1.861-4.241,3.073-6.405s2.511-4.589,2.164-5.692
	c-0.346-1.104-2.337-0.887-4.198-0.043s-3.593,2.315-4.762,2.272c-1.168-0.043-1.774-1.602-1.125-3.052s2.554-2.791,3.679-3.723
	c1.126-0.93,1.472-1.449,1.407-2.942c-0.065-1.493-0.541-3.961,0.021-4.719c0.563-0.757,2.164,0.195,3.527,1.233
	c1.364,1.039,2.489,2.165,4.178,1.407c1.688-0.758,3.938-3.397,5.021-5.476c1.083-2.077,0.996-3.593-0.216-4.609
	c-1.213-1.018-3.55-1.537-5.108-1.147c-1.558,0.39-2.337,1.688-3.896,2.056c-1.558,0.369-3.896-0.194-4.479-1.709
	c-0.584-1.516,0.584-3.982,1.515-5.454s1.623-1.947,2.965-2.294c1.342-0.346,3.334-0.563,6.018-1.385s6.06-2.251,7.877-4.177
	c1.818-1.927,2.078-4.351,1.536-5.563c-0.54-1.212-1.882-1.212-3.657-2.143c-1.774-0.931-3.981-2.792-5.821-4.458
	c-1.839-1.667-3.312-3.138-2.835-4.892c0.476-1.753,2.9-3.787,4.999-3.57c2.1,0.216,3.874,2.684,5.778,4.718
	c1.905,2.034,3.939,3.636,6.125,4.198c2.186,0.563,4.523,0.087,5.713-1.19c1.19-1.276,1.234-3.354,0.585-4.956
	c-0.649-1.601-1.991-2.727-3.441-4.479s-3.008-4.134-3.873-5.778c-0.866-1.646-1.039-2.554,0.346-1.948
	c1.386,0.606,4.328,2.727,6.189,3.397c1.861,0.672,2.641-0.107,3.29,0.325s1.169,2.077,2.532,3.073
	c1.363,0.995,3.57,1.342,5.259,0.757c1.688-0.584,2.856-2.099,3.008-3.873c0.152-1.775-0.714-3.81-2.077-4.87
	c-1.364-1.061-3.225-1.146-4.523-2.229c-1.298-1.082-2.034-3.16-3.246-4.329c-1.212-1.168-2.899-1.429-4.718-1.645
	c-1.817-0.217-3.766-0.39-6.125-0.671c-2.358-0.281-5.129-0.671-7.229-1.493s-3.527-2.078-4.371-4.025
	c-0.845-1.947-1.104-4.589-1.299-8.419c-0.195-3.831-0.324-8.852,0.086-11.903c0.412-3.051,1.363-4.133,1.212-5.172
	s-1.406-2.034-2.856-3.463s-3.095-3.29-3.938-5.887s-0.888-5.93-1.364-8.916c-0.476-2.987-1.384-5.627-2.077-7.186
	c-0.692-1.559-1.169-2.034-2.813-2.879c-1.645-0.844-4.458-2.056-7.531-3.679s-6.406-3.658-8.202-5.238s-2.056-2.705-2.143-4.782
	c-0.087-2.078,0-5.108-0.173-7.792c-0.174-2.684-0.606-5.021-0.952-7.185c-0.347-2.164-0.606-4.155-0.823-6.06
	c-0.216-1.905-0.389-3.723-1.471-5.151c-1.083-1.428-3.073-2.468-4.545-4.805c-1.472-2.337-2.424-5.973-2.9-9.393
	s-0.477-6.623-1.429-8.917c-0.952-2.294-2.856-3.68-6.103-6.017c-3.246-2.337-7.835-5.627-11.644-8.44
	c-3.81-2.813-6.839-5.151-9.652-7.834s-5.411-5.713-7.402-9.306c-1.99-3.593-3.376-7.748-5.54-9.479
	c-2.164-1.731-5.107-1.039-6.753-2.684c-1.645-1.645-1.99-5.627-1.298-8.397s2.424-4.329,3.029-6.233
	c0.606-1.904,0.087-4.155-2.251-6.406c-2.337-2.251-6.492-4.501-9.09-6.752c-2.597-2.251-3.635-4.501-5.106-5.713
	c-1.472-1.212-3.377-1.385-5.974-3.117s-5.887-5.021-8.743-8.657c-2.857-3.636-5.281-7.618-7.705-11.253
	c-2.424-3.636-4.848-6.926-7.531-9.177c-2.684-2.251-5.627-3.462-9.176-5.454c-3.55-1.991-7.705-4.761-11.341-7.878
	c-3.636-3.116-6.752-6.58-8.224-9.35s-1.299-4.848-1.212-5.887c0.087-1.039,0.087-1.039-1.472-2.38
	c-1.559-1.342-4.675-4.025-7.272-7.098c-2.598-3.073-4.675-6.536-6.839-10.258c-2.164-3.722-4.415-7.704-5.714-11.859
	c-1.298-4.156-1.645-8.484-2.597-11.514c-0.952-3.03-2.51-4.761-3.982-7.704c-1.472-2.944-2.856-7.099-3.809-9.003
	c-0.952-1.905-1.472-1.559-2.857-1.385c-1.385,0.173-3.636,0.173-6.405,0.259c-2.771,0.087-6.06,0.26-8.008-0.39
	c-1.947-0.649-2.554-2.121-3.766-3.16s-3.03-1.645-4.459-3.462c-1.428-1.818-2.467-4.848-4.154-6.709
	c-1.688-1.861-4.025-2.553-6.406-3.463c-2.381-0.909-4.805-2.034-7.099-3.938c-2.294-1.904-4.458-4.588-6.623-5.843
	c-2.164-1.255-4.328-1.082-5.453-1.992c-1.125-0.909-1.212-2.899-0.39-4.891s2.554-3.982,3.592-5.973
	c1.039-1.991,1.385-3.982,2.25-5.237c0.866-1.255,2.251-1.775,3.333-2.771s1.861-2.467,3.376-3.549s3.766-1.775,5.021-2.943
	c1.255-1.169,1.516-2.813,2.727-3.982c1.212-1.169,3.377-1.861,4.675-2.857c1.299-0.996,1.731-2.294,2.034-3.852
	c0.304-1.558,0.477-3.376,0.563-4.285c0.086-0.909,0.086-0.909-47.137-0.996s-141.669-0.259-188.892-0.346
	c-47.223-0.086-47.223-0.086-46.963,0.779c0.26,0.866,0.78,2.597,5.714,31.857c4.935,29.26,14.285,86.049,21.902,130.025
	c7.619,43.977,13.506,75.141,16.709,92.022s3.723,19.478,4.242,22.94c0.52,3.463,1.039,7.792,2.164,11.341
	c1.125,3.549,2.856,6.319,4.329,9.349c1.471,3.03,2.683,6.319,3.809,10.128s2.165,8.137,3.376,11.947
	c1.212,3.809,2.597,7.099,3.982,9.608c1.385,2.511,2.77,4.242,3.809,5.974s1.731,3.463,1.385,5.627
	c-0.346,2.164-1.731,4.762-1.385,6.666s2.424,3.116,2.424,5.021c0,1.905-2.078,4.502-2.37,6.276
	c-0.292,1.774,1.201,2.728,3.409,4.112C112.242,448.847,115.163,450.664,113.961,453.348z"/>
</svg>
