<?xml version="1.0" encoding="utf-8"?>
<!-- Generator: Adobe Illustrator 15.1.0, SVG Export Plug-In . SVG Version: 6.00 Build 0)  -->
<!DOCTYPE svg PUBLIC "-//W3C//DTD SVG 1.1//EN" "http://www.w3.org/Graphics/SVG/1.1/DTD/svg11.dtd">
<svg version="1.1" id="Layer_1" xmlns="http://www.w3.org/2000/svg" xmlns:xlink="http://www.w3.org/1999/xlink" x="0px" y="0px"
	 width="612px" height="792px" viewBox="0 0 612 792" enable-background="new 0 0 612 792" xml:space="preserve">
<path fill-rule="evenodd" clip-rule="evenodd" stroke="#000000" stroke-width="2.9999" stroke-linecap="round" stroke-linejoin="round" stroke-miterlimit="22.9256" d="
	M71.042,577.925c-1.088,0.223-2.805,0.751-4.258,1.378c-1.453,0.628-2.641,1.354-4.16,1.453c-1.519,0.1-3.368-0.429-5.646-2.113
	c-2.278-1.683-4.986-4.522-7-6.371c-2.014-1.85-3.334-2.708-4.391-2.938c-1.056-0.231-1.849,0.165-2.707,1.254
	c-0.859,1.09-1.783,2.873-2.807,3.698s-2.146,0.693-2.773,0.693c-0.627,0-0.76,0.132-0.792-0.132
	c-0.033-0.265,0.033-0.925,0.297-12.084c0.264-11.16,0.727-32.818,2.84-104.331c2.113-71.512,5.877-192.879,7.756-253.473
	c1.879-60.593,1.874-60.414,2.064-60.323c0.189,0.09,0.574,0.092,4.869,0.093s12.5,0.001,39.176-0.139s71.826-0.421,94.4-0.561
	c22.575-0.14,22.575-0.14,22.855,0.141c0.28,0.28,0.841,0.841,1.172,1.717c0.33,0.875,0.429,2.063,0.875,2.756
	c0.445,0.693,1.238,0.892,2.162,0.627c0.925-0.264,1.981-0.991,4.474-1.271c2.493-0.28,6.422-0.115,9.344,0.297
	s4.837,1.073,6.455,2.41c1.618,1.337,2.938,3.351,4.193,5.035c1.254,1.684,2.443,3.037,3.863,3.813
	c1.419,0.775,3.071,0.974,5.167,0.974c2.097,0,4.639-0.198,6.355,0.148c1.717,0.347,2.608,1.238,3.352,2.394
	c0.743,1.156,1.336,2.575,2.921,4.854c1.584,2.278,4.16,5.415,6.554,7.461c2.394,2.047,4.606,3.004,6.818,2.938
	s4.424-1.156,6.455-1.419c2.03-0.264,3.879,0.297,6.108,0.017s4.837-1.403,7.346-2.212c2.509-0.809,4.919-1.304,6.686-0.974
	c1.767,0.33,2.89,1.485,3.137,2.856c0.248,1.37-0.379,2.955-2.245,3.896c-1.866,0.941-4.969,1.238-7.644,1.502
	s-4.919,0.495-7.016,1.238c-2.097,0.743-4.045,1.998-4.54,3.434s0.462,3.054,2.179,3.565c1.716,0.512,4.193-0.083,6.504-0.644
	c2.312-0.562,4.458-1.09,6.966-1.172c2.509-0.083,5.382,0.28,8.271,1.007c2.89,0.726,5.795,1.815,9.921,3.78
	c4.127,1.964,9.475,4.805,13.733,5.499c4.259,0.693,7.429-0.76,10.862-2.344c3.434-1.585,7.132-3.302,11.159-4.358
	c4.028-1.056,8.387-1.453,12.084-3.104c3.698-1.65,6.735-4.556,11.094-6.669c4.358-2.113,10.037-3.434,13.998-3.962
	c3.963-0.528,6.207-0.264,8.122,0.792s3.5,2.905,6.405,3.962c2.906,1.057,7.132,1.321,11.754,0.594s9.641-2.443,14.263-5.415
	c4.622-2.971,8.849-7.197,14.264-11.886c5.414-4.688,12.018-9.839,17.366-14.527c5.349-4.688,9.442-8.915,12.414-11.49
	c2.971-2.575,4.82-3.5,7.065-4.094c2.244-0.595,4.887-0.859,6.867-1.717s3.302-2.311,6.141-4.226
	c2.84-1.916,7.197-4.292,11.754-6.142c4.557-1.849,9.311-3.169,12.15-4.292c2.839-1.123,3.764-2.047,7.395-3.038
	c3.632-0.991,9.972-2.047,16.112-4.226c6.142-2.179,12.084-5.481,17.301-8.056c5.216-2.576,9.706-4.424,11.96-5.225
	c2.253-0.801,2.271-0.553,2.286,0.255c0.018,0.809,0.034,2.179,0.348,24.927s0.924,66.874,1.526,103.365s1.196,65.347,1.395,79.94
	c0.198,14.593,0,14.923-0.165,15.055c-0.165,0.132-0.297,0.066-0.825,0.231s-1.453,0.561-2.807,0.825s-3.136,0.396-4.325,0.43
	c-1.188,0.033-1.782-0.033-2.525,0.363c-0.743,0.396-1.635,1.255-2.724,2.245c-1.09,0.99-2.378,2.113-2.955,3.186
	c-0.578,1.073-0.446,2.096,0.247,3.483c0.693,1.387,1.948,3.136,3.005,5.613c1.056,2.476,1.914,5.679,2.442,8.007
	s0.727,3.78,0.396,5.002c-0.329,1.221-1.188,2.212-1.749,3.599c-0.562,1.387-0.826,3.169-0.693,4.655
	c0.132,1.486,0.66,2.674,1.354,3.929c0.693,1.254,1.552,2.575,2.146,3.796c0.594,1.222,0.924,2.344,0.627,4.49
	c-0.298,2.146-1.222,5.315-3.17,9.839c-1.948,4.523-4.919,10.4-6.604,13.966c-1.684,3.566-2.08,4.821-2.608,5.943
	s-1.188,2.113-1.354,3.367c-0.165,1.255,0.165,2.773,0.132,3.995s-0.429,2.146-1.057,3.202c-0.627,1.057-1.485,2.246-1.782,3.765
	c-0.298,1.519-0.033,3.367,0.132,5.018c0.165,1.651,0.231,3.104,0.165,4.458c-0.065,1.354-0.265,2.607-0.132,3.632
	c0.132,1.023,0.594,1.815,0.528,2.641c-0.066,0.826-0.661,1.685-1.123,2.477s-0.792,1.519-0.957,2.51
	c-0.165,0.99-0.165,2.244-0.165,3.367c0,1.122,0,2.113-0.495,2.493c-0.495,0.379-1.486,0.148-2.427,0.049
	c-0.941-0.099-1.832-0.065-2.345,0.43c-0.511,0.495-0.644,1.452-0.66,2.294c-0.017,0.843,0.083,1.569,0.363,2.263
	c0.28,0.692,0.743,1.354,0.908,1.914c0.165,0.562,0.033,1.023-0.33,1.552s-0.958,1.123-1.585,1.717
	c-0.627,0.595-1.288,1.189-1.651,1.998c-0.362,0.809-0.429,1.832-0.462,2.789c-0.033,0.958-0.033,1.85,0,2.873
	s0.099,2.179-0.1,2.872s-0.66,0.924-1.337,1.188c-0.677,0.264-1.568,0.562-2.278,1.023c-0.71,0.463-1.237,1.09-1.403,1.865
	c-0.165,0.776,0.033,1.7,0.611,2.79c0.577,1.089,1.535,2.345,2.36,3.269c0.825,0.925,1.52,1.519,1.568,1.948
	c0.049,0.429-0.545,0.693-1.172,1.255c-0.628,0.561-1.288,1.42-1.767,2.327c-0.479,0.908-0.776,1.865-0.908,3.483
	s-0.099,3.896-0.28,5.629s-0.578,2.922-1.8,3.317c-1.222,0.396-3.269,0-4.985,0.099c-1.717,0.1-3.104,0.694-5.382,3.104
	c-2.277,2.41-5.447,6.636-7.857,9.508c-2.41,2.873-4.062,4.392-5.447,5.712c-1.387,1.321-2.51,2.443-3.302,3.83
	c-0.793,1.387-1.255,3.038-2.18,4.226c-0.924,1.188-2.311,1.915-3.4,2.18c-1.09,0.264-1.882,0.066-2.707,0.429
	c-0.825,0.364-1.685,1.288-2.212,2.41c-0.528,1.123-0.727,2.443-1.552,3.27c-0.826,0.825-2.279,1.155-3.731,1.65
	c-1.453,0.495-2.905,1.155-4.392,2.311c-1.485,1.156-3.004,2.807-4.721,4.095c-1.717,1.287-3.632,2.212-4.953,2.773
	c-1.32,0.561-2.047,0.76-3.202-0.43c-1.155-1.188-2.74-3.764-4.193-5.58c-1.452-1.815-2.772-2.872-3.896-3.399
	c-1.122-0.529-2.047-0.529-3.136-0.166c-1.09,0.363-2.345,1.09-3.071,2.048c-0.727,0.957-0.924,2.146-1.585,2.839
	c-0.659,0.693-1.782,0.892-3.301,1.453s-3.435,1.485-4.458,2.839s-1.155,3.137-1.552,5.712c-0.396,2.575-1.056,5.943-2.146,7.132
	s-2.608,0.197-4.49-0.133s-4.127,0-5.679,0.826c-1.552,0.825-2.41,2.146-3.005,3.532c-0.594,1.387-0.924,2.84-1.717,3.797
	c-0.792,0.957-2.047,1.419-3.07,2.146s-1.815,1.717-2.477,2.972c-0.66,1.254-1.188,2.773-1.452,5.018
	c-0.265,2.246-0.265,5.217-0.297,7.528c-0.033,2.311-0.1,3.962-0.43,5.019c-0.33,1.056-0.925,1.519-1.948,1.617
	c-1.023,0.1-2.476-0.165-3.4,0.495c-0.925,0.661-1.32,2.245-1.023,3.533c0.297,1.287,1.287,2.278,2.41,3.104
	c1.122,0.825,2.377,1.485,3.17,2.212c0.792,0.727,1.122,1.519,1.056,2.74c-0.065,1.222-0.527,2.873-0.759,4.457
	c-0.231,1.585-0.231,3.104,0.297,4.787c0.528,1.685,1.585,3.533,1.519,5.019c-0.065,1.486-1.255,2.609-2.707,2.015
	c-1.453-0.595-3.17-2.906-4.688-3.236s-2.839,1.321-3.632,3.17c-0.792,1.85-1.057,3.896-1.519,5.118
	c-0.463,1.221-1.122,1.617-2.575,1.485s-3.697-0.792-4.392-1.915c-0.693-1.122,0.166-2.707,0.693-4.062
	c0.528-1.354,0.727-2.476,0.76-4.324c0.033-1.85-0.1-4.425-0.958-6.339c-0.858-1.915-2.442-3.17-4.952-4.655
	c-2.509-1.486-5.942-3.203-8.254-3.93s-3.5-0.462-4.457,0.628c-0.957,1.089-1.684,3.004-2.146,4.391
	c-0.463,1.387-0.661,2.245-1.387,3.17c-0.727,0.924-1.981,1.915-2.84,3.202c-0.858,1.288-1.32,2.873-1.618,4.127
	c-0.297,1.255-0.429,2.18-1.254,3.203c-0.826,1.023-2.345,2.146-3.302,3.599c-0.958,1.452-1.354,3.235-1.42,4.854
	c-0.066,1.617,0.198,3.07,0.033,4.16c-0.165,1.089-0.76,1.815-2.18,2.839c-1.419,1.023-3.664,2.344-4.787,3.73
	c-1.122,1.387-1.122,2.839-0.726,4.226s1.188,2.708,1.815,3.83c0.628,1.123,1.09,2.048,1.122,3.203
	c0.034,1.155-0.362,2.542-0.396,4.522c-0.033,1.981,0.297,4.557,1.023,6.472s1.849,3.17,2.377,4.457
	c0.528,1.288,0.463,2.608,0.165,3.896c-0.297,1.288-0.825,2.543-3.269,3.236c-2.442,0.693-6.802,0.825-9.442,1.452
	c-2.641,0.628-3.565,1.75-4.424,5.646c-0.858,3.896-1.65,10.565-2.642,14.132c-0.99,3.565-2.179,4.027-3.995,4.127
	c-1.815,0.099-4.259-0.166-6.24,0.099c-1.98,0.265-3.499,1.057-5.018,1.816c-1.519,0.759-3.038,1.485-4.59,1.717
	c-1.552,0.23-3.136-0.033-4.589,0.264c-1.452,0.297-2.773,1.156-3.962,0.957c-1.188-0.197-2.245-1.452-3.401-3.499
	c-1.155-2.047-2.409-4.887-4.259-7.363c-1.849-2.476-4.292-4.589-5.612-6.174c-1.321-1.585-1.519-2.641-2.278-4.027
	s-2.08-3.104-3.4-4.16c-1.321-1.057-2.641-1.453-5.051-1.42c-2.411,0.033-5.91,0.495-8.518-0.297
	c-2.609-0.793-4.326-2.84-5.382-4.49c-1.056-1.651-1.453-2.906-1.618-5.812s-0.099-7.461-0.792-10.896
	c-0.693-3.434-2.146-5.744-3.697-6.999c-1.552-1.254-3.203-1.452-4.755-1.089c-1.551,0.362-3.004,1.287-4.126,2.112
	c-1.123,0.825-1.916,1.552-2.972,1.453c-1.057-0.1-2.377-1.023-3.698-1.287c-1.32-0.265-2.641,0.131-3.862,1.32
	c-1.222,1.188-2.345,3.169-3.368,4.787c-1.024,1.617-1.948,2.872-2.971,3.533c-1.024,0.66-2.146,0.726-3.401,1.518
	c-1.254,0.793-2.641,2.312-3.631,3.83c-0.991,1.52-1.585,3.038-2.972,3.368s-3.565-0.528-5.447-1.023
	c-1.882-0.495-3.467-0.627-4.953,0.198s-2.873,2.608-4.127,3.73s-2.378,1.585-3.204,0.792c-0.826-0.792-1.354-2.84-2.179-4.292
	c-0.826-1.453-1.948-2.312-4.16-2.905c-2.212-0.595-5.514-0.925-8.32-1.783s-5.117-2.245-7.296-3.665s-4.226-2.872-6.636-3.235
	s-5.184,0.363-7.396,1.321c-2.212,0.957-3.863,2.146-5.019,3.928c-1.156,1.783-1.816,4.16-3.334,5.185
	c-1.519,1.023-3.896,0.693-6.405-0.66c-2.51-1.354-5.15-3.731-7.264-5.91c-2.113-2.18-3.698-4.16-5.349-5.613
	c-1.651-1.452-3.368-2.377-4.754-3.896s-2.443-3.632-4.688-5.613c-2.245-1.98-5.679-3.829-8.98-4.424
	c-3.302-0.594-6.472,0.066-9.112,0.528c-2.642,0.462-4.754,0.727-7.33,0.132c-2.575-0.594-5.613-2.047-8.254-3.104
	c-2.641-1.056-4.886-1.717-6.933-1.98s-3.896-0.132-4.49-1.122c-0.595-0.991,0.065-3.104,0.197-5.283
	c0.132-2.179-0.264-4.424-1.915-6.405c-1.651-1.98-4.557-3.697-6.273-5.282c-1.717-1.585-2.245-3.037-2.113-4.82
	c0.132-1.783,0.924-3.896,0.727-5.745c-0.198-1.849-1.387-3.434-2.708-4.754c-1.321-1.321-2.773-2.377-4.622-3.17
	c-1.849-0.792-4.094-1.32-5.2-2.41s-1.073-2.74-1.106-4.556c-0.033-1.816-0.132-3.797-0.775-5.3
	c-0.644-1.502-1.833-2.525-3.169-2.872c-1.337-0.347-2.823-0.017-3.714,0.875c-0.892,0.892-1.189,2.344-1.783,2.872
	s-1.486,0.133-2.328-0.099s-1.634-0.297-2.26-0.372C72.591,577.785,72.13,577.702,71.042,577.925z"/>
</svg>
