<?xml version="1.0" encoding="utf-8"?>
<!-- Generator: Adobe Illustrator 15.1.0, SVG Export Plug-In . SVG Version: 6.00 Build 0)  -->
<!DOCTYPE svg PUBLIC "-//W3C//DTD SVG 1.1//EN" "http://www.w3.org/Graphics/SVG/1.1/DTD/svg11.dtd">
<svg version="1.1" id="Layer_1" xmlns="http://www.w3.org/2000/svg" xmlns:xlink="http://www.w3.org/1999/xlink" x="0px" y="0px"
	 width="792px" height="612px" viewBox="0 0 792 612" enable-background="new 0 0 792 612" xml:space="preserve">
<path fill-rule="evenodd" clip-rule="evenodd" stroke="#000000" stroke-width="2.9999" stroke-linecap="round" stroke-linejoin="round" stroke-miterlimit="22.9256" d="
	M408.889,74.29c4.557,0.044,10.527,0.044,15.263,0.466c4.734,0.422,8.233,1.266,12.334,1.688c4.102,0.422,8.807,0.422,11.731,0.271
	c2.925-0.15,4.071-0.453,4.644-0.332c0.573,0.121,0.573,0.664,0.905,1.388s0.995,1.628,2.684,1.81
	c1.689,0.181,4.403-0.362,6.092-0.996c1.689-0.633,2.353-1.357,4.223-1.719c1.869-0.362,4.945-0.362,7.328-0.633
	c2.383-0.271,4.071-0.814,5.609-1.086s2.925-0.271,8.956-0.211c6.032,0.061,16.708,0.181,61.491,0.965
	c44.783,0.784,123.675,2.231,163.271,2.948c39.597,0.716,39.899,0.701,40.072,0.769c0.174,0.068,0.219,0.218,0.249,2.043
	s0.045,5.323,0.12,16.292c0.076,10.97,0.211,29.411,0.641,48.101s1.153,37.628,1.516,55.12s0.362,33.535,0.422,43.608
	c0.061,10.072,0.182,14.174-0.271,31.062c-0.452,16.888-1.478,46.563-1.99,61.4s-0.513,14.837-0.905,14.701
	c-0.392-0.135-1.176-0.406-2.05-0.753c-0.875-0.347-1.84-0.77-2.79-1.041s-1.885-0.392-2.729-0.12
	c-0.844,0.271-1.598,0.935-2.533,1.674c-0.935,0.738-2.051,1.553-3.076,2.246s-1.96,1.267-2.653,2.473
	c-0.693,1.207-1.146,3.047-0.604,4.614c0.543,1.568,2.081,2.865,2.639,4.766c0.559,1.899,0.136,4.402-0.226,6.106
	c-0.362,1.704-0.663,2.609-0.331,4.057c0.331,1.448,1.296,3.438,1.975,5.052s1.07,2.85,1.056,3.905
	c-0.016,1.056-0.438,1.93-2.367,3.271c-1.931,1.343-5.368,3.152-7.6,4.026c-2.231,0.875-3.257,0.814-3.664-0.136
	s-0.196-2.789-0.83-3.739c-0.633-0.95-2.11-1.011-3.121-1.478c-1.01-0.468-1.553-1.343-2.172-1.961
	c-0.618-0.618-1.312-0.979-2.427-0.241c-1.116,0.739-2.654,2.579-3.936,3.966s-2.308,2.322-2.986,2.519
	c-0.678,0.196-1.01-0.348-1.115-1.343s0.015-2.442-0.452-3.453c-0.468-1.01-1.523-1.583-2.428-1.492
	c-0.905,0.09-1.659,0.845-2.021,1.869c-0.362,1.025-0.332,2.323-0.86,2.79c-0.527,0.468-1.612,0.105-2.276-0.316
	c-0.664-0.423-0.904-0.904-1.281-1.448c-0.377-0.542-0.891-1.146-1.734-1.19c-0.845-0.046-2.021,0.467-2.744,0.708
	s-0.995,0.212-1.508-0.195s-1.267-1.191-1.689-2.308c-0.422-1.115-0.512-2.563-1.342-3.287c-0.829-0.724-2.397-0.724-3.332-0.181
	c-0.936,0.543-1.236,1.629-1.96,2.956c-0.725,1.326-1.87,2.895-2.76,4.538s-1.523,3.362-2.685,4.056s-2.85,0.362-3.559,1.281
	c-0.708,0.92-0.437,3.092-0.919,4.509c-0.482,1.418-1.719,2.081-2.91,1.644c-1.191-0.437-2.338-1.975-2.806-3.725
	c-0.467-1.749-0.256-3.709-0.558-4.885s-1.115-1.568-2.156-1.327c-1.04,0.241-2.307,1.116-3.099,2.073
	c-0.791,0.957-1.108,1.998-1.681,2.511c-0.573,0.513-1.402,0.497-2.225,0.264c-0.821-0.233-1.636-0.686-1.802-1.485
	c-0.166-0.799,0.316-1.945-0.045-2.217c-0.362-0.271-1.568,0.332-2.533,1.131c-0.965,0.8-1.689,1.795-2.881,2.081
	c-1.19,0.287-2.85-0.136-3.995-1.765c-1.146-1.628-1.779-4.463-1.938-7.274c-0.158-2.813,0.158-5.602,0.347-7.555
	c0.188-1.952,0.249-3.068-0.34-4.44c-0.588-1.372-1.824-3.001-2.367-4.961s-0.392-4.252-0.984-5.938
	c-0.594-1.687-1.931-2.767-2.926-2.752c-0.995,0.016-1.648,1.126-1.976,3.129c-0.326,2.003-0.326,4.898-0.085,6.994
	s0.724,3.393,0.799,4.991c0.075,1.598-0.256,3.498-0.618,5.292c-0.362,1.795-0.754,3.483-0.497,4.841
	c0.256,1.357,1.16,2.383,1.778,3.287c0.618,0.905,0.95,1.688,1.132,2.91c0.181,1.222,0.211,2.88,0.09,4.102
	c-0.12,1.222-0.392,2.006-1.176,2.91s-2.081,1.93-3.514,2.488c-1.433,0.558-3,0.647-5.066,0.647c-2.065,0-4.629-0.09-6.213-0.392
	c-1.583-0.302-2.186-0.814-3.166-1.93c-0.98-1.116-2.337-2.835-3.393-3.393c-1.056-0.559-1.81,0.045-2.262,0.995
	s-0.604,2.246-1.191,2.623s-1.613-0.166-2.503-1.312c-0.89-1.146-1.644-2.896-2.579-3.951c-0.935-1.055-2.051-1.417-3.377-1.401
	c-1.328,0.015-2.865,0.407-4.057,0.979c-1.191,0.573-2.036,1.327-2.353,2.88c-0.316,1.554-0.105,3.905,0.271,5.82
	s0.92,3.394,0.995,4.479c0.075,1.086-0.316,1.779-1.116,2.126c-0.799,0.348-2.005,0.348-2.743-0.211
	c-0.739-0.558-1.011-1.674-1.509-2.503c-0.497-0.829-1.222-1.372-1.975-1.99c-0.754-0.618-1.539-1.312-2.218-1.267
	c-0.678,0.045-1.251,0.829-2.035,0.904c-0.783,0.076-1.779-0.558-2.805-0.693s-2.081,0.227-2.835,0.965
	c-0.754,0.739-1.206,1.854-1.975,2.744c-0.77,0.89-1.854,1.554-3.739,1.961c-1.886,0.407-4.57,0.557-7.059,1.266
	s-4.779,1.976-6.891,2.519s-4.041,0.361-5.67,0.06c-1.629-0.301-2.955-0.724-3.528-1.688s-0.392-2.473-1.297-4.071
	c-0.904-1.599-2.895-3.287-4.071-4.734c-1.176-1.448-1.538-2.654-1.508-4.524c0.03-1.869,0.452-4.402,0.784-6.514
	s0.573-3.8-0.03-5.156c-0.604-1.357-2.051-2.383-3.468-3.077c-1.418-0.692-2.805-1.055-4.162-1.989
	c-1.357-0.936-2.684-2.443-2.925-4.494s0.603-4.645,0.422-6.062c-0.181-1.418-1.387-1.659-2.11-0.875
	c-0.725,0.785-0.966,2.594-1.72,3.589c-0.754,0.996-2.021,1.177-2.985,0.604s-1.629-1.899-2.594-2.292
	c-0.965-0.392-2.231,0.151-2.201,1.236c0.03,1.086,1.356,2.715,2.171,4.132s1.116,2.624,1.267,4.162
	c0.151,1.538,0.151,3.407,1.116,4.463s2.896,1.297,4.493,1.447c1.599,0.151,2.865,0.211,4.168,1.527
	c1.304,1.315,2.643,3.886,3.163,6.412c0.52,2.525,0.221,5.006-0.472,6.269s-1.778,1.309-2.773,1.52s-1.899,0.588-2.209,1.522
	c-0.309,0.935-0.022,2.428,1.343,3.054c1.364,0.626,3.807,0.384,5.043,0.942c1.236,0.558,1.268,1.915,0.166,2.805
	c-1.101,0.89-3.332,1.312-4.335,2.353c-1.003,1.04-0.776,2.699,0.513,3.287s3.642,0.105,5.036,0.475s1.831,1.591,1.417,2.85
	c-0.415,1.259-1.682,2.556-4.192,2.3c-2.511-0.257-6.266-2.066-8.671-2.383s-3.461,0.859-4.411,0.467
	c-0.949-0.392-1.794-2.352-2.329-3.604c-0.535-1.251-0.762-1.794-1.176-2.337c-0.415-0.543-1.018-1.085-1.877-1.417
	s-1.976-0.452-2.79-0.121c-0.813,0.332-1.327,1.116-2.653,1.191c-1.327,0.075-3.469-0.558-4.977-0.995s-2.382-0.679-3.528-0.709
	c-1.146-0.03-2.563,0.151-3.604,0.709s-1.704,1.493-2.563,2.458s-1.915,1.96-2.94,2.141c-1.025,0.182-2.021-0.452-2.835-0.738
	c-0.813-0.286-1.447-0.227-2.571-0.016c-1.123,0.211-2.737,0.572-4.102,1.387c-1.364,0.813-2.48,2.081-3.084,2.91
	c-0.603,0.829-0.693,1.222-1.297,1.326c-0.603,0.106-1.719-0.075-2.669-0.286s-1.734-0.452-2.035-1.342
	c-0.302-0.89-0.121-2.428-0.227-3.303c-0.105-0.874-0.498-1.085-1.297-0.844s-2.005,0.935-3.121,1.688s-2.142,1.568-2.503,2.714
	c-0.362,1.146-0.061,2.624-0.438,3.604c-0.377,0.979-1.433,1.462-2.428,1.267c-0.995-0.196-1.93-1.071-2.533-1.749
	c-0.603-0.679-0.874-1.161-1.674-2.156c-0.799-0.996-2.126-2.504-3.709-3.649c-1.584-1.146-3.423-1.93-5.323-2.201
	c-1.899-0.271-3.859-0.03-5.745,0.135c-1.885,0.166-3.693,0.257-5.172,0.016c-1.478-0.241-2.624-0.814-4.177-0.693
	c-1.553,0.12-3.513,0.935-5.383,1.582c-1.869,0.649-3.649,1.132-5.232,0.95c-1.583-0.181-2.971-1.025-4.116-1.206
	c-1.146-0.181-2.051,0.302-2.774,0.738c-0.724,0.438-1.267,0.83-1.523,1.674c-0.256,0.845-0.226,2.142-0.754,2.745
	c-0.527,0.603-1.613,0.513-2.352,0.935c-0.739,0.422-1.132,1.357-1.659,1.93c-0.527,0.573-1.191,0.784-1.87,0.89
	c-0.678,0.105-1.372,0.105-2.156,0.438s-1.658,0.995-2.563,0.814c-0.904-0.181-1.839-1.206-1.914-2.231
	c-0.076-1.025,0.708-2.051,1.01-2.896c0.302-0.844,0.12-1.508-0.468-1.704s-1.583,0.076-2.427,0.468
	c-0.845,0.393-1.538,0.905-2.292,0.905c-0.755,0-1.568-0.513-2.579-0.498s-2.217,0.558-3.03,0.482
	c-0.814-0.075-1.236-0.769-1.976-0.89c-0.739-0.12-1.795,0.332-2.563,0.226c-0.769-0.104-1.251-0.769-1.93-1.598
	c-0.68-0.829-1.554-1.824-2.806-1.839c-1.251-0.016-2.88,0.949-4.086,1.16c-1.207,0.211-1.991-0.331-3.227-0.241
	c-1.237,0.091-2.925,0.814-4.523,2.474c-1.598,1.658-3.107,4.252-4.855,5.247c-1.749,0.995-3.74,0.392-4.071-0.724
	c-0.332-1.116,0.995-2.744,1.357-4.011c0.362-1.268-0.241-2.172-1.598-2.685c-1.357-0.513-3.468-0.633-4.523,0.724
	c-1.056,1.357-1.056,4.192-1.719,5.338c-0.664,1.146-1.99,0.604-2.895-0.181s-1.387-1.81-2.624-1.297s-3.227,2.563-5.609,3.498
	c-2.383,0.935-5.157,0.754-7.72,0.543c-2.564-0.211-4.916-0.452-5.7-1.417c-0.784-0.965,0-2.654,0.694-3.71
	c0.693-1.055,1.296-1.478,1.085-2.201s-1.237-1.749-1.991-2.985s-1.236-2.684-1.387-4.538c-0.151-1.855,0.03-4.117,0.905-5.52
	c0.875-1.402,2.442-1.945,3.619-3.182s1.96-3.167,1.81-3.891s-1.236-0.241-2.865,0.393c-1.629,0.633-3.8,1.417-5.76,2.623
	c-1.96,1.207-3.709,2.835-5.519,4.253c-1.81,1.417-3.68,2.623-4.433,3.799c-0.754,1.177-0.392,2.323,0.693,3.017
	s2.895,0.935,3.649,1.688c0.753,0.754,0.452,2.021,0.09,2.896c-0.362,0.874-0.785,1.356-2.021,1.869s-3.287,1.056-5.307,1.779
	c-2.021,0.724-4.011,1.629-5.82,3.287c-1.81,1.659-3.438,4.071-5.248,5.368c-1.81,1.297-3.8,1.478-4.916,2.413
	c-1.116,0.935-1.357,2.623-2.292,3.679s-2.563,1.478-3.891,2.985c-1.327,1.508-2.353,4.102-3.589,5.308
	c-1.236,1.207-2.684,1.025-4.282,0.905c-1.599-0.121-3.348-0.181-4.524-0.438c-1.176-0.257-1.78-0.709-2.715-1.282
	s-2.202-1.267-3.182-0.904c-0.98,0.362-1.674,1.779-2.353,3.03c-0.679,1.252-1.342,2.338-2.413,2.88
	c-1.07,0.544-2.548,0.544-4.207,1.463c-1.659,0.92-3.499,2.76-5.172,4.6c-1.674,1.839-3.182,3.679-3.936,5.142
	s-0.754,2.548-0.075,3.543c0.678,0.995,2.035,1.9,2.458,2.82s-0.09,1.854-2.669,2.744s-7.223,1.734-10.419,1.87
	c-3.196,0.135-4.945-0.438-5.519-1.267c-0.573-0.83,0.03-1.915,0.799-2.428c0.769-0.513,1.704-0.453,2.065-1.086
	c0.362-0.634,0.151-1.96-0.512-2.473c-0.664-0.513-1.779-0.211-3.182,0.015c-1.403,0.227-3.091,0.377-4.026-0.316
	s-1.116-2.231-1.764-2.805s-1.764-0.181-2.865-0.739c-1.101-0.558-2.186-2.065-3.181-2.231c-0.996-0.166-1.9,1.011-1.568,2.096
	c0.332,1.086,1.9,2.081,2.382,3.212s-0.121,2.397-1.613,3.182s-3.875,1.086-5.413,2.549s-2.232,4.086-3.303,4.915
	c-1.07,0.829-2.518-0.135-2.895-1.387c-0.377-1.252,0.316-2.79,1.236-4.237c0.92-1.448,2.066-2.805,1.945-3.755
	s-1.508-1.492-2.834-0.738c-1.327,0.754-2.594,2.804-3.619,4.402c-1.025,1.599-1.81,2.745-2.684,3.272s-1.839,0.438-2.699,0.965
	c-0.859,0.528-1.613,1.674-2.231,2.819c-0.618,1.146-1.101,2.292-1.885,3.469c-0.784,1.176-1.869,2.382-2.97,3.316
	c-1.101,0.935-2.217,1.599-3.845,1.252s-3.77-1.704-5.443-2.729s-2.88-1.719-4.509-1.131c-1.628,0.588-3.679,2.458-5.564,3.377
	c-1.884,0.921-3.604,0.891-4.765,1.689s-1.765,2.428-2.955,2.76c-1.191,0.331-2.971-0.634-4.283-0.543
	c-1.312,0.09-2.156,1.236-3.106,1.96c-0.95,0.724-2.005,1.025-3.724,0.558c-1.719-0.467-4.102-1.703-5.504-1.719
	c-1.402-0.015-1.825,1.191-1.236,2.065c0.588,0.875,2.186,1.418,2.292,2.308c0.105,0.89-1.282,2.126-3.076,3.604
	s-3.996,3.197-5.338,3.302c-1.342,0.106-1.825-1.402-2.685-2.563c-0.86-1.161-2.096-1.975-3.333-2.021
	c-1.236-0.045-2.473,0.679-2.563,1.779c-0.09,1.101,0.965,2.579,1.523,3.83c0.558,1.252,0.618,2.277-0.031,2.85
	c-0.648,0.573-2.005,0.694-2.819,1.267c-0.814,0.573-1.086,1.599-1.659,2.202c-0.573,0.603-1.448,0.784-2.232,1.04
	c-0.784,0.257-1.478,0.588-1.779,1.418c-0.302,0.829-0.211,2.156-1.146,2.744c-0.935,0.588-2.896,0.437-4.313,0.709
	c-1.417,0.271-2.292,0.965-3.061,0.603c-0.769-0.361-1.433-1.779-2.111-1.523c-0.679,0.257-1.372,2.187-2.066,3.846
	c-0.694,1.658-1.387,3.046-2.141,3.573c-0.753,0.528-1.568,0.196-2.141-0.558c-0.573-0.754-0.904-1.93-1.432-2.126
	s-1.252,0.588-1.93,0.241c-0.679-0.347-1.312-1.824-2.156-2.926c-0.844-1.101-1.9-1.824-2.443-1.553s-0.573,1.538-0.648,2.94
	c-0.076,1.402-0.196,2.94-1.313,3.514c-1.115,0.572-3.227,0.181-3.709,0.588c-0.483,0.407,0.664,1.613,1.101,3.061
	c0.438,1.448,0.166,3.137-0.98,3.98c-1.146,0.845-3.167,0.845-4.297-0.165c-1.131-1.011-1.372-3.031-2.337-4.207
	c-0.965-1.176-2.654-1.508-3.514-0.618c-0.859,0.89-0.89,3.001-1.282,4.509s-1.146,2.412-2.503,4.236
	c-1.357,1.825-3.317,4.569-5.338,5.927c-2.021,1.356-4.101,1.326-5.006,0.708s-0.633-1.824,0.256-2.699
	c0.89-0.874,2.398-1.417,3.348-2.216c0.949-0.799,1.341-1.854,1.251-3.016c-0.091-1.161-0.663-2.429-1.493-2.881
	s-1.915-0.09-2.699,0.814c-0.785,0.905-1.267,2.353-2.247,3.046c-0.98,0.693-2.458,0.634-3.167,0.407
	c-0.709-0.226-0.648-0.618-0.603-1.568c0.045-0.949,0.075-2.458-0.467-3.016c-0.543-0.558-1.659-0.166-2.443,0.936
	c-0.784,1.101-1.236,2.909-2.141,3.784s-2.262,0.814-3.091,1.222s-1.131,1.281-1.478,2.231c-0.347,0.95-0.739,1.976-1.96,2.096
	c-1.222,0.121-3.272-0.663-4.659-0.558c-1.388,0.105-2.111,1.101-2.85,2.382c-0.739,1.282-1.493,2.851-1.839,4.207
	c-0.347,1.357-0.287,2.504-0.814,3.182c-0.528,0.679-1.644,0.89-2.442,0.136c-0.799-0.754-1.282-2.473-1.327-4.372
	c-0.045-1.9,0.347-3.981,1.07-5.443c0.724-1.463,1.779-2.308,1.749-3.258c-0.03-0.949-1.146-2.005-5.763-8.73
	c-4.618-6.725-12.737-19.119-16.797-25.211c-4.059-6.092-4.059-5.881-3.694-6.106c0.365-0.227,1.096-0.891,5.518-3.499
	s12.533-7.162,27.366-15.336c14.832-8.174,36.384-19.967,47.186-25.881c10.8-5.913,10.85-5.947,10.863-5.997
	c0.013-0.052-0.009-0.119-2.11-3.162s-6.279-9.062-10.386-14.852c-4.107-5.789-8.142-11.349-10.187-14.159
	c-2.044-2.81-2.097-2.87-2.12-2.942c-0.022-0.071-0.015-0.154-0.008-0.946c0.008-0.791,0.015-2.291,2.424-40.935
	c2.409-38.643,7.219-114.428,11.072-170.118s6.748-91.286,8.375-109.083c1.628-17.798,1.99-17.798,2.593-17.798
	s1.447,0,24.156,0.578c22.708,0.578,67.281,1.733,108.415,2.763c41.134,1.03,78.83,1.935,97.678,2.387
	c18.848,0.453,18.848,0.453,18.848,0.845s0,1.176-0.211,4.192c-0.211,3.015-0.633,8.263-0.754,10.856
	c-0.121,2.594,0.061,2.533,3.167,2.202s9.137-0.935,12.153-1.267c3.016-0.332,3.016-0.392,3.106-1.236
	c0.09-0.845,0.271-2.473,0.452-3.891s0.362-2.624,1.025-3.619c0.664-0.995,1.81-1.779,2.292-2.925
	c0.481-1.146,0.301-2.654,0.271-3.408s0.091-0.754,1.723-0.71C401.189,74.158,404.332,74.246,408.889,74.29z"/>
</svg>
