<?xml version="1.0" encoding="utf-8"?>
<!-- Generator: Adobe Illustrator 15.1.0, SVG Export Plug-In . SVG Version: 6.00 Build 0)  -->
<!DOCTYPE svg PUBLIC "-//W3C//DTD SVG 1.1//EN" "http://www.w3.org/Graphics/SVG/1.1/DTD/svg11.dtd">
<svg version="1.1" id="Layer_1" xmlns="http://www.w3.org/2000/svg" xmlns:xlink="http://www.w3.org/1999/xlink" x="0px" y="0px"
	 width="792px" height="612px" viewBox="0 0 792 612" enable-background="new 0 0 792 612" xml:space="preserve">
<path fill-rule="evenodd" clip-rule="evenodd" stroke="#000000" stroke-width="2.9999" stroke-linecap="round" stroke-linejoin="round" stroke-miterlimit="22.9256" d="
	M134.256,481.142c-22.141,1.867-57.458,5.039-76.123,6.747s-20.678,1.952-21.349,1.556c-0.671-0.396,0-1.434,0.427-3.202
	c0.426-1.769,0.609-4.27,0.67-6.466s0-4.087,0.763-5.367c0.763-1.281,2.348-1.952,3.995-2.074s3.355,0.305,4.818,1.403
	c1.464,1.098,2.684,2.866,3.996,3.781s2.714,0.977,3.843,0.458s1.982-1.617,2.074-3.568c0.092-1.952-0.58-4.758-1.006-7.777
	s-0.61-6.252-0.061-8.082s1.83-2.257,3.05-2.775c1.22-0.519,2.378-1.128,2.806-1.83c0.427-0.701,0.122-1.494-0.61-1.891
	c-0.732-0.396-1.892-0.396-2.867-0.549c-0.976-0.152-1.769-0.457-2.074-0.977c-0.305-0.519-0.122-1.25,0.305-2.256
	c0.427-1.007,1.098-2.288,1.952-3.538c0.854-1.251,1.891-2.471,2.531-5.124c0.64-2.653,0.884-6.74,0.305-9.668
	c-0.58-2.928-1.982-4.696-3.08-6.832c-1.098-2.135-1.891-4.636-1.83-6.709c0.061-2.074,0.976-3.721,3.081-6.558
	c2.104-2.836,5.398-6.861,8.204-8.996c2.806-2.136,5.124-2.379,7.838-2.349s5.825,0.335,9.607,0.884s8.234,1.342,13.938,3.568
	s12.656,5.887,17.536,7.563c4.88,1.678,7.686,1.373,10.034-0.457c2.348-1.83,4.239-5.185,4.392-8.052
	c0.153-2.867-1.433-5.246-3.751-8.174c-2.318-2.928-5.368-6.404-7.197-9.271c-1.83-2.866-2.44-5.123-2.288-7.41
	c0.152-2.288,1.067-4.606,2.684-6.223c1.616-1.615,3.934-2.531,7.015-3.141c3.08-0.61,6.922-0.915,9.484-1.068
	c2.562-0.152,3.843-0.152,5.337-1.006c1.495-0.854,3.202-2.562,5.978-3.995c2.775-1.434,6.618-2.592,8.905-3.202
	c2.287-0.61,3.019-0.671,3.293-1.525c0.274-0.854,0.091-2.501-0.427-4.422c-0.519-1.922-1.373-4.117-2.836-6.771
	s-3.538-5.765-4.544-7.96c-1.006-2.196-0.945-3.477-0.274-4.758c0.671-1.281,1.952-2.562,3.232-4.452
	c1.281-1.892,2.562-4.393,3.813-6.13c1.25-1.739,2.47-2.715,3.842-3.021c1.373-0.305,2.897,0.062,4.209,0.274
	c1.312,0.214,2.409,0.275,3.416-0.121c1.006-0.397,1.921-1.251,2.288-2.532c0.366-1.28,0.183-2.988-0.122-4.94
	c-0.305-1.951-0.732-4.147-0.366-5.764c0.366-1.617,1.525-2.654,2.837-2.989c1.311-0.335,2.775,0.031,3.964,0.58
	c1.189,0.548,2.104,1.28,3.69,1.403c1.585,0.122,3.843-0.366,6.008-0.671c2.165-0.305,4.239-0.427,5.764-0.213
	c1.525,0.213,2.5,0.762,2.897,1.128c0.397,0.366,0.213,0.549-0.244,1.098s-1.189,1.465-1.555,2.471
	c-0.366,1.007-0.366,2.104,0.076,2.729s1.327,0.778,2.517,0.793c1.189,0.016,2.684-0.106,3.507-0.351
	c0.824-0.244,0.976-0.61,0.793-3.873c-0.183-3.264-0.702-9.424-0.9-12.52c-0.198-3.096-0.077-3.126,0.641-2.714
	c0.716,0.412,2.028,1.265,3.37,2.531c1.341,1.266,2.714,2.943,3.72,3.736s1.647,0.702,2.089,0.29
	c0.442-0.412,0.687-1.144,1.373-1.891s1.814-1.51,3.157-1.86c1.342-0.351,2.897-0.29,4.712,0.076
	c1.814,0.366,3.888,1.037,5.764,1.937c1.876,0.9,3.553,2.028,4.956,3.187c1.403,1.159,2.532,2.349,3.767,3.309
	c1.235,0.96,2.577,1.693,4.071,2.074c1.494,0.38,3.142,0.412,4.285,0.564s1.784,0.427,2.364,0.961
	c0.579,0.534,1.098,1.327,1.57,2.043c0.473,0.717,0.9,1.357,1.647,1.769c0.747,0.412,1.814,0.596,2.821,0.29
	c1.006-0.305,1.952-1.098,2.928-2.425c0.976-1.326,1.982-3.187,2.852-5.611c0.869-2.425,1.601-5.414,2.379-7.304
	c0.778-1.891,1.601-2.685,2.913-3.751c1.312-1.068,3.111-2.41,4.491-3.576c1.38-1.167,2.341-2.158,3.645-3.065
	s2.95-1.731,4.048-1.868c1.098-0.137,1.647,0.412,2.486,1.693c0.838,1.281,1.967,3.293,3.248,5.032
	c1.281,1.738,2.714,3.202,4.163,4.025c1.449,0.824,2.912,1.006,4.453,0.9c1.54-0.107,3.156-0.504,3.919-0.58s0.671,0.167,0.686,0.9
	c0.015,0.732,0.137,1.952,0.473,2.958c0.336,1.006,0.884,1.8,1.83,2.318c0.946,0.519,2.288,0.763,3.218,0.839
	c0.93,0.076,1.448-0.015,1.631-0.122c0.183-0.107,0.03-0.229,0-2.074s0.061-5.414,0.107-7.182c0.046-1.77,0.046-1.738,0.229-1.677
	c0.183,0.061,0.548,0.152,1.311,0.03c0.762-0.122,1.921-0.457,2.806-0.854c0.885-0.396,1.495-0.854,1.937-1.662
	c0.442-0.809,0.716-1.967,0.716-4.377c0-2.409-0.274-6.069-0.412-7.898c-0.137-1.83-0.137-1.83,0.397-1.83
	c0.534,0,1.602,0,2.471-0.32s1.541-0.961,1.8-2.272c0.259-1.312,0.106-3.293,0.35-4.742c0.244-1.449,0.885-2.364,1.159-2.699
	s0.183-0.092,0.808,0.412c0.625,0.503,1.967,1.266,2.562,1.418c0.595,0.152,0.442-0.305,0.335-0.915
	c-0.106-0.61-0.167-1.373,0.244-1.739c0.412-0.366,1.296-0.335,2.379-0.411c1.083-0.077,2.364-0.26,2.867-0.854
	c0.503-0.595,0.229-1.602-0.716-2.15c-0.946-0.549-2.562-0.641-3.599-1.189c-1.037-0.549-1.495-1.556-1.411-2.356
	c0.084-0.801,0.709-1.396,2.493-1.578c1.784-0.183,4.728,0.045,6.496,1.281c1.769,1.235,2.364,3.477,2.81,5.606
	c0.446,2.129,0.742,4.146,1.074,5.872c0.331,1.726,0.697,3.159,1.685,4.125c0.987,0.966,2.597,1.465,4.332,1.668
	s3.595,0.112,5.303,0.768s3.263,2.059,4.834,3.614c1.57,1.556,3.157,3.263,3.888,3.934c0.732,0.671,0.61,0.305,0.625-0.396
	c0.016-0.702,0.168-1.739,0.824-2.501c0.655-0.762,1.814-1.25,2.951-1.578c1.136-0.328,2.249-0.496,3.538-0.915
	c1.289-0.419,2.752-1.09,3.744-1.975c0.991-0.885,1.51-1.982,1.693-4.102s0.03-5.261,0.068-7.663
	c0.038-2.401,0.267-4.063,0.907-6.632c0.64-2.57,1.692-6.046,2.584-8.517c0.892-2.47,1.625-3.934,2.615-5.047
	c0.991-1.113,2.242-1.876,3.965-2.104s3.919,0.076,5.475,0.061c1.555-0.016,2.47-0.351,3.263-0.884
	c0.793-0.534,1.464-1.266,2.15-2.729c0.686-1.464,1.387-3.66,2.333-6.115c0.945-2.455,2.135-5.169,2.745-7.38
	c0.61-2.211,0.641-3.919,0.961-5.185c0.32-1.266,0.93-2.089,1.555-2.562s1.266-0.595,1.814-0.595c0.549,0,1.006,0.122,1.19-0.137
	c0.183-0.26,0.092-0.9,0.229-1.784s0.503-2.013,1.387-3.171c0.885-1.159,2.288-2.349,3.492-3.172
	c1.205-0.823,2.212-1.281,3.188-1.616c0.976-0.336,1.921-0.549,2.409-0.839s0.519-0.656,0.534-1.769
	c0.015-1.113,0.015-2.973-0.26-3.934c-0.274-0.96-0.823-1.021-1.372-1.509c-0.549-0.488-1.099-1.403-1.54-3.461
	c-0.442-2.059-0.777-5.261-1.067-7.747c-0.29-2.485-0.534-4.254-0.427-5.093c0.106-0.839,0.563-0.747,1.814-0.899
	c1.25-0.153,3.294-0.549,5.23-1.296s3.766-1.845,5.017-2.181c1.25-0.335,1.922,0.091,2.958,0.916
	c1.037,0.823,2.44,2.043,3.645,2.943c1.205,0.899,2.212,1.479,3.965,1.769c1.754,0.289,4.255,0.289,6.542-0.244
	c2.287-0.534,4.361-1.602,6.756-3.263c2.394-1.663,5.108-3.919,7.41-5.643c2.304-1.723,4.194-2.913,5.581-3.659
	c1.388-0.748,2.271-1.052,3.827-1.22c1.556-0.167,3.781-0.198,5.215-0.152s2.074,0.168,2.318,0.092s0.091-0.351-0.29-0.931
	c-0.381-0.579-0.991-1.464-1.266-2.348c-0.274-0.885-0.214-1.769-0.076-2.974s0.351-2.729,0.351-3.843s-0.213-1.814-0.533-2.257
	c-0.321-0.442-0.747-0.625-1.663-0.671c-0.914-0.046-2.317,0.046-3.004-0.061c-0.686-0.106-0.655-0.412-0.609-1.388
	s0.106-2.623,0.137-4.62c0.03-1.998,0.03-4.346-0.229-6.115c-0.259-1.769-0.778-2.958-1.418-4.422
	c-0.641-1.464-1.403-3.202-1.403-4.697c0-1.494,0.763-2.745,2.516-4.438c1.754-1.693,4.499-3.828,6.634-5.047
	c2.135-1.22,3.66-1.525,4.88-1.495c1.22,0.03,2.135,0.396,3.324,1.174s2.653,1.967,4.103,3.263c1.448,1.296,2.882,2.699,4.422,3.446
	s3.187,0.839,4.62,0.198c1.434-0.64,2.653-2.013,3.538-3.05c0.884-1.037,1.434-1.738,2.119-2.272c0.687-0.534,1.51-0.9,2.333-1.098
	c0.824-0.198,1.647-0.229,2.547,0.137c0.899,0.366,1.876,1.129,3.218,2.044c1.342,0.915,3.049,1.982,4.695,2.852
	c1.647,0.869,3.232,1.54,4.377,2.409c1.144,0.869,1.845,1.937,2.425,3.278c0.579,1.342,1.036,2.958,1.769,4.483
	c0.731,1.525,1.738,2.958,2.699,4.254c0.96,1.296,1.875,2.455,2.47,3.675s0.87,2.501,1.281,3.95
	c0.412,1.449,0.961,3.065,1.906,4.193s2.287,1.769,3.979,2.165c1.693,0.396,3.736,0.549,7.122,0.458
	c3.385-0.092,8.112-0.427,11.543-0.595c3.432-0.168,5.566-0.168,7.641,0.305c2.073,0.472,4.086,1.418,5.718,2.577
	c1.632,1.159,2.883,2.532,4.864,4.468c1.982,1.937,4.696,4.438,7.853,6.207c3.156,1.769,6.756,2.806,8.463,3.08
	c1.708,0.274,1.525-0.213,1.952-1.799c0.427-1.585,1.464-4.27,3.202-6.191c1.738-1.921,4.179-3.08,6.496-3.446
	c2.318-0.366,4.514,0.062,6.1,1.068s2.563,2.592,4.179,3.171c1.616,0.58,3.873,0.153,5.764,0.336
	c1.892,0.183,3.416,0.976,4.179,1.952s0.763,2.135,1.616,2.41s2.562-0.336,3.538-1.464c0.976-1.128,1.22-2.775,2.104-3.568
	c0.884-0.793,2.409-0.732,3.721-0.519c1.312,0.213,2.409,0.579,3.202,0.213c0.793-0.366,1.281-1.464,2.317-2.196
	c1.037-0.732,2.623-1.098,4.636-1.83c2.013-0.732,4.453-1.83,6.039-3.385c1.586-1.556,2.318-3.569,3.781-5.185
	c1.464-1.617,3.66-2.836,5.643-3.507s3.751-0.793,4.605-0.366c0.854,0.427,0.792,1.403,1.523,3.812
	c0.732,2.409,2.258,6.251,3.447,9.119s2.043,4.758,2.988,5.856c0.945,1.098,1.982,1.403,3.659,1.555
	c1.678,0.152,3.996,0.152,5.734,0.793s2.897,1.921,4.696,3.507c1.8,1.586,4.239,3.477,5.733,4.91c1.495,1.434,2.044,2.41,2.318,3.66
	s0.274,2.775,0.549,4.697c0.274,1.921,0.823,4.239,1.403,5.886c0.579,1.647,1.189,2.623,2.5,4.148
	c1.313,1.525,3.325,3.599,4.423,5.093c1.098,1.495,1.281,2.41,1.159,3.447c-0.122,1.037-0.549,2.196-1.281,3.111
	c-0.732,0.915-1.77,1.586-2.883,2.287c-1.112,0.702-2.303,1.433-2.988,2.043c-0.686,0.61-0.869,1.098-0.29,2.242
	c0.58,1.144,1.922,2.943,4.469,5.841c2.546,2.897,6.298,6.892,8.463,9.058c2.165,2.165,2.745,2.5,3.461,3.019
	c0.717,0.519,1.571,1.22,2.15,2.013c0.58,0.793,0.885,1.677,0.931,3.004c0.046,1.326-0.168,3.095-0.122,4.041
	c0.046,0.945,0.351,1.067,1.479,1.982c1.128,0.915,3.08,2.623,5.307,5.063s4.728,5.612,6.862,8.631
	c2.135,3.019,3.903,5.886,5.55,8.448c1.647,2.562,3.172,4.818,5.308,6.039c2.135,1.22,4.879,1.402,7.014,2.257
	c2.136,0.854,3.66,2.378,5.338,3.934c1.677,1.556,3.507,3.141,5.185,4.117c1.677,0.976,3.202,1.342,5.397,1.434
	c2.196,0.091,5.063-0.092,6.496-0.183c1.434-0.091,1.434-0.091,0.519,1.525s-2.745,4.849-5.002,7.441s-4.94,4.544-7.319,7.716
	s-4.452,7.564-8.082,11.62c-3.629,4.057-8.813,7.777-15.005,12.169s-13.389,9.455-17.689,12.9c-4.3,3.446-5.703,5.276-6.465,6.924
	c-0.763,1.646-0.885,3.11-0.977,4.971s-0.152,4.117-2.227,6.526s-6.161,4.972-8.448,6.923c-2.287,1.952-2.775,3.295-2.775,5.46
	s0.488,5.154,0.305,7.502c-0.183,2.349-1.036,4.057-2.317,5.094s-2.989,1.403-4.788,1.403c-1.8,0-3.69-0.366-5.887,0.152
	c-2.195,0.519-4.696,1.921-6.374,3.172c-1.678,1.25-2.531,2.348-3.263,4.208c-0.732,1.86-1.342,4.483-1.525,6.496
	c-0.183,2.014,0.061,3.416-0.488,4.483s-1.891,1.8-3.873,2.196s-4.604,0.457-7.015,0.793c-2.409,0.336-4.604,0.945-7.868,2.409
	s-7.594,3.782-10.461,5.673c-2.866,1.891-4.27,3.354-5.673,4.514c-1.402,1.159-2.806,2.013-5.032,2.531s-5.276,0.701-7.533,1.159
	c-2.257,0.457-3.721,1.189-5.093,2.226c-1.373,1.037-2.653,2.379-3.446,3.11s-1.098,0.854-22.995,2.531s-65.389,4.91-133.521,10.461
	c-68.132,5.551-160.907,13.419-207.294,17.354c-46.388,3.934-46.388,3.934-46.494,3.309c-0.107-0.625-0.32-1.875-0.443-2.76
	c-0.122-0.885-0.152-1.403-0.29-1.647c-0.138-0.244-0.381-0.213-3.813-0.046c-3.431,0.168-10.049,0.474-13.404,0.626
	c-3.355,0.152-3.446,0.152-3.492,0.152c-0.046,0-0.046,0,0.762,3.553s2.424,10.659,3.187,14.212
	c0.763,3.553,0.671,3.553-3.857,3.835C165.363,478.71,156.397,479.273,134.256,481.142z"/>
</svg>
