<?xml version="1.0" encoding="utf-8"?>
<!-- Generator: Adobe Illustrator 15.1.0, SVG Export Plug-In . SVG Version: 6.00 Build 0)  -->
<!DOCTYPE svg PUBLIC "-//W3C//DTD SVG 1.1//EN" "http://www.w3.org/Graphics/SVG/1.1/DTD/svg11.dtd">
<svg version="1.1" id="Layer_1" xmlns="http://www.w3.org/2000/svg" xmlns:xlink="http://www.w3.org/1999/xlink" x="0px" y="0px"
	 width="792px" height="612px" viewBox="0 0 792 612" enable-background="new 0 0 792 612" xml:space="preserve">
<path fill-rule="evenodd" clip-rule="evenodd" stroke="#000000" stroke-width="2.9999" stroke-linecap="round" stroke-linejoin="round" stroke-miterlimit="22.9256" d="
	M56.549,119.889c0.286-2.563-0.22-5.729-2.436-8.45c-2.215-2.721-6.139-5-9.114-8.038s-5-6.835-5.696-10.696
	c-0.696-3.861-0.063-7.785,4.62-10.57c4.684-2.785,13.418-4.43,41.519-8.165s75.569-9.557,106.708-13.228
	c31.139-3.671,45.949-5.19,54.24-6.076c8.291-0.886,10.063-1.139,10.949-0.506c0.886,0.633,0.886,2.152,1.646,3.671
	c0.76,1.519,2.278,3.038,3.861,4.557c1.583,1.519,3.228,3.038,3.987,5.759s0.633,6.646,1.013,8.798
	c0.379,2.152,1.266,2.531,13.861,1.898c12.595-0.633,36.898-2.278,55.126-3.291c18.228-1.013,30.379-1.393,50.189-2.342
	c19.81-0.949,47.278-2.468,65.569-3.987c18.29-1.519,27.404-3.038,32.594-3.544c5.19-0.506,6.456,0,8.354,2.848
	c1.899,2.848,4.431,8.038,6.582,10.633c2.152,2.595,3.925,2.595,6.013,2.468c2.089-0.127,4.494-0.38,6.076-1.203
	c1.582-0.823,2.342-2.215,1.962-6.266c-0.38-4.051-1.898-10.76-2.784-16.519c-0.887-5.76-1.14-10.57-0.57-13.607
	c0.57-3.039,1.962-4.304,3.734-5.443s3.924-2.152,6.329-2.088s5.063,1.202,8.924,2.152c3.861,0.949,8.925,1.709,14.684,1.835
	c5.76,0.126,12.215-0.38,15.507-0.443c3.291-0.063,3.417,0.316,3.733,2.658c0.316,2.342,0.823,6.646,0.886,9.304
	c0.063,2.658-0.315,3.67-1.392,4.62c-1.076,0.949-2.849,1.835-2.722,3.228s2.152,3.291,4.62,4.747
	c2.469,1.456,5.38,2.468,6.962,3.481s1.836,2.025,1.709,4.557c-0.127,2.531-0.633,6.582-0.633,9.874
	c0,3.291,0.506,5.822,2.658,11.139c2.152,5.316,5.949,13.417,13.671,27.974c7.722,14.557,19.366,35.569,27.848,49.43
	c8.48,13.861,13.797,20.569,19.683,26.962c5.887,6.393,12.342,12.468,18.228,17.785c5.887,5.316,11.203,9.873,15.063,13.671
	c3.861,3.797,6.266,6.835,7.025,9.747c0.76,2.911-0.127,5.696-1.076,7.911s-1.962,3.861-1.962,7.595
	c0,3.734,1.013,9.557,0.696,12.405c-0.316,2.849-1.962,2.722-3.545,1.33c-1.582-1.393-3.101-4.051-3.417-8.481
	c-0.316-4.43,0.569-10.632,0.253-15.063c-0.316-4.43-1.835-7.088-4.177-8.481s-5.507-1.519-7.975-2.911
	c-2.469-1.393-4.241-4.051-5.76-6.013c-1.519-1.962-2.784-3.228-3.607-2.468c-0.823,0.759-1.203,3.544,2.215,11.709
	c3.418,8.164,10.633,21.708,16.772,32.341c6.139,10.632,11.202,18.354,18.228,28.291c7.025,9.937,16.013,22.088,21.582,30.633
	c5.569,8.544,7.722,13.48,9.746,18.354c2.025,4.874,3.925,9.685,5.127,12.912s1.709,4.873,3.291,5.822
	c1.583,0.95,4.241,1.203,7.152,3.228c2.911,2.025,6.076,5.823,7.784,8.925c1.709,3.101,1.963,5.506,3.038,8.037
	c1.076,2.532,2.975,5.19,4.684,8.987c1.709,3.798,3.228,8.734,3.987,15.507c0.76,6.771,0.76,15.38,1.329,28.291
	c0.57,12.911,1.709,30.126,2.089,40.759s0,14.684-1.076,17.151c-1.076,2.469-2.848,3.354-4.178,5
	c-1.328,1.646-2.215,4.051-2.468,6.202c-0.253,2.152,0.127,4.051-0.316,5.507s-1.709,2.468-2.278,3.924s-0.443,3.354-0.57,5.316
	c-0.126,1.962-0.506,3.987,0.127,5.949s2.278,3.861,3.354,5.76s1.582,3.797,0.696,6.139s-3.164,5.127-3.987,7.912
	c-0.822,2.784-0.19,5.569,0.189,8.228s0.507,5.189-0.38,5.253c-0.886,0.063-2.784-2.342-5.316-3.544
	c-2.531-1.203-5.695-1.203-8.354-0.316c-2.658,0.886-4.811,2.658-6.772,4.683c-1.962,2.025-3.733,4.305-6.455,5.19
	s-6.394,0.38-10.19,0.569c-3.798,0.19-7.722,1.076-11.519,2.849c-3.798,1.771-7.469,4.431-10.38,5.442
	c-2.912,1.013-5.063,0.38-7.342-2.784c-2.278-3.165-4.684-8.861-5.19-11.962c-0.506-3.102,0.887-3.607,2.912-3.861
	c2.025-0.253,4.684-0.253,6.329,0.57c1.646,0.822,2.278,2.468,3.86,3.291c1.582,0.822,4.114,0.822,6.076,0.189
	s3.354-1.898,2.278-3.418c-1.076-1.519-4.62-3.291-7.468-4.747c-2.849-1.455-5-2.594-7.722-3.228
	c-2.722-0.633-6.013-0.759-7.849-1.392c-1.835-0.634-2.215-1.772-2.911-4.431s-1.709-6.836-3.607-10.253
	c-1.898-3.418-4.684-6.076-6.898-8.607c-2.216-2.532-3.861-4.938-5.633-6.963c-1.772-2.024-3.671-3.67-4.62-5.442
	c-0.95-1.772-0.95-3.671-3.671-4.937c-2.722-1.267-8.165-1.899-12.025-2.405c-3.861-0.507-6.14-0.886-8.861-0.127
	c-2.721,0.76-5.886,2.659-7.785,2.911c-1.898,0.254-2.531-1.139-2.721-3.417c-0.19-2.278,0.063-5.443-0.887-7.596
	c-0.948-2.151-3.101-3.29-5.189-4.239c-2.088-0.95-4.113-1.71-5.126-3.988s-1.013-6.075-1.013-8.987c0-2.911,0-4.937-0.76-7.404
	c-0.76-2.469-2.278-5.38-3.607-7.595c-1.329-2.216-2.469-3.734-4.557-5.063c-2.089-1.329-5.127-2.469-6.836-4.051
	s-2.088-3.607-3.038-4.747c-0.949-1.139-2.468-1.392-4.62-1.519s-4.937-0.127-5.886-1.267c-0.949-1.139-0.063-3.417-0.38-8.417
	s-1.836-12.722-1.456-17.911c0.38-5.19,2.658-7.849,3.164-9.558c0.507-1.708-0.759-2.468-2.531-1.582
	c-1.771,0.887-4.051,3.418-7.025,3.861c-2.974,0.442-6.646-1.203-8.671-1.393c-2.024-0.189-2.404,1.075-1.012,2.975
	c1.392,1.898,4.557,4.43,6.202,6.519s1.772,3.734,0.38,4.557c-1.393,0.823-4.304,0.823-7.025,0.507s-5.253-0.949-7.785-3.102
	c-2.531-2.151-5.063-5.822-8.418-10.38c-3.354-4.557-7.531-9.999-10.189-14.746s-3.798-8.798-4.938-12.152
	c-1.139-3.354-2.278-6.013-5.886-9.43c-3.607-3.418-9.684-7.596-12.405-10.507c-2.721-2.911-2.088-4.557,0.316-4.937
	c2.405-0.38,6.583,0.507,8.608-0.38c2.025-0.886,1.898-3.544,2.342-6.708c0.442-3.165,1.455-6.836,3.86-10
	c2.405-3.165,6.202-5.823,6.646-9.178s-2.469-7.405-4.494-9.431c-2.024-2.024-3.164-2.024-4.937-1.771
	c-1.771,0.253-4.177,0.76-7.151-0.823c-2.975-1.582-6.52-5.253-8.165-5.569s-1.392,2.722,0.19,5.949s4.493,6.646,6.266,8.924
	c1.772,2.279,2.405,3.418,1.962,5.633c-0.442,2.216-1.962,5.507-3.86,7.342c-1.899,1.836-4.178,2.216-6.013,1.266
	c-1.836-0.949-3.228-3.228-5.696-5.442s-6.013-4.367-7.849-6.582c-1.835-2.216-1.961-4.494-1.075-5.823s2.785-1.709,3.544-4.62
	c0.76-2.911,0.38-8.354-0.38-12.784c-0.76-4.431-1.899-7.849-1.456-9.811s2.468-2.468,3.734-5c1.266-2.531,1.771-7.088,1.771-10.949
	s-0.506-7.025,0.253-8.924c0.76-1.899,2.785-2.532,2.785-4.937c0-2.405-2.025-6.582-3.102-10.126
	c-1.075-3.544-1.202-6.456-1.202-11.013s0.127-10.759-1.013-14.937s-3.544-6.329-6.076-7.658c-2.531-1.33-5.189-1.835-6.202-3.607
	c-1.013-1.772-0.38-4.811-1.709-8.165c-1.329-3.354-4.621-7.026-9.367-8.229c-4.747-1.202-10.949,0.063-15.253,0.063
	s-6.709-1.266-8.607-3.354c-1.898-2.088-3.291-5-5.918-8.259s-6.487-6.867-10.696-9.43c-4.209-2.563-8.767-4.083-11.045-5.791
	c-2.278-1.709-2.278-3.608-2.721-6.456c-0.443-2.848-1.33-6.646-3.481-9.24s-5.569-3.987-7.975-4.937
	c-2.405-0.95-3.797-1.456-4.874-2.975c-1.076-1.519-1.835-4.051-3.354-6.709c-1.519-2.659-3.798-5.443-7.785-7.785
	c-3.988-2.342-9.684-4.241-14.241-6.519c-4.557-2.278-7.975-4.937-11.203-6.013c-3.228-1.076-6.266-0.57-9.557-0.063
	c-3.291,0.506-6.835,1.012-10.696,2.151c-3.861,1.14-8.039,2.912-11.33,5c-3.291,2.088-5.696,4.494-5.633,6.456
	c0.063,1.962,2.595,3.48,4.747,5.19c2.151,1.708,3.924,3.607,4.114,4.937c0.189,1.329-1.203,2.088-3.924,1.961
	c-2.721-0.126-6.772-1.139-10.316-0.189c-3.544,0.949-6.582,3.861-10.632,6.962c-4.051,3.101-9.114,6.393-13.101,7.975
	c-3.988,1.582-6.899,1.456-9.241,1.899c-2.342,0.443-4.114,1.456-5.949,3.417c-1.836,1.962-3.734,4.874-6.709,5.696
	s-7.025-0.443-9.937,0c-2.912,0.443-4.684,2.595-7.595,3.671c-2.912,1.076-6.962,1.076-10-0.253
	c-3.038-1.329-5.063-3.988-5.443-6.14c-0.379-2.152,0.886-3.797,2.215-3.544c1.329,0.253,2.721,2.405,4.557,3.038
	c1.835,0.632,4.114-0.253,4.114-2.658c0-2.405-2.278-6.329-4.683-8.861c-2.405-2.532-4.937-3.671-8.102-5.316
	c-3.165-1.646-6.962-3.797-9.557-6.646c-2.596-2.848-3.988-6.393-5.886-8.418c-1.899-2.025-4.304-2.531-5.95-3.797
	c-1.646-1.266-2.532-3.291-1.519-6.329c1.012-3.038,3.924-7.089,4.493-9.747c0.57-2.659-1.202-3.924-3.164-2.532
	c-1.962,1.392-4.114,5.443-6.962,6.519s-6.393-0.823-7.215-0.316c-0.822,0.506,1.076,3.418,2.722,6.329s3.038,5.823,3.354,7.975
	s-0.443,3.544-1.772,2.975c-1.329-0.57-3.228-3.102-6.329-5.19c-3.102-2.088-7.405-3.734-12.785-5.189
	c-5.38-1.456-11.835-2.722-17.088-3.671c-5.253-0.949-9.304-1.583-12.975-2.215c-3.67-0.633-6.962-1.266-7.911-2.341
	c-0.949-1.077,0.443-2.596,5.063-3.671c4.62-1.076,12.468-1.708,15.823-3.101c3.354-1.393,2.215-3.544-0.317-5.127
	c-2.531-1.582-6.456-2.595-8.987-3.228c-2.531-0.633-3.671-0.886-5.126,0.253s-3.228,3.671-5.506,3.734
	c-2.279,0.063-5.063-2.342-7.152-2.975c-2.089-0.633-3.481,0.506-4.748,2.848c-1.266,2.342-2.405,5.887-4.303,7.722
	c-1.899,1.835-4.557,1.962-7.911,2.215c-3.355,0.253-7.405,0.633-11.709,2.088c-4.304,1.456-8.86,3.988-14.24,5.19
	c-5.38,1.202-11.583,1.076-13.166,0.253c-1.582-0.823,1.456-2.341,4.747-3.797c3.291-1.457,6.835-2.849,8.038-5.506
	c1.202-2.659,0.063-6.583-1.583-8.987c-1.646-2.405-3.797-3.292-4.747-2.089c-0.95,1.202-0.696,4.494-1.33,6.456
	c-0.633,1.962-2.151,2.595-4.05,1.456c-1.899-1.14-4.178-4.051-5.633-4.747c-1.456-0.696-2.088,0.823-2.342,3.671
	s-0.126,7.025-1.076,10.696c-0.95,3.671-2.975,6.836-5.253,9.241c-2.279,2.405-4.811,4.05-8.039,4.493
	c-3.228,0.443-7.152-0.316-7.658-1.898c-0.506-1.583,2.405-3.987,4.874-7.278c2.468-3.292,4.494-7.469,4.051-8.734
	s-3.354,0.379-5.253,0.253c-1.899-0.126-2.785-2.025-2.689-3.956C55.186,124.414,56.263,122.452,56.549,119.889z"/>
</svg>
