<?xml version="1.0" encoding="utf-8"?>
<!-- Generator: Adobe Illustrator 15.1.0, SVG Export Plug-In . SVG Version: 6.00 Build 0)  -->
<!DOCTYPE svg PUBLIC "-//W3C//DTD SVG 1.1//EN" "http://www.w3.org/Graphics/SVG/1.1/DTD/svg11.dtd">
<svg version="1.1" id="Layer_1" xmlns="http://www.w3.org/2000/svg" xmlns:xlink="http://www.w3.org/1999/xlink" x="0px" y="0px"
	 width="792px" height="612px" viewBox="0 0 792 612" enable-background="new 0 0 792 612" xml:space="preserve">
<path fill-rule="evenodd" clip-rule="evenodd" stroke="#000000" stroke-width="2.9999" stroke-linecap="round" stroke-linejoin="round" stroke-miterlimit="22.9256" d="
	M673.985,575.594c-23.528-0.755-65.12-2.178-105.502-4.257c-40.382-2.078-79.553-4.811-120.376-8
	c-40.823-3.188-83.297-6.831-128.162-11.387c-44.865-4.555-92.121-10.021-128.559-14.291c-36.438-4.27-62.06-7.344-82.271-9.906
	c-20.212-2.563-35.015-4.611-42.417-5.637c-7.402-1.024-7.402-1.024-7.288-2.163s0.342-3.416,2.05-16.739
	c1.708-13.323,4.896-37.691,7.629-58.188c2.733-20.496,5.01-37.122,8.199-64.053c3.188-26.93,7.288-64.166,12.625-108.49
	c5.338-44.324,11.914-95.736,16.512-131.918c4.598-36.182,7.216-57.135,8.871-71.397c1.654-14.263,2.342-21.835,2.702-25.792
	c0.359-3.957,0.391-4.298,0.43-4.725c0.039-0.428,0.085-0.94,0.124-1.367c0.039-0.427,0.07-0.768,1.153-0.782
	s3.218,0.299,10.278,0.925c7.06,0.626,19.045,1.565,26.005,2.092c6.961,0.527,8.896,0.641,17.422,1.367
	c8.526,0.726,23.642,2.064,44.637,4.156s47.868,4.939,75.368,7.786c27.5,2.847,55.626,5.694,80.222,7.971s45.662,3.985,64.735,5.58
	c19.074,1.595,36.155,3.074,63.825,4.783c27.671,1.708,65.932,3.644,100.719,5.637c34.788,1.993,66.103,4.042,85.475,5.238
	c19.372,1.195,26.803,1.537,31.912,1.765c5.11,0.228,7.9,0.342,9.594,0.398c1.694,0.057,2.292,0.057,2.747,0.057
	c0.456,0,0.769,0,0.897,0.398c0.128,0.399,0.071,1.196-0.071,4.342c-0.143,3.146-0.37,8.64-1.025,22.774
	c-0.654,14.134-1.736,36.908-2.847,59.34c-1.11,22.433-2.249,44.523-4.186,83.582c-1.936,39.058-4.669,95.082-7.402,148.715
	c-2.732,53.634-5.466,104.876-6.875,132.974s-1.494,33.052-1.579,35.699c-0.086,2.647-0.171,2.989-0.199,3.345
	c-0.028,0.356,0,0.727-0.143,0.911c-0.143,0.186-0.455,0.186-3.345,0.143S697.515,576.349,673.985,575.594z"/>
</svg>
