<?xml version="1.0" encoding="utf-8"?>
<!-- Generator: Adobe Illustrator 15.1.0, SVG Export Plug-In . SVG Version: 6.00 Build 0)  -->
<!DOCTYPE svg PUBLIC "-//W3C//DTD SVG 1.1//EN" "http://www.w3.org/Graphics/SVG/1.1/DTD/svg11.dtd">
<svg version="1.1" id="Layer_1" xmlns="http://www.w3.org/2000/svg" xmlns:xlink="http://www.w3.org/1999/xlink" x="0px" y="0px"
	 width="612px" height="792px" viewBox="0 0 612 792" enable-background="new 0 0 612 792" xml:space="preserve">
<path fill-rule="evenodd" clip-rule="evenodd" stroke="#000000" stroke-width="2.9999" stroke-linecap="round" stroke-linejoin="round" stroke-miterlimit="22.9256" d="
	M126.792,729.828c0.305-2.881-0.01-7.287,0.108-9.766c0.118-2.478,0.668-3.028,0.787-4.012c0.118-0.984-0.197-2.399,0.158-3.737
	c0.354-1.338,1.376-2.597,1.927-3.934c0.551-1.338,0.629-2.754,0.414-3.767c-0.217-1.013-0.728-1.623-0.207-2.391
	c0.521-0.767,2.075-1.691,2.94-2.793s1.042-2.38,0.698-3.54s-1.209-2.203-0.944-3.117c0.266-0.915,1.662-1.702,3.088-2.921
	c1.426-1.22,2.881-2.872,4.15-3.285s2.351,0.413,3.944,1.111s3.698,1.269,4.868,2.025c1.17,0.758,1.406,1.702,1.613,2.695
	s0.384,2.036,0.384,3.54c0,1.505-0.177,3.472,0.177,4.771c0.354,1.298,1.239,1.928,1.623,2.646c0.383,0.718,0.265,1.524-0.049,2.596
	c-0.315,1.072-0.826,2.41-1.524,3.855s-1.583,2.999-1.977,3.953c-0.394,0.953-0.295,1.308,0.138,1.977
	c0.432,0.669,1.199,1.652,1.642,2.587c0.442,0.934,0.561,1.819,0.6,3.137c0.04,1.317,0,3.068,0.531,4.18s1.633,1.583,2.921,2.114
	s2.764,1.121,3.944,1.702c1.18,0.58,2.065,1.15,2.724,2.252c0.659,1.101,1.091,2.733,2.193,4.021s2.872,2.232,4.19,3.511
	s2.183,2.892,2.065,4.288c-0.118,1.396-1.219,2.576-3.501,3.481s-5.744,1.534-8.615,0.865c-2.872-0.669-5.153-2.636-6.963-2.97
	c-1.81-0.334-3.147,0.964-4.406,2.281c-1.259,1.318-2.439,2.655-5.055,3.481c-2.616,0.826-6.668,1.141-7.573,2.282
	c-0.905,1.141,1.337,3.107,4.878,3.481c3.541,0.373,8.379-0.846,14.299-1.495s12.923-0.728,20.023-1.829s14.299-3.226,19.807-4.465
	s9.324-1.593,12.923-2.38s6.982-2.007,7.848-3.324c0.865-1.318-0.787-2.734-2.458-2.892c-1.672-0.157-3.364,0.944-4.938,0.866
	c-1.574-0.079-3.029-1.338-2.675-2.439s2.518-2.046,3.954-2.537c1.436-0.492,2.144-0.531,2.616-1.535
	c0.472-1.003,0.708-2.97,1.18-4.7c0.472-1.731,1.18-3.226,2.617-4.091c1.436-0.866,3.599-1.103,5.133-2.086
	c1.534-0.982,2.439-2.714,2.38-3.815s-1.082-1.573-2.577-1.75c-1.495-0.178-3.462-0.06-4.543-0.807
	c-1.082-0.748-1.279-2.36-1.75-3.462c-0.472-1.102-1.219-1.691-1.632-2.479c-0.414-0.787-0.492-1.771-0.197-2.636
	c0.295-0.865,0.963-1.612,1.809-3.521c0.846-1.908,1.869-4.977,2.853-7.455c0.984-2.478,1.928-4.366,1.692-6.49
	c-0.236-2.124-1.652-4.484-3.816-6.295c-2.164-1.809-5.075-3.067-7.631-4.248c-2.557-1.18-4.76-2.281-6.294-4.327
	c-1.534-2.045-2.399-5.035-3.344-6.53c-0.944-1.494-1.967-1.494-3.344-2.557s-3.107-3.187-4.091-5.074
	c-0.984-1.889-1.22-3.541-1.023-5.154c0.196-1.612,0.826-3.186,1.81-4.799s2.321-3.265,2.773-5.095
	c0.452-1.829,0.02-3.835-0.256-5.173c-0.275-1.337-0.394-2.006-0.413-2.341c-0.02-0.334,0.059-0.334,0.413-0.334
	c0.354,0,0.983,0,13.335,0.04c12.353,0.039,36.427,0.117,90.734,0.167c54.307,0.048,138.845,0.067,181.33,0.116
	c42.485,0.05,42.919,0.128,43.056-0.639c0.138-0.768-0.02-2.38-0.472-4.052s-1.2-3.403-1.908-4.682s-1.376-2.104-1.612-3.167
	c-0.236-1.062-0.039-2.36-0.61-3.579c-0.57-1.22-1.907-2.36-2.557-3.423c-0.649-1.062-0.61-2.046-1.161-2.813
	c-0.55-0.768-1.691-1.318-2.654-1.593c-0.964-0.276-1.751-0.276-2.125-0.649c-0.373-0.374-0.334-1.121-0.57-2.125
	c-0.235-1.003-0.747-2.262-0.57-3.402s1.043-2.163,1.337-3.226c0.296-1.063,0.021-2.164-0.412-3.207
	c-0.433-1.042-1.022-2.025-1.181-2.871c-0.157-0.846,0.118-1.554,0.748-2.163c0.629-0.61,1.612-1.121,2.36-2.399
	c0.747-1.278,1.259-3.324,1.042-5.017c-0.217-1.691-1.16-3.028-1.121-4.405c0.04-1.377,1.063-2.793,1.455-4.563
	c0.394-1.77,0.158-3.895,0.276-5.664c0.117-1.771,0.59-3.187,0.708-4.367c0.117-1.18-0.118-2.124,0.196-3.226
	s1.181-2.36,2.006-3.737c0.826-1.377,1.613-2.871,1.495-4.17c-0.117-1.298-1.141-2.399-1.534-3.658s-0.157-2.675-0.039-4.131
	c0.118-1.455,0.118-2.95-0.315-3.854c-0.432-0.905-1.298-1.22-2.045-1.691c-0.748-0.473-1.377-1.102-1.691-1.928
	c-0.315-0.826-0.315-1.849-0.669-2.833c-0.354-0.983-1.063-1.927-1.889-2.793c-0.825-0.865-1.77-1.652-2.478-2.675
	c-0.709-1.022-1.181-2.281-0.866-3.658s1.416-2.872,1.495-4.524c0.078-1.651-0.866-3.461-1.417-5.429
	c-0.551-1.966-0.708-4.091-0.865-5.86c-0.157-1.771-0.314-3.187-0.078-4.563c0.235-1.377,0.865-2.715,1.494-3.619
	c0.63-0.905,1.259-1.377,1.574-2.203c0.314-0.826,0.314-2.007,0.944-2.832c0.629-0.827,1.888-1.299,2.478-2.282
	s0.512-2.479,0.473-3.58c-0.04-1.101-0.04-1.809,0.354-2.242c0.394-0.433,1.181-0.59,1.534-1.259
	c0.354-0.668,0.275-1.849,0.59-2.517c0.315-0.67,1.023-0.827,1.259-2.912c0.236-2.084,0-6.097,0.197-8.497
	c0.196-2.399,0.826-3.186,0.786-4.248c-0.039-1.063-0.747-2.399-0.865-3.58c-0.118-1.18,0.354-2.203,1.416-3.697
	c1.063-1.495,2.715-3.462,4.484-4.406c1.771-0.944,3.659-0.866,4.603-1.613c0.944-0.747,0.944-2.32,1.652-3.068
	c0.709-0.747,2.125-0.669,3.108-1.259s1.534-1.849,2.164-2.95c0.629-1.102,1.337-2.046,1.966-2.675
	c0.63-0.63,1.181-0.944,0.708-1.771c-0.472-0.826-1.966-2.163-3.146-3.305c-1.181-1.141-2.046-2.084-3.423-2.557
	c-1.377-0.472-3.265-0.472-4.799-0.944c-1.534-0.472-2.714-1.416-2.754-2.124c-0.039-0.708,1.063-1.18,1.928-2.203
	c0.865-1.022,1.495-2.596,1.691-4.012c0.196-1.417-0.039-2.676,0.669-3.659s2.36-1.691,2.872-2.715
	c0.511-1.022-0.118-2.359-1.181-3.304s-2.557-1.495-3.619-2.754s-1.691-3.226-2.046-5.232c-0.354-2.006-0.433-4.052-1.377-5.94
	c-0.944-1.888-2.754-3.619-4.367-5.113c-1.612-1.495-3.028-2.754-3.776-4.249c-0.747-1.494-0.826-3.226-1.18-4.603
	c-0.354-1.377-0.983-2.399-0.904-3.226c0.078-0.826,0.865-1.456,0.747-2.518s-1.141-2.557-1.849-3.58s-1.102-1.574-1.338-2.911
	s-0.314-3.462-1.063-4.917c-0.747-1.456-2.163-2.243-2.399-3.147s0.708-1.927,0.472-2.99c-0.235-1.062-1.652-2.164-2.518-3.383
	c-0.865-1.22-1.18-2.557-1.022-3.698c0.157-1.141,0.786-2.085,0.354-3.187c-0.434-1.102-1.929-2.36-2.794-4.406
	c-0.865-2.045-1.102-4.878-2.163-11.959c-1.063-7.081-2.95-18.41-4.485-27.969c-1.534-9.559-2.714-17.348-6.963-42.997
	s-11.566-69.156-18.607-111.444c-7.042-42.289-13.808-83.358-17.663-104.128c-3.855-20.77-4.8-21.242-7.238-21.557
	c-2.439-0.315-6.373-0.473-43.272-0.787s-106.763-0.787-159.319-1.416c-52.556-0.63-87.803-1.416-105.427-1.81
	c-17.624-0.394-17.624-0.394-17.564-0.138s0.177,0.767,0.531,1.849c0.354,1.082,0.944,2.734,1.79,4.091
	c0.846,1.357,1.947,2.419,2.479,3.717c0.531,1.298,0.491,2.832,1.239,4.249c0.748,1.416,2.282,2.714,3.639,3.403
	c1.357,0.688,2.537,0.767,3.167,0.963c0.629,0.197,0.708,0.512,0.394,4.701c-0.315,4.189-1.023,12.254-5.606,54.838
	c-4.583,42.583-13.041,119.686-20.77,191.125S86.088,442.826,82.588,475.713c-3.501,32.887-3.501,32.887-3.029,43.036
	s1.416,30.447,3.226,67.976c1.81,37.529,4.485,92.288,5.823,119.667c1.337,27.38,1.337,27.38,1.77,26.75
	c0.433-0.63,1.298-1.889,2.754-2.833c1.455-0.943,3.501-1.573,4.996-1.022c1.495,0.551,2.438,2.282,3.619,2.399
	c1.181,0.118,2.597-1.377,4.563-1.651c1.967-0.276,4.485,0.668,6.058,1.455c1.574,0.787,2.203,1.416,1.927,2.399
	s-1.455,2.321-1.534,3.619c-0.079,1.298,0.944,2.557,2.243,2.557c1.298,0,2.872-1.259,4.17-1.141
	c1.298,0.118,2.321,1.613,3.186,1.259c0.866-0.354,1.573-2.557,2.389-4.336C125.565,734.066,126.488,732.71,126.792,729.828
	L126.792,729.828z M96.555,751.456c1.416,1.399,4.249,2.663,7.356,2.88c3.107,0.216,6.491-0.615,10.641-1.169
	c4.15-0.553,9.067-0.828,12.49-1.654s5.35-2.203,5.684-4.032s-0.924-4.111-2.576-5.114c-1.652-1.003-3.698-0.728-5.704,0.275
	c-2.006,1.004-3.973,2.734-6.663,3.91c-2.691,1.176-6.105,1.796-10,1.775c-3.895-0.02-8.27-0.679-10.457-0.241
	C95.139,748.523,95.139,750.057,96.555,751.456z"/>
</svg>
