<?xml version="1.0" encoding="utf-8"?>
<!-- Generator: Adobe Illustrator 15.1.0, SVG Export Plug-In . SVG Version: 6.00 Build 0)  -->
<!DOCTYPE svg PUBLIC "-//W3C//DTD SVG 1.1//EN" "http://www.w3.org/Graphics/SVG/1.1/DTD/svg11.dtd">
<svg version="1.1" id="Layer_1" xmlns="http://www.w3.org/2000/svg" xmlns:xlink="http://www.w3.org/1999/xlink" x="0px" y="0px"
	 width="612px" height="792px" viewBox="0 0 612 792" enable-background="new 0 0 612 792" xml:space="preserve">
<path fill-rule="evenodd" clip-rule="evenodd" stroke="#000000" stroke-width="2.9999" stroke-linecap="round" stroke-linejoin="round" stroke-miterlimit="22.9256" d="
	M47.315,497.725c1.526-1.349,2.608-3.633,4.111-7.24c1.503-3.607,3.426-8.537,4.87-11.543c1.443-3.006,2.404-4.088,4.329-5.05
	c1.923-0.962,4.81-1.804,6.433-3.187s1.984-3.306,2.826-4.569c0.841-1.262,2.164-1.863,3.427-3.486
	c1.262-1.623,2.465-4.269,2.465-7.274s-1.203-6.373-0.361-8.838c0.841-2.465,3.727-4.027,5.892-6.732
	c2.164-2.706,3.607-6.554,5.23-11.363c1.623-4.809,3.426-10.58,5.17-14.729c1.743-4.148,3.427-6.674,4.719-8.418
	c1.292-1.743,2.194-2.705,2.916-3.697c0.721-0.991,1.262-2.014,1.563-3.276c0.301-1.263,0.361-2.766,1.233-4.449
	c0.872-1.684,2.555-3.547,3.817-5.14c1.262-1.593,2.104-2.916,1.683-4.389c-0.421-1.473-2.104-3.097-3.427-4.419
	c-1.322-1.322-2.285-2.345-2.735-3.757c-0.451-1.413-0.391-3.216-1.203-4.719c-0.811-1.503-2.495-2.705-4.238-3.126
	c-1.744-0.421-3.547-0.061-4.75-0.631c-1.202-0.571-1.803-2.074-2.735-3.036s-2.195-1.383-3.216-1.172
	c-1.022,0.21-1.804,1.052-2.675,0.992c-0.872-0.06-1.834-1.022-2.435-2.255c-0.602-1.232-0.841-2.735-1.863-3.998
	c-1.022-1.263-2.826-2.285-3.788-3.487c-0.962-1.203-1.083-2.585-1.954-4.84s-2.495-5.381-3.998-7.665
	c-1.503-2.285-2.886-3.728-3.938-4.479c-1.052-0.752-1.773-0.812-1.052-1.713s2.886-2.646,4.058-4.208
	c1.172-1.563,1.353-2.946,0.691-3.968c-0.661-1.022-2.164-1.684-2.615-2.675c-0.451-0.992,0.15-2.314-0.15-3.908
	s-1.503-3.457-3.097-5.411c-1.593-1.954-3.577-3.998-4.869-5.26c-1.293-1.263-1.894-1.744-1.593-2.375s1.503-1.413,2.225-2.285
	c0.721-0.872,0.962-1.833,1.052-2.765c0.09-0.932,0.03-1.834-0.03-7.334c-0.06-5.501-0.121-15.601-0.181-59.592
	c-0.06-43.992-0.12-121.875-0.15-160.65c-0.03-38.777-0.03-38.447,0.331-38.447s1.082-0.33,15.24-0.494s41.752-0.165,55.58-0.165
	c13.827,0,13.887,0,13.917,0.165s0.03,0.494,0.03,12.713s0,36.326,0.015,53.941c0.015,17.615,0.045,28.737,0.076,34.298
	c0.03,5.561,0.06,5.561,0.481,5.959c0.421,0.398,1.232,1.194,2.502,2.555c1.271,1.36,2.999,3.284,4.682,5.072
	c1.684,1.789,3.322,3.442,4.577,4.299c1.255,0.857,2.127,0.917,2.954,1.277s1.608,1.022,2.044,2.3
	c0.436,1.277,0.525,3.171,0.706,4.449c0.18,1.277,0.451,1.939,1.322,2.12c0.872,0.18,2.345-0.121,3.066,0.271
	c0.721,0.39,0.691,1.472,1.353,2.194c0.661,0.722,2.014,1.082,2.946,1.578c0.932,0.496,1.443,1.127,1.293,2.345
	c-0.151,1.217-0.962,3.021-0.602,4.163c0.36,1.143,1.894,1.624,2.675,2.405c0.781,0.781,0.812,1.863,0.541,2.735
	s-0.842,1.533-1.684,2.315c-0.841,0.781-1.954,1.683-1.923,2.359c0.03,0.676,1.202,1.127,2.089,1.653
	c0.887,0.526,1.488,1.127,1.789,2.044c0.3,0.917,0.3,2.149,1.337,2.795c1.038,0.646,3.111,0.707,4.164,1.248
	s1.082,1.563,0.947,2.254s-0.436,1.052-1.428,1.083c-0.992,0.03-2.675-0.271-4.313-0.316s-3.231,0.165-4.449,0.812
	c-1.218,0.646-2.059,1.728-1.428,2.269c0.631,0.541,2.736,0.541,4.284,1.112s2.54,1.713,3.998,2.314s3.381,0.661,4.824,1.338
	c1.443,0.676,2.405,1.969,2.961,2.84c0.556,0.872,0.706,1.323,1.593,2.39c0.887,1.067,2.51,2.75,4.359,3.562
	c1.849,0.812,3.922,0.751,5.05,1.082c1.127,0.331,1.308,1.052,2.465,1.413c1.157,0.36,3.292,0.36,4.645,0.391
	c1.353,0.03,1.923,0.09,2.479,0.526c0.557,0.436,1.098,1.247,1.639,2.014c0.542,0.766,1.082,1.488,0.992,2.104
	c-0.09,0.616-0.812,1.127-0.721,1.758c0.09,0.631,0.992,1.383,1.939,1.954c0.946,0.571,1.938,0.962,2.434,1.473
	c0.496,0.511,0.496,1.142,1.158,1.503c0.661,0.36,1.984,0.451,3.156,1.262c1.172,0.812,2.194,2.345,3.216,3.697
	s2.044,2.525,3.427,3.637c1.382,1.112,3.126,2.164,3.998,3.622s0.872,3.322,1.608,4.239c0.737,0.917,2.209,0.886,3.457,1.292
	c1.247,0.406,2.27,1.248,3.396,2.135c1.127,0.887,2.36,1.818,2.976,2.721c0.616,0.901,0.616,1.773,0.466,3.201
	c-0.15,1.428-0.451,3.412,0.061,5.14c0.511,1.729,1.833,3.202,3.006,3.863c1.172,0.662,2.194,0.511,3.081,0.947
	s1.638,1.458,2.736,1.999c1.097,0.541,2.54,0.602,3.532,1.022s1.533,1.203,1.338,2.149c-0.196,0.947-1.128,2.059-1.263,3.261
	s0.526,2.495,1.503,2.6c0.978,0.105,2.27-0.977,3.307-2.104s1.819-2.3,3.382-2.646s3.908,0.135,5.201,1.143
	c1.292,1.007,1.533,2.54,0.856,3.532s-2.27,1.443-2.585,2.345c-0.316,0.902,0.646,2.254,1.608,2.961
	c0.962,0.707,1.924,0.767,3.322,0.375c1.397-0.391,3.231-1.232,4.704-1.082c1.473,0.15,2.585,1.293,3.592,1.818
	c1.007,0.526,1.909,0.436,2.555-0.225c0.646-0.662,1.037-1.895,2.074-2.811s2.72-1.518,4.554-1.563
	c1.833-0.045,3.817,0.466,4.915,1.292s1.307,1.969,1.022,3.171c-0.286,1.202-1.067,2.465-1.308,3.592
	c-0.24,1.127,0.06,2.119-0.03,2.991c-0.09,0.872-0.571,1.624-0.736,2.811c-0.166,1.188-0.015,2.811-0.902,3.412
	c-0.887,0.602-2.81,0.181-3.908,0.496c-1.097,0.315-1.368,1.368-0.872,2.404c0.496,1.038,1.758,2.06,2.225,3.202
	c0.465,1.142,0.135,2.405-0.661,3.412c-0.797,1.007-2.06,1.759-2.54,2.615c-0.481,0.857-0.181,1.818,0.135,2.721
	c0.316,0.901,0.646,1.743,0.361,2.69c-0.286,0.946-1.188,1.999-1.488,3.051c-0.301,1.052,0,2.104,0.045,2.75
	c0.045,0.646-0.165,0.886-0.932,1.112c-0.767,0.226-2.089,0.436-2.645,1.052c-0.557,0.616-0.346,1.638,0.03,2.6
	c0.375,0.961,0.917,1.864,1.277,3.021s0.541,2.57,0.075,3.472s-1.578,1.292-2.855,1.398c-1.278,0.105-2.72-0.075-3.246,0.646
	c-0.526,0.722-0.135,2.345,0.917,3.231c1.052,0.887,2.765,1.037,3.577,1.758c0.812,0.722,0.721,2.014,0.286,3.006
	c-0.436,0.992-1.218,1.683-1.924,2.495c-0.707,0.812-1.338,1.744-1.172,2.495s1.127,1.322,2.134,1.969
	c1.007,0.646,2.059,1.368,3.081,1.939c1.022,0.571,2.014,0.992,2.45,1.578c0.436,0.586,0.315,1.337-0.211,1.999
	c-0.526,0.661-1.458,1.232-1.308,1.969c0.15,0.736,1.383,1.639,2.3,2.721c0.917,1.082,1.518,2.345,1.368,3.352
	c-0.15,1.007-1.052,1.758-2.104,2.014c-1.052,0.255-2.254,0.015-3.171,0.195c-0.917,0.18-1.548,0.781-2.029,1.082
	c-0.481,0.3-0.812,0.3-1.413,0.286c-0.601-0.015-1.473-0.045-2.059,0.271c-0.586,0.315-0.887,0.977-1.593,1.954
	c-0.706,0.977-1.818,2.269-2.044,3.231c-0.226,0.962,0.436,1.593,1.548,2.766c1.112,1.172,2.675,2.885,3.262,4.674
	s0.195,3.652-0.691,4.885s-2.27,1.834-3.216,2.525c-0.947,0.691-1.458,1.473-1.413,2.269c0.045,0.797,0.646,1.608,0.721,2.63
	c0.075,1.021-0.375,2.254-0.09,2.961c0.286,0.707,1.308,0.887,2.615,0.917c1.308,0.03,2.901-0.09,4.299,0.286
	c1.397,0.376,2.6,1.248,3.728,2.24c1.127,0.992,2.179,2.104,3.231,2.72c1.052,0.616,2.104,0.737,2.766,1.278
	c0.661,0.541,0.932,1.502,1.428,1.983c0.496,0.481,1.217,0.481,2.39,0.15s2.796-0.992,3.713-1.818
	c0.917-0.827,1.126-1.819,1.367-2.976c0.241-1.158,0.511-2.48,1.037-3.096s1.308-0.526,1.984-0.226
	c0.676,0.301,1.248,0.812,1.879,0.677s1.322-0.917,2.029-1.262c0.707-0.346,1.428-0.256,2.044-0.707
	c0.616-0.451,1.127-1.443,2.194-1.983c1.066-0.542,2.69-0.632,3.622-1.323s1.173-1.984,1.413-2.765
	c0.24-0.782,0.481-1.052,1.098-1.428c0.616-0.375,1.607-0.856,1.999-1.788c0.391-0.932,0.181-2.315,0.676-3.397
	c0.496-1.082,1.698-1.864,2.675-1.909c0.978-0.045,1.729,0.646,2.541,0.827c0.812,0.18,1.683-0.15,2.359,0.03
	c0.676,0.18,1.157,0.871,1.773,1.638c0.616,0.767,1.368,1.608,1.519,2.57c0.149,0.962-0.301,2.044-0.181,2.946
	c0.12,0.901,0.812,1.623,2.449,1.818c1.639,0.195,4.224-0.135,5.531,0.586c1.308,0.722,1.338,2.495,0.691,3.698
	c-0.646,1.202-1.969,1.833-2.585,2.584s-0.526,1.624,0.075,1.894s1.713-0.06,2.645-0.165c0.933-0.105,1.684,0.015,2.345,0.601
	c0.661,0.586,1.232,1.639,1.188,2.69c-0.045,1.053-0.707,2.104-0.933,3.231c-0.225,1.128-0.015,2.33,0.226,3.457
	c0.241,1.128,0.512,2.18,1.128,3.021c0.616,0.842,1.578,1.474,2.059,1.984c0.481,0.511,0.481,0.901,0.391,1.879
	c-0.09,0.977-0.271,2.539,0.256,3.922c0.526,1.384,1.759,2.586,2.45,3.878c0.691,1.293,0.842,2.676,1.578,3.742
	c0.736,1.067,2.059,1.819,3.382,2.932c1.322,1.112,2.645,2.585,3.291,3.938s0.616,2.585,1.217,3.832
	c0.602,1.248,1.834,2.511,3.187,3.652c1.353,1.143,2.825,2.165,4.059,3.201c1.232,1.037,2.224,2.09,2.915,2.962
	c0.691,0.871,1.083,1.563,1.157,2.689c0.076,1.128-0.165,2.69-0.255,4.028c-0.091,1.338-0.03,2.45-0.541,3.006
	c-0.512,0.556-1.594,0.556-2.345,0.946c-0.752,0.392-1.173,1.173-1.173,2.045c0,0.871,0.421,1.834,0.917,2.54
	s1.067,1.157,2.436,2.134c1.367,0.978,3.531,2.48,4.929,3.457s2.029,1.428,2.479,2.239c0.451,0.812,0.722,1.983,1.067,2.676
	c0.346,0.691,0.767,0.901,1.593,0.616c0.827-0.286,2.06-1.067,3.367-1.834s2.69-1.519,4.253-1.503
	c1.563,0.015,3.308,0.797,5.065,1.728c1.759,0.933,3.532,2.015,5.065,3.428s2.825,3.156,3.411,4.419
	c0.586,1.262,0.466,2.044,0.661,3.051c0.196,1.007,0.707,2.239,1.398,3.637c0.69,1.398,1.563,2.961,1.457,3.833
	c-0.104,0.871-1.187,1.052-1.698,1.729c-0.511,0.676-0.45,1.849,0.256,3.156c0.707,1.308,2.06,2.75,3.126,3.878
	c1.067,1.127,1.849,1.938,1.924,2.915s-0.556,2.119-0.586,3.201c-0.03,1.083,0.541,2.104,1.503,3.081
	c0.962,0.978,2.314,1.909,4.118,2.69c1.804,0.782,4.059,1.413,5.32,2.285c1.263,0.871,1.533,1.983,2.165,2.84
	c0.631,0.857,1.623,1.458,2.51,1.248c0.887-0.211,1.668-1.232,2.104-2.255c0.436-1.021,0.525-2.044-0.061-2.916
	c-0.586-0.871-1.849-1.593-1.804-2.479s1.397-1.938,2.855-3.066c1.458-1.127,3.021-2.329,4.6-3.11
	c1.578-0.782,3.171-1.143,4.373-0.872c1.203,0.271,2.015,1.173,3.563,1.563s3.833,0.271,5.727,0.149
	c1.894-0.12,3.396-0.24,4.539,0.256c1.142,0.496,1.924,1.608,2.811,1.818c0.887,0.211,1.879-0.48,2.886-0.376
	c1.007,0.105,2.028,1.008,3.133,1.631c1.105,0.624,2.292,0.97,3.382,0.436c1.089-0.533,2.081-1.946,2.54-3.517
	c0.458-1.57,0.383-3.299,0.863-4.201c0.481-0.901,1.519-0.978,2.518-1.466s1.961-1.391,2.938-2.021
	c0.977-0.631,1.969-0.992,2.885-0.842c0.917,0.15,1.759,0.812,2.21,1.548c0.451,0.737,0.511,1.548,1.818,1.909
	c1.309,0.36,3.863,0.271,5.261,0.436c1.397,0.166,1.639,0.586,2.345,0.842s1.879,0.346,2.931,0.091
	c1.052-0.256,1.983-0.857,2.6-0.933s0.917,0.376,1.699,0.226c0.781-0.15,2.044-0.902,3.336-1.397
	c1.293-0.496,2.615-0.736,4.134-1.112c1.518-0.376,3.231-0.887,4.403-0.977c1.173-0.091,1.804,0.24,2.51,1.111
	c0.707,0.872,1.488,2.285,2.149,3.231c0.661,0.947,1.202,1.428,2.09,1.383c0.887-0.045,2.119-0.616,3.381-1.308
	c1.263-0.691,2.556-1.503,3.668-2.179c1.112-0.677,2.044-1.218,3.321-1.263s2.9,0.405,4.283,0.301
	c1.383-0.105,2.524-0.767,3.727-0.519c1.203,0.248,2.466,1.405,3.998,2.404c1.533,1,3.337,1.842,4.765,1.991
	c1.429,0.15,2.48-0.391,2.841-1.314c0.36-0.925,0.03-2.232-0.706-2.916c-0.737-0.684-1.879-0.744-2.781-1.24
	c-0.901-0.496-1.563-1.428-1.863-2.479s-0.24-2.225-0.075-2.916s0.436-0.901,1.173-1.367c0.736-0.466,1.938-1.188,2.555-1.954
	s0.646-1.578,0.255-2.39c-0.391-0.812-1.202-1.623-0.826-2.66s1.938-2.3,3.096-2.346c1.157-0.045,1.909,1.128,2.405,1.211
	c0.496,0.082,0.736-0.925,1.041-1.932c0.304-1.007,0.672-2.015,1.51-2.438c0.838-0.425,2.146-0.268,2.758,0.319
	c0.613,0.586,0.53,1.601,0.955,2.107c0.424,0.508,1.356,0.508,2.634,1.515s2.9,3.021,3.638,4.479c0.736,1.458,0.586,2.36,1.19,2.694
	s1.965,0.102,2.776,0.672c0.812,0.571,1.075,1.947,0.771,3.101c-0.304,1.153-1.176,2.086-0.995,2.852
	c0.18,0.767,1.412,1.368,2.494,1.834c1.083,0.466,2.015,0.797,3.081,1.442c1.067,0.646,2.27,1.608,2.946,2.601
	c0.676,0.992,0.826,2.014,1.368,2.796c0.541,0.781,1.473,1.322,2.54,1.578c1.066,0.255,2.27,0.226,2.852,0.304
	s0.545,0.266,0.533,0.787c-0.012,0.522,0.004,1.379,0.011,43.086c0.008,41.707,0.007,124.265-0.008,166.175
	c-0.016,41.91-0.046,43.173-0.068,43.819s-0.037,0.677-0.21,0.698c-0.173,0.023-0.504,0.038-4.464,0.023
	c-3.961-0.015-11.551-0.061-83.836,0.029c-72.285,0.091-209.266,0.316-290.486,0.384c-81.221,0.067-106.681-0.022-119.411-0.128
	c-12.73-0.104-12.73-0.225-12.716-0.36c0.015-0.135,0.045-0.286,0.015-4.148c-0.03-3.862-0.12-11.438-0.15-42.685
	c-0.03-31.246,0-86.165,0.015-113.625C60,568.071,60,568.071,60.24,567.921c0.24-0.149,0.721-0.451,1.382-1.367
	c0.661-0.917,1.503-2.45,2.254-3.638s1.413-2.028,1.383-3.366s-0.751-3.171-0.526-4.523c0.226-1.354,1.397-2.225,2.104-3.202
	c0.707-0.977,0.947-2.059,0.226-3.307c-0.722-1.247-2.405-2.66-2.825-4.117c-0.421-1.458,0.42-2.961,1.578-3.953
	s2.63-1.474,3.592-2.314c0.962-0.842,1.413-2.045,1.382-3.262c-0.03-1.218-0.541-2.45-1.728-2.916
	c-1.188-0.466-3.051-0.165-3.983-0.992c-0.932-0.826-0.932-2.78-1.743-3.923c-0.812-1.143-2.436-1.473-3.487-1.172
	c-1.052,0.3-1.533,1.232-2.36,1.442c-0.827,0.211-1.999-0.301-2.765-1.247c-0.767-0.947-1.127-2.33-1.833-2.495
	c-0.707-0.165-1.759,0.887-2.811,1.442c-1.052,0.557-2.104,0.617-3.396-0.315c-1.292-0.932-2.826-2.855-3.247-4.118
	s0.271-1.863,0.917-2.735c0.646-0.871,1.247-2.015,0.496-3.127c-0.752-1.112-2.856-2.194-3.126-3.576
	c-0.271-1.383,1.292-3.066,1.619-4.99s-0.583-4.088-0.052-5.376S45.79,499.072,47.315,497.725z"/>
</svg>
