<?xml version="1.0" encoding="utf-8"?>
<!-- Generator: Adobe Illustrator 15.1.0, SVG Export Plug-In . SVG Version: 6.00 Build 0)  -->
<!DOCTYPE svg PUBLIC "-//W3C//DTD SVG 1.1//EN" "http://www.w3.org/Graphics/SVG/1.1/DTD/svg11.dtd">
<svg version="1.1" id="Layer_1" xmlns="http://www.w3.org/2000/svg" xmlns:xlink="http://www.w3.org/1999/xlink" x="0px" y="0px"
	 width="612px" height="792px" viewBox="0 0 612 792" enable-background="new 0 0 612 792" xml:space="preserve">
<path fill-rule="evenodd" clip-rule="evenodd" stroke="#000000" stroke-width="2.9999" stroke-linecap="round" stroke-linejoin="round" stroke-miterlimit="22.9256" d="
	M256.454,649.297c-1.565-0.998-3.699-2.499-4.015-4.08c-0.316-1.58,1.186-3.24,1.699-4.979c0.514-1.739,0.04-3.557-0.198-5.058
	c-0.237-1.502-0.237-2.688-0.04-3.319c0.198-0.633,0.593-0.712,14.463-0.751c13.87-0.04,41.214-0.04,93.255,0
	c52.041,0.039,128.779,0.118,167.741,0.158c38.962,0.039,40.147,0.039,40.73,0.01s0.563-0.089,0.554-0.188
	c-0.011-0.099-0.011-0.237-0.03-2.391c-0.02-2.154-0.06-6.323-0.197-25.784c-0.139-19.461-0.376-54.215-0.179-88.346
	c0.198-34.131,0.83-67.64,1.305-100.042s0.79-63.698,0.869-107.796c0.08-44.099-0.078-101-0.157-129.451
	c-0.079-28.45-0.079-28.45,0.672-28.549c0.751-0.099,2.252-0.296,2.964-0.455c0.711-0.158,0.632-0.276,0.572-3.22
	c-0.059-2.944-0.099-8.713-0.178-17.9c-0.079-9.188-0.197-21.792-0.218-28.075c-0.02-6.283,0.06-6.244,0-6.224
	c-0.059,0.02-0.256,0.02-0.75,0.02s-1.284,0-10.808,0c-9.522,0-27.779,0-117.043-0.099s-249.536-0.297-329.672-0.396
	c-80.136-0.099-80.136-0.099-80.353-0.04c-0.218,0.059-0.652,0.178-0.83,0.791c-0.178,0.612-0.099,1.719-0.06,6.5
	s0.04,13.237,0.044,113.921c0.005,100.684,0.016,293.596,0.021,390.096c0.005,96.5,0.005,96.589,0.005,96.707
	c0,0.119,0,0.267,1.21,0.316c1.21,0.049,3.63,0,6.416-0.02c2.786-0.02,5.937-0.011,17.263,0c11.326,0.01,30.827,0.02,40.641,0.024
	s9.943,0.005,10.091,0.005c0.148,0,0.316,0,0.38-0.721c0.064-0.721,0.024-2.163,0.005-3.769c-0.02-1.605-0.02-3.374-0.025-10.433
	c-0.005-7.058-0.014-19.406-0.019-25.603s-0.005-6.241-0.005-6.286c0-0.044,0-0.089,0-0.136c0-0.046,0-0.096,0.65-0.115
	c0.649-0.02,1.949-0.01,3.268-0.008c1.319,0.003,2.657-0.002,24.88-0.007c22.222-0.005,65.329-0.01,88.927-0.012
	c23.598-0.003,27.688-0.003,29.748-0.032c2.06-0.029,2.09-0.089,2.095-0.281s-0.015-0.519-0.375-0.874
	c-0.36-0.356-1.062-0.741-1.91-1.181C259.013,650.789,258.018,650.295,256.454,649.297z"/>
</svg>
