<?xml version="1.0" encoding="utf-8"?>
<!-- Generator: Adobe Illustrator 15.1.0, SVG Export Plug-In . SVG Version: 6.00 Build 0)  -->
<!DOCTYPE svg PUBLIC "-//W3C//DTD SVG 1.1//EN" "http://www.w3.org/Graphics/SVG/1.1/DTD/svg11.dtd">
<svg version="1.1" id="Layer_1" xmlns="http://www.w3.org/2000/svg" xmlns:xlink="http://www.w3.org/1999/xlink" x="0px" y="0px"
	 width="792px" height="612px" viewBox="0 0 792 612" enable-background="new 0 0 792 612" xml:space="preserve">
<path fill-rule="evenodd" clip-rule="evenodd" stroke="#000000" stroke-width="2.9999" stroke-linecap="round" stroke-linejoin="round" stroke-miterlimit="22.9256" d="
	M731.056,536.804c-1.454,42.862-1.454,42.51-2.335,42.333c-0.881-0.176-2.644-0.176-26.167-0.881
	c-23.522-0.705-68.808-2.114-123.871-4.758c-55.063-2.643-119.907-6.52-157.526-8.81c-37.62-2.291-48.016-2.995-64.843-4.141
	c-16.828-1.146-40.087-2.731-54.271-3.789c-14.184-1.057-19.294-1.586-38.94-3.26s-53.831-4.493-89.953-8.193
	c-36.122-3.699-74.182-8.281-97.705-11.277c-23.523-2.995-32.51-4.404-37.003-5.109c-4.493-0.704-4.493-0.704-4.405-1.058
	c0.088-0.352,0.264-1.057,2.643-27.223c2.379-26.167,6.96-77.795,11.542-133.563c4.581-55.769,9.162-115.678,13.92-170.83
	c4.757-55.152,9.69-105.546,12.158-130.919c2.466-25.374,2.466-25.726,2.731-25.99s0.792-0.44,17.18,1.145
	c16.387,1.586,48.633,4.934,96.736,9.075c48.104,4.141,112.066,9.075,159.024,12.247c46.958,3.171,76.913,4.581,124.577,6.783
	c47.663,2.203,113.035,5.198,160.964,7.313c47.928,2.114,78.411,3.347,93.652,4.052c15.242,0.705,15.242,0.881,15.065,2.114
	c-0.176,1.234-0.528,3.524-1.058,28.105c-0.528,24.581-1.232,71.451-2.07,110.436c-0.837,38.985-1.807,70.085-3.745,128.673
	C735.416,407.866,732.51,493.942,731.056,536.804z"/>
</svg>
