<?xml version="1.0" encoding="utf-8"?>
<!-- Generator: Adobe Illustrator 15.1.0, SVG Export Plug-In . SVG Version: 6.00 Build 0)  -->
<!DOCTYPE svg PUBLIC "-//W3C//DTD SVG 1.1//EN" "http://www.w3.org/Graphics/SVG/1.1/DTD/svg11.dtd">
<svg version="1.1" id="Layer_1" xmlns="http://www.w3.org/2000/svg" xmlns:xlink="http://www.w3.org/1999/xlink" x="0px" y="0px"
	 width="792px" height="612px" viewBox="0 0 792 612" enable-background="new 0 0 792 612" xml:space="preserve">
<path fill-rule="evenodd" clip-rule="evenodd" stroke="#000000" stroke-width="2.9999" stroke-linecap="round" stroke-linejoin="round" stroke-miterlimit="22.9256" d="
	M220.98,308.202c-4.535-0.058-10.75-0.213-15.063-0.174c-4.312,0.039-6.721,0.272-7.887-0.233c-1.165-0.505-1.088-1.748-2.758-1.592
	c-1.67,0.155-5.089,1.709-8.78,3.224c-3.69,1.515-7.653,2.992-10.917,4.623c-3.264,1.632-5.827,3.419-7.381,3.769
	c-1.554,0.35-2.099-0.738-3.225-1.01c-1.126-0.272-2.836,0.271-6.254,1.515c-3.419,1.243-8.547,3.186-11.771,4.273
	s-4.545,1.321-5.594,1.011c-1.049-0.312-1.826-1.166-5.556-1.283c-3.73-0.116-10.411,0.506-15.617,0.894
	c-5.206,0.39-8.936,0.545-10.878,0.312c-1.942-0.233-2.098-0.854-8.857-1.282c-6.76-0.427-20.124-0.66-27.233-0.428
	c-7.109,0.233-7.964,0.933-12.393,1.243c-4.429,0.312-12.432,0.233-17.093,0.194c-4.662-0.039-5.983-0.039-6.644-1.088
	s-0.66-3.146-0.466-6.061c0.194-2.913,0.583-6.643,0.777-9.323c0.194-2.681,0.194-4.313,0.622-5.439
	c0.427-1.126,1.282-1.749,2.642-2.137c1.36-0.389,3.224-0.544,5.594-0.505c2.37,0.039,5.245,0.272,7.77,0.116
	c2.525-0.155,4.7-0.699,6.254-1.398s2.486-1.554,2.992-2.603c0.505-1.049,0.583-2.292,0.505-4.04
	c-0.078-1.748-0.312-4.001,0.077-5.633c0.389-1.631,1.399-2.642,2.059-3.147c0.661-0.505,0.971-0.505,1.438-0.194
	c0.466,0.311,1.087,0.933,1.632,0.855c0.543-0.078,1.01-0.855,1.631-1.942c0.622-1.088,1.399-2.486,2.603-3.729
	s2.836-2.331,4.273-3.03c1.437-0.699,2.68-1.01,4.196-1.244c1.515-0.233,3.302-0.388,5.594-0.388c2.292,0,5.089,0.155,7.303,0.233
	c2.215,0.078,3.847,0.078,5.128,0.155c1.282,0.078,2.214,0.233,3.225,0.389c1.01,0.155,2.098,0.311,3.458-0.816
	s2.991-3.536,4.273-4.779c1.282-1.243,2.215-1.321,3.069-1.321c0.855,0,1.632,0.078,2.409-0.155
	c0.777-0.233,1.554-0.777,3.186-1.127c1.631-0.349,4.118-0.505,5.633-1.554c1.515-1.048,2.059-2.991,3.03-3.962
	s2.37-0.971,3.691-1.981c1.321-1.01,2.563-3.03,4.467-4.079c1.903-1.049,4.468-1.126,6.488-0.854s3.497,0.894,4.973,1.01
	c1.476,0.117,2.953-0.272,4.507-1.67c1.554-1.398,3.185-3.807,3.458-5.438c0.271-1.631-0.816-2.486-1.244-3.574
	c-0.427-1.087-0.194-2.409,0.622-3.341c0.816-0.932,2.214-1.476,3.613-1.126c1.399,0.35,2.797,1.593,3.729,2.059
	c0.933,0.466,1.398,0.155,2.059-1.477c0.661-1.631,1.515-4.584,3.225-6.798s4.273-3.691,6.566-4.545
	c2.292-0.855,4.312-1.088,5.283-0.739c0.971,0.35,0.894,1.282,0.972,2.681c0.077,1.399,0.31,3.264,0.738,4.739
	c0.427,1.477,1.048,2.564,2.331,2.992s3.225,0.195,5.051-1.049c1.826-1.243,3.535-3.497,5.555-5.75
	c2.02-2.253,4.351-4.506,6.76-5.828c2.409-1.321,4.895-1.709,7.148-1.981c2.253-0.272,4.273-0.428,5.478-1.127
	c1.204-0.699,1.593-1.942,2.448-2.176c0.854-0.233,2.175,0.544,3.418,1.671c1.243,1.126,2.409,2.603,3.807,2.719
	c1.398,0.117,3.03-1.126,5.089-3.458c2.059-2.331,4.545-5.75,6.643-8.547c2.098-2.797,3.807-4.972,5.478-6.099
	c1.67-1.126,3.302-1.204,4.817-1.049c1.515,0.156,2.914,0.544,4.623,0.816c1.709,0.272,3.729,0.427,4.584,0.155
	s0.544-0.971-0.039-1.904c-0.583-0.933-1.438-2.098-1.632-3.302c-0.194-1.204,0.272-2.447,0.854-3.497
	c0.583-1.048,1.282-1.903,1.632-3.613c0.35-1.709,0.35-4.273,0.505-6.021c0.156-1.748,0.466-2.681,1.398-3.186
	c0.933-0.505,2.486-0.583,17.91-0.622c15.423-0.039,44.715-0.039,87.061-0.078c42.345-0.039,97.744-0.117,160.252-0.155
	c62.509-0.039,132.126-0.039,167.42,0.058c35.295,0.097,36.267,0.292,36.752,0.622c0.486,0.33,0.486,0.796,0.486,1.496
	s0,1.631,0.621,2.525c0.622,0.894,1.865,1.749,2.913,2.953c1.05,1.205,1.904,2.758,3.031,4.196c1.126,1.438,2.524,2.758,3.769,4.39
	c1.243,1.631,2.33,3.574,4.117,5.885c1.787,2.312,4.273,4.992,5.4,8.216s0.894,6.993-0.33,8.295
	c-1.225,1.301-3.438,0.135-5.108-2.273s-2.798-6.061-4.139-8.935c-1.34-2.875-2.894-4.973-4.914-6.944
	c-2.02-1.972-4.506-3.817-6.721-4.517c-2.214-0.699-4.156-0.252-4.273,0.671c-0.116,0.923,1.593,2.321,3.691,4.069
	c2.098,1.748,4.584,3.846,6.021,5.633c1.438,1.787,1.825,3.263,0.854,3.69c-0.972,0.428-3.302-0.194-5.322-1.515
	c-2.021-1.32-3.729-3.34-5.09-4.467c-1.359-1.127-2.369-1.36-3.457-0.972c-1.088,0.389-2.254,1.399-1.865,2.875
	c0.389,1.477,2.331,3.419,4.273,5.167c1.942,1.748,3.885,3.302,4.817,4.428c0.933,1.127,0.854,1.826-0.66,2.176
	c-1.516,0.35-4.468,0.35-7.129-1.03c-2.661-1.379-5.03-4.137-6.255-4.72c-1.224-0.583-1.301,1.01-1.317,2.409
	s0.029,2.603-1.156,3.108c-1.185,0.505-3.6,0.311-5.623-0.835s-3.655-3.244-5.171-4.138c-1.515-0.893-2.913-0.583-3.477,0.505
	c-0.563,1.088-0.291,2.952,1.398,4.72c1.69,1.768,4.799,3.438,6.663,5.206c1.865,1.768,2.486,3.632,1.068,4.254
	s-4.875,0-7.886-1.379c-3.012-1.379-5.575-3.516-7.323-4.118c-1.748-0.602-2.681,0.331-1.69,2.351
	c0.99,2.021,3.904,5.128,3.322,6.216c-0.583,1.087-4.662,0.156-7.829-0.738c-3.166-0.894-5.419-1.748-6.973-3.729
	c-1.554-1.981-2.409-5.089-1.671-7.964s3.069-5.517,3.69-8.275c0.622-2.758-0.466-5.633-1.826-6.682
	c-1.359-1.049-2.991-0.271-3.496,0.972s0.116,2.952-0.583,4.701c-0.699,1.748-2.719,3.536-3.651,5.284s-0.777,3.458-0.155,5.517
	c0.621,2.059,1.709,4.468,2.72,6.604c1.01,2.137,1.942,4.001,2.02,5.711c0.078,1.709-0.699,3.263-1.127,5.75
	c-0.427,2.486-0.505,5.905-0.155,6.333c0.35,0.428,1.127-2.137,2.604-3.613c1.477-1.477,3.651-1.865,6.448-1.788
	c2.798,0.078,6.216,0.622,9.479,0.039s6.372-2.292,9.285-1.942c2.914,0.35,5.633,2.758,7.848,4.273s3.924,2.137,4.973,1.554
	c1.049-0.583,1.438-2.37,1.243-3.923s-0.972-2.875,0.116-4.118s4.041-2.409,7.109-2.875c3.069-0.466,6.255-0.233,8.158,0.272
	c1.904,0.505,2.525,1.282,1.36,2.136c-1.165,0.855-4.118,1.787-4.391,3.418c-0.271,1.632,2.138,3.963,3.264,5.556
	c1.127,1.593,0.972,2.448-0.039,3.147c-1.01,0.699-2.874,1.243-3.496,2.564s0,3.419,0.777,4.895
	c0.776,1.476,1.709,2.331,1.825,4.079c0.117,1.748-0.582,4.39,0.389,5.361c0.972,0.971,3.613,0.271,5.322-1.01
	c1.71-1.282,2.486-3.146,2.836-5.478s0.271-5.128,0-7.576c-0.271-2.447-0.738-4.545-0.544-5.983s1.049-2.214,2.486-1.748
	c1.438,0.466,3.458,2.175,4.856,3.107c1.398,0.933,2.176,1.088,2.72-0.039s0.854-3.535,1.515-4.934
	c0.66-1.398,1.671-1.787,2.953-1.088c1.281,0.699,2.836,2.487,3.846,4.662s1.477,4.74,1.942,6.76s0.933,3.497,0.389,4.778
	c-0.544,1.282-2.098,2.37-2.991,3.729c-0.894,1.36-1.127,2.992-0.972,4.507c0.155,1.516,0.699,2.914,0.66,4.507
	c-0.038,1.593-0.66,3.38-1.554,4.468c-0.894,1.087-2.059,1.477-2.486,0.699s-0.116-2.72-0.505-4.352
	c-0.389-1.631-1.477-2.952-2.885-3.497s-3.138-0.312-4.03,0.426c-0.895,0.738-0.952,1.982-1.137,3.381s-0.495,2.953-1.428,4.002
	s-2.486,1.593-3.604,1.923c-1.117,0.33-1.797,0.445-2.758,1.28c-0.962,0.835-2.205,2.389-2.555,3.826s0.194,2.759-0.116,3.536
	c-0.312,0.777-1.477,1.01-2.352,1.573c-0.874,0.563-1.456,1.457-1.786,2.389c-0.33,0.933-0.408,1.904-1.166,2.389
	c-0.758,0.486-2.194,0.486-3.186,0.835c-0.99,0.35-1.534,1.049-2.467,1.36c-0.933,0.311-2.253,0.233-3.535-0.155
	c-1.282-0.388-2.525-1.087-3.128-2.04c-0.603-0.952-0.563-2.156-1.126-2.195c-0.563-0.039-1.729,1.088-3.166,1.593
	s-3.146,0.389-4.273-0.194s-1.671-1.632-2.759-2.331s-2.72-1.049-3.205-1.826s0.175-1.981-0.428-2.758s-2.467-1.126-4.176-0.253
	c-1.71,0.875-3.264,2.973-4.351,3.361c-1.088,0.389-1.71-0.933-1.341-2.564c0.369-1.632,1.729-3.574,2.778-5.458
	c1.049-1.884,1.786-3.71,1.048-4.856c-0.737-1.146-2.952-1.612-4.798-1.359c-1.845,0.252-3.321,1.224-5.069,1.884
	s-3.769,1.01-5.556,1.263c-1.787,0.253-3.341,0.408-2.759,1.301c0.583,0.894,3.303,2.526,4.701,3.808
	c1.398,1.282,1.477,2.214,0.622,3.477c-0.854,1.262-2.643,2.855-4.216,3.205c-1.573,0.349-2.933-0.544-3.962-0.389
	s-1.729,1.36-2.837,1.728c-1.106,0.369-2.622-0.097-3.167-0.971c-0.544-0.875-0.116-2.156,0.233-3.302
	c0.35-1.146,0.621-2.157,0.116-2.972c-0.505-0.816-1.786-1.438-3.671-0.875c-1.885,0.563-4.37,2.312-6.818,2.312
	c-2.447,0-4.855-1.749-7.653-3.438c-2.797-1.689-5.982-3.321-7.653-3.011c-1.67,0.311-1.825,2.564-0.874,4.157
	c0.952,1.593,3.012,2.525,4.585,3.749c1.573,1.224,2.661,2.739,2.894,4.001c0.233,1.263-0.389,2.273,0.098,2.934
	c0.485,0.66,2.078,0.971,3.36,0.271c1.281-0.699,2.253-2.408,3.807-2.836c1.555-0.427,3.691,0.428,5.07,1.224
	s2.001,1.534,2.233,2.233c0.233,0.7,0.078,1.36,0.758,1.651s2.195,0.213,3.322,0.291c1.126,0.078,1.864,0.311,1.417,1.127
	c-0.446,0.816-2.078,2.214-2.661,3.341c-0.582,1.126-0.116,1.981,0.719,2.564c0.836,0.583,2.04,0.894,2.798,0.447
	c0.758-0.446,1.067-1.651,1.98-2.312c0.913-0.66,2.429-0.777,3.672-0.816s2.214,0,2.816,0.68c0.603,0.68,0.835,2.001,1.534,2.991
	c0.699,0.991,1.865,1.651,3.399,2.078c1.535,0.427,3.438,0.622,4.448,0c1.011-0.622,1.127-2.059,2.001-2.933
	c0.874-0.875,2.506-1.185,3.788-0.894c1.281,0.292,2.214,1.185,3.068,2.098c0.855,0.913,1.632,1.846,1.671,2.817
	c0.039,0.971-0.66,1.981-1.787,2.603c-1.127,0.622-2.681,0.854-4.176,1.38c-1.496,0.523-2.934,1.34-4.993,2
	c-2.059,0.66-4.739,1.166-6.235,1.787c-1.495,0.622-1.806,1.359-0.835,1.535c0.972,0.174,3.225-0.215,5.128-0.545
	c1.904-0.33,3.458-0.602,4.623-0.33c1.166,0.272,1.942,1.088,1.942,2.04s-0.776,2.039-2.117,2.563
	c-1.34,0.525-3.243,0.486-4.215,0.797c-0.971,0.311-1.01,0.971-0.816,1.689c0.195,0.719,0.622,1.496,0.156,2.099
	c-0.467,0.602-1.826,1.029-3.167,1.067c-1.34,0.04-2.661-0.311-3.516-0.019s-1.243,1.224-1.709,2.039
	c-0.467,0.816-1.011,1.516-2.351,1.71c-1.34,0.193-3.477-0.117-4.545,0.407c-1.068,0.525-1.068,1.885-1.729,2.486
	c-0.661,0.603-1.982,0.447-3.147-0.427s-2.176-2.467-3.496-3.458c-1.321-0.99-2.953-1.379-3.847-2.312
	c-0.894-0.932-1.049-2.408-1.981-3.69s-2.642-2.369-3.943-3.594c-1.301-1.224-2.194-2.583-3.671-3.574
	c-1.477-0.99-3.535-1.612-3.807-0.369c-0.272,1.243,1.242,4.352,3.068,7.07c1.826,2.721,3.963,5.051,5.42,6.722
	s2.233,2.681,2.913,4.06c0.681,1.379,1.263,3.128,2.215,4.196c0.952,1.067,2.272,1.457,3.594,1.417
	c1.32-0.038,2.642-0.505,3.593-0.427c0.952,0.077,1.535,0.699,2.525,0.758c0.991,0.058,2.39-0.447,3.147-0.02
	s0.874,1.787,1.923,1.884c1.049,0.098,3.03-1.068,4.623-1.962s2.797-1.516,3.981-1.379c1.184,0.136,2.348,1.028,2.638,0.756
	c0.291-0.271-0.292-1.709-0.447-2.855c-0.155-1.146,0.116-2.001,0.874-2.156s2.001,0.389,3.341,1.38
	c1.341,0.99,2.778,2.428,3.245,2.194c0.467-0.232-0.036-2.136,0.062-3.398c0.098-1.262,0.798-1.883,1.847-1.825
	c1.049,0.059,2.446,0.797,3.477,0.059c1.029-0.738,1.69-2.953,2.7-3.827s2.369-0.407,2.894,0.641
	c0.525,1.05,0.215,2.682-0.349,4.061s-1.38,2.506-1.011,3.671s1.923,2.37,3.438,2.215c1.516-0.155,2.992-1.671,4.546-2.059
	c1.554-0.389,3.186,0.35,4.021,1.146c0.835,0.796,0.874,1.651,0.369,2.447c-0.505,0.797-1.554,1.535-2.934,2.72
	c-1.379,1.185-3.089,2.817-4.351,3.865c-1.263,1.05-2.079,1.516-3.322,1.923c-1.243,0.408-2.913,0.759-3.943,1.769
	c-1.029,1.01-1.418,2.681-1.981,4.176c-0.563,1.496-1.301,2.817-2.583,3.497s-3.108,0.719-4.41-0.797
	c-1.301-1.515-2.078-4.584-3.029-6.255c-0.952-1.67-2.078-1.942-2.448-1.204c-0.369,0.738,0.021,2.486-0.116,3.827
	c-0.136,1.34-0.796,2.272-1.671,2.389c-0.873,0.117-1.961-0.583-2.544-1.729c-0.583-1.146-0.661-2.739-1.225-3.633
	c-0.563-0.894-1.611-1.088-2.583-0.99c-0.971,0.097-1.864,0.485-2.447,0.933c-0.583,0.446-0.854,0.951-0.524,1.787
	c0.33,0.835,1.263,2,1.476,2.738c0.214,0.738-0.291,1.049-1.592,1.029c-1.302-0.019-3.4-0.369-5.382-0.505s-3.845-0.058-6.021,0.039
	c-2.175,0.097-4.661,0.214-6.546,0.505c-1.884,0.291-3.166,0.758-4.332,1.32c-1.165,0.564-2.214,1.225-3.34,1.729
	c-1.127,0.505-2.332,0.854-3.438,1.146c-1.107,0.292-2.117,0.525-2.973,0.039c-0.854-0.485-1.554-1.689-2.272-2.408
	s-1.456-0.952-1.981-0.738c-0.524,0.214-0.835,0.874-0.641,1.612s0.894,1.554,1.34,2.253c0.447,0.7,0.642,1.282,0.272,1.826
	s-1.302,1.049-3.38,2.428c-2.079,1.379-5.304,3.633-7.519,4.409c-2.214,0.777-3.418,0.078-3.632-1.185s0.563-3.089,0.446-5.4
	c-0.116-2.311-1.126-5.108-3.302-5.847c-2.176-0.737-5.517,0.583-6.915,2.836c-1.398,2.254-0.854,5.439,0.155,7.343
	c1.01,1.904,2.486,2.525,3.36,3.264c0.874,0.737,1.146,1.593,0.389,2.39c-0.758,0.796-2.545,1.534-5.226,3.029
	c-2.681,1.496-6.254,3.749-8.799,5.73s-4.06,3.69-5.478,5.012c-1.418,1.32-2.739,2.253-4.177,3.594
	c-1.438,1.34-2.991,3.088-4.914,5.71c-1.924,2.623-4.216,6.119-6.14,9.771c-1.923,3.652-3.477,7.459-4.098,8.313
	c-0.622,0.855-0.311-1.243-0.583-4.312c-0.271-3.069-1.127-7.109-2.603-8.314c-1.477-1.204-3.574,0.428-4.002,2.409
	c-0.427,1.981,0.816,4.313,0.699,6.099c-0.116,1.788-1.593,3.03-1.593,4.118s1.477,2.021,2.137,3.303
	c0.661,1.282,0.505,2.913-0.232,4.429c-0.738,1.515-2.06,2.914-4.118,3.146c-2.06,0.233-4.856-0.699-7.148-0.894
	s-4.079,0.35-5.595-0.077c-1.515-0.428-2.758-1.826-3.535-1.904c-0.777-0.077-1.088,1.166-1.864,2.06
	c-0.777,0.894-2.021,1.438-3.963,1.709c-1.942,0.272-4.584,0.272-5.517-0.505s-0.155-2.331-0.854-3.146
	c-0.699-0.816-2.875-0.894-4.507,0.116s-2.719,3.108-4.117,4.157c-1.399,1.049-3.108,1.049-4.546,1.243s-2.604,0.583-3.613,1.243
	s-1.865,1.593-2.37,1.787s-0.66-0.351-1.049-0.933c-0.389-0.583-1.01-1.204-15.851-15.423
	c-14.84-14.219-43.899-42.035-58.546-56.021c-14.646-13.985-14.879-14.141-16.511-14.18c-1.631-0.039-4.661,0.039-20.667-0.077
	c-16.006-0.117-44.988-0.428-59.44-0.622s-14.374-0.271-14.335-0.505s0.039-0.622,0.428-1.942c0.388-1.321,1.165-3.574,1.554-5.4
	s0.389-3.225,0.233-4.156c-0.156-0.933-0.467-1.398-2.564-3.924s-5.983-7.109-7.925-9.402c-1.942-2.292-1.942-2.292-3.496-1.126
	c-1.554,1.165-4.662,3.496-6.333,4.662c-1.671,1.165-1.903,1.165-2.098,1.165c-0.195,0-0.35,0-0.272-1.671
	c0.077-1.67,0.388-5.011,0.543-6.682s0.155-1.671-2.486-2.02c-2.642-0.351-7.925-1.05-16.084-1.633
	c-8.158-0.582-19.191-1.049-29.72-1.32c-10.528-0.272-20.551-0.35-26.99-0.368C228.369,308.22,225.515,308.261,220.98,308.202z"/>
</svg>
