<?xml version="1.0" encoding="utf-8"?>
<!-- Generator: Adobe Illustrator 15.1.0, SVG Export Plug-In . SVG Version: 6.00 Build 0)  -->
<!DOCTYPE svg PUBLIC "-//W3C//DTD SVG 1.1//EN" "http://www.w3.org/Graphics/SVG/1.1/DTD/svg11.dtd">
<svg version="1.1" id="Layer_1" xmlns="http://www.w3.org/2000/svg" xmlns:xlink="http://www.w3.org/1999/xlink" x="0px" y="0px"
	 width="612px" height="792px" viewBox="0 0 612 792" enable-background="new 0 0 612 792" xml:space="preserve">
<path fill-rule="evenodd" clip-rule="evenodd" stroke="#000000" stroke-width="2.9999" stroke-linecap="round" stroke-linejoin="round" stroke-miterlimit="22.9256" d="
	M229.916,139.96c3.768-2.089,9.256-5.121,11.837-8.849c2.581-3.728,2.253-8.151,3.4-10.855c1.146-2.704,3.769-3.687,7.496-5.734
	c3.728-2.048,8.561-5.162,12.493-10.077c3.933-4.916,6.964-11.634,9.217-17.941c2.253-6.309,3.728-12.207,6.267-17.86
	c2.54-5.653,6.145-11.06,11.716-16.59s13.108-11.183,17.245-13.845c4.137-2.663,4.874-2.335,11.469,1.843
	c6.596,4.178,19.048,12.207,35.064,22.693c16.017,10.486,35.597,23.43,58.699,37.563c23.103,14.132,49.729,29.452,63.532,37.111
	c13.805,7.66,14.788,7.66,15.033,8.643c0.246,0.983-0.245,2.949-1.557,9.667c-1.311,6.718-3.44,18.188-5.406,24.988
	c-1.967,6.8-3.769,8.929-5.735,11.469c-1.966,2.54-4.096,5.489-5.57,8.274c-1.475,2.785-2.294,5.407-3.113,9.012
	s-1.639,8.192-2.376,12.207c-0.737,4.014-1.393,7.455-3.687,10.568c-2.294,3.113-6.227,5.898-10.896,7.865
	c-4.67,1.966-10.077,3.113-14.419,4.587c-4.342,1.475-7.618,3.277-9.257,5.735c-1.639,2.458-1.639,5.571-2.253,7.66
	s-1.844,3.154-2.13,5.325c-0.287,2.17,0.368,5.448-0.41,7.66c-0.778,2.211-2.99,3.358-4.629,4.792
	c-1.639,1.434-2.703,3.154-3.522,5.98c-0.819,2.826-1.393,6.758-1.762,10.036c-0.368,3.276-0.532,5.898-0.082,7.864
	c0.451,1.966,1.516,3.277,3.4,3.4c1.884,0.123,4.588-0.942,6.595-1.475c2.007-0.533,3.317-0.533,4.424-0.492
	s2.008,0.123,3.892-0.041c1.885-0.164,4.752-0.573,6.759,0c2.008,0.573,3.154,2.13,3.604,3.768c0.451,1.639,0.205,3.359,1.598,4.138
	c1.393,0.778,4.424,0.614,5.898,1.761s1.393,3.604,1.761,5.325c0.369,1.72,1.188,2.703,3.604,3.318
	c2.417,0.614,6.432,0.86,9.627,1.434c3.194,0.573,5.57,1.475,6.964,3.113c1.393,1.638,1.802,4.014,2.825,6.39
	c1.024,2.376,2.663,4.751,2.417,8.397c-0.245,3.646-2.375,8.561-3.153,12.043c-0.779,3.481-0.205,5.53,0.122,7.579
	c0.328,2.048,0.41,4.096-0.45,6.062c-0.86,1.966-2.663,3.851-3.646,6.267c-0.983,2.417-1.147,5.367-1.229,8.111
	c-0.082,2.745-0.082,5.284-0.041,7.537s0.123,4.219-0.245,6.145c-0.369,1.925-1.188,3.809-1.844,5.244
	c-0.655,1.434-1.147,2.416-1.229,4.219c-0.082,1.802,0.245,4.424,0.081,6.513c-0.163,2.09-0.818,3.646-2.212,4.793
	c-1.393,1.146-3.522,1.884-4.833,3.481s-1.803,4.056-1.639,6.432s0.983,4.67,0.696,6.144c-0.286,1.476-1.68,2.131-3.358,2.418
	c-1.68,0.286-3.646,0.204-4.916,1.884c-1.27,1.679-1.844,5.12-1.926,8.069s0.328,5.407-0.286,6.84
	c-0.615,1.434-2.253,1.844-3.523,2.376c-1.27,0.533-2.171,1.188-2.13,2.58c0.041,1.394,1.023,3.523,1.884,5.325
	c0.86,1.803,1.598,3.277,1.229,4.22c-0.369,0.942-1.844,1.352-4.097,1.844c-2.252,0.491-5.284,1.064-6.39,2.048
	s-0.287,2.376,2.13,3.277c2.417,0.9,6.431,1.311,8.971,2.294c2.54,0.982,3.604,2.539,3.072,4.014s-2.662,2.867-4.834,3.563
	c-2.171,0.697-4.383,0.697-5.284,1.926c-0.9,1.229-0.491,3.687,0.451,5.407c0.941,1.721,2.416,2.703,2.621,3.81
	c0.205,1.105-0.859,2.334-2.089,3.194c-1.229,0.86-2.621,1.353-3.358,3.195c-0.738,1.844-0.819,5.038-1.803,7.005
	c-0.983,1.966-2.867,2.703-3.933,4.26s-1.311,3.933-0.573,6.596c0.737,2.662,2.457,5.61,3.481,7.822
	c1.024,2.213,1.352,3.688,0.819,4.793c-0.532,1.106-1.925,1.844-3.113,2.417c-1.188,0.573-2.171,0.983-2.458,1.926
	c-0.286,0.941,0.123,2.416,0.574,3.687c0.45,1.27,0.941,2.334,0.696,3.481c-0.246,1.147-1.229,2.376-2.499,3.317
	c-1.27,0.942-2.826,1.598-3.604,2.704s-0.778,2.663-2.376,3.072s-4.793-0.328-6.636,0.778c-1.844,1.105-2.335,4.056-2.622,6.021
	c-0.286,1.966-0.368,2.949-1.679,3.318c-1.312,0.368-3.851,0.122-5.653,0.45s-2.867,1.229-3.031,2.294
	c-0.163,1.064,0.573,2.294,0.942,3.769s0.369,3.194-0.041,4.751c-0.409,1.558-1.229,2.949-1.598,4.302
	c-0.369,1.352-0.287,2.662,0.245,4.526c0.533,1.863,1.517,4.28,1.659,6.082c0.144,1.803-0.553,2.99-2.376,3.544
	c-1.822,0.553-4.772,0.471-7.517,0.286c-2.744-0.184-5.284-0.471-6.526,0.23c-1.241,0.701-1.185,2.391-0.488,3.455
	c0.697,1.065,2.033,1.506,4.77,1.727c2.737,0.221,6.874,0.221,9.926,0.855s5.018,1.904,6.349,3.277
	c1.332,1.372,2.028,2.847,2.213,4.525c0.184,1.68-0.144,3.564-1.905,4.711c-1.761,1.147-4.956,1.557-7.496,2.171
	s-4.424,1.434-6.309,3.81c-1.884,2.376-3.768,6.309-6.595,9.544c-2.826,3.236-6.595,5.776-10.035,7.62
	c-3.441,1.843-6.555,2.989-8.849,3.522c-2.294,0.532-3.769,0.45-5.693,1.393c-1.926,0.942-4.302,2.908-8.644,6.882
	c-4.342,3.973-10.65,9.954-15.853,15.319c-5.202,5.366-9.298,10.118-13.518,16.672c-4.219,6.555-8.561,14.91-12.001,22.529
	s-5.98,14.501-8.807,20.604c-2.826,6.104-5.939,11.429-7.742,15.524c-1.802,4.097-2.294,6.964-4.383,8.521
	c-2.089,1.557-5.776,1.802-7.824,3.031c-2.048,1.229-2.458,3.44-3.441,5.202c-0.983,1.762-2.54,3.072-4.711,3.974
	c-2.171,0.901-4.956,1.393-9.38,1.966s-10.486,1.229-13.23-0.696c-2.745-1.926-2.171-6.432-1.557-11.224
	c0.614-4.793,1.27-9.872,3.564-14.46c2.293-4.588,6.226-8.684,8.889-12.862c2.663-4.178,4.055-8.438,4.833-12.084
	s0.942-6.677,0.942-8.562c0-1.884-0.164-2.621-0.819-3.932c-0.655-1.312-1.802-3.195-3.85-5.325s-4.998-4.506-9.217-5.366
	c-4.219-0.86-9.708-0.205-13.108-0.819c-3.4-0.614-4.711-2.499-5.94-3.851s-2.375-2.171-5.611-2.458
	c-3.236-0.286-8.562-0.041-11.429,1.311c-2.868,1.353-3.277,3.811-4.547,5.571c-1.27,1.762-3.4,2.827-5.12,2.376
	c-1.721-0.45-3.032-2.417-3.687-4.097c-0.655-1.679-0.655-3.071-1.065-5.202c-0.41-2.13-1.229-4.997-2.622-6.636
	s-3.358-2.048-4.177-3.031c-0.819-0.983-0.492-2.539-1.638-3.399c-1.147-0.86-3.769-1.024-5.366-2.417
	c-1.598-1.394-2.171-4.015-3.4-6.104c-1.229-2.09-3.113-3.646-4.342-3.236c-1.229,0.41-1.803,2.785-3.236,3.522
	c-1.434,0.737-3.728-0.163-5.53-2.621c-1.803-2.458-3.113-6.473-4.424-9.053c-1.311-2.581-2.622-3.728-4.505-4.137
	c-1.885-0.41-4.342-0.082-6.021-0.942c-1.68-0.86-2.581-2.908-3.728-5.08c-1.147-2.171-2.54-4.465-4.506-5.693
	c-1.966-1.229-4.506-1.393-6.308-2.458c-1.802-1.064-2.867-3.031-3.154-4.997c-0.286-1.967,0.205-3.933-1.188-5.98
	c-1.393-2.049-4.67-4.179-8.725-6.841c-4.055-2.663-8.889-5.857-11.305-7.455c-2.417-1.598-2.417-1.598-1.884-2.663
	c0.533-1.064,1.598-3.194,1.722-4.956c0.123-1.762-0.696-3.154-0.123-4.096c0.574-0.942,2.54-1.434,3.359-2.991
	c0.819-1.556,0.492-4.178,1.147-6.39s2.294-4.014,3.154-5.53c0.86-1.516,0.942-2.744,0.082-3.687
	c-0.86-0.941-2.663-1.598-4.71-3.195c-2.048-1.597-4.342-4.137-5.53-6.717c-1.188-2.581-1.27-5.203-0.451-6.964
	c0.819-1.762,2.54-2.663,4.629-3.933c2.089-1.27,4.547-2.908,5.407-4.629c0.86-1.721,0.123-3.522,0.041-5.202
	c-0.082-1.68,0.492-3.236,1.803-4.342c1.311-1.106,3.358-1.762,5.079-3.482c1.721-1.72,3.113-4.506,3.892-7.578
	c0.778-3.071,0.942-6.431,2.663-8.971c1.72-2.539,4.998-4.26,7.23-6.308c2.232-2.049,3.42-4.425,5.121-7.005
	c1.7-2.581,3.912-5.366,6.779-6.882s6.39-1.762,10.241-2.294c3.85-0.532,8.028-1.352,11.961-2.007
	c3.932-0.655,7.619-1.147,10.773-3.032c3.154-1.884,5.776-5.161,8.152-6.636s4.505-1.146,6.431-0.941
	c1.925,0.205,3.646,0.287,4.998-1.024c1.352-1.311,2.334-4.014,3.932-6.964c1.598-2.949,3.81-6.145,6.677-8.93
	s6.39-5.161,8.766-7.046c2.375-1.884,3.604-3.276,4.014-5.161c0.41-1.884,0-4.26,0.123-5.939c0.123-1.68,0.778-2.662,1.802-3.194
	c1.024-0.533,2.417-0.614,4.26-1.844c1.843-1.229,4.137-3.604,6.636-5.202c2.498-1.598,5.202-2.417,7.783-3.318
	c2.581-0.9,5.038-1.884,6.718-3.236c1.68-1.352,2.581-3.071,3.933-3.932c1.352-0.86,3.154-0.86,5.243-1.312
	c2.089-0.45,4.465-1.352,6.267-2.007s3.031-1.064,4.096-2.007s1.966-2.417,2.54-3.769c0.573-1.353,0.819-2.581,1.618-3.913
	c0.799-1.331,2.15-2.765,4.219-3.993s4.854-2.253,6.452-1.966c1.598,0.287,2.007,1.884,2.786,2.724s1.925,0.922,3.318,0.103
	s3.031-2.539,3.645-4.567c0.615-2.027,0.205-4.362-0.409-5.96s-1.434-2.458-1.495-3.543c-0.062-1.085,0.635-2.396-0.532-3.359
	c-1.167-0.962-4.199-1.577-6.042-3.011c-1.844-1.434-2.499-3.687-4.199-5.653c-1.7-1.966-4.445-3.646-6.268-4.997
	c-1.823-1.352-2.724-2.376-4.096-3.994c-1.372-1.618-3.215-3.829-4.73-5.651c-1.516-1.823-2.703-3.256-3.933-4.116
	c-1.229-0.86-2.499-1.147-3.42-2.314c-0.922-1.168-1.496-3.216-2.581-4.937c-1.085-1.72-2.683-3.113-4.547-4.219
	c-1.864-1.106-3.994-1.925-5.407-2.806c-1.414-0.881-2.11-1.823-2.499-3.871c-0.389-2.048-0.471-5.203-0.942-6.964
	c-0.472-1.762-1.332-2.13-1.557-2.847c-0.226-0.717,0.184-1.782-0.328-2.929c-0.512-1.147-1.946-2.375-3.646-3.502
	c-1.7-1.126-3.667-2.15-5.039-2.683c-1.373-0.533-2.151-0.573-3.38-0.205c-1.229,0.368-2.908,1.146-4.424,0.819
	s-2.867-1.761-3.769-2.601c-0.901-0.84-1.352-1.086-1.331-1.987c0.021-0.901,0.513-2.457-0.061-3.521
	c-0.574-1.065-2.212-1.638-2.99-3.113s-0.696-3.851-0.287-5.817s1.147-3.522,1.065-5.816s-0.983-5.325-1.106-7.619
	c-0.123-2.294,0.533-3.851,0.533-5.407s-0.656-3.113-1.884-5.038c-1.229-1.926-3.031-4.22-4.588-4.67
	c-1.557-0.451-2.868,0.942-3.892,0.614c-1.024-0.328-1.761-2.376-3.031-3.359s-3.072-0.901-5.161-0.369
	c-2.089,0.533-4.465,1.516-5.735,1.434c-1.27-0.082-1.434-1.229-2.253-2.048s-2.293-1.311-2.867-2.212
	c-0.574-0.901-0.246-2.211,0.245-3.809c0.492-1.598,1.147-3.482,1.065-4.998s-0.901-2.663-1.475-3.892
	c-0.573-1.229-0.901-2.54-1.72-4.301s-2.13-3.973-2.457-5.652c-0.328-1.68,0.328-2.826,1.188-3.851
	c0.86-1.024,1.925-1.925,2.293-3.646c0.369-1.721,0.041-4.26,0.451-6.063c0.41-1.803,1.557-2.867,1.597-5.161
	c0.041-2.294-1.024-5.817-1.024-8.274c0-2.458,1.065-3.851,2.048-5.121s1.884-2.417,2.909-3.563c1.024-1.147,2.17-2.294,3.072-2.294
	s1.557,1.147,2.786,1.638c1.229,0.492,3.031,0.328,4.588-0.901c1.557-1.229,2.867-3.523,4.342-5.571
	c1.475-2.049,3.113-3.851,4.097-5.489c0.983-1.639,1.311-3.113,0.614-4.751c-0.697-1.639-2.417-3.441-2.294-4.342
	c0.123-0.901,2.09-0.901,3.728-1.024c1.639-0.123,2.949-0.369,3.604-1.68c0.655-1.311,0.655-3.687-0.123-5.407
	c-0.778-1.72-2.334-2.785-3.44-4.587c-1.106-1.802-1.761-4.342-2.253-6.595c-0.491-2.252-0.818-4.218-1.597-6.225
	c-0.778-2.007-2.007-4.056-3.072-5.899c-1.065-1.843-1.966-3.482-3.4-4.916s-3.4-2.663-4.015-3.687
	c-0.614-1.024,0.123-1.844,1.516-3.154c1.393-1.311,3.441-3.113,5.488-4.588C224.102,143.197,226.147,142.05,229.916,139.96z"/>
</svg>
