<?xml version="1.0" encoding="utf-8"?>
<!-- Generator: Adobe Illustrator 15.1.0, SVG Export Plug-In . SVG Version: 6.00 Build 0)  -->
<!DOCTYPE svg PUBLIC "-//W3C//DTD SVG 1.1//EN" "http://www.w3.org/Graphics/SVG/1.1/DTD/svg11.dtd">
<svg version="1.1" id="Layer_1" xmlns="http://www.w3.org/2000/svg" xmlns:xlink="http://www.w3.org/1999/xlink" x="0px" y="0px"
	 width="612px" height="792px" viewBox="0 0 612 792" enable-background="new 0 0 612 792" xml:space="preserve">
<path fill-rule="evenodd" clip-rule="evenodd" stroke="#000000" stroke-width="2.9999" stroke-linecap="round" stroke-linejoin="round" stroke-miterlimit="22.9256" d="
	M494.757,590.427c2.321,0.161,5.843-0.64,8.163-1.84s3.441-2.801,6.242-5.042c2.801-2.24,7.282-5.122,10.964-6.563
	c3.681-1.439,6.562-1.439,8.963-1.359c2.4,0.079,4.321,0.24,5.762-0.24s2.401-1.601,4.481-2.241c2.081-0.64,5.282-0.8,7.603-0.64
	c2.321,0.159,3.762,0.64,4.121-0.24c0.36-0.881-0.359-3.121-0.56-4.922s0.12-3.161,0.997-4.361s2.311-2.241,3.027-3.802
	c0.716-1.561,0.716-3.642-0.041-4.922c-0.756-1.28-2.27-1.76-4.308-2.08c-2.037-0.32-4.598-0.48-6.078-1.16
	c-1.48-0.681-1.881-1.881-1.04-3.481c0.84-1.601,2.921-3.601,4.161-5.602s1.641-4.002,0.08-6.563s-5.082-5.682-6.603-7.963
	s-1.04-3.721,0.881-5.521s5.282-3.962,6.962-5.963c1.681-2,1.681-3.841,1.561-5.842c-0.12-2-0.36-4.161-0.04-46.936
	s1.2-126.163,1.42-204.04c0.221-77.876-0.22-150.241-0.44-186.423c-0.22-36.182-0.22-36.182-0.62-36.182s-1.2,0-35.212,0
	s-101.234,0-151.051,0c-49.817,0-82.228,0-98.474,0s-16.326,0-17.006,0.53c-0.68,0.53-1.961,1.59-5.562,3.841
	c-3.602,2.25-9.523,5.692-16.726,9.053c-7.203,3.361-15.686,6.643-22.408,8.883s-11.684,3.441-16.406,3.881
	c-4.722,0.44-9.203,0.12-13.925-0.88c-4.721-1-9.683-2.681-11.324-4.201s0.04-2.881,0-3.961s-1.801-1.881-3.321-1.801
	s-2.801,1.041-4.041,1.161c-1.241,0.12-2.441-0.601-4.361-2.281c-1.921-1.681-4.562-4.322-5.882-5.282
	c-1.32-0.96-1.32-0.24-1.32,11.724c0,11.964,0,35.172-0.12,106.316s-0.361,190.225-0.481,249.764
	c-0.12,59.541-0.12,59.541-1.041,59.301c-0.921-0.24-2.762-0.721-4.603-0.24c-1.841,0.48-3.682,1.921-4.682,3.321
	c-1,1.4-1.16,2.761-0.84,3.241c0.32,0.479,1.12,0.08,1.24,1c0.12,0.921-0.44,3.161-0.28,4.962c0.16,1.801,1.04,3.161,2.041,3.801
	c1,0.641,2.121,0.561,2.641,1.561c0.52,1.001,0.44,3.081-0.08,5.002c-0.52,1.921-1.48,3.682-3.481,4.962
	c-2,1.28-5.042,2.081-5.962,3.001c-0.92,0.92,0.28,1.961,0.32,2.681c0.04,0.721-1.08,1.12-1.96,2.001s-1.521,2.24-1.241,3.641
	c0.28,1.401,1.48,2.842,2.601,3.682s2.161,1.08,2.601,1.961s0.28,2.4,1.2,3.201c0.92,0.8,2.921,0.88,4.202,1.601
	c1.28,0.72,1.84,2.08,1.76,3.121c-0.08,1.04-0.8,1.76-0.64,2.641c0.16,0.88,1.2,1.921,1.44,3.121s-0.32,2.561-0.64,3.602
	c-0.32,1.04-0.4,1.76,0.6,2.4c1,0.64,3.081,1.2,4.762,2.121c1.681,0.92,2.961,2.2,3.441,3.801c0.48,1.601,0.16,3.521-0.2,5.042
	c-0.36,1.521-0.76,2.641-1.4,3.841c-0.64,1.201-1.521,2.48-1.921,3.642c-0.4,1.16-0.32,2.201-0.52,2.881
	c-0.2,0.681-0.68,1-0.48,1.48s1.08,1.12,1.76,2.081c0.681,0.96,1.161,2.24,1.161,3.641s-0.48,2.922,0.44,4.042
	c0.92,1.12,3.241,1.841,3.881,3.201s-0.4,3.361-0.92,5.041c-0.52,1.681-0.52,3.041-1.08,5.082c-0.561,2.041-1.68,4.762-3.441,6.401
	c-1.76,1.641-4.161,2.201-6.362,2.841c-2.201,0.641-4.201,1.361-5.321,3.241c-1.121,1.881-1.361,4.922-1.081,7.443
	c0.28,2.521,1.08,4.521,0.76,5.361c-0.32,0.841-1.761,0.521-2.841,0.761s-1.8,1.04-2.641,2.561s-1.801,3.761-1.761,5.802
	s1.081,3.882,1.361,5.322c0.28,1.44-0.2,2.48-1.081,2.521c-0.88,0.04-2.16-0.92-3.161-0.72s-1.721,1.56-2.801,2.4
	c-1.08,0.841-2.521,1.16-3.961,1.44c-1.441,0.28-2.881,0.521-3.641,1.16c-0.761,0.641-0.841,1.681-0.4,2.401
	c0.44,0.72,1.4,1.12,2,1.8c0.601,0.681,0.84,1.641,0.44,2.922c-0.4,1.28-1.44,2.881-2.681,4.921
	c-1.24,2.041-2.681,4.521-4.281,5.962c-1.601,1.441-3.361,1.841-4.842,3.121c-1.48,1.281-2.681,3.441-3.241,5.643
	c-0.561,2.2-0.48,4.441-1,5.882s-1.641,2.081-2.561,1.601s-1.641-2.081-2.561-3.281s-2.041-2.001-2.681-1.44
	c-0.641,0.561-0.8,2.48-1.28,3.842c-0.48,1.36-1.281,2.16-2.001,2.08s-1.36-1.04-2.361-2.08c-1-1.041-2.361-2.161-2.961-1.921
	s-0.44,1.841-0.24,3.161c0.2,1.32,0.44,2.36,0.2,3.521c-0.24,1.16-0.96,2.44-1.841,2.2c-0.88-0.24-1.92-2-2.521-1.761
	c-0.6,0.24-0.76,2.48-0.84,4.801c-0.08,2.321-0.08,4.722,0.92,6.563s3.001,3.121,4.762,3.922c1.761,0.8,3.281,1.12,3.321,2.32
	c0.04,1.2-1.4,3.281-2.961,3.961c-1.561,0.681-3.241-0.039-4.201,0.601c-0.96,0.641-1.201,2.641-2.281,3.481
	c-1.081,0.84-3.001,0.521-4.082,1.601s-1.321,3.562-0.2,4.001c1.121,0.44,3.601-1.16,5.922-1.32c2.32-0.16,4.481,1.12,4.241,2.641
	c-0.24,1.521-2.881,3.281-5.442,3.802c-2.561,0.521-5.042-0.2-6.522,0.16s-1.961,1.801-1.561,2.921s1.68,1.92,2.36,2.641
	c0.681,0.721,0.761,1.36,0.521,2.441c-0.24,1.08-0.8,2.601-0.68,4.081s0.92,2.921,0.84,4.081c-0.081,1.161-1.041,2.041-1.44,3.041
	c-0.4,1.001-0.24,2.121-1.041,2.161s-2.561-1-4.064-1.36s-2.75-0.04-3.373,1.641c-0.624,1.681-0.624,4.722,0.12,7.202
	c0.743,2.481,2.229,4.401,3.533,5.722c1.303,1.321,2.423,2.041,2.543,2.881c0.121,0.841-0.76,1.801-2.48,1.921
	s-4.282-0.6-5.402-0.04c-1.121,0.561-0.8,2.401,0.28,4.241c1.081,1.841,2.92,3.682,4.841,4.002c1.92,0.319,3.921-0.881,5.762-0.331
	c1.84,0.551,3.521,2.851,5.682,4.001s4.802,1.15,6.362,0.32s2.041-2.49,3.281-4.321c1.24-1.83,3.241-3.831,3.481-6.071
	c0.24-2.241-1.28-4.722-2.481-6.362c-1.2-1.641-2.081-2.44-2.081-3.881s0.88-3.521,1.92-5.002c1.041-1.48,2.241-2.361,3.602-2.562
	c1.36-0.199,2.881,0.28,4.722,1.801c1.84,1.521,4.001,4.082,5.602,5.563c1.601,1.48,2.641,1.88,4.121,1.561
	c1.48-0.32,3.401-1.36,5.202-2.001c1.801-0.64,3.481-0.88,5.162-1c1.68-0.12,3.361-0.12,4.761-0.44
	c1.401-0.32,2.521-0.96,3.082-0.521c0.56,0.44,0.56,1.961-0.12,3.602c-0.681,1.641-2.041,3.4-2.001,5.202
	c0.04,1.8,1.48,3.641,3.281,4.562c1.801,0.92,3.961,0.92,5.922,0c1.961-0.921,3.721-2.762,4.882-4.282s1.721-2.721,1.601-4.001
	s-0.92-2.641-2.001-4.281c-1.08-1.641-2.44-3.562-2.721-5.202s0.52-3.001,1.44-4.401s1.96-2.841,2.801-2.921
	c0.84-0.08,1.48,1.2,2.521,2.881c1.04,1.681,2.48,3.762,4.162,5.002c1.681,1.24,3.601,1.641,5.401,1.16
	c1.801-0.48,3.481-1.841,6.042-2.801c2.561-0.961,6.002-1.521,8.723-1.2c2.721,0.32,4.722,1.521,7.442,2.841
	c2.721,1.32,6.162,2.761,9.203,4.441s5.682,3.602,7.523,5.042c1.84,1.44,2.881,2.4,4.162,3.12c1.28,0.721,2.801,1.201,4.282,1.561
	c1.48,0.36,2.92,0.601,3.841,1.44c0.92,0.841,1.32,2.281,1.96,4.122c0.64,1.84,1.521,4.081,2.921,5.201s3.321,1.12,4.842,0.601
	c1.521-0.521,2.641-1.561,4.001-3.121c1.36-1.561,2.96-3.642,3.881-5.603c0.921-1.96,1.161-3.801,1.361-5.802s0.36-4.161,0.64-5.962
	s0.68-3.241,3.081-4.682c2.4-1.44,6.802-2.881,9.604-3.321c2.8-0.439,4.001,0.12,5.802-0.92s4.202-3.682,6.642-5.563
	c2.441-1.88,4.921-3,7.083-2.96c2.161,0.039,4.001,1.24,5.562,3.561c1.56,2.321,2.841,5.762,3.921,8.242
	c1.081,2.481,1.961,4.002,3.202,4.922c1.24,0.921,2.841,1.241,4.562,0.28c1.72-0.96,3.561-3.2,4.881-3.561s2.121,1.16,1.961,3.161
	c-0.16,2-1.281,4.481-1.16,6.482c0.12,2,1.48,3.521,3.201,4.121c1.72,0.6,3.801,0.279,5.442-1.081s2.841-3.761,3.041-6.162
	c0.2-2.4-0.601-4.801,0-6.122c0.6-1.32,2.601-1.561,5.002-1.4c2.4,0.16,5.202,0.721,6.762,0.24c1.561-0.48,1.881-2,1.561-3.44
	c-0.32-1.441-1.281-2.802-1.961-4.643c-0.68-1.84-1.08-4.161-1.2-6.202c-0.12-2.04,0.04-3.801,0.72-5.241
	c0.68-1.44,1.88-2.562,3.681-3.201c1.801-0.641,4.202-0.8,6.002-1.921c1.8-1.12,3-3.201,3-4.521s-1.2-1.881-2.28-2.641
	c-1.081-0.761-2.041-1.721-2-2.721c0.04-1.001,1.08-2.041,2.121-2.401c1.04-0.359,2.08-0.04,3.161,1
	c1.08,1.041,2.201,2.801,3.281,2.641c1.081-0.159,2.121-2.24,3.562-3.32c1.44-1.081,3.281-1.161,4.922-1.201s3.081-0.04,3.681-1
	c0.601-0.961,0.36-2.881-0.8-3.802c-1.161-0.92-3.241-0.84-4.762-1.681c-1.521-0.84-2.48-2.601-2.32-4.281
	c0.159-1.681,1.44-3.28,3.28-3.04c1.841,0.239,4.241,2.32,6.602,4.161c2.361,1.841,4.683,3.44,5.603,4.961
	c0.921,1.521,0.44,2.961-0.04,5.002c-0.479,2.041-0.96,4.682-1,7.002c-0.04,2.321,0.36,4.322,1.36,5.963
	c1.001,1.641,2.601,2.921,4.642,4.201s4.521,2.561,6.963,3.121c2.44,0.56,4.842,0.4,6.722,0.28c1.881-0.12,3.241-0.2,4.682,0.36
	c1.44,0.56,2.961,1.76,4.241,3.521c1.281,1.761,2.321,4.082,3.481,5.722c1.161,1.641,2.441,2.601,3.161,2.001
	c0.721-0.601,0.881-2.761,1.521-4.401c0.641-1.641,1.761-2.761,3.761-3.441c2.001-0.68,4.883-0.92,6.883-1.36
	c2.001-0.44,3.121-1.08,4.002-2.04c0.88-0.961,1.52-2.241,2.28-4.122s1.641-4.361,2.161-6.923c0.52-2.561,0.68-5.201,0.84-8.202
	s0.32-6.362,0.921-8.923c0.6-2.561,1.64-4.321,3.12-6.082s3.401-3.521,4.302-5.082s0.779-2.921,1.14-4.341
	c0.359-1.421,1.199-2.9,2.48-3.981c1.28-1.08,3-1.761,4.681-1.881s3.321,0.32,4.242,0.98c0.92,0.66,1.12,1.54,2.281,1.801
	c1.16,0.26,3.28-0.101,6.161-2.021c2.882-1.921,6.522-5.402,8.523-8.463c2.001-3.062,2.36-5.702,2.801-8.363
	c0.439-2.661,0.96-5.342,2.301-7.723c1.34-2.381,3.501-4.462,6.262-5.342c2.761-0.881,6.122-0.561,8.443-1.48
	c2.32-0.921,3.601-3.081,5.001-4.962s2.921-3.481,4.762-4.882s4.001-2.601,5.122-4.321c1.12-1.721,1.2-3.962,0.76-5.882
	c-0.44-1.921-1.4-3.521-1.96-5.361c-0.561-1.841-0.721-3.922-0.801-6.123c-0.08-2.2-0.08-4.521-0.8-6.242
	c-0.721-1.721-2.161-2.841-2.521-4.361c-0.359-1.521,0.36-3.441,1.48-4.802s2.641-2.161,4.241-2.121
	c1.601,0.041,3.28,0.921,5.121,1.041c1.841,0.119,3.841-0.521,6.082-1.241c2.24-0.72,4.722-1.521,6.763-1.6
	c2.04-0.081,3.641,0.56,5.441,1.76s3.802,2.962,5.362,4.402S492.436,590.267,494.757,590.427z"/>
</svg>
