<?xml version="1.0" encoding="utf-8"?>
<!-- Generator: Adobe Illustrator 15.1.0, SVG Export Plug-In . SVG Version: 6.00 Build 0)  -->
<!DOCTYPE svg PUBLIC "-//W3C//DTD SVG 1.1//EN" "http://www.w3.org/Graphics/SVG/1.1/DTD/svg11.dtd">
<svg version="1.1" id="Layer_1" xmlns="http://www.w3.org/2000/svg" xmlns:xlink="http://www.w3.org/1999/xlink" x="0px" y="0px"
	 width="792px" height="612px" viewBox="0 0 792 612" enable-background="new 0 0 792 612" xml:space="preserve">
<path fill-rule="evenodd" clip-rule="evenodd" stroke="#000000" stroke-width="2.9999" stroke-linecap="round" stroke-linejoin="round" stroke-miterlimit="22.9256" d="
	M557.797,468.493c0.243-0.014,0.55-0.035,0.731,0.082c0.183,0.118,0.239,0.375,0.524,1.288c0.286,0.914,0.8,2.484,1.484,3.726
	c0.686,1.242,1.542,2.155,2.826,2.754c1.285,0.6,2.997,0.886,4.61,1.385c1.613,0.5,3.125,1.213,4.795,2.155s3.495,2.112,5.722,3.097
	c2.226,0.985,4.852,1.784,6.907,2.526s3.54,1.428,5.139,1.941c1.598,0.514,3.311,0.856,5.194,2.397s3.939,4.282,6.28,5.652
	s4.967,1.37,7.308,0.342c2.341-1.027,4.396-3.083,5.651-5.48c1.257-2.397,1.714-5.138,2.912-6.394s3.14-1.027,5.252-0.399
	s4.396,1.655,7.536,2.112c3.14,0.456,7.137,0.342,9.478-0.229c2.341-0.571,3.025-1.599,3.939-1.37
	c0.913,0.229,2.055,1.712,3.653,1.712s3.653-1.483,5.195-1.655c1.541-0.171,2.568,0.971,3.996,0.971s3.254-1.142,4.51-1.941
	c1.257-0.799,1.941-1.256,2.969-1.198c1.028,0.057,2.398,0.628,3.825,0.57c1.428-0.057,2.912-0.742,4.511-0.686
	c1.599,0.058,3.311,0.856,4.738,1.542c1.428,0.685,2.569,1.256,3.197,2.512s0.742,3.197,1.655,4.054s2.626,0.628,3.653,1.256
	c1.028,0.628,1.37,2.112,2.854,2.626c1.484,0.515,4.111,0.058,6.224-0.114c2.112-0.171,3.71-0.057,5.195,0.229
	c1.484,0.286,2.854,0.742,3.739,1.941c0.885,1.199,1.284,3.14,2.341,3.597s2.769-0.57,4.424-0.828
	c1.656-0.257,3.255,0.258,4.682,0.942c1.428,0.686,2.684,1.542,3.312,2.769c0.628,1.228,0.628,2.826,1.17,3.369
	c0.543,0.542,1.628,0.028,3.454-0.172c1.827-0.199,4.396-0.085,5.51,0.571s0.771,1.855,0.371,3.14
	c-0.399,1.285-0.856,2.655-0.686,3.568c0.172,0.914,0.971,1.37,2.141,2.227c1.171,0.856,2.713,2.112,3.712,3.226
	s1.455,2.084,1.684,2.912s0.229,1.513,0.628,2.368c0.399,0.857,1.199,1.885,2.313,2.027s2.54-0.6,3.796-0.999
	c1.257-0.399,2.341-0.457,3.254,0.285c0.914,0.742,1.656,2.284,2.97,3.055c1.313,0.771,3.197,0.771,4.71,0.086
	c1.513-0.686,2.654-2.056,2.711-3.169c0.058-1.113-0.97-1.97-1.969-2.056c-0.999-0.085-1.97,0.6-2.655-0.285
	c-0.685-0.885-1.085-3.34-1.456-5.595s-0.713-4.311-1.256-6.023c-0.542-1.713-1.284-3.082-2.769-4.311
	c-1.484-1.227-3.711-2.312-5.51-3.511c-1.798-1.198-3.168-2.512-4.024-4.025c-0.856-1.513-1.198-3.225-1.228-4.652
	c-0.028-1.428,0.257-2.569,1.113-3.996c0.856-1.428,2.284-3.141,3.14-4.511c0.856-1.37,1.143-2.397,1.627-3.226
	c0.485-0.827,1.171-1.455,1.542-2.683s0.428-3.055,0.457-4.481c0.028-1.428,0.028-2.455,1.056-3.797
	c1.028-1.342,3.083-2.997,3.911-4.909c0.828-1.913,0.429-4.083-0.343-5.767c-0.771-1.685-1.912-2.883-1.513-4.367
	s2.341-3.255,3.283-4.739c0.941-1.483,0.885-2.683,1.17-3.511c0.285-0.827,0.914-1.284,1.228-2.227s0.313-2.369-0.314-3.283
	c-0.628-0.913-1.884-1.313-2.54-2.883c-0.656-1.569-0.714-4.31-1.284-5.681c-0.571-1.369-1.656-1.369-3.397-1.598
	s-4.139-0.686-4.995-1.456s-0.171-1.855-0.542-2.854s-1.799-1.913-2.085-2.598c-0.285-0.686,0.571-1.142,1.827-1.656
	c1.257-0.514,2.912-1.084,3.568-2.54s0.314-3.797,0.058-5.88c-0.257-2.084-0.429-3.911-1.313-5.225
	c-0.885-1.313-2.483-2.112-3.739-2.911c-1.256-0.8-2.169-1.599-2.341-2.455c-0.171-0.856,0.399-1.77,0.6-3.026
	c0.2-1.255,0.028-2.854,0.171-3.567c0.144-0.714,0.6-0.542,2.569-0.561s5.452-0.227,7.365-0.341c1.912-0.114,2.255-0.135,2.34-0.659
	c0.086-0.523-0.085-1.551-0.342-6.604s-0.6-14.13-1.734-37.479c-1.135-23.351-3.062-60.973-4.539-92.458
	c-1.477-31.485-2.505-56.833-3.247-71.849c-0.742-15.015-1.199-19.696-2.056-23.007s-2.112-5.252-4.51-7.022
	c-2.397-1.77-5.938-3.368-8.85-4.282c-2.911-0.914-5.194-1.142-6.722-1.813s-2.298-1.784-3.597-4.082s-3.126-5.78-5.01-8.563
	s-3.825-4.867-5.024-6.337c-1.198-1.47-1.655-2.327-2.083-3.055c-0.429-0.728-0.828-1.328-0.856-1.969
	c-0.029-0.643,0.313-1.327,0.742-2.041c0.428-0.714,0.941-1.456,1.712-2.483c0.771-1.028,1.799-2.34,3.483-3.768
	c1.684-1.427,4.024-2.969,5.994-4.31c1.97-1.342,3.567-2.484,4.367-3.997s0.8-3.397,1.77-5.167c0.971-1.77,2.912-3.425,4.14-4.481
	c1.227-1.056,1.741-1.513,1.998-2.369s0.257-2.112,0.175-4.317c-0.081-2.206-0.244-5.359-0.33-7.015
	c-0.085-1.656-0.094-1.813-0.233-1.934c-0.14-0.122-0.41-0.208-0.91-0.257c-0.499-0.05-1.228-0.064-3.004,0.007
	c-1.777,0.071-4.604,0.229-7.272,0.364c-2.669,0.135-5.181,0.25-11.161,0.478c-5.98,0.228-15.428,0.57-24.92,0.842
	c-9.491,0.271-19.025,0.471-40.619,1.17c-21.595,0.7-55.249,1.898-97.311,2.498c-42.061,0.6-92.528,0.6-143.225,0.257
	c-50.696-0.342-101.621-1.027-148.549-2.055c-46.928-1.027-89.86-2.397-120.988-3.362c-31.129-0.964-50.454-1.523-60.181-1.804
	c-9.727-0.281-9.856-0.285-10.005-0.289c-0.15-0.004-0.321-0.009-0.471-0.014s-0.278-0.008-0.335,0.461s-0.043,1.411-0.078,4.551
	c-0.036,3.14-0.121,8.478-1.02,27.189c-0.899,18.711-2.612,50.796-4.496,86.364c-1.884,35.567-3.939,74.617-6.023,117.606
	c-2.084,42.989-4.197,89.917-5.264,113.624c-1.067,23.707-1.089,24.192-1.107,24.592c-0.018,0.399-0.032,0.714-0.049,1.099
	c-0.018,0.386-0.038,0.842,0.508,1.07s1.66,0.229,7.24,0.429c5.581,0.199,15.628,0.6,21.965,0.842
	c6.337,0.243,8.963,0.328,36.624,1.398c27.661,1.07,80.355,3.126,119.376,4.325c39.021,1.198,64.369,1.541,97.824,1.826
	c33.455,0.286,75.017,0.514,115.893,0.285c40.877-0.229,81.068-0.913,101.254-1.259
	C557.376,468.515,557.555,468.508,557.797,468.493z"/>
</svg>
