<?xml version="1.0" encoding="utf-8"?>
<!-- Generator: Adobe Illustrator 15.1.0, SVG Export Plug-In . SVG Version: 6.00 Build 0)  -->
<!DOCTYPE svg PUBLIC "-//W3C//DTD SVG 1.1//EN" "http://www.w3.org/Graphics/SVG/1.1/DTD/svg11.dtd">
<svg version="1.1" id="Layer_1" xmlns="http://www.w3.org/2000/svg" xmlns:xlink="http://www.w3.org/1999/xlink" x="0px" y="0px"
	 width="792px" height="612px" viewBox="0 0 792 612" enable-background="new 0 0 792 612" xml:space="preserve">
<path fill-rule="evenodd" clip-rule="evenodd" stroke="#000000" stroke-width="2.9999" stroke-linecap="round" stroke-linejoin="round" stroke-miterlimit="22.9256" d="
	M397.546,482.806c1.787-0.877,4.433-1.438,6.637-2.36c2.205-0.922,3.969-2.205,5.973-3.247s4.249-1.844,6.413-1.804
	s4.249,0.922,5.893,2.045c1.643,1.122,2.846,2.484,4.208,3.086c1.363,0.602,2.886,0.44,6.774-0.16
	c3.888-0.602,10.141-1.644,13.988-2.164c3.849-0.521,5.291-0.521,6.133-1.203s1.082-2.044,2.245-3.086
	c1.162-1.043,3.246-1.764,5.451-2.165c2.204-0.4,4.529-0.481,6.533-1.282c2.004-0.802,3.688-2.325,6.052-3.047
	c2.365-0.721,5.412-0.641,7.536-1.122c2.125-0.48,3.327-1.522,6.694-1.924c3.366-0.4,8.897-0.16,11.984-0.521
	c3.086-0.361,3.728-1.322,4.971-2.846c1.242-1.523,3.086-3.607,4.81-4.089s3.327,0.642,4.77,1.082c1.443,0.441,2.726,0.2,4.489-0.32
	c1.764-0.521,4.009-1.323,6.253-1.684c2.245-0.36,4.489-0.28,6.975-0.521c2.485-0.24,5.211-0.801,7.615-0.601
	c2.405,0.2,4.489,1.162,7.576,1.002c3.086-0.16,7.175-1.443,10.221-3.007c3.046-1.563,5.051-3.406,6.173-4.368
	s1.362-1.042,2.285-1.083c0.922-0.04,2.524-0.04,10.461-0.079c7.937-0.041,22.206-0.121,53.279-0.041s78.95,0.321,102.889,0.4
	c23.938,0.08,23.938,0,23.608-0.28c-0.33-0.28-0.99-0.762-1.521-1.684s-0.931-2.284-1.331-3.366
	c-0.401-1.083-0.802-1.885-1.403-2.285c-0.602-0.401-1.402-0.401-1.924-0.802s-0.762-1.202-0.521-1.844
	c0.241-0.642,0.962-1.122,1.644-2.245c0.682-1.122,1.323-2.886,1.964-4.208c0.642-1.323,1.283-2.205,1.003-2.886
	c-0.281-0.682-1.483-1.163-2.285-1.885s-1.202-1.683-1.163-2.524c0.041-0.842,0.521-1.563,0.401-2.525s-0.842-2.164-1.443-3.046
	c-0.601-0.883-1.082-1.443-1.322-2.165c-0.241-0.722-0.241-1.604-0.642-2.204c-0.4-0.602-1.202-0.923-1.724-1.483
	c-0.521-0.562-0.761-1.363-1.282-2.044c-0.521-0.682-1.322-1.243-1.964-1.885c-0.642-0.641-1.122-1.362-0.882-2.004
	c0.24-0.641,1.202-1.202,1.804-2.004c0.601-0.802,0.841-1.844,0.802-2.686c-0.04-0.842-0.361-1.483-0.521-2.124
	c-0.16-0.642-0.16-1.283-0.2-2.525c-0.04-1.243-0.121-3.087-0.061-46.637s0.262-128.806,0.452-174.63s0.371-52.218,0.401-55.455
	c0.03-3.237-0.09-3.317-0.291-3.357c-0.2-0.04-0.48-0.04-9.9-0.06c-9.419-0.02-27.978-0.06-92.972-0.08
	c-64.994-0.02-176.424-0.019-254.324-0.079c-77.901-0.06-122.272-0.18-144.578-0.24c-22.306-0.061-22.547-0.061-22.947,0.3
	c-0.401,0.361-0.961,1.082-0.801,2.004s1.042,2.044,0.241,2.505c-0.802,0.461-3.287,0.26-4.609,0.922
	c-1.323,0.662-1.483,2.184-0.541,2.986c0.942,0.802,2.986,0.882,3.267,1.463c0.28,0.581-1.203,1.663-1.423,2.545
	c-0.22,0.882,0.822,1.563,2.345,2.626c1.523,1.062,3.527,2.504,4.45,3.868c0.921,1.363,0.762,2.645,1.523,3.407
	c0.762,0.762,2.445,1.002,3.347,1.704c0.902,0.701,1.022,1.863,0.801,2.685c-0.22,0.822-0.781,1.303-2.104,1.463
	c-1.323,0.161-3.407,0-4.008,1.002c-0.601,1.002,0.281,3.167,2.265,5.051c1.984,1.884,5.07,3.487,6.714,3.487
	c1.643,0,1.844-1.603,1.804-3.447c-0.04-1.844-0.321-3.928,1.262-5.151c1.583-1.222,5.031-1.583,6.935-1.323
	c1.904,0.26,2.265,1.143,1.924,1.904c-0.341,0.761-1.383,1.402-1.844,2.345c-0.461,0.942-0.34,2.184-0.04,3.086
	c0.3,0.902,0.781,1.463,1.924,2.585c1.142,1.123,2.946,2.806,4.008,4.549c1.062,1.744,1.382,3.547,0.24,4.108
	c-1.143,0.562-3.748-0.12-5.512-0.26s-2.685,0.26-2.645,1.022s1.042,1.884,1.924,2.806s1.643,1.644,2.305,2.806
	c0.662,1.162,1.223,2.766,0.822,3.808c-0.401,1.042-1.764,1.523-3.126,1.082c-1.363-0.44-2.726-1.804-4.269-3.848
	c-1.543-2.044-3.267-4.77-4.75-6.053s-2.726-1.122-4.229-1.764c-1.503-0.641-3.267-2.084-4.509-1.663
	c-1.243,0.42-1.964,2.706-1.944,4.108s0.781,1.924,1.884,1.944c1.102,0.02,2.545-0.461,3.066-0.06s0.12,1.684-0.762,2.726
	s-2.244,1.844-2.766,3.126c-0.521,1.283-0.201,3.046,0.601,4.128c0.802,1.082,2.084,1.483,2.926,2.565s1.242,2.846,0.822,5.171
	c-0.421,2.325-1.664,5.21-3.688,8.016c-2.024,2.806-4.831,5.532-5.091,8.257s2.024,5.451,3.949,6.974
	c1.924,1.523,3.487,1.843,5.311,2.044c1.824,0.201,3.908,0.281,4.589,1.644c0.681,1.363-0.04,4.008-0.161,6.494
	c-0.12,2.485,0.361,4.81,1.143,6.513c0.781,1.704,1.863,2.786,3.487,3.667s3.788,1.563,5.391,1.583s2.645-0.621,3.347,0.401
	c0.701,1.022,1.062,3.708,2.205,5.311c1.142,1.603,3.066,2.124,4.609,1.623c1.543-0.501,2.705-2.024,3.026-4.188
	c0.321-2.165-0.2-4.971-1.303-6.754c-1.102-1.784-2.786-2.545-4.489-4.108c-1.704-1.563-3.427-3.929-4.91-5.011
	c-1.483-1.082-2.725-0.882-3.467-0.2s-0.982,1.844-1.864,2.084c-0.882,0.24-2.405-0.441-2.846-1.824s0.201-3.467-0.14-5.672
	s-1.664-4.529-3.106-6.133s-3.006-2.485-4.068-3.367c-1.063-0.882-1.624-1.764-1.483-2.726c0.14-0.962,0.981-2.004,2.946-2.505
	s5.051-0.461,6.955-0.742c1.904-0.28,2.625-0.881,2.826-1.884c0.2-1.002-0.12-2.405-1.042-3.467
	c-0.922-1.063-2.445-1.784-3.347-3.046c-0.902-1.263-1.183-3.066-0.882-4.109c0.301-1.042,1.183-1.323,2.445-0.862
	s2.906,1.663,4.369,2.886c1.463,1.223,2.745,2.465,4.709,3.587c1.964,1.123,4.609,2.125,6.353,3.146
	c1.744,1.022,2.585,2.064,2.445,3.227c-0.141,1.163-1.263,2.445-3.447,2.746c-2.184,0.301-5.432-0.38-7.836,0.021
	c-2.405,0.4-3.968,1.883-4.469,3.367c-0.501,1.483,0.06,2.966,1.878,5.516c1.818,2.551,4.895,6.168,7.02,7.952
	s3.297,1.734,3.73,1.17c0.433-0.563,0.127-1.641-0.409-2.848c-0.536-1.208-1.303-2.545-1.971-4.171
	c-0.669-1.626-1.24-3.54-0.243-4.617c0.997-1.078,3.563-1.318,4.765-0.576c1.202,0.741,1.042,2.464,0.961,4.068
	c-0.08,1.604-0.08,3.086,0.542,4.75c0.621,1.663,1.863,3.507,3.567,5.13c1.703,1.624,3.868,3.026,5.912,3.568
	c2.044,0.541,3.968,0.22,5.17,0.781c1.203,0.562,1.684,2.004,1.002,2.786c-0.682,0.781-2.525,0.901-3.327,1.543
	s-0.562,1.804-0.947,2.901c-0.386,1.097-1.398,2.129-2.705,3.126c-1.308,0.997-2.911,1.958-4.113,3.522s-2.004,3.728-2.846,5.571
	c-0.842,1.844-1.724,3.367-2.686,4.53s-2.004,1.964-2.124,3.327c-0.121,1.363,0.681,3.287,1.042,4.77
	c0.361,1.483,0.28,2.525-0.361,3.768c-0.642,1.243-1.844,2.686-2.625,3.888c-0.782,1.202-1.143,2.165-0.682,3.126
	s1.744,1.924,3.247,2.626c1.503,0.701,3.226,1.142,4.208,2.024c0.982,0.882,1.222,2.204,1.813,3.507
	c0.591,1.302,1.533,2.585,2.475,3.938c0.942,1.353,1.884,2.776,1.654,3.948c-0.231,1.172-1.634,2.094-2.836,1.423
	c-1.202-0.671-2.204-2.936-3.207-4.73c-1.002-1.793-2.004-3.116-2.846-3.877c-0.842-0.762-1.523-0.962-2.265-0.461
	c-0.742,0.5-1.543,1.703-1.624,2.725c-0.08,1.022,0.562,1.864,0.922,2.686c0.361,0.821,0.441,1.623,0.822,2.505
	c0.38,0.882,1.062,1.843,1.482,2.946c0.421,1.102,0.581,2.345,0.962,3.447c0.38,1.102,0.982,2.063,1.653,2.846
	c0.671,0.781,1.414,1.383,1.805,2.205c0.391,0.822,0.431,1.864,0.491,2.946c0.06,1.082,0.141,2.205-0.681,2.866
	c-0.822,0.661-2.545,0.861-4.128,1.342c-1.583,0.481-3.026,1.243-3.928,1.904c-0.902,0.661-1.263,1.223-0.902,1.764
	c0.361,0.541,1.443,1.062,2.024,1.643c0.581,0.582,0.661,1.223,0.401,1.804c-0.261,0.581-0.862,1.102-1.403,1.503
	c-0.542,0.4-1.022,0.682-1.944,0.28c-0.922-0.4-2.285-1.482-3.347-2.185c-1.063-0.702-1.824-1.022-2.686-0.601
	c-0.862,0.421-1.824,1.583-2.625,3.006s-1.443,3.106-2.185,4.689c-0.742,1.584-1.583,3.066-2.746,4.59s-2.646,3.086-3.948,4.93
	s-2.425,3.969-3.908,4.689c-1.483,0.722-3.327,0.041-4.99-0.901s-3.146-2.145-4.429-3.607s-2.365-3.187-3.046-3.587
	c-0.682-0.401-0.962,0.521-0.882,1.883c0.08,1.363,0.521,3.167,0.481,4.188c-0.041,1.022-0.562,1.263-1.123,0.902
	c-0.562-0.36-1.163-1.322-1.804-2.485c-0.642-1.162-1.323-2.525-1.884-2.745c-0.562-0.221-1.002,0.701-1.102,2.064
	c-0.101,1.362,0.14,3.166-0.041,4.85s-0.782,3.247-1.824,4.189c-1.042,0.942-2.525,1.263-3.387,0.221
	c-0.862-1.042-1.103-3.447-2.125-4.009c-1.022-0.561-2.826,0.722-4.149,1.563s-2.164,1.243-2.525,0.781
	c-0.361-0.461-0.241-1.783,0.782-3.105c1.022-1.323,2.946-2.646,4.128-3.789c1.183-1.142,1.623-2.104,1.142-2.425
	c-0.481-0.32-1.884,0-3.507,0.301c-1.624,0.301-3.467,0.581-5.071,0.201c-1.604-0.381-2.966-1.423-2.505-2.245
	c0.461-0.821,2.745-1.423,4.609-1.804c1.864-0.381,3.307-0.541,4.229-0.882s1.323-0.861,0.221-1.243
	c-1.103-0.38-3.708-0.62-5.952-0.881c-2.245-0.261-4.129-0.541-4.049-1.965c0.08-1.423,2.125-3.988,3.548-4.649
	c1.422-0.661,2.225,0.581,3.146,1.544c0.922,0.962,1.964,1.643,3.367,1.603s3.167-0.802,4.75-0.06
	c1.583,0.741,2.986,2.986,4.229,3.768s2.325,0.101,2.204-1.123c-0.12-1.223-1.442-2.985-1.923-4.77
	c-0.481-1.783-0.121-3.587,0.742-5.852c0.861-2.265,2.224-4.99,3.748-6.674c1.523-1.684,3.207-2.325,4.088-1.723
	c0.882,0.601,0.962,2.445,0.32,4.369c-0.641,1.924-2.004,3.928-2.585,6.032c-0.581,2.104-0.381,4.309,0.461,6.032
	s2.325,2.967,3.627,2.946c1.303-0.02,2.425-1.303,2.565-2.605c0.14-1.303-0.701-2.625-0.662-4.389
	c0.04-1.764,0.962-3.968,2.305-6.233c1.343-2.265,3.106-4.589,4.609-5.752c1.503-1.162,2.745-1.162,2.866-0.221
	c0.12,0.942-0.882,2.826-1.864,4.369c-0.982,1.543-1.944,2.746-2.104,3.948c-0.161,1.203,0.48,2.405,1.563,3.146
	c1.082,0.742,2.605,1.022,3.928,0.662c1.323-0.361,2.445-1.363,3.268-2.064c0.821-0.702,1.342-1.103,1.322-1.944
	c-0.021-0.842-0.581-2.125-0.2-3.227c0.381-1.103,1.703-2.024,2.064-3.327s-0.241-2.986-0.12-4.991
	c0.12-2.004,0.962-4.329,1.864-6.353c0.902-2.024,1.864-3.748,2.044-4.79c0.18-1.042-0.421-1.403-1.082-2.525
	c-0.662-1.123-1.383-3.006-2.966-3.106c-1.583-0.101-4.028,1.583-5.832,2.525c-1.804,0.942-2.966,1.143-3.106,0.682
	c-0.141-0.461,0.741-1.583,1.163-2.325c0.42-0.742,0.38-1.103-0.782-1.604c-1.163-0.501-3.447-1.143-4.489-2.585
	s-0.842-3.688,0.16-4.469c1.002-0.782,2.806-0.101,4.088,0.742c1.283,0.841,2.044,1.844,2.786,1.784
	c0.741-0.061,1.463-1.183,1.323-2.425c-0.141-1.243-1.143-2.605-2.245-4.83c-1.102-2.225-2.304-5.312-1.623-6.173
	c0.682-0.862,3.247,0.501,4.87,0.161c1.624-0.341,2.304-2.385,3.688-3.006c1.383-0.621,3.467,0.181,5.071,0.341
	c1.603,0.16,2.725-0.32,3.006-1.062c0.28-0.742-0.28-1.744-0.922-3.046c-0.641-1.303-1.363-2.906-1.764-4.85
	s-0.48-4.229-1.222-6.072c-0.742-1.844-2.145-3.247-3.367-3.728c-1.223-0.481-2.265-0.04-2.545,1.002
	c-0.281,1.042,0.2,2.686,0.701,4.208c0.501,1.523,1.022,2.926,0.822,3.607c-0.201,0.682-1.122,0.642-1.703,0.181
	c-0.582-0.461-0.822-1.343-1.664-1.222c-0.842,0.12-2.285,1.242-4.168,2.666c-1.884,1.423-4.209,3.146-5.933,5.21
	s-2.846,4.469-3.327,6.434c-0.481,1.964-0.321,3.486-0.361,4.589c-0.04,1.102-0.28,1.784-1.723,2.425s-4.088,1.243-6.924,2.746
	c-2.836,1.503-5.862,3.908-8.336,6.394c-2.475,2.485-4.399,5.05-6.123,7.255c-1.724,2.204-3.247,4.048-4.529,6.092
	c-1.283,2.044-2.325,4.289-1.764,5.371s2.726,1.002,5.732-0.521c3.006-1.523,6.854-4.489,9.66-5.772
	c2.806-1.283,4.569-0.882,4.369,0.04s-2.365,2.365-4.81,4.129c-2.445,1.763-5.171,3.848-9.219,5.411
	c-4.049,1.563-9.42,2.605-11.985,2.004c-2.565-0.602-2.325-2.846-1.042-5.812c1.282-2.966,3.607-6.654,5.09-8.979
	c1.483-2.325,2.124-3.287,2.766-4.97c0.641-1.684,1.283-4.088,2.525-6.093c1.243-2.004,3.086-3.607,5.09-4.93
	s4.169-2.365,5.612-4.048c1.443-1.684,2.165-4.009,2.926-5.572c0.761-1.563,1.563-2.365,1.122-3.447s-2.125-2.445-2.525-3.908
	c-0.4-1.463,0.481-3.026,1.904-4.128c1.423-1.103,3.387-1.744,4.329-1.143s0.862,2.445,0.862,4.088s0.08,3.086,0.04,4.81
	c-0.04,1.723-0.2,3.728,0.241,4.229s1.483-0.501,2.084-1.884c0.602-1.383,0.762-3.146,1.203-4.77c0.44-1.624,1.162-3.106,2.545-4.75
	s3.427-3.447,5.251-4.63c1.823-1.182,3.427-1.743,4.229-2.444c0.801-0.701,0.801-1.543,0.381-2.445
	c-0.421-0.902-1.263-1.864-1.784-2.966c-0.521-1.103-0.722-2.345-1.042-3.468c-0.321-1.122-0.761-2.124-1.443-2.986
	s-1.603-1.583-2.505-2.485c-0.902-0.902-1.783-1.984-2.886-3.287s-2.425-2.826-2.164-4.068c0.26-1.243,2.104-2.204,2.926-3.267
	c0.821-1.063,0.621-2.225-0.28-2.966c-0.902-0.742-2.506-1.063-4.189-0.782c-1.684,0.281-3.447,1.163-4.73,2.125
	c-1.283,0.962-2.084,2.004-2.505,2.946c-0.421,0.942-0.461,1.784,0.601,2.946c1.062,1.162,3.227,2.645,3.828,4.329
	c0.602,1.684-0.361,3.567-1.604,4.649c-1.242,1.083-2.765,1.363-3.687,1.183c-0.922-0.18-1.243-0.822-0.942-1.503
	c0.3-0.681,1.222-1.402,1.623-2.284s0.28-1.924-0.561-2.666c-0.842-0.742-2.405-1.183-3.227-2.124
	c-0.822-0.942-0.902-2.386-1.764-3.207c-0.862-0.822-2.505-1.022-3.828-0.962s-2.325,0.38-2.445,1.223
	c-0.12,0.841,0.641,2.204,1.022,3.567c0.381,1.363,0.381,2.725-0.121,3.347c-0.501,0.621-1.502,0.501-2.525-0.301
	c-1.022-0.802-2.064-2.285-2.646-3.728c-0.582-1.443-0.701-2.846-1.122-4.168s-1.143-2.565-2.205-3.447
	c-1.063-0.882-2.465-1.403-3.167-2.104c-0.702-0.702-0.702-1.583-1.143-2.004c-0.441-0.421-1.323-0.381-2.505,0.381
	c-1.183,0.761-2.665,2.244-3.828,3.146c-1.163,0.901-2.004,1.222-3.347,1.443c-1.343,0.22-3.186,0.34-4.509,0.541
	c-1.323,0.2-2.125,0.481-3.607,0.461s-3.647-0.341-5.291-0.461c-1.644-0.12-2.766-0.04-3.167-0.441s-0.08-1.282-0.601-1.724
	c-0.521-0.44-1.884-0.44-2.786-0.38c-0.902,0.06-1.343,0.18-1.944,0.32c-0.601,0.141-1.362,0.301-2.123-0.32
	c-0.761-0.621-1.523-2.024-2.344-2.444c-0.822-0.421-1.704,0.14-2.485,0.781c-0.782,0.642-1.463,1.363-2.726,1.724
	c-1.263,0.36-3.106,0.36-4.269-0.321c-1.162-0.682-1.644-2.044-2.686-2.585c-1.042-0.542-2.646-0.261-4.128,0.02
	c-1.483,0.281-2.846,0.562-4.79,0.722c-1.944,0.161-4.469,0.201-6.834,0.201c-2.365,0-4.569-0.04-6.935-0.221
	c-2.365-0.181-4.89-0.501-7.596-1.082c-2.706-0.582-5.592-1.423-7.736-2.445c-2.145-1.022-3.547-2.225-5.19-3.307
	s-3.527-2.044-5.291-2.946c-1.764-0.902-3.407-1.744-4.449-1.723c-1.042,0.02-1.483,0.901-2.405,0.881
	c-0.922-0.02-2.325-0.942-3.587-1.683c-1.263-0.742-2.385-1.303-3.547-1.583c-1.163-0.281-2.365-0.281-3.267-0.381
	s-1.503-0.301-3.227-1.263c-1.724-0.962-4.57-2.686-6.915-4.008s-4.188-2.245-5.712-2.746c-1.523-0.501-2.726-0.582-3.708-0.582
	s-1.744,0.081-2.245-0.26c-0.501-0.341-0.742-1.103-0.882-1.704c-0.14-0.602-0.181-1.042-0.762-1.303
	c-0.582-0.261-1.703-0.341-3.166-0.341c-1.463,0-3.267,0.08-4.45,0.461s-1.744,1.062-1.804,1.543s0.38,0.762,0.762,1.483
	c0.38,0.722,0.701,1.884,1.223,2.525c0.521,0.642,1.243,0.762,2.044,0.982c0.802,0.22,1.684,0.541,2.225,1.203
	c0.541,0.661,0.741,1.664,0.42,2.265c-0.321,0.602-1.162,0.802-1.604,1.163c-0.44,0.36-0.48,0.882-0.38,1.543
	c0.1,0.661,0.34,1.463,0.18,2.044c-0.16,0.581-0.721,0.941-1.322,1.182c-0.601,0.241-1.243,0.361-1.303,0.942
	c-0.06,0.582,0.461,1.624,0.842,2.445s0.621,1.423,0.421,2.125c-0.201,0.702-0.842,1.503-1.644,2.125
	c-0.802,0.621-1.764,1.062-2.345,1.462s-0.782,0.762-0.36,1.303c0.42,0.541,1.462,1.262,2.404,2.325
	c0.942,1.062,1.784,2.465,2.044,3.748c0.261,1.283-0.06,2.445-0.14,3.327c-0.08,0.881,0.08,1.483,0.361,1.944
	s0.681,0.782,0.962,1.644c0.28,0.861,0.44,2.264,0.521,3.687c0.081,1.423,0.081,2.866,0.501,4.148
	c0.42,1.283,1.262,2.405,1.904,3.527c0.641,1.122,1.082,2.245,1.423,3.307c0.341,1.062,0.581,2.064,1.563,2.646
	c0.982,0.581,2.706,0.741,3.828,1.262c1.122,0.521,1.644,1.403,2.265,2.265s1.343,1.704,2.425,2.225
	c1.082,0.521,2.525,0.721,3.207,1.744c0.682,1.022,0.601,2.866,1.203,4.088c0.601,1.223,1.883,1.824,2.986,2.625
	s2.024,1.804,2.545,2.906c0.521,1.102,0.642,2.305,0.802,3.487c0.161,1.182,0.361,2.345,0.962,3.828
	c0.602,1.483,1.604,3.287,2.425,6.052s1.463,6.494,1.944,10.121c0.481,3.627,0.802,7.154,1.183,9.88
	c0.381,2.726,0.821,4.649,1.123,5.872c0.3,1.223,0.46,1.744,1.042,2.044c0.581,0.301,1.583,0.381,2.164,1.142
	c0.581,0.762,0.742,2.205,1.363,3.107c0.621,0.902,1.703,1.262,2.465,1.944c0.762,0.681,1.202,1.684,1.824,3.628
	c0.621,1.943,1.423,4.83,2.084,9.038c0.662,4.209,1.183,9.74,1.443,13.688c0.26,3.948,0.26,6.313,0.22,8.538s-0.12,4.309,0.401,5.19
	s1.643,0.562,2.625,0.12c0.982-0.44,1.824-1.002,2.144-2.345c0.321-1.343,0.121-3.467-0.3-4.95s-1.063-2.325-0.682-3.287
	s1.784-2.044,3.627-2.345s4.129,0.181,5.712,0.722c1.583,0.541,2.465,1.143,2.505,2.024c0.04,0.882-0.762,2.044-0.561,3.006
	c0.2,0.962,1.402,1.724,3.287,2.024c1.884,0.301,4.449,0.141,7.175,0.06c2.726-0.08,5.611-0.08,7.155,0.301s1.744,1.143,0.822,1.804
	c-0.922,0.662-2.966,1.223-5.151,1.764s-4.509,1.063-6.273,1.443s-2.966,0.621-3.427,1.063c-0.461,0.44-0.181,1.082-0.542,1.542
	c-0.361,0.462-1.363,0.742-2.345,0.822c-0.982,0.08-1.944-0.04-2.234,0.531c-0.291,0.571,0.09,1.834-0.125,2.834
	s-1.024,1.736-1.689,1.384c-0.665-0.353-1.186-1.796-1.848-2.778c-0.662-0.981-1.463-1.503-2.505-1.604
	c-1.042-0.1-2.325,0.222-2.726,0.843s0.08,1.543,0.662,2.484c0.581,0.942,1.262,1.904,1.607,3.84
	c0.345,1.937,0.353,4.847,0.356,6.863c0.004,2.016,0.004,3.138,0.465,3.859c0.46,0.722,1.382,1.042,2.565,1.303
	s2.625,0.461,3.447,0.261s1.022-0.802,1.704-0.621c0.681,0.181,1.844,1.143,2.765,1.442c0.922,0.301,1.604-0.06,1.744-0.722
	c0.14-0.66-0.261-1.623,0.16-1.844c0.421-0.22,1.663,0.302,2.726,0.521c1.063,0.221,1.944,0.141,2.505-0.341
	c0.561-0.48,0.802-1.362,1.624-1.503s2.224,0.461,3.507,1.343s2.445,2.044,2.966,2.986c0.521,0.941,0.401,1.663-0.18,1.804
	c-0.582,0.141-1.624-0.301-3.126-0.221c-1.503,0.08-3.467,0.682-4.529,1.483c-1.063,0.802-1.223,1.804-0.762,2.945
	c0.461,1.143,1.543,2.426,2.205,3.407c0.661,0.982,0.901,1.664,0.24,1.704c-0.662,0.04-2.225-0.562-3.507-0.962
	c-1.283-0.401-2.285-0.602-2.705-0.281c-0.421,0.321-0.261,1.163,0.24,2.064c0.501,0.902,1.343,1.864,2.325,3.066
	c0.982,1.203,2.104,2.646,2.245,3.748c0.141,1.102-0.701,1.863-1.503,2.565c-0.802,0.701-1.563,1.343-1.984,2.244
	c-0.421,0.902-0.501,2.064-0.1,2.966c0.401,0.902,1.283,1.543,1.323,2.285c0.04,0.741-0.761,1.583-1.342,2.185
	c-0.582,0.602-0.942,0.962-1.083,1.764c-0.141,0.802-0.061,2.044-0.562,2.726s-1.583,0.802-2.325,0.4
	c-0.741-0.4-1.142-1.322-1.402-4.629c-0.261-3.308-0.381-8.999-0.922-12.767s-1.503-5.611-2.225-7.516s-1.203-3.868-2.044-4.79
	c-0.842-0.922-2.044-0.802-2.445,0.602c-0.401,1.402,0,4.088,0.241,9.319c0.24,5.23,0.321,13.007,0.461,17.596
	c0.14,4.59,0.341,5.992-0.18,7.135c-0.521,1.143-1.764,2.024-2.425,3.026c-0.662,1.002-0.742,2.124-0.161,3.006
	c0.581,0.882,1.824,1.523,3.006,1.684c1.182,0.16,2.305-0.16,2.766-0.862c0.461-0.701,0.26-1.783,0.501-2.825
	s0.922-2.044,2.084-2.185c1.163-0.141,2.806,0.581,4.57,2.024c1.764,1.442,3.647,3.607,5.151,4.83
	c1.503,1.223,2.625,1.503,4.128,0.842c1.503-0.662,3.387-2.265,4.629-2.726s1.844,0.22,2.726,0.34
	c0.882,0.121,2.044-0.32,3.567-1.223c1.523-0.901,3.407-2.264,4.469-2.625c1.062-0.36,1.303,0.281,1.403,1.143
	c0.1,0.861,0.06,1.944,0.821,2.605s2.325,0.901,4.309,0.941c1.984,0.04,4.389-0.12,6.554-0.381c2.164-0.26,4.088-0.621,5.511-0.581
	s2.345,0.481,3.948,1.664c1.603,1.182,3.888,3.106,5.992,5.17c2.104,2.064,4.028,4.269,5.632,5.411s2.886,1.223,4.669,0.602
	s4.068-1.944,6.233-2.826s4.208-1.322,6.754-0.821s5.592,1.943,7.937,3.366c2.345,1.424,3.988,2.826,5.331,3.948
	c1.343,1.122,2.385,1.965,3.587,2.245s2.565,0,3.567,0.14c1.002,0.141,1.643,0.702,1.964,1.764c0.321,1.063,0.321,2.626,0.782,4.089
	c0.46,1.463,1.382,2.826,2.665,4.47s2.926,3.567,3.387,5.491c0.46,1.924-0.261,3.848,0.22,5.41c0.481,1.563,2.164,2.767,2.485,4.209
	c0.321,1.443-0.721,3.127-0.681,4.69c0.04,1.563,1.162,3.006,1.924,5.01s1.162,4.569,1.042,6.613
	c-0.12,2.045-0.762,3.567,0.481,5.371s4.369,3.889,7.375,5.211c3.006,1.323,5.892,1.884,8.979,2.726s6.373,1.964,9.019,2.605
	c2.645,0.642,4.649,0.802,6.333,0.602s3.046-0.762,4.489-0.521c1.443,0.241,2.966,1.283,4.609,1.804
	c1.644,0.521,3.407,0.521,5.251,0.321c1.844-0.201,3.768-0.602,6.012-1.483s4.81-2.244,6.975-2.966s3.928-0.802,5.411-1.283
	c1.483-0.48,2.686-1.362,4.128-2.124s3.126-1.403,4.649-1.764c1.523-0.361,2.886-0.441,4.048-1.283
	c1.163-0.842,2.125-2.444,3.608-3.487c1.483-1.042,3.487-1.522,5.732-1.683c2.244-0.16,4.729-0.001,7.134,0.12
	c2.405,0.12,4.729,0.2,7.055-0.28c2.325-0.481,4.65-1.523,7.175-1.965c2.525-0.44,5.251-0.28,7.456,0.361
	c2.204,0.642,3.888,1.763,5.892,2.364c2.004,0.602,4.329,0.682,6.013,0.602c1.683-0.08,2.725-0.32,4.529-0.12
	c1.804,0.2,4.369,0.842,6.293,1.724c1.924,0.882,3.207,2.004,3.888,3.447c0.682,1.442,0.762,3.206,1.924,4.008
	c1.162,0.802,3.407,0.642,5.251-0.44c1.844-1.083,3.286-3.087,5.771-4.289c2.485-1.203,6.013-1.604,8.538-0.762
	c2.525,0.842,4.048,2.926,5.691,3.287c1.644,0.36,3.407-1.002,4.753-2.28S395.759,483.683,397.546,482.806L397.546,482.806z
	 M217.2,163.875c-0.662-0.872-1.863-0.952-2.746-0.671c-0.882,0.28-1.443,0.922-1.643,1.884c-0.201,0.962-0.041,2.245,0.12,3.708
	c0.16,1.463,0.32,3.107-0.161,4.079s-1.603,1.272-2.204,0.666c-0.601-0.606-0.682-2.119-0.922-3.412
	c-0.24-1.293-0.641-2.365-1.703-2.701c-1.063-0.336-2.786,0.065-3.587,0.776c-0.802,0.712-0.682,1.733-1.002,2.495
	s-1.082,1.263-1.423,2.035c-0.341,0.771-0.261,1.813-0.1,2.996c0.16,1.182,0.401,2.505,1.223,3.026
	c0.821,0.521,2.224,0.241,3.537,0.952c1.313,0.711,2.535,2.415,3.848,3.067c1.313,0.651,2.715,0.25,4.188-0.592
	s3.016-2.125,3.247-3.327c0.23-1.203-0.852-2.325-0.852-3.547s1.082-2.545,1.443-3.768c0.361-1.223,0-2.345-0.241-3.738
	C217.982,166.41,217.862,164.746,217.2,163.875L217.2,163.875z M178.921,155.708c1.423,0.641,2.745,1.604,3.186,2.786
	c0.441,1.182,0,2.585-0.962,3.507s-2.445,1.363-2.846,2.385c-0.401,1.022,0.281,2.625,1.363,4.329
	c1.083,1.704,2.565,3.507,5.111,5.051c2.545,1.543,6.153,2.826,8.979,3.327s4.87,0.22,5.09-0.642
	c0.221-0.861-1.383-2.304-2.184-3.808c-0.802-1.503-0.802-3.066-0.882-4.609c-0.081-1.543-0.241-3.066-1.363-3.968
	c-1.122-0.902-3.207-1.183-4.709-2.125c-1.503-0.942-2.425-2.545-2.986-4.208c-0.562-1.664-0.762-3.387-2.064-4.87
	c-1.303-1.483-3.708-2.726-5.472-3.167s-2.886-0.081-3.567,0.841c-0.681,0.922-0.922,2.405-0.28,3.307
	C175.975,154.746,177.498,155.066,178.921,155.708L178.921,155.708z M218.083,152.942c-1.383-1.042-4.47-2.245-6.915-3.447
	c-2.445-1.203-4.249-2.405-5.872-2.565c-1.624-0.16-3.066,0.722-4.83,1.884c-1.764,1.163-3.848,2.605-5.772,3.808
	s-3.688,2.165-4.028,3.447s0.741,2.886,2.125,3.146c1.382,0.26,3.066-0.822,4.91-0.241c1.844,0.582,3.848,2.826,6.033,3.708
	c2.184,0.881,4.549,0.401,5.07-0.702c0.521-1.103-0.802-2.826-0.642-3.808c0.16-0.982,1.804-1.223,3.106-0.942
	c1.303,0.281,2.265,1.083,3.467,0.922c1.203-0.16,2.646-1.283,3.527-2.285S219.465,153.984,218.083,152.942L218.083,152.942z
	 M225.092,214.951c-1.002-0.021-1.924,0.781-2.245,1.844c-0.321,1.062-0.04,2.384,0.742,3.988s2.064,3.487,2.926,3.848
	s1.303-0.802,1.523-2.385c0.22-1.583,0.22-3.587-0.321-5.011C227.176,215.813,226.094,214.971,225.092,214.951L225.092,214.951z
	 M238.407,260.263c-0.912,0.822-1.413,1.903-1.644,3.387c-0.23,1.483-0.19,3.367,0.021,4.73c0.21,1.363,0.591,2.204,1.543,2.735
	s2.475,0.751,3.728,0.642c1.252-0.11,2.235-0.551,2.625-1.343c0.391-0.792,0.19-1.935-0.05-3.307
	c-0.241-1.373-0.521-2.976-0.541-4.349c-0.02-1.373,0.22-2.515-0.09-3.216c-0.311-0.702-1.173-0.962-2.265-0.812
	S239.319,259.441,238.407,260.263L238.407,260.263z M241.523,300.385c0.501,0.48,1.583,0.521,2.865-0.201
	c1.283-0.722,2.766-2.205,3.869-3.968c1.102-1.764,1.824-3.808,1.603-6.033s-1.383-4.629-2.605-5.431s-2.505,0-3.367,1.703
	c-0.862,1.704-1.303,4.31-1.684,6.394c-0.381,2.084-0.701,3.647-0.902,4.89C241.102,298.982,241.022,299.904,241.523,300.385
	L241.523,300.385z M226.271,314.174c-1.002,0.24-2.004,1.322-2.946,2.425c-0.942,1.103-1.824,2.225-1.964,3.267
	c-0.141,1.042,0.46,2.004,1.763,2.185s3.307-0.421,4.449-1.703c1.142-1.283,1.423-3.247,1.062-4.53
	C228.276,314.534,227.273,313.934,226.271,314.174z"/>
</svg>
