<?xml version="1.0" encoding="utf-8"?>
<!-- Generator: Adobe Illustrator 15.1.0, SVG Export Plug-In . SVG Version: 6.00 Build 0)  -->
<!DOCTYPE svg PUBLIC "-//W3C//DTD SVG 1.1//EN" "http://www.w3.org/Graphics/SVG/1.1/DTD/svg11.dtd">
<svg version="1.1" id="Layer_1" xmlns="http://www.w3.org/2000/svg" xmlns:xlink="http://www.w3.org/1999/xlink" x="0px" y="0px"
	 width="792px" height="612px" viewBox="0 0 792 612" enable-background="new 0 0 792 612" xml:space="preserve">
<path fill-rule="evenodd" clip-rule="evenodd" stroke="#000000" stroke-width="2.9999" stroke-linecap="round" stroke-linejoin="round" stroke-miterlimit="22.9256" d="
	M483.019,149.639c1.222-1.682,3.093-4.19,4.845-5.644c1.752-1.453,3.385-1.852,5.733-1.592c2.35,0.259,5.415,1.174,6.988,1.313
	c1.572,0.139,1.652-0.497,1.493-2.568c-0.159-2.07-0.558-5.574-0.319-8.083c0.239-2.508,1.115-4.021,3.126-5.355
	s5.156-2.489,8.162-2.628c3.007-0.139,5.873,0.737,7.924,1.354c2.051,0.617,3.285,0.976,4.021,0.896s0.976-0.597,1.394-2.011
	c0.418-1.413,1.015-3.723,1.791-5.515c0.777-1.792,1.732-3.065,3.444-4.001c1.713-0.936,4.182-1.533,6.53-1.911
	c2.35-0.378,4.579-0.538,6.53-1.075c1.951-0.538,3.623-1.454,5.146-2.229c1.523-0.777,2.896-1.415,4.251-1.802
	c1.354-0.388,2.687-0.528,3.951-0.369c1.264,0.159,2.459,0.617,4.002,1.703c1.542,1.084,3.434,2.797,4.728,3.693
	c1.294,0.896,1.991,0.976,2.797,0.607c0.807-0.368,1.723-1.185,2.788-1.742c1.064-0.557,2.279-0.856,2.896-0.866
	c0.618-0.01,0.638,0.269,0.678,2.359c0.039,2.09,0.1,5.993-0.03,7.954s-0.448,1.981-1.374,1.951c-0.925-0.03-2.458-0.11-3.593,0.08
	c-1.135,0.189-1.872,0.647-2.737,0.896c-0.866,0.249-1.862,0.289-2.847-0.159c-0.986-0.448-1.961-1.384-2.867-1.712
	c-0.906-0.329-1.742-0.05-2.35,0.518s-0.985,1.424-0.646,2.26c0.338,0.836,1.394,1.652,2.638,2.081
	c1.244,0.428,2.678,0.468,3.533,0.727c0.856,0.259,1.135,0.736,1.822,1.174c0.687,0.438,1.781,0.836,2.747,1.065
	s1.802,0.289,2.419-0.189c0.617-0.478,1.016-1.493,1.622-2.14c0.607-0.647,1.424-0.926,2.2-0.637
	c0.776,0.288,1.514,1.145,1.951,2.319c0.438,1.175,0.577,2.668,1.9,5.753c1.324,3.085,3.833,7.764,5.126,10.701
	c1.294,2.936,1.374,4.13,0.896,4.788c-0.479,0.657-1.514,0.776-2.986,0.338c-1.474-0.438-3.385-1.433-5.177-2.787
	c-1.791-1.354-3.464-3.065-4.319-1.792c-0.856,1.274-0.896,5.534-0.816,8.063c0.079,2.528,0.278,3.325,1.194,3.464
	c0.916,0.139,2.548-0.378,4.718-0.777c2.17-0.398,4.878-0.677,6.929-0.498s3.444,0.816,3.225,1.732
	c-0.219,0.916-2.05,2.11-3.105,3.484c-1.055,1.374-1.334,2.926-0.558,4.141c0.776,1.214,2.608,2.09,4.102,2.389
	c1.493,0.298,2.647,0.02,3.324-0.995c0.677-1.016,0.876-2.767,1.911-3.624c1.036-0.856,2.907-0.816,3.843-0.219
	s0.936,1.751,0.657,2.907c-0.279,1.154-0.837,2.309-0.061,2.986c0.777,0.677,2.887,0.876,4.38,0.259
	c1.493-0.618,2.37-2.051,2.43-3.405s-0.697-2.627-0.996-3.981s-0.139-2.787,1.294-4.399c1.434-1.613,4.142-3.405,5.933-4.281
	c1.792-0.876,2.668-0.836,2.986,0.12s0.08,2.827,0.358,4.042c0.279,1.214,1.075,1.771,2.488,2.628
	c1.414,0.855,3.444,2.011,4.719,3.523c1.274,1.513,1.792,3.384,1.354,4.479c-0.438,1.095-1.831,1.413-3.563,2.229
	s-3.802,2.13-5.275,3.484c-1.474,1.354-2.35,2.747-3.066,4.698c-0.716,1.951-1.273,4.459-2.229,5.654
	c-0.956,1.195-2.31,1.075-3.206,0.378c-0.896-0.697-1.333-1.971-1.055-3.624c0.278-1.652,1.274-3.683,1.294-4.857
	c0.021-1.174-0.936-1.493-2.051-1.632c-1.114-0.14-2.389-0.1-3.146,0.896c-0.756,0.995-0.995,2.946-1.812,4.34
	s-2.21,2.23-3.544,2.847c-1.333,0.617-2.607,1.015-3.763,0.956c-1.154-0.06-2.189-0.577-3.304-0.358
	c-1.115,0.219-2.31,1.174-3.226,1.991c-0.916,0.816-1.553,1.493-2.568,1.513c-1.016,0.02-2.409-0.618-3.803-0.578
	c-1.394,0.04-2.787,0.756-4.838,1.473c-2.05,0.717-4.758,1.433-6.888,1.732c-2.13,0.298-3.683,0.179-5.415-0.1
	s-3.643-0.716-5.355-0.956c-1.712-0.239-3.225-0.278-4.2,0.239s-1.414,1.592-1.254,2.389c0.159,0.796,0.915,1.314,2.349,1.653
	c1.434,0.338,3.543,0.497,5.275,0.557c1.732,0.06,3.086,0.02,3.644,0.498s0.318,1.473-0.06,2.787
	c-0.379,1.314-0.896,2.946-0.617,3.703c0.278,0.756,1.354,0.637,2.628-0.199c1.273-0.836,2.747-2.389,4.141-2.608
	c1.394-0.219,2.708,0.896,3.285,2.329c0.577,1.434,0.418,3.185-0.937,4.221c-1.354,1.035-3.901,1.354-5.933,2.25
	c-2.03,0.896-3.544,2.369-4.798,2.986c-1.254,0.617-2.25,0.378-3.544,0.2c-1.294-0.18-2.886-0.299-3.623,0.736
	c-0.736,1.035-0.617,3.225,0.339,4.439c0.955,1.214,2.747,1.454,3.962,2.27c1.214,0.816,1.851,2.21,1.812,3.245
	c-0.04,1.035-0.757,1.712-1.573,1.812c-0.816,0.099-1.731-0.378-3.065-0.358c-1.334,0.02-3.086,0.537-3.843-0.259
	c-0.756-0.796-0.518-2.907-0.776-4.519c-0.259-1.613-1.015-2.728-2.09-2.648s-2.469,1.354-3.684,2.966
	c-1.214,1.612-2.249,3.563-2.27,5.017c-0.02,1.453,0.976,2.409,1.652,3.325s1.035,1.792,1.155,2.728
	c0.119,0.935,0,1.931,0.757,3.145c0.756,1.214,2.389,2.648,3.344,4.062c0.956,1.414,1.234,2.807,1.016,3.325
	c-0.22,0.518-0.936,0.159-2.25-0.498c-1.313-0.657-3.225-1.613-4.28-2.668c-1.055-1.055-1.254-2.21-2.08-3.524
	s-2.28-2.787-3.335-3.444c-1.055-0.658-1.712-0.498-2.08,0.199c-0.368,0.697-0.448,1.931,0.09,2.966
	c0.537,1.035,1.691,1.871,2.149,2.727c0.458,0.856,0.22,1.732-0.717,2.31c-0.936,0.577-2.567,0.856-3.882,0.179
	c-1.313-0.677-2.309-2.309-3.285-2.787c-0.975-0.478-1.931,0.199-2.668,1.016c-0.736,0.816-1.253,1.771-0.995,2.309
	c0.26,0.537,1.294,0.657,2.469,1.274s2.489,1.732,2.568,2.647c0.08,0.916-1.075,1.633-1.433,2.31
	c-0.359,0.677,0.079,1.313-0.25,1.951c-0.328,0.637-1.424,1.273-2.031,2.468c-0.607,1.194-0.727,2.946-0.049,3.832
	c0.677,0.886,2.149,0.906,2.746,0.229c0.598-0.677,0.319-2.051,0.827-2.867c0.507-0.816,1.802-1.075,2.976-1.642
	c1.175-0.568,2.23-1.443,3.195-1.513c0.966-0.07,1.842,0.667,2.24,1.453c0.397,0.787,0.318,1.623-0.361,2.283
	c-0.681,0.66-1.96,1.143-2.491,1.803c-0.53,0.66-0.312,1.496,0.269,2.339c0.581,0.843,1.522,1.693,2.322,2.188
	c0.799,0.495,1.456,0.634,2.183,0.406c0.727-0.229,1.522-0.827,2.498-1.454s2.131-1.284,2.977-1.324
	c0.847-0.04,1.384,0.538,1.454,1.285c0.069,0.747-0.329,1.662-1.285,2.767c-0.955,1.104-2.468,2.399-3.284,3.732
	c-0.816,1.334-0.937,2.708-0.26,3.613c0.677,0.905,2.15,1.343,2.966,1.055c0.816-0.289,0.976-1.304,1.265-2.508
	c0.289-1.205,0.706-2.598,1.283-2.887c0.578-0.289,1.314,0.528,1.763,1.404c0.448,0.875,0.607,1.812,0.855,2.329
	c0.249,0.518,0.588,0.617,0.946,0.478s0.736-0.518,0.896-1.414c0.159-0.896,0.1-2.31,0.567-3.514c0.468-1.205,1.463-2.2,2.25-2.588
	c0.786-0.388,1.363-0.169,1.683,0.527c0.318,0.697,0.378,1.872,1.194,2.27c0.815,0.398,2.389,0.02,3.623-0.458
	c1.234-0.478,2.13-1.055,1.692-1.941c-0.438-0.886-2.21-2.08-3.205-3.116c-0.996-1.035-1.215-1.911-1.374-2.897
	c-0.159-0.985-0.259-2.08-1.016-2.568s-2.17-0.369-3.404,0.199c-1.234,0.567-2.289,1.583-3.314,1.792s-2.021-0.388-1.861-1.722
	s1.473-3.404,3.603-4.698c2.131-1.294,5.077-1.812,6.829-1.553s2.31,1.294,3.105,2.867c0.797,1.573,1.832,3.683,3.544,5.256
	s4.101,2.608,6.132,3.365c2.03,0.756,3.703,1.234,4.618,2.349c0.916,1.115,1.076,2.867,1.374,4.061
	c0.299,1.194,0.736,1.832,1.632,1.194c0.896-0.637,2.25-2.548,3.146-3.046c0.896-0.498,1.334,0.418,1.871,1.732
	c0.537,1.313,1.175,3.025,2.389,4.718c1.215,1.692,3.007,3.364,4.121,5.036c1.115,1.673,1.553,3.345,1.832,4.798
	c0.278,1.453,0.398,2.688-0.697,3.384c-1.095,0.697-3.404,0.855-4.081,1.632c-0.677,0.776,0.279,2.169,1.593,3.444
	c1.314,1.274,2.986,2.429,4.001,2.568c1.016,0.139,1.374-0.737,1.554-1.792c0.179-1.055,0.179-2.289,0.637-2.607
	c0.458-0.319,1.373,0.278,2.389,2.07c1.016,1.792,2.13,4.778,3.941,7.107c1.813,2.329,4.32,4.001,5.595,5.455
	c1.274,1.453,1.314,2.687,1.095,3.683c-0.219,0.995-0.696,1.751-0.358,2.847c0.339,1.094,1.493,2.527,3.404,4.757
	s4.579,5.256,6.231,7.366s2.289,3.305,2.329,4.161c0.039,0.856-0.518,1.373-1.434,1.373s-2.189-0.517-3.285-0.756
	c-1.095-0.239-2.011-0.199-3.026,0.458c-1.015,0.657-2.13,1.931-3.165,2.11c-1.035,0.179-1.99-0.737-2.429-1.613
	s-0.358-1.712,0.458-2.548s2.369-1.673,2.389-3.146c0.021-1.474-1.493-3.584-3.305-5.415c-1.812-1.832-3.922-3.385-5.196-3.623
	c-1.273-0.239-1.712,0.836-1.493,1.812c0.22,0.976,1.096,1.851,1.294,2.787c0.199,0.936-0.278,1.931-0.219,3.165
	s0.657,2.708,0.538,3.544c-0.12,0.836-0.956,1.035-1.832,0.776s-1.792-0.976-2.927-1.115c-1.135-0.139-2.488,0.299-2.847,1.454
	c-0.358,1.154,0.279,3.025,2.051,5.096c1.771,2.071,4.679,4.341,6.609,5.813c1.932,1.474,2.887,2.15,3.285,1.931
	c0.398-0.219,0.239-1.333,0.259-2.398s0.219-2.08,1.006-2.409c0.786-0.328,2.159,0.03,2.916,0.856s0.896,2.12,1.324,3.265
	c0.428,1.145,1.145,2.14,2.159,2.18c1.016,0.04,2.33-0.876,3.962-0.717c1.633,0.16,3.584,1.394,5.455,2.369s3.663,1.692,4.658,2.379
	c0.996,0.688,1.194,1.344,0.855,1.951c-0.339,0.606-1.215,1.164-1.294,2.179c-0.08,1.016,0.637,2.489,1.413,3.763
	c0.776,1.274,1.613,2.35,1.932,3.803s0.119,3.285-0.021,4.838c-0.139,1.553-0.219,2.827-0.815,4.081
	c-0.598,1.255-1.713,2.488-2.23,3.663s-0.438,2.289,0.239,3.523s1.951,2.588,2.747,3.364c0.797,0.777,1.115,0.977,2.708,2.131
	c1.593,1.155,4.459,3.265,7.107,4.857c2.647,1.593,5.075,2.668,7.793,3.444s5.724,1.254,10.481,1.313
	c4.759,0.061,11.269-0.298,15.399-0.069c4.131,0.229,5.883,1.046,6.52,2.24c0.638,1.194,0.159,2.767-0.756,3.612
	c-0.916,0.847-2.27,0.966-3.763,0.707s-3.126-0.896-5.137-1.095s-4.399,0.04-5.195,0.816c-0.797,0.776,0,2.09,1.154,3.125
	c1.154,1.036,2.668,1.792,5.555,1.892s7.146-0.458,10.252-1.274c3.106-0.815,5.057-1.891,6.212-3.165
	c1.154-1.274,1.513-2.747,2.986-3.902c1.473-1.154,4.062-1.99,7.187-2.866c3.126-0.876,6.789-1.792,10.621-2.589
	c3.832-0.796,7.833-1.473,11.864-2.886c4.032-1.414,8.093-3.563,10.163-5.714s2.15-4.301,2.27-7.207
	c0.12-2.906,0.279-6.569,0.319-9.118c0.039-2.548-0.04-3.981-0.638-5.017s-1.712-1.672-1.951-2.628
	c-0.238-0.956,0.398-2.229-0.199-3.703c-0.597-1.473-2.429-3.146-3.981-3.782s-2.827-0.239-3.146,2.03s0.318,6.411-0.238,8.8
	c-0.558,2.389-2.31,3.026-3.464,2.787c-1.155-0.239-1.713-1.354-1.713-4.857s0.558-9.396,0.478-14.135
	c-0.079-4.738-0.796-8.322-1.672-11.468s-1.911-5.853-3.465-7.883c-1.553-2.031-3.623-3.385-5.992-3.942s-5.037-0.318-6.868,0.239
	c-1.832,0.558-2.827,1.433-2.688,2.07c0.14,0.637,1.413,1.035,2.408,1.553c0.996,0.518,1.713,1.154,1.692,2.25
	c-0.02,1.095-0.776,2.647-2.03,3.324s-3.006,0.478-4.36-0.836c-1.354-1.314-2.309-3.743-3.424-5.555s-2.389-3.006-3.862-3.941
	c-1.474-0.937-3.146-1.612-3.404-2.847c-0.259-1.235,0.896-3.026,2.867-4.121c1.971-1.095,4.758-1.493,8.281-1.374
	c3.524,0.12,7.784,0.756,11.727,1.792c3.941,1.035,7.565,2.468,10.909,4.519c3.345,2.051,6.411,4.719,9.099,7.924
	s4.997,6.948,8.281,13.896c3.284,6.948,7.544,17.101,9.794,24.367c2.249,7.267,2.487,11.646,1.811,12.442
	c-0.677,0.797-2.269-1.991-4.3-1.752c-2.03,0.238-4.499,3.504-4.938,5.574c-0.438,2.07,1.155,2.946,2.986,3.186
	c1.832,0.238,3.902-0.159,5.497,0.677s2.713,2.906,3.868,6.928c1.154,4.021,2.345,9.994,2.345,14.892s-1.19,8.72-2.584,10.75
	c-1.394,2.031-2.99,2.27-3.748,1.434c-0.759-0.836-0.68-2.747-0.241-6.092c0.438-3.345,1.234-8.122,0.955-12.064
	c-0.278-3.941-1.632-7.047-3.763-7.943c-2.13-0.896-5.036,0.418-6.828,2.25c-1.792,1.831-2.469,4.181-1.771,5.475
	c0.696,1.294,2.768,1.533,4.24,3.046c1.474,1.513,2.35,4.3,2.03,6.529c-0.318,2.23-1.831,3.902-3.981,4.102
	c-2.149,0.199-4.937-1.075-8.958-1.593s-9.277-0.278-14.732,0.518c-5.455,0.797-11.108,2.15-15.091,3.584
	c-3.981,1.433-6.291,2.946-8.082,4.897c-1.792,1.951-3.066,4.34-4.818,5.574s-3.981,1.313-4.897,0.278
	c-0.915-1.035-0.518-3.186,0.717-4.778c1.234-1.592,3.305-2.627,3.186-3.623c-0.119-0.995-2.429-1.951-4.221-1.871
	s-3.065,1.194-4.579,2.15c-1.513,0.955-3.265,1.752-5.295,1.791c-2.031,0.04-4.34-0.676-5.773-0.278
	c-1.434,0.398-1.991,1.911-3.623,3.464c-1.633,1.553-4.34,3.146-5.813,2.39c-1.474-0.757-1.712-3.862-2.429-4.659
	c-0.717-0.796-1.911,0.717-2.748,2.509c-0.836,1.792-1.313,3.862-2.508,5.893s-3.105,4.021-5.066,6.052
	c-1.961,2.031-3.973,4.101-6.073,4.997c-2.101,0.896-4.29,0.617-5.007,0.198c-0.717-0.418,0.039-0.975,0.278-2.27
	c0.239-1.294-0.04-3.324-0.776-4.38c-0.736-1.055-1.931-1.135-2.588-0.497c-0.657,0.637-0.776,1.991-0.896,3.284
	c-0.119,1.295-0.238,2.528-0.617,3.186c-0.378,0.657-1.015,0.736-2.249,0.816s-3.065,0.159-3.703-0.916
	c-0.637-1.074-0.079-3.305-0.537-4.359c-0.458-1.056-1.932-0.936-2.808-0.02c-0.876,0.915-1.154,2.627-1.294,3.861
	c-0.139,1.234-0.139,1.991-0.497,2.25c-0.359,0.259-1.075,0.02-2.091-0.1s-2.329-0.119-3.822,0.697s-3.165,2.448-4.221,3.742
	s-1.493,2.25-2.19,2.27c-0.696,0.02-1.651-0.896-2.966-1.274c-1.313-0.378-2.986-0.219-3.763-0.577s-0.657-1.234,0.199-1.99
	c0.856-0.757,2.448-1.394,3.523-2.19c1.075-0.796,1.633-1.752,1.912-2.787c0.278-1.035,0.278-2.15,1.055-3.186
	s2.329-1.99,2.727-3.225c0.398-1.234-0.357-2.747-0.497-4.838c-0.14-2.09,0.339-4.758,0.18-6.59
	c-0.16-1.831-0.956-2.827-0.688-3.504s1.603-1.034,2.558-1.712c0.956-0.677,1.533-1.672,0.638-1.881
	c-0.896-0.209-3.266,0.368-4.42-0.229c-1.155-0.597-1.095-2.369,0.05-3.215c1.145-0.847,3.375-0.767,4.848-1.583
	c1.474-0.816,2.19-2.528,1.692-3.324c-0.498-0.797-2.209-0.677-3.146-0.996c-0.936-0.318-1.095-1.074-0.627-2.021
	c0.468-0.945,1.563-2.08,2.479-3.096c0.916-1.015,1.652-1.911,1.633-3.096c-0.021-1.185-0.797-2.657-2.161-3.225
	c-1.363-0.567-3.313-0.229-4.29,0.727c-0.975,0.955-0.975,2.528-1.323,3.723s-1.046,2.011-1.683,1.673
	c-0.637-0.339-1.214-1.832-1.842-2.29c-0.627-0.458-1.304,0.12-2.279,0.179c-0.976,0.061-2.25-0.397-2.956-1.104
	c-0.707-0.707-0.847-1.662-1.554-2.25c-0.706-0.587-1.98-0.806-2.847-0.308c-0.866,0.497-1.324,1.712-0.646,3.105
	c0.677,1.394,2.488,2.966,3.096,4.012c0.607,1.045,0.01,1.563-0.548,1.851c-0.558,0.289-1.074,0.349-1.125,0.737
	c-0.05,0.389,0.369,1.104,0.688,2.18s0.537,2.509,0.02,3.435s-1.772,1.344-2.947,0.696c-1.174-0.646-2.27-2.358-3.364-3.444
	c-1.095-1.085-2.19-1.543-2.896-0.896c-0.707,0.647-1.025,2.398-1.046,4.449c-0.02,2.051,0.259,4.399,0.021,5.634
	c-0.239,1.234-0.996,1.354-2.07,0.916c-1.075-0.438-2.469-1.434-4.002-1.932c-1.533-0.497-3.205-0.497-3.942-0.079
	c-0.736,0.418-0.537,1.254,0.279,2.21c0.816,0.955,2.249,2.03,2.847,3.065c0.598,1.036,0.358,2.031-0.339,2.39
	c-0.696,0.358-1.852,0.079-3.046-0.199c-1.194-0.279-2.428-0.558-3.503-0.697c-1.075-0.139-1.991-0.139-2.131,0.776
	c-0.139,0.916,0.498,2.748,1.294,4.56c0.797,1.812,1.753,3.603,1.254,4.777c-0.497,1.175-2.448,1.732-3.702,1.075
	c-1.254-0.656-1.812-2.527-2.528-4.479s-1.593-3.982-2.668-5.018s-2.349-1.075-3.086-1.812c-0.736-0.736-0.936-2.17-1.075-4.221
	c-0.139-2.051-0.219-4.718-0.775-6.45c-0.559-1.731-1.594-2.528-2.609-1.553c-1.015,0.976-2.01,3.723-2.229,6.211
	c-0.22,2.489,0.338,4.719,1.354,6.67s2.488,3.623,2.926,4.957c0.438,1.334-0.159,2.329-0.955,2.607
	c-0.797,0.279-1.791-0.159-2.469,0.021c-0.677,0.18-1.035,0.976-1.234,1.731c-0.199,0.757-0.238,1.474-1.095,1.414
	s-2.528-0.896-3.345-0.657s-0.776,1.553-0.159,2.966c0.617,1.414,1.812,2.927,2.767,4.102c0.956,1.175,1.673,2.011,1.394,2.946
	c-0.278,0.936-1.553,1.971-2.548,3.325c-0.995,1.354-1.713,3.025-2.469,3.185c-0.757,0.16-1.553-1.194-2.429-2.707
	s-1.832-3.186-2.668-3.524c-0.836-0.338-1.553,0.657-1.752,1.932s0.119,2.827-0.08,4.001c-0.198,1.175-0.915,1.972-1.831,2.071
	s-2.03-0.498-2.966-0.18c-0.937,0.318-1.692,1.553-1.972,2.768c-0.278,1.214-0.079,2.408-0.458,3.125
	c-0.378,0.717-1.333,0.956-1.951,0.498c-0.617-0.458-0.896-1.612-1.612-2.568c-0.716-0.955-1.871-1.712-3.046-2.11
	s-2.369-0.438-2.668-1.075c-0.298-0.637,0.299-1.871,1.395-2.389c1.095-0.518,2.688-0.318,3.922-0.916
	c1.234-0.597,2.11-1.99,2.169-3.523c0.061-1.533-0.696-3.205-1.672-4.738c-0.976-1.532-2.17-2.927-2.469-4.3
	c-0.298-1.374,0.299-2.728,0.558-4.161s0.18-2.946-0.497-3.962c-0.678-1.015-1.951-1.532-3.047-1.114
	c-1.095,0.418-2.011,1.771-2.249,4.2c-0.239,2.429,0.199,5.933,0.815,8.521c0.618,2.589,1.414,4.261,1.454,5.475
	c0.04,1.215-0.677,1.972-1.573,1.673c-0.896-0.299-1.971-1.652-3.046-2.528c-1.074-0.876-2.149-1.274-2.628-0.876
	c-0.478,0.398-0.358,1.593,0.159,2.847c0.518,1.255,1.434,2.568,1.991,3.782c0.558,1.215,0.757,2.33,0.219,3.046
	c-0.537,0.717-1.812,1.036-3.105,1.295s-2.607,0.457-3.285-0.04c-0.677-0.498-0.717-1.692-0.836-5.634
	c-0.119-3.942-0.318-10.631-0.896-14.852c-0.578-4.221-1.533-5.973-1.652-7.446c-0.12-1.473,0.598-2.667,1.194-3.483
	c0.598-0.816,1.075-1.255,1.194-2.588c0.119-1.334-0.12-3.563-0.319-4.758s-0.358-1.354-2.509-1.99
	c-2.15-0.638-6.291-1.752-8.342-2.549c-2.05-0.796-2.011-1.273-0.915-2.149c1.095-0.876,3.244-2.15,5.614-3.803
	c2.368-1.652,4.956-3.683,6.37-5.495c1.414-1.812,1.652-3.404,1.771-4.639c0.12-1.234,0.12-2.109,0.936-3.006
	c0.817-0.896,2.449-1.812,3.504-2.808c1.056-0.995,1.533-2.069,1.813-3.503c0.278-1.434,0.357-3.226,0.039-4.141
	c-0.318-0.916-1.035-0.956-1.652-1.474s-1.135-1.513-1.434-2.647c-0.298-1.135-0.378-2.409-0.896-2.549s-1.473,0.856-2.17,2.011
	c-0.696,1.155-1.135,2.469-1.016,4.102c0.12,1.633,0.797,3.583,0.519,5.076c-0.279,1.493-1.514,2.528-2.33,3.563
	s-1.214,2.07-1.413,2.906c-0.199,0.837-0.199,1.474-0.458,2.071c-0.259,0.597-0.776,1.154-1.612,2.17
	c-0.837,1.015-1.991,2.488-3.126,3.583c-1.135,1.096-2.25,1.812-3.066,1.593c-0.815-0.219-1.333-1.374-1.931-1.513
	c-0.597-0.14-1.274,0.736-1.931,1.532c-0.657,0.797-1.295,1.514-2.31,1.115c-1.016-0.398-2.409-1.911-3.942-4.041
	c-1.532-2.13-3.205-4.878-4.997-6.55c-1.791-1.673-3.702-2.27-6.092-3.365c-2.389-1.095-5.256-2.687-7.067-4.817
	c-1.812-2.13-2.567-4.798-2.826-6.769s-0.021-3.245,0.437-4.56c0.458-1.313,1.135-2.667,1.374-4.797s0.04-5.037-0.219-7.008
	s-0.577-3.006-1.593-3.364s-2.728-0.04-4.161,0.318s-2.588,0.756-3.146,0.537c-0.557-0.219-0.518-1.055-0.418-5.315
	c0.1-4.26,0.259-11.945,0.358-16.743s0.14-6.708,0.119-7.604c-0.02-0.896-0.1-0.776-0.458-0.717s-0.995,0.06-8.441,0.278
	c-7.445,0.22-21.7,0.657-35.317,1.135c-13.616,0.479-26.596,0.996-33.086,1.255c-6.49,0.258-6.49,0.258-6.45-0.398
	c0.04-0.657,0.12-1.972,0.15-2.658s0.01-0.747-0.199-0.767s-0.607,0-4.111-0.039c-3.503-0.04-10.113-0.14-34.5-0.558
	c-24.388-0.419-66.553-1.155-87.914-1.345s-21.918,0.169-22.556,0.289c-0.637,0.119-1.354,0-2.19-0.021
	c-0.836-0.02-1.792,0.06-2.647,0.458c-0.856,0.398-1.613,1.115-2.807,1.434c-1.195,0.318-2.827,0.239-3.583-0.14
	c-0.756-0.378-0.637-1.055-1.214-1.433c-0.578-0.379-1.852-0.458-6.112-0.657c-4.261-0.199-11.507-0.518-15.827-0.696
	c-4.32-0.18-5.714-0.22-6.55,0.278s-1.115,1.533-1.513,2.887s-0.916,3.025-1.692,4.041s-1.812,1.374-3.543,1.593
	c-1.732,0.219-4.161,0.299-5.315,0.08c-1.155-0.22-1.036-0.737-0.896-2.37c0.139-1.632,0.299-4.379,0.08-5.793
	c-0.219-1.413-0.816-1.493-1.513-1.513s-1.493,0.021-9.496,0.001c-8.003-0.02-23.212-0.1-41.209-0.537
	c-17.997-0.438-38.781-1.234-53.234-1.632c-14.453-0.398-22.576-0.398-27.002-0.825s-5.157-1.28-5.754-2.714
	c-0.598-1.433-1.062-3.447-1.062-4.692s0.464-1.723,3.57-11.279c3.105-9.556,8.853-28.19,16.903-54.389
	c8.05-26.199,18.403-59.962,23.579-76.844s5.176-16.882,5.246-16.876c0.07,0.004,0.209,0.014,0.503,0.02
	c0.293,0.005,0.741,0.005,4.29,0.02c3.548,0.015,10.198,0.045,40.14,0.846s83.176,2.374,144.952,4.355
	c61.774,1.981,132.09,4.37,167.546,5.485c35.457,1.115,36.054,0.956,36.481,0.747c0.429-0.209,0.688-0.468,1.103-1.025
	C481.227,152.176,481.797,151.32,483.019,149.639L483.019,149.639z M696.5,490.522c-0.248-0.448,0.11-0.786,3.465-0.976
	s9.705-0.229,13.069,0.278c3.364,0.508,3.743,1.563,4.37,2.509c0.627,0.946,1.503,1.782,2.767,1.652
	c1.265-0.129,2.917-1.225,4.968-2.329c2.05-1.104,4.499-2.22,5.773-3.275c1.273-1.055,1.373-2.05,2.09-2.558
	s2.051-0.527,2.658-1.304s0.487-2.31,0.109-3.206c-0.379-0.896-1.016-1.154-2.031-0.646c-1.015,0.508-2.408,1.781-4.21,3.346
	c-1.802,1.563-4.012,3.417-5.604,4.133c-1.593,0.718-2.568,0.297-3.017-0.37c-0.447-0.668-0.368-1.584,0.827-2.918
	c1.194-1.334,3.504-3.086,5.105-4.619c1.604-1.532,2.499-2.847,2.867-4.221s0.209-2.807-0.488-4.021
	c-0.696-1.215-1.931-2.21-2.329-3.444c-0.397-1.234,0.04-2.707,0.896-3.464s2.13-0.796,3.225,0.02
	c1.096,0.816,2.011,2.489,3.604,5.376s3.862,6.987,5.455,10.014c1.593,3.025,2.508,4.977,3.623,6.908
	c1.115,1.931,2.429,3.842,3.066,5.753c0.637,1.911,0.597,3.823-0.737,5.733c-1.334,1.912-3.961,3.822-6.449,4.798
	c-2.489,0.976-4.838,1.016-6.929,0.737c-2.09-0.279-3.922-0.877-6.212-1.056c-2.289-0.179-5.036,0.06-7.227,0.498
	c-2.189,0.438-3.822,1.075-6.37,0.617c-2.549-0.458-6.013-2.011-9.536-3.385s-7.107-2.567-7.983-3.603
	c-0.875-1.036,0.956-1.912,1.931-2.788c0.977-0.876,1.096-1.752,0.728-2.469C697.605,491.527,696.749,490.97,696.5,490.522
	L696.5,490.522z M689.195,486.491c-1.722-0.757-4.528-0.776-6.211-0.398s-2.239,1.155-1.713,2.548
	c0.528,1.395,2.141,3.404,4.063,4.34c1.921,0.937,4.15,0.797,5.345,0.16s1.354-1.772,1.115-3.086S690.918,487.247,689.195,486.491
	L689.195,486.491z M675.021,479.463c-1.304,0.398-1.921,0.896-1.682,1.822c0.238,0.926,1.334,2.279,2.289,2.887
	c0.956,0.606,1.772,0.468,3.235-0.18c1.463-0.646,3.573-1.802,3.922-2.808c0.349-1.005-1.065-1.86-2.768-2.14
	C678.315,478.767,676.325,479.065,675.021,479.463L675.021,479.463z M577.622,497.908c-1.572-0.826-4.24-1.443-5.973-1.095
	c-1.731,0.349-2.527,1.662-2.488,2.937c0.04,1.274,0.916,2.508,2.499,3.075c1.582,0.567,3.872,0.469,5.404,0.021
	c1.533-0.448,2.31-1.244,2.459-2.16S579.195,498.734,577.622,497.908L577.622,497.908z M570.019,481.454
	c2.03,2.667,4.26,6.052,6.769,8.122s5.296,2.827,6.749,2.509s1.572-1.712,2.11-3.166c0.537-1.453,1.493-2.966,2.787-4.26
	s2.926-2.369,6.888-3.305s10.253-1.731,17.28-1.971s14.792,0.079,19.789,0.358c4.997,0.278,7.227,0.517,9.277,0.497
	s3.922-0.299,5.375-1.174c1.453-0.876,2.488-2.35,2.787-4.121c0.299-1.772-0.14-3.843-0.537-6.61
	c-0.398-2.767-0.757-6.23-1.633-7.365s-2.27,0.06-2.926,1.473c-0.657,1.414-0.577,3.046-1.374,4.201
	c-0.796,1.154-2.469,1.831-4.101,2.01c-1.633,0.18-3.226-0.139-3.624-0.896c-0.397-0.756,0.398-1.95-0.021-2.847
	c-0.417-0.896-2.05-1.493-3.344-1.911s-2.25-0.657-2.907-0.438c-0.656,0.22-1.015,0.896-1.692,1.274
	c-0.677,0.379-1.672,0.458-2.448-0.497c-0.776-0.956-1.334-2.946-0.896-4.021c0.438-1.075,1.871-1.235,2.688-2.15
	c0.816-0.916,1.016-2.588,0.617-4.221s-1.394-3.226-2.5-3.733c-1.106-0.509-2.323,0.067-2.961,1.083
	c-0.637,1.016-0.693,2.47-1.091,3.824s-1.135,2.609-2.15,3.008s-2.31-0.06-2.459-1.424c-0.149-1.363,0.846-3.633,1.404-5.644
	c0.558-2.012,0.678-3.763-0.357-4.479s-3.226-0.398-4.102,0.855c-0.877,1.255-0.438,3.444-1.174,4.021s-2.647-0.458-4.16-0.537
	c-1.514-0.08-2.628,0.796-3.266,1.672c-0.637,0.876-0.796,1.752-1.612,2.369s-2.289,0.976-3.663,2.249
	c-1.373,1.274-2.647,3.464-3.583,4.997s-1.533,2.409-2.29,3.066s-1.672,1.095-2.429,2.03c-0.756,0.936-1.354,2.369-2.25,3.902
	c-0.896,1.533-2.09,3.165-2.747,4.679c-0.656,1.513-0.776,2.906-1.214,4.041c-0.438,1.135-1.194,2.011-2.23,2.11
	c-1.035,0.1-2.349-0.577-2.707-1.652s0.239-2.549-0.04-3.564c-0.278-1.015-1.434-1.572-4.2-1.651
	c-2.768-0.08-7.147,0.318-8.422,1.492C566.156,476.835,567.987,478.786,570.019,481.454L570.019,481.454z M598.272,441.521
	c-0.558,1.812-3.902,3.763-6.371,5.753c-2.468,1.991-4.061,4.021-5.772,5.296c-1.713,1.273-3.544,1.791-5.396,2.21
	c-1.852,0.418-3.723,0.736-5.574,1.015c-1.852,0.279-3.683,0.519-5.634,1.474c-1.951,0.956-4.021,2.628-6.092,3.305
	c-2.071,0.677-4.142,0.358-6.352,0.836c-2.21,0.479-4.559,1.752-6.688,2.27c-2.131,0.518-4.042,0.279-4.858-0.976
	c-0.815-1.254-0.537-3.523,0.479-4.698c1.016-1.174,2.767-1.254,4.459-0.348c1.692,0.905,3.324,2.797,4.479,2.538
	c1.154-0.259,1.831-2.668,2.946-3.653s2.668-0.548,3.942-1.025s2.27-1.871,3.434-1.543c1.165,0.329,2.498,2.379,3.036,2.26
	c0.537-0.12,0.278-2.409,0.945-3.912s2.26-2.22,3.952-1.324c1.692,0.896,3.483,3.404,4.26,3.285s0.538-2.867,1.394-5.057
	c0.856-2.189,2.808-3.822,5.575-5.873c2.767-2.05,6.351-4.519,9.257-4.917C596.601,438.036,598.83,439.709,598.272,441.521
	L598.272,441.521z M743.396,406.519c-0.955,0.538-1.99,1.573-2.548,2.987c-0.558,1.413-0.638,3.205-1.335,4.499
	c-0.696,1.294-2.01,2.09-2.587,3.504c-0.578,1.413-0.418,3.443-1.453,5.275c-1.035,1.831-3.266,3.464-4.4,4.877
	c-1.135,1.414-1.174,2.608-0.198,3.226c0.975,0.617,2.966,0.657,4.438,0.438c1.474-0.219,2.43-0.696,3.743-2.946
	c1.314-2.249,2.986-6.271,4.42-9.615s2.627-6.012,3.025-8.043c0.398-2.03,0-3.424-0.637-4.102
	C745.229,405.941,744.353,405.981,743.396,406.519L743.396,406.519z M542.629,244.909c0.278-0.996,1.394-1.553,2.578-1.762
	s2.438-0.07,3.265,0.647s1.225,2.011,0.826,3.175s-1.593,2.2-2.697,2.479c-1.104,0.279-2.12-0.199-2.907-1.155
	C542.907,247.337,542.35,245.904,542.629,244.909z"/>
</svg>
