<?xml version="1.0" encoding="utf-8"?>
<!-- Generator: Adobe Illustrator 15.1.0, SVG Export Plug-In . SVG Version: 6.00 Build 0)  -->
<!DOCTYPE svg PUBLIC "-//W3C//DTD SVG 1.1//EN" "http://www.w3.org/Graphics/SVG/1.1/DTD/svg11.dtd">
<svg version="1.1" id="Layer_1" xmlns="http://www.w3.org/2000/svg" xmlns:xlink="http://www.w3.org/1999/xlink" x="0px" y="0px"
	 width="612px" height="792px" viewBox="0 0 612 792" enable-background="new 0 0 612 792" xml:space="preserve">
<path fill-rule="evenodd" clip-rule="evenodd" stroke="#000000" stroke-width="2.9999" stroke-linecap="round" stroke-linejoin="round" stroke-miterlimit="22.9256" d="
	M466.445,719.19c0.248-2.868,0.489-5.096,0.037-7.655c-0.451-2.56-1.596-5.45-2.077-8.16c-0.481-2.709-0.301-5.238-0.181-8.671
	c0.121-3.432,0.181-7.768,0.016-12.059c-0.166-4.29-0.558-8.535-1.009-11.034c-0.452-2.499-0.964-3.252-2.334-3.313
	c-1.37-0.06-3.598,0.572-5.088,1.295s-2.243,1.536-2.078,2.304c0.166,0.768,1.25,1.49,1.89,2.552
	c0.641,1.062,0.836,2.462,0.829,3.644c-0.008,1.182-0.219,2.146,0.067,3.319s1.069,2.56,1.069,3.749s-0.783,2.183-1.521,2.634
	c-0.738,0.452-1.431,0.361-2.093-0.135c-0.662-0.497-1.295-1.4-1.927-1.762c-0.633-0.361-1.265-0.181-1.461,0.542
	c-0.195,0.723,0.046,1.987-0.09,2.785s-0.647,1.129-1.159,1.641s-1.023,1.204-1.129,2.71s0.195,3.824,0.06,5.465
	c-0.135,1.641-0.707,2.604-1.49,2.77c-0.782,0.166-1.776-0.466-2.499-1.655s-1.174-2.937-1.896-3.659
	c-0.723-0.722-1.717-0.421-2.138-0.737c-0.422-0.315-0.271-1.249-0.016-2.318s0.617-2.273,0.603-2.845
	c-0.015-0.572-0.406-0.513-1.34-0.392c-0.934,0.12-2.409,0.301-3.177-0.271c-0.768-0.571-0.827-1.896-0.437-3.056
	c0.392-1.159,1.234-2.152,1.596-3.025s0.241-1.627-0.384-2.281c-0.625-0.655-1.754-1.213-2.688-0.911
	c-0.934,0.301-1.671,1.46-2.28,1.693c-0.61,0.233-1.092-0.459-1.92-0.624c-0.828-0.166-2.002,0.195-3.281,1.009
	c-1.28,0.813-2.665,2.077-3.84,3.553c-1.174,1.475-2.137,3.161-3.101,3.673s-1.927-0.15-3.327,0s-3.236,1.114-4.576,2.439
	c-1.34,1.324-2.184,3.011-3.252,3.959s-2.363,1.159-3.207,2.574c-0.843,1.415-1.234,4.034-1.896,6.277s-1.596,4.11-2.56,4.923
	c-0.963,0.813-1.957,0.572-2.423-0.948c-0.467-1.521-0.406-4.321-0.467-6.624c-0.06-2.304-0.24-4.11-0.181-5.495
	c0.061-1.385,0.361-2.349,0.903-3.191s1.325-1.565,2.499-1.927c1.175-0.361,2.74-0.361,3.523-0.843
	c0.782-0.482,0.782-1.446,0.662-2.439s-0.361-2.018-1.927-2.469c-1.565-0.452-4.456-0.331-7.678-0.211s-6.774,0.241-10.178,0.452
	c-3.401,0.21-6.653,0.512-9.093,1.084c-2.438,0.571-4.064,1.414-6.142,0.662c-2.077-0.753-4.606-3.102-5.841-5.059
	s-1.175-3.522,0.029-3.975c1.205-0.451,3.553,0.211,6.173,0.512c2.619,0.302,5.51,0.241,8.189,0.271s5.148,0.15,7.678-0.061
	s5.118-0.753,7.647-0.632c2.529,0.12,4.998,0.903,7.076,1.385c2.077,0.481,3.764,0.662,5.569,0.723c1.807,0.061,3.734,0,4.758-0.843
	c1.023-0.844,1.144-2.469,1.836-3.222c0.693-0.753,1.958-0.633,2.529-1.867c0.572-1.234,0.452-3.824,1.386-4.546
	c0.933-0.723,2.92,0.421,5.058,0.301c2.139-0.12,4.427-1.506,6.715-1.957c2.288-0.452,4.576,0.03,6.805,0.301
	c2.228,0.271,4.396,0.331,5.058-0.392c0.663-0.723-0.181-2.228,0.482-2.98c0.662-0.753,2.83-0.753,3.612-1.415
	c0.783-0.662,0.181-1.987-1.535-2.74s-4.546-0.933-6.594-0.481c-2.047,0.451-3.312,1.535-4.095,1.535s-1.084-1.084-2.138-1.716
	s-2.86-0.813-4.366-0.964c-1.505-0.15-2.709-0.271-3.703-1.234c-0.993-0.963-1.776-2.77-3.161-4.064
	c-1.386-1.295-3.372-2.077-5.841-2.619c-2.47-0.542-5.42-0.844-6.865-1.687s-1.385-2.228-1.295-4.095
	c0.091-1.866,0.211-4.215,0.753-5.359c0.542-1.144,1.505-1.084,3.673,0.211c2.168,1.294,5.541,3.824,7.979,4.907
	c2.438,1.084,3.944,0.724,5.238,0.724c1.295,0,2.379,0.36,3.191,1.505c0.813,1.145,1.355,3.071,2.048,4.336s1.535,1.866,2.921,1.716
	c1.385-0.15,3.312-1.054,4.034-2.318s0.241-2.891-1.145-4.426c-1.385-1.536-3.673-2.981-4.907-4.728s-1.415-3.794-2.589-5.179
	c-1.175-1.385-3.343-2.107-5.059-3.854s-2.98-4.517-1.776-5.962s4.877-1.565,6.804-0.662c1.928,0.903,2.108,2.83,2.951,4.215
	c0.843,1.386,2.349,2.229,3.282,1.807c0.934-0.421,1.294-2.107,1.836-2.529c0.542-0.421,1.265,0.422,2.891,1.265
	c1.626,0.844,4.155,1.687,5.179,1.596c1.023-0.09,0.542-1.114,0.723-2.438c0.181-1.325,1.023-2.95,2.349-3.161
	s3.132,0.993,4.336,3.071c1.204,2.077,1.807,5.028,2.107,7.527c0.301,2.498,0.301,4.546-0.09,6.653
	c-0.392,2.107-1.175,4.275-1.506,6.082s-0.211,3.252,0.061,4.606c0.271,1.355,0.692,2.62,1.023,4.155s0.572,3.342,1.776,4.125
	s3.372,0.542,4.787-0.692s2.078-3.463,1.927-6.112c-0.15-2.649-1.113-5.721-1.324-8.431s0.331-5.058,0.422-7.467
	c0.09-2.408-0.271-4.877-1.054-8.671c-0.783-3.793-1.987-8.912-2.649-13.88c-0.663-4.968-0.783-9.785-0.903-15.687
	s-0.241-12.887-0.723-17.825c-0.481-4.938-1.325-7.828-2.439-9.635c-1.113-1.807-2.499-2.528-3.673-2.378
	c-1.175,0.15-2.138,1.174-2.951,2.95c-0.813,1.776-1.476,4.306-2.077,5.54c-0.603,1.234-1.145,1.175-2.138,0.662
	c-0.993-0.512-2.438-1.475-4.064-1.565c-1.626-0.09-3.433,0.693-5.118,1.084c-1.687,0.392-3.253,0.392-5.089-0.09
	c-1.837-0.482-3.944-1.445-6.232-2.71c-2.289-1.265-4.758-2.83-6.624-4.186c-1.867-1.354-3.132-2.499-4.637-3.131
	c-1.506-0.633-3.252-0.753-4.275-1.265s-1.325-1.415-2.104-2.627c-0.778-1.212-2.036-2.732-3.809-4.697
	c-1.772-1.964-4.061-4.373-5.566-6.36c-1.505-1.986-2.228-3.553-3.312-4.335c-1.084-0.783-2.529-0.783-4.095-2.71
	s-3.252-5.781-5.479-9.876c-2.229-4.095-4.998-8.431-7.528-11.261c-2.528-2.83-4.816-4.154-7.646-5.961
	c-2.831-1.807-6.203-4.095-8.973-7.527c-2.771-3.433-4.938-8.01-4.999-12.586c-0.06-4.576,1.988-9.153,3.012-12.946
	c1.023-3.794,1.023-6.805-0.723-9.395c-1.746-2.589-5.239-4.757-6.985-7.347c-1.746-2.589-1.746-5.6-1.987-7.708
	c-0.24-2.107-0.723-3.312-2.408-5.6c-1.687-2.288-4.577-5.66-8.672-9.153c-4.095-3.492-9.395-7.105-12.947-9.454
	s-5.359-3.433-6.443-6.865s-1.445-9.213-1.445-13.188s0.361-6.142,0.482-8.009c0.12-1.867,0-3.433-0.543-4.938
	c-0.541-1.505-1.505-2.95-2.167-4.215s-1.024-2.349-0.903-3.433c0.12-1.084,0.723-2.167,0.361-3.612
	c-0.361-1.446-1.687-3.252-1.927-5.721c-0.241-2.469,0.602-5.6,2.348-10.117c1.747-4.516,4.396-10.417,5.541-14.392
	c1.144-3.974,0.782-6.022-0.482-7.587c-1.265-1.566-3.432-2.65-4.154-3.734c-0.724-1.084,0-2.167,1.144-3.432
	c1.145-1.265,2.71-2.709,2.59-4.215c-0.121-1.505-1.927-3.071-2.649-4.998c-0.724-1.927-0.362-4.215-1.325-6.624
	c-0.964-2.409-3.252-4.938-5.149-7.347c-1.897-2.409-3.403-4.697-4.999-7.407c-1.596-2.71-3.282-5.841-4.064-8.4
	c-0.783-2.56-0.663-4.546-0.964-5.661c-0.301-1.114-1.023-1.355-2.047-1.596s-2.349-0.481-3.493-1.325
	c-1.144-0.843-2.107-2.288-3.011-3.372c-0.903-1.083-1.747-1.806-2.572-2.213s-1.632-0.498-2.347-1.394
	c-0.715-0.896-1.338-2.596-2.41-3.333s-2.592-0.512-2.931,0.836c-0.339,1.347,0.504,3.816,0.083,5.111
	c-0.422,1.294-2.108,1.415-3.041,0.843c-0.934-0.572-1.114-1.836-1.988-2.438c-0.873-0.603-2.438-0.542-3.011-0.994
	c-0.572-0.451-0.15-1.415-0.12-2.408c0.03-0.994-0.332-2.018-0.09-2.891c0.241-0.873,1.084-1.596,1.837-2.138
	c0.752-0.542,1.415-0.903,1.084-1.897c-0.332-0.993-1.656-2.62-2.529-3.703c-0.873-1.084-1.295-1.626-2.107-1.807
	c-0.813-0.181-2.018,0-2.974-0.338c-0.956-0.339-1.664-1.197-1.656-1.973c0.007-0.775,0.729-1.468,1.211-2.22
	c0.481-0.753,0.723-1.566,0.647-2.333s-0.466-1.491-1.49-2.8c-1.024-1.31-2.68-3.207-3.884-4.005s-1.958-0.497-3.342-0.557
	c-1.385-0.06-3.403-0.481-4.336-1.219c-0.934-0.738-0.783-1.792-0.015-2.273c0.768-0.482,2.153-0.392,3.749-0.286
	s3.402,0.226,4.155-0.166c0.752-0.392,0.451-1.295,0.045-2.198c-0.406-0.903-0.918-1.807-1.686-2.379
	c-0.768-0.572-1.792-0.813-2.574-1.4c-0.783-0.587-1.325-1.521-1.596-2.469c-0.271-0.949-0.271-1.912-0.557-2.785
	c-0.286-0.874-0.857-1.656-2.167-2.635c-1.31-0.979-3.357-2.153-4.516-3.041c-1.159-0.888-1.43-1.49-1.46-2.363
	c-0.03-0.874,0.18-2.018,0.979-2.966c0.797-0.949,2.183-1.701,3.342-2.243s2.093-0.873,2.273-1.49s-0.392-1.521-1.234-2.559
	c-0.843-1.039-1.957-2.213-3.252-3.659c-1.294-1.445-2.77-3.162-3.809-4.802c-1.039-1.641-1.641-3.207-1.641-5.073
	s0.602-4.035,1.023-5.42c0.422-1.385,0.662-1.987,1.325-2.228c0.662-0.241,1.746-0.121,4.456-0.121s7.045-0.12,8.972-0.662
	c1.927-0.542,1.445-1.505,0.903-2.89c-0.542-1.385-1.144-3.192-0.963-4.697c0.181-1.506,1.144-2.71,1.325-3.643
	c0.181-0.934-0.421-1.596-0.452-2.71c-0.03-1.114,0.512-2.68,0.632-3.854s-0.181-1.957-0.934-2.74
	c-0.752-0.783-1.957-1.565-1.625-2.74s2.198-2.74,3.522-4.004s2.108-2.228,2.68-3.251c0.572-1.023,0.933-2.107,1.595-3.493
	s1.626-3.071,1.686-4.727c0.06-1.656-0.783-3.282-1.867-4.396c-1.084-1.114-2.409-1.717-3.673-2.018
	c-1.265-0.301-2.469-0.301-3.493-1.294c-1.024-0.994-1.867-2.981-3.252-4.185c-1.385-1.205-3.312-1.626-4.938-3.102
	s-2.951-4.004-3.613-6.232c-0.662-2.228-0.662-4.155-0.06-6.202c0.602-2.047,1.806-4.215,3.312-5.781
	c1.505-1.566,3.312-2.529,4.938-3.312s3.071-1.385,3.914-2.589c0.843-1.205,1.084-3.011,1.987-4.757s2.469-3.432,3.854-4.636
	c1.385-1.205,2.589-1.928,2.83-3.372c0.241-1.446-0.481-3.614-0.301-5.962c0.18-2.349,1.264-4.878,2.469-6.143
	c1.204-1.265,2.529-1.265,3.372-2.83s1.204-4.697,2.108-6.021c0.903-1.325,2.348-0.843,3.553-0.603
	c1.204,0.241,2.167,0.241,2.469-0.963c0.301-1.204-0.061-3.613,0.241-5.781c0.301-2.168,1.265-4.095,2.529-7.226
	s2.83-7.467,4.336-10.418c1.505-2.951,2.951-4.516,5.178-6.262c2.228-1.747,5.239-3.673,7.407-5.119
	c2.168-1.445,3.492-2.408,5.54-3.372c2.047-0.963,4.817-1.927,4.877-3.432c0.061-1.505-2.588-3.553-7.466-6.503
	c-4.877-2.951-11.983-6.805-20.474-9.917c-8.491-3.113-18.366-5.483-27.88-6.266c-9.515-0.783-18.668,0.022-28.604,1.87
	c-9.936,1.848-20.654,4.738-30.108,9.917c-9.455,5.178-17.644,12.646-23.967,19.209c-6.323,6.563-10.779,12.224-13.583,17.071
	c-2.804,4.848-3.956,8.882-4.558,10.93c-0.603,2.047-0.655,2.107-0.681,2.138c-0.027,0.03-0.027,0.03-1.231,0
	c-1.205-0.031-3.613-0.091-4.817-0.121c-1.205-0.03-1.205-0.03-1.235,1.325c-0.03,1.355-0.09,4.064,0.034,11.712
	s0.434,20.233,0.979,33.271c0.545,13.037,1.329,26.526,4.099,69.1s7.527,114.233,13.158,198.839
	c5.63,84.605,12.134,182.158,15.988,240.96c3.854,58.803,5.058,78.855,5.751,88.911c0.692,10.057,0.873,10.116,1.144,10.146
	s0.632,0.03,14.362,0.392s40.828,1.084,84.034,1.837c43.207,0.753,102.52,1.535,132.359,1.912
	c29.837,0.376,30.199,0.346,30.334-0.257c0.136-0.602,0.045-1.775-0.09-2.77c-0.136-0.993-0.316-1.807-0.693-2.483
	c-0.376-0.678-0.948-1.22-0.948-1.957c0-0.738,0.572-1.671,1.325-1.882s1.686,0.301,2.318,1.264
	c0.632,0.964,0.963,2.379,1.896,3.538s2.47,2.063,3.644,2.846c1.175,0.782,1.987,1.445,2.649,1.746
	c0.662,0.302,1.175,0.241,2.649,0.211c1.476-0.03,3.914-0.03,5.3-0.361c1.385-0.331,1.716-0.993,2.107-2.123
	c0.392-1.129,0.843-2.725,0.873-4.562c0.03-1.836-0.361-3.914-0.828-5.435s-1.009-2.483-1.25-3.417
	c-0.24-0.934-0.18-1.837-0.195-3.749c-0.016-1.911-0.105-4.832-0.023-8.046C465.942,725.566,466.197,722.059,466.445,719.19z"/>
</svg>
