<?xml version="1.0" encoding="utf-8"?>
<!-- Generator: Adobe Illustrator 15.1.0, SVG Export Plug-In . SVG Version: 6.00 Build 0)  -->
<!DOCTYPE svg PUBLIC "-//W3C//DTD SVG 1.1//EN" "http://www.w3.org/Graphics/SVG/1.1/DTD/svg11.dtd">
<svg version="1.1" id="Layer_1" xmlns="http://www.w3.org/2000/svg" xmlns:xlink="http://www.w3.org/1999/xlink" x="0px" y="0px"
	 width="612px" height="792px" viewBox="0 0 612 792" enable-background="new 0 0 612 792" xml:space="preserve">
<path fill-rule="evenodd" clip-rule="evenodd" stroke="#000000" stroke-width="2.9999" stroke-linecap="round" stroke-linejoin="round" stroke-miterlimit="22.9256" d="
	M86.363,354.613c0.974-1.759,1.896-2.99,2.204-4.337c0.308-1.346,0-2.808,1-4.309s3.309-3.039,4.809-3.616
	c1.5-0.577,2.192-0.192,3.962-1.769c1.769-1.578,4.616-5.117,6.617-6.694s3.154-1.192,4.424-1.693c1.27-0.5,2.654-1.885,4.155-3.116
	s3.116-2.308,4.501-2.5c1.385-0.192,2.539,0.5,4.001,0.384c1.462-0.115,3.231-1.038,4.155-2.385s1-3.116,0.539-4.386
	c-0.461-1.27-1.462-2.039-2.116-3.116c-0.654-1.077-0.962-2.462-0.77-3.424s0.885-1.5,1.385-2.039
	c0.5-0.539,0.808-1.077,1.616-2.001c0.808-0.923,2.116-2.231,3.385-3.231c1.27-1,2.5-1.692,3.616-2.116s2.116-0.577,3.616-1.424
	c1.5-0.846,3.501-2.385,4.617-3.577s1.347-2.039,1.443-3.25c0.097-1.212,0.058-2.789,0.828-3.751s2.347-1.308,2.52-1.962
	c0.173-0.654-1.058-1.616-2.173-2.559c-1.116-0.942-2.116-1.865-3.347-2.02c-1.231-0.154-2.693,0.461-3.424,0.039
	c-0.73-0.423-0.73-1.885-0.27-2.914c0.462-1.029,1.385-1.625,1.173-2.183c-0.211-0.558-1.558-1.077-2.164-1.962
	c-0.606-0.885-0.472-2.135,0.355-2.972c0.827-0.836,2.347-1.26,3.222-2.058c0.875-0.798,1.106-1.972,0.51-2.405
	c-0.596-0.433-2.019-0.125-2.856-0.635c-0.837-0.509-1.087-1.836-0.395-3.183c0.692-1.347,2.328-2.712,3.626-2.972
	c1.298-0.26,2.26,0.586,3.011,0.779c0.75,0.192,1.288-0.27,1.346-1.039c0.058-0.77-0.366-1.846-0.279-2.664
	c0.086-0.818,0.683-1.375,1.029-2.029c0.346-0.654,0.442-1.404,0.019-2.203c-0.423-0.798-1.366-1.645-2.77-2.702
	c-1.404-1.058-3.27-2.328-3.818-3.28c-0.548-0.952,0.221-1.587,1.183-2.779s2.116-2.943,2.866-4.231
	c0.75-1.289,1.097-2.116,1.5-3.356c0.404-1.241,0.865-2.895,1.635-4.126s1.847-2.039,2.818-2.654
	c0.971-0.616,1.837-1.039,1.952-1.943c0.115-0.904-0.52-2.289-0.366-3.511c0.154-1.221,1.096-2.279,2.174-3.125
	c1.077-0.846,2.289-1.481,3.289-1.645s1.789,0.144,3.02-0.702s2.904-2.847,4.01-4.183c1.106-1.337,1.645-2.01,2.501-2.337
	c0.856-0.327,2.029-0.308,2.981-0.461s1.683-0.481,2.25-2.587c0.567-2.106,0.972-5.992,2.039-13.282
	c1.067-7.291,2.798-17.985,3.755-23.447c0.957-5.463,1.139-5.694,1.313-5.853c0.173-0.159,0.336-0.245,1.404-1.375
	c1.067-1.13,3.039-3.304,18.773-22.058c15.734-18.754,45.23-54.088,60.883-72.866c15.652-18.778,17.46-21,18.547-22.149
	c1.086-1.149,1.452-1.226,1.895-1.111c0.442,0.116,0.961,0.423,1.587,0.529c0.625,0.106,1.356,0.01,2.173-0.105
	c0.817-0.116,1.722-0.25,2.395,0.019c0.673,0.27,1.116,0.942,1.972,1.183s2.125,0.048,3.135,0.211
	c1.01,0.164,1.76,0.683,2.241,1.318c0.481,0.634,0.692,1.385,1.385,1.721c0.693,0.336,1.866,0.26,2.876-0.058
	s1.856-0.875,2.692-0.885c0.837-0.01,1.665,0.529,2.309,1.25c0.645,0.721,1.106,1.625,1.135,2.385s-0.375,1.375-0.741,2.096
	c-0.365,0.721-0.692,1.548-0.961,2.424c-0.269,0.875-0.481,1.798-0.587,3.116c-0.105,1.317-0.105,3.029-0.086,5.78
	c0.02,2.75,0.058,6.54,0.289,8.685c0.231,2.145,0.654,2.645,1.923,3.395c1.27,0.75,3.385,1.75,4.77,2.674
	c1.386,0.923,2.039,1.77,3.001,2.5s2.231,1.346,3.386,1.692c1.154,0.347,2.192,0.423,3.135,0.943s1.789,1.481,2.52,2.212
	c0.731,0.731,1.347,1.231,2.309,1c0.962-0.23,2.27-1.192,3.559-1.827c1.289-0.635,2.559-0.943,3.559-1.424s1.731-1.135,3.597-1.846
	c1.866-0.712,4.866-1.481,6.982-2.366s3.347-1.885,4.886-2.27c1.539-0.385,3.386-0.154,4.751,0.23
	c1.366,0.385,2.251,0.923,3.193,0.75c0.942-0.173,1.942-1.058,2.866-1.461c0.923-0.404,1.77-0.328,2.577-0.712
	s1.577-1.231,2.077-2.308s0.731-2.385,1.366-3.059c0.635-0.673,1.673-0.711,2.423-0.538c0.751,0.173,1.212,0.558,1.751,0.731
	c0.538,0.173,1.154,0.135,1.913-0.298c0.76-0.433,1.664-1.26,3.164-1.674c1.5-0.414,3.597-0.414,5.078-0.221
	c1.48,0.192,2.347,0.577,2.866,1.019c0.519,0.442,0.692,0.942,1.183,1.173s1.298,0.192,1.904,0.154
	c0.605-0.039,1.01-0.077,1.365-0.278c0.356-0.202,0.664-0.568,1.251-0.712c0.586-0.145,1.452-0.067,2.25-0.029
	c0.799,0.039,1.529,0.039,2.02-0.019c0.491-0.058,0.741-0.174,0.664-0.693c-0.077-0.52-0.48-1.443-0.51-2.039
	s0.317-0.865,0.202-1.375s-0.692-1.26-0.577-2.25c0.115-0.991,0.923-2.222,2.02-3.136c1.097-0.914,2.481-1.51,3.703-1.625
	c1.221-0.115,2.279,0.25,3.27,0.202c0.991-0.048,1.914-0.509,2.828-0.615c0.913-0.106,1.817,0.144,2.837,0.433
	s2.154,0.616,3.279,0.702s2.24-0.067,2.971,0.279c0.731,0.346,1.078,1.192,2.03,1.991s2.51,1.549,3.799,1.885
	s2.309,0.26,2.885,0.596c0.577,0.336,0.712,1.087,1.443,2c0.73,0.914,2.058,1.991,3.924,3.443c1.865,1.452,4.27,3.279,6.068,4.53
	c1.799,1.25,2.991,1.923,4.511,2.981c1.52,1.058,3.365,2.5,4.692,3.549s2.135,1.702,3.116,2.125c0.98,0.423,2.135,0.616,3.02,1.578
	s1.501,2.693,2.327,4.097c0.828,1.404,1.866,2.481,2.828,3.366c0.962,0.885,1.847,1.578,2.462,2.136
	c0.616,0.558,0.962,0.981,1.097,1.731c0.135,0.75,0.058,1.827,0.789,2.577c0.73,0.75,2.27,1.173,4.192,2.058
	c1.924,0.885,4.232,2.231,5.578,3.039c1.347,0.808,1.731,1.077,1.886,1.385c0.153,0.308,0.076,0.654,0.096,2.25
	c0.02,1.596,0.135,4.443,0.424,33.854c0.288,29.41,0.749,85.384,1.066,113.458s0.49,28.247,0.74,28.4s0.577,0.289,0.991,0.5
	c0.413,0.211,0.913,0.5,1.048,1.01c0.135,0.51-0.097,1.241-1.154,2.087c-1.058,0.847-2.942,1.808-3.827,2.915
	c-0.885,1.106-0.77,2.356,0.183,4.011c0.952,1.654,2.741,3.712,3.404,5.155c0.664,1.442,0.202,2.269-0.74,2.952
	c-0.943,0.683-2.366,1.221-3.231,2.606c-0.866,1.385-1.174,3.616-0.731,5.29c0.443,1.673,1.636,2.789,2.136,3.712
	s0.308,1.654-0.327,2.27c-0.635,0.616-1.712,1.116-2.135,2.27c-0.424,1.154-0.192,2.962,1.211,4.309
	c1.404,1.347,3.982,2.231,5.637,2.289c1.654,0.058,2.385-0.712,2.673-1.731c0.289-1.02,0.135-2.289,0.712-2.328
	c0.577-0.038,1.886,1.154,2.866,2.809c0.981,1.654,1.635,3.77,2.827,5.348c1.193,1.577,2.924,2.616,3.771,2.52
	s0.808-1.328,1.462-1.481s2,0.77,3.135,1.616c1.136,0.847,2.059,1.616,3.136,2.02c1.077,0.404,2.309,0.442,3.404,0.75
	c1.097,0.308,2.059,0.885,3.174,1.481c1.116,0.596,2.386,1.211,3.539,1.365c1.154,0.154,2.193-0.154,2.636-0.77
	c0.442-0.615,0.288-1.539,0.865-2.173c0.577-0.635,1.886-0.981,2.943-1.059s1.865,0.116,2.52,0.673
	c0.654,0.558,1.154,1.481,1.77,2.366c0.615,0.884,1.346,1.731,1.73,3.097s0.424,3.25-0.038,4.578s-1.424,2.096-1.174,3.25
	s1.712,2.693,1.712,3.462s-1.462,0.77-3.174,0.558c-1.712-0.212-3.674-0.635-5.231-0.423c-1.559,0.212-2.712,1.058-2.693,1.943
	c0.02,0.885,1.212,1.808,1.924,3.02c0.712,1.211,0.942,2.712,1.327,4.058c0.385,1.347,0.924,2.54,2.059,3.732
	s2.866,2.385,3.876,3.703c1.01,1.317,1.298,2.76,1.096,4.308c-0.202,1.549-0.895,3.203-1.722,4.203s-1.789,1.346-2.212,2.25
	c-0.424,0.904-0.309,2.366-0.674,3.404s-1.212,1.654-2.058,2.059c-0.847,0.404-1.693,0.596-1.904,1.289
	c-0.212,0.692,0.211,1.885,1,3.097c0.788,1.212,1.942,2.442,3.077,3.521c1.136,1.077,2.251,2,2.847,2.712
	c0.597,0.711,0.674,1.211,0.424,2.058s-0.827,2.039-0.635,3.136s1.154,2.097,1.904,2.904c0.75,0.809,1.288,1.423,1.597,2.135
	c0.308,0.712,0.384,1.52,1.019,1.847c0.636,0.327,1.827,0.174,2.924,0.559s2.097,1.308,3.136,2.135
	c1.038,0.827,2.115,1.558,3.347,1.365s2.616-1.308,3.52-2.115c0.904-0.809,1.328-1.309,1.462-2.366
	c0.135-1.058-0.019-2.674,0.385-3.789c0.404-1.116,1.366-1.731,2.462-1.539c1.097,0.192,2.328,1.192,3.713,1.981
	c1.385,0.788,2.924,1.365,4.443,1.692s3.02,0.404,4.154,0.404c1.136,0,1.904-0.077,2.289,0.096s0.385,0.597,0.75,1.635
	c0.366,1.039,1.097,2.693,1.943,4.021s1.808,2.327,2.674,3.481c0.865,1.154,1.635,2.462,1.596,3.616
	c-0.038,1.154-0.885,2.154-0.962,2.942c-0.076,0.789,0.616,1.366,1.616,2.347c1,0.981,2.308,2.366,3.385,3.847
	c1.077,1.481,1.924,3.059,2.347,4.904c0.423,1.847,0.423,3.963,0.154,5.56c-0.27,1.597-0.809,2.674-1.713,3.366
	c-0.903,0.692-2.173,1-3.48,0.211c-1.309-0.788-2.654-2.673-4.443-3.173c-1.789-0.501-4.021,0.384-3.982,1.557
	c0.039,1.174,2.347,2.636,3.097,3.925c0.751,1.288-0.057,2.404-1.558,2.539c-1.5,0.135-3.693-0.712-4.713-0.404
	c-1.019,0.308-0.865,1.77-0.058,3.174c0.809,1.404,2.271,2.751,2.866,4.732c0.597,1.981,0.327,4.597,1.059,5.654
	c0.73,1.059,2.462,0.559,3.827-1.423c1.366-1.981,2.366-5.443,3.481-6.578c1.116-1.135,2.347,0.058,3.212,1.442
	c0.866,1.385,1.366,2.962,2.136,2.924s1.808-1.692,1.635-3.578c-0.173-1.885-1.558-4.001-1.186-5.571
	c0.371-1.571,2.5-2.597,4.27-2.366c1.77,0.231,3.181,1.719,3.674,3.578c0.494,1.858,0.07,4.091,0.128,6.052
	c0.058,1.963,0.597,3.655,1.788,4.655c1.192,1,3.036,1.308,3.69,2.192s0.117,2.346-1.286,3.288s-3.673,1.366-5.365,2.174
	c-1.693,0.808-2.809,2-3.848,2.077c-1.038,0.077-2-0.962-3.097-1.192s-2.327,0.347-2.904,1.231s-0.5,2.077-1.27,2.48
	c-0.77,0.404-2.385,0.02-2.77,0.385c-0.385,0.366,0.461,1.481,0.519,2.616c0.059,1.135-0.673,2.289-1.98,3.481
	c-1.308,1.193-3.193,2.424-4.232,3.674c-1.038,1.251-1.23,2.52-2.404,2.789c-1.173,0.27-3.327-0.462-3.904-0.096
	c-0.577,0.365,0.423,1.827,0.288,2.75c-0.135,0.924-1.404,1.309-2.77,1.386c-1.366,0.076-2.827-0.154-3.347-1.001
	s-0.097-2.308-0.597-3.231c-0.5-0.923-1.923-1.308-2.654-0.846c-0.73,0.462-0.77,1.77-0.558,3.058
	c0.212,1.289,0.673,2.559,0.25,3.29c-0.423,0.73-1.731,0.923-2.501,0.23c-0.769-0.692-1-2.27-1.653-3.327
	c-0.654-1.059-1.731-1.597-1.828-2.289c-0.096-0.693,0.789-1.539,1.443-2.655c0.653-1.115,1.076-2.5,0.519-3.308
	c-0.558-0.809-2.097-1.039-3.308-0.674c-1.212,0.366-2.097,1.327-2.809,1.597s-1.251-0.154-2.059-1.231
	c-0.808-1.076-1.885-2.808-2.924-3.058c-1.038-0.25-2.038,0.98-2.038,2.52s1,3.385,2.038,4.886c1.039,1.5,2.116,2.654,2.404,3.751
	c0.289,1.097-0.211,2.135-0.403,3.77s-0.077,3.866-0.692,4.943c-0.616,1.077-1.962,1.001-3.154,0.289
	c-1.193-0.712-2.231-2.059-2.655-3.943c-0.423-1.885-0.23-4.309-0.788-6.021c-0.559-1.712-1.866-2.712-2.924-2.731
	c-1.059-0.02-1.866,0.942-1.693,2.424c0.174,1.48,1.328,3.481,1.789,5.039c0.462,1.559,0.231,2.674-0.712,3.097
	c-0.942,0.424-2.596,0.154-4.097-0.115c-1.5-0.27-2.847-0.538-3.115-1.404c-0.27-0.865,0.538-2.327,0.461-3.193
	c-0.077-0.865-1.039-1.134-1.559-1.038c-0.519,0.097-0.596,0.558-0.98,1.212s-1.077,1.5-1.692,1.173
	c-0.616-0.326-1.154-1.827-1.674-3.077s-1.02-2.25-2.385-2.039c-1.366,0.212-3.598,1.635-3.655,3.154s2.059,3.136,3.193,4.655
	s1.289,2.942,1.23,4.289c-0.058,1.347-0.327,2.616-0.173,3.771c0.154,1.153,0.73,2.192,0.519,3.115
	c-0.211,0.924-1.211,1.731-1.653,3.213c-0.442,1.48-0.327,3.636-0.135,5.424c0.192,1.789,0.462,3.213,0.058,4.175
	c-0.404,0.961-1.48,1.461-2.52,0.941c-1.039-0.519-2.039-2.058-2.424-3.866c-0.385-1.808-0.154-3.885-0.692-5.231
	c-0.539-1.347-1.847-1.962-2.404-2.904c-0.558-0.943-0.366-2.212-0.674-3.193c-0.308-0.98-1.115-1.673-2.289-1.673
	c-1.173,0-2.712,0.692-3.924,1.846c-1.211,1.154-2.096,2.771-2.924,4.386c-0.826,1.616-1.596,3.231-2.808,3.231
	s-2.866-1.615-3.213-3.385c-0.346-1.77,0.615-3.693,1.309-5.867c0.692-2.173,1.115-4.597,0.942-5.943s-0.942-1.615-1.77-0.808
	s-1.712,2.692-2.654,4.674c-0.943,1.981-1.943,4.059-2.789,4.328c-0.847,0.269-1.539-1.27-1.886-3.059
	c-0.346-1.789-0.346-3.828-0.981-4.463c-0.634-0.634-1.903,0.135-2.5,1.462c-0.596,1.327-0.519,3.213-0.538,4.521
	c-0.02,1.309-0.135,2.039-0.789,2.442c-0.654,0.404-1.847,0.481-2.289,1.289s-0.134,2.347-0.134,3.635
	c0,1.29-0.309,2.328-0.251,3.925s0.48,3.75,0.654,6.174c0.173,2.424,0.096,5.116-0.788,6.233c-0.885,1.117-2.576,0.658-3.499-0.957
	c-0.924-1.616-1.079-4.389-1.521-6.91c-0.443-2.521-1.174-4.79-2.021-5.56c-0.846-0.77-1.808-0.038-2,2.347
	c-0.192,2.386,0.385,6.425-0.212,8.387c-0.596,1.962-2.365,1.847-3.231-0.308c-0.865-2.154-0.826-6.348-1.423-8.771
	s-1.827-3.078-3.059-2.828c-1.231,0.251-2.462,1.404-2.809,3.328s0.192,4.616,0.669,7.262c0.478,2.646,0.894,5.243,0.605,6.821
	c-0.289,1.577-1.281,2.133-2.048,3.065c-0.766,0.933-1.305,2.24-1.901,3.163s-1.25,1.462-2.02,0.865
	c-0.77-0.596-1.654-2.327-1.904-4.001c-0.25-1.673,0.135-3.289-0.558-3.674s-2.462,0.462-3.463-0.02c-1-0.48-1.23-2.288-1.73-4.212
	s-1.27-3.963-0.789-5.386c0.481-1.424,2.212-2.231,2.424-3.328c0.212-1.096-1.097-2.481-2.693-3.52
	c-1.597-1.039-3.481-1.731-4.404-0.962c-0.924,0.77-0.885,3.001-1.712,3.866c-0.827,0.866-2.52,0.365-3.521-0.615
	c-1-0.98-1.308-2.443-2.251-3.693c-0.942-1.25-2.52-2.289-3.559-3.578c-1.038-1.288-1.539-2.827-0.27-3.924
	c1.27-1.096,4.309-1.75,5.175-2.789c0.865-1.038-0.442-2.462-2.636-2.73c-2.192-0.27-5.271,0.615-7.502,1.962
	c-2.23,1.346-3.615,3.154-3.212,5.251c0.404,2.097,2.597,4.481,4.001,6.463s2.02,3.559,1.366,4.616
	c-0.654,1.058-2.578,1.597-4.521,2.231s-3.904,1.365-4.981,0.346c-1.077-1.019-1.27-3.789-1.731-4.809s-1.192-0.288-1.52,1.039
	s-0.25,3.251-0.75,4.366c-0.501,1.116-1.577,1.423-2.539,2.924c-0.962,1.5-1.809,4.193-2.771,5.213
	c-0.961,1.02-2.038,0.365-2.577-0.981s-0.539-3.385-0.115-5.886c0.423-2.501,1.27-5.463,1.442-7.425s-0.327-2.924-1.212-3.231
	s-2.154,0.039-3.251,0.75c-1.096,0.712-2.02,1.789-2.308,3.213c-0.289,1.423,0.058,3.192-0.115,4.827
	c-0.174,1.636-0.866,3.136-2.136,4.328c-1.27,1.193-3.115,2.077-4.462,2.02s-2.193-1.058-3.251-0.77
	c-1.058,0.289-2.327,1.866-2.251,3.251c0.077,1.386,1.501,2.577,2.154,4.059c0.654,1.481,0.539,3.251-0.058,4.713
	c-0.596,1.462-1.673,2.616-1.75,4.02c-0.077,1.404,0.847,3.059,1.635,3.521c0.789,0.462,1.443-0.27,2.231-0.192
	s1.712,0.962,2.365,2.442c0.654,1.481,1.039,3.559,0.788,5.059c-0.25,1.501-1.134,2.424-2.558,2.212
	c-1.424-0.211-3.386-1.558-5.386-2.962c-2.001-1.404-4.039-2.866-5.943-4.001c-1.905-1.135-3.674-1.942-5.982-2.942
	c-2.309-1.001-5.155-2.192-6.887-3.501c-1.73-1.308-2.346-2.731-3.173-2.847s-1.866,1.077-3.136,2.192
	c-1.27,1.116-2.77,2.154-4.348,1.597c-1.577-0.558-3.23-2.712-3.52-4.443c-0.288-1.731,0.789-3.039,2.442-3.577
	c1.654-0.539,3.886-0.309,5.002-0.616c1.115-0.308,1.115-1.154,0.653-1.942c-0.461-0.789-1.385-1.52-1.27-2.616
	c0.116-1.097,1.27-2.558,2.559-3.116c1.289-0.558,2.712-0.211,4.539,1.327c1.828,1.539,4.059,4.271,5.578,5.271
	c1.521,1,2.328,0.27,2.539-0.885c0.212-1.154-0.173-2.73-1.365-4.251c-1.192-1.52-3.193-2.98-3.828-4.097
	c-0.635-1.115,0.097-1.885,0.423-3.174c0.327-1.288,0.25-3.097-0.442-4.154s-2-1.365-3.135-0.942s-2.097,1.577-3.616,3.52
	c-1.52,1.943-3.597,4.674-5.29,6.675c-1.692,2.001-3,3.27-4.02,2.674c-1.02-0.597-1.751-3.059-0.962-5.117
	c0.789-2.058,3.097-3.712,4.963-5.636c1.865-1.923,3.289-4.116,4.077-6.598c0.789-2.48,0.942-5.251,0.192-6.866
	c-0.75-1.616-2.404-2.077-3.886-2.405c-1.48-0.326-2.788-0.519-3.365,0.521c-0.577,1.038-0.424,3.308-0.327,5.501
	c0.097,2.192,0.135,4.309-1.02,5.905c-1.154,1.596-3.501,2.673-5.328,3.636c-1.827,0.962-3.136,1.808-4.232,2.653
	c-1.096,0.847-1.981,1.693-3.175,2.386c-1.192,0.692-2.692,1.231-4.309,1.309c-1.615,0.076-3.347-0.309-4.27,0.211
	c-0.924,0.52-1.039,1.943-0.577,3.443s1.5,3.077,2.654,4.289s2.424,2.059,2.674,3.405s-0.52,3.192-0.942,4.77
	c-0.424,1.578-0.5,2.886-1.539,3.674c-1.039,0.789-3.039,1.059-4.001,1.904c-0.962,0.847-0.885,2.271-1.385,3.578
	c-0.5,1.309-1.577,2.5-2.443,3.847c-0.865,1.347-1.52,2.847-2.173,4.405c-0.654,1.558-1.308,3.174-1.943,4.616
	s-1.25,2.712-1.923,4.366s-1.404,3.692-2.174,5.559s-1.577,3.559-0.827,3.924c0.75,0.365,3.058-0.596,4.866-0.52
	c1.808,0.077,3.116,1.193,3.404,2.521c0.289,1.327-0.442,2.865-1.577,4.097c-1.135,1.231-2.673,2.154-4.001,3.154
	c-1.327,1.001-2.442,2.077-3.539,1.347c-1.096-0.731-2.173-3.27-3.155-3.636c-0.981-0.365-1.865,1.443-1.808,2.771
	s1.058,2.173,1.442,3.115c0.385,0.943,0.154,1.981-0.789,2.559c-0.942,0.577-2.597,0.692-3.962,0.789
	c-1.366,0.096-2.443,0.173-2.847,0.673c-0.404,0.5-0.135,1.424,0,2.751s0.135,3.059-1.27,4.713s-4.213,3.231-6.079,3.77
	c-1.866,0.539-2.789,0.038-3.559-0.942c-0.769-0.981-1.385-2.443-0.942-4.116c0.442-1.674,1.942-3.559,4.289-5.886
	c2.347-2.328,5.54-5.098,7.348-7.464c1.808-2.365,2.231-4.327,1.943-5.271c-0.289-0.942-1.289-0.865-2.617,0.097
	c-1.327,0.962-2.981,2.809-4.636,4.654c-1.654,1.847-3.308,3.693-4.962,5.348s-3.308,3.116-4.674,3.521
	c-1.366,0.403-2.443-0.25-3.424,0.134c-0.981,0.386-1.866,1.809-2.866,1.943c-1,0.135-2.116-1.02-2.943-2.347
	s-1.366-2.827-0.558-4.443c0.808-1.616,2.962-3.347,3.943-4.751s0.789-2.481-0.404-3.424s-3.385-1.75-5.232-1.192
	s-3.347,2.481-3.712,4.52c-0.365,2.039,0.404,4.193,0.404,5.848s-0.769,2.809-1.635,3.501s-1.828,0.923-2.635,2.539
	c-0.808,1.616-1.462,4.616-2.173,7.463c-0.712,2.847-1.482,5.54-2.559,8.155c-1.078,2.616-2.462,5.155-3.578,5.386
	c-1.116,0.23-1.962-1.847-2.231-3.731c-0.27-1.885,0.038-3.577-0.693-4.578c-0.731-1-2.5-1.308-3.616-0.038
	s-1.577,4.116-1.962,6.732s-0.692,5.001-1.692,6.116c-1,1.116-2.693,0.962-3.655-0.192s-1.193-3.308-1.616-3.385
	c-0.423-0.077-1.039,1.923-1.616,3.693c-0.577,1.77-1.116,3.308-2.462,3.154c-1.347-0.154-3.501-2.001-3.732-3.925
	c-0.231-1.923,1.462-3.924,2-5.771c0.539-1.846-0.077-3.539-0.346-5.962c-0.269-2.424-0.192-5.578-0.539-7.579
	c-0.346-2-1.116-2.847-2.154-2.231s-2.347,2.693-2.731,5.54c-0.384,2.847,0.154,6.463-0.269,9.425s-1.808,5.271-2.116,7.463
	c-0.308,2.193,0.461,4.271-0.039,5.963c-0.5,1.693-2.27,3.001-3.462,2.347c-1.193-0.653-1.808-3.27-2-5.77
	c-0.192-2.501,0.039-4.887-0.385-6.425c-0.423-1.539-1.5-2.231-2.5-1.424c-1,0.808-1.924,3.116-1.962,5.732
	c-0.039,2.616,0.808,5.54,1.231,7.502s0.423,2.962-0.577,4.309c-1,1.347-3,3.039-4.539,3.616c-1.539,0.576-2.616,0.038-3.117-2.116
	c-0.5-2.154-0.423-5.924-0.192-9.04c0.23-3.116,0.615-5.579,0.346-8.002c-0.27-2.424-1.192-4.81-2-5.502
	c-0.808-0.691-1.5,0.309-1.693,2.309s0.116,5.001-1.423,7.656c-1.539,2.653-4.925,4.962-7.579,7.001s-4.578,3.809-6.463,4.154
	c-1.885,0.347-3.732-0.73-3.193-2.692c0.538-1.962,3.462-4.809,5.501-7.464c2.039-2.653,3.193-5.116,3.27-7.116
	c0.077-2.001-0.923-3.539-2.462-3.578c-1.539-0.038-3.616,1.424-4.847,2.578c-1.231,1.153-1.616,2-2.962,1.615
	c-1.346-0.385-3.654-2-5.693-1.385s-3.809,3.462-5.348,5.54c-1.539,2.077-2.846,3.385-4.077,4.193
	c-1.231,0.808-2.385,1.115-3.732,2.885s-2.885,5.001-4.27,7.04c-1.385,2.039-2.616,2.886-2.655,4.693
	c-0.038,1.808,1.116,4.578,2.193,6.655c1.077,2.077,2.077,3.462,2.808,5.271c0.731,1.808,1.192,4.039,1.231,5.539
	c0.038,1.501-0.346,2.271-1.192,2.693c-0.847,0.423-2.154,0.5-3.501,0.962s-2.731,1.308-3.809,1.115s-1.847-1.423-2.847-1.077
	c-1,0.347-2.231,2.27-3.385,2.693c-1.154,0.423-2.231-0.654-3.5-0.424c-1.27,0.231-2.731,1.771-3.501,3.963s-0.847,5.04-0.539,7.001
	c0.308,1.963,1,3.039,0.769,4.463s-1.384,3.193-2.154,4.463c-0.769,1.27-1.154,2.038-2.308,2.462
	c-1.154,0.423-3.078,0.5-4.347,2.115c-1.27,1.616-1.885,4.771-2.732,6.271c-0.846,1.5-1.923,1.346-3.154,1.115
	s-2.616-0.539-4.27-0.346c-1.654,0.192-3.578,0.885-5.347,2.847c-1.77,1.962-3.386,5.193-4.193,7.54
	c-0.808,2.347-0.808,3.809-0.5,5.155c0.308,1.346,0.923,2.577,0.461,4.385c-0.461,1.809-2,4.193-3.231,6.655
	s-2.154,5.001-3.309,7.348s-2.539,4.502-3.77,6.234c-1.231,1.731-2.308,3.042-3.462,2.696c-1.154-0.347-2.385-2.35-3.654-2.851
	c-1.27-0.501-2.578,0.499-3.924,0.422c-1.347-0.077-2.731-1.231-5.117-2.809s-5.771-3.577-6.809-5.655
	c-1.039-2.077,0.269-4.231,1.077-6.539c0.808-2.309,1.116-4.771,1-6.579c-0.115-1.808-0.654-2.962-1.539-3.962
	s-2.116-1.847-3.731-3.154c-1.616-1.309-3.617-3.078-4.655-4.963s-1.116-3.886-2.193-5.04s-3.154-1.462-4.847-2.23
	c-1.693-0.77-3-2.001-4.04-3.81c-1.039-1.808-1.808-4.193-1.577-6.116c0.23-1.924,1.461-3.385,2.347-4.886
	c0.884-1.5,1.423-3.039,1.077-4.271c-0.346-1.23-1.577-2.153-1.654-3.115c-0.077-0.962,1-1.962,1.692-3.309s1-3.039,0.731-4.271
	c-0.27-1.23-1.116-2-1.039-2.924c0.077-0.923,1.077-2,0.846-2.962s-1.692-1.808-2.347-2.654c-0.654-0.847-0.5-1.692-0.423-4.001
	c0.077-2.308,0.077-6.078-2-48.607c-2.078-42.528-6.232-123.815-8.464-166.595c-2.231-42.778-2.539-47.048-2.481-49.356
	c0.058-2.309,0.48-2.654,0.846-2.808c0.365-0.154,0.673-0.116,1.558,0c0.885,0.116,2.347,0.308,3.712,0
	c1.366-0.308,2.635-1.115,2.904-1.98c0.269-0.866-0.461-1.789-0.096-2.655c0.365-0.866,1.827-1.674,2.866-1.385
	c1.039,0.288,1.654,1.673,2.404,1.923c0.75,0.25,1.635-0.635,2.635-0.577s2.116,1.058,3.174,2.328
	c1.058,1.27,2.058,2.808,2.404,4.116c0.346,1.308,0.039,2.385,0.116,3.635c0.077,1.251,0.538,2.674,1.404,4.001
	c0.865,1.327,2.135,2.558,3.405,2.904s2.539-0.192,2.808-1.154c0.27-0.962-0.461-2.347-0.308-3.27
	c0.154-0.923,1.192-1.385,1.52-2.385s-0.058-2.539,0.539-3.405c0.597-0.865,2.173-1.058,3.097-1.673
	c0.923-0.616,1.193-1.654,0.75-2.693c-0.443-1.039-1.597-2.077-1.481-3.154s1.5-2.193,1.52-3.366
	c0.02-1.174-1.327-2.404-1.539-3.867c-0.211-1.461,0.711-3.154,1.924-4.462c1.211-1.308,2.712-2.231,4.097-2.366
	c1.385-0.135,2.655,0.519,3.616,1.923c0.962,1.404,1.616,3.559,3.27,4.385c1.654,0.827,4.309,0.327,6.021,0.827s2.481,2,3.578,2.289
	c1.096,0.288,2.52-0.635,2.981-2.077c0.462-1.443-0.039-3.405-1.27-5.098s-3.193-3.116-5.251-4.77s-4.212-3.54-4.778-5.626
	S85.39,356.373,86.363,354.613L86.363,354.613z M167.434,630.161c-1-0.308-2.847-0.423-3.751,0.192s-0.866,1.962-1.558,2.981
	s-2.116,1.712-3.328,3.077c-1.212,1.366-2.212,3.405-2.828,4.655c-0.616,1.251-0.846,1.712-0.866,2.693
	c-0.019,0.98,0.173,2.48,1.02,2.924c0.846,0.442,2.347-0.174,3.481-1.347c1.135-1.174,1.904-2.904,2.866-4.348
	c0.962-1.442,2.116-2.597,2.943-3.751c0.827-1.153,1.327-2.308,1.827-3.27c0.5-0.962,1-1.731,1.173-2.366
	C168.587,630.969,168.434,630.469,167.434,630.161L167.434,630.161z M316.274,562.916c1.077-0.73,2.654-1.923,4.212-3.731
	c1.559-1.808,3.098-4.231,3.886-6.655c0.789-2.424,0.827-4.848,1.327-6.675s1.462-3.058,2.021-4.886
	c0.558-1.827,0.711-4.25-0.039-5.904s-2.404-2.539-3.616-2.271c-1.212,0.27-1.98,1.693-2.424,3.443
	c-0.442,1.75-0.558,3.828-1.02,5.675c-0.461,1.847-1.27,3.462-2.192,5.02c-0.923,1.559-1.962,3.059-2.828,4.501
	c-0.865,1.443-1.558,2.828-1.903,4.193c-0.347,1.366-0.347,2.713-0.231,4.136c0.115,1.424,0.347,2.924,0.75,3.539
	C314.62,563.916,315.197,563.647,316.274,562.916L316.274,562.916z M332.566,590.095c1.289-0.635,2.866-1.904,3.981-3.251
	c1.116-1.346,1.77-2.77,1.539-4.039s-1.346-2.385-2.366-3.366c-1.019-0.98-1.942-1.827-2.154-2.808
	c-0.211-0.981,0.289-2.097-0.076-2.905c-0.366-0.808-1.597-1.308-1.654-2.212c-0.058-0.903,1.058-2.212,1.077-3.616
	c0.019-1.403-1.058-2.904-2.366-3.289c-1.308-0.385-2.847,0.347-4.097,1.154c-1.251,0.808-2.212,1.692-3.386,2.347
	c-1.174,0.653-2.559,1.077-3.847,2.501c-1.289,1.423-2.481,3.847-2.751,5.386c-0.27,1.538,0.385,2.192,1.347,2.038
	c0.962-0.153,2.231-1.115,2.808-0.673c0.578,0.442,0.462,2.289,0.771,3.578c0.308,1.288,1.038,2.02,2,2.423
	c0.962,0.404,2.154,0.481,2.539,1.327c0.385,0.847-0.038,2.463,0.385,3.598s1.692,1.789,2.827,2.115
	C330.277,590.729,331.277,590.729,332.566,590.095L332.566,590.095z M357.745,577.977c-0.808,0.866-1.654,2.366-2.616,3.654
	c-0.962,1.289-2.038,2.366-2.5,3.886c-0.462,1.521-0.308,3.481-0.347,4.982c-0.038,1.5-0.269,2.539,0.462,3.116
	c0.731,0.577,2.424,0.692,3.827,0.577c1.405-0.115,2.521-0.462,3.521-1.27c1-0.809,1.886-2.077,2.251-3.655
	c0.365-1.577,0.212-3.462-0.25-5.616s-1.231-4.578-2.001-5.675C359.322,576.881,358.553,577.111,357.745,577.977L357.745,577.977z
	 M351.09,573.11c2.462-0.115,4.693-1.808,5.078-3.559c0.385-1.75-1.077-3.559-0.923-5.097c0.153-1.539,1.923-2.809,2.635-4.232
	s0.366-3-1.115-4.462s-4.098-2.809-6.425-3.098c-2.327-0.288-4.366,0.481-5.386,2.193s-1.02,4.366-0.731,6.098
	c0.289,1.731,0.866,2.539,0.75,3.942c-0.115,1.404-0.923,3.405,0.02,5.137S348.628,573.226,351.09,573.11L351.09,573.11z
	 M389.041,574.072c0.904-1.309,1.212-3.693,0.904-5.482s-1.23-2.981-2.347-3.539s-2.424-0.481-3.289,0.038s-1.289,1.481-1.904,1.52
	c-0.615,0.039-1.424-0.846-2.539-0.885c-1.115-0.038-2.539,0.77-4.251,1.751s-3.712,2.135-3.848,3.212
	c-0.134,1.077,1.597,2.077,3.193,2.154s3.059-0.77,4.731-0.423c1.675,0.347,3.559,1.885,5.252,2.539
	C386.637,575.61,388.137,575.38,389.041,574.072L389.041,574.072z M405.911,551.105c2.115-0.615,4.924-1.847,6.809-3.289
	c1.886-1.442,2.848-3.097,3.271-5.021c0.423-1.923,0.308-4.116-0.48-5.771c-0.789-1.654-2.251-2.77-3.732-3.731
	c-1.48-0.962-2.98-1.77-3.674-3.097c-0.692-1.327-0.576-3.174-1.712-3.886c-1.135-0.712-3.52-0.288-5.501,0.038
	c-1.981,0.327-3.559,0.559-4.732,1.289c-1.173,0.731-1.941,1.962-2.808,3.289c-0.865,1.328-1.827,2.751-3.251,4.193
	c-1.423,1.443-3.309,2.904-4.193,4.501c-0.884,1.597-0.77,3.328-1.327,5.193c-0.558,1.866-1.789,3.866-1.23,5.925
	c0.558,2.059,2.904,4.174,5.636,5.79c2.731,1.615,5.848,2.73,7.887,2.673s3-1.288,2.808-2.539c-0.192-1.25-1.539-2.52-2.077-4.154
	c-0.539-1.635-0.27-3.636,0.423-3.828s1.809,1.424,3.078,2.231S403.795,551.721,405.911,551.105z"/>
</svg>
