<?xml version="1.0" encoding="utf-8"?>
<!-- Generator: Adobe Illustrator 15.1.0, SVG Export Plug-In . SVG Version: 6.00 Build 0)  -->
<!DOCTYPE svg PUBLIC "-//W3C//DTD SVG 1.1//EN" "http://www.w3.org/Graphics/SVG/1.1/DTD/svg11.dtd">
<svg version="1.1" id="Layer_1" xmlns="http://www.w3.org/2000/svg" xmlns:xlink="http://www.w3.org/1999/xlink" x="0px" y="0px"
	 width="792px" height="612px" viewBox="0 0 792 612" enable-background="new 0 0 792 612" xml:space="preserve">
<path fill-rule="evenodd" clip-rule="evenodd" stroke="#000000" stroke-width="2.9999" stroke-linecap="round" stroke-linejoin="round" stroke-miterlimit="22.9256" d="
	M676.835,146.084c0.127,0.667,0.373,1.22,0.879,1.695s1.273,0.875,2.332,1.626c1.059,0.752,2.408,1.856,3.314,3.388
	c0.906,1.531,1.368,3.488,1.783,5.939c0.415,2.451,0.783,5.397,2.378,6.563c1.596,1.166,4.419,0.553,6.689,0.123
	c2.271-0.43,3.989-0.675,4.909,0c0.921,0.675,1.044,2.271,2.025,3.007c0.982,0.736,2.823,0.614,3.621,1.166s0.552,1.779,1.228,2.823
	c0.675,1.043,2.271,1.902,2.147,3.007c-0.123,1.105-1.964,2.455-1.657,3.376c0.308,0.92,2.762,1.411,3.928,2.577
	c1.166,1.166,1.044,3.007,0.982,4.971s-0.062,4.05,0.184,6.198c0.246,2.147,0.737,4.357,0.982,6.628
	c0.245,2.271,0.245,4.602-0.185,6.259c-0.43,1.657-1.288,2.639-0.92,4.173c0.368,1.534,1.963,3.62,2.884,5.155
	c0.921,1.534,1.166,2.516,1.289,4.05c0.122,1.534,0.122,3.62,1.166,5.584c1.043,1.964,3.13,3.805,5.216,4.357
	c2.087,0.553,4.173-0.184,5.646,0.307c1.474,0.491,2.332,2.209,3.468,3.437c1.136,1.228,2.547,1.964,4.479,2.148
	c1.934,0.184,4.388-0.184,5.861,0.399c1.473,0.583,1.964,2.117,3.528,2.24c1.565,0.123,4.204-1.166,5.554-0.89
	c1.351,0.276,1.412,2.117,1.688,3.59c0.276,1.473,0.768,2.577,1.657,3.835c0.89,1.258,2.179,2.669,2.516,3.621
	c0.338,0.951-0.275,1.442-1.441,1.963s-2.884,1.075-4.174,1.596c-1.288,0.521-2.147,1.012-2.577,1.964
	c-0.43,0.951-0.43,2.362-1.166,3.099s-2.209,0.798-3.712,1.596c-1.504,0.798-3.038,2.332-3.867,3.897
	c-0.828,1.565-0.951,3.161-1.595,4.327c-0.645,1.166-1.811,1.902-2.179,3.007c-0.368,1.104,0.062,2.577-0.031,3.805
	c-0.092,1.227-0.705,2.209-1.288,3.313s-1.136,2.332-1.964,3.375c-0.829,1.043-1.934,1.902-2.7,2.823
	c-0.768,0.921-1.197,1.902-2.793,3.007c-1.595,1.105-4.356,2.332-6.075,3.498c-1.718,1.166-2.394,2.271-1.688,3.007
	c0.706,0.736,2.792,1.104,2.577,2.025c-0.214,0.92-2.73,2.393-4.173,3.559s-1.811,2.025-2.316,2.946
	c-0.506,0.92-1.15,1.902-2.071,2.73c-0.92,0.829-2.116,1.504-3.19,2.041c-1.074,0.537-2.025,0.936-2.992,1.227
	c-0.966,0.292-1.948,0.476-2.776,1.105c-0.829,0.629-1.504,1.702-1.749,2.47c-0.246,0.767-0.062,1.228,0.353,1.749
	s1.059,1.104,1.228,1.765c0.169,0.659-0.139,1.396,0.245,2.301s1.458,1.979,2.455,3.16c0.997,1.182,1.918,2.471,2.362,3.591
	s0.414,2.071,1.027,3.068s1.871,2.041,2.316,3.13c0.444,1.089,0.076,2.225-0.537,2.823c-0.614,0.598-1.473,0.659-2.439,0.874
	s-2.04,0.583-2.209,1.335s0.567,1.887,0.629,2.854s-0.553,1.765-1.442,2.869s-2.056,2.516-2.931,3.391
	c-0.874,0.874-1.457,1.212-2.224,1.119c-0.768-0.092-1.719-0.613-2.394-0.46s-1.074,0.982-1.535,1.703
	c-0.46,0.721-0.981,1.335-1.626,1.948c-0.644,0.614-1.411,1.228-1.181,1.749c0.229,0.521,1.457,0.951,1.733,1.734
	c0.276,0.782-0.399,1.917-1.043,3.16c-0.645,1.242-1.259,2.593-1.028,3.391s1.304,1.043,1.994,1.319s0.998,0.583,1.166,1.12
	c0.169,0.537,0.2,1.304-0.261,2.178c-0.46,0.875-1.411,1.856-1.642,2.823s0.261,1.918,0.245,2.945
	c-0.015,1.028-0.537,2.133-0.736,2.977s-0.076,1.427-0.046,2.225c0.031,0.798-0.03,1.811-0.03,2.746s0.062,1.795,0.828,2.225
	s2.24,0.43,3.176-0.107s1.335-1.61,1.918-2.163c0.583-0.552,1.35-0.583,2.593-0.062c1.242,0.521,2.961,1.596,4.065,2.531
	c1.104,0.937,1.596,1.734,2.194,3.054c0.598,1.319,1.304,3.16,1.503,4.939c0.199,1.78-0.107,3.498-0.322,4.986
	s-0.337,2.747-0.153,3.651c0.184,0.905,0.675,1.457,0.689,2.438s-0.445,2.394,0.092,3.805c0.537,1.412,2.071,2.823,3.513,2.899
	c1.442,0.077,2.793-1.181,4.066-1.288s2.47,0.936,3.498,2.147c1.027,1.212,1.887,2.593,2.24,4.05
	c0.353,1.458,0.199,2.992,0.889,4.45c0.691,1.457,2.225,2.838,3.76,3.498c1.534,0.659,3.068,0.598,4.402,1.994
	c1.335,1.396,2.471,4.25,3.146,6.214s0.89,3.038,1.964,3.958c1.074,0.921,3.007,1.688,4.525,2.394
	c1.52,0.706,2.623,1.351,3.313,2.133s0.967,1.703,1.105,2.577c0.138,0.875,0.138,1.703,0.92,2.593
	c0.783,0.89,2.348,1.841,3.269,2.746c0.92,0.905,1.196,1.765,0.874,2.777s-1.242,2.179-2.332,2.854
	c-1.089,0.675-2.347,0.859-3.099,1.288c-0.752,0.43-0.998,1.105-1.796,1.381c-0.797,0.276-2.147,0.153-2.976-0.046
	c-0.829-0.199-1.136-0.476-1.765-0.169c-0.629,0.308-1.58,1.197-2.163,2.01c-0.583,0.813-0.798,1.55-1.488,2.439
	c-0.69,0.891-1.856,1.934-2.854,2.624s-1.825,1.027-2.977,1.135c-1.15,0.107-2.623-0.015-3.988,0.43
	c-1.366,0.445-2.624,1.458-3.989,2.577c-1.365,1.12-2.839,2.348-4.128,3.544c-1.288,1.196-2.394,2.363-3.467,3.146
	c-1.074,0.782-2.117,1.182-3.237,2.117s-2.316,2.408-3.62,3.237c-1.305,0.828-2.717,1.013-3.943,1.549
	c-1.228,0.537-2.271,1.427-2.746,2.547s-0.384,2.47-0.046,3.329c0.337,0.859,0.92,1.228,1.089,2.117s-0.076,2.302-0.414,3.36
	s-0.768,1.765-1.657,2.086c-0.89,0.322-2.239,0.262-3.345,0.399c-1.104,0.138-1.963,0.476-2.854,1.228
	c-0.89,0.751-1.811,1.918-3.007,2.761c-1.196,0.844-2.669,1.366-4.372,1.627s-3.637,0.261-5.247,0.138
	c-1.611-0.123-2.9-0.368-4.25-0.138s-2.762,0.936-4.373,2.286c-1.61,1.35-3.421,3.344-4.694,4.402
	c-1.272,1.059-2.009,1.181-2.96,0.552s-2.118-2.01-4.005-3.084c-1.887-1.073-4.495-1.841-7.349-2.224
	c-2.854-0.384-5.953-0.384-8.729-0.246c-2.777,0.139-5.232,0.415-7.871,1.534c-2.639,1.12-5.461,3.084-7.533,4.925
	c-2.07,1.841-3.39,3.56-4.479,5.201c-1.089,1.642-1.948,3.206-2.439,4.296c-0.49,1.089-0.613,1.703-0.721,2.01
	s-0.199,0.307-0.521,0.314s-0.875,0.022-3.499,0.03s-7.318,0.008-56.505-0.016s-142.865-0.069-237.817-0.031
	s-191.176,0.161-239.312,0.223c-48.135,0.061-48.182,0.062-48.243,0.062s-0.138,0-0.181-0.161c-0.042-0.161-0.049-0.483-0.053-1.661
	c-0.004-1.178-0.004-3.21-0.016-13.278s-0.034-28.172-0.076-50.265s-0.104-48.175-0.134-73.09s-0.031-48.664-0.062-79.778
	s-0.092-69.591-0.154-95.611s-0.123-39.583-0.062-46.364c0.062-6.781,0.246-6.781,2.179-7.548s5.615-2.301,10.678-4.357
	c5.063-2.056,11.506-4.633,16.784-7.18s9.389-5.063,11.905-6.842c2.517-1.78,3.437-2.823,4.204-4.449
	c0.767-1.626,1.381-3.836,2.593-5.493c1.212-1.657,3.022-2.762,4.434-3.299c1.411-0.537,2.424-0.506,2.931,0.2
	c0.506,0.705,0.506,2.086,0.844,2.991c0.337,0.905,1.013,1.335,2.501,0.583c1.488-0.752,3.789-2.686,6.889-4.726
	c3.099-2.041,6.995-4.188,9.833-5.677c2.838-1.488,4.618-2.316,5.968-2.731c1.35-0.414,2.271-0.414,3.391-1.12
	c1.12-0.706,2.439-2.117,3.682-2.961s2.409-1.12,3.298-1.289c0.89-0.169,1.503-0.23,1.795-0.169c0.292,0.061,0.26,0.246,0.245,4.188
	c-0.015,3.943-0.015,11.645-0.031,18.487c-0.015,6.843-0.045,12.826,0.077,15.849c0.123,3.022,0.399,3.083,0.537,3.375
	c0.138,0.291,0.138,0.813,0.138,1.258c0,0.445,0,0.813,0.322,0.982c0.322,0.168,0.966,0.138,5.615,0.077
	c4.648-0.062,13.301-0.153,53.881-0.123s113.085,0.184,195.303,0.261c82.217,0.077,174.147,0.077,224.04,0.083
	c49.892,0.006,57.747,0.019,61.763,0.026s4.192,0.01,4.284,0.403C676.701,144.634,676.709,145.417,676.835,146.084z"/>
</svg>
