<?xml version="1.0" encoding="utf-8"?>
<!-- Generator: Adobe Illustrator 15.1.0, SVG Export Plug-In . SVG Version: 6.00 Build 0)  -->
<!DOCTYPE svg PUBLIC "-//W3C//DTD SVG 1.1//EN" "http://www.w3.org/Graphics/SVG/1.1/DTD/svg11.dtd">
<svg version="1.1" id="Layer_1" xmlns="http://www.w3.org/2000/svg" xmlns:xlink="http://www.w3.org/1999/xlink" x="0px" y="0px"
	 width="792px" height="612px" viewBox="0 0 792 612" enable-background="new 0 0 792 612" xml:space="preserve">
<path fill-rule="evenodd" clip-rule="evenodd" stroke="#000000" stroke-width="2.9999" stroke-linecap="round" stroke-linejoin="round" stroke-miterlimit="22.9256" d="
	M103.74,111.329c67.313,0.008,200.724,0.008,308.012,0.008c107.287,0,188.451,0,229.104-0.002
	c40.653-0.003,40.797-0.008,40.915,0.013c0.118,0.02,0.211,0.066,0.585,0.544c0.375,0.478,1.032,1.387,2.085,2.403
	c1.052,1.017,2.5,2.141,3.86,2.786c1.36,0.644,2.634,0.808,3.373,1.773s0.944,2.731,1.499,3.45s1.458,0.39,2.547,0.411
	c1.089,0.02,2.361,0.39,3.184,1.15c0.821,0.76,1.19,1.91,1.951,2.608c0.76,0.699,1.909,0.945,2.71,1.376
	c0.802,0.431,1.253,1.047,1.828,1.068s1.273-0.555,1.787-1.541s0.842-2.382,2.095-3.224c1.253-0.842,3.43-1.13,5.196-1.15
	c1.767-0.021,3.121,0.226,3.84,0.657c0.72,0.432,0.802,1.048,0.802,2.383s-0.082,3.389,1.149,4.477
	c1.232,1.088,3.779,1.211,4.826,1.951c1.048,0.74,0.597,2.095-0.801,3.184c-1.396,1.088-3.737,1.91-3.471,3.101
	s3.143,2.752,4.724,3.882c1.582,1.129,1.869,1.828,1.582,3.06c-0.288,1.232-1.15,2.999-3.163,3.491s-5.176-0.288-6.859,0.452
	c-1.684,0.739-1.89,2.998-3.225,4.127s-3.799,1.129-5.072,1.992s-1.355,2.588-1.068,4.149c0.288,1.561,0.945,2.957,0.267,3.799
	c-0.677,0.842-2.689,1.129-4.271,1.499c-1.581,0.37-2.731,0.822-2.361,2.095c0.369,1.273,2.259,3.368,3.737,4.601
	c1.479,1.232,2.547,1.602,3.143,2.69c0.595,1.089,0.718,2.896,1.909,4.56c1.19,1.663,3.449,3.183,5.134,4.374
	c1.685,1.191,2.793,2.054,4.539,2.67c1.745,0.616,4.128,0.986,4.97,2.033c0.843,1.048,0.144,2.772-0.842,3.738
	c-0.986,0.965-2.259,1.171-2.752,2.075c-0.493,0.903-0.205,2.505,1.335,4.066s4.333,3.081,5.586,4.868
	c1.253,1.787,0.965,3.84,1.54,5.135c0.575,1.293,2.014,1.827,2.999,2.607c0.986,0.781,1.52,1.808,2.547,2.773
	c1.026,0.965,2.546,1.869,3.553,1.684c1.007-0.185,1.499-1.458,2.608-2.156s2.834-0.822,3.758-0.185
	c0.925,0.637,1.048,2.033,1.869,2.588c0.821,0.554,2.342,0.267,3.42,0.236s1.714,0.195,2.032,0.791s0.318,1.561-0.133,2.341
	c-0.452,0.78-1.355,1.376-1.973,1.828c-0.616,0.452-0.944,0.76-1.067,1.15c-0.124,0.39-0.041,0.862-0.021,1.427
	c0.021,0.565-0.02,1.222-0.01,43.308c0.01,42.085,0.07,125.601,0.096,167.974c0.025,42.374,0.015,43.606-0.017,44.217
	c-0.03,0.611-0.082,0.602-0.159,0.591c-0.076-0.01-0.18-0.021-2.932-0.025s-8.153-0.005-82.129,0.082
	c-73.977,0.087-216.526,0.262-333.066,0.349c-116.54,0.087-207.069,0.086-252.333,0.086c-45.265,0-45.265,0-45.285-0.103
	c-0.021-0.103-0.063-0.308-0.083-2.783c-0.021-2.475-0.021-7.219-0.072-45.449c-0.051-38.229-0.154-109.947-0.287-166.753
	c-0.133-56.807-0.297-98.703-0.304-121.633c-0.005-22.93,0.147-26.894,0.229-29.029c0.082-2.136,0.094-2.444,0.264-2.596
	c0.17-0.151,0.499-0.147,1.271-0.136C35.213,111.303,36.427,111.32,103.74,111.329z"/>
</svg>
