<?xml version="1.0" encoding="utf-8"?>
<!-- Generator: Adobe Illustrator 15.1.0, SVG Export Plug-In . SVG Version: 6.00 Build 0)  -->
<!DOCTYPE svg PUBLIC "-//W3C//DTD SVG 1.1//EN" "http://www.w3.org/Graphics/SVG/1.1/DTD/svg11.dtd">
<svg version="1.1" id="Layer_1" xmlns="http://www.w3.org/2000/svg" xmlns:xlink="http://www.w3.org/1999/xlink" x="0px" y="0px"
	 width="792px" height="612px" viewBox="0 0 792 612" enable-background="new 0 0 792 612" xml:space="preserve">
<path fill-rule="evenodd" clip-rule="evenodd" stroke="#000000" stroke-width="2.9999" stroke-linecap="round" stroke-linejoin="round" stroke-miterlimit="22.9256" d="
	M652.649,117.313c-1.053,1.167-2.72,3.001-3.554,4.71c-0.834,1.709-0.834,3.293-1.167,4.419c-0.334,1.125-1.001,1.792-2.085,2.584
	s-2.584,1.709-3.334,2.918c-0.751,1.209-0.751,2.709-0.834,5.127c-0.084,2.418-0.25,5.753,0.125,8.087s1.292,3.668,2.043,5.377
	c0.75,1.709,1.333,3.793,1.458,6.503c0.126,2.709-0.208,6.044,0.459,7.753c0.667,1.709,2.335,1.792,3.419,2.334
	c1.083,0.542,1.584,1.542,2,3.21c0.417,1.668,0.751,4.002,1.084,6.711c0.334,2.71,0.667,5.795,1.626,8.546
	c0.959,2.751,2.543,5.169,4.711,7.212c2.168,2.043,4.919,3.71,7.962,4.919s6.379,1.959,8.463,2.584
	c2.084,0.625,2.918,1.125,5.294,1.709c2.376,0.584,6.295,1.25,8.838,2.084s3.71,1.834,4.627,3.126s1.584,2.876,2.335,4.419
	c0.75,1.542,1.584,3.043,2.459,4.46c0.876,1.417,1.793,2.751,2.418,4.127c0.625,1.376,0.959,2.793,0.834,3.918
	c-0.125,1.126-0.709,1.959-1.084,2.71c-0.375,0.75-0.542,1.417,0,2.668c0.542,1.25,1.792,3.084,3.501,3.96
	c1.71,0.875,3.877,0.792,5.044,1.459c1.168,0.667,1.334,2.084,2.668,3.418c1.334,1.334,3.836,2.585,5.795,4.127
	s3.377,3.376,4.627,5.127c1.251,1.751,2.335,3.418,2.627,5.586c0.291,2.167-0.209,4.836-0.25,6.67
	c-0.042,1.834,0.375,2.834,1.125,3.793c0.751,0.959,1.834,1.876,3.418,3.252c1.585,1.375,3.669,3.209,6.087,4.502
	c2.418,1.292,5.169,2.042,7.504,2.96c2.334,0.917,4.252,2,5.377,3.585c1.126,1.584,1.459,3.668,2.543,4.419
	c1.084,0.75,2.919,0.167,3.71,1.167c0.793,1,0.543,3.585,0.251,5.461s-0.626,3.043-0.376,4.752c0.251,1.709,1.084,3.96,1.584,5.711
	c0.501,1.751,0.668,3.001,0.376,4.21s-1.042,2.376-1.209,3.877s0.25,3.335,0.417,4.627c0.166,1.293,0.083,2.043-0.167,3.043
	c-0.25,1.001-0.667,2.252-1.209,4.169c-0.542,1.918-1.209,4.503-1.542,6.462c-0.334,1.959-0.334,3.293-0.793,4.002
	c-0.458,0.708-1.375,0.792-2.793,1.584c-1.417,0.792-3.334,2.293-5.544,3.918c-2.21,1.626-4.711,3.377-5.711,5.128
	c-1.001,1.751-0.501,3.502-0.167,4.856c0.334,1.355,0.5,2.314,0.125,2.919s-1.292,0.854-1.896,1.438s-0.896,1.501-1.188,2.376
	c-0.293,0.876-0.584,1.709-0.626,3.147s0.167,3.48,0.292,4.898c0.125,1.417,0.166,2.21-0.292,2.647
	c-0.459,0.438-1.417,0.521-2.626,0.583c-1.209,0.063-2.668,0.104-4.023,1.335c-1.354,1.229-2.605,3.647-3.564,5.231
	c-0.958,1.584-1.625,2.334-2.584,2.668c-0.959,0.333-2.209,0.25-3.397,0.188s-2.313-0.104-3.21-0.5
	c-0.896-0.396-1.563-1.146-2.189-1.335c-0.625-0.188-1.208,0.188-1.75,0.709c-0.542,0.521-1.042,1.188-1.751,1.334
	c-0.709,0.146-1.626-0.229-2.23-0.166s-0.896,0.563-1.188,1.354s-0.584,1.876-1.543,2.813c-0.959,0.938-2.584,1.73-4.002,2.501
	c-1.417,0.771-2.626,1.522-4.356,1.98c-1.729,0.459-3.98,0.626-5.648,0.729c-1.668,0.104-2.752,0.146-4.044-0.125
	c-1.292-0.271-2.793-0.854-4.147-0.979s-2.563,0.208-3.439,0.5c-0.875,0.292-1.417,0.542-2.188,1.126s-1.771,1.5-3.147,2.251
	c-1.375,0.75-3.126,1.334-4.94,1.167c-1.813-0.167-3.688-1.084-5.439-1.188c-1.751-0.104-3.377,0.604-4.502,1.209
	c-1.126,0.605-1.751,1.105-1.96,1.96c-0.208,0.854,0,2.063-0.021,3.043c-0.021,0.979-0.271,1.729-0.584,2.417
	c-0.313,0.688-0.688,1.313-0.896,2.293c-0.209,0.979-0.25,2.313-0.334,3.647c-0.083,1.335-0.208,2.668-0.646,3.585
	c-0.438,0.918-1.188,1.418-2.063,2.543c-0.875,1.126-1.875,2.877-2.48,4.273c-0.604,1.396-0.813,2.438-0.313,3.355
	c0.501,0.917,1.709,1.71,2.855,2.73c1.146,1.021,2.23,2.272,2.96,3.481c0.73,1.209,1.105,2.376,1.709,3.188
	c0.605,0.813,1.438,1.271,2.585,1.355c1.146,0.083,2.605-0.209,3.481,0.208c0.875,0.417,1.167,1.542,1.771,2.855
	s1.521,2.813,2.125,3.877c0.605,1.063,0.897,1.688,1.084,2.48c0.188,0.792,0.271,1.751,0.146,2.71s-0.458,1.917-0.396,2.96
	c0.063,1.042,0.521,2.167,0.626,4.752c0.104,2.585-0.146,6.628-0.355,9.317c-0.208,2.688-0.375,4.022-1.104,5.106
	s-2.021,1.917-3.48,3.147c-1.459,1.229-3.085,2.855-4.565,4.335c-1.479,1.48-2.813,2.814-3.793,4.273s-1.605,3.043-2.21,4.335
	c-0.604,1.293-1.188,2.293-1.417,3.96c-0.229,1.668-0.104,4.002-0.313,5.315c-0.209,1.313-0.75,1.605-1.126,2.23
	c-0.375,0.625-0.583,1.584-0.604,2.813c-0.021,1.23,0.146,2.73,0.188,3.981c0.041,1.251-0.042,2.251-0.511,3.158
	c-0.47,0.906-1.323,1.72-2.48,2.657c-1.157,0.938-2.616,2.001-4.127,2.407c-1.511,0.407-3.074,0.156-4.471-0.031
	s-2.627-0.313-3.7-0.072c-1.073,0.239-1.99,0.844-3.012,1.115c-1.021,0.271-2.146,0.208-3.272,0.656s-2.251,1.406-3.147,1.928
	s-1.563,0.604-2.262,1.48c-0.698,0.875-1.428,2.542-2.428,3.813c-1.001,1.271-2.272,2.147-2.804,2.96s-0.323,1.563,0.302,2.251
	c0.625,0.688,1.668,1.313,2.334,2.001c0.668,0.688,0.959,1.438,1.146,2.522c0.188,1.083,0.271,2.501,0.219,3.584
	c-0.052,1.084-0.239,1.835-0.646,2.522s-1.031,1.313-1.334,2.23s-0.281,2.126,0.031,2.845c0.313,0.72,0.917,0.948,1.188,1.521
	c0.271,0.574,0.209,1.49,0.042,2.324c-0.166,0.834-0.438,1.584-0.979,2.146s-1.354,0.938-2.335,1.104
	c-0.979,0.167-2.125,0.125-3.137,0.24c-1.011,0.114-1.886,0.385-2.688,0.469c-0.802,0.083-1.532-0.021-2.199-0.375
	c-0.666-0.354-1.271-0.959-1.459-1.543c-0.188-0.584,0.042-1.146-0.375-1.417c-0.417-0.271-1.479-0.251-2.22-0.72
	s-1.157-1.428-1.292-2.282c-0.136-0.854,0.01-1.604,0.155-2.365c0.146-0.761,0.293-1.532,0.095-2.054
	c-0.198-0.521-0.74-0.792-1.49-0.959c-0.751-0.166-1.709-0.229-2.679-0.375c-0.97-0.146-1.949-0.375-2.481-1.053
	c-0.531-0.678-0.614-1.803-1.011-2.679c-0.396-0.875-1.104-1.5-1.876-2.251c-0.771-0.75-1.604-1.625-1.938-2.668
	c-0.333-1.042-0.167-2.251-0.542-2.855s-1.292-0.604-2.334-0.813c-1.042-0.209-2.21-0.625-3.022-1.084
	c-0.813-0.459-1.271-0.959-1.438-1.771c-0.167-0.813-0.041-1.938-0.417-2.647c-0.375-0.709-1.25-1-1.896-1.646
	s-1.063-1.646-1.396-2.271c-0.334-0.626-0.584-0.876-1.292-0.98c-0.709-0.104-1.876-0.063-3.544,0
	c-1.667,0.063-3.835,0.146-5.294,0.375c-1.459,0.229-2.21,0.604-3.647,0.854c-1.438,0.25-3.564,0.376-6.524,0.459
	s-6.754,0.125-9.484,0.229c-2.73,0.104-4.397,0.271-6.253,0.354c-1.854,0.083-3.897,0.083-10.63,0.229
	c-6.732,0.146-18.155,0.438-27.076,0.688c-8.921,0.251-15.341,0.459-21.469,0.584s-11.964,0.167-24.741,0.479
	s-32.495,0.896-53.859,1.188c-21.365,0.292-44.376,0.292-72.307,0.292s-60.779,0-87.709-0.084c-26.93-0.083-47.94-0.25-65.699-0.417
	c-17.759-0.166-32.266-0.333-39.519-0.417c-7.254-0.083-7.254-0.083-7.202-0.26c0.052-0.178,0.156-0.531,0.313-1.011
	c0.156-0.479,0.365-1.084-0.011-1.803c-0.375-0.72-1.334-1.553-1.834-2.418c-0.5-0.865-0.542-1.762-0.761-2.564
	c-0.219-0.802-0.615-1.511-1.345-2.167c-0.729-0.657-1.792-1.262-2.991-1.824c-1.198-0.563-2.532-1.084-3.334-1.876
	c-0.803-0.792-1.074-1.855-1.355-2.793s-0.573-1.751-1.449-2.271c-0.875-0.521-2.334-0.751-3.053-1.543
	c-0.72-0.792-0.699-2.146-0.313-3.126c0.385-0.98,1.136-1.585,2.167-2.158c1.032-0.572,2.345-1.114,3.002-1.698
	c0.656-0.584,0.656-1.209,0.177-2.105c-0.48-0.896-1.438-2.063-1.292-2.96c0.146-0.896,1.396-1.521,1.479-2.73
	c0.084-1.208-1-3.001-1.104-4.293c-0.105-1.293,0.771-2.085,1.73-2.668c0.958-0.584,2-0.959,2.23-1.939
	c0.229-0.979-0.354-2.563-1.23-3.793c-0.875-1.229-2.042-2.105-2.105-3.127c-0.063-1.021,0.979-2.188,1.584-3.188
	s0.771-1.834,0.334-2.647c-0.438-0.813-1.48-1.604-2.543-2.251c-1.063-0.646-2.147-1.146-2.189-2.085
	c-0.042-0.938,0.958-2.313,1.146-3.376c0.188-1.063-0.438-1.813-1.063-2.585c-0.625-0.771-1.25-1.563-1.063-2.479
	c0.188-0.918,1.188-1.96,1.75-3.252c0.563-1.293,0.688-2.835,0.209-4.189c-0.48-1.354-1.563-2.522-1.814-3.689
	c-0.25-1.167,0.334-2.334,1.459-3.085c1.125-0.75,2.793-1.084,3.209-1.959c0.417-0.876-0.417-2.293-1.209-2.897
	c-0.792-0.604-1.542-0.396-2.751-0.042c-1.209,0.354-2.876,0.854-3.939,0.5c-1.063-0.354-1.522-1.563-1.251-2.709
	s1.271-2.23,1.334-3.335c0.062-1.104-0.813-2.23-0.98-3.293c-0.167-1.063,0.375-2.064,1.438-2.605
	c1.063-0.542,2.647-0.626,3.377-1.501c0.729-0.876,0.604-2.543,0.229-3.752s-1-1.959-2.168-2.167
	c-1.167-0.209-2.876,0.124-4.252-0.188s-2.417-1.271-2.668-2.293c-0.25-1.021,0.292-2.104,1-2.813
	c0.708-0.709,1.584-1.042,2.209-1.542c0.625-0.501,1.001-1.168,0.625-1.981c-0.375-0.813-1.5-1.771-1.604-2.792
	c-0.104-1.021,0.813-2.105,1.417-3.355c0.604-1.251,0.896-2.669,0.458-3.919c-0.438-1.251-1.604-2.335-2.813-2.605
	c-1.209-0.271-2.46,0.271-3.731,0.166c-1.271-0.104-2.563-0.854-2.73-2.074c-0.167-1.219,0.792-2.907,0.917-4.658
	c0.125-1.75-0.583-3.564-1.5-4.283s-2.042-0.344-2.72,0.438c-0.677,0.782-0.907,1.97-1.323,2.991
	c-0.417,1.021-1.021,1.876-2.241,1.615c-1.22-0.26-3.054-1.636-3.95-2.949c-0.897-1.313-0.855-2.563-0.313-3.585
	s1.584-1.813,1.667-2.855c0.083-1.042-0.792-2.334-1.646-3.46c-0.855-1.125-1.688-2.084-1.542-3.043
	c0.146-0.959,1.271-1.918,1.813-2.939s0.5-2.105-0.208-3.564c-0.709-1.459-2.084-3.293-2.105-4.481
	c-0.021-1.188,1.313-1.729,2.459-1.896s2.105,0.042,2.584-0.375s0.479-1.459-0.542-2.293c-1.021-0.834-3.064-1.459-3.584-2.314
	c-0.521-0.854,0.479-1.938,1.479-2.626c1-0.688,2.001-0.979,2.147-1.792c0.146-0.813-0.563-2.146-0.417-3.022
	c0.146-0.875,1.146-1.292,0.896-1.918c-0.25-0.625-1.75-1.459-2.792-2.709c-1.042-1.251-1.626-2.918-2.751-4.252
	c-1.126-1.334-2.793-2.335-3.585-3.794s-0.709-3.377-0.042-4.439c0.667-1.063,1.917-1.271,2.418-1.751
	c0.5-0.479,0.25-1.23-0.208-2.23c-0.458-1.001-1.125-2.251-0.958-3.356c0.167-1.104,1.167-2.063,1.021-3.084
	c-0.146-1.022-1.438-2.105-2.48-1.938c-1.042,0.167-1.834,1.583-2.522,1.271c-0.688-0.313-1.271-2.355-2.146-2.876
	c-0.876-0.521-2.043,0.479-3.064,0.604s-1.896-0.625-1.938-1.854c-0.042-1.23,0.75-2.939,0.5-3.94c-0.25-1-1.542-1.292-2.793-2.001
	c-1.251-0.709-2.459-1.834-2.355-3.418c0.104-1.584,1.521-3.627,1.959-5.148c0.438-1.522-0.104-2.522-0.875-3.147
	c-0.771-0.625-1.772-0.875-2.626-1.501c-0.854-0.625-1.563-1.626-2.23-2.293c-0.667-0.667-1.292-1-1.793-1.75
	c-0.5-0.75-0.875-1.917-1.25-2.96c-0.375-1.042-0.75-1.959-0.729-2.897c0.021-0.938,0.438-1.897,1.084-2.459
	c0.646-0.563,1.521-0.729,1.751-1.668c0.229-0.938-0.188-2.647-0.479-3.751c-0.292-1.105-0.458-1.605-0.708-2.209
	c-0.25-0.604-0.583-1.313-1.271-2.063c-0.688-0.75-1.73-1.542-2.147-2.46c-0.417-0.917-0.208-1.959-0.771-2.98
	c-0.563-1.021-1.897-2.022-2.668-3.126c-0.771-1.105-0.98-2.314-0.833-3.148c0.146-0.833,0.646-1.292,0.375-2.459
	c-0.271-1.167-1.313-3.043-1.063-4.21c0.25-1.167,1.792-1.626,2.918-2.814c1.125-1.188,1.834-3.106,1.792-5.044
	c-0.042-1.938-0.834-3.897-2.564-4.669c-1.73-0.771-4.398-0.354-6.086-0.5c-1.688-0.146-2.397-0.854-2.626-1.667
	s0.021-1.73-0.083-2.814s-0.563-2.334-0.646-3.502c-0.083-1.167,0.208-2.251-0.021-3.543c-0.229-1.292-0.979-2.793-1.709-4.335
	c-0.729-1.542-1.438-3.126-2.396-4.835c-0.959-1.709-2.168-3.543-3.585-4.981c-1.417-1.439-3.043-2.481-4.627-3.565
	c-1.584-1.083-3.126-2.209-3.772-3.189c-0.646-0.98-0.396-1.813-0.458-3.043s-0.438-2.855-0.313-4.106s0.75-2.126,1.542-2.897
	c0.792-0.771,1.751-1.438,2.334-2.314c0.584-0.875,0.792-1.959,1.105-2.918c0.313-0.959,0.729-1.792,1.584-2.584
	c0.854-0.792,2.147-1.542,2.939-2.334s1.083-1.625,1-2.563c-0.083-0.938-0.542-1.98-0.375-3.043s0.958-2.147,1.25-3.314
	c0.292-1.167,0.083-2.418,0.75-3.585c0.667-1.167,2.209-2.251,2.272-3.502c0.063-1.251-1.355-2.668-1.417-3.981
	c-0.063-1.313,1.229-2.522,1.355-3.856c0.125-1.334-0.917-2.792-1.438-3.772s-0.521-1.48,0.688-2.334s3.627-2.063,4.877-3.209
	c1.25-1.147,1.334-2.231,1.605-3.189c0.271-0.959,0.729-1.792,1.104-2.959c0.375-1.167,0.667-2.668-0.104-3.772
	c-0.771-1.104-2.605-1.813-3.272-3.064c-0.667-1.25-0.167-3.043,0.104-4.814c0.271-1.772,0.312-3.522,0.104-4.794
	c-0.208-1.272-0.667-2.064-1.334-2.022c-0.667,0.042-1.542,0.917-3.001,1.292c-1.459,0.375-3.501,0.25-4.627-0.521
	c-1.125-0.772-1.334-2.189-1.146-3.231c0.187-1.042,0.771-1.709,0.396-2.668c-0.375-0.959-1.709-2.209-2.104-3.293
	c-0.396-1.084,0.145-2.001,0.667-2.584c0.521-0.583,1.021-0.834,1.938-0.625s2.251,0.875,3.043-0.104s1.042-3.606,1.292-5.961
	c0.25-2.355,0.5-4.44,0.042-5.878s-1.625-2.23-2.709-3.21c-1.084-0.979-2.084-2.146-3.147-3.064
	c-1.063-0.917-2.188-1.584-2.897-2.438c-0.709-0.855-1.001-1.897-0.479-2.959c0.521-1.063,1.854-2.147,1.875-3.356
	c0.021-1.209-1.271-2.543-1.834-3.231c-0.563-0.688-0.396-0.73,6.711-0.708c7.108,0.021,21.157,0.104,120.33,0.167
	c99.173,0.063,283.471,0.104,375.953,0.104s93.149-0.042,93.524,0.167c0.376,0.208,0.459,0.667,0.293,1.542
	c-0.168,0.875-0.584,2.167-0.897,3.189c-0.312,1.021-0.521,1.771-0.312,2.793c0.208,1.021,0.833,2.313,1.5,3.543
	s1.376,2.397,1.605,3.668s-0.021,2.647-0.334,4.148c-0.313,1.5-0.688,3.126,0.438,4.356c1.126,1.229,3.752,2.063,6.274,3.355
	c2.522,1.292,4.939,3.043,6.628,4.877s2.647,3.752,2.918,5.232c0.271,1.48-0.146,2.522-0.572,3.293
	C654.139,115.646,653.702,116.146,652.649,117.313z"/>
</svg>
