<?xml version="1.0" encoding="utf-8"?>
<!-- Generator: Adobe Illustrator 15.1.0, SVG Export Plug-In . SVG Version: 6.00 Build 0)  -->
<!DOCTYPE svg PUBLIC "-//W3C//DTD SVG 1.1//EN" "http://www.w3.org/Graphics/SVG/1.1/DTD/svg11.dtd">
<svg version="1.1" id="Layer_1" xmlns="http://www.w3.org/2000/svg" xmlns:xlink="http://www.w3.org/1999/xlink" x="0px" y="0px"
	 width="612px" height="792px" viewBox="0 0 612 792" enable-background="new 0 0 612 792" xml:space="preserve">
<path fill-rule="evenodd" clip-rule="evenodd" stroke="#000000" stroke-width="2.9999" stroke-linecap="round" stroke-linejoin="round" stroke-miterlimit="22.9256" d="
	M516.987,729.433c-0.386-3.153-1.108-7.172-2.797-10.948c-1.688-3.777-4.339-7.313-4.941-9.885s0.843-4.179,1.124-5.665
	c0.282-1.487-0.602-2.853-0.441-4.139c0.161-1.286,1.366-2.491,0.844-3.817s-2.772-2.772-3.134-4.339
	c-0.361-1.567,1.165-3.255,1.005-4.982c-0.161-1.729-2.01-3.496-2.692-5.666c-0.684-2.169-0.201-4.741,0.804-6.831
	c1.004-2.089,2.531-3.696,2.491-5.183s-1.647-2.853-2.853-4.781c-1.206-1.929-2.01-4.42-2.13-6.63
	c-0.121-2.21,0.441-4.139,0.482-5.545c0.04-1.406-0.442-2.29-0.925-3.214c-0.482-0.925-0.965-1.889-0.383-2.692
	c0.583-0.804,2.229-1.446,3.335-1.768c1.105-0.322,1.667-0.322,2.592-1.005c0.924-0.684,2.21-2.049,3.214-2.21
	c1.005-0.161,1.729,0.884,2.712,0.823c0.985-0.06,2.23-1.225,3.576-1.688c1.347-0.462,2.793-0.221,3.918,0.262
	c1.125,0.481,1.929,1.205,3.354,1.285c1.427,0.081,3.477-0.482,5.003-0.804c1.527-0.321,2.531-0.401,3.777,0.302
	c1.245,0.703,2.732,2.189,3.435,3.396c0.704,1.205,0.623,2.129,0.945,3.174c0.321,1.045,1.045,2.21,2.149,3.274
	c1.104,1.065,2.592,2.029,4.299,2.331c1.708,0.302,3.637-0.061,5.304-0.402c1.668-0.341,3.074-0.662,4.059-1.627
	c0.984-0.964,1.547-2.571,1.688-3.817c0.141-1.245-0.141-2.129,0.604-3.354c0.743-1.226,2.511-2.793,3.455-4.199
	s1.064-2.652,1.205-3.536s0.302-1.406,0.361-1.969c0.061-0.563,0.021-1.165,0-1.788c-0.02-0.622-0.02-1.266-0.02-2.17
	c0-0.903,0-2.068,0.12-100.862c0.12-98.793,0.36-295.214,0.48-393.481c0.121-98.267,0.121-98.38,0.121-98.49s0-0.219-0.211-0.262
	c-0.21-0.044-0.632-0.024-2.365-0.024c-1.732,0-4.776-0.02-89.793,0.11s-252.006,0.41-335.641,0.55
	c-83.636,0.14-83.917,0.14-84.232,0.141c-0.316,0.001-0.665,0.001-0.839,0.564c-0.175,0.563-0.175,1.688-0.175,6.087
	c0,4.399,0,12.074,0,62.792s0,144.478,0,191.469c0,46.991,0,47.211,0.104,47.382c0.104,0.171,0.313,0.292,0.507,0.442
	c0.195,0.151,0.375,0.332,15.925,13.35c15.55,13.018,46.468,38.874,121.555,105.482s194.342,173.97,255.857,229.631
	c61.517,55.66,65.294,59.619,67.122,61.166c1.828,1.548,1.707,0.682,2.189-0.614c0.482-1.297,1.567-3.024,1.668-4.612
	c0.1-1.587-0.784-3.033-0.422-4.158c0.361-1.125,1.969-1.929,2.691-3.396c0.724-1.466,0.563-3.596,0.458-5.806
	C517.423,734.877,517.374,732.587,516.987,729.433z"/>
</svg>
