<?xml version="1.0" encoding="utf-8"?>
<!-- Generator: Adobe Illustrator 15.1.0, SVG Export Plug-In . SVG Version: 6.00 Build 0)  -->
<!DOCTYPE svg PUBLIC "-//W3C//DTD SVG 1.1//EN" "http://www.w3.org/Graphics/SVG/1.1/DTD/svg11.dtd">
<svg version="1.1" id="Layer_1" xmlns="http://www.w3.org/2000/svg" xmlns:xlink="http://www.w3.org/1999/xlink" x="0px" y="0px"
	 width="612px" height="792px" viewBox="0 0 612 792" enable-background="new 0 0 612 792" xml:space="preserve">
<path fill-rule="evenodd" clip-rule="evenodd" stroke="#000000" stroke-width="2.9999" stroke-linecap="round" stroke-linejoin="round" stroke-miterlimit="22.9256" d="
	M269.045,729.93c1.563,2.676,4.271,6.826,6.014,9.743c1.745,2.917,2.526,4.601,1.925,6.015c-0.602,1.413-2.586,2.557-4.992,3.368
	c-2.406,0.813-5.233,1.293-8.27,1.323s-6.286-0.391-10.165,0.481c-3.879,0.872-8.391,3.037-11.819,4.271
	c-3.428,1.232-5.774,1.533-7.428,1.293c-1.654-0.241-2.616-1.022-3.458-2.075s-1.563-2.376-1.654-3.398
	c-0.09-1.022,0.452-1.744,0.692-4.3c0.24-2.557,0.18-6.947,0.271-9.774c0.09-2.827,0.331-4.09,0.571-5.413
	c0.24-1.323,0.481-2.706,1.263-3.729c0.782-1.022,2.104-1.685,3.639-2.978c1.534-1.293,3.278-3.218,4.42-4.571
	c1.143-1.353,1.684-2.135,2.376-2.045c0.691,0.091,1.534,1.053,2.947,2.436c1.413,1.384,3.398,3.188,4.992,4.09
	c1.594,0.903,2.797,0.903,4.03,0.392c1.233-0.511,2.496-1.534,2.978-2.376c0.481-0.842,0.18-1.504-0.512-2.586
	c-0.691-1.083-1.774-2.587-3.007-4.211s-2.617-3.367-3.368-4.3c-0.752-0.933-0.873-1.053-0.241-1.925
	c0.631-0.872,2.015-2.496,2.857-4.21s1.143-3.519,0.932-5.774c-0.21-2.255-0.932-4.962-1.353-7.247
	c-0.421-2.286-0.542-4.15-0.24-5.233c0.3-1.082,1.022-1.383,2.345-1.112s3.248,1.112,5.232,2.286
	c1.985,1.172,4.03,2.676,5.443,3.578s2.195,1.203,2.646,2.195c0.451,0.992,0.571,2.676,0.542,4.751
	c-0.03,2.075-0.211,4.542-0.421,6.707s-0.451,4.029-0.962,6.104s-1.293,4.36-1.444,6.586c-0.15,2.226,0.332,4.391,0.782,6.075
	C267.061,726.05,267.481,727.253,269.045,729.93L269.045,729.93z M398.609,231.767c0.564,2.669,0.985,4.172,0.865,5.616
	c-0.12,1.443-0.781,2.827-1.233,4.27c-0.45,1.443-0.691,2.947,0,4c0.692,1.053,2.316,1.654,3.339,2.436s1.443,1.744,1.864,3.098
	c0.421,1.353,0.842,3.097,1.053,4.541c0.21,1.443,0.21,2.586,0.752,3.158c0.541,0.571,1.623,0.571,2.646,0.902
	c1.023,0.331,1.985,0.993,2.737,1.865s1.293,1.955,2.226,2.947c0.933,0.993,2.255,1.895,3.157,3.188s1.384,2.977,1.744,4.932
	c0.361,1.955,0.602,4.18,1.264,5.654c0.661,1.474,1.744,2.195,3.819,2.526c2.074,0.331,5.142,0.271,7.729,0.542
	c2.586,0.271,4.691,0.872,6.104,1.924c1.414,1.052,2.135,2.557,2.707,4.331c0.571,1.774,0.992,3.819,1.563,5.233
	c0.571,1.413,1.293,2.195,2.075,2.226c0.782,0.03,1.624-0.692,1.984-1.685c0.361-0.992,0.241-2.255,0.481-3.428
	s0.842-2.255,1.774-3.218c0.932-0.962,2.195-1.805,2.676-3.158c0.481-1.354,0.181-3.218-0.48-4.992
	c-0.662-1.775-1.685-3.459-3.218-5.112c-1.534-1.654-3.579-3.278-5.835-5.233c-2.255-1.955-4.721-4.24-6.255-6.315
	c-1.533-2.075-2.135-3.939-2.285-6.135c-0.15-2.195,0.15-4.721,0.842-6.285c0.692-1.563,1.774-2.165,3.308-2.045
	c1.534,0.12,3.519,0.962,4.181,1.955c0.662,0.992,0,2.135-0.722,3.579s-1.504,3.188-0.812,4.962
	c0.691,1.774,2.856,3.579,4.871,4.902c2.016,1.323,3.88,2.165,4.782,1.744c0.901-0.421,0.842-2.104,1.383-3.488
	c0.542-1.383,1.685-2.466,2.978-3.248c1.293-0.782,2.736-1.263,3.819-0.571c1.082,0.692,1.804,2.556,2.255,4.15
	c0.451,1.594,0.632,2.917,0.331,4.241c-0.301,1.323-1.083,2.646-1.264,4.12c-0.18,1.474,0.241,3.098,0.452,4.932
	c0.21,1.834,0.21,3.879,0.029,5.593c-0.18,1.714-0.541,3.098-1.744,5.383s-3.248,5.473-4.661,7.939
	c-1.413,2.466-2.195,4.21-2.285,6.315c-0.091,2.105,0.511,4.571,0.812,6.346c0.301,1.774,0.301,2.857-0.06,4.03
	c-0.361,1.173-1.083,2.437-2.376,3.594s-3.157,2.21-4.315,3.609s-1.609,3.143-1.925,5.443c-0.315,2.3-0.496,5.157-0.315,7.939
	s0.722,5.488,2.015,6.736c1.294,1.248,3.338,1.038,4.722-0.436s2.105-4.21,3.173-6.646c1.067-2.436,2.48-4.571,4.12-5.443
	c1.639-0.873,3.503-0.481,4.511,0.602c1.007,1.083,1.157,2.857,2.104,4.12c0.947,1.263,2.691,2.015,3.609,2.827
	c0.917,0.812,1.008,1.684,1.157,3.052c0.151,1.368,0.361,3.233,0.993,4.601c0.631,1.369,1.684,2.241,3.097,2.497
	c1.414,0.255,3.188-0.106,4.166-1.233c0.977-1.127,1.157-3.022,1.608-4.105s1.173-1.354,1.443-2.241
	c0.271-0.887,0.091-2.39,0.03-3.488c-0.061-1.097,0-1.789,1.309-2.812c1.308-1.022,3.864-2.376,5.653-3.744s2.812-2.751,3.202-4.616
	s0.15-4.21-1.443-7.428c-1.594-3.218-4.541-7.308-6.616-10.375c-2.075-3.067-3.277-5.113-3.85-7.218
	c-0.571-2.105-0.511-4.27,0.12-5.413c0.632-1.143,1.835-1.263,2.617-0.421c0.781,0.842,1.143,2.646,2.195,4.812
	c1.052,2.165,2.797,4.691,4.661,5.804s3.849,0.812,5.292,0.241c1.444-0.572,2.347-1.414,2.768-2.557s0.36-2.586,0.632-3.819
	c0.27-1.233,0.871-2.256,1.202-3.519c0.331-1.263,0.392-2.767-0.391-4.361s-2.406-3.278-6.226-8.18s-9.834-13.021-13.172-17.261
	c-3.338-4.241-4-4.602-10.796-8.09c-6.797-3.488-19.728-10.104-26.854-13.864c-7.128-3.759-8.451-4.661-9.443-5.684
	s-1.654-2.166-2.045-3.458c-0.392-1.293-0.512-2.737-1.685-4.06c-1.173-1.323-3.398-2.526-4.631-4.21
	c-1.233-1.684-1.474-3.85-1.715-6.135c-0.24-2.285-0.48-4.691-0.962-6.616s-1.203-3.368-1.534-5.143
	c-0.33-1.774-0.271-3.879,0.722-5.864c0.993-1.985,2.918-3.849,3.76-5.684s0.602-3.639,0.09-5.232
	c-0.511-1.594-1.293-2.977-0.812-5.143c0.481-2.165,2.226-5.112,3.037-7.638c0.812-2.526,0.691-4.631-0.09-8.15
	c-0.782-3.519-2.226-8.451-2.437-12.48s0.813-7.158,1.203-9.684c0.391-2.526,0.15-4.451-0.331-5.684
	c-0.481-1.233-1.202-1.774-3.067-1.744c-1.864,0.03-4.872,0.631-9.833,1.774c-4.963,1.143-11.88,2.827-15.368,3.368
	c-3.488,0.542-3.549-0.06-3.519-2.406s0.15-6.436,0.512-23.855c0.36-17.42,0.962-48.169,1.081-63.543
	c0.12-15.375-0.24-15.375-1.474-15.247c-1.232,0.128-3.338,0.385-21.081,1.024s-51.124,1.662-97.277,3.155
	c-46.154,1.493-105.082,3.457-134.726,4.445c-29.644,0.988-30.004,1-30.365,1.012c-0.361,0.012-0.722,0.024-1.083,0.036
	s-0.722,0.024-0.873,0.602c-0.15,0.577-0.09,1.72,0.015,6.141c0.105,4.42,0.256,12.12,0.917,40.778
	c0.661,28.659,1.833,78.279,2.901,126.245c1.067,47.966,2.029,94.278,2.45,118.276c0.42,23.999,0.301,25.682,0.181,28.329
	c-0.121,2.646-0.241,6.255-0.842,25.863c-0.602,19.607-1.684,55.213-2.526,81.256c-0.842,26.043-1.443,42.522-1.985,50.958
	s-1.022,8.826-1.624,8.962c-0.602,0.135-1.323,0.015-2.797-0.572c-1.473-0.586-3.699-1.639-5.533-2.194
	c-1.834-0.557-3.278-0.616-4.526-0.347c-1.248,0.271-2.3,0.873-4.24,2.03c-1.94,1.158-4.767,2.872-6.932,4.029
	c-2.165,1.158-3.669,1.76-4.676,3.099c-1.007,1.338-1.519,3.412-1.684,5.442c-0.166,2.03,0.015,4.015,0.195,5.578
	c0.18,1.564,0.36,2.707,1.082,3.729s1.985,1.925,2.857,3.368s1.353,3.429,1.053,5.744c-0.301,2.315-1.384,4.962-2.135,7.308
	c-0.752,2.346-1.173,4.391-0.993,6.104s0.962,3.098,1.895,5.052c0.932,1.955,2.015,4.481,2.796,6.706
	c0.782,2.226,1.263,4.15,0.962,5.895c-0.301,1.744-1.383,3.308-3.488,4.691s-5.233,2.586-7.368,3.608
	c-2.135,1.023-3.278,1.865-3.819,2.768c-0.542,0.902-0.481,1.864-0.331,2.706c0.15,0.843,0.391,1.564,0.09,2.526
	s-1.143,2.165-2.226,3.368c-1.083,1.203-2.406,2.406-5.143,2.736c-2.737,0.331-6.887-0.211-9.917,0.211
	c-3.031,0.421-4.942,1.804-5.898,3.488c-0.956,1.684-0.956,3.669-0.181,5.202c0.775,1.534,2.326,2.617,4.786,2.166
	c2.459-0.451,5.827-2.437,7.902-2.888s2.857,0.632,3.97,1.564c1.113,0.932,2.556,1.714,4.3,1.022
	c1.744-0.692,3.789-2.857,7.789-5.083s9.955-4.511,15.217-5.804c5.262-1.293,9.833-1.594,13.954-2.406
	c4.12-0.812,7.789-2.135,11.698-3.308s8.06-2.195,10.977-2.646s4.601-0.331,6.736-0.15s4.722,0.422,7.157,0
	c2.436-0.421,4.722-1.503,8.3-1.503s8.451,1.082,12.48,0.24c4.029-0.842,7.217-3.608,9.713-5.654
	c2.496-2.045,4.301-3.368,9.172-5.263s12.81-4.361,20.629-6.887c7.819-2.526,15.518-5.112,20.6-7.067
	c5.083-1.955,7.548-3.278,10.736-3.85c3.188-0.571,7.097-0.391,10.586-0.902c3.488-0.511,6.556-1.714,8.841-2.225
	c2.286-0.512,3.79-0.331,5.955-1.054c2.165-0.721,4.992-2.346,8.992-2.977c4-0.632,9.172-0.271,14.014-0.722
	c4.841-0.451,9.353-1.714,12.3-2.677c2.947-0.962,4.331-1.624,4.721-2.827c0.391-1.202-0.21-2.946-0.451-4.42
	s-0.12-2.677,0.571-3.519c0.692-0.842,1.955-1.323,2.526-2.707c0.571-1.383,0.451-3.669,0.902-5.984
	c0.451-2.315,1.474-4.661,2.375-6.496c0.902-1.834,1.684-3.157,1.865-4.812c0.18-1.654-0.241-3.639,0.481-4.932
	c0.722-1.293,2.586-1.895,3.789-1.835c1.203,0.061,1.744,0.782,1.985,2.195c0.24,1.414,0.18,3.519,0.632,5.413
	c0.451,1.896,1.413,3.579,1.954,4.902s0.661,2.285,0.36,3.308c-0.3,1.022-1.021,2.105-0.842,3.128
	c0.181,1.022,1.264,1.984,1.264,3.188s-1.083,2.646-2.947,4.421s-4.511,3.879-6.104,5.684c-1.594,1.805-2.135,3.308-1.534,4.511
	c0.601,1.203,2.346,2.105,4.3,2.857c1.954,0.752,4.12,1.353,6.015,2.887s3.519,4,5.022,5.353c1.503,1.354,2.887,1.594,3.818,0.872
	c0.933-0.722,1.414-2.405,1.294-3.939c-0.121-1.533-0.843-2.917-0.692-4.602c0.15-1.684,1.173-3.668,3.429-7.307
	c2.255-3.64,5.744-8.932,8.69-13.021c2.947-4.09,5.354-6.978,6.856-9.954c1.504-2.978,2.105-6.045,1.805-8.631
	c-0.301-2.587-1.503-4.691-1.594-6.978c-0.09-2.285,0.933-4.751,3.278-6.706c2.346-1.954,6.015-3.398,8.18-4.571
	c2.165-1.172,2.826-2.074,3.127-3.368c0.301-1.293,0.24-2.977,0.992-4.27s2.315-2.196,2.797-3.398c0.48-1.203-0.12-2.707-0.902-4.21
	c-0.782-1.504-1.744-3.008-1.835-4.661c-0.09-1.654,0.692-3.459,2.046-4.331c1.353-0.872,3.277-0.812,4.42-1.474
	c1.144-0.661,1.504-2.045,1.534-3.789s-0.271-3.85-0.872-5.684s-1.504-3.398-1.895-6.074c-0.391-2.677-0.271-6.466,0.48-9.202
	c0.752-2.737,2.136-4.421,2.978-5.955c0.842-1.533,1.143-2.917,1.203-4.36s-0.12-2.947-0.211-5.263
	c-0.09-2.315-0.09-5.443-0.722-9.052c-0.631-3.609-1.895-7.699-3.007-10.285c-1.113-2.586-2.075-3.669-2.887-4.872
	c-0.813-1.203-1.474-2.525-1.474-3.789c0-1.263,0.661-2.466-0.602-3.85c-1.264-1.383-4.451-2.946-5.715-4.571
	c-1.263-1.623-0.601-3.308-1.052-4.42c-0.451-1.113-2.015-1.654-2.917-2.917c-0.902-1.264-1.143-3.248-0.691-4.602
	s1.594-2.075,2.706-1.955c1.113,0.121,2.195,1.083,3.789,0.932c1.595-0.15,3.699-1.413,7.608-2.586
	c3.91-1.173,9.623-2.255,12.511-3.789c2.887-1.534,2.946-3.519,2.946-5.263s-0.06-3.248-1.353-4.09
	c-1.293-0.842-3.819-1.022-5.263-1.624s-1.805-1.624-0.933-2.827c0.872-1.203,2.978-2.586,4.45-3.578
	c1.475-0.993,2.316-1.594,2.286-2.827c-0.03-1.233-0.933-3.097-2.315-4.15c-1.384-1.052-3.248-1.293-4.21-1.834
	c-0.963-0.542-1.022-1.383-0.542-2.105c0.481-0.722,1.504-1.323,2.646-1.623c1.143-0.301,2.406-0.301,3.008-1.053
	c0.602-0.751,0.541-2.255,0.06-3.789c-0.481-1.534-1.384-3.098-1.624-4.902c-0.24-1.805,0.181-3.85,0.181-6.015
	s-0.421-4.451-0.752-6.796s-0.571-4.751-1.053-6.526c-0.48-1.774-1.203-2.917-2.947-3.909s-4.511-1.834-6.225-2.706
	s-2.376-1.774-3.549-1.834c-1.173-0.061-2.856,0.722-4.421,1.353c-1.563,0.632-3.007,1.113-4.36,0.872s-2.616-1.203-3.218-3.969
	c-0.602-2.767-0.541-7.338-0.061-9.954c0.481-2.617,1.384-3.278,4.932-2.887c3.549,0.391,9.744,1.834,13.895,2.435
	c4.149,0.602,6.255,0.361,7.247-0.601c0.992-0.962,0.872-2.646,1.594-3.519c0.723-0.872,2.286-0.932,3.157,0.06
	c0.873,0.992,1.054,3.037,1.835,4.03c0.782,0.992,2.165,0.932,3.309,0.812c1.143-0.121,2.045-0.301,2.646,0.331
	c0.602,0.631,0.902,2.075,0.692,3.579c-0.211,1.503-0.933,3.067-0.331,4.751s2.526,3.488,4.391,4.751s3.669,1.985,4.812,1.624
	c1.143-0.361,1.624-1.804,1.714-3.519c0.091-1.714-0.21-3.699-0.33-5.443c-0.121-1.744-0.061-3.248,0.872-4.722
	c0.932-1.474,2.736-2.917,3.939-4.18c1.203-1.264,1.805-2.346,1.895-5.293c0.091-2.947-0.331-7.759-0.181-10.345
	c0.15-2.586,0.872-2.947,2.978-3.789c2.104-0.842,5.594-2.165,7.277-3.248c1.685-1.083,1.563-1.925,0.03-2.346
	s-4.48-0.421-7.157-0.691c-2.677-0.271-5.083-0.812-7.218-1.744c-2.135-0.933-4-2.255-4.872-4c-0.872-1.744-0.752-3.909-0.722-5.954
	s-0.029-3.969,0.662-5.412c0.692-1.444,2.136-2.406,2.737-3.428c0.601-1.022,0.36-2.105-0.481-2.646s-2.285-0.541-3.338-1.143
	s-1.715-1.805-2.045-3.158c-0.331-1.353-0.331-2.857-0.571-4.692c-0.241-1.834-0.722-4-1.354-6.886
	c-0.632-2.887-1.414-6.496-1.835-9.383s-0.48-5.052,0.301-6.646c0.782-1.594,2.406-2.617,2.947-3.91
	c0.542-1.293,0-2.857-1.654-4.391c-1.653-1.534-4.42-3.038-6.135-5.083c-1.714-2.045-2.375-4.631-3.308-6.826s-2.136-4-2.045-5.263
	c0.09-1.263,1.474-1.985,2.616-1.925s2.045,0.902,2.827,0.813c0.781-0.091,1.443-1.113,2.075-2.828
	c0.631-1.714,1.232-4.12,2.044-6.405c0.813-2.286,1.835-4.451,2.767-5.774c0.933-1.323,1.775-1.804,2.136-3.097
	c0.361-1.293,0.24-3.398,0.541-5.534c0.302-2.135,1.022-4.3,2.226-5.684c1.203-1.384,2.887-1.985,4.06-1.173
	s1.835,3.038,2.045,5.533c0.211,2.496-0.03,5.263-0.992,7.819c-0.962,2.556-2.646,4.901-4.541,8.601
	c-1.895,3.699-4,8.751-5.383,11.789c-1.383,3.037-2.045,4.06-1.835,5.113c0.211,1.052,1.294,2.135,3.068,3.909
	c1.773,1.774,4.24,4.24,5.827,7.39S398.045,229.098,398.609,231.767L398.609,231.767z M427.779,397.595
	c1.474-0.015,2.917-0.557,4.676-1.669c1.76-1.112,3.835-2.796,5.759-5.067c1.925-2.271,3.699-5.128,5.112-7.939
	c1.414-2.812,2.467-5.579,3.248-7.985c0.782-2.405,1.293-4.451,1.264-6.42c-0.03-1.97-0.602-3.865-1.64-5.489
	c-1.037-1.624-2.541-2.978-4.646-4.42c-2.105-1.444-4.812-2.978-7.278-4.286c-2.466-1.309-4.691-2.391-6.33-3.609
	c-1.639-1.218-2.691-2.571-3.052-4.21c-0.361-1.639-0.031-3.564,0.24-5.383c0.271-1.819,0.481-3.534,0.149-5.217
	c-0.33-1.685-1.202-3.338-2.194-4.661c-0.992-1.324-2.105-2.316-3.098-2.827s-1.864-0.542-2.722-0.135
	c-0.856,0.406-1.699,1.248-2.181,2.21c-0.48,0.962-0.602,2.045-0.271,3.368c0.331,1.323,1.113,2.887,1.609,4.18
	s0.707,2.316,0.707,3.143c0,0.827-0.211,1.458-0.933,2.075s-1.955,1.218-3.188,2.18c-1.233,0.962-2.466,2.286-2.857,3.774
	c-0.391,1.488,0.06,3.143,0.797,4.571c0.737,1.429,1.76,2.631,2.978,3.594s2.631,1.684,4.074,1.985
	c1.444,0.301,2.918,0.181,4.226,0.391c1.309,0.21,2.451,0.751,3.158,1.834c0.706,1.083,0.978,2.707,1.037,4.075
	c0.061,1.368-0.09,2.481-0.466,3.895s-0.978,3.127-1.76,4.767c-0.781,1.639-1.744,3.203-2.271,5.173
	c-0.526,1.97-0.616,4.346-0.677,6.556c-0.06,2.21-0.09,4.255,0.256,5.984c0.347,1.729,1.067,3.142,2.181,4.104
	C424.802,397.099,426.306,397.609,427.779,397.595L427.779,397.595z M455.341,349.539c0.346,1.549,1.519,2.872,3.037,3.579
	c1.519,0.707,3.383,0.797,4.932-0.346c1.549-1.143,2.782-3.519,2.856-5.503c0.075-1.985-1.007-3.579-2.3-4.36
	c-1.293-0.782-2.797-0.752-4.15-0.361c-1.354,0.391-2.556,1.143-3.398,2.406C455.476,346.215,454.994,347.99,455.341,349.539
	L455.341,349.539z M378.657,491.212c0.045-1.729,0.105-4.556-0.226-7.263c-0.331-2.706-1.053-5.292-1.173-7.578
	c-0.12-2.285,0.36-4.271,1.053-5.053c0.691-0.781,1.594-0.36,3.519,0.121c1.925,0.48,4.872,1.022,6.616,0.933
	c1.744-0.091,2.285-0.813,2.045-1.715c-0.241-0.902-1.264-1.984-1.444-3.218c-0.18-1.233,0.481-2.616,0.843-3.789
	c0.36-1.173,0.42-2.135-0.603-3.97c-1.022-1.834-3.127-4.541-4.602-7.188c-1.473-2.646-2.315-5.232-2.285-7.698
	s0.933-4.812,1.985-7.999c1.052-3.188,2.255-7.218,2.767-10.646c0.511-3.428,0.331-6.255,1.143-9.232
	c0.813-2.977,2.616-6.104,4.421-8.39c1.804-2.286,3.608-3.729,5.533-4s3.97,0.632,5.323,2.315c1.353,1.685,2.015,4.15,2.375,6.887
	c0.361,2.736,0.422,5.744,0.331,7.669c-0.09,1.925-0.331,2.767-0.962,4.149c-0.632,1.384-1.654,3.309-2.166,6.646
	c-0.511,3.338-0.511,8.09-0.541,11.819c-0.03,3.729-0.09,6.435,0.511,8.45c0.602,2.015,1.865,3.338,2.737,4.42
	c0.872,1.083,1.353,1.925,0.962,3.128s-1.653,2.767-2.736,4.24c-1.082,1.474-1.985,2.857-2.165,4.541
	c-0.181,1.685,0.361,3.669,1.293,5.413c0.933,1.744,2.255,3.248,2.556,4.752s-0.42,3.007-1.954,3.698
	c-1.533,0.692-3.88,0.572-6.165,0.602c-2.285,0.03-4.511,0.211-5.925,1.504c-1.413,1.293-2.015,3.698-2.301,5.428
	c-0.285,1.729-0.255,2.781-0.511,3.413s-0.797,0.842-1.533,0.992c-0.737,0.15-1.669,0.24-2.121,1.188
	c-0.45,0.947-0.42,2.751-0.842,4.21c-0.421,1.458-1.293,2.571-2.421,3.653c-1.127,1.083-2.511,2.136-3.759,2.286
	s-2.36-0.602-2.978-1.67c-0.616-1.067-0.736-2.45-0.255-3.623c0.48-1.173,1.563-2.136,2.255-3.173
	c0.692-1.037,0.992-2.15,1.158-3.022C378.581,493.572,378.612,492.941,378.657,491.212L378.657,491.212z M409.927,507.129
	c0.88-0.55,1.963-1.391,2.79-1.933c0.827-0.541,1.398-0.782,2.12-0.541c0.722,0.24,1.594,0.962,2.405,1.293
	c0.813,0.331,1.563,0.271,2.736-0.256s2.768-1.519,4.421-2.691c1.654-1.173,3.368-2.526,4.587-3.098
	c1.218-0.571,1.939-0.36,3.292,0.632c1.354,0.992,3.339,2.767,5.008,3.549c1.669,0.781,3.022,0.571,3.699,0.181
	c0.676-0.392,0.676-0.963,0.781-2.196c0.105-1.232,0.315-3.127,1.144-4.676c0.826-1.549,2.27-2.752,3.188-3.504
	c0.917-0.751,1.308-1.053,1.503-2.525c0.195-1.474,0.195-4.12,0.331-6.36c0.135-2.241,0.406-4.075,0.662-5.338
	c0.255-1.264,0.496-1.955,1.594-2.512c1.098-0.556,3.052-0.978,4.525-1.052c1.474-0.076,2.466,0.195,3.338,0.962
	s1.624,2.03,2.827,2.632c1.203,0.601,2.857,0.541,3.85,0.149c0.992-0.391,1.323-1.112,1.699-2.029s0.797-2.03,1.519-2.752
	s1.744-1.052,3.143-0.917c1.398,0.136,3.173,0.736,4.48,1.36c1.309,0.624,2.15,1.271,3.008,1.955
	c0.856,0.684,1.729,1.406,2.12,2.232c0.391,0.827,0.301,1.76,0.09,2.774c-0.21,1.015-0.541,2.112-0.571,3.061
	c-0.03,0.947,0.24,1.744,0.872,2.18s1.624,0.512,2.301,0.323s1.038-0.639,1.962-2.082c0.925-1.444,2.414-3.88,3.075-5.368
	c0.662-1.488,0.496-2.03-0.165-2.902c-0.662-0.872-1.819-2.075-2.677-3.143s-1.413-2-1.669-2.864
	c-0.256-0.865-0.211-1.662,0.112-3.128s0.925-3.602,1.752-5.496s1.879-3.549,3.052-5.067s2.467-2.901,3.338-4.436
	c0.873-1.533,1.324-3.218,1.76-5.533c0.437-2.315,0.857-5.263,1.112-6.992c0.256-1.729,0.347-2.24-0.045-2.887
	c-0.391-0.646-1.263-1.429-2.104-2.211c-0.843-0.781-1.654-1.563-1.94-2.496c-0.285-0.933-0.045-2.015,0.075-4.181
	c0.121-2.165,0.121-5.413-0.15-7.639c-0.271-2.225-0.812-3.428-1.082-4.841c-0.271-1.414-0.271-3.038-0.121-4.902
	s0.451-3.97,0.843-5.864c0.391-1.895,0.872-3.578,0.722-4.721s-0.933-1.744-2.136-3.128c-1.202-1.383-2.826-3.548-3.668-5.022
	c-0.843-1.474-0.902-2.255-0.572-3.879c0.331-1.624,1.053-4.09,1.474-6.496c0.422-2.406,0.541-4.751,0.782-7.188
	c0.24-2.436,0.602-4.962,1.293-6.345c0.691-1.384,1.714-1.624,3.428-2.015s4.12-0.933,5.774-1.429
	c1.653-0.496,2.557-0.947,3.143-2.014c0.586-1.068,0.857-2.752,1.082-4.797c0.226-2.045,0.406-4.451,0.211-6.436
	s-0.767-3.548-0.963-5.278c-0.195-1.729-0.015-3.624,0.046-5.187c0.06-1.564,0-2.796-0.542-3.428
	c-0.541-0.632-1.563-0.662-2.631,0.12c-1.067,0.782-2.181,2.375-3.504,3.744c-1.322,1.368-2.856,2.511-5.428,3.744
	c-2.571,1.233-6.18,2.556-8.722,3.819c-2.541,1.263-4.014,2.466-5.202,3.699c-1.188,1.233-2.09,2.496-2.767,3.714
	c-0.677,1.217-1.128,2.39-1.97,3.022s-2.075,0.722-3.293,1.414c-1.218,0.691-2.421,1.985-3.277,3.428
	c-0.857,1.443-1.369,3.037-1.67,5.277c-0.301,2.241-0.391,5.127-0.556,6.992c-0.166,1.865-0.406,2.707-1.099,3.865
	c-0.691,1.158-1.834,2.631-3.128,4.992c-1.293,2.36-2.736,5.609-3.939,8.796c-1.202,3.187-2.165,6.315-3.142,8.691
	c-0.978,2.375-1.971,4-3.414,5.759s-3.338,3.653-5.021,6.315c-1.685,2.661-3.157,6.09-3.97,9.638
	c-0.812,3.549-0.962,7.218-1.037,10.495c-0.075,3.278-0.075,6.165-0.181,7.835c-0.105,1.669-0.315,2.119-1.278,2.015
	c-0.963-0.105-2.677-0.768-4-1.173c-1.323-0.406-2.255-0.557-3.188,0.181c-0.932,0.736-1.864,2.36-1.895,3.608
	s0.842,2.12,1.579,2.857c0.736,0.736,1.338,1.338,1.338,2.3c0,0.963-0.602,2.286-0.571,3.398s0.691,2.015,0.872,3.97
	c0.181,1.954-0.12,4.962-0.181,7.127c-0.06,2.166,0.12,3.488,0.722,5.203c0.602,1.714,1.624,3.819,2.165,5.383
	c0.542,1.563,0.603,2.586,0.03,3.368c-0.571,0.782-1.774,1.323-3.278,2.226c-1.503,0.901-3.308,2.165-4.932,2.797
	c-1.624,0.631-3.067,0.631-3.729-0.121c-0.661-0.752-0.541-2.255-0.69-3.368c-0.15-1.112-0.572-1.834-1.264-2.074
	c-0.691-0.241-1.653,0-2.285,0.722s-0.933,1.924-2.827,3.698s-5.383,4.12-7.729,5.895s-3.549,2.978-4.15,4.09
	s-0.602,2.136-0.061,2.947c0.542,0.813,1.625,1.414,2.376,2.707c0.752,1.293,1.173,3.277,1.79,4.466
	c0.616,1.188,1.428,1.579,2.173,1.646C408.37,507.933,409.047,507.678,409.927,507.129L409.927,507.129z M511.927,467.484
	c1.309,1.805,3.413,4.631,4.917,6.887s2.406,3.939,2.797,6.225c0.391,2.286,0.271,5.173-0.541,8.391
	c-0.813,3.218-2.315,6.767-3.218,9.082s-1.203,3.398-0.782,4.12s1.563,1.083,3.007,0.782c1.444-0.301,3.188-1.264,4.933-2.136
	s3.488-1.654,5.413-1.954c1.925-0.301,4.029-0.121,5.202-0.872c1.173-0.752,1.414-2.436,1.443-3.639
	c0.03-1.203-0.149-1.925,0.782-3.038c0.933-1.112,2.978-2.616,4.842-3.608s3.549-1.474,5.413-2.105
	c1.864-0.631,3.909-1.413,5.504-2.496c1.594-1.082,2.736-2.466,3.308-3.819c0.571-1.353,0.571-2.676,0.812-3.969
	c0.241-1.294,0.723-2.557,1.564-3.549c0.842-0.993,2.045-1.714,3.969-2.195c1.926-0.481,4.571-0.722,6.245-0.902
	c1.673-0.181,2.372-0.301,2.722-0.782s0.35-1.323-0.271-7.097c-0.62-5.774-1.861-16.48-2.993-26.855s-2.154-20.419-2.846-28.298
	s-1.053-13.593-1.503-16.601c-0.451-3.007-0.993-3.308-1.865-4.21c-0.872-0.902-2.074-2.406-3.188-4.03
	c-1.112-1.624-2.135-3.368-2.586-5.383s-0.331-4.3-0.061-6.225s0.691-3.489,1.564-5.142c0.871-1.654,2.194-3.398,2.962-5.052
	c0.767-1.654,0.977-3.218,0.69-4.646c-0.285-1.429-1.067-2.722-1.022-4.496s0.918-4.029,1.459-6.089s0.752-3.925,0.902-5.548
	c0.15-1.624,0.24-3.008-0.136-4c-0.376-0.993-1.218-1.594-2.767-1.985c-1.549-0.391-3.804-0.571-8.21-1.398
	c-4.405-0.826-10.961-2.3-14.479-3.307c-3.518-1.008-3.999-1.549-4.24-2.15c-0.24-0.602-0.24-1.263-0.902-1.624
	c-0.661-0.361-1.984-0.421-4.12-0.782c-2.135-0.361-5.082-1.022-7.127-1.984c-2.045-0.962-3.188-2.226-3.88-2.376
	c-0.691-0.15-0.932,0.812-1.262,2.135c-0.331,1.323-0.752,3.007-1.534,5.985c-0.782,2.977-1.925,7.247-2.917,11.277
	c-0.992,4.03-1.835,7.819-2.346,10.585c-0.512,2.767-0.691,4.511-0.902,7.608c-0.211,3.097-0.451,7.548-0.542,11.187
	c-0.09,3.639-0.03,6.466,0.391,8.06c0.421,1.593,1.203,1.954,2.165,3.007c0.963,1.053,2.105,2.797,2.646,4.451
	c0.542,1.654,0.481,3.218-0.301,4.511c-0.781,1.293-2.285,2.315-3.428,3.639s-1.925,2.947-2.226,4
	c-0.301,1.053-0.12,1.534,0.301,1.956c0.421,0.42,1.083,0.781,1.563,2.826c0.481,2.045,0.782,5.774,0.872,8.721
	c0.091,2.947-0.03,5.112-0.602,5.925c-0.571,0.812-1.594,0.271-3.007,0s-3.218-0.271-3.939,0.06
	c-0.722,0.331-0.361,0.993,0.09,1.985s0.993,2.315,1.188,4.074c0.195,1.76,0.045,3.955,0.511,5.188
	c0.467,1.232,1.549,1.504,2.752,2.165s2.526,1.714,3.474,2.631c0.947,0.918,1.519,1.699,1.293,3.083
	c-0.226,1.383-1.248,3.368-1.819,4.842c-0.571,1.473-0.692,2.436-0.346,3.353c0.346,0.917,1.157,1.789,1.353,2.722
	c0.196,0.932-0.226,1.925-0.36,3.037c-0.136,1.113,0.016,2.346,0.842,3.429c0.827,1.082,2.331,2.015,3.173,2.722
	c0.842,0.706,1.022,1.188,0.346,2.42c-0.677,1.233-2.21,3.218-2.932,4.661c-0.722,1.444-0.632,2.347-0.331,3.188
	C510.107,464.898,510.618,465.68,511.927,467.484z"/>
</svg>
