<?xml version="1.0" encoding="utf-8"?>
<!-- Generator: Adobe Illustrator 15.1.0, SVG Export Plug-In . SVG Version: 6.00 Build 0)  -->
<!DOCTYPE svg PUBLIC "-//W3C//DTD SVG 1.1//EN" "http://www.w3.org/Graphics/SVG/1.1/DTD/svg11.dtd">
<svg version="1.1" id="Layer_1" xmlns="http://www.w3.org/2000/svg" xmlns:xlink="http://www.w3.org/1999/xlink" x="0px" y="0px"
	 width="612px" height="792px" viewBox="0 0 612 792" enable-background="new 0 0 612 792" xml:space="preserve">
<path fill-rule="evenodd" clip-rule="evenodd" stroke="#000000" stroke-width="2.9999" stroke-linecap="round" stroke-linejoin="round" stroke-miterlimit="22.9256" d="
	M242.299,99.038c-0.406-1.498-1.09-3.551-1.176-5.689c-0.085-2.139,0.428-4.363-0.342-6.417c-0.77-2.054-2.823-3.936-4.962-5.817
	c-2.139-1.883-4.363-3.765-7.871-5.646c-3.508-1.883-8.299-3.765-10.694-5.561c-2.396-1.797-2.396-3.508-1.882-5.476
	c0.513-1.968,1.54-4.191,1.369-6.33c-0.171-2.139-1.54-4.193-3.08-5.904s-3.251-3.08-5.219-3.764
	c-1.968-0.685-4.192-0.685-5.39-1.369s-1.369-2.053-3.08-4.021c-1.711-1.968-4.963-4.534-5.732-5.646
	c-0.77-1.112,0.941-0.771,12.918-0.599c11.978,0.171,34.222,0.171,80.25,0.085s115.839-0.257,150.746-0.342
	c34.905-0.085,34.905-0.085,34.905,0.513c0,0.599,0,1.797-0.599,5.048s-1.796,8.555-2.396,12.833
	c-0.599,4.278-0.599,7.529-0.171,10.865s1.283,6.759,3.679,10.951c2.396,4.192,6.331,9.154,8.897,12.748s3.765,5.818,4.277,8.47
	c0.514,2.652,0.343,5.732,1.027,8.726c0.685,2.995,2.224,5.903,3.508,8.556c1.283,2.652,2.31,5.047,2.908,7.529
	c0.599,2.481,0.771,5.047,1.626,7.272c0.855,2.224,2.396,4.106,3.251,5.304s1.026,1.711,1.197,2.738
	c0.171,1.026,0.343,2.566,0.941,21.046c0.599,18.479,1.626,53.898,2.823,104.717c1.198,50.819,2.566,117.037,3.251,150.146
	s0.685,33.109,0.086,33.494s-1.797,1.155-3.209,1.84c-1.411,0.685-3.037,1.283-3.935,2.78c-0.899,1.497-1.07,3.893-0.685,5.646
	c0.385,1.754,1.325,2.866,2.181,3.594c0.855,0.727,1.626,1.069,2.011,2.01c0.386,0.941,0.386,2.481-0.3,4.192
	c-0.684,1.711-2.053,3.594-3.593,5.048s-3.251,2.48-3.807,3.85c-0.557,1.369,0.042,3.08,1.325,4.278
	c1.284,1.197,3.251,1.882,4.534,2.951c1.284,1.069,1.883,2.523,2.183,4.021c0.299,1.497,0.299,3.036,0.385,4.534
	c0.086,1.497,0.257,2.951,1.026,4.063c0.771,1.112,2.139,1.882,3.08,3.251s1.454,3.337,1.155,5.176
	c-0.3,1.84-1.412,3.551-1.968,4.92c-0.557,1.369-0.557,2.396,0.214,3.593c0.77,1.198,2.31,2.566,3.422,3.979
	c1.112,1.411,1.797,2.866,1.454,5.731c-0.342,2.866-1.711,7.144-3.165,9.582s-2.994,3.037-4.32,3.807
	c-1.326,0.771-2.438,1.711-3.165,3.679c-0.728,1.968-1.07,4.963-1.669,7.059s-1.454,3.294-2.353,4.491
	c-0.898,1.198-1.84,2.396-2.566,3.979c-0.728,1.583-1.24,3.55-2.524,4.919c-1.283,1.369-3.336,2.14-4.405,3.123
	c-1.07,0.984-1.155,2.182-0.984,3.465s0.599,2.652,0.171,4.235c-0.428,1.582-1.711,3.379-3.165,5.005
	c-1.454,1.625-3.08,3.079-3.85,4.791c-0.771,1.711-0.685,3.679-0.771,5.133c-0.085,1.454-0.342,2.396-1.069,2.78
	s-1.925,0.214-2.609-0.685s-0.855-2.523-1.454-2.609c-0.6-0.085-1.626,1.369-2.268,2.609c-0.642,1.241-0.898,2.268-1.668,2.438
	c-0.771,0.171-2.054-0.514-2.695-0.043s-0.642,2.097-1.39,2.802c-0.749,0.706-2.246,0.492-2.931,1.326
	c-0.685,0.835-0.556,2.717,0.385,4.106c0.941,1.391,2.695,2.289,4.32,3.166c1.626,0.877,3.123,1.732,3.423,2.631
	c0.299,0.898-0.599,1.839-2.011,2.31s-3.337,0.471-5.154,1.412c-1.818,0.941-3.529,2.823-3.743,4.149s1.069,2.096,2.673,1.646
	c1.604-0.449,3.529-2.117,5.198-2.182c1.668-0.063,3.08,1.477,3.058,2.974c-0.021,1.497-1.475,2.951-3.187,3.785
	c-1.711,0.835-3.679,1.048-5.262,1.263c-1.583,0.213-2.78,0.428-3.422,1.219s-0.728,2.16-0.534,3.679
	c0.192,1.519,0.663,3.187,0.897,4.491c0.235,1.305,0.235,2.246-0.192,2.952c-0.428,0.705-1.283,1.176-2.311,1.539
	c-1.026,0.363-2.224,0.62-2.822,0.984c-0.6,0.363-0.6,0.834-0.386,1.411c0.214,0.578,0.642,1.262,1.989,1.711
	s3.615,0.663,4.791,1.348c1.177,0.685,1.262,1.84,0.642,2.738s-1.946,1.539-3.251,1.496c-1.305-0.042-2.588-0.77-3.551-0.662
	c-0.962,0.106-1.604,1.048-1.668,2.053c-0.063,1.006,0.449,2.075,1.391,2.717s2.31,0.855,3.123,1.326
	c0.813,0.471,1.069,1.197,1.219,1.882s0.192,1.326-0.086,2.032c-0.277,0.706-0.877,1.476-1.454,2.459
	c-0.578,0.984-1.134,2.182-2.032,3.294s-2.139,2.14-3.123,2.759c-0.983,0.621-1.71,0.835-2.438,1.69s-1.455,2.353-2.289,3.636
	s-1.774,2.353-1.945,3.38c-0.172,1.026,0.428,2.01,0.834,3.379s0.62,3.123,0.983,4.62s0.877,2.737,1.903,4.063
	c1.027,1.326,2.566,2.738,3.529,3.508c0.962,0.771,1.348,0.898,1.583,1.604c0.235,0.705,0.32,1.989,0.171,3.122
	c-0.149,1.134-0.535,2.118-1.797,2.652c-1.262,0.535-3.4,0.62-5.262,1.006c-1.86,0.385-3.443,1.069-4.727,1.411
	c-1.283,0.343-2.268,0.343-3.657,0.385c-1.391,0.043-3.187,0.129-5.005,0.663c-1.818,0.535-3.657,1.519-5.326,2.417
	c-1.668,0.898-3.165,1.711-5.09,1.882c-1.926,0.172-4.278-0.299-6.075,0.021c-1.796,0.321-3.036,1.434-4.106,3.508
	c-1.069,2.075-1.968,5.112-2.673,7.315c-0.706,2.203-1.22,3.571-1.754,4.748c-0.535,1.176-1.091,2.16-0.706,3.358
	c0.386,1.197,1.711,2.608,3.294,4.106c1.583,1.497,3.422,3.079,4.642,4.897c1.219,1.818,1.817,3.872,1.946,5.519
	c0.128,1.646-0.214,2.888-0.706,4.406s-1.134,3.314-1.646,4.79c-0.514,1.477-0.898,2.631-1.883,3.423
	c-0.983,0.791-2.566,1.219-4.085,1.391c-1.519,0.171-2.973,0.085-4.32-0.664c-1.348-0.748-2.588-2.16-4.471-3.657
	c-1.882-1.497-4.405-3.079-6.374-4.149c-1.967-1.069-3.379-1.625-4.854-1.968c-1.476-0.342-3.016-0.471-4.192-0.534
	c-1.177-0.064-1.988-0.064-2.588-0.535c-0.599-0.471-0.983-1.411-1.626-2.245c-0.642-0.835-1.539-1.562-3.059-2.161
	c-1.519-0.599-3.657-1.068-5.518-1.561s-3.443-1.006-4.749-1.797c-1.304-0.791-2.331-1.861-3.4-2.417s-2.182-0.599-3.614-0.535
	c-1.434,0.064-3.187,0.235-5.197,1.455c-2.011,1.219-4.277,3.486-5.818,5.154c-1.54,1.669-2.353,2.737-3.229,4.192
	c-0.877,1.454-1.817,3.294-3.059,4.662c-1.24,1.369-2.78,2.268-3.893,3.743c-1.112,1.477-1.796,3.529-2.225,5.091
	c-0.428,1.562-0.599,2.631-1.048,2.631s-1.177-1.069-2.588-2.695c-1.412-1.626-3.508-3.807-5.177-4.642
	c-1.668-0.834-2.908-0.32-3.315,0.813c-0.406,1.134,0.021,2.887,0.728,4.491s1.689,3.059,1.711,4.063
	c0.021,1.006-0.919,1.562-2.502,1.241c-1.583-0.321-3.808-1.519-5.54-3.017c-1.732-1.496-2.973-3.293-3.229-4.47
	c-0.257-1.176,0.471-1.732,0.898-2.31c0.428-0.578,0.556-1.177,0.149-1.883s-1.347-1.519-1.668-2.416
	c-0.321-0.898-0.021-1.883-0.449-2.803s-1.583-1.774-2.674-2.908s-2.117-2.546-2.396-4.278c-0.277-1.732,0.192-3.785,0.278-5.197
	c0.085-1.412-0.214-2.182-1.583-2.951c-1.369-0.771-3.807-1.54-5.09-2.546c-1.283-1.005-1.412-2.245-0.877-3.614
	s1.732-2.866,2.93-3.679c1.198-0.813,2.396-0.941,3.551-1.625c1.154-0.685,2.267-1.925,2.63-3.957
	c0.363-2.031-0.021-4.854-0.685-7.272c-0.663-2.416-1.604-4.427-2.93-6.587s-3.038-4.471-4.064-6.545
	c-1.026-2.075-1.369-3.914-1.39-5.732c-0.021-1.817,0.278-3.614,0.984-4.299c0.706-0.685,1.818-0.257,2.438-0.406
	s0.748-0.877,0.278-2.332c-0.471-1.454-1.54-3.636-2.064-5.293c-0.524-1.657-0.503-2.791-0.717-3.732
	c-0.214-0.94-0.663-1.689-2.32-2.716s-4.524-2.331-6.93-3.358c-2.406-1.026-4.353-1.775-5.764-2.277
	c-1.412-0.503-2.289-0.76-2.449-1.263c-0.16-0.502,0.396-1.251,0.535-2.256c0.139-1.005-0.139-2.268-0.695-3.166
	c-0.556-0.897-1.39-1.433-4.502-3.657s-8.502-6.139-11.432-8.096c-2.931-1.957-3.401-1.957-4.299-1.315
	c-0.899,0.643-2.225,1.925-3.508,2.738c-1.283,0.813-2.523,1.154-4.085,0.599c-1.562-0.557-3.443-2.011-4.62-3.123
	c-1.177-1.111-1.647-1.882-1.026-2.566c0.62-0.685,2.331-1.283,3.85-1.689c1.519-0.407,2.844-0.62,3.336-1.326
	c0.492-0.706,0.149-1.903-0.556-2.524c-0.706-0.62-1.775-0.662-2.887-0.556s-2.267,0.363-3.764-0.128
	c-1.498-0.492-3.337-1.732-4.898-3.059c-1.562-1.326-2.845-2.738-4.385-3.636c-1.54-0.899-3.337-1.284-4.492-2.118
	c-1.155-0.834-1.668-2.117-2.909-3.08c-1.24-0.962-3.208-1.604-5.047-2.994s-3.551-3.529-5.047-5.604
	c-1.498-2.075-2.781-4.085-4.107-5.39c-1.326-1.305-2.695-1.903-3.807-2.888c-1.112-0.983-1.968-2.353-2.738-4.192
	c-0.77-1.839-1.454-4.148-1.711-6.373s-0.086-4.363,0.727-7.058c0.813-2.695,2.267-5.946,3.593-8.257
	c1.326-2.31,2.524-3.679,3.722-4.834c1.197-1.154,2.395-2.096,3.122-4.106c0.728-2.01,0.984-5.091,1.883-7.4
	c0.898-2.31,2.438-3.85,3.807-5.902c1.369-2.054,2.566-4.62,3.294-6.674c0.727-2.053,0.984-3.593,0.342-5.646
	c-0.642-2.054-2.182-4.62-2.459-6.331c-0.278-1.711,0.706-2.566,2.139-3.85c1.433-1.283,3.314-2.994,4.577-4.705
	c1.261-1.712,1.903-3.423,2.353-4.834c0.449-1.412,0.706-2.524,0.513-3.786s-0.834-2.673-2.78-4.385
	c-1.947-1.711-5.198-3.721-9.561-5.711c-4.363-1.988-9.838-3.956-13.816-5.347c-3.979-1.391-6.46-2.203-8.278-2.245
	c-1.818-0.043-2.973,0.684-4.235,2.331c-1.262,1.646-2.631,4.213-3.829,5.967s-2.225,2.695-3.337,3.251
	c-1.112,0.557-2.31,0.728-3.828,0.278s-3.358-1.519-4.898-3.657s-2.78-5.348-3.358-7.85c-0.578-2.503-0.492-4.299-0.941-6.074
	c-0.449-1.775-1.433-3.529-1.326-4.92c0.107-1.39,1.305-2.416,1.732-3.828c0.428-1.411,0.086-3.208-0.898-5.091
	c-0.984-1.882-2.609-3.85-3.123-5.859c-0.513-2.012,0.085-4.064,0.214-6.032c0.128-1.968-0.214-3.85-0.898-5.562
	c-0.685-1.71-1.711-3.25-2.695-4.747s-1.925-2.952-3.551-4.535c-1.625-1.582-3.935-3.294-5.946-4.705s-3.722-2.523-5.304-3.765
	c-1.583-1.24-3.037-2.609-5.133-4.277c-2.096-1.669-4.834-3.636-6.845-4.962c-2.011-1.326-3.294-2.011-3.935-3.251
	c-0.642-1.241-0.642-3.037-0.899-4.834c-0.256-1.797-0.77-3.594-2.181-4.748c-1.412-1.155-3.722-1.669-5.818-2.652
	c-2.096-0.984-3.978-2.438-6.544-5.476s-5.818-7.657-8.256-10.78c-2.438-3.122-4.064-4.748-4.491-6.972
	c-0.428-2.224,0.342-5.048-0.428-7.187s-3.08-3.593-5.133-5.219c-2.054-1.625-3.851-3.422-3.765-5.261
	c0.085-1.839,2.053-3.722,2.267-5.861c0.214-2.139-1.326-4.534-2.225-6.715c-0.898-2.182-1.155-4.15-1.454-5.732
	c-0.299-1.583-0.642-2.781-1.412-2.652s-1.968,1.583-2.781,0.385c-0.813-1.197-1.24-5.047-1.753-8.17
	c-0.513-3.123-1.112-5.518-0.77-9.497c0.342-3.978,1.625-9.539,3.037-13.988c1.412-4.449,2.951-7.786,4.62-9.582
	c1.668-1.797,3.464-2.054,4.962-2.652s2.695-1.54,3.294-2.866c0.599-1.326,0.599-3.037,0.513-4.32
	c-0.085-1.283-0.256-2.139-0.406-2.887c-0.15-0.749-0.278-1.39,0.235-2.545c0.514-1.155,1.668-2.823,1.198-4.492
	c-0.47-1.668-2.566-3.336-3.443-4.641s-0.535-2.246,0.877-3.807s3.893-3.743,6.096-5.304c2.203-1.562,4.127-2.502,6.16-2.631
	c2.032-0.128,4.171,0.556,6.139,0.406c1.967-0.15,3.764-1.133,5.133-2.353c1.369-1.22,2.31-2.674,2.995-4.449
	c0.685-1.775,1.112-3.872,1.989-5.39c0.877-1.519,2.203-2.46,2.994-3.743s1.048-2.909,0.428-4.513
	c-0.62-1.604-2.117-3.187-2.545-4.492c-0.428-1.305,0.213-2.332,2.331-4.577s5.711-5.711,8.063-8.042
	c2.353-2.331,3.465-3.528,4.171-5.24c0.706-1.711,1.005-3.936,1.412-6.288c0.406-2.353,0.919-4.834,1.027-7.507
	c0.106-2.673-0.193-5.54-1.134-7.892c-0.941-2.353-2.523-4.192-3.957-5.305c-1.433-1.112-2.716-1.497-3.743-1.839
	c-1.026-0.342-1.796-0.642-3.058-2.459c-1.262-1.818-3.016-5.155-3.743-7.272c-0.727-2.118-0.428-3.016,0.128-3.722
	c0.556-0.706,1.369-1.219,1.732-2.887c0.363-1.668,0.278-4.492,0.706-7.251s1.369-5.454,2.267-7.272
	c0.898-1.818,1.754-2.759,3.251-2.93s3.636,0.428,5.86,0.578c2.224,0.149,4.535-0.15,6.63-0.877
	c2.096-0.728,3.978-1.882,5.946-2.289c1.968-0.406,4.021-0.064,5.903,0.171c1.882,0.235,3.593,0.363,5.454,0.192
	c1.861-0.171,3.872-0.641,5.646-1.497c1.776-0.856,3.315-2.097,4.599-3.294c1.284-1.198,2.31-2.353,3.487-2.887
	c1.176-0.535,2.502-0.449,4.32-0.299c1.817,0.149,4.128,0.364,6.074,0.085c1.946-0.278,3.529-1.048,4.556-2.182
	c1.027-1.134,1.497-2.631,2.738-3.657c1.24-1.027,3.251-1.583,4.642-2.16c1.39-0.578,2.16-1.177,2.673-2.631
	c0.514-1.454,0.77-3.764,1.026-5.818c0.257-2.053,0.514-3.85,0.877-6.053s0.834-4.813,1.84-7.165
	c1.005-2.353,2.545-4.449,4.598-5.668s4.62-1.562,6.032-2.353c1.412-0.792,1.668-2.032,1.625-3.765
	c-0.043-1.732-0.385-3.957,0-5.646c0.385-1.69,1.497-2.845,2.203-4.214c0.706-1.369,1.005-2.951,0.855-4.448
	c-0.15-1.498-0.749-2.909-0.578-4.192c0.171-1.284,1.112-2.438,1.519-3.486C242.833,101.476,242.706,100.535,242.299,99.038z"/>
</svg>
