<?xml version="1.0" encoding="utf-8"?>
<!-- Generator: Adobe Illustrator 15.1.0, SVG Export Plug-In . SVG Version: 6.00 Build 0)  -->
<!DOCTYPE svg PUBLIC "-//W3C//DTD SVG 1.1//EN" "http://www.w3.org/Graphics/SVG/1.1/DTD/svg11.dtd">
<svg version="1.1" id="Layer_1" xmlns="http://www.w3.org/2000/svg" xmlns:xlink="http://www.w3.org/1999/xlink" x="0px" y="0px"
	 width="612px" height="792px" viewBox="0 0 612 792" enable-background="new 0 0 612 792" xml:space="preserve">
<path fill-rule="evenodd" clip-rule="evenodd" stroke="#000000" stroke-width="2.9999" stroke-linecap="round" stroke-linejoin="round" stroke-miterlimit="22.9256" d="
	M159.855,208.343c-0.584-1.576-1.065-3.82-0.464-5.502c0.601-1.683,2.283-2.804,3.285-4.046c1.002-1.242,1.322-2.604-0.881-4.366
	c-2.204-1.763-6.931-3.926-8.974-6.049c-2.043-2.124-1.403-4.207,0.04-5.368c1.442-1.162,3.686-1.402,5.529-0.721
	c1.843,0.681,3.285,2.283,4.486,2.684c1.202,0.4,2.164-0.4,2.965,0.281s1.442,2.844,2.404,3.966c0.961,1.121,2.243,1.202,3.004,0.44
	s1.001-2.363,0.761-3.686c-0.24-1.322-0.961-2.363-0.28-3.405c0.681-1.042,2.764-2.083,4.527-2.764s3.205-1.001,4.327-2.284
	s1.923-3.525,1.482-4.447c-0.441-0.921-2.123-0.521-4.046-1.282c-1.923-0.761-4.086-2.684-5.328-4.727
	c-1.242-2.043-1.563-4.207-0.481-5.569c1.082-1.362,3.565-1.923,5.649-1.723s3.766,1.162,5.488,1.883s3.485,1.202,4.848,0.321
	c1.362-0.881,2.323-3.125,1.883-4.407c-0.441-1.282-2.283-1.603-4.527-1.683c-2.244-0.081-4.888,0.08-6.851-1.162
	s-3.245-3.886-3.285-5.488c-0.041-1.603,1.161-2.163,2.323-1.843c1.162,0.32,2.283,1.522,3.726,2.283s3.205,1.082,4.327-0.44
	c1.122-1.522,1.603-4.888,2.644-6.61s2.644-1.803,4.006-1.282c1.362,0.521,2.483,1.643,3.605,1.442
	c1.122-0.2,2.243-1.723,1.602-3.525c-0.641-1.803-3.044-3.886-3.525-5.969c-0.481-2.083,0.961-4.167,2.123-4.567
	c1.162-0.401,2.043,0.881,3.565,1.081c1.522,0.201,3.686-0.681,4.967-0.761c1.282-0.08,1.683,0.641,1.522,1.923
	c-0.16,1.282-0.881,3.125-0.721,4.567c0.16,1.442,1.201,2.484,2.243,2.444c1.042-0.04,2.083-1.162,2.363-2.644
	c0.28-1.482-0.2-3.325-0.32-4.607s0.12-2.003,1.162-2.684c1.042-0.681,2.884-1.322,4.607-2.404c1.722-1.082,3.324-2.604,3.404-5.048
	c0.08-2.443-1.362-5.809-1.322-8.132s1.562-3.605,3.405-5.288c1.843-1.683,4.006-3.766,3.485-5.328s-3.726-2.604-5.368-4.687
	c-1.643-2.083-1.723-5.208-1.001-7.933s2.243-5.047,3.445-5.528c1.202-0.48,2.083,0.881,2.404,2.564
	c0.32,1.683,0.08,3.686,1.042,4.647c0.962,0.961,3.125,0.881,4.888-0.681s3.125-4.607,3.165-6.49s-1.241-2.604-3.845-3.044
	c-2.604-0.441-6.53-0.601-8.293-1.563s-1.362-2.724-0.401-4.006c0.961-1.282,2.484-2.083,2.604-3.245s-1.162-2.684-1.042-3.966
	s1.643-2.323,2.964-2.563c1.322-0.24,2.444,0.32,3.125,1.562s0.921,3.165,0.641,4.567c-0.28,1.402-1.082,2.284-0.761,3.085
	s1.763,1.522,3.165,1.482c1.402-0.04,2.764-0.841,3.044-2.203c0.28-1.362-0.521-3.285-1.082-5.008s-0.881-3.245-0.721-4.327
	s0.801-1.723,0.4-3.405c-0.4-1.683-1.843-4.407-1.762-6.45c0.08-2.043,1.682-3.405,3.245-3.325c1.563,0.08,3.084,1.602,3.846,3.405
	c0.761,1.803,0.761,3.886,1.322,5.048s1.682,1.402,3.165,0.601c1.482-0.802,3.325-2.644,5.008-2.965
	c1.683-0.32,3.205,0.881,4.006,0.441c0.801-0.441,0.882-2.524,2.043-3.886c1.162-1.361,3.405-2.003,5.008-3.004
	c1.603-1.002,2.563-2.364,2.163-4.086s-2.163-3.806-3.806-5.368s-3.165-2.604-3.926-3.125c-0.761-0.521-0.761-0.521-0.321-0.721
	c0.441-0.201,1.322-0.601,5.608-0.761c4.287-0.161,11.979-0.081,27.723-0.081c15.744,0,39.54-0.08,79.101-0.15
	c39.561-0.07,94.885-0.131,122.547-0.161c27.662-0.03,27.662-0.03,27.642,0.18c-0.02,0.21-0.06,0.63,0.291,1.703
	c0.351,1.071,1.092,2.794,2.144,4.507s2.413,3.415,4.105,4.788c1.693,1.372,3.717,2.414,4.647,3.115
	c0.932,0.701,0.771,1.061,0.651,2.494c-0.12,1.432-0.2,3.936-6.47,62.706c-6.271,58.77-18.729,173.806-26.482,247.349
	c-7.752,73.542-10.797,105.591-12.309,121.746c-1.513,16.155-1.493,16.415-1.483,16.715c0.01,0.301,0.01,0.642,0.189,3.826
	c0.181,3.185,0.541,9.214,2.008,45.865s4.041,103.923,5.388,137.78c1.347,33.856,1.467,34.297,1.246,34.637
	c-0.22,0.341-0.78,0.582-0.681,1.223c0.101,0.641,0.861,1.683,1.282,2.645c0.421,0.961,0.501,1.842-0.16,2.043
	c-0.661,0.2-2.063-0.28-3.285-0.16s-2.264,0.841-3.045,1.702s-1.302,1.862-2.384,2.163s-2.724-0.1-3.946-0.841
	c-1.222-0.741-2.022-1.823-3.625-2.284c-1.603-0.46-4.006-0.3-5.269-0.661c-1.262-0.36-1.382-1.241-1.803-2.082
	c-0.421-0.842-1.142-1.644-2.022-1.803c-0.882-0.161-1.924,0.32-3.306,0.7c-1.382,0.381-3.104,0.661-4.267,0.982
	c-1.161,0.319-1.763,0.68-2.563,1.361c-0.802,0.682-1.803,1.683-3.305,1.743c-1.503,0.06-3.506-0.821-5.77-2.665
	c-2.264-1.842-4.787-4.646-6.75-6.71c-1.964-2.063-3.365-3.385-4.928-4.046s-3.285-0.661-4.868-0.642
	c-1.582,0.021-3.023,0.061-4.627,0.2c-1.602,0.141-3.364,0.381-4.927,0.441c-1.563,0.06-2.925-0.061-3.706,0.5
	c-0.781,0.562-0.981,1.803-0.061,2.444c0.922,0.641,2.965,0.681,5.188,0.62c2.224-0.06,4.627-0.22,6.51-0.02
	c1.884,0.2,3.245,0.762,4.728,2.323c1.482,1.563,3.085,4.127,4.647,5.97s3.084,2.965,2.724,3.646
	c-0.36,0.682-2.604,0.921-4.267-0.081c-1.662-1.001-2.744-3.244-4.227-4.687c-1.481-1.442-3.364-2.083-5.589-2.403
	c-2.223-0.32-4.787-0.32-7.852,0.04s-6.63,1.082-9.334,1.843c-2.704,0.762-4.547,1.563-7.211,2.703
	c-2.664,1.143-6.149,2.625-9.814,3.867c-3.666,1.241-7.512,2.243-9.756,2.103c-2.243-0.14-2.884-1.422-2.684-2.604
	s1.242-2.264,1.862-3.265c0.621-1.002,0.821-1.923-0.08-2.885s-2.904-1.963-4.987-2.104c-2.083-0.14-4.246,0.581-5.549,1.522
	c-1.302,0.941-1.742,2.104-1.142,2.483c0.601,0.381,2.243-0.02,3.325,0.12c1.082,0.141,1.603,0.822,2.023,1.703
	c0.421,0.882,0.741,1.963,0.541,3.085c-0.201,1.122-0.922,2.283-2.344,3.485c-1.423,1.202-3.546,2.443-5.208,3.445
	c-1.663,1.002-2.865,1.763-3.186,2.443c-0.32,0.682,0.24,1.282,0.24,2.104s-0.561,1.862-1.182,2.744
	c-0.621,0.881-1.302,1.603-1.302,2.264s0.681,1.262,0.54,2.2c-0.14,0.938-1.101,2.215-2.223,2.956s-2.403,0.947-2.824,0.349
	c-0.421-0.598,0.02-2-0.261-2.801c-0.28-0.802-1.281-1.002-1.782-0.701s-0.501,1.102-1.442,1.8s-2.824,1.294-3.686,0.894
	c-0.861-0.401-0.701-1.798-1.362-2.216s-2.144,0.144-3.325,0.443c-1.182,0.301-2.063,0.341-3.145-0.741
	c-1.082-1.081-2.364-3.284-3.045-4.927s-0.761-2.725-1.082-3.686c-0.32-0.962-0.881-1.803-1.081-2.805
	c-0.2-1.001-0.04-2.163-0.381-3.024s-1.182-1.422-1.082-2.123c0.101-0.701,1.143-1.543,1.522-2.585
	c0.381-1.042,0.101-2.283-0.741-3.846c-0.841-1.563-2.243-3.445-3.244-5.088c-1.002-1.643-1.603-3.044-1.903-4.747
	c-0.301-1.702-0.301-3.705-0.472-5.178c-0.17-1.473-0.512-2.414-1.784-3.526c-1.272-1.111-3.476-2.394-5.139-3.655
	c-1.662-1.262-2.783-2.504-3.444-3.665c-0.661-1.162-0.862-2.244-1.483-3.266c-0.62-1.021-1.662-1.982-2.183-2.885
	c-0.521-0.901-0.521-1.742-0.882-2.704c-0.36-0.961-1.081-2.043-1.642-3.125c-0.562-1.081-0.962-2.163-0.982-3.044
	c-0.02-0.882,0.341-1.563,0.381-2.344c0.04-0.782-0.24-1.662-0.921-2.384c-0.682-0.721-1.763-1.282-2.104-2.304
	s0.06-2.503,0.08-3.825c0.02-1.322-0.341-2.483-0.041-3.386c0.301-0.901,1.263-1.542,1.663-2.744c0.4-1.201,0.24-2.964,0.1-4.427
	c-0.14-1.462-0.26-2.623-0.1-3.345c0.16-0.721,0.601-1.002,1.222-1.223c0.621-0.22,1.423-0.38,1.783-1.081s0.28-1.942,0.741-2.704
	c0.461-0.761,1.462-1.041,1.683-1.782c0.22-0.741-0.341-1.943,0.02-2.965s1.643-1.863,2.104-3.064
	c0.461-1.202,0.101-2.765,0.4-3.946c0.301-1.182,1.262-1.983,1.542-3.386c0.281-1.401-0.119-3.404,0.201-4.827
	c0.32-1.422,1.361-2.263,2.043-3.205c0.681-0.941,1.001-1.982,1.041-2.703c0.04-0.722-0.2-1.122-0.641-1.322s-1.082-0.2-5.669-0.221
	c-4.587-0.02-13.12-0.06-50.277-0.06s-102.938,0.04-137.911,0.09c-34.973,0.051-39.14,0.11-41.163,0.021
	c-2.023-0.091-1.903-0.331-1.633-0.571c0.271-0.24,0.691-0.48,2.294-1.412c1.602-0.932,4.386-2.554,5.869-4.036
	c1.482-1.482,1.662-2.824,0.841-4.307c-0.821-1.482-2.645-3.104-3.937-4.247c-1.292-1.142-2.053-1.803-2.574-2.914
	c-0.521-1.111-0.801-2.675-0.34-4.257c0.46-1.582,1.662-3.185,1.782-4.507s-0.841-2.363-2.443-4.486s-3.846-5.329-3.565-7.292
	c0.28-1.963,3.084-2.684,5.809-2.884s5.368,0.12,7.211-0.642c1.842-0.762,2.884-2.604,1.843-4.646s-4.167-4.287-5.849-7.371
	c-1.683-3.085-1.923-7.012-0.641-8.774s4.086-1.361,6.009,0.48c1.923,1.844,2.964,5.129,4.567,5.89s3.766-1.001,4.287-2.805
	c0.521-1.803-0.601-3.645-1.843-5.328c-1.242-1.683-2.604-3.204-3.165-5.048c-0.561-1.842-0.321-4.006-0.762-5.769
	c-0.44-1.763-1.562-3.124-1.282-4.166s1.963-1.763,4.287-2.243c2.323-0.481,5.288-0.722,7.191-1.983s2.744-3.546,2.224-4.888
	c-0.521-1.342-2.404-1.743-4.507-1.382c-2.104,0.36-4.427,1.481-6.169,0.621c-1.743-0.862-2.904-3.706-2.664-6.07
	c0.241-2.363,1.883-4.246,3.245-4.427c1.362-0.18,2.443,1.343,4.126,2.464c1.683,1.122,3.966,1.844,5.489,1.703
	c1.522-0.141,2.283-1.142,2.404-2.805c0.12-1.662-0.401-3.985-0.06-6.189c0.341-2.203,1.542-4.286,3.465-4.987
	s4.567-0.021,7.351,0.2c2.784,0.22,5.709-0.02,7.231-1.222c1.522-1.202,1.642-3.365,0.601-4.407
	c-1.042-1.041-3.245-0.962-5.83-0.581c-2.584,0.381-5.548,1.063-7.311,0.762s-2.323-1.583-1.742-4.327
	c0.581-2.744,2.303-6.95,3.966-8.874c1.663-1.922,3.265-1.562,4.206-0.14c0.941,1.422,1.222,3.906,2.184,5.408
	c0.961,1.503,2.604,2.023,3.885,1.482c1.282-0.541,2.204-2.143,1.923-3.385c-0.281-1.242-1.763-2.124-2.183-3.025
	c-0.421-0.901,0.22-1.822,1.422-2.884s2.964-2.264,4.387-3.386c1.422-1.121,2.503-2.163,2.744-3.525
	c0.241-1.362-0.36-3.044-0.26-4.566s0.901-2.885,2.504-3.666c1.602-0.781,4.006-0.981,5.889-1.422s3.245-1.122,3.846-2.163
	c0.601-1.042,0.441-2.444-0.881-3.205c-1.322-0.762-3.806-0.882-5.608-1.683c-1.803-0.802-2.924-2.284-3.104-3.786
	c-0.181-1.502,0.581-3.024,1.121-3.825c0.541-0.802,0.861-0.882,1.583-0.822c0.721,0.061,1.842,0.261,2.824,1.042
	c0.982,0.781,1.823,2.144,2.705,3.125s1.802,1.582,2.263,0.981s0.461-2.403,0.901-3.485s1.322-1.442,2.284-1.883
	c0.961-0.441,2.003-0.961,2.504-1.753c0.5-0.791,0.46-1.853,1.362-2.644s2.744-1.313,3.625-2.214c0.881-0.901,0.801-2.183-0.4-3.385
	c-1.202-1.202-3.525-2.323-4.808-2.063c-1.282,0.261-1.522,1.903-2.444,2.784c-0.921,0.882-2.524,1.002-3.605,1.763
	c-1.082,0.762-1.643,2.164-3.105,2.765c-1.462,0.601-3.826,0.4-5.769-0.781s-3.465-3.345-4.146-4.667s-0.521-1.803,0.28-2.965
	c0.801-1.161,2.243-3.005,3.746-3.705c1.502-0.701,3.065-0.261,4.267-0.602c1.202-0.341,2.043-1.462,2.704-2.323
	s1.142-1.463,2.244-1.422c1.102,0.039,2.824,0.721,3.986,0.42c1.162-0.3,1.762-1.582,2.564-2.063
	c0.801-0.481,1.803-0.16,2.624,0.921c0.821,1.082,1.462,2.925,2.043,3.846c0.581,0.922,1.102,0.922,1.462,0.741
	c0.36-0.18,0.561-0.54,0.701-1.502c0.14-0.962,0.22-2.523,0.401-3.686c0.18-1.162,0.46-1.923,0.26-3.045
	c-0.201-1.122-0.881-2.604-0.962-3.666c-0.08-1.062,0.441-1.702,1.102-2.103c0.661-0.401,1.462-0.561,2.243-0.2
	s1.542,1.241,2.344,1.182c0.801-0.061,1.643-1.062,3.325-2.904c1.682-1.843,4.206-4.527,5.107-6.65
	c0.901-2.124,0.18-3.687-0.861-3.887s-2.404,0.962-3.505,2.164c-1.102,1.201-1.943,2.443-3.445,2.924
	c-1.502,0.481-3.666,0.2-5.929-0.061c-2.264-0.26-4.627-0.5-5.388-1.702c-0.761-1.201,0.08-3.365,1.703-5.088
	s4.026-3.004,4.808-4.347c0.781-1.342-0.061-2.744-1.282-3.345c-1.222-0.601-2.825-0.4-4.307,0.12
	c-1.483,0.521-2.844,1.362-4.948,1.302c-2.103-0.06-4.947-1.021-6.891-2.824c-1.943-1.803-2.984-4.447-2.704-6.55
	c0.28-2.104,1.882-3.666,3.145-3.826s2.183,1.082,3.545,2.364c1.362,1.281,3.165,2.604,5.168,3.244
	c2.003,0.642,4.207,0.602,5.468-0.061c1.262-0.66,1.582-1.942,0.741-3.104c-0.841-1.161-2.845-2.202-4.967-3.164
	c-2.124-0.962-4.367-1.843-5.048-2.965s0.2-2.483,2.023-4.106c1.823-1.622,4.587-3.505,5.449-5.328
	c0.861-1.823-0.181-3.586-1.362-4.006c-1.182-0.421-2.504,0.5-3.345,1.723c-0.841,1.222-1.202,2.744-2.824,4.006
	c-1.623,1.262-4.507,2.263-6.31,2.383c-1.803,0.12-2.524-0.641-3.305-1.983c-0.781-1.342-1.623-3.265-1.943-4.426
	c-0.321-1.162-0.12-1.563,0.601-2.144c0.721-0.581,1.963-1.342,4.167-2.784c2.203-1.442,5.368-3.566,6.771-5.509
	c1.402-1.943,1.041-3.706-0.48-4.607c-1.522-0.901-4.207-0.941-6.17-0.941c-1.963,0-3.205,0.04-4.026-0.541
	c-0.821-0.581-1.222-1.783-1.222-4.046c0-2.264,0.4-5.589,1.162-7.792c0.761-2.204,1.883-3.285,3.165-3.946s2.724-0.901,3.726-1.202
	c1.002-0.301,1.563-0.661,2.023-2.083c0.46-1.422,0.821-3.906,0.882-6.129c0.06-2.224-0.181-4.186-0.741-5.909
	c-0.561-1.723-1.442-3.205-2.363-3.926c-0.922-0.721-1.883-0.681-2.524,0.681c-0.641,1.362-0.962,4.046-1.222,6.109
	c-0.261,2.063-0.461,3.505-1.883,4.367c-1.422,0.861-4.066,1.141-6.229,0.16c-2.164-0.981-3.846-3.225-3.505-5.568
	c0.34-2.344,2.704-4.788,3.826-6.75c1.121-1.963,1.001-3.445,1.402-4.527c0.4-1.082,1.322-1.763,2.563-2.343
	c1.242-0.581,2.804-1.062,3.345-2.144c0.541-1.082,0.06-2.764-1.422-4.287c-1.482-1.522-3.966-2.884-5.388-4.467
	c-1.422-1.583-1.783-3.385-1.122-4.928c0.661-1.542,2.343-2.824,4.307-2.604c1.963,0.22,4.206,1.943,5.729,2.484
	c1.522,0.541,2.323-0.1,2.744-1.883c0.42-1.783,0.461-4.708,0.581-6.75s0.321-3.205,1.202-4.166
	c0.881-0.961,2.443-1.723,3.525-3.225c1.081-1.502,1.683-3.746,1.382-5.409s-1.502-2.744-2.684-2.804
	c-1.182-0.061-2.343,0.901-3.064,2.383c-0.721,1.482-1.002,3.485-1.743,3.926c-0.741,0.44-1.943-0.681-2.924-2.404
	c-0.982-1.723-1.743-4.046-1.903-6.009c-0.161-1.963,0.28-3.565,1.742-5.569c1.462-2.003,3.946-4.406,5.529-6.189
	c1.582-1.783,2.263-2.945,2.744-3.986s0.761-1.963,0.16-3.024s-2.083-2.264-3.004-2.503c-0.922-0.241-1.282,0.48-1.723,1.622
	c-0.44,1.142-0.961,2.704-1.742,4.247c-0.781,1.542-1.823,3.064-3.525,3.985c-1.703,0.922-4.066,1.242-5.729,0.421
	s-2.624-2.784-2.624-4.146s0.961-2.123,2.544-2.644c1.583-0.521,3.786-0.802,5.228-1.823s2.123-2.784,2.043-4.307
	s-0.921-2.804-1.963-3.465c-1.042-0.662-2.283-0.701-3.185-0.04c-0.901,0.661-1.462,2.023-2.183,3.405
	c-0.721,1.382-1.603,2.784-2.784,3.425c-1.182,0.641-2.664,0.521-3.325-0.421s-0.501-2.704,0.261-4.046
	c0.761-1.342,2.123-2.264,2.543-3.525c0.421-1.262-0.1-2.864-0.721-4.206c-0.621-1.343-1.342-2.424-1.803-3.586
	c-0.461-1.161-0.662-2.403-0.161-3.225s1.703-1.222,2.944-0.821c1.242,0.401,2.524,1.603,3.866,1.903
	c1.342,0.3,2.744-0.3,3.605-1.522c0.861-1.222,1.182-3.064,0.24-4.727c-0.941-1.663-3.145-3.145-5.107-4.708
	c-1.963-1.563-3.686-3.205-3.946-4.947c-0.261-1.743,0.941-3.586,2.063-4.487c1.122-0.901,2.163-0.861,3.646,0
	s3.405,2.544,5.689,4.267c2.283,1.723,4.927,3.485,7.071,3.686c2.143,0.2,3.786-1.162,4.307-2.964
	c0.521-1.803-0.08-4.046-0.801-5.188s-1.563-1.182-2.964-0.661c-1.402,0.521-3.366,1.602-4.968,1.643
	c-1.603,0.04-2.844-0.961-3.445-2.103c-0.601-1.142-0.561-2.424-0.481-4.187c0.081-1.763,0.201-4.006,0.982-5.088
	c0.781-1.082,2.223-1.001,3.545-0.961c1.322,0.04,2.524,0.04,3.706,0.08c1.182,0.04,2.344,0.12,3.405,0.841s2.023,2.083,3.225,2.363
	c1.202,0.281,2.644-0.521,3.225-1.522c0.581-1.002,0.3-2.204-0.801-3.345c-1.102-1.143-3.024-2.224-4.33-3.22
	S160.439,209.919,159.855,208.343L159.855,208.343z M463.738,734.721c0.221,1.383,1.783,3.546,3.346,4.307
	c1.563,0.762,3.124,0.121,3.625-0.821c0.501-0.941-0.061-2.183-1.062-3.245c-1.002-1.062-2.443-1.942-3.726-2.083
	C464.64,732.738,463.519,733.339,463.738,734.721L463.738,734.721z M487.215,752.568c-2.344,0.04-5.829-0.16-7.502-1.062
	s-1.532-2.504-0.901-3.355c0.631-0.851,1.752-0.951,3.485-0.892c1.732,0.061,4.076,0.281,5.729,0.512
	c1.653,0.229,2.614,0.471,3.155,1.171c0.541,0.702,0.661,1.863,0.12,2.585C490.76,752.248,489.559,752.528,487.215,752.568
	L487.215,752.568z M455.186,748.382c-2.244-0.621-3.525-1.342-5.389-1.342s-4.307,0.721-5.749,0.24s-1.883-2.163-1.582-3.345
	c0.301-1.183,1.342-1.863,3.525-2.084c2.184-0.22,5.509,0.021,8.152,0.521s4.607,1.262,6.771,1.843s4.526,0.981,7.091,1.102
	c2.563,0.12,5.328-0.04,6.61,0.28s1.081,1.122,0.54,2.123c-0.54,1.002-1.421,2.204-3.364,2.624c-1.943,0.421-4.948,0.061-8.053-0.38
	C460.634,749.523,457.429,749.003,455.186,748.382L455.186,748.382z M426.331,744.776c0.371-1.202,1.513-2.023,2.875-2.294
	s2.944,0.01,3.826,0.861c0.881,0.852,1.062,2.273,0.391,3.306c-0.672,1.031-2.193,1.673-3.445,2.023
	c-1.252,0.35-2.233,0.41-2.925-0.351C426.362,747.561,425.961,745.979,426.331,744.776L426.331,744.776z M415.926,750.766
	c-0.661-0.842-0.922-1.923-0.461-2.814c0.461-0.891,1.643-1.593,3.165-2.063s3.385-0.711,4.487-0.751
	c1.102-0.04,1.441,0.12,1.933,0.642c0.49,0.521,1.132,1.401,1.191,2.253c0.061,0.852-0.46,1.673-1.813,2.464
	s-3.535,1.552-5.158,1.633C417.648,752.208,416.587,751.606,415.926,750.766L415.926,750.766z M394.084,747.61
	c-0.171-0.671,0.03-1.853,0.881-2.293c0.852-0.441,2.354-0.141,4.026,0.02s3.515,0.181,4.697-0.48
	c1.182-0.661,1.702-2.003,2.544-2.524c0.842-0.521,2.003-0.22,2.574,0.491c0.57,0.711,0.551,1.833-0.101,3.575
	c-0.651,1.743-1.933,4.106-3.194,5.709c-1.263,1.603-2.505,2.443-3.877,1.974c-1.372-0.471-2.874-2.254-3.946-3.386
	c-1.071-1.132-1.712-1.612-2.303-1.933S394.254,748.282,394.084,747.61z"/>
</svg>
