<?xml version="1.0" encoding="utf-8"?>
<!-- Generator: Adobe Illustrator 15.1.0, SVG Export Plug-In . SVG Version: 6.00 Build 0)  -->
<!DOCTYPE svg PUBLIC "-//W3C//DTD SVG 1.1//EN" "http://www.w3.org/Graphics/SVG/1.1/DTD/svg11.dtd">
<svg version="1.1" id="Layer_1" xmlns="http://www.w3.org/2000/svg" xmlns:xlink="http://www.w3.org/1999/xlink" x="0px" y="0px"
	 width="612px" height="792px" viewBox="0 0 612 792" enable-background="new 0 0 612 792" xml:space="preserve">
<path fill-rule="evenodd" clip-rule="evenodd" stroke="#000000" stroke-width="2.9999" stroke-linecap="round" stroke-linejoin="round" stroke-miterlimit="22.9256" d="
	M202.696,660.99c3.872,2.107,8.971,4.592,13.939,6.945c4.968,2.354,9.805,4.575,13.009,7.713c3.203,3.139,4.772,7.191,5.622,9.556
	c0.85,2.364,0.98,3.041,1.308,3.379c0.327,0.338,0.85,0.338,34.842-0.131c33.993-0.469,101.454-1.406,146.984-1.94
	s69.129-0.665,80.929-0.828c11.799-0.163,11.799-0.36,11.799-0.653c0-0.295,0-0.688-0.131-3.825s-0.392-9.021-0.163-12.779
	s0.948-5.394,1.308-7.746c0.359-2.354,0.359-5.426,0.163-8.499c-0.196-3.071-0.588-6.144-2.55-10.557
	c-1.96-4.412-5.49-10.165-7.092-15.264s-1.274-9.544-1.079-13.695c0.196-4.15,0.263-8.007-0.293-12.354
	c-0.556-4.347-1.732-9.184-1.862-13.629c-0.131-4.445,0.784-8.498,2.811-13.989s5.164-12.421,7.518-19.48s3.922-14.25,4.641-22.944
	c0.72-8.694,0.589-18.893,0.523-25.756c-0.065-6.864-0.065-10.394,0.72-13.858c0.784-3.465,2.353-6.864,3.138-9.675
	c0.784-2.811,0.784-5.033,2.876-7.387s6.275-4.838,8.694-8.105c2.418-3.269,3.072-7.322,2.353-10.982
	c-0.719-3.661-2.811-6.93-3.072-12.421c-0.261-5.49,1.309-13.204,4.054-21.245c2.745-8.04,6.668-16.407,9.348-23.664
	c2.681-7.256,4.118-13.4,6.472-17.519s5.622-6.21,7.06-9.675c1.438-3.464,1.047-8.302,3.139-12.878s6.668-8.89,9.217-12.485
	c2.55-3.596,3.072-6.472,3.203-9.021c0.131-2.549-0.131-4.771,0.915-7.647c1.046-2.877,3.399-6.407,3.465-10.133
	c0.065-3.726-2.157-7.648-4.838-8.956c-2.68-1.308-5.817,0-8.236,2.876c-2.418,2.876-4.118,7.322-6.275,10.263
	c-2.157,2.942-4.772,4.38-6.799,6.733c-2.026,2.354-3.464,5.622-5.817,10.982c-2.354,5.36-5.622,12.813-7.321,17.715
	c-1.7,4.903-1.831,7.256-4.445,9.543c-2.615,2.288-7.714,4.511-11.505,6.668c-3.792,2.157-6.275,4.249-8.237,6.995
	c-1.961,2.745-3.398,6.145-5.621,10.067c-2.223,3.922-5.23,8.368-8.956,12.681c-3.726,4.314-8.171,8.499-11.506,10.787
	c-3.333,2.288-5.556,2.68-6.014-0.654c-0.457-3.334,0.851-10.394,3.596-16.734s6.93-11.963,10.067-14.904
	c3.138-2.942,5.229-3.204,5.817-5.622c0.589-2.419-0.326-6.995,2.223-10.263c2.55-3.269,8.563-5.23,12.028-8.499
	s4.38-7.844,4.118-10.982s-1.699-4.837-4.184-7.518s-6.015-6.341-7.452-8.89c-1.438-2.549-0.784-3.988,1.699-8.237
	c2.484-4.249,6.799-11.309,8.367-14.577c1.569-3.269,0.393-2.746-4.118-2.092c-4.51,0.654-12.354,1.438-15.623,1.046
	c-3.269-0.393-1.961-1.961-0.72-5.034c1.242-3.073,2.419-7.648,2.484-13.466c0.065-5.818-0.98-12.878-1.438-17.454
	c-0.458-4.576-0.327-6.668-0.916-8.106c-0.588-1.438-1.895-2.223-6.798-4.707c-4.902-2.484-13.401-6.667-16.604-10.721
	c-3.202-4.053-1.11-7.975-1.765-11.439c-0.653-3.465-4.053-6.472-7.125-7.518s-5.818-0.131-9.152-0.915
	c-3.333-0.785-7.256-3.269-10.524-3.792c-3.268-0.523-5.883,0.915-7.975,0.719c-2.092-0.197-3.661-2.027-6.603-1.961
	s-7.256,2.026-10.59,1.7c-3.334-0.327-5.688-2.941-8.433-4.053s-5.884-0.72-10.002-1.896c-4.118-1.177-9.217-3.922-13.858-6.733
	c-4.641-2.811-8.824-5.688-16.538-8.106s-18.957-4.379-33.339-7.256c-14.381-2.876-31.9-6.668-41.183-9.806
	c-9.283-3.138-10.328-5.622-12.747-10.59c-2.418-4.968-6.21-12.42-9.805-15.885c-3.596-3.465-6.995-2.942-10.656-3.334
	s-7.583-1.699-10.524-2.746c-2.942-1.046-4.903-1.83-7.518-3.856c-2.615-2.027-5.883-5.295-8.694-6.799
	c-2.811-1.503-5.164-1.242-7.648,0.458c-2.484,1.699-5.099,4.837-8.106,6.079c-3.007,1.242-6.406,0.588-6.276-1.177
	c0.131-1.765,3.792-4.642,5.426-7.91c1.635-3.269,1.242-6.929,2.288-10.721s3.53-7.713,6.145-8.759
	c2.614-1.046,5.36,0.784,8.367,1.438s6.275,0.13,10.067-2.092c3.792-2.223,8.106-6.145,7.975-9.069s-4.707-4.852-8.433-5.815
	c-3.726-0.964-6.603-0.964-12.42-0.196c-5.818,0.767-14.578,2.302-20.657,3.592c-6.08,1.29-9.479,2.336-11.701,3.578
	s-3.269,2.68-5.034,2.354c-1.765-0.327-4.249-2.419-8.367-2.289c-4.118,0.131-9.871,2.484-17.584,6.93
	c-7.713,4.445-17.388,10.982-24.709,13.924c-7.322,2.941-12.29,2.288-16.506,1.569c-4.216-0.72-7.681-1.504-10.23-3.171
	c-2.55-1.667-4.184-4.216-5.851-5.229c-1.667-1.013-3.367-0.49-5.328,1.634c-1.961,2.125-4.184,5.85-6.374,7.747
	c-2.19,1.896-4.348,1.961-6.243,1.7c-1.896-0.262-3.53-0.85-4.379-0.621c-0.85,0.229-0.916,1.274-0.98,9.217
	c-0.066,7.942-0.131,22.782-0.099,35.234s0.164,22.52-0.032,27.848s-0.719,5.917-1.307,7.093c-0.589,1.177-1.242,2.942-1.961,3.988
	c-0.719,1.045-1.503,1.373-2.909,1.144c-1.406-0.229-3.432-1.013-5.393-0.458s-3.857,2.452-6.635,4.413
	c-2.778,1.961-6.439,3.987-8.76,5.458c-2.32,1.471-3.301,2.386-4.543,2.712c-1.242,0.327-2.746,0.066-4.086,0.654
	c-1.34,0.588-2.517,2.026-3.464,5.556s-1.667,9.151-3.072,12.486c-1.406,3.333-3.498,4.379-5.466,5.294
	c-1.969,0.915-3.813,1.7-4.736,3.661c-0.923,1.961-0.923,5.099-0.923,8.499c0,3.399,0,7.06,0.465,8.694
	c0.465,1.634,1.395,1.242,3.037,1.013c1.641-0.229,3.995-0.294,5.367,0.033c1.373,0.327,1.765,1.046,1.994,2.713
	c0.229,1.667,0.294,4.282,0.785,6.145c0.49,1.863,1.405,2.975,2.451,4.314c1.046,1.34,2.222,2.909,2.876,4.674
	s0.785,3.726,0.703,5.475c-0.082,1.749-0.376,3.285-1.602,5.198c-1.226,1.912-3.383,4.2-4.593,7.894
	c-1.209,3.693-1.47,8.792-1.699,12.42c-0.229,3.628-0.425,5.785-1.373,6.864c-0.948,1.079-2.647,1.079-3.465,3.987
	c-0.817,2.909-0.752,8.727-0.556,12.42c0.196,3.693,0.523,5.262,1.242,6.275c0.719,1.013,1.831,1.471,2.354,2.615
	c0.522,1.144,0.458,2.974-0.197,4.085c-0.653,1.111-1.896,1.503-2.483,2.876c-0.589,1.373-0.523,3.726-0.393,5.949
	s0.327,4.314-0.481,6.341c-0.808,2.026-2.62,3.988-3.526,5.361c-0.906,1.373-0.906,2.157,0.458,3.497
	c1.363,1.34,4.091,3.236,6.828,5.099c2.736,1.863,5.482,3.693,6.822,5.262c1.34,1.569,1.275,2.877,1.242,4.086
	s-0.033,2.32,2.223,4.38c2.255,2.059,6.766,5.066,10.002,6.373c3.236,1.308,5.196,0.915,7.844,1.177
	c2.647,0.262,5.981,1.177,8.139,2.877c2.157,1.699,3.138,4.184,4.315,6.242c1.177,2.06,2.549,3.694,6.21,6.57
	s9.609,6.994,14.708,10.655c5.099,3.66,9.348,6.863,11.897,9.086c2.549,2.223,3.399,3.465,4.151,5.981
	c0.751,2.517,1.405,6.309,2.941,8.891s3.955,3.955,11.439,9.446c7.485,5.49,20.036,15.1,26.639,21.049
	c6.603,5.948,7.256,8.236,8.759,10.165c1.504,1.929,3.857,3.497,5.099,4.936c1.242,1.438,1.372,2.744,1.307,7.189
	c-0.065,4.445-0.327,12.027-0.033,16.081c0.294,4.053,1.144,4.575,1.504,5.883c0.359,1.308,0.229,3.399,0.065,5.785
	c-0.163,2.386-0.359,5.066-0.033,6.439c0.327,1.372,1.177,1.438,1.667,1.862s0.621,1.21,0.719,3.661s0.163,6.569,0.523,9.413
	c0.359,2.844,1.013,4.413,1.274,5.817c0.261,1.406,0.131,2.648,0.164,3.563s0.229,1.504,1.438,1.732
	c1.209,0.229,3.432,0.098,4.87,0.294c1.438,0.196,2.092,0.719,2.55,1.896c0.458,1.177,0.719,3.007,0.85,5.164
	s0.131,4.642-1.144,7.518c-1.275,2.876-3.824,6.145-5.524,8.302c-1.699,2.157-2.55,3.203-2.746,4.576s0.262,3.072,0.262,6.732
	c0,3.661-0.458,9.283,0,12.453c0.457,3.171,1.831,3.89,2.746,5.165c0.915,1.274,1.373,3.104,1.7,5.295
	c0.327,2.189,0.523,4.739,0.621,7.518c0.098,2.777,0.098,5.785,0.687,7.942c0.588,2.157,1.765,3.464,3.676,4.983
	C196.177,657.15,198.823,658.882,202.696,660.99z"/>
</svg>
