<?xml version="1.0" encoding="utf-8"?>
<!-- Generator: Adobe Illustrator 15.1.0, SVG Export Plug-In . SVG Version: 6.00 Build 0)  -->
<!DOCTYPE svg PUBLIC "-//W3C//DTD SVG 1.1//EN" "http://www.w3.org/Graphics/SVG/1.1/DTD/svg11.dtd">
<svg version="1.1" id="Layer_1" xmlns="http://www.w3.org/2000/svg" xmlns:xlink="http://www.w3.org/1999/xlink" x="0px" y="0px"
	 width="792px" height="612px" viewBox="0 0 792 612" enable-background="new 0 0 792 612" xml:space="preserve">
<path fill-rule="evenodd" clip-rule="evenodd" stroke="#000000" stroke-width="2.9999" stroke-linecap="round" stroke-linejoin="round" stroke-miterlimit="22.9256" d="
	M185.415,389.868c23.084-0.073,24.405-0.1,25.129-0.111c0.725-0.011,0.852-0.007,0.931-0.006c0.079,0.002,0.109,0.002,0.118-0.198
	c0.009-0.201-0.002-0.603-0.006-0.824c-0.003-0.221,0-0.263,0.055-0.283c0.054-0.021,0.16-0.021,2.846-0.043
	s7.955-0.067,56.549,0.375c48.593,0.443,140.511,1.374,191.078,1.839c50.566,0.466,59.782,0.466,64.615,0.466
	c4.834,0,5.283,0,5.629-0.031c0.346-0.029,0.585-0.09,0.78-0.104s0.346,0.015,0.525-1.051c0.181-1.065,0.391-3.227,0.69-6.454
	c0.301-3.227,0.691-7.52,1.081-10.477c0.391-2.957,0.78-4.578,1.651-5.989c0.87-1.41,2.221-2.611,3.241-3.151
	c1.021-0.54,1.712-0.42,2.446,0.015c0.736,0.436,1.517,1.187,2.545,1.449s2.305,0.038,3.903-0.375
	c1.599-0.412,3.52-1.013,5.381-2.033s3.662-2.462,4.202-3.723c0.541-1.261-0.18-2.342-0.18-3.182c0-0.841,0.721-1.441,1.021-2.401
	c0.3-0.961,0.181-2.281,0.36-3.543c0.18-1.261,0.66-2.461,1.801-3.662c1.142-1.2,2.942-2.401,4.263-3.002
	c1.321-0.601,2.161-0.601,2.822-1.381c0.66-0.78,1.141-2.341,2.102-3.182c0.96-0.841,2.401-0.961,3.782-1.621
	c1.381-0.661,2.701-1.861,4.442-2.702c1.741-0.84,3.902-1.32,5.884-1.44s3.782,0.12,5.224,0.12c1.44,0,2.521-0.24,4.322-0.12
	c1.802,0.12,4.323,0.601,6.425-0.15c2.101-0.75,3.782-2.731,5.433-3.782c1.651-1.051,3.272-1.171,4.714-1.891
	c1.44-0.721,2.701-2.042,3.902-2.612c1.2-0.57,2.342-0.39,3.452-0.75s2.191-1.261,2.882-2.521s0.99-2.882,2.222-3.513
	c1.23-0.63,3.392-0.271,4.683-0.721s1.711-1.711,2.342-2.491c0.63-0.78,1.471-1.081,2.521-1.591
	c1.051-0.511,2.312-1.231,3.662-1.471c1.351-0.24,2.792,0,3.992,0.39c1.201,0.391,2.161,0.931,3.212,0.66
	c1.051-0.27,2.191-1.351,3.362-2.581c1.171-1.231,2.372-2.612,3.152-4.233c0.78-1.621,1.141-3.482,1.141-4.893
	c0-1.411-0.36-2.371,0.15-3.392c0.51-1.021,1.891-2.102,3.122-2.192c1.23-0.09,2.312,0.811,3.361,0.871
	c1.051,0.061,2.071-0.72,2.672-1.831s0.781-2.551,1.922-3.872s3.242-2.522,5.073-3.453c1.831-0.93,3.392-1.591,4.652-1.771
	s2.222,0.12,2.672,0.931s0.391,2.131,0.391,3.512s0.06,2.822,0.96,3.482c0.901,0.661,2.642,0.541,4.112,0.18
	c1.472-0.36,2.672-0.96,4.473-2.461c1.802-1.501,4.203-3.903,5.914-6.154s2.732-4.353,5.104-5.644s6.094-1.771,8.436-2.312
	c2.341-0.541,3.302-1.141,4.652-1.021c1.352,0.12,3.093,0.96,3.963,1.801c0.871,0.841,0.871,1.681,1.801,2.072
	c0.931,0.39,2.792,0.33,4.473-0.18c1.682-0.511,3.183-1.471,4.623-3.272c1.441-1.801,2.822-4.443,4.323-7.055
	s3.122-5.193,4.623-7.145s2.882-3.272,4.412-4.322c1.531-1.051,3.213-1.832,4.533-1.861c1.321-0.03,2.281,0.69,3.603,1.021
	c1.32,0.33,3.002,0.27,3.752-0.03c0.751-0.3,0.57-0.84,0.12-1.531s-1.17-1.531-1.29-2.762c-0.121-1.231,0.359-2.852,0.93-4.143
	c0.57-1.291,1.231-2.251,2.041-3.392c0.812-1.141,1.772-2.462,1.652-3.723c-0.12-1.261-1.321-2.461-0.991-3.962
	c0.33-1.501,2.191-3.302,3.199-4.69c1.008-1.389,1.162-2.364,1.274-3.077s0.184-1.163-1.807-1.321
	c-1.991-0.158-6.044-0.022-9.812,0.008c-3.767,0.03-7.249-0.044-9.201-0.078c-1.95-0.033-2.371-0.023-2.709-0.016
	c-0.337,0.007-0.593,0.013-0.721,0.121c-0.127,0.108-0.127,0.318-0.164,0.679c-0.038,0.36-0.112,0.871-0.256,1.179
	c-0.143,0.308-0.353,0.413-3.76,0.45s-10.011,0.007-23.88,0s-35.002,0.007-51.993-0.015c-16.99-0.023-29.839-0.083-40.075-0.203
	c-10.236-0.12-17.861-0.3-21.727-0.315s-3.97,0.135-4.09,0.39s-0.256,0.615-0.391,0.855s-0.271,0.36-1.006,0.428
	c-0.735,0.067-2.071,0.083-4.743,0.052c-2.671-0.03-6.679-0.105-15.58-0.39c-8.9-0.285-22.694-0.78-35.745-1.178
	c-13.052-0.398-25.358-0.698-35.896-1.238c-10.536-0.541-19.303-1.321-26.297-1.591s-12.218-0.03-16.69,0.24
	s-8.195,0.57-13.479,0.63s-12.128-0.12-20.684-0.51s-18.822-0.991-28.337-1.591c-9.517-0.601-18.282-1.201-24.166-1.381
	s-8.886,0.06-10.837,0.42s-2.852,0.841-3.842,0.751c-0.991-0.09-2.071-0.751-3.362-0.991c-1.291-0.24-2.792-0.06-10.958,0.121
	c-8.165,0.18-22.994,0.36-38.244,0.555c-15.249,0.195-30.919,0.405-40.225,0.51s-12.248,0.105-13.658,0.045
	c-1.411-0.061-1.291-0.181-1.276-0.646c0.015-0.465-0.075-1.275-0.12-1.71c-0.045-0.436-0.045-0.496-0.931-0.541
	s-2.657-0.075-4.593-0.3c-1.936-0.225-4.038-0.645-6.319-0.855c-2.282-0.21-4.743-0.21-6.019,0c-1.276,0.21-1.366,0.63-0.871,1.561
	s1.576,2.371,2.342,4.308c0.765,1.937,1.215,4.368,1.291,6.364s-0.225,3.557-0.661,4.503c-0.435,0.945-1.005,1.275-1.545,1.471
	c-0.541,0.195-1.051,0.255-2.732,0.21c-1.681-0.045-4.533-0.195-8.57-0.346c-4.038-0.15-9.261-0.3-25.501-0.45
	c-16.24-0.15-43.498-0.3-57.786-0.285c-14.289,0.015-15.61,0.195-16.75,0.855c-1.141,0.661-2.102,1.801-3.122,2.551
	c-1.021,0.75-2.101,1.111-2.762,0.931c-0.66-0.18-0.9-0.9-0.9-1.891c0-0.99,0.24-2.251-0.961-2.642
	c-1.201-0.39-3.842,0.09-4.803,0.69c-0.961,0.601-0.24,1.321,0.24,2.071c0.48,0.75,0.72,1.531,0.57,2.222
	c-0.15,0.69-0.691,1.291-0.51,2.131c0.18,0.84,1.081,1.921,1.861,3.152c0.781,1.23,1.441,2.612,1.426,3.797
	c-0.015,1.186-0.705,2.177-2.385,2.297c-1.681,0.12-4.353-0.631-5.929-0.526c-1.576,0.105-2.056,1.066-1.831,1.997
	c0.226,0.931,1.156,1.831,2.492,2.882s3.077,2.251,3.512,3.227s-0.435,1.726-2.296,1.726s-4.713-0.75-6.754-1.156
	c-2.042-0.405-3.272-0.465-3.722,0.225c-0.451,0.691-0.121,2.131,0.915,3.498c1.036,1.366,2.777,2.657,4.248,3.962
	s2.671,2.626,3.212,3.767s0.42,2.102-0.675,2.897c-1.096,0.795-3.167,1.426-4.292,2.026c-1.126,0.601-1.306,1.171-1.321,1.937
	c-0.015,0.765,0.135,1.726-0.48,2.701s-1.997,1.966-2.852,3.047c-0.855,1.081-1.186,2.251-0.705,3.422
	c0.48,1.171,1.771,2.342,3.272,3.542s3.212,2.431,3.962,3.617c0.75,1.186,0.541,2.327-0.45,2.567c-0.99,0.24-2.762-0.42-4.233-1.066
	c-1.471-0.646-2.642-1.276-3.947-1.216c-1.306,0.06-2.747,0.811-3.467,1.981c-0.72,1.171-0.72,2.762,0.105,3.572
	c0.826,0.811,2.477,0.841,3.843,1.021c1.366,0.18,2.446,0.51,2.807,1.576c0.36,1.066,0,2.867-0.961,3.647
	c-0.96,0.78-2.521,0.541-3.767,0.541c-1.246,0-2.176,0.239-3.047,0.87c-0.871,0.63-1.681,1.651-2.852,1.921
	c-1.171,0.271-2.702-0.21-4.368-0.18c-1.667,0.029-3.467,0.57-4.533,1.815c-1.065,1.246-1.396,3.197-1.096,4.503
	c0.3,1.307,1.231,1.967,2.251,2.267c1.021,0.301,2.131,0.24,3.257,0.24s2.267,0.061,2.987,0.375c0.72,0.315,1.021,0.886,1.065,1.486
	s-0.165,1.23-1.546,1.846c-1.381,0.616-3.933,1.216-5.479,1.981s-2.086,1.696-1.981,2.657s0.855,1.951,1.696,2.792
	c0.841,0.84,1.771,1.53,2.176,2.176s0.285,1.246-0.436,1.681c-0.72,0.436-2.041,0.706-3.106,0.105
	c-1.066-0.601-1.876-2.071-3.017-2.776c-1.141-0.706-2.612-0.646-3.647-0.061s-1.636,1.696-1.666,2.792s0.51,2.177,1.396,3.197
	s2.116,1.981,2.611,3.076c0.496,1.097,0.255,2.327-0.285,3.242c-0.541,0.916-1.381,1.517-2.417,1.696
	c-1.036,0.181-2.267-0.06-2.762-1.23c-0.496-1.171-0.255-3.272-0.48-4.533s-0.916-1.681-2.131-1.485s-2.957,1.005-4.646,2.267
	c-1.688,1.261-3.325,2.972-4.09,4.622c-0.766,1.651-0.661,3.242-0.158,4.195c0.502,0.953,1.403,1.269,2.255,1.127
	c0.852-0.141,1.656-0.738,2.271-1.331s1.042-1.182,1.752-1.326c0.708-0.144,1.7,0.156,2.255,0.712
	c0.555,0.556,0.675,1.366,0.51,1.951c-0.165,0.586-0.615,0.946-0.66,1.757s0.315,2.071-0.105,2.791
	c-0.421,0.721-1.622,0.901-2.702,1.134s-2.041,0.517-2.514,1.162c-0.473,0.646-0.458,1.651,0.098,2.379
	c0.556,0.729,1.651,1.179,2.799,1.434s2.349,0.315,3.175,0.915c0.825,0.601,1.275,1.741,1.546,2.688
	c0.27,0.945,0.36,1.696,0.285,2.334c-0.075,0.638-0.315,1.163,0.007,1.808c0.322,0.646,1.208,1.411,1.516,2.395
	c0.308,0.982,0.037,2.184-0.735,2.784c-0.773,0.6-2.049,0.6-3.22,0.015c-1.171-0.585-2.236-1.756-3.28-1.823
	c-1.043-0.068-2.064,0.968-2.725,1.936c-0.66,0.968-0.96,1.869-0.99,2.949c-0.03,1.081,0.21,2.342,0.24,3.189
	c0.03,0.849-0.15,1.284-1.043,1.396c-0.894,0.113-2.5-0.097-4.068-0.202c-1.569-0.105-3.1-0.105-3.974,0.404
	c-0.875,0.511-1.092,1.531-1.201,2.402c-0.108,0.87-0.108,1.591-0.108,1.966s0,0.405,0.409,0.436
	c0.409,0.029,1.227,0.061,2.191,0.09c0.964,0.03,2.075,0.061,7.688,0.09c5.614,0.03,15.73,0.061,43.212,0.015
	C117.482,390.062,162.331,389.94,185.415,389.868z"/>
</svg>
