<?xml version="1.0" encoding="utf-8"?>
<!-- Generator: Adobe Illustrator 15.1.0, SVG Export Plug-In . SVG Version: 6.00 Build 0)  -->
<!DOCTYPE svg PUBLIC "-//W3C//DTD SVG 1.1//EN" "http://www.w3.org/Graphics/SVG/1.1/DTD/svg11.dtd">
<svg version="1.1" id="Layer_1" xmlns="http://www.w3.org/2000/svg" xmlns:xlink="http://www.w3.org/1999/xlink" x="0px" y="0px"
	 width="792px" height="612px" viewBox="0 0 792 612" enable-background="new 0 0 792 612" xml:space="preserve">
<path fill-rule="evenodd" clip-rule="evenodd" stroke="#000000" stroke-width="2.9999" stroke-linecap="round" stroke-linejoin="round" stroke-miterlimit="22.9256" d="
	M49.202,502.682c-0.02-1.164,0.141-2.771-0.501-4.296c-0.642-1.525-2.087-2.971-2.328-5.7c-0.241-2.73,0.723-6.745,1.766-10.679
	c1.044-3.935,2.168-7.789,2.73-10.92c0.562-3.132,0.562-5.54-0.241-6.985c-0.803-1.445-2.409-1.928-3.252-3.051
	c-0.843-1.124-0.923-2.891-1.365-4.657c-0.442-1.767-1.245-3.533-2.369-3.975s-2.569,0.441-3.131,0.12
	c-0.563-0.321-0.241-1.847-0.281-3.332s-0.442-2.931-1.293-4.055s-2.154-1.927-2.395-2.328c-0.241-0.401,0.58-0.401,2.314-3.092
	c1.735-2.689,4.385-8.069,6.191-12.284c1.807-4.216,2.77-7.267,2.971-9.796s-0.361-4.536-0.281-5.58s0.803-1.124,1.485-2.409
	c0.683-1.284,1.325-3.773,1.526-6.223c0.201-2.448-0.04-4.857-0.161-6.784c-0.12-1.928-0.12-3.372,0.281-4.537
	c0.401-1.164,1.204-2.047,2.81-3.733c1.606-1.686,4.015-4.175,6.263-8.271c2.249-4.095,4.336-9.795,6.022-15.094
	c1.687-5.3,2.971-10.198,4.577-18.146c1.605-7.949,3.533-18.949,4.496-24.851s0.963-6.704,1.044-9.313
	c0.08-2.609,0.241-7.026,0.161-11.362c-0.081-4.336-0.402-8.591-0.442-12.164c-0.041-3.574,0.201-6.464,1.003-8.993
	s2.168-4.697,2.73-8.511s0.321-9.273,0.401-13.007c0.081-3.734,0.482-5.741,0.843-7.588s0.682-3.533,0.723-6.102
	c0.04-2.57-0.201-6.022-0.241-8.752c-0.04-2.73,0.121-4.737,0.883-7.065c0.763-2.329,2.128-4.979,2.851-7.226
	c0.723-2.248,0.803-4.095,0.843-6.624c0.04-2.529,0.04-5.741-0.161-8.029s-0.602-3.653-0.04-4.857
	c0.562-1.205,2.087-2.248,2.85-3.693c0.763-1.445,0.763-3.292,1.245-4.175c0.482-0.883,1.445-0.803,1.726-1.325
	c0.281-0.522-0.12-1.646-0.682-2.69c-0.562-1.044-1.285-2.007-1.445-2.971c-0.161-0.963,0.241-1.927,1.004-3.251
	s1.887-3.011,1.686-4.175c-0.201-1.164-1.726-1.806-2.489-2.689s-0.763-2.007-0.04-3.493s2.167-3.333,2.609-4.938
	c0.442-1.606-0.12-2.971-0.963-4.416s-1.967-2.971-1.927-4.015c0.041-1.044,1.245-1.606,2.529-1.365
	c1.285,0.241,2.65,1.285,4.015,1.485c1.365,0.201,2.73-0.441,3.131-1.405s-0.161-2.249-0.723-3.413
	c-0.562-1.165-1.124-2.208-2.851-3.011c-1.726-0.803-4.617-1.365-5.62-2.891s-0.12-4.015,1.285-5.741
	c1.405-1.726,3.333-2.689,4.497-3.854c1.164-1.164,1.565-2.529,1.284-3.613c-0.281-1.084-1.244-1.887-2.529-1.927
	s-2.89,0.683-4.135-0.201c-1.245-0.883-2.127-3.372-1.927-5.339s1.485-3.413,2.007-5.179c0.521-1.767,0.281-3.854,0.041-5.781
	c-0.241-1.927-0.482-3.694-0.963-4.939c-0.482-1.244-1.205-1.967-0.923-2.89c0.281-0.924,1.565-2.047,2.77-3.011
	c1.204-0.963,2.329-1.766,2.649-3.251c0.321-1.486-0.161-3.653-0.843-6.343c-0.682-2.689-1.565-5.901-2.609-8.671
	s-2.248-5.099-3.212-6.664c-0.963-1.566-1.686-2.369-0.682-2.208c1.003,0.161,3.733,1.285,6.062,2.771
	c2.329,1.485,4.255,3.332,5.701,4.175c1.445,0.843,2.408,0.682,3.131,0.923s1.205,0.883,1.847,1.044
	c0.643,0.161,1.445-0.161,1.245-0.803c-0.201-0.642-1.405-1.605-2.569-2.449c-1.164-0.843-2.288-1.565-1.887-1.927
	s2.328-0.361,4.015-0.643c1.686-0.281,3.131-0.843,4.255-0.481c1.125,0.361,1.928,1.646,2.811,2.369
	c0.883,0.723,1.847,0.883,3.372,0.883c1.526,0,3.613-0.161,5.541-0.643c1.927-0.482,3.693-1.285,5.018-2.489
	c1.325-1.205,2.208-2.81,3.573-3.493c1.365-0.683,3.211-0.441,4.536,0.161c1.325,0.602,2.128,1.566,2.77,3.051
	c0.643,1.485,1.125,3.493,2.57,4.978c1.445,1.485,3.854,2.449,7.025,2.69c3.171,0.241,7.106-0.241,9.395-1.365
	c2.288-1.124,2.93-2.89,3.613-3.773s1.405-0.883,2.689-0.482c1.285,0.401,3.132,1.205,4.858,1.927s3.332,1.365,4.376,2.288
	s1.525,2.127,2.369,2.73c0.843,0.602,2.047,0.602,3.292,0.883c1.245,0.281,2.529,0.843,4.215,1.605
	c1.686,0.763,3.773,1.727,4.938,2.971c1.164,1.245,1.405,2.77,1.806,4.175c0.402,1.405,0.964,2.69,1.847,3.975
	s2.087,2.569,2.609,3.653s0.361,1.967,0.441,3.131c0.081,1.165,0.401,2.609,0.923,3.774c0.522,1.164,1.245,2.047,1.365,2.971
	c0.12,0.924-0.361,1.887-0.683,2.931s-0.481,2.168-0.121,3.131c0.362,0.963,1.245,1.767,2.007,2.81
	c0.763,1.044,1.405,2.329,1.405,4.055c0,1.726-0.643,3.894-0.723,5.741s0.401,3.372,1.325,4.657
	c0.923,1.285,2.288,2.329,5.058,3.132c2.77,0.803,6.945,1.364,10.277,2.448c3.332,1.084,5.821,2.69,8.069,3.132
	c2.248,0.441,4.255-0.281,6.263-0.683c2.007-0.401,4.015-0.481,5.419,0.201c1.405,0.683,2.208,2.128,4.175,2.369
	c1.967,0.241,5.099-0.723,9.956-2.007c4.858-1.285,11.441-2.891,16.34-5.099c4.897-2.208,8.109-5.018,10.679-6.865
	s4.496-2.73,6.785-2.891c2.288-0.16,4.938,0.401,7.427,0.643c2.489,0.241,4.817,0.161,7.948-0.643
	c3.132-0.803,7.066-2.328,10.077-2.609c3.011-0.281,5.098,0.683,6.705,1.566c1.605,0.883,2.729,1.686,4.255,1.686
	c1.526,0,3.453-0.802,5.5-0.923c2.048-0.121,4.216,0.441,5.982,1.285c1.767,0.843,3.131,1.967,4.577,2.609
	c1.445,0.642,2.971,0.803,3.493,1.807s0.04,2.85,0.763,4.014c0.723,1.165,2.649,1.646,4.777,0.643
	c2.128-1.003,4.457-3.493,6.183-4.496c1.726-1.004,2.85-0.522,4.075-0.361c1.225,0.16,2.55,0,3.916,0.02
	c1.365,0.02,2.77,0.221,3.834,0.562s1.786,0.823,2.83,0.442c1.043-0.382,2.409-1.626,3.794-2.329
	c1.385-0.703,2.79-0.863,5.098-1.445c2.309-0.582,5.521-1.585,8.09-3.011s4.496-3.272,6.363-4.115
	c1.867-0.843,3.673-0.682,5.059-0.12c1.385,0.562,2.349,1.525,3.473,2.649c1.125,1.125,2.409,2.409,4.135,2.931
	c1.727,0.521,3.895,0.281,7.387-0.402c3.493-0.682,8.311-1.807,11.441-2.047c3.131-0.241,4.576,0.401,5.941-0.281
	c1.365-0.683,2.649-2.69,4.938-3.935c2.289-1.245,5.581-1.726,8.391-2.489c2.811-0.763,5.139-1.807,7.146-2.81
	c2.007-1.004,3.693-1.967,5.5-2.208c1.807-0.241,3.733,0.241,5.34-0.121c1.605-0.361,2.89-1.565,4.736-1.967
	c1.848-0.402,4.256,0,6.584,0.16c2.329,0.161,4.577,0.08,6.303-1.245c1.727-1.325,2.931-3.894,4.416-5.299
	c1.486-1.406,3.252-1.646,4.577-1.325s2.208,1.205,3.854,1.325c1.646,0.12,4.055-0.522,5.941-0.763s3.251-0.08,5.5-0.522
	c2.248-0.441,5.38-1.485,7.748-1.646c2.369-0.16,3.975,0.562,5.901,1.124s4.176,0.964,6.985,0.562
	c2.811-0.401,6.183-1.605,8.832-3.011c2.65-1.405,4.577-3.011,5.781-3.934s1.687-1.165,2.168-1.285
	c0.481-0.121,0.963-0.121,6.303-0.081s15.536,0.121,45.044,0.201c29.507,0.081,78.323,0.161,103.775,0.201
	c25.452,0.04,27.54,0.04,28.704,0.281c1.165,0.241,1.405,0.723,1.526,1.285c0.12,0.563,0.12,1.204,0.642,1.807
	c0.522,0.602,1.566,1.164,1.646,2.087c0.08,0.924-0.803,2.208-0.643,3.252c0.161,1.044,1.365,1.847,2.649,2.329
	c1.285,0.481,2.649,0.642,3.413,1.766c0.763,1.124,0.923,3.211,1.847,4.437c0.923,1.224,2.609,1.585,3.894,1.445
	c1.285-0.14,2.168-0.783,2.892-0.783c0.723,0,1.284,0.643,1.906,1.606c0.622,0.964,1.305,2.248,2.529,2.871
	c1.225,0.622,2.991,0.582,4.215,0.783c1.225,0.201,1.907,0.642,2.389,1.225c0.482,0.582,0.763,1.304,1.426,1.827
	c0.662,0.522,1.706,0.843,2.147,1.666c0.441,0.823,0.281,2.147,0.462,3.312c0.181,1.165,0.702,2.168,1.565,3.453
	s2.067,2.85,2.871,4.155c0.803,1.305,1.204,2.348,1.144,3.372c-0.061,1.023-0.582,2.027-1.284,2.85
	c-0.703,0.823-1.586,1.465-2.289,2.128c-0.702,0.663-1.225,1.345-1.525,1.987c-0.301,0.643-0.381,1.245-0.883,1.827
	c-0.502,0.582-1.425,1.144-1.787,2.188c-0.36,1.044-0.16,2.569-0.702,3.854c-0.542,1.285-1.827,2.329-2.229,3.452
	c-0.401,1.125,0.08,2.329-0.281,3.333c-0.361,1.003-1.565,1.807-2.77,3.131c-1.205,1.325-2.409,3.171-3.252,4.978
	c-0.844,1.807-1.325,3.573-1.365,5.099s0.361,2.81,0,3.693s-1.485,1.365-2.369,3.373c-0.883,2.007-1.525,5.54-2.448,7.748
	c-0.924,2.208-2.128,3.091-2.911,3.994c-0.782,0.903-1.144,1.827-1.847,2.59c-0.702,0.763-1.746,1.365-2.509,2.168
	c-0.763,0.803-1.244,1.806-1.646,2.85c-0.402,1.044-0.724,2.127-0.823,3.513c-0.101,1.385,0.02,3.071,0.36,4.195
	c0.342,1.125,0.904,1.686,0.482,3.011c-0.422,1.325-1.826,3.412-3.533,5.941c-1.706,2.529-3.713,5.5-5.299,7.447
	s-2.75,2.871-4.056,3.453c-1.305,0.582-2.749,0.823-4.074,1.666c-1.325,0.843-2.529,2.288-3.813,4.898
	c-1.285,2.609-2.649,6.383-3.573,9.555s-1.405,5.741-2.248,7.347c-0.844,1.605-2.048,2.248-3.533,3.131s-3.252,2.007-4.055,3.171
	c-0.803,1.165-0.643,2.369-0.321,3.493c0.321,1.125,0.804,2.168,0.482,3.413s-1.446,2.689-2.048,3.773
	c-0.603,1.084-0.683,1.807,0.201,2.77c0.883,0.964,2.729,2.168,3.291,3.413c0.563,1.245-0.16,2.529-0.562,3.774
	c-0.401,1.245-0.481,2.449,0.201,3.413s2.127,1.686,3.332,1.284c1.204-0.401,2.167-1.927,3.372-2.328
	c1.204-0.401,2.649,0.321,4.135,1.686c1.485,1.365,3.011,3.373,4.256,3.453c1.244,0.08,2.208-1.767,3.211-2.289
	c1.004-0.522,2.048,0.281,2.65,1.325c0.602,1.043,0.763,2.328,1.766,3.171c1.004,0.843,2.851,1.244,4.296,2.409
	s2.489,3.091,2.369,4.336c-0.121,1.245-1.405,1.806-2.128,2.569c-0.723,0.763-0.884,1.726-2.088,2.529
	c-1.204,0.803-3.452,1.445-4.576,2.248c-1.125,0.803-1.125,1.767-0.563,2.609s1.686,1.565,2.609,2.168s1.646,1.084,1.365,2.208
	s-1.565,2.891-2.369,4.175c-0.803,1.285-1.124,2.088-0.963,2.971c0.16,0.884,0.803,1.847,0.943,3.092s-0.221,2.771-0.764,3.975
	c-0.542,1.205-1.264,2.088-2.208,3.172c-0.943,1.084-2.107,2.369-2.729,3.353s-0.703,1.666-0.743,34.257
	s-0.041,97.091-0.041,129.341c0,32.249,0,32.249-0.723,32.249s-2.167,0-17.042,0c-14.874,0-43.177,0-149.042,0s-289.292,0-380.825,0
	c-91.533,0-91.172,0-91.132-0.313c0.041-0.314-0.241-0.942-0.401-1.638s-0.2-1.458-1.204-2.301
	c-1.004-0.844-2.971-1.767-4.797-2.649c-1.827-0.884-3.513-1.727-4.717-2.891c-1.205-1.165-1.927-2.649-1.827-4.918
	c0.1-2.269,1.024-5.319,0.703-7.508c-0.321-2.188-1.887-3.513-3.091-4.416s-2.048-1.385-2.569-1.986
	C49.421,504.567,49.222,503.846,49.202,502.682z"/>
</svg>
