<?xml version="1.0" encoding="utf-8"?>
<!-- Generator: Adobe Illustrator 15.1.0, SVG Export Plug-In . SVG Version: 6.00 Build 0)  -->
<!DOCTYPE svg PUBLIC "-//W3C//DTD SVG 1.1//EN" "http://www.w3.org/Graphics/SVG/1.1/DTD/svg11.dtd">
<svg version="1.1" id="Layer_1" xmlns="http://www.w3.org/2000/svg" xmlns:xlink="http://www.w3.org/1999/xlink" x="0px" y="0px"
	 width="792px" height="612px" viewBox="0 0 792 612" enable-background="new 0 0 792 612" xml:space="preserve">
<path fill-rule="evenodd" clip-rule="evenodd" stroke="#000000" stroke-width="2.9999" stroke-miterlimit="22.9256" d="
	M460.719,114.1c1.544,0.563,3.396,0.033,4.896,0.563c1.499,0.529,2.646,2.117,3.793,2.293c1.146,0.177,2.293-1.058,3.484-0.97
	c1.19,0.088,2.426,1.5,3.749,1.72c1.323,0.22,2.734-0.75,4.367-1.103c1.632-0.353,3.484-0.088,4.278,1.323
	c0.794,1.412,0.529,3.97,1.367,4.234s2.778-1.765,4.808-2.206s4.146,0.706,5.469,2.735c1.323,2.029,1.853,4.94,3.132,5.337
	c1.279,0.397,3.309-1.72,6.572-2.382s7.764,0.132,10.233,1.72s2.911,3.97,5.16,5.028c2.25,1.059,6.308,0.794,8.602-1.059
	c2.293-1.853,2.822-5.293,4.102-6.836c1.279-1.544,3.308-1.191,4.322,0.22s1.015,3.881,1.721,4.367s2.117-1.014,3.661-1.146
	s3.22,1.103,5.557,2.867c2.338,1.765,5.338,4.058,8.116,5.646c2.779,1.588,5.337,2.47,6.749,2.911
	c1.411,0.441,1.676,0.441,1.853,1.147c0.177,0.706,0.265,2.117,0.794,11.512s1.499,26.773,4.234,68.146
	c2.734,41.374,7.232,106.741,9.482,139.425c2.249,32.684,2.249,32.684,2.69,32.816c0.44,0.132,1.322,0.397,3.197,0.485
	s4.742,0,6.793-0.904s3.286-2.624,5.491-3.507c2.205-0.882,5.381-0.926,7.233-0.066c1.853,0.86,2.382,2.625,2.316,4.169
	c-0.066,1.544-0.729,2.866,0.484,4.454s4.301,3.44,8.403,6.352c4.102,2.911,9.219,6.882,11.909,9.571
	c2.69,2.691,2.955,4.103,3.153,5.426s0.33,2.558,1.168,2.425c0.838-0.132,2.382-1.632,4.697-3.286
	c2.316-1.653,5.403-3.462,6.991-5.535c1.588-2.072,1.677-4.411,2.603-6.153c0.927-1.742,2.69-2.889,5.16-4.3
	c2.471-1.412,5.646-3.088,7.676-3.198c2.028-0.11,2.911,1.346,3.616,3.286c0.706,1.941,1.235,4.366,2.757,6.021
	s4.036,2.536,5.756,4.124c1.721,1.589,2.647,3.882,3.971,5.602c1.322,1.721,3.043,2.867,4.719,3.418
	c1.677,0.552,3.309,0.509,5.602,3.221c2.294,2.713,5.249,8.183,10.63,15.967c5.382,7.785,13.188,17.886,17.621,24.304
	c4.433,6.417,5.491,9.152,8.313,10.431c2.823,1.279,7.411,1.103,13.188,2.426c5.778,1.324,12.747,4.146,16.188,6.396
	c3.44,2.249,3.353,3.925,2.338,5.249c-1.015,1.323-2.955,2.293-3.749,5.248s-0.441,7.896-0.573,12.262
	c-0.133,4.367-0.75,8.161-2.029,10.101c-1.279,1.941-3.22,2.029-6.439,1.985s-7.719-0.221-9.131-1.19
	c-1.411-0.971,0.265-2.734,2.206-3.749c1.94-1.015,4.146-1.279,5.028-2.603c0.882-1.323,0.441-3.705-1.146-7.499
	c-1.589-3.793-4.323-8.997-6.22-11.997c-1.896-2.999-2.955-3.793-4.322-1.544c-1.367,2.25-3.044,7.543-5.249,9.792
	c-2.205,2.25-4.94,1.456-5.47-0.705c-0.529-2.162,1.147-5.69,1.765-8.16s0.177-3.882-0.971-4.146
	c-1.146-0.265-2.999,0.618-4.234,1.765c-1.234,1.146-1.853,2.558-4.19,1.632c-2.337-0.927-6.395-4.19-7.146-6.308
	c-0.749-2.117,1.809-3.087,4.059-3.97c2.249-0.882,4.189-1.676,5.072-3.132c0.882-1.455,0.706-3.572-0.265-4.278
	s-2.734,0-4.852-1.19c-2.117-1.191-4.588-4.278-7.631-6.043s-6.66-2.205-7.939-3.573c-1.279-1.367-0.221-3.66-0.618-5.513
	c-0.396-1.854-2.249-3.264-2.514-4.588c-0.265-1.323,1.059-2.558,0.573-4.058c-0.484-1.5-2.778-3.264-4.189-5.116
	c-1.412-1.853-1.941-3.793-1.985-5.911c-0.044-2.116,0.397-4.41-0.265-4.719s-2.426,1.367-4.366,2.205
	c-1.941,0.838-4.059,0.838-6.617-2.029c-2.558-2.866-5.558-8.601-7.719-11.645c-2.161-3.043-3.483-3.396-3.528-1.411
	c-0.044,1.985,1.191,6.308,3.22,10.146c2.029,3.837,4.853,7.189,8.204,9.924c3.353,2.734,7.234,4.852,8.733,6.969
	c1.5,2.117,0.618,4.234,0.31,5.955c-0.31,1.72-0.045,3.043,0.616,5.689c0.662,2.646,1.721,6.616,4.896,8.998
	s8.469,3.176,11.071,4.543s2.515,3.308,0.927,5.249c-1.588,1.94-4.676,3.882-6.661,6.087c-1.984,2.205-2.866,4.675-3.44,8.336
	c-0.573,3.661-0.838,8.514-2.161,10.675s-3.705,1.632-4.852,0.088s-1.059-4.103-0.441-6.97c0.618-2.866,1.765-6.042,1.367-8.821
	c-0.396-2.778-2.337-5.16-3.131-7.454s-0.441-4.498-1.059-6.66c-0.618-2.161-2.205-4.278-3.044-7.058
	c-0.838-2.778-0.927-6.219-2.161-9.218c-1.235-3-3.617-5.558-5.117-7.939c-1.499-2.382-2.116-4.588-3.881-6.352
	c-1.765-1.765-4.676-3.088-6.66-5.47c-1.985-2.382-3.044-5.822-4.014-7.763c-0.971-1.94-1.853-2.382-4.146-2.734
	c-2.293-0.353-5.998-0.618-6.175,0.749c-0.177,1.368,3.176,4.367,3.616,6.484c0.441,2.117-2.028,3.352-3.528,4.939
	c-1.5,1.589-2.029,3.529-3.353,3.485c-1.322-0.045-3.439-2.073-6.042-4.72s-5.69-5.911-9.704-8.425s-8.954-4.278-14.908-6.616
	c-5.955-2.338-12.924-5.249-16.298-7.079c-3.375-1.831-3.154-2.58-1.721-3.661c1.434-1.08,4.08-2.492,5.999-3.153
	c1.918-0.662,3.109-0.574,4.3,0.088c1.191,0.662,2.382,1.896,3.639,1.919c1.258,0.021,2.58-1.169,2.955-2.492
	c0.376-1.323-0.198-2.778-1.94-4.521c-1.742-1.742-4.653-3.771-6.55-4.278c-1.896-0.507-2.779,0.508-3.375,1.787
	c-0.595,1.279-0.903,2.822-2.426,4.102c-1.521,1.279-4.256,2.294-6.329,2.603s-3.484-0.088-5.514-1.147
	c-2.029-1.058-4.675-2.778-7.521-3.594c-2.845-0.816-5.889-0.729-9.439-1.037c-3.55-0.309-7.608-1.015-10.167-0.794
	c-2.558,0.221-3.616,1.367-5.733,2.823c-2.116,1.455-5.293,3.22-7.983,3.329c-2.69,0.111-4.896-1.433-4.697-2.756
	s2.801-2.426,3.727-3.684c0.927-1.257,0.177-2.668-1.059-3.197c-1.234-0.529-2.955-0.177-4.896,0.044
	c-1.941,0.221-4.103,0.309-5.228-0.97c-1.125-1.279-1.213-3.926-2.184-4.301s-2.823,1.521-4.389,1.809
	c-1.566,0.287-2.845-1.037-3.838-2.206c-0.992-1.169-1.697-2.183-3.352-1.455s-4.257,3.197-6.439,4.124
	c-2.184,0.927-3.948,0.309-3.859-0.882c0.088-1.191,2.028-2.955,3.439-5.095c1.412-2.14,2.294-4.653,2.184-6.308
	s-1.213-2.447-2.426-1.984s-2.536,2.183-4.322,2.668s-4.036-0.265-5.778-1.654s-2.978-3.418-4.124-4.102
	c-1.147-0.684-2.205-0.022-2.955,1.125c-0.75,1.146-1.191,2.778-1.985,2.867c-0.794,0.088-1.94-1.367-1.698-3.088
	c0.243-1.721,1.875-3.705,1.456-4.83s-2.89-1.39-4.609-0.441c-1.721,0.949-2.69,3.11-3.242,5.007s-0.684,3.528,0.022,4.19
	c0.705,0.661,2.249,0.353,2.712,1.08c0.464,0.728-0.154,2.492,0.331,3.286s2.073,0.617,2.978,1.081
	c0.904,0.463,1.125,1.565,1.963,2.117c0.838,0.551,2.293,0.551,3.264,1.213c0.971,0.661,1.456,1.984,2.25,2.359
	s1.896-0.198,2.999-0.86c1.103-0.661,2.205-1.411,2.867-1.301c0.661,0.11,0.882,1.081,0.882,3.33c0,2.25-0.221,5.778-0.75,8.16
	s-1.367,3.616-2.801,4.499c-1.434,0.882-3.462,1.411-5.425,1.5c-1.963,0.088-3.859-0.266-4.411-1.522s0.243-3.418-0.044-4.521
	c-0.287-1.104-1.654-1.146-2.89-1.346c-1.234-0.198-2.337-0.551-3.506-0.353s-2.404,0.948-3.529,1.764
	c-1.124,0.816-2.139,1.698-2.756,1.214c-0.618-0.485-0.839-2.338-1.479-3.021s-1.697-0.199-2.491,0.485
	c-0.794,0.684-1.324,1.565-2.073,1.301c-0.75-0.265-1.721-1.676-2.69-2.955c-0.971-1.279-1.941-2.426-3.375-2.778
	c-1.434-0.354-3.33,0.088-3.749,1.102c-0.419,1.015,0.64,2.603,1.478,3.947c0.838,1.346,1.455,2.449,0.971,3.287
	c-0.485,0.838-2.073,1.411-3.484,2.271c-1.412,0.86-2.646,2.008-4.499,3.066c-1.854,1.059-4.323,2.028-6.043,3.749
	c-1.721,1.72-2.69,4.189-3.948,4.918c-1.257,0.728-2.8-0.287-4.366,0.11c-1.566,0.396-3.153,2.205-5.205,2.536
	c-2.051,0.33-4.564-0.816-5.822-2.427c-1.257-1.609-1.257-3.683,0-4.719c1.258-1.037,3.771-1.037,5.315-1.081
	s2.117-0.132,2.47-0.794c0.353-0.661,0.485-1.896,1.853-2.713c1.368-0.815,3.97-1.213,5.603-2.536
	c1.632-1.323,2.293-3.572,1.852-4.521c-0.44-0.948-1.984-0.596-3.837,0.353s-4.014,2.492-6.506,3.903
	c-2.492,1.412-5.315,2.69-7.256,1.809c-1.941-0.882-2.999-3.926-1.896-5.845c1.103-1.918,4.367-2.712,6.792-4.653
	c2.427-1.94,4.015-5.028,4.963-8.005c0.948-2.978,1.257-5.845,2.271-8.05s2.734-3.749,5.028-4.94c2.293-1.19,5.16-2.028,7.785-2.315
	c2.624-0.287,5.006-0.022,6.108-0.948s0.927-3.043,2.206-4.631s4.014-2.646,6.462-4.345s4.609-4.036,4.918-5.646
	c0.309-1.61-1.235-2.492-3.066-2.117c-1.83,0.375-3.947,2.007-6.064,3.418c-2.117,1.412-4.234,2.603-5.623,2.403
	c-1.39-0.198-2.052-1.785-1.853-3.484c0.198-1.697,1.257-3.506,1.786-5.469s0.529-4.08-0.243-5.337
	c-0.771-1.257-2.315-1.654-3.705,0.221c-1.389,1.874-2.624,6.021-3.639,9.372c-1.015,3.353-1.809,5.911-3.308,8.05
	c-1.5,2.14-3.705,3.859-5.646,5.007c-1.94,1.146-3.616,1.72-4.873,2.933c-1.258,1.214-2.096,3.065-3.309,4.918
	s-2.801,3.705-4.477,5.161c-1.677,1.455-3.44,2.514-5.603,2.514c-2.161,0-4.719-1.059-6.329-0.926
	c-1.61,0.132-2.271,1.455-1.323,2.58s3.507,2.051,4.676,3.065s0.948,2.117-0.685,3.749c-1.632,1.632-4.675,3.794-6.792,4.72
	s-3.309,0.617-4.919,1.632c-1.609,1.015-3.639,3.353-5.756,5.756c-2.117,2.404-4.322,4.874-5.293,6.837s-0.706,3.418,0.287,3.837
	c0.992,0.419,2.712-0.197,4.146-0.815c1.434-0.617,2.58-1.235,3.551-0.485s1.765,2.867,2.536,4.653
	c0.772,1.787,1.521,3.242,0.883,4.565c-0.64,1.323-2.669,2.514-4.984,3.859c-2.315,1.345-4.918,2.845-6.727,4.454
	c-1.809,1.61-2.823,3.331-4.058,5.007c-1.235,1.676-2.69,3.309-4.698,4.72c-2.007,1.411-4.565,2.603-7.762,4.08
	c-3.198,1.478-7.035,3.242-10.674,5.403s-7.079,4.719-9.814,7.277s-4.764,5.116-7.366,6.748c-2.603,1.633-5.778,2.338-8.292,2.735
	c-2.514,0.396-4.367,0.485-5.514,1.588c-1.146,1.103-1.587,3.22-3.043,3.925c-1.456,0.706-3.925,0-6.042,0.397
	c-2.117,0.396-3.881,1.896-6.307,2.558c-2.426,0.662-5.514,0.486-6.308,0.795s0.706,1.103,2.779,1.72
	c2.073,0.618,4.72,1.059,5.999,2.029c1.279,0.971,1.191,2.47-0.309,3.44c-1.5,0.97-4.411,1.411-7.499,2.338
	c-3.087,0.926-6.352,2.338-9.042,3.926s-4.808,3.352-5.999,3.219c-1.191-0.132-1.456-2.161-1.588-3.793s-0.132-2.866-1.544-2.91
	c-1.412-0.045-4.234,1.102-7.807,2.689c-3.573,1.589-7.895,3.617-11.645,4.544c-3.749,0.926-6.925,0.749-7.718-0.354
	c-0.794-1.103,0.793-3.132,0.749-4.675c-0.043-1.544-1.72-2.603-3.396-1.677c-1.676,0.927-3.352,3.838-5.249,6.66
	c-1.896,2.823-4.013,5.558-5.91,6.087s-3.573-1.146-5.161-1.499c-1.588-0.354-3.087,0.617-5.028,0.926
	c-1.94,0.309-4.323-0.044-5.954-0.485c-1.632-0.44-2.515-0.97-2.382-2.426c0.132-1.455,1.279-3.837,2.956-4.631
	c1.676-0.794,3.881,0,6.88-1.765c3-1.765,6.793-6.087,10.233-9.263c3.44-3.176,6.528-5.204,10.145-5.91
	c3.617-0.706,7.763-0.088,9.969,1.94c2.205,2.029,2.47,5.47,3.396,6.484c0.926,1.014,2.514-0.397,3.264-2.162
	c0.75-1.764,0.662-3.881,4.058-7.146c3.396-3.264,10.277-7.675,15.394-9.747c5.116-2.073,8.469-1.809,11.777-3.265
	c3.308-1.455,6.572-4.631,9.395-7.146c2.823-2.514,5.205-4.366,7.233-5.16c2.029-0.794,3.705-0.529,4.852-0.927
	c1.147-0.396,1.765-1.455,2.073-3.219c0.309-1.765,0.309-4.234,1.103-7.278c0.794-3.043,2.382-6.661,4.102-9.571
	c1.72-2.911,3.573-5.117,5.249-5.778c1.676-0.661,3.176,0.221,5.249,0.75c2.073,0.529,4.719,0.705,6.749-0.089
	c2.029-0.794,3.44-2.558,3.925-4.675c0.485-2.117,0.044-4.587-1.5-5.028c-1.544-0.44-4.19,1.146-9.527,2.426
	s-13.365,2.25-17.158,1.588c-3.793-0.661-3.352-2.955-1.455-4.411c1.896-1.455,5.249-2.072,6.263-3.484
	c1.014-1.411-0.309-3.616-2.117-4.543c-1.809-0.926-4.103-0.573-6.043,1.411c-1.941,1.985-3.528,5.603-4.808,8.469
	c-1.279,2.868-2.25,4.984-3.793,5.603c-1.543,0.617-3.661-0.265-4.675-2.294c-1.014-2.029-0.926-5.205-1.5-7.014
	c-0.573-1.808-1.808-2.249-3.44-2.117c-1.632,0.133-3.661,0.839-5.028-0.176c-1.367-1.015-2.073-3.749-3.749-4.499
	s-4.322,0.485-7.233,1.676c-2.911,1.191-6.087,2.338-9.924,2.911s-8.336,0.573-11.204-0.441c-2.867-1.014-4.102-3.043-2.823-4.322
	c1.279-1.279,5.073-1.808,6.705-2.955c1.632-1.146,1.104-2.911,2.118-4.19s3.573-2.073,3.705-3.396
	c0.132-1.323-2.162-3.176-2.294-4.72s1.897-2.778,3-4.146c1.103-1.367,1.279-2.866,0.97-4.234c-0.309-1.367-1.103-2.602-1.455-5.558
	c-0.353-2.955-0.265-7.631,1.014-11.115c1.279-3.484,3.75-5.777,5.029-8.115c1.279-2.338,1.367-4.72,0.617-5.161
	c-0.75-0.44-2.337,1.059-4.234,2.735c-1.897,1.676-4.102,3.528-5.293,5.734c-1.191,2.205-1.368,4.763-1.632,6.66
	c-0.265,1.896-0.617,3.131-2.117,4.719c-1.5,1.588-4.146,3.529-6.175,4.103c-2.029,0.573-3.44-0.221-5.955-1.412
	c-2.514-1.19-6.131-2.778-7.41-4.41c-1.279-1.632-0.22-3.308-0.132-5.866c0.088-2.559-0.794-5.999-2.47-8.116
	c-1.676-2.117-4.146-2.911-5.69-4.896c-1.544-1.985-2.161-5.161-1.809-6.749c0.353-1.588,1.676-1.588,3.308-1.896
	c1.632-0.309,3.573-0.927,5.028-1.809s2.426-2.028,1.632-2.646c-0.794-0.617-3.353-0.706-3.705-1.676
	c-0.353-0.971,1.499-2.823,1.764-4.234c0.265-1.411-1.059-2.382-2.559-2.249c-1.5,0.132-3.176,1.367-4.146,0.926
	s-1.235-2.558-1.543-4.543c-0.309-1.985-0.662-3.838-1.632-5.337c-0.97-1.5-2.558-2.646-2.337-3.838
	c0.22-1.19,2.249-2.426,3.087-4.014c0.838-1.588,0.485-3.528,1.279-4.676c0.794-1.146,2.735-1.499,4.631-2.514
	c1.897-1.015,3.749-2.69,5.646-4.323s3.837-3.22,6.043-4.412c2.206-1.191,4.675-1.985,5.778-3.353
	c1.103-1.367,0.838-3.308,2.515-5.91c1.676-2.603,5.293-5.866,8.645-7.631c3.352-1.764,6.439-2.028,7.763-1.058
	c1.323,0.97,0.882,3.176,1.72,4.896c0.838,1.72,2.955,2.955,5.205,2.69c2.25-0.265,4.631-2.029,6.352-3.97s2.778-4.058,4.631-4.631
	c1.852-0.573,4.499,0.397,6.352,1.676c1.852,1.279,2.911,2.866,4.411,3.175c1.5,0.309,3.44-0.661,5.293-2.161
	c1.853-1.5,3.617-3.528,4.499-6.086c0.882-2.559,0.882-5.646-0.265-8.292c-1.147-2.646-3.44-4.852-4.367-6.352
	s-0.485-2.293,0.794-2.823c1.279-0.529,3.396-0.793,5.293-1.411c1.896-0.618,3.572-1.588,4.278-2.912
	c0.706-1.323,0.441-2.999-1.058-3.925s-4.234-1.103-6.44-1.146s-3.881,0.044-5.954,1.412c-2.073,1.367-4.543,4.014-6.308,5.822
	c-1.765,1.808-2.823,2.778-3.793,2.646c-0.971-0.132-1.853-1.367-2.161-3.043s-0.044-3.793-0.662-4.94
	c-0.618-1.147-2.117-1.323-3.176-0.485s-1.676,2.69-2.382,2.735c-0.706,0.044-1.5-1.72-3.22-2.603
	c-1.72-0.882-4.367-0.882-7.19-0.838c-2.823,0.044-5.822,0.132-7.807-0.309c-1.984-0.441-2.955-1.412-4.984-3.573
	c-2.029-2.162-5.117-5.514-6.484-7.807c-1.368-2.294-1.015-3.528-0.926-4.764c0.088-1.235-0.088-2.47-0.662-4.587
	c-0.573-2.117-1.543-5.115-1.587-6.879s0.838-2.293,1.742-1.654s1.831,2.448,3.132,3.065c1.301,0.617,2.977,0.044,3.33-1.5
	c0.353-1.544-0.618-4.058-3.661-6.528s-8.16-4.896-10.961-6.727c-2.8-1.831-3.286-3.065-2.448-4.036s2.999-1.676,6.043-2.668
	c3.043-0.993,6.969-2.271,11.358-3.683c4.388-1.412,9.241-2.955,12.946-3.881c3.705-0.926,6.263-1.235,9.13-1.368
	c2.867-0.132,6.042-0.088,8.557,0.309c2.515,0.396,4.367,1.146,5.183,2.779c0.816,1.632,0.595,4.146-0.243,5.778
	c-0.838,1.632-2.294,2.382-2.779,3.374c-0.485,0.993,0,2.227,1.875,3.859c1.875,1.632,5.139,3.661,7.852,4.852
	c2.713,1.191,4.874,1.544,6.484,2.537c1.61,0.993,2.668,2.625,3.55,2.448c0.882-0.176,1.588-2.161,2.669-2.955
	c1.081-0.794,2.536-0.397,3.727-0.066c1.19,0.331,2.117,0.596,2.47-0.199c0.353-0.794,0.132-2.646-1.456-3.506
	s-4.543-0.728-6.462-1.853c-1.918-1.125-2.801-3.507-4.168-5.955c-1.367-2.448-3.22-4.962-4.058-7.432
	c-0.838-2.47-0.662-4.896,0.64-5.646c1.301-0.75,3.727,0.176,4.852,1.72c1.125,1.544,0.948,3.705,1.257,5.734
	c0.309,2.029,1.103,3.925,3.242,5.183c2.139,1.257,5.624,1.874,8.204,2.712c2.581,0.838,4.256,1.897,6.616,2.934
	s5.403,2.051,7.146,1.565c1.742-0.485,2.183-2.47,1.61-4.212c-0.574-1.743-2.161-3.242-4.675-3.904s-5.955-0.485-8.822-0.97
	c-2.867-0.485-5.161-1.632-5.271-3.44c-0.11-1.809,1.963-4.278,2.625-6.263c0.661-1.985-0.088-3.484-2.293-4.389
	c-2.206-0.904-5.867-1.213-9.086-1.743c-3.22-0.529-5.999-1.279-7.433-2.536c-1.434-1.257-1.521-3.021-1.83-5.205
	c-0.309-2.184-0.838-4.786-1.257-7.134c-0.419-2.349-0.728-4.443-2.734-7.785c-2.007-3.341-5.712-7.928-8.866-11.435
	c-3.153-3.507-5.756-5.932-7.123-8.204c-1.368-2.271-1.5-4.389-0.948-5.8c0.551-1.412,1.786-2.118,2.646-1.5
	c0.86,0.618,1.345,2.558,2.051,3.066c0.706,0.507,1.632-0.419,2.646-2.514c1.015-2.095,2.118-5.359,3.353-7.079
	c1.235-1.72,2.603-1.897,3.793-1.566c1.191,0.331,2.205,1.168,3.771,1.213c1.565,0.043,3.683-0.706,5.249-0.309
	c1.565,0.397,2.58,1.941,3.551,2.978c0.97,1.037,1.896,1.565,3.529,1.081c1.632-0.485,3.969-1.985,6.197-2.889
	s4.345-1.213,5.712-1.896c1.367-0.684,1.984-1.742,2.514-3.176c0.529-1.434,0.971-3.242,1.963-4.962
	c0.992-1.721,2.536-3.353,5.381-6.263c2.845-2.912,6.991-7.102,9.285-9.021c2.293-1.919,2.735-1.566,3.33-0.706
	c0.596,0.86,1.345,2.227,2.294,2.778c0.948,0.551,2.095,0.287,3.33-0.396c1.235-0.684,2.558-1.787,4.058-3.176
	c1.5-1.39,3.176-3.066,4.367-3.683c1.191-0.618,1.896-0.177,2.117,1.08c0.22,1.257-0.044,3.33,1.698,4.168
	c1.742,0.838,5.492,0.441,6.33-0.419c0.838-0.86-1.235-2.184-1.941-4.081c-0.706-1.896-0.044-4.366,1.434-5.734
	c1.478-1.367,3.771-1.632,4.763-0.882c0.993,0.75,0.684,2.514,1.566,3.462c0.882,0.948,2.955,1.081,4.653,1.147
	s3.021,0.066,4.499-1.081c1.478-1.147,3.109-3.44,4.896-5.822c1.787-2.382,3.728-4.852,5.139-6.153
	c1.412-1.301,2.294-1.434,3.771-0.221s3.55,3.771,4.785,5.514s1.632,2.668,0.927,3.793c-0.706,1.125-2.514,2.448-3.507,3.728
	c-0.992,1.279-1.169,2.514-0.44,3.749c0.728,1.235,2.359,2.47,4.035,2.955c1.677,0.485,3.396,0.221,3.859-0.375
	c0.464-0.596-0.33-1.522-0.507-2.669s0.265-2.514,1.08-3.881c0.816-1.367,2.008-2.735,3.287-2.867
	c1.278-0.132,2.646,0.971,3.043,2.691c0.396,1.72-0.177,4.058,0.529,5.778c0.706,1.72,2.69,2.823,4.499,2.359
	c1.809-0.463,3.44-2.492,5.689-2.823c2.25-0.331,5.117,1.036,6.308,2.646c1.19,1.61,0.706,3.462,1.081,5.215
	C457.939,111.884,459.175,113.538,460.719,114.1L460.719,114.1z M74.578,518.226c-2.051-2.073-5.8-4.764-8.205-6.639
	c-2.404-1.874-3.462-2.933-3.242-4.697c0.221-1.765,1.72-4.234,1.103-6.506c-0.618-2.271-3.353-4.345-5.293-4.168
	s-3.087,2.603-5.05,3.859s-4.741,1.345-7.586,0.992c-2.845-0.353-5.756-1.146-7.653-0.816c-1.896,0.331-2.778,1.786-1.654,3.198
	s4.256,2.778,8.954,5.315c4.697,2.536,10.96,6.241,15.768,9.263s8.16,5.358,10.52,6.108c2.359,0.75,3.727-0.088,4.234-1.235
	C76.981,521.754,76.628,520.299,74.578,518.226L74.578,518.226z M102.41,516.395c-1.213,1.081-2.36,2.757-1.742,4.19
	c0.617,1.434,2.999,2.625,4.565,2.47c1.566-0.154,2.315-1.653,2.338-3.329c0.022-1.677-0.684-3.529-1.676-4.213
	S103.623,515.314,102.41,516.395L102.41,516.395z M85.097,512.624c-1.676,0-3.264,0.794-3.462,2.382s0.992,3.97,2.558,5.006
	c1.566,1.037,3.506,0.728,4.587-0.463c1.081-1.191,1.301-3.264,0.529-4.698C88.537,513.418,86.773,512.624,85.097,512.624
	L85.097,512.624z M114.649,524.047c-1.544,0.133-3.75-0.484-4.146-1.963c-0.397-1.478,1.014-3.815,2.381-4.918
	c1.368-1.103,2.69-0.97,3.529,0.066c0.838,1.036,1.191,2.978,0.926,4.389S116.193,523.914,114.649,524.047L114.649,524.047z
	 M131.587,523.407c-1.147,0.992-3.75,0.729-5.756,0.309c-2.007-0.418-3.418-0.992-3.021-2.426c0.397-1.434,2.603-3.727,4.455-4.433
	s3.352,0.177,4.256,1.742C132.425,520.166,132.733,522.415,131.587,523.407L131.587,523.407z M140.497,526.406
	c-1.191-0.992-1.015-2.624-0.066-4.123c0.948-1.5,2.668-2.867,4.631-3.684c1.962-0.815,4.168-1.08,5.734-1.257
	s2.492-0.265,3.683-1.367c1.191-1.104,2.646-3.22,4.521-4.367c1.875-1.146,4.168-1.323,5.778-1.19
	c1.61,0.132,2.536,0.573,2.36,1.455c-0.176,0.883-1.456,2.205-3.573,4.124s-5.073,4.433-8.005,6.551
	c-2.933,2.117-5.845,3.837-8.579,4.521C144.246,527.752,141.688,527.399,140.497,526.406L140.497,526.406z M179.51,508.786
	c0.551-1.235,1.521-2.471,2.912-2.779c1.389-0.309,3.197,0.309,5.292,0.992c2.095,0.685,4.477,1.434,5.712,2.515
	c1.235,1.08,1.323,2.492,1.169,3.264c-0.154,0.772-0.551,0.904-1.301,1.146c-0.75,0.243-1.852,0.596-1.543,1.346
	s2.029,1.896,2.183,3.021s-1.257,2.228-3.308,3.374c-2.051,1.147-4.741,2.338-9.02,2.978s-10.145,0.728-13.343,0.088
	c-3.198-0.64-3.727-2.007-2.933-3.396c0.794-1.389,2.911-2.8,5.359-3.153c2.448-0.353,5.227,0.353,7.609-0.133
	c2.381-0.485,4.366-2.161,4.366-3.285c0-1.125-1.985-1.698-2.911-2.603S178.958,510.021,179.51,508.786L179.51,508.786z
	 M198.763,507.683c-0.882,1.985,0.308,4.588,2.073,5.47c1.764,0.882,4.102,0.044,5.403-1.125c1.301-1.168,1.566-2.668,1.279-4.234
	c-0.287-1.565-1.125-3.197-3.021-3.329C202.6,504.331,199.645,505.698,198.763,507.683L198.763,507.683z M238.392,508.073
	c0.515-0.948-0.657-1.971-1.603-3.629c-0.946-1.657-1.667-3.951-2.026-5.892c-0.36-1.941-0.36-3.528-2.036-4.478
	c-1.676-0.948-5.029-1.256-7.808-0.991s-4.984,1.102-6.44,2.47c-1.456,1.367-2.161,3.264-3.22,4.477s-2.47,1.742-3.087,3.132
	s-0.441,3.639,0.088,4.984c0.53,1.345,1.412,1.786,2.845,1.301s3.418-1.896,5.602-3.242c2.184-1.345,4.565-2.624,6.727-1.853
	c2.161,0.772,4.102,3.596,6.173,4.569C235.676,509.896,237.877,509.021,238.392,508.073L238.392,508.073z M290.22,504.75
	c-2.228,2.051-6.197,3.506-9.02,3.55c-2.823,0.045-4.499-1.322-4.565-2.977c-0.066-1.654,1.478-3.595,3.286-4.455
	s3.881-0.64,5.492-1.191c1.61-0.551,2.756-1.874,4.014-2.381c1.257-0.508,2.624-0.199,3.065,1.278S292.448,502.698,290.22,504.75
	L290.22,504.75z M384.656,488.606c2.757-0.154,4.256,0.684,5.778,0.44c1.521-0.242,3.065-1.565,3.705-3.396
	c0.64-1.831,0.375-4.168,1.323-6.418c0.949-2.25,3.11-4.411,4.654-4.676c1.543-0.265,2.47,1.367,4.058,1.279
	s3.837-1.896,7.212-4.212c3.374-2.315,7.873-5.139,10.277-7.389c2.403-2.249,2.712-3.925,1.874-5.183
	c-0.838-1.257-2.822-2.095-2.933-3.814c-0.11-1.721,1.653-4.323,3.285-6.639c1.633-2.315,3.132-4.345,3.221-6.176
	c0.088-1.83-1.235-3.462-3.021-4.587c-1.787-1.124-4.036-1.742-6.22-1.278c-2.184,0.463-4.301,2.007-5.403,3.991
	c-1.103,1.985-1.19,4.411-2.69,5.381c-1.499,0.971-4.41,0.485-5.689,1.412c-1.279,0.926-0.927,3.264-1.39,3.859
	c-0.464,0.595-1.742-0.552-3.021-1.434s-2.559-1.5-3.749-1.169c-1.191,0.331-2.293,1.61-1.941,3.242
	c0.353,1.632,2.161,3.617,2.779,5.535c0.617,1.919,0.044,3.771-1.015,3.484c-1.059-0.286-2.602-2.712-4.741-4.08
	c-2.14-1.367-4.874-1.676-7.057-1.411c-2.184,0.265-3.816,1.103-4.389,2.779c-0.573,1.676-0.088,4.189,0.552,6.396
	c0.64,2.205,1.433,4.102,2.403,5.756s2.117,3.065,4.036,3.528c1.918,0.463,4.609-0.021,5.205,1.059
	c0.595,1.081-0.904,3.728-3.153,4.874c-2.25,1.147-5.249,0.794-7.741,1.61c-2.492,0.815-4.477,2.801-5.558,4.609
	s-1.257,3.439,0.662,3.683C377.885,489.907,381.899,488.761,384.656,488.606L384.656,488.606z M233.454,360.828
	c-1.037-1.743-2.228-3.904-4.014-5.448c-1.787-1.543-4.168-2.47-5.293-4.631c-1.125-2.161-0.993-5.558-0.353-7.808
	c0.64-2.249,1.786-3.352,3.132-3.153c1.345,0.199,2.888,1.698,4.035,2.801c1.147,1.104,1.897,1.809,3.331,1.632
	c1.434-0.176,3.551-1.234,5.359-1.433c1.809-0.199,3.308,0.463,4.631,2.447c1.323,1.985,2.47,5.294,2.779,8.16
	c0.309,2.867-0.22,5.293-1.786,5.999c-1.566,0.705-4.168-0.309-5.844,0.375c-1.676,0.684-2.426,3.065-3.242,3.595
	S234.49,362.57,233.454,360.828L233.454,360.828z M203.99,244.803c-0.64-1.677-0.596-3.485,0.485-5.867s3.198-5.337,4.675-6.352
	c1.478-1.014,2.316-0.088,2.603,1.478c0.287,1.565,0.022,3.771,1.081,5.469c1.059,1.698,3.44,2.889,5.8,2.8
	c2.359-0.088,4.698-1.455,6.065-1.212s1.764,2.095,1.918,3.837s0.066,3.374,1.213,5.227c1.147,1.853,3.529,3.926,5.47,5.712
	c1.941,1.787,3.44,3.286,3.992,4.565c0.551,1.279,0.154,2.337-1.367,2.624c-1.522,0.287-4.168-0.199-6.22,0.331
	c-2.051,0.529-3.506,2.073-4.962,2.58s-2.911-0.022-3.529-1.654c-0.617-1.632-0.397-4.366-0.97-6.947
	c-0.573-2.58-1.94-5.006-3.33-6.396s-2.801-1.742-4.411-1.809c-1.61-0.066-3.418,0.155-4.984-0.507
	C205.952,248.022,204.629,246.479,203.99,244.803L203.99,244.803z M673.757,491.033c-1.059-1.588-2.47-4.852-3.705-7.321
	c-1.235-2.471-2.294-4.146-4.014-4.632c-1.721-0.484-4.103,0.221-5.646-0.529c-1.544-0.749-2.25-2.955-2.955-5.954
	c-0.706-2.999-1.412-6.793-3.529-9.837c-2.117-3.043-5.646-5.337-7.983-7.807c-2.338-2.47-3.484-5.116-3.22-6.572
	c0.265-1.455,1.94-1.72,3.705-2.955c1.764-1.235,3.616-3.44,4.808-4.984c1.19-1.544,1.72-2.426,3.132-1.279
	c1.411,1.147,3.705,4.323,6.219,7.896c2.515,3.572,5.249,7.542,7.233,11.644c1.985,4.103,3.221,8.337,4.5,12.438
	c1.278,4.103,2.602,8.072,3.264,11.601c0.661,3.528,0.661,6.616,0.661,9.704C675.521,492.533,674.815,492.621,673.757,491.033
	L673.757,491.033z M730.811,501.067c-2.096-0.507-4.653,1.654-6.065,3.771c-1.411,2.117-1.676,4.19-1.08,6.572
	s2.051,5.072,2.999,5.535c0.948,0.464,1.39-1.301,2.889-3.176c1.5-1.874,4.059-3.859,4.521-6.439S732.905,501.575,730.811,501.067
	L730.811,501.067z M696.869,486.931c-1.19,0-2.249,0.971-1.786,2.25s2.448,2.867,3.308,4.212c0.86,1.346,0.596,2.448-0.617,3.265
	c-1.213,0.815-3.374,1.345-4.345,2.47c-0.97,1.125-0.75,2.845,0.198,3.947c0.949,1.103,2.625,1.588,2.735,2.492
	s-1.346,2.228-1.809,3.749c-0.463,1.522,0.066,3.242,1.279,4.146s3.109,0.992,5.844,3.109c2.735,2.117,6.308,6.264,8.646,9.042
	c2.338,2.779,3.44,4.19,4.322,3.859c0.883-0.33,1.544-2.403,1.875-3.991s0.331-2.69,1.367-2.999
	c1.037-0.309,3.109,0.176,4.234-0.596c1.125-0.772,1.302-2.801,0.242-4.124c-1.058-1.323-3.352-1.941-4.146-3.088
	s-0.088-2.823-0.684-4.08s-2.492-2.095-3.728-2.999c-1.234-0.904-1.808-1.874-1.521-2.779c0.287-0.904,1.434-1.742,1.521-3.176
	s-0.882-3.462-2.293-4.829c-1.412-1.367-3.264-2.073-5.139-3.287c-1.875-1.212-3.771-2.933-5.382-4.278
	C699.384,487.901,698.061,486.931,696.869,486.931z"/>
</svg>
